<svg width="16" height="16" viewBox="0 0 16 16" fill="none" xmlns="http://www.w3.org/2000/svg">
<g clip-path="url(#clip0_7_7745)">
<path d="M8 16C12.4183 16 16 12.4183 16 8C16 3.58172 12.4183 0 8 0C3.58172 0 0 3.58172 0 8C0 12.4183 3.58172 16 8 16Z" fill="#F5EB16"/>
<path d="M7.9675 2C4.671 2.0005 2 4.6735 2 7.97C2.0005 11.266 4.6735 13.938 7.97 13.9375C11.266 13.9365 13.938 11.264 13.9375 7.9675C13.9374 7.18366 13.7828 6.40753 13.4827 5.68341C13.1826 4.9593 12.7429 4.30139 12.1885 3.74725C11.6341 3.19311 10.976 2.75359 10.2518 2.4538C9.52754 2.154 8.75134 1.9998 7.9675 2ZM5.544 4.615C5.54439 4.59878 5.55118 4.58337 5.56289 4.57213C5.5746 4.56089 5.59027 4.55473 5.6065 4.555H8.093C8.61463 4.54522 9.13181 4.65252 9.6065 4.869C9.6965 4.913 9.785 4.962 9.8705 5.015L8.252 5.9415H7.4075C7.39942 5.94169 7.39146 5.94348 7.38408 5.94675C7.37669 5.95002 7.37002 5.95472 7.36445 5.96057C7.35887 5.96642 7.35451 5.97331 7.3516 5.98085C7.34869 5.98839 7.3473 5.99642 7.3475 6.0045V6.4705L5.544 7.5135V4.615ZM4.8745 9.854L3.7935 8.762L7.3535 6.708V8.039C7.35389 8.05522 7.36068 8.07063 7.37239 8.08187C7.3841 8.09311 7.39977 8.09927 7.416 8.099H7.9245L4.878 9.854H4.8745ZM10.2055 8.839C9.6835 9.275 8.967 9.493 8.056 9.493H7.4075C7.39119 9.493 7.37555 9.49948 7.36401 9.51101C7.35248 9.52255 7.346 9.53819 7.346 9.5545V10.8985L6.441 11.4195L5.596 11.908L5.5425 11.938V9.7105L8.344 8.0985C8.58345 8.09117 8.81282 8.00045 8.9925 7.842C9.05635 7.77865 9.10998 7.70579 9.1515 7.626L10.9405 6.5905C10.9705 6.7545 10.9855 6.9205 10.985 7.0875C10.987 7.819 10.7275 8.4025 10.2055 8.839ZM9.2455 7.3295C9.2575 7.253 9.2635 7.175 9.264 7.0975C9.27911 6.79298 9.17856 6.494 8.9825 6.2605C8.8726 6.13856 8.73181 6.04855 8.575 6L11.0615 4.5645L12.1525 5.656L9.2455 7.3295Z" fill="white"/>
</g>
<defs>
<clipPath id="clip0_7_7745">
<rect width="16" height="16" fill="white"/>
</clipPath>
</defs>
</svg>
