<svg width="16" height="16" viewBox="0 0 16 16" fill="none" xmlns="http://www.w3.org/2000/svg">
<g clip-path="url(#clip0_7_8091)">
<path d="M8 16C12.4183 16 16 12.4183 16 8C16 3.58172 12.4183 0 8 0C3.58172 0 0 3.58172 0 8C0 12.4183 3.58172 16 8 16Z" fill="#FF914D"/>
<path fill-rule="evenodd" clip-rule="evenodd" d="M8.00009 13.629C4.89109 13.629 2.37109 11.109 2.37109 8C2.37109 4.891 4.89109 2.371 8.00009 2.371C11.1091 2.371 13.6291 4.891 13.6291 8C13.6291 11.109 11.1091 13.629 8.00009 13.629ZM8.00009 13.298C10.9261 13.298 13.2981 10.926 13.2981 8C13.2981 5.074 10.9261 2.702 8.00009 2.702C5.07409 2.702 2.70209 5.074 2.70209 8C2.70209 10.926 5.07409 13.298 8.00009 13.298Z" fill="white"/>
<path d="M7.04548 12.066C7.16948 12.015 7.65448 11.641 8.12298 11.2385C8.70366 10.7446 9.26221 10.2253 9.79698 9.682C10.31 9.169 10.5005 8.9485 10.532 8.83451C10.643 8.43401 9.42948 4.0315 9.18248 3.937C9.03198 3.879 7.68598 4.9985 6.49398 6.1705C5.79498 6.8575 5.60148 7.086 5.58648 7.2355C5.57648 7.351 5.61648 7.6405 5.69098 7.9835C5.98748 9.3445 6.52698 11.225 6.79998 11.8425C6.91448 12.1045 6.92748 12.116 7.04498 12.066H7.04548Z" fill="white"/>
</g>
<defs>
<clipPath id="clip0_7_8091">
<rect width="16" height="16" fill="white"/>
</clipPath>
</defs>
</svg>
