<svg width="16" height="16" viewBox="0 0 16 16" fill="none" xmlns="http://www.w3.org/2000/svg">
<g clip-path="url(#clip0_7_8059)">
<path d="M8 16C12.4183 16 16 12.4183 16 8C16 3.58172 12.4183 0 8 0C3.58172 0 0 3.58172 0 8C0 12.4183 3.58172 16 8 16Z" fill="#D82122"/>
<path d="M7.18636 4.737C7.39236 4.487 7.31136 4.116 7.31136 4.116L6.71236 5.0335C6.70336 5.0335 6.92736 5.0425 7.18636 4.737ZM5.14486 9.711L5.21686 9.3465C5.21686 9.3465 4.91936 9.8745 4.89236 9.9475C4.86536 10.0295 4.91036 10.175 5.02736 10.166C5.14486 10.157 5.28886 9.984 5.28886 9.856C5.28886 9.6925 5.14486 9.711 5.14486 9.711Z" fill="white"/>
<path d="M10.5235 3.849C10.5235 3.849 10.9775 3.8675 11.4495 3.9225C10.3875 3.0755 9.37952 2.827 8.56252 2.827C7.43703 2.827 6.67452 3.2965 6.62902 3.324L6.98302 2.7535C6.98302 2.7535 5.56653 2.615 5.06753 4.1345C4.94003 3.812 4.82253 3.3425 4.82253 3.3425C4.82253 3.3425 4.08703 3.9965 4.43203 5.0825C3.58753 4.77 2.38003 4.3375 2.33453 4.328C2.27103 4.319 2.25303 4.3465 2.25303 4.3465C2.25303 4.3465 2.23453 4.3745 2.28903 4.4205C2.38903 4.503 4.29552 5.9305 4.71302 6.2065C4.62252 6.538 4.62252 6.6945 4.71302 6.8515C4.84052 7.063 4.84952 7.1735 4.83153 7.33C4.81302 7.4865 4.64953 8.84 4.61353 9.006C4.57703 9.1715 4.19603 9.761 4.21353 9.936C4.23203 10.111 4.46853 10.8565 4.67703 10.9395C4.83153 10.9945 5.21253 11.1145 5.46703 11.1145C5.55753 11.1145 5.63952 11.096 5.67552 11.0595C5.83002 10.921 5.87552 10.8935 5.98452 10.8935H6.01152C6.05652 10.8935 6.11153 10.9025 6.17503 10.9025C6.32003 10.9025 6.51102 10.875 6.64702 10.746C6.84702 10.5435 7.19202 10.267 7.30052 10.1385C7.43702 9.9635 7.50952 9.7235 7.47302 9.4845C7.44602 9.2635 7.56402 9.07 7.70002 8.877C7.87252 8.647 8.19002 8.232 8.19002 8.232C8.81702 8.711 9.20702 9.4385 9.20702 10.249C9.20702 11.685 7.97252 12.8455 6.44702 12.8455C6.21453 12.8455 5.98288 12.8177 5.75703 12.7625C6.45652 13.011 7.04653 13.094 7.52752 13.094C8.55352 13.094 9.09853 12.7165 9.09853 12.7165C9.09853 12.7165 8.90753 12.965 8.59853 13.2505H8.60852C10.306 13.011 11.132 11.593 11.132 11.593C11.132 11.593 11.0685 12.0535 10.987 12.3665C13.247 10.6445 12.866 8.49 12.857 8.4165C12.875 8.444 13.102 8.7205 13.22 8.8675C13.583 5.074 10.5235 3.849 10.5235 3.849ZM7.04653 9.9075C7.01003 9.9535 6.85602 10.092 6.74652 10.193C6.63802 10.2945 6.52002 10.3955 6.42902 10.488C6.39302 10.5245 6.32002 10.543 6.21102 10.543H5.93903C6.07503 10.359 6.47452 9.935 6.61052 9.843C6.77402 9.733 6.85552 9.622 6.75552 9.429C6.65602 9.2355 6.39302 9.2815 6.39302 9.2815C6.39302 9.2815 6.54702 9.217 6.68302 9.217C6.51102 9.171 6.29303 9.217 6.19302 9.3185C6.08402 9.4195 6.10253 9.7785 6.05703 10.0085C6.01153 10.2485 5.85702 10.368 5.62102 10.589C5.49402 10.709 5.40302 10.7455 5.33102 10.7455C5.17366 10.7175 5.01869 10.6774 4.86752 10.6255C4.77702 10.506 4.64052 10.1105 4.60452 9.9445C4.63152 9.8525 4.74053 9.659 4.79452 9.5485C4.90402 9.3365 4.96753 9.217 4.98552 9.1065C5.02202 8.95 5.14003 7.983 5.18553 7.578C5.30353 7.7345 5.46703 7.9925 5.43053 8.158C5.69403 7.7805 5.50303 7.4125 5.41252 7.265C5.33052 7.1175 5.22152 6.823 5.31253 6.51C5.40303 6.197 5.73003 5.3315 5.73003 5.3315C5.73003 5.3315 5.83903 5.525 5.99353 5.488C6.14753 5.451 7.39152 3.5545 7.39152 3.5545C7.39152 3.5545 7.72752 4.3 7.37352 4.8435C7.01002 5.3865 6.65602 5.488 6.65602 5.488C6.65602 5.488 7.15553 5.58 7.61853 5.2395C7.80902 5.6905 7.99052 6.16 8.00002 6.2245C7.97252 6.289 7.60952 7.173 7.57302 7.228C7.55502 7.2465 7.42802 7.283 7.33702 7.302C7.18252 7.348 7.09202 7.3755 7.05552 7.403C6.99202 7.458 6.70152 8.2685 6.56552 8.6645C6.38173 8.71182 6.22271 8.82707 6.12053 8.987C6.18403 8.941 6.38352 8.913 6.52902 8.895C6.65602 8.8855 7.04653 9.0975 7.14652 9.4935V9.5115C7.16453 9.659 7.11903 9.797 7.04653 9.9075ZM6.19302 10.018C6.27502 9.898 6.26552 9.696 6.27502 9.6315C6.28402 9.5665 6.30202 9.447 6.37502 9.429C6.44753 9.4105 6.62002 9.438 6.62002 9.567C6.62002 9.687 6.49252 9.7145 6.40202 9.797C6.33852 9.862 6.21102 9.9995 6.19302 10.018ZM9.81553 8.2595C9.90653 7.7895 9.91552 7.3845 9.88802 7.053C10.2428 7.53953 10.4621 8.1115 10.5235 8.7105C10.5325 8.7845 10.6055 8.858 10.678 8.9315C10.7415 8.9865 10.814 9.0605 10.814 9.1065C10.814 9.3185 10.796 9.53 10.7595 9.7415C10.7505 9.7695 10.669 9.8155 10.6055 9.8525C10.5145 9.8985 10.433 9.9445 10.4145 10.018C10.2152 10.7231 9.79541 11.3458 9.21653 11.795C10.0605 10.902 10.469 9.429 9.81553 8.2595ZM9.24352 11.878C9.83352 11.418 10.2875 10.773 10.4875 10.0455C10.4965 10.018 10.578 9.972 10.6325 9.9355C10.7235 9.889 10.814 9.834 10.8325 9.7605C10.8685 9.5485 10.887 9.3275 10.887 9.1065C10.887 9.0235 10.805 8.941 10.7235 8.858C10.678 8.803 10.6055 8.738 10.6055 8.692C10.5318 8.02409 10.2739 7.38981 9.86053 6.86C9.67953 5.755 8.95303 5.4145 8.93503 5.405C8.95303 5.4325 9.42502 6.1235 9.09853 6.9335C8.76253 7.7535 7.90002 7.624 7.82752 7.6335C7.75452 7.6335 7.47302 8.0015 7.11902 8.683C6.97192 8.63848 6.81643 8.62907 6.66502 8.6555C6.82852 8.195 7.07352 7.5415 7.11902 7.486C7.13752 7.4675 7.27352 7.431 7.36402 7.403C7.53652 7.357 7.61853 7.3295 7.64552 7.293C7.66402 7.265 7.75452 7.053 7.84552 6.8325C7.92702 6.8325 8.13553 6.814 8.15403 6.8045C8.17252 6.786 8.34503 6.335 8.34503 6.2795C8.34503 6.234 7.99052 5.3405 7.85452 4.9995C7.92469 4.91563 7.98838 4.82654 8.04502 4.733C9.90652 4.9355 11.359 6.538 11.359 8.4805C11.3604 9.18813 11.1628 9.88189 10.7889 10.4826C10.4149 11.0834 9.87959 11.5669 9.24403 11.878H9.24352Z" fill="white"/>
<path d="M6.83788 6.918C7.00938 6.716 6.91888 6.3395 6.60288 6.2755C6.68388 6.0825 6.80138 5.697 6.80138 5.697C6.80138 5.697 5.87888 7.1655 5.79738 7.1935C5.71588 7.221 5.63488 6.8995 5.63488 6.8995C5.46288 7.5695 5.92438 7.6615 5.97838 7.4505C6.23188 7.386 6.66588 7.1105 6.83788 6.918Z" fill="white"/>
</g>
<defs>
<clipPath id="clip0_7_8059">
<rect width="16" height="16" fill="white"/>
</clipPath>
</defs>
</svg>
