<svg width="16" height="16" viewBox="0 0 16 16" fill="none" xmlns="http://www.w3.org/2000/svg">
<g clip-path="url(#clip0_7_8017)">
<path d="M8 16C12.4183 16 16 12.4183 16 8C16 3.58172 12.4183 0 8 0C3.58172 0 0 3.58172 0 8C0 12.4183 3.58172 16 8 16Z" fill="#F1CB60"/>
<path d="M7.63144 12.428V13.1595H7.99995V12.065H7.26845V12.428H7.63144ZM3.96295 8.41301H3.59995V10.239H3.96295V9.50751H4.33145V8.77601H3.96295V8.41301ZM8.36845 10.602H8.73145V11.6965H8.36845V10.602ZM7.99995 11.6965H8.36845V12.065H7.99995V11.6965ZM4.33145 11.3335H5.43145V12.428H4.33145V11.3335ZM3.59995 7.68151H3.96845V8.04451H3.59995V7.68151ZM5.79995 6.95001H6.16845V7.31851H5.79995V6.95001ZM7.99995 6.58151H8.36845V7.31301H7.99995V6.58151ZM3.23145 5.48701H4.33145V6.58151H3.23145V5.48701ZM6.53145 12.428H6.89995V13.1595H6.53145V12.428ZM6.89995 6.58151H6.53695V7.31301H6.89995V6.95001H7.26845V6.21851H6.89995V6.58151ZM7.26845 5.85551H7.63144V6.21851H7.26845V5.85551ZM7.26845 6.95001H7.63144V7.31301H7.26845V6.95001ZM5.43145 7.68151H6.53145V8.04451H5.43145V7.68151Z" fill="white"/>
<path d="M6.9 6.2185V5.8555H7.263V5.487H6.9V4.761H5.8V5.124H6.5315V5.487H6.163V5.85H5.8V6.213H5.437V5.8555H5.063V5.4925H5.4315V5.85H5.8V5.487H5.437V4.761H2.5V7.3185H5.437V6.95H5.8V6.2185H6.1685V6.5815H6.537V6.2185H6.9ZM4.7 6.95H2.8685V5.124H4.7V6.95ZM5.063 6.95V6.2185H5.4315V6.95H5.063ZM6.5315 5.85V5.4925H6.9V5.85H6.5315ZM9.4685 9.8705V9.5075H8.7315V8.776H8.3685V9.139H8.0055V8.776H8.3685V7.676H7.637V8.0445H7.263V8.776H6.9V9.139H7.2685V8.776H7.6315V9.8705H6.9V9.5075H6.5315V8.776H6.1685V8.413H5.4315V8.05H5.063V7.687H4.3315V8.05H3.963V8.413H4.3315V8.776H4.7V8.413H5.0685V8.776H4.7V9.139H5.0685V9.502H5.4315V9.139H5.8V8.776H6.163V9.139H5.8V9.502H5.437V10.2335H6.1685V10.602H5.4315V10.239H5.063V10.602H4.3315V10.239H3.9685V10.602H3.6V13.1595H6.1685V10.965H6.5315V12.065H7.2685V11.702H7.637V10.965H7.2685V10.602H6.9V10.965H6.537V10.2335H7.637V10.5965H8.0055V9.8705H8.7315V10.239H9.1V9.8705H9.4685ZM5.8 12.791H3.9685V10.965H5.8V12.791ZM6.1685 9.8705H5.8V9.5075H6.1685V9.8705ZM6.9 11.3335H7.2685V11.6965H6.9V11.3335ZM9.4685 4.761H9.8315V5.487H9.4685V4.761ZM8.7315 4.761H8.3685V5.8555H8V6.2185H8.3685V6.5815H8.7315V7.313H9.1V6.5815H9.4685V7.3185H9.8315V6.95H10.2V6.2185H9.4685V5.487H8.7315V4.761Z" fill="white"/>
<path fill-rule="evenodd" clip-rule="evenodd" d="M12.0311 8.776H11.2996V9.139H10.9311V9.5075H10.5681V8.413H10.9311V8.0445H10.5681V8.4075H10.1996V8.776H9.83111V8.0445H9.46811V8.776H9.09961V9.1445L9.46811 9.139H9.83111V9.8705H10.9311V10.239H9.83111V10.602H9.46811V10.965H9.09961V11.3335H9.46811V11.6965H9.09961V12.065H9.46811V12.428H9.83111V12.791H9.46811V13.1595H12.3996V10.965H12.0311V12.791H10.1996V10.965H11.2996V9.5075H11.6681V9.8705H12.3996V9.1445H12.0366V8.776H12.3996V7.6815H12.0311V8.776Z" fill="white"/>
<path d="M9.10034 10.239H9.46884V10.602H9.10034V10.239ZM10.9318 8.41301H11.3003V8.77601H10.9318V8.41301ZM11.6688 10.239H12.4003V10.6075H11.6688V10.239ZM11.6688 5.49251H12.7688V6.58701H11.6688V5.49251ZM10.2003 6.95001H10.5688V7.31851H10.2003V6.95001ZM8.73184 7.68151H9.10034V8.04451H8.73184V7.68151ZM11.3003 7.68151H11.6688V8.04451H11.3003V7.68151ZM10.5688 11.3335H11.6688V12.428H10.5688V11.3335ZM10.2003 7.68151H10.5688V8.04451H10.2003V7.68151ZM7.63184 5.48701H8.00034V5.85551H7.63184V5.48701Z" fill="white"/>
<path d="M10.1998 4.761V5.124H10.9313V5.487H10.5628V5.85H10.1998V5.487H9.83129V5.8555H10.1998V6.213H10.5683V6.576H10.9368V7.3075H13.4998V4.761H10.1998ZM13.1313 6.95H11.2998V5.124H13.1313V6.95ZM4.92529 4.1175C5.17829 4.288 5.46429 4.321 5.68979 4.332C5.88229 4.343 6.20679 4.343 6.54779 4.343C7.18029 4.343 7.92279 4.354 7.99979 4.354C8.20329 4.3595 8.82479 4.3595 9.37479 4.3595C9.71579 4.3595 10.0348 4.354 10.2328 4.3485C10.4583 4.3375 10.7443 4.299 10.9973 4.134C11.3163 3.9195 11.4758 3.5675 11.4758 3.089C11.4758 2.704 11.3163 2.473 11.1843 2.341C10.8268 1.9945 10.2768 2.0165 10.0953 2.022H10.0733C9.96329 2.022 9.56729 2.0825 9.09979 2.3465C8.68729 2.5775 8.32979 2.9075 8.03829 3.32L8.00529 3.4025L7.97779 3.3585C7.66979 2.8965 7.26829 2.583 6.82279 2.33C6.36079 2.066 5.96479 2.011 5.85479 2.011H5.83279C5.65129 2.0055 5.10129 1.9835 4.74379 2.33C4.50179 2.561 4.45229 2.8635 4.45229 3.078C4.44679 3.551 4.60629 3.903 4.92529 4.1175ZM9.36929 2.8855C9.75979 2.66 10.0568 2.627 10.0788 2.627H10.1173C10.4308 2.616 10.6508 2.6655 10.7663 2.7755C10.8378 2.847 10.8763 2.946 10.8763 3.089C10.8763 3.6115 10.6288 3.727 10.2053 3.749C9.84779 3.7655 9.01729 3.76 8.47829 3.7545C8.70005 3.39657 9.00592 3.09825 9.36929 2.8855ZM5.15629 2.759C5.26079 2.66 5.44779 2.6105 5.71729 2.6105H5.84929C5.87129 2.6105 6.16829 2.6435 6.55879 2.869C6.91079 3.0725 7.21329 3.364 7.45529 3.738C6.91079 3.7435 6.08029 3.749 5.72279 3.7325C5.29929 3.7105 5.05179 3.595 5.05179 3.0725C5.05179 2.9295 5.08479 2.8305 5.15629 2.759ZM8.73129 12.428H8.36829V13.1595H8.73679V12.428H9.09979V12.065H8.73129V12.428Z" fill="white"/>
</g>
<defs>
<clipPath id="clip0_7_8017">
<rect width="16" height="16" fill="white"/>
</clipPath>
</defs>
</svg>
