<svg width="16" height="16" viewBox="0 0 16 16" fill="none" xmlns="http://www.w3.org/2000/svg">
<g clip-path="url(#clip0_7_8001)">
<path d="M8 16C12.4183 16 16 12.4183 16 8C16 3.58172 12.4183 0 8 0C3.58172 0 0 3.58172 0 8C0 12.4183 3.58172 16 8 16Z" fill="#2EBAC6"/>
<path d="M11.467 10.787L8.792 4.021C8.64 3.671 8.417 3.5 8.1215 3.5H7.885C7.589 3.5 7.3655 3.6715 7.2145 4.021L6.051 6.969H5.1705C4.9065 6.97 4.6925 7.193 4.6905 7.469V7.476C4.6925 7.7525 4.9065 7.9755 5.1705 7.9765H5.6435L4.533 10.787C4.51191 10.8489 4.50077 10.9137 4.5 10.979C4.5 11.1365 4.546 11.26 4.6315 11.356C4.7165 11.452 4.835 11.5 4.9865 11.5C5.08641 11.4984 5.18316 11.4647 5.2625 11.404C5.3475 11.3425 5.407 11.253 5.4525 11.1505L6.6755 7.9765H7.5235C7.787 7.9755 8.001 7.752 8.0035 7.476V7.4625C8.001 7.186 7.787 6.9625 7.5235 6.962H7.07L8.003 4.5285L10.5465 11.15C10.5925 11.2525 10.6515 11.342 10.737 11.4035C10.8175 11.4645 10.914 11.4985 11.0135 11.4995C11.1645 11.4995 11.283 11.4515 11.3685 11.3555C11.4535 11.2595 11.4995 11.136 11.4995 10.9785C11.5021 10.9129 11.4911 10.848 11.467 10.787Z" fill="white"/>
</g>
<defs>
<clipPath id="clip0_7_8001">
<rect width="16" height="16" fill="white"/>
</clipPath>
</defs>
</svg>
