<svg width="16" height="16" viewBox="0 0 16 16" fill="none" xmlns="http://www.w3.org/2000/svg">
<g clip-path="url(#clip0_7_8031)">
<path d="M8 16C12.4183 16 16 12.4183 16 8C16 3.58172 12.4183 0 8 0C3.58172 0 0 3.58172 0 8C0 12.4183 3.58172 16 8 16Z" fill="#3EFFFF"/>
<path d="M3.25 5.2435L8 2.5L12.75 5.2435V10.7565L8 13.5L3.25 10.7565V5.2435ZM3.706 10.2285L5.611 9.126L6.5775 7.4335L3.706 5.772V10.2285ZM3.9345 10.624L7.7855 12.8485V10.72L5.7665 9.5635L3.9345 10.624ZM12.294 5.7875L9.448 7.434L10.414 9.125L12.294 10.213V5.7875ZM12.079 5.3835L8.2415 3.167V5.3215L9.2215 7.037L12.079 5.3835ZM9.0555 7.661L8.4695 8L9.632 8.6725L9.0555 7.661ZM8.829 7.264L8.2415 6.234V7.604L8.829 7.264ZM6.397 8.6715L7.557 8L6.9725 7.662L6.3975 8.6715H6.397ZM6.224 9.2995L7.7855 10.1935V8.396L6.224 9.2995ZM3.934 5.376L6.804 7.036L7.7855 5.3185V3.1515L3.934 5.376ZM12.079 10.6165L10.261 9.5645L8.2415 10.735V12.833L12.079 10.6165ZM9.805 9.3005L8.2415 8.396V10.207L9.805 9.3005ZM7.199 7.265L7.7855 7.604V6.2365L7.199 7.265Z" fill="white"/>
</g>
<defs>
<clipPath id="clip0_7_8031">
<rect width="16" height="16" fill="white"/>
</clipPath>
</defs>
</svg>
