<svg width="16" height="16" viewBox="0 0 16 16" fill="none" xmlns="http://www.w3.org/2000/svg">
<g clip-path="url(#clip0_7_8050)">
<path d="M8 16C12.4183 16 16 12.4183 16 8C16 3.58172 12.4183 0 8 0C3.58172 0 0 3.58172 0 8C0 12.4183 3.58172 16 8 16Z" fill="#767DFF"/>
<path fill-rule="evenodd" clip-rule="evenodd" d="M6.88501 3.25H9.11501C9.19228 3.24996 9.26817 3.27051 9.33487 3.30953C9.40157 3.34854 9.45667 3.40462 9.49451 3.472L12.9475 9.6315C12.9839 9.69643 13.0029 9.76959 13.0029 9.844C13.0029 9.91841 12.9839 9.99157 12.9475 10.0565L11.8425 12.0275C11.8048 12.0949 11.7498 12.151 11.6832 12.1901C11.6166 12.2292 11.5407 12.2499 11.4635 12.25H4.53651C4.45918 12.25 4.38326 12.2294 4.31656 12.1903C4.24985 12.1512 4.19478 12.095 4.15701 12.0275L3.05251 10.0565C3.01616 9.99157 2.99707 9.91841 2.99707 9.844C2.99707 9.76959 3.01616 9.69643 3.05251 9.6315L6.50551 3.472C6.54334 3.40462 6.59845 3.34854 6.66514 3.30953C6.73184 3.27051 6.80773 3.24996 6.88501 3.25ZM8.00001 5.7005L5.67351 9.844H10.3265L8.00001 5.7005Z" fill="white"/>
</g>
<defs>
<clipPath id="clip0_7_8050">
<rect width="16" height="16" fill="white"/>
</clipPath>
</defs>
</svg>
