<svg width="16" height="16" viewBox="0 0 16 16" fill="none" xmlns="http://www.w3.org/2000/svg">
<g clip-path="url(#clip0_7_7693)">
<path d="M8 16C12.4183 16 16 12.4183 16 8C16 3.58172 12.4183 0 8 0C3.58172 0 0 3.58172 0 8C0 12.4183 3.58172 16 8 16Z" fill="#FF0000"/>
<path d="M2.203 10.8555L4.8715 5.997C4.982 5.794 5.1655 5.739 5.3515 5.849H5.371C5.41269 5.87407 5.45913 5.89021 5.50737 5.8964C5.55562 5.9026 5.60463 5.89871 5.6513 5.88499C5.69797 5.87127 5.74128 5.848 5.77849 5.81668C5.81571 5.78535 5.84602 5.74664 5.8675 5.703L7.742 2.831C7.8055 2.71 7.8865 2.5985 7.982 2.5C8.066 2.603 8.1285 2.7215 8.1655 2.849L8.9755 4.8555C9.159 5.3165 9.6005 5.6475 10.0615 5.6475H10.208C10.4445 5.6565 10.6685 5.755 10.8345 5.9235L11.4225 6.5485C11.597 6.7335 11.7575 6.93 11.9025 7.138L13.7985 9.862C13.8695 9.97 13.937 10.0805 14 10.193V10.211C13.8979 10.1316 13.8053 10.0407 13.724 9.94L11.1655 7.2855C11.0075 7.12608 10.8711 6.94653 10.76 6.7515C10.556 6.31 10.299 6.125 9.895 6.1445H9.38C9.068 6.1445 8.9935 6.0895 8.9 5.776L8.1655 3.476C8.037 3.015 8.018 3.015 7.8895 3.476L7.393 5.036C7.2825 5.3475 7.245 5.8635 7.3005 5.8635C7.3195 5.8635 7.448 5.6235 7.6505 5.201C7.689 5.115 7.738 5.0345 7.797 4.961C7.844 5.137 7.869 5.318 7.872 5.5C7.818 5.627 7.7565 5.75 7.687 5.8685L7.669 5.9235C7.448 6.328 7.448 6.347 7.687 6.7335L7.9075 7.101C7.9915 7.214 8.0595 7.338 8.1105 7.469C8.00618 7.55721 7.89537 7.63744 7.779 7.709L6.638 8.445C6.43435 8.55663 6.20756 8.61944 5.9755 8.6285C5.57 8.6105 5.2205 8.8135 4.9075 9.2355L4.466 9.862C4.307 10.058 4.128 10.237 3.932 10.396L3.5275 10.727C3.31936 10.8714 3.09745 10.9948 2.865 11.0955L2.6445 11.1505C2.4845 11.2085 2.317 11.2455 2.1475 11.26C2.072 11.26 2 11.26 2 11.242C2.0575 11.108 2.125 10.979 2.203 10.8555Z" fill="white"/>
</g>
<defs>
<clipPath id="clip0_7_7693">
<rect width="16" height="16" fill="white"/>
</clipPath>
</defs>
</svg>
