<svg width="16" height="16" viewBox="0 0 16 16" fill="none" xmlns="http://www.w3.org/2000/svg">
<g clip-path="url(#clip0_7_7907)">
<path d="M8 16C12.4183 16 16 12.4183 16 8C16 3.58172 12.4183 0 8 0C3.58172 0 0 3.58172 0 8C0 12.4183 3.58172 16 8 16Z" fill="#0D1E30"/>
<g filter="url(#filter0_d_7_7907)">
<path d="M7.86228 3.03C8.10178 2.9065 8.39428 3.192 8.26728 3.4275C8.19278 3.6195 7.91228 3.6705 7.76928 3.524C7.61778 3.384 7.66728 3.106 7.86228 3.0295V3.03ZM5.28478 3.303C5.43028 3.244 5.61478 3.375 5.59978 3.5315C5.61478 3.7005 5.40478 3.8255 5.25628 3.745C5.05978 3.67 5.08228 3.356 5.28478 3.303ZM10.5638 3.7495C10.3363 3.7225 10.3003 3.3705 10.5188 3.2995C10.6888 3.2185 10.8448 3.371 10.8698 3.5295C10.8338 3.6645 10.7188 3.7885 10.5638 3.7495ZM5.87128 4.382C6.11478 4.2305 6.46178 4.456 6.42428 4.7345C6.41178 5.015 6.03278 5.178 5.81878 4.988C5.61178 4.839 5.64328 4.497 5.87128 4.382ZM9.58628 4.543C9.69478 4.268 10.1348 4.259 10.2583 4.527C10.3808 4.7355 10.2303 4.994 10.0128 5.065C9.72428 5.118 9.45078 4.811 9.58628 4.543ZM7.55178 5.0495C7.54928 4.8125 7.76828 4.6365 7.99678 4.62C8.14878 4.65 8.31378 4.7135 8.37878 4.864C8.50028 5.072 8.39228 5.3575 8.17378 5.453C8.07378 5.508 7.95478 5.4875 7.84578 5.481C7.67928 5.401 7.53878 5.2425 7.55178 5.0495ZM3.71878 5.3945C3.94128 5.2595 4.24128 5.5045 4.15678 5.7425C4.11078 5.948 3.82978 6.0315 3.66928 5.9005C3.49778 5.7775 3.52478 5.482 3.71928 5.394L3.71878 5.3945ZM11.9498 5.3935C12.1383 5.2495 12.4498 5.415 12.4268 5.649C12.4398 5.8625 12.1703 6.024 11.9833 5.914C11.7773 5.8225 11.7558 5.5105 11.9498 5.394V5.3935ZM8.62978 5.819C8.94078 5.709 9.31078 5.8405 9.48778 6.114C9.72178 6.4475 9.59778 6.9555 9.23428 7.147C8.85828 7.3735 8.30878 7.182 8.16928 6.768C8.01178 6.398 8.24178 5.935 8.62928 5.819H8.62978ZM6.80328 5.8555C7.14828 5.6955 7.61278 5.8295 7.77928 6.1765C7.97528 6.5145 7.82378 6.985 7.47328 7.1595C7.12228 7.356 6.62678 7.207 6.45728 6.8445C6.26678 6.4935 6.43578 6.017 6.80328 5.8555ZM4.97478 6.47C5.00128 6.2515 5.21078 6.109 5.42228 6.094C5.53258 6.10565 5.63566 6.15438 5.71468 6.23221C5.7937 6.31005 5.84397 6.41239 5.85728 6.5225C5.84228 6.7475 5.66578 6.9665 5.42378 6.9655C5.15728 6.988 4.92378 6.727 4.97478 6.47ZM10.3758 6.142C10.6493 5.9855 11.0288 6.213 11.0168 6.522C11.0353 6.8495 10.6153 7.08 10.3433 6.888C10.0603 6.728 10.0823 6.278 10.3758 6.142ZM6.06078 7.2955C6.37978 7.209 6.74578 7.357 6.90228 7.646C7.07378 7.937 7.00378 8.341 6.73728 8.555C6.39478 8.868 5.76428 8.742 5.58228 8.315C5.37278 7.9235 5.62728 7.3985 6.06028 7.295L6.06078 7.2955ZM9.52428 7.294C9.83478 7.2065 10.1998 7.324 10.3668 7.6025C10.5878 7.921 10.4823 8.3965 10.1538 8.6015C9.80878 8.84 9.27578 8.715 9.08578 8.342C8.85578 7.9565 9.08728 7.4115 9.52428 7.294ZM4.00428 7.657C4.28028 7.5545 4.58628 7.854 4.47428 8.1235C4.40628 8.3685 4.05478 8.4595 3.87328 8.2785C3.66078 8.1085 3.73928 7.731 4.00428 7.657ZM11.4888 8.048C11.4836 7.93794 11.5221 7.83027 11.5959 7.74844C11.6697 7.6666 11.7728 7.61721 11.8828 7.611C12.0718 7.641 12.2558 7.791 12.2408 7.9935C12.2583 8.261 11.9308 8.4425 11.6988 8.317C11.5903 8.2625 11.5348 8.153 11.4888 8.048ZM2.64678 7.79C2.81278 7.7185 3.01828 7.86 2.98028 8.0415C2.97128 8.247 2.66278 8.3265 2.54978 8.1545C2.44978 8.035 2.50978 7.8515 2.64678 7.7895V7.79ZM13.1213 7.7855C13.2383 7.704 13.4263 7.7625 13.4723 7.897C13.5508 8.044 13.4068 8.245 13.2388 8.2205C13.0028 8.2415 12.9268 7.888 13.1213 7.7855ZM6.96278 8.772C7.39978 8.6605 7.86978 9.019 7.87278 9.462C7.90078 9.9095 7.43778 10.306 6.99078 10.203C6.64478 10.148 6.37328 9.82 6.38478 9.4765C6.38378 9.1475 6.63578 8.8415 6.96278 8.772ZM8.69378 8.7715C9.13728 8.6495 9.62128 9.0145 9.61428 9.4675C9.63778 9.9065 9.18928 10.29 8.75128 10.2025C8.33878 10.1505 8.03478 9.705 8.14978 9.311C8.20778 9.049 8.43078 8.836 8.69378 8.771V8.7715ZM5.35578 9.044C5.66278 8.9925 5.95078 9.329 5.82628 9.616C5.73528 9.922 5.28328 10.0045 5.08328 9.755C4.84928 9.515 5.02428 9.077 5.35578 9.044ZM10.4328 9.0575C10.7068 8.9445 11.0428 9.1775 11.0218 9.47C11.0328 9.7915 10.6178 10.0135 10.3503 9.8255C10.0468 9.657 10.1023 9.1605 10.4328 9.0575ZM11.8518 10.4575C11.7448 10.261 11.9393 10.0005 12.1618 10.037C12.2718 10.035 12.3493 10.1205 12.4198 10.1925C12.4343 10.309 12.4588 10.448 12.3603 10.5375C12.2268 10.704 11.9243 10.6565 11.8518 10.4575ZM3.71778 10.0915C3.92528 9.956 4.22378 10.1585 4.17678 10.3965C4.15178 10.608 3.88178 10.7285 3.70428 10.6085C3.51328 10.5 3.52028 10.1905 3.71778 10.0915ZM7.81428 10.533C8.08578 10.4155 8.43178 10.648 8.40578 10.942C8.42578 11.267 7.99828 11.492 7.73278 11.297C7.43778 11.1295 7.48728 10.6365 7.81428 10.533ZM5.91728 10.9685C6.14828 10.849 6.45828 11.0555 6.43728 11.3105C6.44428 11.5195 6.23728 11.6975 6.02728 11.6665C5.85378 11.663 5.74078 11.5095 5.68478 11.364C5.68778 11.2055 5.75428 11.029 5.91728 10.969V10.9685ZM9.76028 10.9725C9.99828 10.8275 10.3363 11.0355 10.3138 11.3075C10.3198 11.5925 9.93778 11.7745 9.71628 11.5875C9.50228 11.441 9.52828 11.089 9.76028 10.9725ZM10.4288 12.5975C10.3228 12.4405 10.4473 12.251 10.6188 12.215C10.7573 12.2425 10.9038 12.345 10.8743 12.502C10.8543 12.7155 10.5373 12.7805 10.4288 12.598V12.5975ZM5.12328 12.461C5.16528 12.336 5.26728 12.2125 5.41678 12.245C5.63428 12.26 5.69878 12.583 5.50828 12.6825C5.33728 12.796 5.13828 12.6405 5.12328 12.461ZM7.68328 12.6045C7.72478 12.4195 7.96728 12.33 8.12728 12.428C8.23328 12.473 8.26428 12.589 8.29128 12.688C8.27701 12.7394 8.26367 12.7911 8.25128 12.843C8.18578 12.919 8.10128 12.9955 7.99228 12.993C7.78978 13.0165 7.60678 12.791 7.68278 12.6045H7.68328Z" fill="black"/>
</g>
<path d="M7.86228 3.03C8.10178 2.9065 8.39428 3.192 8.26728 3.4275C8.19278 3.6195 7.91228 3.6705 7.76928 3.524C7.61778 3.384 7.66728 3.106 7.86228 3.0295V3.03ZM5.28478 3.303C5.43028 3.244 5.61478 3.375 5.59978 3.5315C5.61478 3.7005 5.40478 3.8255 5.25628 3.745C5.05978 3.67 5.08228 3.356 5.28478 3.303ZM10.5638 3.7495C10.3363 3.7225 10.3003 3.3705 10.5188 3.2995C10.6888 3.2185 10.8448 3.371 10.8698 3.5295C10.8338 3.6645 10.7188 3.7885 10.5638 3.7495ZM5.87128 4.382C6.11478 4.2305 6.46178 4.456 6.42428 4.7345C6.41178 5.015 6.03278 5.178 5.81878 4.988C5.61178 4.839 5.64328 4.497 5.87128 4.382ZM9.58628 4.543C9.69478 4.268 10.1348 4.259 10.2583 4.527C10.3808 4.7355 10.2303 4.994 10.0128 5.065C9.72428 5.118 9.45078 4.811 9.58628 4.543ZM7.55178 5.0495C7.54928 4.8125 7.76828 4.6365 7.99678 4.62C8.14878 4.65 8.31378 4.7135 8.37878 4.864C8.50028 5.072 8.39228 5.3575 8.17378 5.453C8.07378 5.508 7.95478 5.4875 7.84578 5.481C7.67928 5.401 7.53878 5.2425 7.55178 5.0495ZM3.71878 5.3945C3.94128 5.2595 4.24128 5.5045 4.15678 5.7425C4.11078 5.948 3.82978 6.0315 3.66928 5.9005C3.49778 5.7775 3.52478 5.482 3.71928 5.394L3.71878 5.3945ZM11.9498 5.3935C12.1383 5.2495 12.4498 5.415 12.4268 5.649C12.4398 5.8625 12.1703 6.024 11.9833 5.914C11.7773 5.8225 11.7558 5.5105 11.9498 5.394V5.3935ZM8.62978 5.819C8.94078 5.709 9.31078 5.8405 9.48778 6.114C9.72178 6.4475 9.59778 6.9555 9.23428 7.147C8.85828 7.3735 8.30878 7.182 8.16928 6.768C8.01178 6.398 8.24178 5.935 8.62928 5.819H8.62978ZM6.80328 5.8555C7.14828 5.6955 7.61278 5.8295 7.77928 6.1765C7.97528 6.5145 7.82378 6.985 7.47328 7.1595C7.12228 7.356 6.62678 7.207 6.45728 6.8445C6.26678 6.4935 6.43578 6.017 6.80328 5.8555ZM4.97478 6.47C5.00128 6.2515 5.21078 6.109 5.42228 6.094C5.53258 6.10565 5.63566 6.15438 5.71468 6.23221C5.7937 6.31005 5.84397 6.41239 5.85728 6.5225C5.84228 6.7475 5.66578 6.9665 5.42378 6.9655C5.15728 6.988 4.92378 6.727 4.97478 6.47ZM10.3758 6.142C10.6493 5.9855 11.0288 6.213 11.0168 6.522C11.0353 6.8495 10.6153 7.08 10.3433 6.888C10.0603 6.728 10.0823 6.278 10.3758 6.142ZM6.06078 7.2955C6.37978 7.209 6.74578 7.357 6.90228 7.646C7.07378 7.937 7.00378 8.341 6.73728 8.555C6.39478 8.868 5.76428 8.742 5.58228 8.315C5.37278 7.9235 5.62728 7.3985 6.06028 7.295L6.06078 7.2955ZM9.52428 7.294C9.83478 7.2065 10.1998 7.324 10.3668 7.6025C10.5878 7.921 10.4823 8.3965 10.1538 8.6015C9.80878 8.84 9.27578 8.715 9.08578 8.342C8.85578 7.9565 9.08728 7.4115 9.52428 7.294ZM4.00428 7.657C4.28028 7.5545 4.58628 7.854 4.47428 8.1235C4.40628 8.3685 4.05478 8.4595 3.87328 8.2785C3.66078 8.1085 3.73928 7.731 4.00428 7.657ZM11.4888 8.048C11.4836 7.93794 11.5221 7.83027 11.5959 7.74844C11.6697 7.6666 11.7728 7.61721 11.8828 7.611C12.0718 7.641 12.2558 7.791 12.2408 7.9935C12.2583 8.261 11.9308 8.4425 11.6988 8.317C11.5903 8.2625 11.5348 8.153 11.4888 8.048ZM2.64678 7.79C2.81278 7.7185 3.01828 7.86 2.98028 8.0415C2.97128 8.247 2.66278 8.3265 2.54978 8.1545C2.44978 8.035 2.50978 7.8515 2.64678 7.7895V7.79ZM13.1213 7.7855C13.2383 7.704 13.4263 7.7625 13.4723 7.897C13.5508 8.044 13.4068 8.245 13.2388 8.2205C13.0028 8.2415 12.9268 7.888 13.1213 7.7855ZM6.96278 8.772C7.39978 8.6605 7.86978 9.019 7.87278 9.462C7.90078 9.9095 7.43778 10.306 6.99078 10.203C6.64478 10.148 6.37328 9.82 6.38478 9.4765C6.38378 9.1475 6.63578 8.8415 6.96278 8.772ZM8.69378 8.7715C9.13728 8.6495 9.62128 9.0145 9.61428 9.4675C9.63778 9.9065 9.18928 10.29 8.75128 10.2025C8.33878 10.1505 8.03478 9.705 8.14978 9.311C8.20778 9.049 8.43078 8.836 8.69378 8.771V8.7715ZM5.35578 9.044C5.66278 8.9925 5.95078 9.329 5.82628 9.616C5.73528 9.922 5.28328 10.0045 5.08328 9.755C4.84928 9.515 5.02428 9.077 5.35578 9.044ZM10.4328 9.0575C10.7068 8.9445 11.0428 9.1775 11.0218 9.47C11.0328 9.7915 10.6178 10.0135 10.3503 9.8255C10.0468 9.657 10.1023 9.1605 10.4328 9.0575ZM11.8518 10.4575C11.7448 10.261 11.9393 10.0005 12.1618 10.037C12.2718 10.035 12.3493 10.1205 12.4198 10.1925C12.4343 10.309 12.4588 10.448 12.3603 10.5375C12.2268 10.704 11.9243 10.6565 11.8518 10.4575ZM3.71778 10.0915C3.92528 9.956 4.22378 10.1585 4.17678 10.3965C4.15178 10.608 3.88178 10.7285 3.70428 10.6085C3.51328 10.5 3.52028 10.1905 3.71778 10.0915ZM7.81428 10.533C8.08578 10.4155 8.43178 10.648 8.40578 10.942C8.42578 11.267 7.99828 11.492 7.73278 11.297C7.43778 11.1295 7.48728 10.6365 7.81428 10.533ZM5.91728 10.9685C6.14828 10.849 6.45828 11.0555 6.43728 11.3105C6.44428 11.5195 6.23728 11.6975 6.02728 11.6665C5.85378 11.663 5.74078 11.5095 5.68478 11.364C5.68778 11.2055 5.75428 11.029 5.91728 10.969V10.9685ZM9.76028 10.9725C9.99828 10.8275 10.3363 11.0355 10.3138 11.3075C10.3198 11.5925 9.93778 11.7745 9.71628 11.5875C9.50228 11.441 9.52828 11.089 9.76028 10.9725ZM10.4288 12.5975C10.3228 12.4405 10.4473 12.251 10.6188 12.215C10.7573 12.2425 10.9038 12.345 10.8743 12.502C10.8543 12.7155 10.5373 12.7805 10.4288 12.598V12.5975ZM5.12328 12.461C5.16528 12.336 5.26728 12.2125 5.41678 12.245C5.63428 12.26 5.69878 12.583 5.50828 12.6825C5.33728 12.796 5.13828 12.6405 5.12328 12.461ZM7.68328 12.6045C7.72478 12.4195 7.96728 12.33 8.12728 12.428C8.23328 12.473 8.26428 12.589 8.29128 12.688C8.27701 12.7394 8.26367 12.7911 8.25128 12.843C8.18578 12.919 8.10128 12.9955 7.99228 12.993C7.78978 13.0165 7.60678 12.791 7.68278 12.6045H7.68328Z" fill="white"/>
</g>
<defs>
<filter id="filter0_d_7_7907" x="1.5" y="2.50021" width="12.9941" height="11.9945" filterUnits="userSpaceOnUse" color-interpolation-filters="sRGB">
<feFlood flood-opacity="0" result="BackgroundImageFix"/>
<feColorMatrix in="SourceAlpha" type="matrix" values="0 0 0 0 0 0 0 0 0 0 0 0 0 0 0 0 0 0 127 0" result="hardAlpha"/>
<feOffset dy="0.5"/>
<feGaussianBlur stdDeviation="0.5"/>
<feColorMatrix type="matrix" values="0 0 0 0 0 0 0 0 0 0 0 0 0 0 0 0 0 0 0.204257 0"/>
<feBlend mode="normal" in2="BackgroundImageFix" result="effect1_dropShadow_7_7907"/>
<feBlend mode="normal" in="SourceGraphic" in2="effect1_dropShadow_7_7907" result="shape"/>
</filter>
<clipPath id="clip0_7_7907">
<rect width="16" height="16" fill="white"/>
</clipPath>
</defs>
</svg>
