<svg width="16" height="16" viewBox="0 0 16 16" fill="none" xmlns="http://www.w3.org/2000/svg">
<g clip-path="url(#clip0_7_8010)">
<path d="M8 16C12.4183 16 16 12.4183 16 8C16 3.58172 12.4183 0 8 0C3.58172 0 0 3.58172 0 8C0 12.4183 3.58172 16 8 16Z" fill="#FEC807"/>
<path fill-rule="evenodd" clip-rule="evenodd" d="M12.4921 8.8155H10.0281L9.58813 7.4955H12.4881C12.5873 7.4955 12.6824 7.4561 12.7526 7.38596C12.8227 7.31582 12.8621 7.22069 12.8621 7.1215C12.8621 7.02231 12.8227 6.92718 12.7526 6.85704C12.6824 6.7869 12.5873 6.7475 12.4881 6.7475H9.35013L8.09163 2.911C8.07567 2.78425 8.01504 2.66734 7.92064 2.58127C7.82623 2.49519 7.70424 2.44559 7.57655 2.44138C7.44887 2.43716 7.32387 2.4786 7.22399 2.55826C7.12412 2.63792 7.05591 2.75058 7.03162 2.876L4.02163 12.0275C4.01362 12.0775 4.01362 12.1275 4.02163 12.1775C4.02371 12.2994 4.06976 12.4165 4.15131 12.5072C4.23286 12.5979 4.34441 12.6561 4.46544 12.671C4.58647 12.686 4.70884 12.6567 4.81002 12.5887C4.9112 12.5206 4.9844 12.4183 5.01612 12.3005L7.54163 4.6005L8.26312 6.7475H7.63812C7.53893 6.7475 7.44381 6.7869 7.37367 6.85704C7.30353 6.92718 7.26412 7.02231 7.26412 7.1215C7.26412 7.22069 7.30353 7.31582 7.37367 7.38596C7.44381 7.4561 7.53893 7.4955 7.63812 7.4955H8.51812L8.95813 8.8155H7.63812C7.58901 8.8155 7.54038 8.82517 7.495 8.84397C7.44963 8.86276 7.4084 8.89031 7.37367 8.92504C7.33894 8.95977 7.31139 9.001 7.29259 9.04638C7.2738 9.09175 7.26412 9.14038 7.26412 9.1895C7.26412 9.23861 7.2738 9.28725 7.29259 9.33262C7.31139 9.378 7.33894 9.41923 7.37367 9.45396C7.4084 9.48869 7.44963 9.51623 7.495 9.53503C7.54038 9.55383 7.58901 9.5635 7.63812 9.5635H9.21813L9.93062 11.6755H6.15112C6.01109 11.6755 5.87679 11.7311 5.77777 11.8301C5.67875 11.9292 5.62313 12.0635 5.62313 12.2035C5.62313 12.3435 5.67875 12.4778 5.77777 12.5769C5.87679 12.6759 6.01109 12.7315 6.15112 12.7315H10.6216C10.8986 12.7315 11.1231 12.507 11.1231 12.23C11.1234 12.154 11.1068 12.0789 11.0746 12.01L10.2696 9.5635H12.4696C12.5187 9.5635 12.5674 9.55383 12.6127 9.53503C12.6581 9.51623 12.6994 9.48869 12.7341 9.45396C12.7688 9.41923 12.7964 9.378 12.8152 9.33262C12.834 9.28725 12.8436 9.23861 12.8436 9.1895C12.8436 9.14038 12.834 9.09175 12.8152 9.04638C12.7964 9.001 12.7688 8.95977 12.7341 8.92504C12.6994 8.89031 12.6581 8.86276 12.6127 8.84397C12.5674 8.82517 12.5187 8.8155 12.4696 8.8155H12.4921Z" fill="white"/>
</g>
<defs>
<clipPath id="clip0_7_8010">
<rect width="16" height="16" fill="white"/>
</clipPath>
</defs>
</svg>
