<svg width="16" height="16" viewBox="0 0 16 16" fill="none" xmlns="http://www.w3.org/2000/svg">
<g clip-path="url(#clip0_7_8076)">
<path d="M8 16C12.4183 16 16 12.4183 16 8C16 3.58172 12.4183 0 8 0C3.58172 0 0 3.58172 0 8C0 12.4183 3.58172 16 8 16Z" fill="#1B75BC"/>
<path fill-rule="evenodd" clip-rule="evenodd" d="M5.7935 4.301L8 6.604L10.1525 4.301L11.5 5.68L9.302 8L11.5 10.3015L10.1525 11.698L8 9.396L5.7935 11.698L4.5 10.34L6.68 7.987L4.5 5.68L5.7935 4.301ZM5.971 4.113L7.991 2L10.011 4.113L8.948 5.2455L7.991 4.1885L7.034 5.2455L5.971 4.113ZM5.971 11.887L7.034 10.7545L7.991 11.8115L8.948 10.7545L10.011 11.887L7.991 14L5.971 11.887Z" fill="white"/>
</g>
<defs>
<clipPath id="clip0_7_8076">
<rect width="16" height="16" fill="white"/>
</clipPath>
</defs>
</svg>
