<svg width="16" height="16" viewBox="0 0 16 16" fill="none" xmlns="http://www.w3.org/2000/svg">
<g clip-path="url(#clip0_7_8064)">
<path d="M8 16C12.4183 16 16 12.4183 16 8C16 3.58172 12.4183 0 8 0C3.58172 0 0 3.58172 0 8C0 12.4183 3.58172 16 8 16Z" fill="#DE3F6B"/>
<path d="M4.876 5.5H5.328C6.0345 5.567 6.688 5.9105 7.1715 6.405C8.176 7.4245 8.728 8.863 10.0065 9.6215C10.9305 10.17 12.223 9.7215 12.677 8.7945C12.908 8.7905 13.1405 8.7905 13.3715 8.7915C13.0535 9.733 12.127 10.4095 11.114 10.5H10.741C10.1175 10.45 9.511 10.218 9.0395 9.817C8.3545 9.2555 7.9145 8.485 7.382 7.799C6.924 7.1925 6.457 6.5105 5.699 6.235C4.7625 5.8955 3.619 6.4265 3.2775 7.3285C2.9775 8.0715 3.2215 8.9925 3.8925 9.4685C4.3955 9.8445 5.096 9.985 5.7 9.766C6.371 9.532 6.869 9 7.251 8.436C7.4015 8.6445 7.548 8.856 7.693 9.069C7.099 9.7925 6.275 10.414 5.295 10.5H4.8935C3.6585 10.417 2.585 9.402 2.5 8.203V7.8105C2.58 6.614 3.64 5.587 4.876 5.5ZM10.716 5.5H11.091C12.3375 5.5785 13.3975 6.614 13.5 7.813V8.428C12.4715 8.437 11.442 8.431 10.4135 8.432C10.4145 8.252 10.4145 8.0735 10.4135 7.8935C11.2265 7.8915 12.0385 7.897 12.85 7.8915C12.7925 7.5735 12.718 7.248 12.523 6.9785C12.048 6.2765 11.0435 5.9895 10.2405 6.2935C9.6005 6.5235 9.1185 7.0265 8.747 7.5635C8.604 7.365 8.462 7.1635 8.3245 6.9605C8.911 6.2265 9.7295 5.5915 10.716 5.5Z" fill="white"/>
</g>
<defs>
<clipPath id="clip0_7_8064">
<rect width="16" height="16" fill="white"/>
</clipPath>
</defs>
</svg>
