<svg width="16" height="16" viewBox="0 0 16 16" fill="none" xmlns="http://www.w3.org/2000/svg">
<g clip-path="url(#clip0_7_8116)">
<path d="M8 16C12.4183 16 16 12.4183 16 8C16 3.58172 12.4183 0 8 0C3.58172 0 0 3.58172 0 8C0 12.4183 3.58172 16 8 16Z" fill="#134451"/>
<path d="M6.99962 8.161C6.75112 8.161 6.56312 8.203 6.43312 8.2825C6.30812 8.36 6.24512 8.4775 6.24512 8.6315C6.24512 8.7465 6.28412 8.8395 6.35762 8.9055C6.43312 8.972 6.53912 9.005 6.67112 9.005C6.87612 9.005 7.04712 8.941 7.18312 8.815C7.31962 8.687 7.41212 8.508 7.45812 8.2785L7.47912 8.161H6.99962ZM9.63162 7.0765C9.55612 7.0105 9.45012 6.9775 9.31862 6.9775C9.11312 6.9775 8.94212 7.0415 8.80612 7.1675C8.67012 7.2955 8.57712 7.4745 8.53162 7.704L8.51012 7.821L8.99012 7.819C9.23862 7.819 9.42662 7.777 9.55612 7.6975C9.68112 7.62 9.74412 7.503 9.74412 7.3485C9.74412 7.2335 9.70762 7.143 9.63162 7.0765Z" fill="white"/>
<path d="M13.4827 7.355C13.3187 5.873 10.7277 4.956 7.69766 5.3075C4.66766 5.6585 2.34466 7.145 2.50866 8.6275C2.67316 10.1095 5.26216 11.026 8.29366 10.675C11.3262 10.3235 13.6472 8.837 13.4827 7.355ZM10.3127 8.097C10.0057 8.316 9.55816 8.424 8.97066 8.4265L8.40016 8.4285L8.38266 8.51C8.37748 8.52789 8.37462 8.54638 8.37416 8.565C8.37166 8.5765 8.37166 8.5875 8.37166 8.5965C8.37166 8.7225 8.43016 8.815 8.54466 8.8765C8.65966 8.941 8.82966 8.9715 9.05266 8.9715C9.26416 8.9715 9.46766 8.9475 9.65966 8.9035C9.84966 8.859 10.0337 8.793 10.2087 8.7045L10.0637 9.482C9.84566 9.535 9.63616 9.577 9.42866 9.6035C9.22892 9.63213 9.02745 9.647 8.82566 9.648C8.54916 9.648 8.32016 9.6145 8.13616 9.544C7.94616 9.471 7.73416 9.312 7.62866 9.0845C7.43302 9.27106 7.20627 9.422 6.95866 9.5305C6.72903 9.62856 6.48186 9.67892 6.23216 9.6785C5.91716 9.681 5.66816 9.6035 5.49116 9.451C5.31166 9.299 5.22316 9.0865 5.22116 8.8195C5.21866 8.4085 5.37216 8.097 5.67716 7.8805C5.98366 7.662 6.43116 7.554 7.01916 7.5515L7.58916 7.5495L7.60666 7.4675C7.61202 7.44963 7.61504 7.43114 7.61566 7.4125C7.61766 7.4015 7.61766 7.3905 7.61766 7.3815C7.61766 7.2555 7.55916 7.163 7.44466 7.101C7.33016 7.037 7.15966 7.006 6.93666 7.006C6.72516 7.006 6.52166 7.0305 6.32966 7.0745C6.13966 7.1185 5.95566 7.1845 5.78066 7.2735L5.92566 6.496C6.14366 6.443 6.35316 6.401 6.56066 6.3745C6.76041 6.34587 6.96188 6.331 7.16366 6.33C7.44066 6.33 7.66966 6.3635 7.85366 6.434C8.04366 6.507 8.25516 6.666 8.36116 6.8935C8.55677 6.70676 8.78352 6.55566 9.03116 6.447C9.26064 6.349 9.50764 6.29865 9.75716 6.299C10.0727 6.297 10.3212 6.374 10.4982 6.5265C10.6782 6.679 10.7662 6.8915 10.7682 7.1585C10.7707 7.567 10.6197 7.8805 10.3127 8.097Z" fill="white"/>
<path d="M8.26145 10.8515C7.82295 10.9025 7.38845 10.9265 6.96695 10.9265C5.96395 10.9265 5.02645 10.7855 4.24595 10.509C3.92321 10.398 3.61448 10.2498 3.32595 10.0675C3.21945 10.6265 3.29095 11.119 3.56545 11.4855C4.35395 12.539 6.56045 12.2035 8.74345 10.7855C8.58345 10.8095 8.42345 10.8315 8.26145 10.8515ZM7.74945 5.153C9.22945 4.9805 10.6559 5.102 11.7644 5.495C12.0876 5.60612 12.3966 5.75445 12.6854 5.937C12.7909 5.378 12.7199 4.8855 12.4454 4.519C11.6565 3.4655 9.45045 3.801 7.26745 5.219C7.42745 5.1925 7.58945 5.1705 7.74945 5.153Z" fill="white"/>
<path d="M6.13977 12.1325C5.8511 12.2016 5.55636 12.2423 5.25977 12.254C5.48277 12.844 5.83077 13.257 6.29077 13.4115C7.40177 13.785 8.83877 12.5615 9.85677 10.5355C9.61677 10.602 9.36827 10.6615 9.11777 10.7125C8.12327 11.415 7.08627 11.912 6.13977 12.1325ZM9.93877 3.856C10.2276 3.78823 10.5223 3.74904 10.8188 3.739C10.5978 3.149 10.2523 2.734 9.79177 2.5775C8.68327 2.1995 7.23977 3.4165 6.21527 5.4355C6.45527 5.3695 6.70377 5.312 6.95627 5.2635C7.95077 4.5635 8.99027 4.0725 9.93877 3.856Z" fill="white"/>
</g>
<defs>
<clipPath id="clip0_7_8116">
<rect width="16" height="16" fill="white"/>
</clipPath>
</defs>
</svg>
