<svg width="16" height="16" viewBox="0 0 16 16" fill="none" xmlns="http://www.w3.org/2000/svg">
<g clip-path="url(#clip0_7_7894)">
<path d="M8 16C12.4183 16 16 12.4183 16 8C16 3.58172 12.4183 0 8 0C3.58172 0 0 3.58172 0 8C0 12.4183 3.58172 16 8 16Z" fill="#051D2D"/>
<path d="M7.9965 9.993C7.30496 9.993 6.62895 9.78794 6.05395 9.40374C5.47895 9.01953 5.0308 8.47346 4.76616 7.83455C4.50151 7.19565 4.43227 6.49262 4.56719 5.81437C4.7021 5.13611 5.03511 4.5131 5.5241 4.0241C6.0131 3.53511 6.63611 3.2021 7.31437 3.06719C7.99262 2.93227 8.69565 3.00151 9.33455 3.26616C9.97346 3.5308 10.5195 3.97895 10.9037 4.55395C11.2879 5.12895 11.493 5.80496 11.493 6.4965C11.4918 7.42347 11.123 8.31212 10.4676 8.96759C9.81212 9.62305 8.92347 9.99181 7.9965 9.993ZM8 6.4755C7.99516 6.4755 7.99042 6.47694 7.98639 6.47963C7.98236 6.48232 7.97922 6.48615 7.97737 6.49063C7.97551 6.4951 7.97503 6.50003 7.97597 6.50478C7.97692 6.50953 7.97925 6.5139 7.98268 6.51733C7.9861 6.52075 7.99047 6.52309 7.99522 6.52403C7.99997 6.52498 8.0049 6.52449 8.00938 6.52264C8.01385 6.52078 8.01768 6.51764 8.02037 6.51361C8.02306 6.50958 8.0245 6.50485 8.0245 6.5C8.02394 6.49356 8.02112 6.48752 8.01655 6.48295C8.01198 6.47838 8.00644 6.47606 8 6.4755Z" fill="url(#paint0_linear_7_7894)"/>
<path d="M7.9965 13.493C7.30496 13.493 6.62895 13.2879 6.05395 12.9037C5.47895 12.5195 5.0308 11.9735 4.76616 11.3346C4.50151 10.6957 4.43227 9.99262 4.56719 9.31437C4.7021 8.63611 5.03511 8.0131 5.5241 7.5241C6.0131 7.03511 6.63611 6.7021 7.31437 6.56718C7.99262 6.43227 8.69565 6.50151 9.33455 6.76615C9.97346 7.0308 10.5195 7.47895 10.9037 8.05395C11.2879 8.62894 11.493 9.30496 11.493 9.9965C11.4918 10.9235 11.123 11.8121 10.4676 12.4676C9.81212 13.123 8.92347 13.4918 7.9965 13.493ZM8 9.9755C7.99516 9.9755 7.99042 9.97694 7.98639 9.97963C7.98236 9.98232 7.97922 9.98615 7.97737 9.99062C7.97551 9.9951 7.97503 10 7.97597 10.0048C7.97692 10.0095 7.97925 10.0139 7.98268 10.0173C7.9861 10.0208 7.99047 10.0231 7.99522 10.024C7.99997 10.025 8.0049 10.0245 8.00938 10.0226C8.01385 10.0208 8.01768 10.0176 8.02037 10.0136C8.02306 10.0096 8.0245 10.0048 8.0245 10C8.02394 9.99356 8.02112 9.98752 8.01655 9.98295C8.01198 9.97838 8.00594 9.97556 7.9995 9.975L8 9.9755Z" fill="url(#paint1_linear_7_7894)"/>
</g>
<defs>
<linearGradient id="paint0_linear_7_7894" x1="354.15" y1="3" x2="354.15" y2="1004.67" gradientUnits="userSpaceOnUse">
<stop stop-color="white"/>
<stop offset="0.03" stop-color="white" stop-opacity="0.83"/>
<stop offset="0.07" stop-color="white" stop-opacity="0.66"/>
<stop offset="0.11" stop-color="white" stop-opacity="0.5"/>
<stop offset="0.15" stop-color="white" stop-opacity="0.37"/>
<stop offset="0.19" stop-color="white" stop-opacity="0.25"/>
<stop offset="0.25" stop-color="white" stop-opacity="0.16"/>
<stop offset="0.3" stop-color="white" stop-opacity="0.09"/>
<stop offset="0.37" stop-color="white" stop-opacity="0.04"/>
<stop offset="0.47" stop-color="white" stop-opacity="0.01"/>
<stop offset="1" stop-color="white" stop-opacity="0"/>
</linearGradient>
<linearGradient id="paint1_linear_7_7894" x1="354.15" y1="6.5" x2="354.15" y2="1008.17" gradientUnits="userSpaceOnUse">
<stop stop-color="white"/>
<stop offset="0.03" stop-color="white" stop-opacity="0.83"/>
<stop offset="0.07" stop-color="white" stop-opacity="0.66"/>
<stop offset="0.11" stop-color="white" stop-opacity="0.5"/>
<stop offset="0.15" stop-color="white" stop-opacity="0.37"/>
<stop offset="0.19" stop-color="white" stop-opacity="0.25"/>
<stop offset="0.25" stop-color="white" stop-opacity="0.16"/>
<stop offset="0.3" stop-color="white" stop-opacity="0.09"/>
<stop offset="0.37" stop-color="white" stop-opacity="0.04"/>
<stop offset="0.47" stop-color="white" stop-opacity="0.01"/>
<stop offset="1" stop-color="white" stop-opacity="0"/>
</linearGradient>
<clipPath id="clip0_7_7894">
<rect width="16" height="16" fill="white"/>
</clipPath>
</defs>
</svg>
