<svg width="16" height="16" viewBox="0 0 16 16" fill="none" xmlns="http://www.w3.org/2000/svg">
<g clip-path="url(#clip0_7_7890)">
<path d="M8 16C12.4183 16 16 12.4183 16 8C16 3.58172 12.4183 0 8 0C3.58172 0 0 3.58172 0 8C0 12.4183 3.58172 16 8 16Z" fill="#6916FF"/>
<path d="M8.57239 3.212C8.54459 3.19195 8.52512 3.1624 8.51765 3.12895C8.51019 3.09549 8.51525 3.06047 8.53189 3.0305C8.55517 3.01557 8.58224 3.00764 8.60989 3.00764C8.63754 3.00764 8.66461 3.01557 8.68789 3.0305C9.04026 3.17678 9.35922 3.39316 9.62539 3.6665C9.77689 3.807 9.90389 3.971 10.0004 4.1515C10.1024 4.3355 10.1859 4.528 10.2504 4.7275C10.3119 4.934 10.3439 5.1485 10.3444 5.3635C10.3129 5.576 10.2819 6.606 9.68789 7.091C9.61229 7.13646 9.52253 7.15232 9.43593 7.13551C9.34932 7.11871 9.27201 7.07044 9.21889 7C9.17644 6.95022 9.15063 6.88841 9.14507 6.82322C9.13951 6.75804 9.15448 6.69275 9.18789 6.6365C9.44043 6.24554 9.57993 5.79236 9.59096 5.32706C9.60199 4.86177 9.48412 4.40248 9.25039 4C9.05039 3.717 8.82339 3.4535 8.57239 3.212ZM7.65039 12.503C7.71289 12.5635 7.71289 12.624 7.68189 12.6545C7.65089 12.685 7.58789 12.715 7.55689 12.6845C7.20452 12.5382 6.88556 12.3218 6.61939 12.0485C6.46835 11.9088 6.34162 11.7449 6.24439 11.5635C6.14259 11.3802 6.05886 11.1875 5.99439 10.988C5.9326 10.7815 5.90095 10.5671 5.90039 10.3515C5.93189 10.1395 5.96289 9.109 6.55689 8.624C6.63245 8.57868 6.72209 8.56291 6.80858 8.57971C6.89507 8.59651 6.97229 8.64469 7.02539 8.715C7.07089 8.76469 7.09613 8.82962 7.09613 8.897C7.09613 8.96438 7.07089 9.02931 7.02539 9.079C6.77295 9.4699 6.63351 9.92299 6.62248 10.3882C6.61145 10.8534 6.72926 11.3126 6.96289 11.715C7.16539 11.9985 7.39589 12.2625 7.65039 12.503Z" fill="white" fill-opacity="0.5"/>
<path d="M10.3471 10.003C10.3019 9.42127 10.0719 8.86925 9.69065 8.4275C9.30474 8.03963 8.8622 7.71258 8.37815 7.4575C7.95593 7.22412 7.55811 6.94908 7.19065 6.6365C6.88844 6.35246 6.68119 5.98213 6.59715 5.576C6.52252 5.15668 6.57583 4.7246 6.75015 4.336C6.959 3.90367 7.25844 3.52134 7.62815 3.215C7.64894 3.19646 7.66322 3.17172 7.66889 3.14445C7.67457 3.11717 7.67132 3.08879 7.65965 3.0635C7.65073 3.04755 7.63831 3.03384 7.62334 3.02337C7.60836 3.01291 7.59121 3.00598 7.57316 3.00309C7.55512 3.0002 7.53666 3.00144 7.51917 3.00671C7.50167 3.01197 7.4856 3.02113 7.47215 3.0335C6.97415 3.25074 6.55046 3.60874 6.25315 4.0635C5.92064 4.54125 5.76489 5.11989 5.81265 5.7C5.83759 5.99311 5.91162 6.27994 6.03165 6.5485C6.16153 6.81433 6.33002 7.05948 6.53165 7.276C6.92899 7.65566 7.38206 7.97232 7.87515 8.215C8.29915 8.435 8.69765 8.6995 9.06265 9.003C9.38374 9.28474 9.59426 9.67141 9.65665 10.094C9.74465 10.5335 9.68965 10.989 9.50015 11.397C9.28745 11.8265 8.97697 12.2002 8.59365 12.488C8.58097 12.4953 8.56998 12.5052 8.5614 12.517C8.55282 12.5288 8.54685 12.5424 8.54387 12.5567C8.5409 12.571 8.54099 12.5858 8.54414 12.6C8.54729 12.6143 8.55343 12.6278 8.56215 12.6395C8.57965 12.6715 8.61215 12.6945 8.64865 12.7C8.68515 12.7055 8.72315 12.695 8.75015 12.67C9.21473 12.4018 9.61899 12.0406 9.93765 11.609C10.2476 11.13 10.3906 10.567 10.3471 10.003Z" fill="white"/>
</g>
<defs>
<clipPath id="clip0_7_7890">
<rect width="16" height="16" fill="white"/>
</clipPath>
</defs>
</svg>
