<svg width="16" height="16" viewBox="0 0 16 16" fill="none" xmlns="http://www.w3.org/2000/svg">
<g clip-path="url(#clip0_7_7990)">
<path d="M8 16C12.4183 16 16 12.4183 16 8C16 3.58172 12.4183 0 8 0C3.58172 0 0 3.58172 0 8C0 12.4183 3.58172 16 8 16Z" fill="#F49E00"/>
<path d="M9.87796 8.667C11.001 6.9075 11.8755 4 11.8755 4L10.003 4.4245L9.31746 6.8495C9.25296 5.0315 8.00646 4.366 8.00646 4.366C7.00796 3.8795 6.11796 4.0935 5.47646 4.428C4.68246 4.841 4.10496 5.561 3.82846 6.39C3.43546 7.5695 3.48346 8.893 3.53546 9.492C3.55646 9.773 3.61846 10.0495 3.72046 10.3135C4.40946 12.1 6.31796 11.9985 6.31796 11.9985C8.06646 11.9365 9.12896 9.8775 9.12896 9.8775L9.62996 11.3915C10.079 12.151 11.0735 11.8665 11.278 11.824C11.314 11.816 11.346 11.812 11.3825 11.804L12.5005 11.6335V11.147C10.0665 11.213 9.87796 8.667 9.87796 8.667ZM7.50846 10.497C7.3579 10.6513 7.16808 10.7616 6.95946 10.816C6.50596 10.929 6.15746 10.7385 5.91696 10.505C5.64827 10.2337 5.4643 9.89005 5.38746 9.516C4.94646 7.021 5.55596 5.9275 5.96096 5.425C6.07128 5.28414 6.21349 5.17151 6.37588 5.0964C6.53827 5.02129 6.71619 4.98585 6.89496 4.993C8.46696 5.075 8.81996 8.364 8.81996 8.364C8.37496 9.5315 7.80146 10.209 7.50846 10.497Z" fill="white"/>
</g>
<defs>
<clipPath id="clip0_7_7990">
<rect width="16" height="16" fill="white"/>
</clipPath>
</defs>
</svg>
