<svg width="16" height="16" viewBox="0 0 16 16" fill="none" xmlns="http://www.w3.org/2000/svg">
<g clip-path="url(#clip0_7_8092)">
<path d="M8 16C12.4183 16 16 12.4183 16 8C16 3.58172 12.4183 0 8 0C3.58172 0 0 3.58172 0 8C0 12.4183 3.58172 16 8 16Z" fill="#00BFEC"/>
<path d="M7.98546 11.575C6.00696 11.575 4.39746 9.9755 4.39746 8.01C4.39746 6.044 6.00746 4.445 7.98546 4.445C9.96396 4.445 11.5735 6.044 11.5735 8.01C11.5735 9.9755 9.96396 11.575 7.98546 11.575ZM7.98546 5.143C6.39496 5.143 5.10046 6.429 5.10046 8.01C5.10046 9.5905 6.39496 10.8765 7.98546 10.8765C9.57646 10.8765 10.8705 9.5905 10.8705 8.01C10.8705 6.429 9.57646 5.143 7.98546 5.143ZM10.498 3.9355C9.74103 3.4746 8.87167 3.23135 7.98546 3.2325C7.16972 3.23216 6.36715 3.43822 5.65246 3.8315L5.31046 3.2215C6.12977 2.77006 7.05002 2.53338 7.98546 2.5335C9.00546 2.5335 10.0015 2.8125 10.866 3.3405L10.498 3.9355ZM11.5455 12.1905L11.091 11.657C11.6239 11.2104 12.0525 10.6524 12.3467 10.0223C12.6408 9.39223 12.7933 8.70536 12.7935 8.01H13.4965C13.4965 9.623 12.7855 11.1465 11.5455 12.19V12.1905ZM7.98546 13.4855C6.70696 13.4855 5.46096 13.0405 4.47746 12.233L4.92546 11.695C5.78883 12.4014 6.86995 12.7873 7.98546 12.7875C8.76546 12.7875 9.50946 12.6075 10.1965 12.2535L10.52 12.8735C9.73571 13.2759 8.86693 13.4854 7.98546 13.4855Z" fill="white"/>
<path opacity="0.5" d="M12.6747 6.7125C12.4909 6.05318 12.1676 5.44104 11.7267 4.9175L12.1767 4.5445C12.671 5.13146 13.0333 5.81779 13.2392 6.557L12.6747 6.7125ZM3.42971 10.988C2.84373 10.1055 2.53182 9.06936 2.53321 8.01C2.53321 6.529 3.12321 5.146 4.19471 4.1155L4.60171 4.534C4.13133 4.98225 3.75724 5.52165 3.50227 6.11929C3.24729 6.71692 3.11678 7.36025 3.11871 8.01C3.11871 8.9595 3.39571 9.8785 3.91871 10.668L3.42971 10.988Z" fill="white"/>
</g>
<defs>
<clipPath id="clip0_7_8092">
<rect width="16" height="16" fill="white"/>
</clipPath>
</defs>
</svg>
