<svg width="16" height="16" viewBox="0 0 16 16" fill="none" xmlns="http://www.w3.org/2000/svg">
<g clip-path="url(#clip0_7_8095)">
<path d="M8 16C12.4183 16 16 12.4183 16 8C16 3.58172 12.4183 0 8 0C3.58172 0 0 3.58172 0 8C0 12.4183 3.58172 16 8 16Z" fill="black"/>
<path d="M5.125 11.458L6.2765 9.465L7.427 7.479L8.571 5.486L8.761 5.17L8.8445 5.486L9.1955 6.798L8.8025 7.479L7.652 9.465L6.508 11.458H7.883L9.034 9.465L9.6305 8.4335L9.9115 9.465L10.4445 11.458H11.6795L11.1465 9.465L10.613 7.479L10.473 6.9665L11.329 5.486H10.08L10.0375 5.3385L9.6025 3.7105L9.5465 3.5H8.3465L8.3185 3.542L7.1955 5.486L6.0445 7.479L4.901 9.465L3.75 11.458H5.125Z" fill="white"/>
</g>
<defs>
<clipPath id="clip0_7_8095">
<rect width="16" height="16" fill="white"/>
</clipPath>
</defs>
</svg>
