<svg width="16" height="16" viewBox="0 0 16 16" fill="none" xmlns="http://www.w3.org/2000/svg">
<g clip-path="url(#clip0_7_8057)">
<path d="M8 16C12.4183 16 16 12.4183 16 8C16 3.58172 12.4183 0 8 0C3.58172 0 0 3.58172 0 8C0 12.4183 3.58172 16 8 16Z" fill="#3C5BE0"/>
<path d="M13.5 8.0075V8.0115C13.4984 8.05141 13.4876 8.09041 13.4685 8.1255C13.3985 8.253 11.723 11.25 8.0005 11.25C4.278 11.25 2.6015 8.253 2.532 8.1255C2.51274 8.09045 2.50179 8.05145 2.5 8.0115V7.989L2.5005 7.9775C2.50341 7.94457 2.51257 7.9125 2.5275 7.883L2.5285 7.881L2.5315 7.875C2.6015 7.747 4.2775 4.75 8 4.75C11.7225 4.75 13.3985 7.7475 13.468 7.875L13.471 7.881L13.4725 7.8835C13.4872 7.91288 13.4962 7.94477 13.499 7.9775V8.0005L13.5 8.0075ZM12.945 8C12.6635 7.563 11.6055 6.1035 9.6875 5.5165C10.305 5.94914 10.7394 6.59615 10.906 7.3315C11.0375 7.3615 11.132 7.4795 11.1345 7.6165C11.137 7.7535 11.047 7.8745 10.916 7.9095C10.785 7.9445 10.6485 7.8845 10.5835 7.7645C10.5521 7.70606 10.5408 7.63885 10.5516 7.57337C10.5624 7.50788 10.5945 7.4478 10.643 7.4025C10.396 6.291 9.482 5.4325 8.356 5.283C8.34751 5.28197 8.33914 5.28013 8.331 5.2775C8.11033 5.26566 7.88917 5.26566 7.6685 5.2775C7.66036 5.28013 7.65199 5.28197 7.6435 5.283C7.20472 5.34206 6.78734 5.50867 6.4285 5.768C6.41102 5.78042 6.39085 5.78854 6.36963 5.79168C6.34842 5.79482 6.32676 5.7929 6.30643 5.78607C6.2861 5.77924 6.26767 5.76771 6.25265 5.7524C6.23763 5.7371 6.22644 5.71845 6.22 5.698C6.21126 5.67027 6.21142 5.6405 6.22048 5.61288C6.22954 5.58525 6.24704 5.56116 6.2705 5.544C6.28259 5.53523 6.29476 5.52656 6.307 5.518C4.392 6.1065 3.336 7.563 3.055 8C3.3335 8.4335 4.375 9.87 6.26 10.4675C5.63829 10.0136 5.21349 9.33927 5.0725 8.5825C4.9455 8.535 4.8675 8.406 4.8825 8.2695C4.8975 8.133 5.0025 8.0245 5.1365 8.007C5.2705 7.9895 5.3995 8.067 5.4485 8.1955C5.47217 8.25757 5.4746 8.32572 5.45542 8.38932C5.43624 8.45292 5.39653 8.50836 5.3425 8.547C5.5575 9.652 6.4165 10.5105 7.5085 10.712C7.83595 10.7389 8.16505 10.7389 8.4925 10.712C8.89991 10.6355 9.28409 10.4657 9.615 10.216C9.63404 10.2012 9.6567 10.1918 9.68061 10.1887C9.70453 10.1856 9.72883 10.189 9.751 10.1985C9.77325 10.2084 9.79251 10.2239 9.80687 10.2436C9.82122 10.2632 9.83016 10.2863 9.8328 10.3105C9.83543 10.3347 9.83166 10.3592 9.82187 10.3815C9.81208 10.4037 9.79661 10.4231 9.777 10.4375L9.7335 10.47C11.6225 9.8735 12.666 8.434 12.945 8ZM10.41 8.0085C10.41 9.357 9.329 10.4545 8 10.4545C6.671 10.4545 5.59 9.357 5.59 8.0085C5.59 6.66 6.671 5.563 8 5.563C9.329 5.563 10.41 6.6595 10.41 8.0085ZM10.138 8.0085C10.138 6.8125 9.179 5.839 8 5.839C6.821 5.839 5.8615 6.812 5.8615 8.009C5.8615 9.206 6.821 10.178 8 10.178C9.179 10.178 10.138 9.205 10.138 8.0085ZM8.788 7.337C8.788 7.599 8.6585 7.843 8.443 7.987L8.658 9.3005C8.66294 9.32378 8.66252 9.34788 8.65678 9.37097C8.65103 9.39406 8.64011 9.41555 8.62485 9.4338C8.60958 9.45206 8.59036 9.4666 8.56864 9.47634C8.54693 9.48607 8.52329 9.49075 8.4995 9.49H7.5395C7.5157 9.49073 7.49205 9.48605 7.47032 9.47631C7.44859 9.46658 7.42935 9.45205 7.41404 9.43381C7.39874 9.41557 7.38777 9.3941 7.38196 9.37101C7.37615 9.34792 7.37565 9.32381 7.3805 9.3005L7.5945 7.987C7.2885 7.7815 7.1685 7.3845 7.308 7.04C7.4475 6.6955 7.808 6.4995 8.168 6.5715C8.5285 6.644 8.788 6.9645 8.788 7.337ZM10.9615 8.3585C10.8917 8.98485 10.6277 9.57368 10.2065 10.0425C10.1906 10.0607 10.1702 10.0743 10.1473 10.0819C10.1244 10.0894 10.0998 10.0908 10.0762 10.0857C10.0527 10.0806 10.0309 10.0692 10.0132 10.0528C9.99544 10.0364 9.98243 10.0156 9.9755 9.9925C9.9682 9.96918 9.96713 9.94436 9.97239 9.9205C9.97765 9.89665 9.98907 9.87458 10.0055 9.8565C10.3881 9.43053 10.628 8.89557 10.6915 8.3265C10.6955 8.29055 10.7136 8.25764 10.7418 8.23497C10.77 8.21231 10.806 8.20171 10.842 8.2055C10.917 8.2145 10.97 8.283 10.9615 8.3585ZM6.0265 5.9245C6.05277 5.94984 6.06801 5.98449 6.06895 6.02098C6.06988 6.05746 6.05643 6.09285 6.0315 6.1195C5.64795 6.53003 5.39961 7.04835 5.32 7.6045C5.31468 7.64033 5.29539 7.6726 5.26634 7.69425C5.2373 7.71589 5.20086 7.72515 5.165 7.72C5.12917 7.71421 5.09706 7.69454 5.07563 7.66525C5.0542 7.63596 5.04517 7.5994 5.0505 7.5635C5.13834 6.95165 5.41182 6.38149 5.834 5.93C5.84623 5.91689 5.86094 5.90635 5.87729 5.899C5.89364 5.89164 5.91128 5.88761 5.9292 5.88714C5.94712 5.88668 5.96495 5.88979 5.98166 5.89629C5.99836 5.90278 6.01361 5.91255 6.0265 5.925V5.9245Z" fill="white"/>
</g>
<defs>
<clipPath id="clip0_7_8057">
<rect width="16" height="16" fill="white"/>
</clipPath>
</defs>
</svg>
