<svg width="16" height="16" viewBox="0 0 16 16" fill="none" xmlns="http://www.w3.org/2000/svg">
<g clip-path="url(#clip0_7_8045)">
<path d="M8 16C12.4183 16 16 12.4183 16 8C16 3.58172 12.4183 0 8 0C3.58172 0 0 3.58172 0 8C0 12.4183 3.58172 16 8 16Z" fill="#2DAEE4"/>
<path fill-rule="evenodd" clip-rule="evenodd" d="M4.15171 5.9785H4.20671C4.68821 5.9695 5.10671 5.7875 5.46171 5.433C5.80671 5.06 5.97971 4.6325 5.97971 4.1505C5.97971 3.905 6.06821 3.6935 6.24571 3.516C6.32983 3.42976 6.43073 3.36166 6.54217 3.31591C6.65362 3.27016 6.77326 3.24773 6.89371 3.25C7.13871 3.25 7.35071 3.3385 7.52771 3.516C7.70521 3.6935 7.79371 3.905 7.79371 4.1505C7.79371 4.3955 7.70971 4.6075 7.54171 4.785C7.46448 4.86996 7.37094 4.93849 7.26665 4.98651C7.16236 5.03453 7.04947 5.06105 6.93471 5.0645C6.41621 5.046 5.97071 5.2235 5.59771 5.5965C5.22471 5.9695 5.04771 6.406 5.06571 6.9065C5.08371 7.4245 5.27071 7.8565 5.62521 8.202C6.01621 8.5475 6.45271 8.716 6.93471 8.707C7.04951 8.71051 7.16242 8.73711 7.26671 8.78522C7.371 8.83333 7.46453 8.90195 7.54171 8.987C7.70971 9.164 7.79371 9.371 7.79371 9.607C7.79371 9.862 7.70521 10.078 7.52771 10.2555C7.44579 10.3408 7.34728 10.4084 7.23824 10.4541C7.1292 10.4999 7.01195 10.5228 6.89371 10.5215C6.63871 10.5215 6.42321 10.4325 6.24571 10.2555C6.15947 10.1714 6.09137 10.0705 6.04563 9.95904C5.99988 9.84759 5.97744 9.72795 5.97971 9.6075C5.98357 9.37399 5.93955 9.14217 5.85037 8.92633C5.7612 8.71048 5.62876 8.51519 5.46121 8.3525C5.2994 8.18086 5.10518 8.043 4.88977 7.94688C4.67435 7.85076 4.44203 7.79829 4.20621 7.7925C4.03371 7.802 3.88621 7.7745 3.76321 7.711C3.64238 7.64905 3.53918 7.55755 3.46321 7.445C3.38487 7.32919 3.32922 7.19956 3.29921 7.063C3.26776 6.92664 3.26099 6.78575 3.27921 6.647C3.39721 6.2015 3.68821 5.9785 4.15171 5.9785ZM4.16421 8.707C4.40071 8.707 4.60771 8.7935 4.78471 8.9665C4.96221 9.139 5.05521 9.344 5.06471 9.5805C5.05521 10.0805 5.22821 10.517 5.58271 10.89C5.93771 11.2535 6.36471 11.4355 6.86521 11.4355H6.90621C7.39721 11.4355 7.81971 11.2535 8.17471 10.89C8.53821 10.526 8.71571 10.09 8.70671 9.58C8.70603 9.3414 8.65596 9.10552 8.55967 8.88721C8.46338 8.66891 8.32295 8.47289 8.14721 8.3115C7.78821 7.97 7.37071 7.797 6.89371 7.793H6.83771C6.72295 7.78955 6.61006 7.76303 6.50577 7.71501C6.40149 7.66699 6.30794 7.59846 6.23071 7.5135C6.14892 7.42957 6.08452 7.33032 6.04119 7.22143C5.99785 7.11255 5.97645 6.99618 5.97821 6.879C5.97821 6.634 6.06721 6.422 6.24421 6.2445C6.39471 6.0945 6.57321 6.0075 6.77921 5.9845L6.83921 5.9785L6.86221 5.979C6.88604 5.97837 6.90989 5.97854 6.93371 5.9795C7.40371 5.9735 7.81271 5.796 8.16221 5.4465C8.53521 5.0735 8.71721 4.6325 8.70771 4.123C8.70771 3.923 8.77621 3.741 8.91271 3.5775L8.92621 3.564L8.93971 3.55C8.93971 3.541 8.94471 3.5365 8.95321 3.5365L8.96721 3.523V3.5095H8.98071V3.495C8.98971 3.495 8.99421 3.4905 8.99421 3.4815L9.00771 3.468H9.03521C9.03521 3.4585 9.04021 3.454 9.04871 3.454L9.06271 3.4405V3.427H9.08971C9.08971 3.4175 9.09471 3.413 9.10321 3.413L9.11721 3.3995L9.13071 3.386H9.14421C9.14421 3.377 9.14921 3.3725 9.15821 3.3725C9.16721 3.3725 9.17171 3.3675 9.17171 3.3585H9.18521L9.19871 3.345H9.22621V3.3315H9.23971L9.25371 3.3175H9.28071V3.305H9.30821L9.32171 3.2915H9.34921L9.36271 3.278H9.40371L9.41721 3.264H9.45821C9.46721 3.264 9.47171 3.2595 9.47171 3.2505H9.75821L9.76521 3.2575C9.76971 3.262 9.77621 3.264 9.78521 3.264H9.81271L9.81971 3.271C9.82421 3.2755 9.83071 3.278 9.83971 3.278H9.86721L9.88071 3.2915H9.90821L9.92171 3.305H9.94921C9.95821 3.314 9.96721 3.3185 9.97621 3.3185L9.99021 3.3325H10.0172V3.346H10.0312L10.0447 3.3595L10.0512 3.3665C10.0562 3.3715 10.0627 3.3735 10.0717 3.3735L10.0857 3.387H10.0992C10.0992 3.396 10.1082 3.4005 10.1262 3.4005L10.1402 3.414V3.428H10.1537C10.1537 3.437 10.1627 3.4415 10.1812 3.4415C10.1812 3.4505 10.1857 3.455 10.1947 3.455V3.469H10.2082L10.2222 3.4825C10.2312 3.4915 10.2402 3.496 10.2492 3.496L10.2627 3.51C10.2627 3.519 10.2677 3.5235 10.2767 3.5235V3.537H10.2902C10.2902 3.546 10.2927 3.553 10.2972 3.557L10.3037 3.5645C10.3037 3.5735 10.3087 3.578 10.3177 3.578L10.3312 3.5915C10.3312 3.6005 10.3332 3.6075 10.3377 3.612L10.3447 3.619L10.3582 3.6325L10.3722 3.646V3.6735L10.3857 3.687V3.7H10.3992C10.3992 3.7095 10.4017 3.716 10.4062 3.7205L10.4127 3.7275C10.4127 3.7365 10.4177 3.741 10.4267 3.741V3.755C10.4267 3.764 10.4287 3.7705 10.4332 3.775L10.4402 3.782L10.4537 3.7955C10.4537 3.814 10.4587 3.823 10.4677 3.823V3.8365C10.4677 3.846 10.4697 3.8525 10.4742 3.857L10.4812 3.864V3.891L10.4947 3.905V3.946C10.5037 3.955 10.5082 3.964 10.5082 3.973V4.014C10.5177 4.023 10.5222 4.032 10.5222 4.0415V4.15C10.5222 4.632 10.6947 5.0595 11.0402 5.4325C11.3952 5.787 11.8182 5.969 12.3092 5.978C12.5542 5.969 12.7727 6.053 12.9642 6.2305C13.1547 6.4075 13.2502 6.6235 13.2502 6.8785C13.2502 7.133 13.1617 7.3485 12.9842 7.5265C12.9022 7.61184 12.8036 7.67946 12.6945 7.72521C12.5854 7.77096 12.468 7.79386 12.3497 7.7925C12.2326 7.79419 12.1163 7.77276 12.0076 7.72943C11.8988 7.6861 11.7996 7.62173 11.7157 7.54C11.6296 7.46067 11.5605 7.36477 11.5124 7.25806C11.4643 7.15135 11.4382 7.03603 11.4357 6.919C11.4452 6.419 11.2632 5.978 10.8907 5.596C10.5267 5.232 10.0857 5.055 9.56721 5.064C9.33144 5.06973 9.09913 5.12212 8.88372 5.21815C8.66831 5.31418 8.47407 5.45195 8.31221 5.6235C8.14464 5.78618 8.01219 5.98146 7.92301 6.19731C7.83383 6.41316 7.78983 6.64499 7.79371 6.8785L7.79321 6.9205C7.80321 7.3855 7.97571 7.799 8.31121 8.1605C8.66571 8.5155 9.08871 8.6975 9.57971 8.7065C9.90671 8.6885 10.1572 8.8065 10.3297 9.0615C10.5027 9.3065 10.5572 9.5665 10.4937 9.839C10.3662 10.294 10.0752 10.521 9.62071 10.521H9.57971C9.07021 10.539 8.64721 10.726 8.31121 11.0805C7.96521 11.426 7.79271 11.849 7.79271 12.349C7.79271 12.5945 7.70421 12.806 7.52671 12.9835C7.44474 13.0688 7.34614 13.1365 7.23701 13.1822C7.12788 13.228 7.01054 13.2509 6.89221 13.2495H6.86521C6.61971 13.2495 6.41021 13.161 6.23771 12.9835C6.15409 12.9006 6.08802 12.8016 6.04344 12.6926C5.99886 12.5836 5.97667 12.4668 5.97821 12.349C5.97821 11.849 5.80571 11.426 5.46021 11.0805C5.29836 10.909 5.10412 10.7712 4.88871 10.6752C4.6733 10.5791 4.44099 10.5267 4.20521 10.521C4.08135 10.5279 3.95741 10.509 3.84122 10.4656C3.72504 10.4221 3.61913 10.355 3.53021 10.2685C3.43944 10.1843 3.36756 10.0818 3.31929 9.96777C3.27103 9.85375 3.24748 9.73079 3.25021 9.607C3.25021 9.3615 3.33871 9.15 3.51621 8.9725C3.60033 8.88626 3.70123 8.81816 3.81267 8.77241C3.92412 8.72666 4.04376 8.70473 4.16421 8.707Z" fill="white"/>
</g>
<defs>
<clipPath id="clip0_7_8045">
<rect width="16" height="16" fill="white"/>
</clipPath>
</defs>
</svg>
