<svg width="16" height="16" viewBox="0 0 16 16" fill="none" xmlns="http://www.w3.org/2000/svg">
<g clip-path="url(#clip0_7_8090)">
<path d="M8 16C12.4183 16 16 12.4183 16 8C16 3.58172 12.4183 0 8 0C3.58172 0 0 3.58172 0 8C0 12.4183 3.58172 16 8 16Z" fill="black"/>
<path d="M3.75552 11.625C3.74851 11.5069 3.74818 11.3886 3.75452 11.2705C3.79452 11.2585 3.83552 11.2505 3.87752 11.2455C3.99852 11.225 4.11802 11.197 4.23602 11.162C4.26802 11.152 4.30002 11.141 4.33102 11.129C4.48602 11.0695 4.62302 10.9715 4.72702 10.8445C4.79902 10.756 4.86202 10.6605 4.91602 10.5595C4.99202 10.4215 5.05952 10.279 5.11902 10.133C5.23952 9.839 5.35952 9.544 5.47902 9.2485L6.70852 6.202C7.09702 5.2365 7.47852 4.2685 7.85202 3.2975C7.85952 3.2775 7.86802 3.2585 7.87652 3.2385C8.01452 3.2005 8.15052 3.1615 8.29152 3.125C8.29952 3.145 8.30752 3.162 8.31402 3.18L8.78902 4.4805C9.32694 5.95896 9.87245 7.43464 10.4255 8.9075C10.5775 9.31 10.7305 9.7125 10.885 10.1135C10.946 10.2775 11.0175 10.4375 11.0995 10.5925C11.1356 10.6587 11.1746 10.7233 11.2165 10.786C11.345 10.982 11.5445 11.1235 11.775 11.1815C11.899 11.214 12.025 11.2385 12.152 11.255L12.2425 11.268C12.2555 11.3075 12.2475 11.3455 12.2485 11.383C12.25 11.421 12.2485 11.463 12.2485 11.5035C12.25 11.5425 12.249 11.581 12.2465 11.62C12.2335 11.622 12.2235 11.624 12.2135 11.625H9.03202C9.02868 11.6182 9.02632 11.611 9.02502 11.6035V11.284C9.02584 11.2792 9.02718 11.2745 9.02902 11.27C9.05538 11.2627 9.08231 11.2577 9.10952 11.255C9.24052 11.2385 9.36952 11.2135 9.49752 11.181C9.54852 11.167 9.59902 11.149 9.64902 11.131C9.67402 11.121 9.69802 11.1095 9.72102 11.096C9.84652 11.027 9.89702 10.919 9.88602 10.781C9.88045 10.7185 9.86923 10.6565 9.85252 10.596C9.82752 10.501 9.79252 10.4095 9.75952 10.3175C9.10053 8.51676 8.44869 6.71341 7.80402 4.9075C7.79702 4.8875 7.79502 4.866 7.77452 4.8485C7.76802 4.8525 7.75952 4.8555 7.75452 4.861C7.7493 4.87011 7.74527 4.87986 7.74252 4.89C7.42752 5.778 7.09202 6.659 6.75752 7.54C6.51102 8.193 6.26402 8.845 6.03402 9.5035C5.94221 9.7676 5.85304 10.0326 5.76652 10.2985C5.73263 10.4 5.70753 10.5042 5.69152 10.61C5.67928 10.6805 5.67726 10.7524 5.68552 10.8235C5.69095 10.8698 5.70604 10.9145 5.72981 10.9546C5.75358 10.9948 5.7855 11.0295 5.82352 11.0565C5.87452 11.092 5.93052 11.1205 5.98952 11.14C6.08352 11.1725 6.18052 11.197 6.27902 11.213C6.38752 11.2325 6.49702 11.2475 6.60602 11.2645L6.62952 11.2685C6.63214 11.2763 6.63382 11.2843 6.63452 11.2925V11.6015C6.63377 11.6076 6.63243 11.6136 6.63052 11.6195C6.62078 11.6217 6.61094 11.6234 6.60102 11.6245L3.75552 11.625Z" fill="white"/>
</g>
<defs>
<clipPath id="clip0_7_8090">
<rect width="16" height="16" fill="white"/>
</clipPath>
</defs>
</svg>
