<svg width="16" height="16" viewBox="0 0 16 16" fill="none" xmlns="http://www.w3.org/2000/svg">
<g clip-path="url(#clip0_7_7919)">
<path d="M8 16C12.4183 16 16 12.4183 16 8C16 3.58172 12.4183 0 8 0C3.58172 0 0 3.58172 0 8C0 12.4183 3.58172 16 8 16Z" fill="#2E6BF6"/>
<path fill-rule="evenodd" clip-rule="evenodd" d="M8.657 3.15L11.967 4.825C12.447 5.075 12.75 5.55 12.75 6.1V6.875H11.537V6.1C11.537 6.025 11.487 5.95 11.411 5.9L8.101 4.225C8.051 4.2 7.9745 4.2 7.899 4.225L4.589 5.9C4.5135 5.925 4.463 6 4.463 6.1V6.875H3.25V6.1C3.25 5.575 3.553 5.075 4.033 4.825L7.343 3.15C7.7475 2.95 8.2275 2.95 8.657 3.15ZM9.036 7.95C9.036 7.375 8.556 6.925 8 6.925C7.419 6.925 6.964 7.375 6.964 7.95C6.964 8.525 7.444 8.975 8 8.975C8.556 8.975 9.036 8.525 9.036 7.95ZM11.386 10.1C11.461 10.075 11.512 10 11.512 9.9V9.125H12.7245V9.9C12.7245 10.425 12.4215 10.925 11.9415 11.175L8.6315 12.85C8.4295 12.95 8.202 13 7.9745 13C7.7475 13 7.5195 12.95 7.318 12.85L4.033 11.175C3.553 10.925 3.25 10.45 3.25 9.9V9.125H4.463V9.9C4.463 9.975 4.513 10.05 4.589 10.1L7.394 11.5V10.1C6.4335 9.825 5.7515 8.975 5.7515 7.95C5.7515 6.725 6.7615 5.7 8.0255 5.7C9.2635 5.7 10.299 6.7 10.299 7.95C10.299 8.975 9.592 9.85 8.657 10.1V11.5L11.386 10.1Z" fill="white"/>
</g>
<defs>
<clipPath id="clip0_7_7919">
<rect width="16" height="16" fill="white"/>
</clipPath>
</defs>
</svg>
