<svg width="16" height="16" viewBox="0 0 16 16" fill="none" xmlns="http://www.w3.org/2000/svg">
<g clip-path="url(#clip0_7_8019)">
<path d="M8 16C12.4183 16 16 12.4183 16 8C16 3.58172 12.4183 0 8 0C3.58172 0 0 3.58172 0 8C0 12.4183 3.58172 16 8 16Z" fill="#2CD3E1"/>
<path d="M3.9825 8.799C3.97925 8.74623 3.97758 8.69337 3.9775 8.6405C3.9775 6.882 5.3485 5.4525 7.0635 5.3915C7.1045 5.3915 7.1485 5.3915 7.1895 5.395L6.7805 4.9885C6.7805 4.9885 8.427 4.7135 10.541 5.9845C10.541 5.9845 10.572 6.049 10.541 6.2385C10.541 6.2385 11.537 6.6655 11.622 7.4955C11.707 8.3255 11.179 8.8 10.7525 8.8675C10.7525 8.8675 10.974 8.5255 10.6335 8.3425C10.5592 8.30235 10.4753 8.28366 10.391 8.2885C9.74 8.2885 9.665 9.027 9.665 9.027C9.658 9.064 9.658 9.1015 9.658 9.1385C9.658 9.1385 9.563 10.078 11.119 10.1885C11.4746 9.72984 11.7861 9.23867 12.0495 8.7215C12.4652 7.90615 12.7765 7.04168 12.976 6.1485C12.0695 5.4055 11.0005 4.7685 9.851 4.235C9.42 4.035 9.0025 3.8615 8.607 3.7125C8.40539 3.63604 8.202 3.56435 7.997 3.4975C7.836 3.5495 7.632 3.6205 7.387 3.7125C6.992 3.861 6.574 4.035 6.1435 4.235C4.995 4.768 3.9255 5.405 3.019 6.149C3.068 6.385 3.1425 6.6795 3.2495 7.0215C3.44032 7.63468 3.68563 8.22955 3.9825 8.799ZM13.5 5.951L13.475 6.091C13.462 6.1995 13.3735 6.5885 13.2645 6.961C13.0654 7.64245 12.8028 8.30368 12.48 8.936C12.027 9.819 11.477 10.589 10.846 11.223C10.0675 12.0035 9.1665 12.58 8.1625 12.939L8.1065 12.959L8 13L7.8945 12.963L7.8355 12.9425C6.82359 12.5791 5.90655 11.9924 5.1525 11.226C4.5185 10.586 3.969 9.8175 3.5185 8.939C3.09858 8.11362 2.78122 7.23996 2.5735 6.3375C2.5485 6.2255 2.521 6.0855 2.526 6.1055L2.5 5.9615L2.56 5.9115L2.604 5.874C3.526 5.098 4.6165 4.4325 5.794 3.873C6.45674 3.55481 7.13932 3.27974 7.8375 3.0495L7.9965 3L8.105 3.0325L8.159 3.05C8.699 3.2235 9.4165 3.5 10.201 3.873C11.377 4.4315 12.466 5.096 13.387 5.8705L13.5 5.9505V5.951ZM9.699 6.313C9.7265 6.2995 9.815 6.2555 9.9175 6.1505C10.122 6.1775 10.323 6.242 10.323 6.242C9.9515 6.0185 9.443 5.886 8.8805 5.8895C8.8805 5.8895 9.0955 6.1945 9.692 6.3195L9.699 6.313Z" fill="white"/>
</g>
<defs>
<clipPath id="clip0_7_8019">
<rect width="16" height="16" fill="white"/>
</clipPath>
</defs>
</svg>
