<svg width="16" height="16" viewBox="0 0 16 16" fill="none" xmlns="http://www.w3.org/2000/svg">
<g clip-path="url(#clip0_7_8066)">
<path d="M8 16C12.4183 16 16 12.4183 16 8C16 3.58172 12.4183 0 8 0C3.58172 0 0 3.58172 0 8C0 12.4183 3.58172 16 8 16Z" fill="#0054F9"/>
<path fill-rule="evenodd" clip-rule="evenodd" d="M14.2226 7.2585C14.2406 7.3925 14.2541 7.5275 14.2636 7.664L14.2496 7.496L14.2196 7.664C14.208 7.72076 14.1951 7.77727 14.1811 7.8335L14.1361 8.0025L14.1131 8.08C13.9981 8.43712 13.8245 8.77267 13.5996 9.073C13.4123 9.33738 13.1875 9.57303 12.9321 9.7725C12.8786 9.81498 12.8341 9.86766 12.8011 9.9275C12.7675 10.0049 12.7472 10.0874 12.7411 10.1715L12.7311 10.298L12.7261 10.352L12.7211 10.4015L12.7151 10.4475L12.7086 10.492L12.7006 10.5355L12.6806 10.6405C12.5791 11.1545 12.3951 11.5325 12.1071 11.9685L11.8011 12.411C11.3366 13.022 10.7901 13.416 10.1351 13.6075L9.99714 13.649L9.85564 13.669C9.66895 13.7008 9.48001 13.7175 9.29064 13.719H9.03964L8.88464 13.729C8.78014 13.729 8.68364 13.7475 8.57164 13.7875C8.11664 13.9305 7.57314 14 6.90414 14H6.81964L6.69264 13.9975L6.60614 13.9955L6.47114 13.9905L6.37614 13.9865L6.22414 13.979L6.11914 13.974C6.02118 13.9434 5.92398 13.9104 5.82764 13.875L6.22764 13.899L6.37914 13.9065L6.51914 13.9125L6.65114 13.9165L6.73614 13.9185L6.86214 13.92H6.97714C7.60464 13.915 8.11714 13.846 8.54564 13.712C8.66414 13.669 8.77064 13.6495 8.88164 13.6495L9.03664 13.6395H9.29064C9.46014 13.6395 9.64764 13.622 9.84364 13.5895L9.97964 13.571L10.1631 13.515C10.7781 13.323 11.2941 12.9445 11.7351 12.364L12.0391 11.924C12.3326 11.4805 12.5156 11.0985 12.6126 10.5655L12.6166 10.5435L12.6246 10.5005L12.6316 10.458L12.6376 10.414L12.6426 10.367L12.6481 10.3165L12.6556 10.23L12.6626 10.1275C12.6728 10.0469 12.6947 9.96823 12.7276 9.894C12.7606 9.829 12.8146 9.765 12.8806 9.71C13.1304 9.51515 13.3504 9.28489 13.5336 9.0265C13.7566 8.7265 13.9261 8.3995 14.0351 8.0565C14.1056 7.828 14.1561 7.6 14.1856 7.3765V7.3565L14.1891 7.3415L14.2226 7.2585ZM13.9356 6.0595C13.9566 6.1195 13.9771 6.181 13.9966 6.2425L13.9871 6.314L13.9771 6.389L13.9746 6.403L13.9596 6.495V6.5215C13.9161 6.75886 13.8466 6.99073 13.7526 7.213L13.7461 7.2255V7.2365C13.7461 7.2465 13.7456 7.254 13.7426 7.266L13.7376 7.2885L13.7361 7.2965V7.3305C13.7126 7.53106 13.6677 7.72852 13.6021 7.9195C13.5022 8.22031 13.3568 8.50408 13.1711 8.761L13.1326 8.814C12.9654 9.04037 12.7665 9.24158 12.5421 9.4115C12.4506 9.4745 12.3721 9.5665 12.3096 9.6795C12.2519 9.78437 12.2222 9.90231 12.2231 10.022C12.2231 10.173 12.2056 10.3215 12.1716 10.49C12.1133 10.7896 12.0099 11.0787 11.8651 11.3475L11.8401 11.3935L11.8161 11.4375L11.7771 11.5045L11.7321 11.578L11.6576 11.6965L11.4336 12.018C11.0266 12.574 10.5611 12.9235 10.0036 13.0835L9.96864 13.095C9.96597 13.0955 9.9633 13.096 9.96064 13.0965L9.94414 13.1005L9.90464 13.1115L9.88214 13.1175C9.87142 13.1201 9.86057 13.1221 9.84964 13.1235L9.82464 13.125L9.79564 13.135C9.66864 13.16 9.52914 13.1725 9.37814 13.175L9.32114 13.1755H9.05864L9.03214 13.1765L8.87864 13.184L8.84364 13.1855H8.79664C8.76328 13.1864 8.73002 13.1898 8.69714 13.1955L8.66014 13.202L8.61864 13.211L8.59614 13.2165L8.54614 13.229L8.48864 13.244C8.01864 13.381 7.52364 13.446 6.90364 13.446H6.78864L6.71164 13.4445L6.59464 13.441L6.47164 13.436L6.33964 13.43L6.19464 13.422L5.77664 13.396L5.71814 13.3955L5.66964 13.3855L5.62164 13.379L5.56364 13.372L5.53164 13.369L5.50164 13.367L5.47264 13.366H5.45764C5.03914 13.3245 4.73264 13.265 4.39764 13.1315C4.27756 13.0465 4.16017 12.9578 4.04564 12.8655C4.08964 12.893 4.13464 12.92 4.18114 12.9455L4.22964 12.9745L4.28964 13.0045C4.67164 13.176 4.99614 13.245 5.46164 13.2915H5.47564L5.50314 13.292L5.53114 13.294L5.56164 13.2965L5.59564 13.3005L5.68264 13.312L5.72564 13.3215H5.77864L6.09464 13.3415L6.24864 13.35L6.43164 13.36L6.55664 13.365L6.63614 13.3675L6.75114 13.37L6.82764 13.371H6.90414C7.51664 13.371 8.00514 13.3075 8.46814 13.1725L8.55514 13.1495L8.60414 13.1375L8.64814 13.1285L8.68764 13.121C8.73164 13.114 8.77064 13.111 8.81314 13.111H8.82764L8.87564 13.1095L8.99414 13.103L9.04914 13.101H9.32114C9.48914 13.101 9.64364 13.0885 9.77614 13.0625L9.80664 13.0525L9.81864 13.051C9.83934 13.0505 9.85987 13.0472 9.87964 13.041L9.91464 13.031L9.93414 13.026L9.94914 13.0225L9.98064 13.0125C10.5226 12.8565 10.9746 12.5175 11.3716 11.975L11.5941 11.6555L11.6336 11.5935L11.6831 11.5135L11.7111 11.467L11.7371 11.4225L11.7621 11.3795L11.7856 11.3355L11.8106 11.2895C11.9454 11.0336 12.042 10.7594 12.0971 10.4755C12.1306 10.311 12.1471 10.1675 12.1471 10.022L12.1476 9.988C12.1526 9.8645 12.1846 9.7495 12.2431 9.643C12.3106 9.5215 12.3971 9.4205 12.4971 9.351C12.7321 9.172 12.9376 8.962 13.1091 8.7175L13.1441 8.6685C13.3061 8.4365 13.4356 8.177 13.5301 7.8965C13.5935 7.71163 13.6371 7.52056 13.6601 7.3265V7.2965C13.6601 7.2895 13.6611 7.2825 13.6626 7.2745L13.6696 7.2445C13.6702 7.24187 13.6706 7.23919 13.6706 7.2365V7.2165L13.6746 7.2L13.6836 7.1825C13.7771 6.9565 13.8456 6.729 13.8836 6.515L13.8841 6.4895L13.8891 6.4595L13.9091 6.3285C13.9216 6.2355 13.9306 6.1455 13.9356 6.0575V6.0595ZM10.0421 3.0735C10.4591 3.0735 10.8106 3.121 11.1191 3.2155L11.1336 3.224L11.1486 3.239L11.1891 3.254C11.7096 3.452 11.9921 3.6655 12.2926 4.0315L12.3936 4.1565L12.4471 4.2215C12.5001 4.284 12.5501 4.3365 12.6161 4.3965L12.6961 4.4745L12.7126 4.4905C12.7261 4.50285 12.7405 4.51422 12.7556 4.5245L12.8026 4.5615L12.8576 4.6065L12.9151 4.656C13.0447 4.77107 13.1572 4.90408 13.2491 5.051L13.2831 5.097L13.3031 5.137C13.5131 5.5505 13.5211 5.898 13.4291 6.405L13.4286 6.43C13.3988 6.60363 13.3515 6.77382 13.2876 6.938L13.2641 6.999L13.2556 7.019C13.2371 7.05855 13.2266 7.10137 13.2246 7.145C13.2182 7.16879 13.2152 7.19336 13.2156 7.218V7.271C13.1989 7.4343 13.1608 7.59468 13.1021 7.748C13.0217 7.99672 12.9 8.23014 12.7421 8.4385C12.5116 8.7695 12.2411 9.0015 11.9131 9.143C11.8466 9.1675 11.7906 9.216 11.7366 9.291C11.6941 9.35344 11.6683 9.42574 11.6616 9.501V9.5785C11.6876 9.889 11.6856 10.1335 11.6406 10.3895C11.5641 10.7855 11.4341 11.058 11.1981 11.415L11.1406 11.491L11.0986 11.544L11.0531 11.6005C10.9371 11.7423 10.8137 11.878 10.6836 12.007C10.4551 12.233 10.2306 12.407 10.0186 12.508C9.96697 12.5329 9.91348 12.5537 9.85864 12.5705L9.78314 12.5915L9.71314 12.6015C9.58914 12.6215 9.46514 12.6315 9.34164 12.6315H9.05864L8.80064 12.643L8.63264 12.652L8.56614 12.657L8.54014 12.66C8.53749 12.6609 8.53483 12.6617 8.53214 12.6625L8.51414 12.667L8.49014 12.672L8.47314 12.6755C8.4638 12.6775 8.45484 12.6811 8.44664 12.686L8.43714 12.691C7.96914 12.826 7.49614 12.8925 6.90414 12.8925H6.83064L6.72064 12.8905L6.64664 12.8885L6.53064 12.8845L6.44914 12.8805L6.36264 12.8765L6.17264 12.8655L5.81764 12.8425H5.75214L5.66364 12.831L5.52864 12.812L5.47664 12.8065L5.37714 12.795C5.02314 12.751 4.78764 12.695 4.50164 12.568L4.45664 12.546L4.42864 12.527C3.86614 12.211 3.57064 11.8355 3.26864 11.184L3.22714 11.094C3.21313 11.0626 3.19929 11.0311 3.18564 10.9995L3.16264 10.9535L3.14064 10.9085C3.12686 10.8798 3.11484 10.8502 3.10464 10.82L3.08414 10.78C3.04551 10.7022 3.01178 10.622 2.98314 10.54L2.96614 10.493L2.94814 10.4395L2.91164 10.328L2.90164 10.308L2.89764 10.293L2.89914 10.282C2.68264 9.5105 2.75564 9.019 3.17764 8.4095L3.22014 8.347L3.23114 8.3335L3.27114 8.2825L3.32114 8.2175L3.41264 8.1015L3.48664 8.0085L3.51864 7.9695L3.54864 7.9345L3.57764 7.9015L3.60564 7.8705L3.63464 7.84L3.66464 7.809L3.69664 7.777C3.72289 7.74442 3.74136 7.70629 3.75064 7.6655L3.76064 7.487V7.3655C3.77764 6.9605 3.91814 6.6485 4.16714 6.2905C4.17194 6.28551 4.17614 6.27997 4.17964 6.274L4.18564 6.264L4.19664 6.2455L4.20214 6.237L4.22364 6.195L4.24214 6.169L4.27564 6.101C4.31614 6.0185 4.35314 5.938 4.38214 5.863L4.41764 5.754L4.44914 5.6615L4.46364 5.6225L4.46964 5.6035L4.47364 5.5885L4.48214 5.54C4.50214 5.335 4.55064 5.1325 4.62814 4.9265L4.64714 4.889L4.65814 4.86L4.68714 4.776L4.69714 4.751C4.77714 4.4965 4.86914 4.308 5.04914 4.0875L5.11414 4.0135L5.17414 3.9645C5.56364 3.6145 5.98714 3.4745 6.48764 3.4445H6.58914C6.82764 3.4445 7.10014 3.5295 7.41714 3.6685L7.43514 3.676C7.48736 3.69627 7.54438 3.70079 7.59914 3.689L7.61964 3.6855L7.66614 3.6755L7.71464 3.658C7.78364 3.6315 7.85464 3.6005 7.92814 3.5655L7.98314 3.539L8.08414 3.483L8.15914 3.442C8.19914 3.4205 8.23814 3.4005 8.27714 3.3815C8.54714 3.248 8.80564 3.163 9.08714 3.1335C9.09714 3.1335 9.10564 3.1325 9.11914 3.1295L9.14014 3.125L9.14714 3.124H9.15214L9.16214 3.1225L9.18464 3.119L9.19764 3.118L9.22864 3.115L9.32664 3.108L9.36764 3.104C9.41464 3.098 9.46864 3.093 9.52864 3.089L9.60314 3.084L9.68314 3.0805L9.76714 3.0775L9.85514 3.0755L9.94714 3.074L10.0421 3.0735ZM10.1101 3.1435H9.94814L9.85714 3.145L9.81314 3.1455L9.72814 3.1485C9.71364 3.1485 9.70014 3.1495 9.68664 3.15L9.60814 3.1535L9.53414 3.1585L9.46614 3.1635L9.40414 3.1695L9.37564 3.173L9.33264 3.177L9.25264 3.183L9.20564 3.187L9.18114 3.1895L9.15864 3.193L9.15114 3.194L9.12164 3.2C9.11177 3.20199 9.10172 3.203 9.09164 3.203C8.82264 3.231 8.57164 3.3135 8.30864 3.443C8.25574 3.46924 8.2034 3.49658 8.15164 3.525L8.11864 3.5435L8.01664 3.6005C7.90867 3.65442 7.79765 3.702 7.68414 3.743L7.63314 3.7535L7.61064 3.7575C7.58522 3.76198 7.55946 3.76433 7.53364 3.7645C7.48296 3.76409 7.43297 3.75266 7.38714 3.731C7.08014 3.5965 6.81464 3.514 6.58914 3.514H6.48964C6.00614 3.5425 5.59714 3.678 5.22014 4.0165L5.16364 4.063L5.10364 4.132C4.93014 4.3435 4.84214 4.525 4.76364 4.7745L4.75214 4.8035L4.73314 4.8585L4.72014 4.895L4.71114 4.9175L4.69264 4.954C4.61993 5.14532 4.5727 5.34537 4.55214 5.549L4.54514 5.5885L4.54014 5.611L4.53464 5.6315L4.51564 5.6845L4.50064 5.729L4.44864 5.8865C4.4084 5.98686 4.36351 6.0853 4.31414 6.1815L4.30264 6.2035L4.28464 6.23L4.26464 6.27L4.25764 6.279L4.23964 6.3105C4.23459 6.3193 4.22837 6.32737 4.22114 6.3345C3.98314 6.6775 3.84714 6.9795 3.83114 7.367V7.489L3.82064 7.674C3.80937 7.72828 3.78519 7.77905 3.75014 7.822L3.70214 7.87L3.67314 7.9005L3.64464 7.9315L3.61664 7.963L3.58764 7.9965L3.54114 8.053L3.50614 8.096L3.37764 8.2595L3.31714 8.338L3.27714 8.388L3.21214 8.484C2.82314 9.0595 2.76014 9.5265 2.96814 10.2725V10.2845L2.97664 10.3015L3.03314 10.47L3.04914 10.5165L3.07414 10.584C3.10314 10.658 3.13314 10.724 3.16714 10.7875L3.16914 10.7925C3.17814 10.819 3.19014 10.8475 3.20464 10.8795L3.21464 10.901L3.24864 10.9685L3.27064 11.0185L3.31214 11.111L3.33264 11.156L3.37414 11.2435C3.65664 11.8285 3.94314 12.1745 4.46564 12.4685L4.49214 12.486L4.53164 12.5055C4.80914 12.628 5.03914 12.683 5.38814 12.726L5.48614 12.7375L5.53764 12.743L5.58664 12.75L5.75664 12.773H5.81964L6.27464 12.802L6.36614 12.807L6.53314 12.815L6.61064 12.818L6.68564 12.82L6.72214 12.821L6.83114 12.8225L6.90414 12.823C7.48964 12.823 7.95564 12.7575 8.41314 12.625L8.41864 12.622C8.43054 12.6159 8.44313 12.6112 8.45614 12.608L8.47114 12.6045L8.50714 12.597L8.52314 12.593L8.53564 12.591L8.57064 12.5875L8.61764 12.5835L8.71614 12.578L9.05714 12.5625H9.34164C9.46164 12.5625 9.58164 12.5525 9.70164 12.5325L9.76864 12.5235L9.83864 12.5035C9.88714 12.4895 9.93664 12.4695 9.98764 12.4455C10.1916 12.3485 10.4101 12.179 10.6341 11.958C10.7631 11.83 10.8861 11.693 10.9981 11.5565L11.0431 11.501L11.0646 11.4745L11.1036 11.4245L11.1401 11.376C11.3706 11.027 11.4966 10.762 11.5716 10.377C11.6151 10.128 11.6171 9.8895 11.5916 9.581V9.4965C11.6041 9.3965 11.6296 9.3185 11.6791 9.2505C11.7406 9.1655 11.8071 9.108 11.8866 9.0785C12.2001 8.9435 12.4606 8.72 12.6851 8.3985C12.8371 8.1985 12.9561 7.9705 13.0361 7.7245C13.0891 7.593 13.1221 7.4485 13.1451 7.2665V7.2175C13.1451 7.1825 13.1481 7.1615 13.1551 7.1365C13.1551 7.097 13.1626 7.066 13.1831 7.0125L13.1981 6.973L13.2216 6.913C13.2832 6.7552 13.329 6.59175 13.3586 6.425V6.399C13.4496 5.899 13.4416 5.565 13.2401 5.168L13.2231 5.133L13.1911 5.09C13.1033 4.94688 12.9942 4.81792 12.8676 4.7075C12.8399 4.68286 12.8115 4.65885 12.7826 4.6355L12.7141 4.5805C12.697 4.56888 12.6808 4.55602 12.6656 4.542L12.6446 4.522L12.5676 4.4465C12.5053 4.39065 12.447 4.3305 12.3931 4.2665L12.3706 4.239L12.2376 4.0745C11.9351 3.707 11.6551 3.5 11.1166 3.301L11.1041 3.293L11.0901 3.2795L11.0476 3.267C10.7751 3.1895 10.4676 3.148 10.1101 3.1435ZM14.1991 9.0585C14.1871 9.132 14.1741 9.2055 14.1591 9.2785L14.0691 9.4055L14.0261 9.464C13.8546 9.6955 13.6721 9.894 13.4736 10.064C13.3821 10.1492 13.3225 10.2632 13.3046 10.387L13.2911 10.514L13.2836 10.5715L13.2756 10.6205L13.2671 10.6655L13.2636 10.681C13.1486 11.308 12.9211 11.7855 12.6071 12.2505L12.5371 12.3535C12.4376 12.456 12.3351 12.555 12.2286 12.6505L12.5351 12.203C12.8431 11.747 13.0651 11.279 13.1786 10.664L13.1821 10.6495L13.1906 10.606L13.1956 10.5745L13.2006 10.5405L13.2076 10.4805L13.2186 10.3765C13.2416 10.2295 13.3106 10.0935 13.4161 9.9995C13.6358 9.8093 13.8314 9.59304 13.9986 9.3555L14.0416 9.2965C14.0971 9.219 14.1496 9.139 14.1996 9.0565L14.1991 9.0585ZM9.96114 3.5845C10.3161 3.5845 10.6076 3.622 10.8546 3.6965L10.8491 3.6945H10.8646L10.8771 3.697C11.3551 3.875 11.5746 4.0445 11.8571 4.399L11.9326 4.491L11.9726 4.539L11.9911 4.5605L12.0261 4.5995C12.0486 4.6245 12.0701 4.647 12.0931 4.6695L12.1291 4.703L12.1481 4.7205L12.1896 4.757L12.2096 4.777L12.2266 4.793L12.2441 4.8085L12.2871 4.845L12.3491 4.8945C12.4761 4.9925 12.5441 5.0535 12.6266 5.163C12.6531 5.198 12.6786 5.235 12.7041 5.277L12.7241 5.317C12.8606 5.5855 12.8691 5.8235 12.8091 6.1985L12.7991 6.2545V6.2795C12.7796 6.4205 12.7341 6.569 12.6636 6.731L12.6516 6.756C12.6458 6.76878 12.6405 6.78179 12.6356 6.795L12.6256 6.824L12.6161 6.8555C12.6144 6.86149 12.6128 6.86749 12.6111 6.8735L12.6016 6.9125L12.5851 6.9835L12.5711 7.0535L12.5671 7.0745L12.5656 7.087V7.139C12.5556 7.2575 12.5261 7.389 12.4826 7.5175C12.4191 7.71425 12.3251 7.89983 12.2041 8.0675C11.9961 8.365 11.7566 8.5495 11.4456 8.652C11.3036 8.702 11.1806 8.79 11.1096 8.8955L11.0896 8.9355L11.0826 8.9445L11.0536 8.973C11.0166 9.0145 11.0031 9.136 11.0091 9.3265L11.0101 9.3445L11.0136 9.422L11.0186 9.5035L11.0296 9.7225L11.0346 9.8345C11.0396 9.9995 11.0336 10.1225 11.0111 10.2395C10.9501 10.5475 10.8476 10.7615 10.6396 11.084L10.6256 11.104L10.5926 11.1485L10.5526 11.2005L10.5301 11.2285C10.4441 11.3365 10.3501 11.4445 10.2516 11.5455C10.0781 11.722 9.90864 11.858 9.74764 11.937C9.70264 11.959 9.65864 11.977 9.61664 11.989L9.58364 11.9995L9.54214 12.0095C9.46217 12.0255 9.38067 12.0325 9.29914 12.0305H9.10564L9.08414 12.0315L9.04114 12.0335C9.01592 12.0354 8.99074 12.0379 8.96564 12.041H8.94664L8.91014 12.042L8.74814 12.048L8.61514 12.054L8.52764 12.059L8.45364 12.065L8.40714 12.07L8.37914 12.073L8.35414 12.0765L8.29664 12.0865C8.23954 12.0973 8.18374 12.114 8.13014 12.1365C7.91864 12.258 7.59714 12.3165 7.10864 12.329L7.00864 12.3305L6.90364 12.3315C6.55614 12.3315 6.19064 12.313 5.85764 12.2815L5.81264 12.281L5.56964 12.251L5.48164 12.241L5.40064 12.2305L5.32564 12.2205C5.29123 12.2153 5.2569 12.2096 5.22264 12.2035L5.15914 12.192C5.00543 12.1627 4.85606 12.114 4.71464 12.047L4.67264 12.0265C4.21714 11.774 3.97764 11.4575 3.72114 10.8895L3.63814 10.703L3.59564 10.612L3.57164 10.5585C3.50195 10.419 3.44634 10.273 3.40564 10.1225L3.40664 10.1115C3.23064 9.498 3.27514 9.1775 3.60864 8.705L3.62664 8.688L3.65714 8.649C3.68242 8.6169 3.70579 8.58334 3.72714 8.5485L3.78464 8.4735C3.93478 8.27657 4.1021 8.09335 4.28464 7.926L4.31964 7.8935C4.33814 7.875 4.34964 7.8535 4.34964 7.8375L4.35164 7.8265C4.35934 7.80449 4.35934 7.78051 4.35164 7.7585L4.29964 7.6035L4.28964 7.552L4.28514 7.5255L4.28214 7.502L4.28014 7.4785L4.27864 7.447V7.376C4.28514 7.167 4.35364 6.979 4.47864 6.766L4.51114 6.711L4.58964 6.586C4.59094 6.58398 4.59227 6.58198 4.59364 6.58L4.62314 6.541L4.63514 6.5245L4.63814 6.5195L4.66164 6.4745C4.68364 6.4455 4.71364 6.3915 4.74514 6.3265L4.76914 6.276L4.79314 6.223L4.81664 6.168L4.82814 6.141L4.84964 6.0875L4.86914 6.0355L4.87314 6.02L4.89314 5.957L4.95464 5.772L4.96114 5.7495L4.96664 5.726L4.96964 5.713L4.97464 5.6845L4.98064 5.651L4.99064 5.5885C5.01174 5.4214 5.04857 5.25667 5.10064 5.0965L5.10164 5.082L5.10414 5.0685L5.11064 5.0535L5.12064 5.0285L5.15114 4.9365L5.16014 4.9115L5.16464 4.9L5.17664 4.867L5.20914 4.779L5.22914 4.7285L5.24814 4.683L5.26664 4.642C5.28374 4.60484 5.30311 4.56877 5.32464 4.534L5.34664 4.5C5.35872 4.4822 5.37122 4.4647 5.38414 4.4475L5.44714 4.3665L5.47864 4.335C5.76014 4.0835 6.06214 3.984 6.45714 3.955H6.52814C6.70114 3.955 6.85314 3.9975 7.02564 4.077L7.06164 4.094L7.15664 4.1415L7.18364 4.1595L7.21114 4.174L7.25864 4.1975L7.27864 4.207L7.28514 4.2095C7.36289 4.24569 7.45037 4.25535 7.53414 4.237C7.74829 4.17525 7.95699 4.09598 8.15814 4L8.19614 3.981C8.51314 3.793 8.78264 3.6795 9.09114 3.645L9.10014 3.6435L9.12664 3.637C9.13087 3.63582 9.13528 3.63548 9.13964 3.636C9.15315 3.63292 9.16684 3.63075 9.18064 3.6295L9.20914 3.6265L9.29564 3.62L9.33914 3.615L9.56914 3.599L9.67464 3.593C9.77614 3.588 9.86714 3.5845 9.96114 3.5845ZM9.96114 3.6545C9.82264 3.6545 9.68914 3.66 9.51814 3.672L9.34564 3.684L9.32664 3.686L9.21664 3.6955L9.19014 3.698L9.16864 3.7005L9.14864 3.704C9.14118 3.70446 9.13379 3.7058 9.12664 3.708L9.11564 3.7105L9.10164 3.7135C9.09831 3.71378 9.09497 3.71378 9.09164 3.7135C8.80314 3.7465 8.54164 3.8565 8.23014 4.041L8.19014 4.061C7.98425 4.15971 7.77051 4.24116 7.55114 4.3045C7.45114 4.3265 7.34114 4.3145 7.25864 4.2735C7.24031 4.26725 7.22258 4.25938 7.20564 4.25L7.14864 4.2195L7.12164 4.2015L7.08164 4.1815L7.00864 4.1465L6.95864 4.123C6.82381 4.0599 6.677 4.02648 6.52814 4.025H6.45964C6.08164 4.0525 5.79414 4.147 5.52714 4.385L5.50014 4.412L5.46914 4.453L5.44164 4.488L5.42914 4.5055L5.40564 4.5385L5.39514 4.5545L5.37514 4.587L5.35614 4.62C5.34114 4.6485 5.32614 4.679 5.31114 4.7135L5.29314 4.7575C5.28994 4.76549 5.28677 4.77348 5.28364 4.7815L5.26364 4.834L5.23014 4.9255C5.22877 4.92882 5.22744 4.93215 5.22614 4.9355L5.21764 4.9595L5.19764 5.0205L5.18664 5.0525C5.18391 5.05987 5.18107 5.0672 5.17814 5.0745L5.17164 5.0905V5.103L5.17014 5.113C5.11803 5.27094 5.08119 5.43352 5.06014 5.5985L5.05264 5.646L5.04614 5.687L5.03964 5.722L5.03314 5.752L5.02614 5.779C5.02364 5.7875 5.02114 5.7965 5.01764 5.805L4.96564 5.9615L4.94364 6.03L4.93614 6.0565C4.92999 6.07373 4.92365 6.0909 4.91714 6.108L4.89564 6.1615L4.88464 6.1885L4.86164 6.242C4.85785 6.25102 4.85401 6.26002 4.85014 6.269L4.82614 6.3205L4.80264 6.369C4.77214 6.4315 4.74264 6.483 4.72114 6.511L4.70114 6.551C4.69634 6.55966 4.691 6.56801 4.68514 6.576L4.64864 6.624L4.56014 6.766L4.53964 6.801C4.41964 7.005 4.35514 7.183 4.34964 7.3775V7.446L4.35014 7.475L4.35214 7.4955L4.35514 7.517L4.35914 7.542L4.36864 7.589L4.41864 7.737C4.42945 7.76786 4.43119 7.80118 4.42364 7.833L4.42014 7.8445L4.41964 7.8525C4.41437 7.88234 4.40046 7.90998 4.37964 7.932L4.36864 7.9435L4.33264 7.977C4.153 8.14174 3.98835 8.32212 3.84064 8.516L3.78564 8.5875C3.76414 8.6225 3.74314 8.6535 3.71264 8.6925L3.67864 8.7345L3.66264 8.7495C3.36664 9.1695 3.31064 9.4585 3.44414 9.986L3.46464 10.063L3.47564 10.103L3.47464 10.113C3.51864 10.2655 3.56964 10.4 3.63564 10.53L3.64464 10.551L3.70214 10.675L3.78514 10.8615C4.03614 11.4175 4.26714 11.7225 4.70514 11.9655L4.74514 11.9855C4.92014 12.0655 5.06114 12.1075 5.27014 12.1415L5.33814 12.152L5.41214 12.162L5.49164 12.172L5.57764 12.1825L5.81764 12.2125H5.86114C6.24171 12.2485 6.62388 12.265 7.00614 12.262L7.10414 12.26C7.13614 12.259 7.16764 12.2585 7.19814 12.257L7.28714 12.253C7.66464 12.232 7.92264 12.1755 8.09864 12.075C8.1692 12.0444 8.24352 12.0234 8.31964 12.0125L8.35614 12.0065L8.39764 12.0015L8.44564 11.9965L8.52064 11.9905L8.60964 11.9855L8.71464 11.9805L8.94514 11.972H8.96114C9.02864 11.964 9.07114 11.962 9.12814 11.962H9.29914C9.39914 11.9615 9.46214 11.957 9.52564 11.943L9.56364 11.9335L9.62464 11.9135C9.65464 11.9035 9.68464 11.8905 9.71614 11.875C9.86864 11.8 10.0326 11.669 10.2011 11.4975C10.3057 11.3901 10.4042 11.2769 10.4961 11.1585L10.5361 11.1075L10.5541 11.0835L10.5811 11.046C10.7841 10.731 10.8831 10.5245 10.9421 10.2265C10.9651 10.1065 10.9696 9.9775 10.9621 9.7955V9.7825L10.9401 9.366L10.9381 9.2985C10.9331 9.105 10.9491 8.985 11.0026 8.926L11.0286 8.8995L11.0486 8.861C11.1256 8.747 11.2486 8.655 11.3916 8.5985L11.4226 8.587C11.7191 8.489 11.9466 8.314 12.1461 8.0285C12.2661 7.861 12.3561 7.684 12.4161 7.4965C12.4576 7.3725 12.4861 7.2465 12.4951 7.1365V7.1065L12.4956 7.0915C12.4967 7.07405 12.4989 7.05668 12.5021 7.0395L12.5151 6.974L12.5286 6.916L12.5401 6.869L12.5511 6.8285L12.5621 6.793C12.5731 6.7595 12.5846 6.732 12.5996 6.7025C12.6666 6.5475 12.7111 6.405 12.7286 6.275L12.7291 6.25L12.7511 6.11C12.7956 5.7925 12.7796 5.5825 12.6611 5.349L12.6426 5.311C12.6205 5.27445 12.5965 5.23907 12.5706 5.205C12.51 5.12425 12.4385 5.05224 12.3581 4.991L12.2871 4.935L12.2411 4.8985L12.2171 4.8785L12.1871 4.852L12.1691 4.8355L12.1416 4.8085L12.0991 4.771C12.0863 4.7595 12.0737 4.74783 12.0611 4.736L12.0261 4.701C11.9891 4.66375 11.9536 4.62505 11.9196 4.585L11.8786 4.5365L11.7526 4.382C11.5216 4.103 11.3246 3.952 10.9571 3.803L10.8571 3.7645H10.8446L10.8346 3.7635C10.5941 3.691 10.3096 3.6545 9.96114 3.6545ZM10.0116 2.5095C10.3416 2.5095 10.6391 2.537 10.9061 2.593C10.9916 2.638 11.0796 2.6855 11.1661 2.7355C10.8416 2.6355 10.4571 2.5845 10.0116 2.5845C9.76114 2.5845 9.50164 2.6005 9.29414 2.6245L9.20664 2.6335L9.15664 2.64L9.11214 2.646L9.09214 2.649L9.05264 2.655L9.02064 2.6615C9.01077 2.66354 9.00072 2.66454 8.99064 2.6645C8.53164 2.72 8.18564 2.866 7.72264 3.132L7.70414 3.141C7.66052 3.16255 7.61277 3.17448 7.56414 3.176C7.50689 3.17569 7.45021 3.16449 7.39714 3.143C7.13483 3.03274 6.85319 2.9758 6.56864 2.9755H6.41964L6.33114 2.983C6.18187 2.99502 6.03386 3.01944 5.88864 3.056C5.60589 3.12461 5.33722 3.24185 5.09464 3.4025C4.99814 3.466 4.90564 3.5375 4.81664 3.6175L4.72914 3.693L4.63814 3.803C4.44964 4.0305 4.35164 4.215 4.25314 4.482L4.22414 4.565L4.20914 4.6085C4.2011 4.6538 4.18627 4.69763 4.16514 4.7385L4.14614 4.775C4.0592 5.00269 4.00206 5.24066 3.97614 5.483V5.493L3.97314 5.508L3.96014 5.5405L3.94714 5.579L3.92214 5.6595L3.90464 5.711L3.89264 5.742L3.88264 5.767L3.86364 5.815L3.84464 5.858L3.82764 5.895L3.81964 5.9105L3.81264 5.9205L3.80814 5.923L3.78014 5.971L3.77664 5.979L3.77164 5.987L3.75414 6.012C3.75145 6.01622 3.74895 6.02056 3.74664 6.025L3.70414 6.0875C3.44664 6.477 3.30264 6.8025 3.26514 7.242C3.25514 7.307 3.23764 7.374 3.21164 7.451L3.15064 7.601C3.13589 7.63725 3.11638 7.67138 3.09264 7.7025L3.06464 7.74L3.04514 7.7625C3.03291 7.77731 3.02091 7.79232 3.00914 7.8075L2.93414 7.9035L2.91114 7.932L2.89464 7.9525L2.82714 8.0305L2.81614 8.044L2.75114 8.1295C2.23814 8.8635 2.14014 9.494 2.40014 10.401L2.42064 10.4625C2.48064 10.663 2.55214 10.851 2.64164 11.0275L2.67114 11.0835L2.69614 11.132C2.70764 11.157 2.71714 11.1785 2.72364 11.199L2.74364 11.2435L2.80164 11.3665L2.83664 11.4415L2.87114 11.5115L2.90364 11.5765L2.93564 11.6385L2.96714 11.697L2.99814 11.753L3.01414 11.7805L3.04614 11.8345L3.07864 11.8875L3.09564 11.914L3.09064 11.9065C2.9718 11.7585 2.86001 11.605 2.75564 11.4465L2.75064 11.4355L2.71364 11.3565L2.65314 11.2265C2.64464 11.2015 2.63364 11.1765 2.61814 11.146L2.57814 11.0685L2.54414 11C2.46562 10.8337 2.40026 10.6615 2.34864 10.485L2.32764 10.423C2.06114 9.493 2.16264 8.8395 2.68914 8.086L2.75014 8.006L2.76164 7.991L2.77464 7.975L2.82164 7.9215L2.84164 7.898L2.85314 7.884L2.88114 7.8495L2.94914 7.7615C2.96914 7.7365 2.98664 7.715 3.00414 7.695L3.02914 7.661C3.05012 7.63425 3.06744 7.60483 3.08064 7.5735L3.14064 7.425C3.16464 7.3545 3.18114 7.291 3.18964 7.2335C3.22964 6.7635 3.38814 6.42 3.67164 6.001L3.68114 5.9875C3.68548 5.97878 3.69049 5.97043 3.69614 5.9625L3.70764 5.954L3.71264 5.9345L3.74914 5.8775L3.75464 5.872L3.76714 5.8455L3.78464 5.807L3.79364 5.7855L3.81264 5.739L3.83214 5.6895L3.84014 5.667L3.88214 5.5345C3.88914 5.5135 3.89614 5.495 3.90364 5.4785L3.90064 5.485V5.4785C3.93164 5.222 3.98114 5 4.05864 4.7925L4.07714 4.745L4.09714 4.705C4.11589 4.66869 4.12904 4.62975 4.13614 4.5895C4.25464 4.2375 4.35564 4.026 4.57914 3.756L4.67464 3.641L4.81214 3.521C5.11832 3.26206 5.48053 3.07788 5.87014 2.983C6.00576 2.9488 6.14385 2.92523 6.28314 2.9125L6.36964 2.9045L6.41664 2.9005H6.56864C6.86364 2.9005 7.15314 2.96 7.42564 3.0735C7.46964 3.09138 7.51665 3.10071 7.56414 3.101C7.59614 3.101 7.63214 3.091 7.67164 3.073L7.68714 3.066C8.15564 2.7965 8.50964 2.6475 8.98614 2.59C8.99659 2.58987 9.007 2.58853 9.01714 2.586L9.03314 2.5825L9.04214 2.581H9.04964L9.08314 2.5745L9.12314 2.5685L9.17064 2.5625L9.22514 2.5565L9.28614 2.55C9.49614 2.526 9.75814 2.5095 10.0116 2.5095ZM10.3876 8.2485C10.5601 8.3285 10.7026 8.3985 10.7326 8.4285C10.7426 8.4285 10.7426 8.4385 10.7426 8.4485C10.7226 8.499 10.6921 8.529 10.6616 8.569C10.6211 8.619 10.5806 8.669 10.5296 8.7495C10.4686 8.8695 10.4486 8.98 10.4381 9.2505C10.4281 9.571 10.4381 9.7615 10.4481 9.892C10.4581 10.022 10.4581 10.102 10.4381 10.222C10.3876 10.473 10.2861 10.6435 10.1436 10.8535C9.97114 11.1145 9.78864 11.395 9.49364 11.485C9.46914 11.493 9.46464 11.495 9.42714 11.495H9.33014C9.25864 11.4955 9.15614 11.4975 8.99614 11.505C8.61014 11.515 8.40714 11.525 8.24464 11.555C8.07164 11.585 7.98064 11.625 7.88914 11.665C7.80764 11.695 7.73664 11.725 7.58414 11.7555C7.50314 11.7755 7.37114 11.7955 6.93414 11.7955C6.47714 11.7955 6.20314 11.7955 5.83764 11.7555C5.33964 11.6955 5.08614 11.6755 4.92364 11.5855C4.55364 11.389 4.38764 11.053 4.14364 10.512L4.09064 10.393C4.09064 10.383 4.10064 10.373 4.10064 10.383C4.11064 10.393 4.13114 10.393 4.14164 10.403C4.15164 10.403 4.16164 10.413 4.18164 10.413H4.28364C4.30364 10.463 4.32414 10.503 4.37514 10.523C4.42564 10.543 4.47664 10.553 4.52714 10.553C4.57814 10.553 4.63914 10.553 4.68964 10.543C4.72014 10.543 4.75064 10.553 4.76114 10.583C4.81164 10.703 4.87264 10.7835 4.96414 10.7935H4.98414C5.00464 10.7935 5.02514 10.7935 5.06564 10.7635C5.10614 10.7335 5.17714 10.7535 5.20764 10.7935C5.22551 10.813 5.24605 10.8298 5.26864 10.8435C5.36014 10.9335 5.59364 10.984 5.77664 10.984C5.87814 10.984 5.96964 10.974 6.03064 10.944C6.11164 10.904 6.11164 10.844 6.10164 10.824L6.08164 10.7035C6.08164 10.7035 6.09164 10.6935 6.09164 10.7035C6.10164 10.7235 6.11164 10.7635 6.15214 10.7635H6.16214C6.21314 10.7635 6.29464 10.7835 6.31464 10.8335C6.32464 10.8635 6.33514 10.8835 6.34514 10.9035C6.37564 10.9535 6.44664 11.014 6.56864 11.014H6.57864C6.73114 11.014 6.84314 10.964 6.91364 10.874C6.91364 10.864 6.92414 10.864 6.92414 10.854C6.95464 10.814 7.03614 10.814 7.06664 10.844C7.10664 10.884 7.15764 10.894 7.20864 10.894H7.23864C7.27162 10.8908 7.30345 10.8802 7.33169 10.8628C7.35994 10.8455 7.38386 10.822 7.40164 10.794C7.43178 10.7521 7.45258 10.7042 7.46264 10.6535C7.46264 10.6335 7.49264 10.6335 7.50314 10.6435C7.53314 10.6735 7.57414 10.6935 7.64514 10.6935C7.66564 10.6935 7.67564 10.6935 7.69614 10.6835C7.82814 10.6535 7.88914 10.5535 7.91964 10.433C7.91964 10.433 7.92964 10.423 7.92964 10.433C7.96014 10.473 8.02114 10.513 8.12264 10.513H8.14264C8.16853 10.5119 8.19385 10.505 8.21676 10.4929C8.23968 10.4808 8.25962 10.4637 8.27514 10.443C8.31639 10.3844 8.33777 10.3141 8.33614 10.2425C8.33614 10.2125 8.35614 10.1925 8.38664 10.1825C8.47971 10.1412 8.56379 10.0821 8.63414 10.0085L8.66114 9.972C8.67114 9.952 8.69114 9.932 8.71164 9.932C8.79314 9.912 8.83364 9.902 8.86414 9.882C8.89414 9.872 8.91464 9.862 8.97564 9.852C9.47364 9.782 9.56464 9.762 9.67664 9.6915C9.83914 9.5815 9.84914 9.441 9.84914 9.3005C9.85914 9.1805 9.85914 9.0505 9.96114 8.89C9.99114 8.83 10.0321 8.76 10.0726 8.6795C10.1436 8.5495 10.2451 8.369 10.3161 8.2685C10.3366 8.2485 10.3671 8.2385 10.3876 8.2485ZM6.49764 10.3525L6.87364 10.3725L6.88364 10.4625C6.89364 10.563 6.88364 10.6935 6.81264 10.7835C6.76164 10.8535 6.68064 10.8835 6.55864 10.8835C6.47714 10.8835 6.44664 10.8535 6.43664 10.8335C6.37564 10.7335 6.43664 10.5035 6.49764 10.3525ZM5.96964 9.561C5.96964 9.591 5.95964 9.631 5.94964 9.671C5.94964 9.7215 5.93914 9.7915 5.92914 9.882C5.90864 10.052 5.89864 10.2725 5.92914 10.573C5.93914 10.653 5.94914 10.7435 5.95914 10.8335C5.93914 10.8435 5.86814 10.8635 5.74614 10.8635C5.56314 10.8635 5.39064 10.8135 5.33964 10.7635L5.32964 10.7535C5.28914 10.7235 5.25864 10.6935 5.25864 10.6335C5.25864 10.6135 5.26864 10.5935 5.28864 10.5635C5.29897 10.5414 5.31281 10.5211 5.32964 10.5035C5.36014 10.463 5.40064 10.413 5.43114 10.3525C5.54314 10.1625 5.58364 10.1125 5.63464 10.0325L5.64464 10.0125C5.67464 9.972 5.71564 9.922 5.76664 9.8315C5.80664 9.7715 5.84764 9.7215 5.86814 9.6815C5.91864 9.6215 5.94914 9.581 5.96964 9.561ZM7.38114 10.2225C7.39114 10.3225 7.39114 10.603 7.30014 10.7135C7.28014 10.7435 7.24914 10.7535 7.22914 10.7635C7.19864 10.7635 7.17814 10.7635 7.15764 10.7435C7.08664 10.681 7.07714 10.5095 7.07614 10.3755V10.2725C7.18814 10.2425 7.32014 10.2225 7.38114 10.2225ZM4.75114 9.952C4.84864 10.0045 5.00114 10.0265 5.22114 10.031L5.31964 10.032C5.32964 10.022 5.34964 10.022 5.37014 10.022C5.36014 10.092 5.27914 10.2825 5.14714 10.463C5.03514 10.613 4.97414 10.653 4.96414 10.653C4.91314 10.643 4.86264 10.523 4.82214 10.393C4.80164 10.343 4.79164 10.293 4.78114 10.253C4.75114 10.1525 4.75114 10.032 4.75114 9.952ZM6.30464 9.6215C6.34987 9.62053 6.39491 9.62764 6.43764 9.6425L6.47764 9.6615C6.50764 9.6715 6.54864 9.7115 6.54864 9.7915C6.53864 9.9015 6.48764 10.062 6.40614 10.2125C6.32514 10.3725 6.23364 10.513 6.17264 10.593C6.12164 10.463 6.03064 10.1525 6.06114 9.902V9.882C6.07114 9.802 6.09114 9.7315 6.13214 9.6815C6.15214 9.6415 6.22364 9.6215 6.30464 9.6215ZM7.81814 10.1225V10.3125C7.80814 10.4125 7.77714 10.543 7.67564 10.563C7.63514 10.573 7.60464 10.563 7.59464 10.543C7.52364 10.483 7.51314 10.293 7.52364 10.1625C7.56364 10.1625 7.62514 10.1525 7.69614 10.1425C7.73664 10.1325 7.77714 10.1225 7.81814 10.1225ZM8.20414 10.0525C8.21414 10.1625 8.22414 10.3125 8.18364 10.3725C8.17364 10.3825 8.16364 10.3925 8.14314 10.3925C8.09214 10.3925 8.05164 10.3825 8.03114 10.3525C7.98064 10.2925 7.99064 10.1725 8.00114 10.1025L8.20414 10.0525ZM4.39514 9.8215C4.46664 9.8515 4.54764 9.8715 4.62914 9.8815C4.60864 10.012 4.63914 10.2025 4.65914 10.2625C4.65914 10.3125 4.66914 10.3325 4.67964 10.3625L4.66964 10.3725H4.47664C4.45664 10.3725 4.43614 10.3725 4.42564 10.3525C4.41313 10.3241 4.40634 10.2935 4.40564 10.2625C4.37681 10.1172 4.37343 9.96797 4.39564 9.8215H4.39514ZM4.10064 9.7415L4.15164 9.7615C4.19214 9.7715 4.22264 9.7815 4.24314 9.7915C4.23314 9.8915 4.22314 9.992 4.22314 10.092C4.22314 10.1255 4.22714 10.1635 4.23314 10.2L4.24314 10.2525H4.18214C4.17214 10.2525 4.16214 10.2525 4.15164 10.2425L4.11114 10.2025C4.08064 10.1525 4.08064 10.1025 4.08064 10.0525C4.08064 9.952 4.08064 9.8515 4.10064 9.7415ZM6.73114 9.6915C6.84314 9.6615 6.97514 9.6515 7.01564 9.6815C7.05614 9.7315 6.97514 9.9515 6.93414 10.042C6.92414 10.082 6.90414 10.112 6.89414 10.142C6.86314 10.152 6.76164 10.142 6.66014 10.122L6.73114 9.6915ZM7.21864 9.6815C7.24914 9.6615 7.31014 9.6615 7.35064 9.6915C7.41164 9.7415 7.43214 9.8015 7.41164 9.8715C7.40164 9.9015 7.38164 10.002 7.37114 10.062L7.08664 10.052C7.10664 9.962 7.12714 9.882 7.14764 9.812C7.16764 9.7415 7.19864 9.6915 7.21864 9.6815ZM7.74664 9.6315C7.76714 9.7115 7.76714 9.8515 7.76714 9.9415L7.54364 10.012C7.55364 9.922 7.57414 9.802 7.57414 9.7215C7.57414 9.6615 7.59414 9.6515 7.59414 9.6415H7.60464L7.74664 9.6315ZM6.48764 4.5815C6.58914 4.5815 6.70064 4.6315 6.82264 4.7015C6.97514 4.7815 7.15764 4.8815 7.39164 4.8915C7.49314 4.8915 7.63514 4.8615 7.77714 4.8215L7.86564 4.811C8.26364 4.7645 8.84064 4.7285 9.19914 4.952C9.56464 5.172 9.63614 5.6635 9.66614 6.1045C9.67614 6.2345 9.66614 6.3945 9.65614 6.565L9.64614 6.7225C9.62364 7.1405 9.63364 7.538 9.94064 7.6275C10.0826 7.6675 10.5091 7.7975 10.9661 7.998C11.0071 8.018 11.0071 8.068 10.9761 8.098C10.9661 8.108 10.9561 8.108 10.9461 8.118C10.9156 8.138 10.8851 8.168 10.8546 8.198C10.8346 8.2285 10.8036 8.2285 10.7736 8.2185C10.6821 8.1685 10.5396 8.1085 10.3876 8.0485H10.3776C10.3671 8.0385 10.3671 8.0385 10.3571 8.0385L10.2711 8.005C10.1536 7.96054 10.0329 7.92478 9.91014 7.898C9.58514 7.838 9.35164 8.018 9.27014 8.078C9.16864 8.158 9.14864 8.198 9.13814 8.2585C9.12814 8.2885 9.11814 8.3185 9.05714 8.4085C8.92514 8.579 8.85414 8.6295 8.78264 8.6695C8.70552 8.70567 8.64168 8.76513 8.60014 8.8395C8.53914 8.9395 8.53914 9.04 8.54914 9.1705V9.4205C8.54914 9.6615 8.53914 9.7715 8.52914 9.8315C8.52914 9.8615 8.51914 9.8715 8.51914 9.8815V9.8915L8.49814 9.916C8.47314 9.941 8.43514 9.9695 8.39664 9.992C8.36664 10.012 8.33614 9.992 8.32564 9.962L8.31564 9.932L8.32264 9.8885C8.32564 9.8575 8.32564 9.8215 8.32564 9.7815V9.7415C8.32564 9.7215 8.33564 9.6915 8.33564 9.6615C8.34564 9.6015 8.35614 9.5215 8.28514 9.491C8.21414 9.461 8.12264 9.471 8.05164 9.491C8.03164 9.491 8.02114 9.501 8.00064 9.501H7.99064C7.95014 9.511 7.82814 9.521 7.78764 9.521L7.63514 9.531C7.59464 9.521 7.56414 9.541 7.53364 9.561L7.50314 9.591C7.49314 9.611 7.47264 9.611 7.45214 9.601C7.37114 9.531 7.24914 9.541 7.17814 9.581C7.17814 9.591 7.15814 9.591 7.14764 9.611C7.13764 9.621 7.12764 9.611 7.12764 9.611C7.01564 9.491 6.73114 9.571 6.68064 9.591L6.66014 9.601C6.65014 9.601 6.64014 9.611 6.64014 9.621V9.641L6.60914 9.6045C6.58892 9.5825 6.56486 9.56437 6.53814 9.551C6.43503 9.49744 6.31596 9.48322 6.20314 9.511C6.16264 9.521 6.12164 9.491 6.09164 9.461C6.08164 9.451 6.06114 9.441 6.05064 9.431C6.01064 9.411 5.96964 9.421 5.92914 9.451C5.88814 9.481 5.83764 9.461 5.81714 9.421C5.78714 9.361 5.75614 9.311 5.70564 9.281C5.67514 9.261 5.63464 9.251 5.60414 9.2405C5.53188 9.21722 5.45469 9.21376 5.38064 9.2305C5.37064 9.2405 5.35014 9.2405 5.33964 9.2505C5.30964 9.2705 5.25864 9.2705 5.23814 9.2405C5.20814 9.2205 5.17714 9.1905 5.13664 9.1805C5.08443 9.16225 5.02819 9.15879 4.97414 9.1705C4.95414 9.1705 4.93364 9.1705 4.91314 9.1505C4.85973 9.11114 4.79667 9.08695 4.73064 9.0805C4.67311 9.06841 4.6134 9.07186 4.55764 9.0905C4.53764 9.0905 4.52764 9.0905 4.51764 9.0805C4.46664 9.0205 4.38514 8.99 4.30414 8.98H4.23264C4.21264 8.98 4.20264 8.96 4.21264 8.95C4.35299 8.76935 4.50929 8.60168 4.67964 8.449C5.01464 8.1585 5.03514 8.068 5.02464 7.898V7.878C5.02464 7.768 4.98464 7.6875 4.94364 7.6175C4.91364 7.5475 4.88264 7.4875 4.87264 7.387C4.86264 7.327 4.95414 7.1265 4.99464 7.076C5.05564 7.006 5.09614 6.936 5.12664 6.886C5.14664 6.846 5.16714 6.806 5.18764 6.786C5.33964 6.585 5.39064 6.425 5.45164 6.2145C5.47164 6.1445 5.50214 6.0545 5.53264 5.964C5.58364 5.824 5.59364 5.734 5.60414 5.6435C5.61414 5.5435 5.63414 5.443 5.69514 5.2625C5.82714 4.902 5.86814 4.8215 5.89864 4.7915C6.02014 4.6715 6.16264 4.6015 6.46714 4.5815H6.48764ZM3.91764 9.5415C3.94864 9.5615 3.96864 9.5815 3.99914 9.6015L4.02964 9.6315V9.6415C3.99964 9.7515 3.97914 9.8715 3.97914 9.982C3.97914 9.992 3.96914 9.992 3.96914 9.982C3.94214 9.8595 3.90014 9.675 3.91014 9.577L3.91764 9.5415ZM8.19364 9.5915C8.20364 9.6015 8.19364 9.6215 8.19364 9.6415C8.19364 9.6715 8.18364 9.7015 8.18364 9.7415V9.8915C8.12264 9.9115 8.06164 9.9115 7.99064 9.9115V9.7415C7.99064 9.7015 7.99064 9.6415 8.00064 9.6215L8.06164 9.6115C8.10214 9.6015 8.16314 9.5915 8.19364 9.5915ZM5.49214 9.361L5.52514 9.366C5.54864 9.373 5.57364 9.384 5.59364 9.391H5.60364C5.60364 9.401 5.61364 9.401 5.61364 9.401H5.62414L5.63414 9.411C5.64414 9.411 5.64414 9.421 5.64414 9.421L5.64964 9.431L5.65714 9.446L5.66464 9.461C5.68514 9.511 5.69514 9.571 5.70564 9.631C5.70564 9.651 5.71564 9.661 5.74564 9.681C5.73564 9.701 5.71564 9.7315 5.69564 9.7615C5.66464 9.8115 5.63464 9.8515 5.61414 9.8815H5.60414C5.50214 9.8815 5.40064 9.8715 5.30914 9.8615C5.25864 9.8615 5.21814 9.8515 5.16714 9.8415L5.10614 9.8315L5.11614 9.8215L5.16714 9.7515C5.19764 9.7115 5.22814 9.6615 5.25864 9.6215C5.28864 9.5715 5.32964 9.5215 5.36014 9.471C5.37014 9.451 5.39064 9.431 5.40064 9.411L5.40814 9.4085C5.41114 9.4055 5.41114 9.401 5.41114 9.401L5.42114 9.391L5.42364 9.384C5.42664 9.381 5.43114 9.381 5.43114 9.381C5.43114 9.371 5.44114 9.371 5.44114 9.371C5.44114 9.361 5.45114 9.361 5.46164 9.361H5.49214ZM5.08564 9.271C5.09164 9.2715 5.09564 9.274 5.09564 9.281H5.10614L5.12614 9.291C5.11614 9.281 5.13664 9.311 5.13664 9.311C5.15964 9.348 5.16514 9.3745 5.17114 9.398L5.17714 9.421C5.12664 9.491 5.08614 9.561 5.03514 9.631C5.01514 9.661 4.98464 9.701 4.96414 9.7315L4.92364 9.7915C4.88597 9.78282 4.84861 9.77281 4.81164 9.7615L4.72014 9.7315C4.71014 9.7315 4.71014 9.7315 4.70014 9.7215C4.70014 9.715 4.69514 9.708 4.68964 9.7015L4.67964 9.6915C4.68964 9.6715 4.69964 9.6515 4.71014 9.6215L4.77114 9.5015C4.81164 9.431 4.86264 9.361 4.93364 9.3105C4.93364 9.3105 4.94364 9.3105 4.94364 9.3005C4.96979 9.2803 5.0021 9.2697 5.03514 9.2705L5.08564 9.271ZM9.88964 8.088C9.93064 8.098 10.0216 8.128 10.1031 8.158C10.1331 8.168 10.1536 8.208 10.1331 8.2385C10.0726 8.3285 10.0016 8.4585 9.92014 8.6095C9.88014 8.6795 9.83914 8.7595 9.80864 8.8095C9.69664 9 9.68664 9.1705 9.67664 9.3005C9.66664 9.4405 9.66664 9.501 9.57514 9.551C9.50414 9.601 9.43264 9.611 8.94514 9.681C8.86414 9.691 8.82364 9.711 8.79314 9.7215C8.78314 9.7215 8.78314 9.7215 8.77264 9.7315C8.74264 9.7415 8.70164 9.7215 8.71164 9.6815C8.71164 9.6115 8.72164 9.5315 8.72164 9.431V9.1805C8.71164 9.0605 8.71164 9.0105 8.75214 8.95C8.79314 8.89 8.82364 8.87 8.87414 8.83C8.94514 8.78 9.04664 8.7195 9.19914 8.519C9.28064 8.409 9.29064 8.359 9.31114 8.309C9.31114 8.289 9.32114 8.279 9.38214 8.2385C9.44314 8.1885 9.63614 8.048 9.88964 8.088ZM4.59864 9.221C4.62864 9.201 4.65964 9.211 4.68964 9.211C4.72014 9.211 4.75064 9.211 4.78114 9.221C4.80114 9.231 4.81164 9.231 4.81164 9.231C4.73064 9.301 4.66964 9.391 4.60864 9.4915L4.52714 9.6515L4.51714 9.6715C4.48714 9.6615 4.46664 9.6615 4.43614 9.6515L4.35464 9.6215C4.34464 9.6115 4.33464 9.6115 4.32464 9.6015C4.35464 9.5515 4.38514 9.5115 4.40564 9.4615C4.44614 9.4015 4.48664 9.3415 4.53764 9.2815C4.55764 9.2615 4.57814 9.231 4.59864 9.221ZM4.26564 9.116L4.28814 9.1185L4.30414 9.121C4.35509 9.1278 4.40192 9.15264 4.43614 9.191C4.38864 9.2445 4.34614 9.3025 4.30714 9.3615L4.25314 9.4515C4.23314 9.4915 4.20214 9.5215 4.19214 9.5615C4.16214 9.5515 4.14164 9.5415 4.11114 9.5315L4.05014 9.4915C4.05014 9.4915 4.03014 9.4815 4.03014 9.4715H4.01964C4.02964 9.4515 4.03964 9.4315 4.03964 9.4215C4.04964 9.3915 4.07014 9.3615 4.09064 9.3315C4.12114 9.2815 4.16164 9.221 4.19214 9.171C4.20367 9.14954 4.22146 9.1321 4.24314 9.121L4.26564 9.116ZM9.16264 2.001C9.25414 2.0175 9.34514 2.036 9.43564 2.057L9.32614 2.0665L9.22314 2.0765L9.16564 2.0815L9.09064 2.0895L9.02914 2.097L8.99464 2.102L8.96564 2.107H8.96064L8.91364 2.115C8.90536 2.11616 8.897 2.11666 8.88864 2.1165C8.51364 2.1585 8.18164 2.2665 7.79614 2.443C7.61185 2.53731 7.39914 2.55993 7.19914 2.5065C6.9825 2.45529 6.76075 2.42879 6.53814 2.4275H6.36714C6.12364 2.4365 5.86714 2.481 5.59514 2.556C5.16464 2.68564 4.76793 2.90841 4.43314 3.2085L4.31464 3.315L4.19314 3.455C3.95214 3.7485 3.84264 3.9555 3.71114 4.3075L3.67914 4.395L3.66264 4.441C3.65829 4.45895 3.65295 4.47664 3.64664 4.494L3.63564 4.523L3.58914 4.659C3.50314 4.914 3.44614 5.1565 3.42014 5.388L3.41764 5.398C3.39764 5.4465 3.37764 5.505 3.36814 5.543L3.36414 5.558C3.35903 5.5739 3.35285 5.58943 3.34564 5.6045L3.32964 5.638L3.32664 5.6465L3.32314 5.6545L3.29664 5.698L3.29514 5.704C3.29124 5.71719 3.28497 5.72955 3.27664 5.7405L3.27164 5.746L3.22714 5.812C2.95864 6.2175 2.79414 6.5685 2.71964 7.0405C2.70964 7.147 2.67314 7.25 2.61264 7.357L2.44864 7.64C2.445 7.64552 2.44133 7.65102 2.43764 7.6565L2.41764 7.684C2.40507 7.70151 2.39102 7.7179 2.37564 7.733L2.29564 7.831C2.04564 8.1895 1.88564 8.523 1.79564 8.8745C1.78665 8.80463 1.77882 8.73462 1.77214 8.6645L1.81714 8.5415C1.91364 8.2915 2.04914 8.0435 2.23064 7.783L2.31514 7.6795C2.33118 7.6637 2.34574 7.64646 2.35864 7.628L2.37964 7.598L2.54164 7.318C2.59664 7.22 2.62964 7.1275 2.63864 7.0305C2.71914 6.523 2.89864 6.154 3.19264 5.7185L3.21064 5.6935L3.21714 5.6835L3.22314 5.6635L3.24964 5.621L3.25264 5.613L3.26064 5.5945L3.27764 5.5575C3.28257 5.54669 3.28658 5.53548 3.28964 5.524L3.29464 5.505L3.30814 5.4615L3.32414 5.4145L3.34214 5.3685L3.34014 5.3735L3.34664 5.3195C3.37614 5.1005 3.43164 4.8725 3.51164 4.6345L3.53414 4.5695L3.55664 4.5025L3.57414 4.4555L3.58114 4.432L3.58514 4.418L3.60214 4.371L3.63464 4.281C3.76964 3.9195 3.88264 3.706 4.13114 3.4035L4.25614 3.2595L4.37814 3.1495C4.7223 2.8412 5.13012 2.61245 5.57264 2.4795C5.83097 2.40493 6.09709 2.36064 6.36564 2.3475H6.53814C6.75814 2.3475 6.99464 2.376 7.21914 2.429C7.40364 2.4765 7.59614 2.4565 7.76014 2.371C8.15464 2.1905 8.49514 2.08 8.88414 2.0365C8.89414 2.0365 8.90414 2.0355 8.92164 2.0325L8.94864 2.0275H8.95764C8.96197 2.02662 8.9663 2.02579 8.97064 2.025L9.00114 2.02L9.03764 2.015L9.08064 2.01L9.15664 2.0025L9.16264 2.001ZM5.83764 7.0365C5.76986 7.02957 5.70141 7.03294 5.63464 7.0465C5.62464 7.0465 5.60414 7.0565 5.59364 7.0565C5.58364 7.0565 5.58364 7.0665 5.57364 7.0665C5.55314 7.0765 5.54314 7.0865 5.52264 7.0965L5.51264 7.1065L5.50264 7.1165C5.48451 7.12432 5.4699 7.13856 5.46164 7.1565C5.40064 7.247 5.39064 7.347 5.37014 7.4675C5.36014 7.5275 5.35014 7.5975 5.33014 7.6875C5.31964 7.718 5.31964 7.738 5.31964 7.758C5.31964 7.778 5.31964 7.808 5.29964 7.858L5.28914 7.878C5.28914 7.898 5.27914 7.918 5.26914 7.938C5.25864 7.958 5.25864 7.9685 5.24864 7.9885L5.23864 8.0085L5.20764 8.0685C5.13664 8.229 5.15714 8.319 5.17764 8.3995C5.18764 8.4095 5.18764 8.4195 5.18764 8.4295C5.20764 8.4795 5.23814 8.5295 5.27914 8.5695C5.33964 8.6295 5.42114 8.6695 5.48214 8.6895H5.54314C5.86814 8.6895 6.58914 8.179 6.69064 7.728C6.71064 7.628 6.72064 7.4675 6.53814 7.307L6.52814 7.297C6.52814 7.297 6.52814 7.287 6.51814 7.287C6.49814 7.277 6.48764 7.257 6.46714 7.247C6.42664 7.227 6.38614 7.197 6.33514 7.177H6.32514C6.31514 7.167 6.29464 7.167 6.28414 7.157C6.27414 7.157 6.26414 7.157 6.25414 7.147C6.25414 7.147 6.24414 7.137 6.23364 7.137C6.23364 7.127 6.22364 7.127 6.22364 7.127C6.18264 7.107 6.13214 7.097 6.07114 7.077C5.99457 7.05711 5.91646 7.04373 5.83764 7.037V7.0365ZM5.84764 7.257C5.81764 7.297 5.79714 7.327 5.76664 7.397C5.68514 7.5875 5.67514 7.688 5.67514 7.778C5.67514 7.818 5.67514 7.858 5.66514 7.898C5.65581 7.92995 5.64201 7.96042 5.62414 7.9885C5.57364 8.0985 5.51264 8.249 5.53264 8.4495C5.49264 8.4295 5.43114 8.3895 5.42114 8.3595C5.42114 8.3495 5.42114 8.3395 5.41114 8.3295C5.40114 8.2695 5.39064 8.229 5.43114 8.139C5.53264 7.8985 5.55314 7.838 5.56314 7.778C5.56314 7.768 5.56314 7.748 5.57314 7.738C5.59364 7.648 5.60414 7.558 5.61414 7.498C5.62414 7.3975 5.63414 7.337 5.67514 7.287C5.68514 7.267 5.72564 7.257 5.77664 7.257H5.84764ZM9.43264 4.211C9.90014 4.161 10.3061 4.111 10.7226 4.261C10.9156 4.331 11.3116 4.5415 11.4131 4.742C11.4841 4.882 11.6061 4.9925 11.8501 5.213C11.9516 5.313 12.0321 5.3715 12.0911 5.4175L12.1241 5.4435C12.2056 5.5135 12.2256 5.5235 12.2561 5.5735C12.3376 5.744 12.3071 5.9145 12.2661 6.145C12.2411 6.27 12.2156 6.34 12.1901 6.4115L12.1751 6.4555C12.1341 6.5455 12.0936 6.6555 12.0531 6.8565C12.0381 6.9165 12.0341 6.965 12.0286 7.0115L12.0226 7.0565C12.0126 7.1465 12.0026 7.1965 11.9716 7.307C11.9416 7.387 11.8906 7.5275 11.7786 7.678C11.6876 7.798 11.5251 8.0085 11.3216 8.0285H11.2506C10.6616 7.728 10.1536 7.5075 9.97064 7.4575C9.76814 7.3975 9.78814 6.9565 9.81864 6.5755C9.82864 6.4055 9.83864 6.2355 9.82864 6.095C9.79864 5.604 9.71714 5.0725 9.28064 4.802C9.02664 4.642 8.69164 4.602 8.36664 4.602C8.40664 4.582 8.44764 4.557 8.49164 4.5315L8.55914 4.4915C8.74214 4.3815 8.97564 4.2515 9.20914 4.2315C9.28307 4.21949 9.35776 4.21264 9.43264 4.211ZM8.55914 5.0625C8.18364 4.9525 7.87914 5.1725 7.81814 5.223C7.80606 5.23198 7.79591 5.24331 7.7883 5.25631C7.7807 5.26931 7.77579 5.28371 7.77388 5.29864C7.77197 5.31358 7.77308 5.32875 7.77717 5.34324C7.78125 5.35774 7.78821 5.37126 7.79764 5.383C7.83814 5.433 7.90914 5.443 7.96014 5.403C7.97014 5.403 8.02114 5.363 8.10214 5.323C8.15314 5.303 8.18364 5.353 8.15314 5.393C8.14314 5.413 8.12264 5.433 8.11264 5.453L8.10264 5.4635V5.4835L8.09264 5.5035C8.08214 5.5035 8.08214 5.5135 8.08214 5.5135C8.07214 5.5135 8.07214 5.5235 8.07214 5.5235C8.06214 5.5435 8.03114 5.5835 8.01114 5.6235C8.01114 5.6235 8.00114 5.6335 8.00114 5.6435C7.99064 5.6535 7.99064 5.6635 7.98064 5.6735L7.91714 5.7835C7.88564 5.838 7.85664 5.8885 7.83814 5.9245C7.74664 6.0945 7.73664 6.3755 7.78764 6.616C7.79764 6.656 7.75714 6.696 7.71664 6.676C7.67699 6.65699 7.6448 6.62533 7.62514 6.586V6.5365C7.62358 6.45234 7.6169 6.36835 7.60514 6.285V6.275C7.59503 6.21878 7.59503 6.16121 7.60514 6.105V6.095C7.64514 5.8845 7.65514 5.824 7.66564 5.804C7.69564 5.744 7.66564 5.684 7.61464 5.654C7.56414 5.624 7.49314 5.654 7.46264 5.704C7.45264 5.734 7.43214 5.774 7.38114 6.0545V6.0645C7.36114 6.1645 7.37114 6.235 7.38114 6.305V6.315C7.39614 6.415 7.40014 6.475 7.40114 6.515V6.5555C7.40114 6.5955 7.40114 6.6155 7.42164 6.6655C7.52364 6.8965 7.81814 6.9465 7.98064 6.9765C8.04164 6.9865 8.13264 7.0065 8.24464 7.0065C8.39664 7.0065 8.57964 6.9765 8.74214 6.8465C8.82364 6.7865 8.87414 6.696 8.96564 6.5355C9.11814 6.2755 9.19914 6.125 9.18914 5.9245C9.18914 5.664 9.05714 5.4735 9.01664 5.4135C8.96564 5.3435 8.82364 5.133 8.55914 5.0625ZM6.63964 4.9325C6.56864 4.9325 6.50764 4.9425 6.44664 4.9625C6.41664 4.9725 6.38614 4.9825 6.36564 4.9925L6.31464 5.0225C6.28464 5.0425 6.26414 5.0625 6.24364 5.0825C6.15214 5.1625 6.12164 5.273 6.08114 5.3935C6.04064 5.5135 5.98964 5.6735 5.85764 5.8945C5.83764 5.9245 5.82764 5.9545 5.80714 5.9845C5.70564 6.1545 5.64464 6.245 5.67514 6.3855C5.72564 6.5955 5.99014 6.6755 6.12164 6.6755H6.13164C6.31464 6.6755 6.37564 6.6555 6.63964 6.5955C6.91414 6.5255 6.98514 6.2755 7.01564 6.0845L7.02564 6.0045C7.08664 5.604 7.11714 5.4235 7.11714 5.333C7.08714 5.143 7.02564 5.073 6.98514 5.043C6.88457 4.9709 6.76338 4.93224 6.63964 4.9325ZM6.54864 5.1625C6.52723 5.21705 6.50338 5.2706 6.47714 5.323C6.41664 5.4635 6.35564 5.624 6.32514 5.684C6.27414 5.784 6.23364 5.844 6.19314 5.894C6.15214 5.954 6.12164 5.9945 6.10164 6.0645C6.06114 6.1745 6.05064 6.305 6.08164 6.4455C6.01014 6.4355 5.89864 6.3855 5.87814 6.3255C5.86814 6.2755 5.89814 6.2355 5.97964 6.095C5.99964 6.065 6.01014 6.035 6.03064 6.005C6.17264 5.764 6.23364 5.5835 6.27414 5.4535C6.32514 5.3135 6.34514 5.2535 6.41664 5.203C6.46714 5.193 6.50764 5.173 6.54864 5.163V5.1625ZM1.74664 7.9265C1.75164 7.703 1.76914 7.483 1.79814 7.2665L1.77464 7.4685L2.02414 7.072C2.06981 7.00539 2.09864 6.9287 2.10814 6.8485C2.1703 6.51448 2.2815 6.19149 2.43814 5.89L2.46464 5.838L2.49014 5.79L2.50314 5.767L2.52814 5.722L2.55414 5.678L2.58164 5.6325L2.61114 5.585L2.66114 5.506L2.74464 5.3795L2.77014 5.343L2.77414 5.3365L2.78064 5.3285L2.80864 5.247C2.84615 4.97835 2.90893 4.71385 2.99614 4.457L3.02264 4.381L3.03164 4.346V4.325C3.07664 4.266 3.12314 4.2085 3.17064 4.1515L3.13714 4.251C3.13566 4.25771 3.134 4.26438 3.13214 4.271L3.12614 4.287L3.11814 4.3005V4.3505L3.11714 4.361L3.10564 4.405C3.00564 4.68 2.93514 4.968 2.89264 5.266L2.86364 5.3515L2.86214 5.359C2.86105 5.3625 2.85954 5.36586 2.85764 5.369L2.85414 5.374V5.3805L2.84164 5.393L2.83664 5.3965L2.81664 5.4265L2.75364 5.5225L2.70114 5.604L2.65614 5.6755L2.64214 5.698L2.61614 5.742L2.59114 5.7855L2.56664 5.8305L2.54164 5.8775L2.51514 5.9285C2.36514 6.2205 2.25514 6.5285 2.19364 6.861C2.18242 6.95345 2.14896 7.0418 2.09614 7.1185L1.83114 7.541L1.75914 7.6515C1.74914 7.7925 1.74414 7.935 1.74414 8.078L1.74664 7.9265Z" fill="white"/>
</g>
<defs>
<clipPath id="clip0_7_8066">
<rect width="16" height="16" fill="white"/>
</clipPath>
</defs>
</svg>
