<svg width="16" height="16" viewBox="0 0 16 16" fill="none" xmlns="http://www.w3.org/2000/svg">
<g clip-path="url(#clip0_7_7808)">
<path d="M8 16C12.4183 16 16 12.4183 16 8C16 3.58172 12.4183 0 8 0C3.58172 0 0 3.58172 0 8C0 12.4183 3.58172 16 8 16Z" fill="#1F4C9F"/>
<path fill-rule="evenodd" clip-rule="evenodd" d="M3 9.625L8 3.25L13 9.625V11.75L8 5.375L3 11.75V9.625ZM8.25 10.25C7.91848 10.25 7.60054 10.1183 7.36612 9.88388C7.1317 9.64946 7 9.33152 7 9C7 8.66848 7.1317 8.35054 7.36612 8.11612C7.60054 7.8817 7.91848 7.75 8.25 7.75C8.58152 7.75 8.89946 7.8817 9.13388 8.11612C9.3683 8.35054 9.5 8.66848 9.5 9C9.5 9.33152 9.3683 9.64946 9.13388 9.88388C8.89946 10.1183 8.58152 10.25 8.25 10.25Z" fill="white"/>
</g>
<defs>
<clipPath id="clip0_7_7808">
<rect width="16" height="16" fill="white"/>
</clipPath>
</defs>
</svg>
