<svg width="16" height="16" viewBox="0 0 16 16" fill="none" xmlns="http://www.w3.org/2000/svg">
<g clip-path="url(#clip0_7_8081)">
<path d="M8 16C12.4183 16 16 12.4183 16 8C16 3.58172 12.4183 0 8 0C3.58172 0 0 3.58172 0 8C0 12.4183 3.58172 16 8 16Z" fill="#FD875E"/>
<path d="M6.83 8.693L8.023 5.137L9.238 8.693H6.83ZM11.886 10.9415L10.8995 8.287H11.4885C11.6001 8.28714 11.7072 8.24337 11.7867 8.16515C11.8662 8.08693 11.9118 7.98054 11.9135 7.869C11.9135 7.764 11.8705 7.6625 11.795 7.5885C11.7195 7.5145 11.616 7.472 11.5085 7.472H10.5885L10.441 7.059H11.4885C11.5976 7.05999 11.7029 7.0184 11.7819 6.94306C11.8608 6.86772 11.9073 6.76457 11.9115 6.6555C11.912 6.5445 11.8675 6.4385 11.7875 6.3605C11.7075 6.2825 11.5995 6.2385 11.4865 6.239H10.1265L9.39 4.255C9.27913 3.97035 9.09718 3.71885 8.8615 3.5245C8.62645 3.33588 8.33114 3.23857 8.03 3.2505C7.72794 3.24074 7.43211 3.33776 7.1945 3.5245C6.95888 3.71904 6.77651 3.97022 6.6645 4.2545L5.893 6.2565H4.541C4.4341 6.25556 4.33116 6.29693 4.25464 6.37158C4.17812 6.44623 4.13421 6.54811 4.1325 6.655C4.1325 6.884 4.322 7.0695 4.556 7.0695H5.5825L5.4245 7.4715H4.5045C4.45138 7.47091 4.39866 7.48078 4.34936 7.50056C4.30005 7.52034 4.25513 7.54964 4.21715 7.58679C4.17917 7.62393 4.14888 7.66819 4.12801 7.71704C4.10713 7.76589 4.09609 7.81838 4.0955 7.8715C4.0955 8.0985 4.2825 8.282 4.5135 8.283H5.104L4.101 10.941C4.0395 11.091 4.0055 11.25 4 11.4115C4.01 11.638 4.111 11.8515 4.28 12.0065C4.46706 12.1649 4.7049 12.2506 4.95 12.248C5.15475 12.2604 5.35758 12.2024 5.52489 12.0837C5.69221 11.9651 5.81396 11.7928 5.87 11.5955L6.258 10.461H9.83L10.2185 11.6225C10.2815 11.8131 10.4061 11.9775 10.5726 12.0897C10.7391 12.2019 10.9381 12.2556 11.1385 12.2425C11.2935 12.246 11.446 12.2075 11.5805 12.1325C11.697 12.0475 11.8005 11.9475 11.8875 11.8335C11.9634 11.706 12.0024 11.5599 12 11.4115C11.9756 11.254 11.9375 11.0989 11.886 10.948V10.9415Z" fill="#FEFEFE"/>
</g>
<defs>
<clipPath id="clip0_7_8081">
<rect width="16" height="16" fill="white"/>
</clipPath>
</defs>
</svg>
