<svg width="16" height="16" viewBox="0 0 16 16" fill="none" xmlns="http://www.w3.org/2000/svg">
<g clip-path="url(#clip0_7_8065)">
<path d="M8 16C12.4183 16 16 12.4183 16 8C16 3.58172 12.4183 0 8 0C3.58172 0 0 3.58172 0 8C0 12.4183 3.58172 16 8 16Z" fill="#A71435"/>
<path d="M5.37711 2.623C6.6129 2.01007 8.02287 1.84416 9.36719 2.1535C10.7115 2.46284 11.9072 3.22832 12.7508 4.31974C13.5944 5.41116 14.0338 6.76112 13.9944 8.14C13.955 9.51889 13.4392 10.8415 12.5346 11.883C12.2371 11.235 12.0091 10.5555 11.7541 9.8865L10.2141 5.8515C10.0656 5.4425 9.81611 5.0495 9.42861 4.837C8.88603 4.57542 8.27793 4.48109 7.68161 4.566C7.20361 4.6195 6.70461 4.784 6.38061 5.161C6.07261 5.5165 5.93461 5.9735 5.75961 6.4035L4.64961 9.2175C4.27811 10.1095 3.96461 11.0335 3.56111 11.92C2.9799 11.2923 2.55279 10.5379 2.31361 9.7165C1.90028 8.36147 1.982 6.90364 2.54416 5.60329C3.10632 4.30293 4.11234 3.24469 5.38261 2.6175L5.37711 2.623Z" fill="white"/>
<path d="M7.59622 6.69C7.70222 6.3715 8.12722 6.265 8.40322 6.446C8.55172 6.5575 8.60522 6.7485 8.67422 6.9185C9.36422 8.7235 10.0442 10.5395 10.7292 12.3505C10.8192 12.6105 10.9517 12.86 11.0052 13.1305C10.9618 13.1768 10.9115 13.2163 10.8562 13.2475C10.1071 13.6483 9.28118 13.885 8.43346 13.9418C7.58574 13.9986 6.73564 13.8743 5.93972 13.577C5.64222 13.4545 5.33472 13.3485 5.07422 13.1625C5.10072 12.9185 5.22272 12.7005 5.31322 12.4775C6.07772 10.5505 6.82622 8.6175 7.59622 6.69Z" fill="white"/>
</g>
<defs>
<clipPath id="clip0_7_8065">
<rect width="16" height="16" fill="white"/>
</clipPath>
</defs>
</svg>
