<svg width="16" height="16" viewBox="0 0 16 16" fill="none" xmlns="http://www.w3.org/2000/svg">
<g clip-path="url(#clip0_7_8082)">
<path d="M8 16C12.4183 16 16 12.4183 16 8C16 3.58172 12.4183 0 8 0C3.58172 0 0 3.58172 0 8C0 12.4183 3.58172 16 8 16Z" fill="#0092B5"/>
<path d="M5.87982 7.051L8.02082 3.282C8.02482 3.275 8.03282 3.2705 8.06082 3.282L10.0978 6.9825C10.0407 7.02912 9.99489 7.08807 9.96382 7.15493C9.93275 7.22179 9.91724 7.29481 9.91844 7.36853C9.91964 7.44224 9.93753 7.51473 9.97077 7.58054C10.004 7.64635 10.0517 7.70377 10.1103 7.7485L8.22882 11.1425C8.1618 11.1103 8.08849 11.0934 8.01415 11.0928C7.93981 11.0923 7.86627 11.1083 7.79882 11.1395L5.86232 7.69C5.94203 7.6036 5.98769 7.49121 5.99082 7.37369C5.99394 7.25618 5.95432 7.14152 5.87932 7.051H5.87982ZM5.67482 7.818L7.61882 11.2805C7.57686 11.333 7.54621 11.3936 7.52882 11.4585C5.95932 11.0825 4.98432 10.85 4.60282 10.7605C4.44147 10.5336 4.30026 10.293 4.18082 10.0415L5.42682 7.8485C5.51069 7.85913 5.59589 7.84882 5.67482 7.8185V7.818ZM5.40532 6.8765L3.86182 4.1265C4.91382 3.568 6.21932 3.275 7.77932 3.25L5.69832 6.913C5.60648 6.87186 5.50444 6.85914 5.40532 6.8765ZM5.19532 6.9645C5.13117 7.01079 5.07922 7.07196 5.04394 7.14276C5.00866 7.21357 4.9911 7.29187 4.99277 7.37096C4.99444 7.45005 5.0153 7.52755 5.05354 7.59679C5.09178 7.66604 5.14627 7.72496 5.21232 7.7685L4.06732 9.7835C3.87707 9.31235 3.76396 8.81363 3.73232 8.3065L3.50082 4.6155C3.4965 4.54442 3.50933 4.47335 3.53822 4.40826C3.56711 4.34318 3.61121 4.28598 3.66682 4.2415L5.19532 6.9645ZM8.49532 11.4635C8.4786 11.399 8.44882 11.3386 8.40782 11.286L10.3168 7.8425C10.3992 7.85903 10.4844 7.85491 10.5648 7.8305L11.8018 10.0775C11.6968 10.2935 11.5758 10.5015 11.4398 10.7L8.49532 11.4635ZM8.12482 12.0635C8.2154 12.043 8.29842 11.9975 8.36444 11.9322C8.43047 11.8669 8.47685 11.7844 8.49832 11.694L11.2263 10.9865C10.8965 11.3964 10.502 11.7498 10.0583 12.0325L8.24682 13.1895C8.20907 13.2137 8.16796 13.2323 8.12482 13.2445V12.0635ZM7.89782 12.0635V13.25C7.84635 13.2383 7.7973 13.2179 7.75282 13.1895L5.94132 12.0325C5.51775 11.7625 5.13887 11.4282 4.81832 11.0415C5.31332 11.159 6.21482 11.374 7.52282 11.687C7.56282 11.8735 7.70982 12.0205 7.89782 12.0635ZM10.5828 6.8965C10.4921 6.86514 10.3942 6.86029 10.3008 6.8825L8.30232 3.2515C9.81832 3.285 11.0923 3.5745 12.1228 4.119L10.5828 6.8965ZM10.7743 7.017L12.3193 4.231C12.379 4.27502 12.4267 4.33325 12.4581 4.4004C12.4896 4.46755 12.5037 4.54149 12.4993 4.6155L12.2678 8.307C12.2352 8.827 12.1169 9.33804 11.9178 9.8195L10.7608 7.718C10.8088 7.67349 10.8473 7.61976 10.8741 7.56004C10.9008 7.50031 10.9152 7.4358 10.9165 7.37037C10.9178 7.30494 10.9058 7.23992 10.8814 7.17921C10.857 7.11849 10.8205 7.06333 10.7743 7.017ZM7.99982 5.617C7.92903 5.61813 7.8614 5.64651 7.81102 5.69625C7.76063 5.74598 7.73137 5.81323 7.72932 5.884V6.861L6.28632 7.75L6.44082 8.0835L7.72932 7.6615V8.6385L7.36832 8.905V9.1715L7.99982 8.9935L8.63132 9.171V8.9045L8.27032 8.638V7.661L9.53682 8.106L9.71332 7.75L8.27032 6.861V5.884C8.26814 5.81341 8.23889 5.74635 8.18863 5.69674C8.13836 5.64712 8.07093 5.61875 8.00032 5.6175L7.99982 5.617Z" fill="white"/>
</g>
<defs>
<clipPath id="clip0_7_8082">
<rect width="16" height="16" fill="white"/>
</clipPath>
</defs>
</svg>
