<svg width="16" height="16" viewBox="0 0 16 16" fill="none" xmlns="http://www.w3.org/2000/svg">
<g clip-path="url(#clip0_7_7904)">
<path d="M8 16C12.4183 16 16 12.4183 16 8C16 3.58172 12.4183 0 8 0C3.58172 0 0 3.58172 0 8C0 12.4183 3.58172 16 8 16Z" fill="#436697"/>
<path d="M9.53757 10.358C9.51319 10.3569 9.48962 10.3489 9.46957 10.335C9.45134 10.3236 9.43596 10.3082 9.42457 10.29H9.42007L8.31107 12.2375C9.43807 11.99 10.5611 11.7375 11.6876 11.4895C11.6618 11.4576 11.6378 11.4244 11.6156 11.39C11.5841 11.345 11.5571 11.291 11.5256 11.2325C11.4968 11.1793 11.4697 11.1251 11.4446 11.07V11.0655C11.4446 11.061 11.4396 11.0565 11.4396 11.0565C11.386 10.9426 11.3365 10.8269 11.2911 10.7095C11.2776 10.678 11.2686 10.651 11.2551 10.624C11.1864 10.4542 11.1218 10.2828 11.0611 10.11C10.8716 10.146 10.7141 10.1775 10.6061 10.2C10.6011 10.2 10.5966 10.2 10.5921 10.2045C10.4256 10.2405 10.2676 10.272 10.1146 10.2995C10.0286 10.317 9.94757 10.326 9.87107 10.3395C9.85307 10.3445 9.83057 10.3445 9.80357 10.349C9.80357 10.349 9.74907 10.358 9.67707 10.3625C9.63036 10.366 9.5834 10.3644 9.53707 10.3575L9.53757 10.358ZM10.5741 8.6355C10.5501 8.54941 10.5305 8.46212 10.5156 8.374L9.66807 9.862L9.67307 9.857C9.70857 9.844 9.74907 9.8305 9.79907 9.817C9.91607 9.7805 10.0601 9.7445 10.2361 9.6995C10.4121 9.6545 10.6196 9.6045 10.8626 9.542C10.8131 9.393 10.7591 9.24 10.7096 9.082C10.6588 8.93497 10.6133 8.78602 10.5741 8.6355ZM11.8816 5.9985H11.8636L10.7686 7.9235C10.7726 7.9235 10.7816 7.928 10.7951 7.928C10.8001 7.928 10.8001 7.928 10.8041 7.9325C10.8091 7.9325 10.8091 7.9325 10.8131 7.937C10.8181 7.937 10.8181 7.9415 10.8221 7.9415C10.8271 7.9415 10.8271 7.9415 10.8311 7.946C10.8444 7.95311 10.8565 7.96222 10.8671 7.973C10.8851 7.991 10.8991 8.009 10.9036 8.0135C10.9081 8.0185 10.9081 8.0225 10.9126 8.027C10.9226 8.04139 10.9316 8.05642 10.9396 8.072C10.9621 8.1125 10.9756 8.135 10.9756 8.135C11.0296 8.239 11.0836 8.3605 11.1376 8.505C11.1921 8.649 11.2506 8.8025 11.3046 8.965C11.3181 9.001 11.3271 9.0325 11.3406 9.0685C11.3721 9.1635 11.4126 9.2805 11.4581 9.4155C11.6471 9.3795 11.8276 9.3435 12.0031 9.312C12.1791 9.2805 12.3371 9.258 12.4811 9.2445C12.6256 9.2305 12.7471 9.2215 12.8511 9.226C12.9096 9.226 12.9546 9.231 12.9951 9.24C13.0041 9.24 13.0176 9.2445 13.0266 9.2445C12.9411 9.0055 12.8511 8.7395 12.7471 8.4555L11.8816 5.9985ZM12.9141 9.6455C12.7895 9.69127 12.663 9.7318 12.5351 9.767C12.5081 9.776 12.4811 9.7805 12.4586 9.79C12.4361 9.7945 12.4136 9.8035 12.3911 9.808C12.3284 9.82518 12.2652 9.84019 12.2016 9.853C12.1658 9.86306 12.1298 9.87206 12.0936 9.88H12.0886C11.9806 9.907 11.8366 9.9385 11.6696 9.975C11.7056 10.101 11.7511 10.2405 11.8046 10.3985C11.8546 10.556 11.9046 10.7095 11.9446 10.8535C11.9581 10.8985 11.9671 10.9395 11.9806 10.9845C12.0036 11.052 12.0216 11.1195 12.0351 11.201C12.0396 11.2145 12.0396 11.228 12.0441 11.241C12.0621 11.3135 12.0666 11.3675 12.0621 11.408C12.0621 11.408 12.2511 11.372 12.3461 11.3495C12.72 10.8677 13.011 10.327 13.2071 9.7495C13.1801 9.668 13.1531 9.5915 13.1261 9.51C13.0851 9.5645 13.0176 9.605 12.9141 9.6455ZM6.98557 2.658H7.00357C7.02157 2.658 7.04457 2.667 7.07157 2.685C7.08507 2.694 7.10307 2.703 7.11657 2.7165C7.13565 2.73015 7.1537 2.74519 7.17057 2.7615C7.25157 2.8335 7.34207 2.9195 7.44557 3.023C7.54457 3.122 7.64857 3.2305 7.75657 3.348C7.86007 3.46 7.95507 3.564 8.04057 3.6495C8.08107 3.609 8.12157 3.564 8.16257 3.5145C8.21207 3.46 8.26157 3.406 8.31107 3.3475C8.36107 3.2935 8.41007 3.235 8.46457 3.185C8.51407 3.131 8.56357 3.0815 8.61307 3.032L8.68507 2.96C8.71257 2.933 8.73957 2.91 8.76207 2.8875C8.80707 2.8475 8.84757 2.811 8.88807 2.7795C8.97407 2.7075 9.03707 2.676 9.08657 2.676C9.10457 2.676 9.12257 2.6805 9.14057 2.685L9.09107 2.626L8.96007 2.599C8.95557 2.599 8.95107 2.599 8.94657 2.5945C8.90657 2.5855 8.86557 2.581 8.82507 2.5765H8.81607C8.77557 2.572 8.73057 2.563 8.69007 2.5585H8.68507C8.46007 2.5315 8.23007 2.5135 7.99557 2.5135H7.86907C7.82907 2.5135 7.79257 2.5185 7.75657 2.5185H7.74307C7.70257 2.5185 7.66657 2.5225 7.62607 2.527H7.62107C7.41407 2.5405 7.21107 2.5675 7.01257 2.6035C6.99457 2.6215 6.98107 2.64 6.96307 2.6625C6.97207 2.6625 6.97657 2.658 6.98557 2.658ZM3.89307 5.223C3.91557 5.205 3.94307 5.178 3.98807 5.16C4.04045 5.13594 4.09698 5.12219 4.15457 5.1195C4.23107 5.1145 4.28957 5.1375 4.32157 5.1465C5.03807 4.3395 5.75507 3.5365 6.47157 2.73L6.29607 2.784C5.89457 2.919 5.36257 3.1445 4.80807 3.5415C4.32372 3.89326 3.89783 4.31915 3.54607 4.8035C3.51007 4.858 3.46957 4.9075 3.43307 4.9615C3.58657 5.047 3.74007 5.1375 3.89307 5.223ZM3.77607 5.7595C3.74319 5.69851 3.726 5.63029 3.72607 5.561V5.5295C3.72607 5.5295 3.73107 5.507 3.73107 5.498L3.26607 5.2365C2.80999 6.01224 2.55301 6.8888 2.51807 7.788V8.167C2.53157 8.5905 2.59007 9.001 2.69407 9.393C3.09507 8.23 3.50107 7.0715 3.90207 5.908C3.8498 5.86822 3.8068 5.81755 3.77607 5.7595ZM9.24907 2.942C9.23867 2.97409 9.2235 3.00443 9.20407 3.032C9.17365 3.08781 9.14044 3.14204 9.10457 3.1945C9.08207 3.226 9.05957 3.262 9.03707 3.298C8.97819 3.38418 8.91649 3.46839 8.85207 3.5505C8.82057 3.5865 8.79357 3.627 8.76207 3.6675C8.75707 3.6725 8.75307 3.681 8.74857 3.6855C8.69007 3.758 8.62657 3.8345 8.55907 3.911C8.50907 3.9695 8.46407 4.024 8.41007 4.0825C8.47807 4.159 8.55457 4.24 8.63107 4.3305C8.65807 4.3575 8.68507 4.389 8.70807 4.4205C8.76207 4.479 8.81157 4.5375 8.86107 4.5965L9.00557 4.7675C9.09557 4.8805 9.17207 4.9795 9.23557 5.0695C9.28957 5.151 9.31657 5.2095 9.32557 5.2545V5.2725C9.32557 5.3175 9.30307 5.3625 9.26257 5.4035H11.4176C11.431 5.36807 11.4492 5.3346 11.4716 5.304L9.26657 2.829V2.838C9.2679 2.8735 9.26194 2.90889 9.24907 2.942ZM10.5426 3.14C10.5336 3.1355 10.5291 3.131 10.5201 3.131C10.4597 3.0983 10.398 3.06827 10.3351 3.041C10.3232 3.03777 10.3124 3.03157 10.3036 3.023C10.2439 2.99516 10.1839 2.96816 10.1236 2.942C10.1101 2.937 10.1011 2.933 10.0876 2.9285C10.0225 2.90012 9.95626 2.87443 9.88907 2.8515C9.88007 2.847 9.87107 2.847 9.86207 2.8425C9.79457 2.8155 9.72207 2.793 9.65007 2.7705C10.3491 3.555 11.0476 4.344 11.7511 5.1285C11.7601 5.1285 11.7736 5.1235 11.7826 5.1235H11.8771C11.8996 5.1285 11.9401 5.133 11.9901 5.151C11.9946 5.151 11.9991 5.1555 12.0036 5.16C12.0081 5.1645 12.0171 5.1645 12.0216 5.169C12.0554 5.1863 12.0871 5.20744 12.1161 5.232C12.1206 5.232 12.1206 5.2365 12.1251 5.2365C12.1386 5.2455 12.1476 5.259 12.1566 5.268C12.3056 5.1825 12.4541 5.101 12.5986 5.0155C12.125 4.29145 11.489 3.68794 10.7411 3.253H10.7366C10.6736 3.2125 10.6056 3.176 10.5426 3.14ZM8.85207 5.34C8.82957 5.322 8.81157 5.304 8.78907 5.286L8.64907 5.16L8.57707 5.0875C8.49706 5.00972 8.42033 4.92865 8.34707 4.8445C8.29307 4.7855 8.24357 4.727 8.19407 4.673C8.14407 4.6145 8.09007 4.56 8.04057 4.506C7.87407 4.6775 7.73407 4.826 7.61707 4.9525C7.59007 4.9795 7.56257 5.011 7.53557 5.038L7.52657 5.047C7.47257 5.101 7.42757 5.151 7.38257 5.196L7.31957 5.259C7.26531 5.31191 7.20804 5.36166 7.14807 5.408H8.92857C8.92407 5.403 8.91507 5.399 8.91057 5.3945C8.89257 5.3715 8.87057 5.358 8.85207 5.34ZM4.57857 5.4035H6.80557C6.79657 5.3945 6.78757 5.3805 6.77857 5.3715C6.76957 5.3625 6.76507 5.349 6.76007 5.34C6.75107 5.3175 6.74207 5.295 6.74207 5.2725C6.74207 5.259 6.74707 5.241 6.75107 5.2185C6.75107 5.2135 6.75607 5.2095 6.75607 5.205C6.76007 5.196 6.76507 5.1825 6.77407 5.169C6.78757 5.142 6.80557 5.11 6.82807 5.079C6.83257 5.074 6.83257 5.0695 6.83707 5.0695C6.97216 4.8796 7.11807 4.69764 7.27407 4.5245C7.30282 4.49022 7.33284 4.45703 7.36407 4.425C7.39607 4.3935 7.42307 4.3575 7.45457 4.326C7.52207 4.249 7.58957 4.1725 7.64857 4.1005C7.65307 4.0955 7.65757 4.0915 7.65757 4.087C7.49303 3.89627 7.33216 3.7024 7.17507 3.5055C7.13007 3.4465 7.08957 3.388 7.04907 3.334C6.98222 3.2397 6.92046 3.1419 6.86407 3.041L6.83707 2.987C6.82807 2.969 6.82357 2.951 6.81457 2.937C6.80557 2.9055 6.79657 2.8785 6.79657 2.856L4.56007 5.3625C4.56507 5.376 4.57407 5.39 4.57857 5.4035ZM8.20307 13.4775C9.64305 13.4252 11.0041 12.8063 11.9901 11.7555C10.7276 12.035 9.46507 12.3145 8.20307 12.5895V13.4775ZM13.4236 8.807C13.4281 8.789 13.4281 8.7755 13.4326 8.757C13.4371 8.712 13.4461 8.672 13.4506 8.627V8.622L13.4641 8.482C13.4641 8.469 13.4686 8.4555 13.4686 8.442C13.4686 8.415 13.4731 8.392 13.4731 8.365C13.4821 8.225 13.4866 8.095 13.4866 7.973C13.4825 7.1528 13.2946 6.34394 12.9366 5.606L12.9231 5.579C12.9051 5.5385 12.8826 5.5025 12.8646 5.462L12.8376 5.408C12.8151 5.367 12.7926 5.322 12.7696 5.2815C12.6031 5.3765 12.4406 5.4665 12.2741 5.5615C12.2741 5.5745 12.2741 5.588 12.2691 5.6015C12.2651 5.6285 12.2601 5.6515 12.2556 5.674C12.2511 5.6875 12.2466 5.6965 12.2421 5.71C12.2292 5.74329 12.2126 5.775 12.1926 5.8045C12.1836 5.8135 12.1791 5.8225 12.1701 5.8315C12.5626 6.963 12.9546 8.09 13.3466 9.2215C13.3696 9.127 13.3876 9.028 13.4056 8.933C13.4056 8.924 13.4101 8.915 13.4101 8.9015C13.4156 8.86998 13.4201 8.8388 13.4236 8.807Z" fill="white"/>
<path d="M11.4215 5.719C11.4487 5.78938 11.4939 5.85143 11.5525 5.899L8.02246 12.107L4.47896 5.872C4.52126 5.82756 4.55499 5.77569 4.57846 5.719H11.4215ZM7.85546 9.79C7.79346 9.79 7.74296 9.84 7.74296 9.9025V9.9045C7.74296 9.9595 7.77746 10.003 7.82546 10.0155L7.85546 10.0195C7.87052 10.0197 7.88548 10.0169 7.89941 10.0111C7.91335 10.0054 7.92598 9.99691 7.93654 9.98616C7.9471 9.97541 7.95538 9.96264 7.96086 9.9486C7.96635 9.93456 7.96893 9.91956 7.96846 9.9045V9.9025C7.96846 9.88769 7.96553 9.87302 7.95985 9.85933C7.95416 9.84565 7.94583 9.83323 7.93533 9.82277C7.92483 9.81232 7.91237 9.80405 7.89866 9.79842C7.88496 9.7928 7.87027 9.78994 7.85546 9.79ZM6.90496 8.68C6.88249 8.67998 6.86053 8.68668 6.84191 8.69924C6.82328 8.71181 6.80884 8.72966 6.80046 8.7505L6.79646 8.7625L6.79246 8.7925C6.79246 8.856 6.84196 8.9055 6.90496 8.9055C6.96796 8.9055 7.01746 8.856 7.01746 8.793C7.01746 8.73 6.96796 8.68 6.90496 8.68ZM8.71296 6.462C8.48746 6.3785 8.35396 6.4695 8.29596 6.53L8.29146 6.535C8.27803 6.54811 8.26657 6.5631 8.25746 6.5795C8.25746 6.584 8.25246 6.5885 8.25746 6.5885C8.25746 6.593 8.26196 6.593 8.26646 6.5975C8.66746 6.796 8.96996 6.949 9.10046 7.0165L9.11396 7.0255C9.12746 7.0345 9.16796 7.053 9.17246 7.0845C9.17796 7.111 9.16096 7.138 9.13846 7.162L9.11896 7.181L9.09596 7.2015L9.07596 7.2185C9.02446 7.2615 8.95546 7.3175 8.57746 7.612C8.56207 7.62752 8.5437 7.63977 8.52346 7.648C8.50409 7.65868 8.48255 7.66483 8.46046 7.666H8.44696C8.42446 7.666 8.40596 7.666 8.32946 7.6345C8.29653 7.62182 8.26104 7.61719 8.22596 7.621L8.18096 7.6345C8.17196 7.639 8.16746 7.6435 8.15846 7.648C8.15432 7.6519 8.14998 7.65557 8.14546 7.659L8.15396 7.6525C8.14238 7.66036 8.13165 7.66941 8.12196 7.6795C8.11746 7.684 8.11746 7.6885 8.11746 7.693C8.12446 7.693 8.12896 7.693 8.13246 7.695L8.13396 7.699L8.14046 7.702C8.14946 7.702 8.15396 7.702 8.16296 7.7065C8.17405 7.70676 8.1849 7.70986 8.19446 7.7155C8.2316 7.73067 8.26684 7.75014 8.29946 7.7735L8.27546 7.756C8.29454 7.76965 8.31259 7.7847 8.32946 7.801C8.34576 7.81787 8.3608 7.83592 8.37446 7.855L8.41546 7.914L8.45146 7.9635C8.46163 7.98345 8.4692 8.00462 8.47396 8.0265C8.48289 8.05738 8.48743 8.08936 8.48746 8.1215V8.1755C8.48746 8.18 8.48746 8.1845 8.49196 8.189L8.49396 8.19L8.49646 8.1935H8.50996C8.52346 8.1845 8.53696 8.18 8.54596 8.171C8.55046 8.162 8.55946 8.1575 8.56396 8.153C8.57676 8.14417 8.58626 8.13133 8.59096 8.1165C8.60896 8.0765 8.60896 8.0355 8.60896 8.013C8.59996 7.9275 8.60896 7.9095 8.61796 7.8915C8.61796 7.8865 8.62296 7.8825 8.62296 7.878C8.63098 7.85762 8.64306 7.83908 8.65846 7.8235C8.67549 7.80718 8.6937 7.79214 8.71296 7.7785C8.88127 7.65721 9.05283 7.5405 9.22746 7.4285L9.25846 7.4085C9.29846 7.3865 9.35746 7.346 9.39846 7.3685C9.40389 7.37172 9.40878 7.37577 9.41296 7.3805C9.42496 7.4 9.43096 7.4275 9.43396 7.4405L9.43896 7.463C9.46546 7.621 9.51996 7.9455 9.58746 8.378C9.58746 8.383 9.59196 8.387 9.59196 8.387C9.59246 8.39 9.59346 8.392 9.59646 8.392C9.60096 8.396 9.60096 8.396 9.60546 8.396C9.60996 8.396 9.86696 8.3375 9.84896 7.9995L9.81296 7.1925V7.1725C9.81383 7.13048 9.82444 7.08923 9.84396 7.05201C9.86348 7.01479 9.89138 6.98261 9.92546 6.958L10.169 6.7645C10.169 6.7645 10.3175 6.6605 10.2905 6.4985C10.286 6.4935 10.286 6.4895 10.2815 6.4895L10.285 6.4915C10.2815 6.486 10.2795 6.4845 10.277 6.4845C10.1285 6.408 9.98846 6.521 9.98846 6.521L9.72696 6.6965C9.69121 6.72486 9.64854 6.74315 9.60336 6.74948C9.55817 6.75581 9.51212 6.74995 9.46996 6.7325L9.22646 6.6475L8.71296 6.462ZM6.68396 6.7325C6.65407 6.73263 6.62546 6.7446 6.60438 6.76578C6.58329 6.78695 6.57146 6.81562 6.57146 6.8455V6.8475C6.57146 6.9025 6.60596 6.9455 6.65396 6.9585L6.68396 6.9625C6.69902 6.96271 6.71398 6.95987 6.72791 6.95414C6.74185 6.9484 6.75448 6.93991 6.76504 6.92916C6.7756 6.91841 6.78388 6.90563 6.78936 6.8916C6.79485 6.87756 6.79743 6.86256 6.79696 6.8475V6.8455C6.79696 6.81553 6.78505 6.78679 6.76386 6.7656C6.74267 6.74441 6.71393 6.7325 6.68396 6.7325ZM7.53596 6.169C7.50607 6.16913 7.47746 6.1811 7.45638 6.20228C7.43529 6.22345 7.42346 6.25212 7.42346 6.282V6.284C7.42346 6.339 7.45796 6.382 7.50596 6.395L7.53596 6.399C7.55102 6.39921 7.56598 6.39637 7.57991 6.39064C7.59385 6.3849 7.60648 6.37641 7.61704 6.36566C7.6276 6.35491 7.63588 6.34213 7.64136 6.3281C7.64685 6.31406 7.64943 6.29906 7.64896 6.284V6.282C7.64896 6.25203 7.63705 6.22329 7.61586 6.2021C7.59467 6.18091 7.56593 6.169 7.53596 6.169ZM5.47596 6.169C5.46112 6.169 5.44642 6.17192 5.43271 6.1776C5.419 6.18328 5.40655 6.19161 5.39605 6.2021C5.38556 6.21259 5.37724 6.22505 5.37156 6.23876C5.36588 6.25247 5.36296 6.26716 5.36296 6.282L5.36346 6.284C5.36346 6.339 5.39746 6.382 5.44546 6.395L5.47546 6.399C5.49052 6.39921 5.50548 6.39637 5.51941 6.39064C5.53335 6.3849 5.54598 6.37641 5.55654 6.36566C5.5671 6.35491 5.57538 6.34213 5.58086 6.3281C5.58635 6.31406 5.58893 6.29906 5.58846 6.284V6.282C5.58846 6.2195 5.53846 6.169 5.47596 6.169ZM4.01496 11.246C4.03296 11.16 4.05496 11.07 4.08246 10.966L4.10946 10.858C4.14996 10.714 4.19496 10.5605 4.24946 10.403C4.26246 10.3625 4.27596 10.326 4.28496 10.29C4.30796 10.218 4.32996 10.146 4.35296 10.0785C4.36134 10.0462 4.37187 10.0144 4.38446 9.9835C4.26246 9.9565 4.11846 9.9205 3.96496 9.8885C3.81389 9.85472 3.66367 9.8172 3.51446 9.776C3.40596 9.7445 3.30696 9.7175 3.22146 9.686C3.18996 9.677 3.16246 9.6635 3.13546 9.6545C3.10328 9.64264 3.07174 9.62913 3.04096 9.614C3.0173 9.60252 2.99472 9.58897 2.97346 9.5735C2.93296 9.686 2.89646 9.7985 2.85596 9.9115C3.04996 10.43 3.31596 10.908 3.64946 11.3405C3.76696 11.3675 3.87946 11.3905 3.99646 11.417C3.99502 11.3594 4.00124 11.3019 4.01496 11.246ZM3.08596 9.24C3.12196 9.235 3.15796 9.2305 3.20346 9.2305C3.30696 9.2305 3.42846 9.2355 3.56846 9.249C3.71246 9.2625 3.87046 9.285 4.04196 9.3165C4.21746 9.348 4.39796 9.3795 4.58296 9.42C4.63246 9.28 4.68196 9.1315 4.73596 8.9695C4.81105 8.7487 4.89376 8.53057 4.98396 8.3155C5.00921 8.25769 5.03622 8.20066 5.06496 8.1445C5.08296 8.1035 5.10096 8.072 5.11946 8.045C5.13401 8.02254 5.15058 8.00145 5.16896 7.982C5.17834 7.97305 5.18895 7.96547 5.20046 7.9595C5.22083 7.94731 5.24422 7.94107 5.26796 7.9415L4.19996 6.0345L3.08646 9.2395L3.08596 9.24ZM5.92146 10.3035C5.88546 10.2945 5.84496 10.29 5.80896 10.281C5.72895 10.2662 5.64926 10.2497 5.56996 10.2315L5.44846 10.2045C5.28146 10.1685 5.12846 10.137 4.98396 10.1095C4.95246 10.2 4.92096 10.2855 4.88496 10.376C4.85452 10.4612 4.82134 10.5454 4.78546 10.6285C4.75396 10.7095 4.72246 10.786 4.69096 10.8625C4.661 10.9324 4.62933 11.0016 4.59596 11.07C4.54352 11.1815 4.48492 11.29 4.42046 11.395C4.40235 11.4294 4.37964 11.4612 4.35296 11.4895L7.72496 12.233L6.60246 10.308L6.58446 10.326C6.5766 10.3337 6.56746 10.34 6.55746 10.3445C6.51696 10.367 6.43996 10.3715 6.32246 10.3625C6.22603 10.352 6.12998 10.3383 6.03446 10.3215C5.99396 10.317 5.95796 10.308 5.92146 10.3035ZM5.49796 8.496C5.48896 8.541 5.47546 8.591 5.46196 8.6445L5.43496 8.753C5.40346 8.861 5.37146 8.974 5.33096 9.091C5.30342 9.16849 5.27792 9.24668 5.25446 9.3255C5.22746 9.402 5.20446 9.4785 5.17796 9.5505C5.29946 9.5825 5.41696 9.6095 5.52046 9.6365C5.57446 9.65 5.62396 9.6635 5.67396 9.6725C5.72346 9.686 5.76846 9.695 5.81346 9.7085C5.83596 9.7135 5.85846 9.7175 5.87646 9.7265L5.93996 9.74C5.97996 9.749 6.01646 9.758 6.05246 9.7715C6.12446 9.79 6.19246 9.808 6.24646 9.826C6.30046 9.8395 6.34546 9.8575 6.38646 9.871L5.52946 8.365C5.5158 8.40785 5.50527 8.45163 5.49796 8.496ZM4.95246 12.558C5.04246 12.6165 5.13746 12.675 5.24096 12.7335C5.52046 12.896 5.78646 13.0175 6.02546 13.1125C6.09296 13.1395 6.16046 13.1665 6.23746 13.1935C6.76663 13.3724 7.31998 13.4697 7.87846 13.482V12.594C6.57996 12.31 5.28596 12.0215 3.98746 11.7375C4.27926 12.0442 4.60273 12.3195 4.95246 12.558Z" fill="white"/>
</g>
<defs>
<clipPath id="clip0_7_7904">
<rect width="16" height="16" fill="white"/>
</clipPath>
</defs>
</svg>
