<svg width="16" height="16" viewBox="0 0 16 16" fill="none" xmlns="http://www.w3.org/2000/svg">
<g clip-path="url(#clip0_7_8114)">
<path d="M8 16C12.4183 16 16 12.4183 16 8C16 3.58172 12.4183 0 8 0C3.58172 0 0 3.58172 0 8C0 12.4183 3.58172 16 8 16Z" fill="#343434"/>
<path d="M11.9585 10.555C12.0467 10.5246 12.1224 10.4661 12.174 10.3883C12.2255 10.3106 12.2499 10.218 12.2435 10.125V10.675C12.2442 10.7686 12.216 10.8601 12.1627 10.937C12.1095 11.0139 12.0338 11.0726 11.946 11.105L8.15205 12.4715C8.05636 12.5096 7.94973 12.5096 7.85405 12.4715L4.06005 11.1055C3.97185 11.0737 3.89577 11.0152 3.84244 10.9381C3.7891 10.8611 3.76117 10.7692 3.76255 10.6755V10.1255C3.76255 10.315 3.88005 10.492 4.06005 10.5555L7.86655 11.9215C7.96209 11.9594 8.06851 11.9594 8.16405 11.9215L11.9585 10.555ZM11.9585 9.581C12.0458 9.54931 12.1207 9.49042 12.172 9.41301C12.2233 9.33559 12.2484 9.24375 12.2435 9.151V9.701C12.2442 9.79457 12.216 9.88605 12.1627 9.963C12.1095 10.0399 12.0338 10.0986 11.946 10.131L8.15205 11.4975C8.05636 11.5356 7.94973 11.5356 7.85405 11.4975L4.06005 10.1315C3.97185 10.0997 3.89577 10.0412 3.84244 9.96414C3.7891 9.88705 3.76117 9.79523 3.76255 9.7015V9.145C3.76255 9.341 3.88005 9.5115 4.06005 9.581L7.86655 10.9475C7.96209 10.9854 8.06851 10.9854 8.16405 10.9475L11.9585 9.581ZM11.9585 8.601C12.0455 8.56985 12.1204 8.51215 12.1727 8.43605C12.2251 8.35995 12.2521 8.26932 12.25 8.177V8.727C12.2507 8.82062 12.2224 8.91216 12.169 8.98911C12.1157 9.06607 12.0399 9.12469 11.952 9.157L8.15805 10.5235C8.06251 10.5614 7.95609 10.5614 7.86055 10.5235L4.06005 9.151C3.97185 9.11924 3.89577 9.06073 3.84244 8.98364C3.7891 8.90655 3.76117 8.81473 3.76255 8.721V8.171C3.76255 8.3605 3.88005 8.5375 4.06005 8.601L7.86655 9.967C7.96209 10.0049 8.06851 10.0049 8.16405 9.967L11.9585 8.601ZM3.75005 5.331C3.74867 5.23727 3.7766 5.14545 3.82994 5.06836C3.88327 4.99127 3.95935 4.93276 4.04755 4.901L7.84805 3.5285C7.94359 3.49056 8.05001 3.49056 8.14555 3.5285L11.946 4.901C12.0342 4.93276 12.1103 4.99127 12.1637 5.06836C12.217 5.14545 12.2449 5.23727 12.2435 5.331V7.747C12.2442 7.84057 12.216 7.93205 12.1627 8.009C12.1095 8.08595 12.0338 8.14461 11.946 8.177L8.13955 9.543C8.04401 9.58094 7.93759 9.58094 7.84205 9.543L4.04755 8.177C3.95935 8.14524 3.88327 8.08673 3.82994 8.00964C3.7766 7.93255 3.74867 7.84073 3.75005 7.747V5.331Z" fill="white"/>
</g>
<defs>
<clipPath id="clip0_7_8114">
<rect width="16" height="16" fill="white"/>
</clipPath>
</defs>
</svg>
