<svg width="16" height="16" viewBox="0 0 16 16" fill="none" xmlns="http://www.w3.org/2000/svg">
<g clip-path="url(#clip0_7_8042)">
<path d="M8 16C12.4183 16 16 12.4183 16 8C16 3.58172 12.4183 0 8 0C3.58172 0 0 3.58172 0 8C0 12.4183 3.58172 16 8 16Z" fill="#0061FF"/>
<path d="M8.005 3L13 8.07L12.8125 8.24C12.7273 8.32053 12.6385 8.39727 12.5465 8.47C12.3835 8.6005 12.2115 8.7305 12.0385 8.846C11.339 9.31965 10.5609 9.66535 9.7405 9.867C9.1725 10.007 8.5895 10.077 8.005 10.077C7.265 10.077 6.53 9.967 5.825 9.742C5.10376 9.51545 4.4231 9.17571 3.8085 8.7355C3.59599 8.57964 3.39046 8.41448 3.1925 8.2405L3 8.07L3.5475 7.514L8.005 3ZM12.374 8.235C12.448 8.175 12.5215 8.115 12.586 8.05L8 3.405L3.4145 8.05L3.508 8.13C3.661 8.255 3.8135 8.38 3.9715 8.49C5.14655 9.33431 6.55808 9.78627 8.005 9.7815C8.5684 9.78087 9.12965 9.71203 9.6765 9.5765C10.4647 9.38176 11.2125 9.04969 11.8855 8.5955C12.0545 8.4845 12.2175 8.364 12.374 8.2355V8.235ZM4.859 7.995C5.82456 7.5648 6.86896 7.33988 7.926 7.3345C9.169 7.3345 10.3915 7.6645 11.4615 8.2955L11.531 8.3355L11.4615 8.3805C10.7545 8.83437 9.9655 9.14555 9.139 9.2965L9.1195 9.3015L9.1045 9.2915C7.84531 8.50697 6.39159 8.09076 4.908 8.09H4.637L4.859 7.995ZM9.1785 8.996C9.8045 8.876 10.4015 8.661 10.9535 8.3505C10.0144 7.8718 8.97506 7.62297 7.921 7.6245C7.286 7.6245 6.6545 7.7095 6.0425 7.8795C7.1525 8.0295 8.2195 8.4095 9.1785 8.996ZM10.8305 9.982C10.6078 10.285 10.3708 10.5773 10.1205 10.858L8.005 13L6.516 11.4935L6.831 11.4735C7.88433 11.4083 8.90855 11.1017 9.8245 10.5775C10.1005 10.4425 10.8305 9.982 10.8305 9.982ZM7.157 11.734L8.005 12.5945L9.504 11.073C8.76545 11.4265 7.9715 11.6501 7.157 11.734Z" fill="white"/>
</g>
<defs>
<clipPath id="clip0_7_8042">
<rect width="16" height="16" fill="white"/>
</clipPath>
</defs>
</svg>
