<svg width="16" height="16" viewBox="0 0 16 16" fill="none" xmlns="http://www.w3.org/2000/svg">
<g clip-path="url(#clip0_7_8002)">
<path d="M8 16C12.4183 16 16 12.4183 16 8C16 3.58172 12.4183 0 8 0C3.58172 0 0 3.58172 0 8C0 12.4183 3.58172 16 8 16Z" fill="#31FAFB"/>
<path d="M8 13.125L6.75 10.656H9.25L8 13.125Z" fill="white"/>
<path d="M7.99996 6.374L5.76496 11.12C5.69096 11.272 5.65246 11.395 5.48996 11.395L4.01346 11.396C3.80196 11.396 3.68496 11.3415 3.78796 11.121L7.39796 3.3485C7.47246 3.22 7.51846 3.125 7.68096 3.125H8.31996C8.48246 3.125 8.52846 3.22 8.60246 3.349L12.2125 11.121C12.3155 11.342 12.1985 11.3965 11.987 11.3965L10.5105 11.396C10.348 11.396 10.3095 11.2725 10.2355 11.1205L7.99996 6.374Z" fill="white"/>
</g>
<defs>
<clipPath id="clip0_7_8002">
<rect width="16" height="16" fill="white"/>
</clipPath>
</defs>
</svg>
