<svg width="16" height="16" viewBox="0 0 16 16" fill="none" xmlns="http://www.w3.org/2000/svg">
<g clip-path="url(#clip0_7_7995)">
<path d="M8 16C12.4183 16 16 12.4183 16 8C16 3.58172 12.4183 0 8 0C3.58172 0 0 3.58172 0 8C0 12.4183 3.58172 16 8 16Z" fill="#346FCE"/>
<path fill-rule="evenodd" clip-rule="evenodd" d="M10.0802 9.353L10.5582 10.2515C10.8301 10.763 10.8877 11.3615 10.7184 11.9155C10.5491 12.4694 10.1666 12.9335 9.65523 13.2055L9.59323 13.2385C9.33995 13.3732 9.06261 13.4567 8.77705 13.4842C8.49149 13.5118 8.20331 13.4828 7.92896 13.3989C7.65461 13.3151 7.39946 13.178 7.17808 12.9955C6.9567 12.8131 6.77343 12.5888 6.63873 12.3355L5.02723 9.3045C4.76523 8.81179 4.70172 8.23749 4.84973 7.69943C4.99775 7.16138 5.34607 6.70037 5.82323 6.411L5.34523 5.5125C5.07337 5.00096 5.01583 4.40237 5.18526 3.8484C5.3547 3.29444 5.73723 2.83045 6.24873 2.5585L6.31073 2.5255C6.82222 2.2536 7.42075 2.19599 7.97471 2.36532C8.52867 2.53466 8.99269 2.91709 9.26473 3.4285L10.8762 6.4595C11.1383 6.95215 11.2019 7.52641 11.0539 8.06446C10.906 8.60251 10.5573 9.06355 10.0802 9.353ZM10.0802 9.353L8.94673 7.2205C8.67469 6.70909 8.21067 6.32666 7.65671 6.15732C7.10275 5.98799 6.50422 6.0456 5.99273 6.3175L5.93073 6.35C5.89423 6.37 5.85823 6.39 5.82323 6.411L6.95723 8.5435C7.22927 9.05491 7.69329 9.43734 8.24725 9.60668C8.80121 9.77602 9.39975 9.7184 9.91123 9.4465L9.97323 9.414C10.0097 9.394 10.0452 9.374 10.0802 9.353Z" fill="white"/>
</g>
<defs>
<clipPath id="clip0_7_7995">
<rect width="16" height="16" fill="white"/>
</clipPath>
</defs>
</svg>
