<svg width="16" height="16" viewBox="0 0 16 16" fill="none" xmlns="http://www.w3.org/2000/svg">
<g clip-path="url(#clip0_7_8071)">
<path d="M8 16C12.4183 16 16 12.4183 16 8C16 3.58172 12.4183 0 8 0C3.58172 0 0 3.58172 0 8C0 12.4183 3.58172 16 8 16Z" fill="#2E3148"/>
<path d="M8.01039 2.765C7.36289 2.765 6.83789 5.1135 6.83789 8.01C6.83789 10.9065 7.36289 13.255 8.01039 13.255C8.65739 13.255 9.18239 10.9065 9.18239 8.01C9.18239 5.1135 8.65739 2.765 8.01039 2.765ZM8.09139 12.9585C8.01739 13.0575 7.94289 12.9835 7.94289 12.9835C7.64489 12.6375 7.49589 11.996 7.49589 11.996C6.97439 10.3175 7.09839 6.714 7.09839 6.714C7.34339 3.8535 7.78939 3.1775 7.94089 3.0275C7.95641 3.01212 7.97687 3.00272 7.99865 3.00098C8.02043 2.99924 8.04213 3.00527 8.05989 3.018C8.27989 3.1745 8.46489 3.8265 8.46489 3.8265C9.00989 5.8505 8.96039 7.7505 8.96039 7.7505C9.00989 9.4045 8.68739 11.2555 8.68739 11.2555C8.43889 12.6625 8.09139 12.9585 8.09139 12.9585Z" fill="white"/>
<path d="M12.559 5.4C12.2365 4.838 9.939 5.5515 7.4255 6.993C4.912 8.4345 3.139 10.058 3.4605 10.62C3.783 11.182 6.081 10.4685 8.5945 9.027C11.108 7.5855 12.881 5.9615 12.559 5.4ZM3.7575 10.5425C3.6345 10.5275 3.6625 10.4255 3.6625 10.4255C3.8135 9.9955 4.2955 9.5465 4.2955 9.5465C5.492 8.259 8.68 6.5735 8.68 6.5735C11.283 5.3625 12.0915 5.4135 12.2965 5.4695C12.3177 5.47531 12.3361 5.48846 12.3484 5.50659C12.3608 5.52473 12.3663 5.54667 12.364 5.5685C12.339 5.837 11.864 6.322 11.864 6.322C10.381 7.8025 8.708 8.706 8.708 8.706C7.298 9.572 5.5315 10.2125 5.5315 10.2125C4.1875 10.6965 3.7575 10.5425 3.7575 10.5425Z" fill="white"/>
<path d="M12.5476 10.6385C12.8726 10.0785 11.1041 8.447 8.59858 6.9945C6.09358 5.5425 3.79658 4.8205 3.47208 5.3815C3.14708 5.943 4.91608 7.573 7.42208 9.0255C9.92858 10.4775 12.2231 11.1995 12.5476 10.6385ZM3.68758 5.598C3.63908 5.484 3.74058 5.4565 3.74058 5.4565C4.18908 5.3715 4.81908 5.565 4.81908 5.565C6.53258 5.955 9.58808 7.869 9.58808 7.869C11.9406 9.515 12.3016 10.2405 12.3556 10.446C12.3611 10.4671 12.3589 10.4895 12.3495 10.5091C12.34 10.5288 12.324 10.5445 12.3041 10.5535C12.0591 10.666 11.4016 10.4985 11.4016 10.4985C9.37658 9.9555 7.75708 8.961 7.75708 8.961C6.30208 8.176 4.86308 6.9685 4.86308 6.9685C3.76958 6.0475 3.68808 5.5985 3.68808 5.5985L3.68708 5.598H3.68758Z" fill="white"/>
<path d="M7.99786 8.6145C8.33862 8.6145 8.61486 8.33826 8.61486 7.9975C8.61486 7.65674 8.33862 7.3805 7.99786 7.3805C7.6571 7.3805 7.38086 7.65674 7.38086 7.9975C7.38086 8.33826 7.6571 8.6145 7.99786 8.6145Z" fill="white"/>
<path d="M10.5273 6.128C10.8035 6.128 11.0273 5.90414 11.0273 5.628C11.0273 5.35186 10.8035 5.128 10.5273 5.128C10.2512 5.128 10.0273 5.35186 10.0273 5.628C10.0273 5.90414 10.2512 6.128 10.5273 6.128Z" fill="white"/>
<path d="M4.65332 7.387C4.92946 7.387 5.15332 7.16314 5.15332 6.887C5.15332 6.61086 4.92946 6.387 4.65332 6.387C4.37718 6.387 4.15332 6.61086 4.15332 6.887C4.15332 7.16314 4.37718 7.387 4.65332 7.387Z" fill="white"/>
<path d="M7.26953 11.928C7.54567 11.928 7.76953 11.7041 7.76953 11.428C7.76953 11.1519 7.54567 10.928 7.26953 10.928C6.99339 10.928 6.76953 11.1519 6.76953 11.428C6.76953 11.7041 6.99339 11.928 7.26953 11.928Z" fill="white"/>
</g>
<defs>
<clipPath id="clip0_7_8071">
<rect width="16" height="16" fill="white"/>
</clipPath>
</defs>
</svg>
