<svg width="16" height="16" viewBox="0 0 16 16" fill="none" xmlns="http://www.w3.org/2000/svg">
<g clip-path="url(#clip0_7_7942)">
<path d="M8 16C12.4183 16 16 12.4183 16 8C16 3.58172 12.4183 0 8 0C3.58172 0 0 3.58172 0 8C0 12.4183 3.58172 16 8 16Z" fill="#34318A"/>
<path d="M5.427 6.632L7.232 7.592L8.192 7.112L5.8975 5.869V3.68L10.309 5.97L11.269 5.49L5.619 2.528C5.55457 2.49415 5.4825 2.47752 5.40975 2.47972C5.33701 2.48191 5.26606 2.50286 5.2038 2.54053C5.14153 2.57821 5.09005 2.63132 5.05434 2.69474C5.01864 2.75816 4.99992 2.82972 5 2.9025V5.936C5.0015 6.2295 5.166 6.498 5.427 6.632ZM12.3055 6.123C12.2431 6.06238 12.1635 6.0225 12.0776 6.00881C11.9917 5.99512 11.9037 6.00828 11.8255 6.0465L5.427 9.368C5.1645 9.503 4.9995 9.7735 5 10.069V13.0975C4.99992 13.1703 5.01864 13.2418 5.05434 13.3053C5.09005 13.3687 5.14153 13.4218 5.2038 13.4595C5.26606 13.4971 5.33701 13.5181 5.40975 13.5203C5.4825 13.5225 5.55457 13.5058 5.619 13.472L12.003 10.16C12.2695 10.022 12.435 9.745 12.4305 9.445V6.421C12.4305 6.36551 12.4195 6.31058 12.398 6.25941C12.3765 6.20825 12.3451 6.16187 12.3055 6.123ZM11.5375 9.392L5.8975 12.32V10.131L11.5375 7.203V9.392Z" fill="white"/>
</g>
<defs>
<clipPath id="clip0_7_7942">
<rect width="16" height="16" fill="white"/>
</clipPath>
</defs>
</svg>
