<svg width="16" height="16" viewBox="0 0 16 16" fill="none" xmlns="http://www.w3.org/2000/svg">
<g clip-path="url(#clip0_7_8052)">
<path d="M8 16C12.4183 16 16 12.4183 16 8C16 3.58172 12.4183 0 8 0C3.58172 0 0 3.58172 0 8C0 12.4183 3.58172 16 8 16Z" fill="#E756CC"/>
<path d="M6.385 8.2665C6.4325 8.379 6.48 8.4905 6.53 8.6015C6.5755 8.707 6.624 8.8115 6.6705 8.9165L6.7775 9.1605C6.8145 9.244 6.8535 9.3275 6.8915 9.4105L6.985 9.6205L7.128 9.9425C7.212 10.1275 7.293 10.3135 7.3755 10.499C7.4755 10.7185 7.5685 10.9405 7.6705 11.159C7.7945 11.4085 7.8845 11.6695 7.997 11.923C8.1095 11.618 8.2325 11.323 8.3685 11.0275C8.453 10.8415 8.5335 10.654 8.6185 10.4675C8.685 10.3205 8.748 10.171 8.8135 10.0225C8.8785 9.8765 8.946 9.731 9.0085 9.5845L9.0735 9.444C9.11 9.362 9.146 9.28 9.183 9.1985C9.22 9.115 9.256 9.031 9.2935 8.948C9.351 8.8215 9.407 8.694 9.4635 8.5665C9.50876 8.46766 9.55177 8.3678 9.5925 8.267C8.5235 8.2655 7.454 8.265 6.385 8.2665ZM10.244 6.8465H5.75L6.219 7.973H9.7275L10.2435 6.846L10.244 6.8465ZM13.565 5.794C13.675 6.0605 13.762 6.3355 13.831 6.615C13.5225 6.56405 13.2101 6.54079 12.8975 6.5455C12.659 6.5415 12.4165 6.568 12.1795 6.5455L12.1595 6.464C12.2395 6.3555 12.343 6.273 12.4565 6.201C12.7895 5.991 13.1725 5.839 13.565 5.794ZM5.957 2.544C6.633 2.7605 7.346 2.879 8.014 3.117C8.109 3.162 8.219 3.1695 8.223 3.296C7.6665 3.3845 7.1245 3.387 6.564 3.43C5.9645 3.47 5.382 3.529 4.7805 3.449C4.593 3.434 4.403 3.388 4.2155 3.394C4.67164 3.02897 5.17673 2.72973 5.716 2.505C5.804 2.4875 5.8745 2.5205 5.957 2.544ZM10.522 8.596C10.4805 8.6895 10.438 8.782 10.3955 8.8745C10.3485 8.9785 10.3005 9.0835 10.2525 9.187C10.2075 9.2855 10.1645 9.3845 10.1195 9.4825C10.0425 9.6485 9.9655 9.8145 9.891 9.982C9.8125 10.1525 9.736 10.324 9.656 10.494L9.3685 11.123C9.2965 11.277 9.2275 11.432 9.157 11.5865C9.0405 11.848 8.9185 12.107 8.7995 12.3675C8.6885 12.624 8.5685 12.8765 8.4535 13.1305C8.3215 13.4205 8.1895 13.711 8.0545 14C8.0015 14 7.9485 14 7.8955 13.999C7.7465 13.6675 7.5925 13.338 7.445 13.006C7.34 12.77 7.23 12.5365 7.125 12.301C7.0295 12.086 6.93 11.873 6.834 11.658L6.6015 11.146C6.4965 10.905 6.383 10.6675 6.276 10.427C6.181 10.215 6.0835 10.004 5.9895 9.7915C5.952 9.709 5.915 9.6265 5.877 9.5445C5.8115 9.3945 5.742 9.248 5.6745 9.099C5.6265 8.992 5.5765 8.886 5.5285 8.7785L5.4205 8.5385C5.3805 8.447 5.339 8.3565 5.2955 8.2665C4.197 8.264 3.0985 8.269 2 8.2645V7.9595C3.051 7.9575 4.1015 7.962 5.152 7.9575C5.11797 7.86859 5.08129 7.78072 5.042 7.694C4.9795 7.562 4.922 7.429 4.8615 7.2965C4.808 7.1795 4.7565 7.0615 4.7015 6.945C4.6265 6.784 4.556 6.6205 4.4805 6.459C4.3905 6.265 4.3075 6.067 4.214 5.8745C3.714 5.9555 3.247 6.1445 2.849 6.457L2.8405 6.463C2.669 6.5865 2.5165 6.748 2.3695 6.901C2.25104 7.02889 2.14271 7.1658 2.0455 7.3105C2.15695 6.37533 2.49094 5.48049 3.0195 4.701C3.2465 4.8985 3.523 5.026 3.8295 5.01C3.7 4.723 3.5625 4.4395 3.442 4.149C3.6755 3.874 3.9375 3.6245 4.2155 3.394C4.418 3.8825 4.6425 4.3625 4.854 4.847C4.8815 4.923 4.95 4.915 5.016 4.9395C5.1875 4.979 5.308 5.0795 5.463 5.1555C5.6395 5.246 5.8465 5.292 6.0415 5.327C6.1235 5.3435 6.2065 5.353 6.29 5.362L6.3115 5.412C5.9375 5.5135 5.5645 5.5195 5.181 5.5375C5.213 5.667 5.268 5.786 5.324 5.9065C7.098 5.91 8.872 5.9045 10.646 5.909C10.763 5.6765 10.861 5.435 10.9735 5.2005C10.646 5.314 10.3195 5.421 9.9765 5.479C9.92 5.486 9.8605 5.486 9.8035 5.486C9.884 5.436 9.9675 5.3925 10.053 5.351C10.4265 5.1745 10.791 4.971 11.1295 4.735C11.2275 4.6685 11.2505 4.572 11.2985 4.471C11.4605 4.112 11.619 3.751 11.782 3.393C12.2525 3.7765 12.667 4.2265 13.002 4.7315C12.782 4.6405 12.566 4.62 12.3295 4.641L11.9335 5.5075C11.856 5.681 11.774 5.8525 11.6965 6.026L11.4505 6.5645C11.392 6.6955 11.328 6.8245 11.274 6.957C11.207 7.0835 11.154 7.217 11.092 7.3465C11.032 7.476 10.977 7.607 10.9155 7.7365C10.8795 7.809 10.8455 7.883 10.812 7.957C11.8745 7.962 12.937 7.9575 13.9995 7.9595C14.001 8.062 13.999 8.164 13.9955 8.2655C12.8905 8.2675 11.785 8.2645 10.68 8.2675C10.622 8.374 10.572 8.486 10.5215 8.596H10.522Z" fill="white"/>
</g>
<defs>
<clipPath id="clip0_7_8052">
<rect width="16" height="16" fill="white"/>
</clipPath>
</defs>
</svg>
