<svg width="16" height="16" viewBox="0 0 16 16" fill="none" xmlns="http://www.w3.org/2000/svg">
<g clip-path="url(#clip0_7_7916)">
<path d="M8 16C12.4183 16 16 12.4183 16 8C16 3.58172 12.4183 0 8 0C3.58172 0 0 3.58172 0 8C0 12.4183 3.58172 16 8 16Z" fill="#E84142"/>
<path fill-rule="evenodd" clip-rule="evenodd" d="M5.75932 11.375H4.24532C3.92732 11.375 3.77032 11.375 3.67432 11.3135C3.62374 11.2805 3.58163 11.236 3.55141 11.1838C3.52118 11.1315 3.50368 11.0728 3.50032 11.0125C3.49432 10.8995 3.57282 10.761 3.73032 10.485L7.46632 3.8885C7.62532 3.6085 7.70632 3.4685 7.80732 3.4165C7.86138 3.38901 7.92117 3.37468 7.98182 3.37468C8.04247 3.37468 8.10226 3.38901 8.15632 3.4165C8.25782 3.4685 8.33832 3.6085 8.49732 3.8885L9.26532 5.2315L9.26932 5.2385C9.44082 5.5385 9.52782 5.6915 9.56582 5.8515C9.60832 6.02663 9.60832 6.20938 9.56582 6.3845C9.52782 6.546 9.44132 6.6995 9.26732 7.0045L7.30432 10.4795L7.29932 10.488C7.12632 10.791 7.03932 10.9445 6.91732 11.0605C6.78602 11.1862 6.6266 11.2788 6.45232 11.3305C6.29282 11.375 6.11532 11.375 5.75932 11.375ZM9.58082 11.375H11.7488C12.0688 11.375 12.2298 11.375 12.3258 11.312C12.3768 11.2788 12.4191 11.234 12.4494 11.1812C12.4796 11.1285 12.4969 11.0693 12.4998 11.0085C12.5053 10.899 12.4288 10.7665 12.2783 10.506L12.2623 10.479L11.1763 8.618L11.1638 8.597C11.0113 8.3385 10.9338 8.208 10.8353 8.1575C10.7817 8.13011 10.7223 8.11583 10.6621 8.11583C10.6018 8.11583 10.5425 8.13011 10.4888 8.1575C10.3888 8.2095 10.3088 8.346 10.1498 8.62L9.06732 10.481L9.06382 10.4875C8.90532 10.7615 8.82582 10.898 8.83182 11.0105C8.83515 11.0711 8.85262 11.13 8.88283 11.1827C8.91305 11.2353 8.95517 11.2801 9.00582 11.3135C9.09982 11.375 9.26082 11.375 9.58082 11.375Z" fill="white"/>
</g>
<defs>
<clipPath id="clip0_7_7916">
<rect width="16" height="16" fill="white"/>
</clipPath>
</defs>
</svg>
