<svg width="16" height="16" viewBox="0 0 16 16" fill="none" xmlns="http://www.w3.org/2000/svg">
<g clip-path="url(#clip0_7_8005)">
<path d="M8 16C12.4183 16 16 12.4183 16 8C16 3.58172 12.4183 0 8 0C3.58172 0 0 3.58172 0 8C0 12.4183 3.58172 16 8 16Z" fill="#3355B5"/>
<path d="M8 2C4.6865 2 2 4.6865 2 8C2 11.3135 4.6865 14 8 14C11.3135 14 14 11.3135 14 8C14 6.4087 13.3679 4.88258 12.2426 3.75736C11.1174 2.63214 9.5913 2 8 2ZM8 13.885C4.75 13.885 2.115 11.25 2.115 8C2.115 4.75 4.75 2.115 8 2.115C11.25 2.115 13.885 4.75 13.885 8C13.885 9.5608 13.265 11.0577 12.1613 12.1613C11.0577 13.265 9.5608 13.885 8 13.885Z" fill="white"/>
<path fill-rule="evenodd" clip-rule="evenodd" d="M9.64469 6.75L9.62969 6.695L9.61469 6.64L9.59969 6.58L9.57969 6.53L9.56469 6.475L9.54469 6.425L9.51969 6.37L9.49969 6.32L9.47469 6.275L9.44969 6.225L9.42469 6.18L9.39469 6.135L9.36969 6.095L9.33969 6.05L9.30969 6.015L9.27469 5.975L9.24469 5.94L9.21469 5.905L9.17969 5.875L9.14469 5.845L9.10969 5.815L9.07469 5.79L9.03469 5.765L8.99969 5.745L8.95969 5.72L8.92469 5.705L8.88469 5.685L8.84469 5.67L8.80469 5.655L8.75969 5.645L8.71969 5.635L8.67969 5.625L8.63469 5.62L8.58969 5.615L8.54969 5.61H8.41469L8.36969 5.615L8.32469 5.62L8.27469 5.625L8.22969 5.635L8.18469 5.645L8.13969 5.655L8.08969 5.67L8.04469 5.685L7.99469 5.7L7.94469 5.72L7.89969 5.74L7.84969 5.765L7.80469 5.785L7.75469 5.81L7.70469 5.84L7.65969 5.865L7.60969 5.895L7.55969 5.93L7.51469 5.96L7.46469 5.995L7.41469 6.035L7.36469 6.07L7.31969 6.11L7.26969 6.15L7.22469 6.195L7.17469 6.24L7.12469 6.285L7.07969 6.335L7.02969 6.385L6.98469 6.435L6.93969 6.485L6.88969 6.54L6.84469 6.595L6.79969 6.65L6.75469 6.71L6.70969 6.77L6.66469 6.835L6.60469 6.92L6.54469 7.01L6.48469 7.105L6.42969 7.195L6.37469 7.295L6.31969 7.39L6.26969 7.485L6.21969 7.585L6.17469 7.685L6.12969 7.785L6.08969 7.885L6.05469 7.965L9.64969 6.79L9.64469 6.75ZM6.39969 8.505L9.58469 8.48L9.59969 8.41L9.61469 8.34L9.62969 8.27L9.64469 8.195L9.65469 8.125L9.66969 8.055L9.67969 7.985L9.68469 7.915L9.69469 7.845L9.69969 7.775L9.70469 7.71L9.70969 7.64L9.71469 7.57V7.425L6.39969 8.505Z" fill="white"/>
<path d="M8.00027 2.28C4.84127 2.28 2.28027 4.841 2.28027 8C2.28027 11.159 4.84127 13.72 8.00027 13.72C11.1593 13.72 13.7203 11.159 13.7203 8C13.7203 7.24884 13.5723 6.50503 13.2849 5.81105C12.9974 5.11707 12.5761 4.4865 12.0449 3.95535C11.5138 3.4242 10.8832 3.00286 10.1892 2.71541C9.49524 2.42795 8.75143 2.28 8.00027 2.28ZM11.2403 8.46L11.1403 9.05H10.2453L10.2153 9.15L10.1603 9.3L10.1053 9.45L10.0453 9.6L10.0003 9.75L9.93527 9.895L9.86527 10.04L9.79527 10.185L9.72027 10.325L9.64527 10.465L9.56527 10.6L9.48527 10.735L9.40027 10.87L9.30027 11L9.25527 11.065L9.21027 11.13L8.74527 10.35L8.79027 10.285L8.83527 10.22L8.87527 10.155L8.91527 10.09L8.95527 10.025L8.99527 9.96L9.03527 9.895L9.07027 9.83L9.10527 9.76L9.14027 9.69L9.17527 9.62L9.21027 9.55L9.24027 9.48L9.27027 9.41L9.30027 9.34L9.33027 9.27L9.36027 9.2L9.38527 9.13V9.07L5.75027 9.1V10.025L4.82027 10.67V9.1H4.55027L4.45027 9.135L4.28027 8.54L5.12027 8.265V8.2L5.15527 8.095L5.20527 8L5.24027 7.9L5.28027 7.8L5.32027 7.7L5.36027 7.6L5.40027 7.5L5.44527 7.4L5.49027 7.3L5.53527 7.2L5.58027 7.105L5.63027 7.01L5.68027 6.915L5.73027 6.82L5.78027 6.725L5.83527 6.63L5.89027 6.54L5.94527 6.45L6.00027 6.355L6.05527 6.265L6.11527 6.18L6.17527 6.095L6.23027 6L6.29027 5.915L6.35027 5.835L6.41527 5.755L6.50027 5.685L6.56527 5.61L6.63027 5.535L6.69527 5.46L6.76527 5.39L6.83527 5.32L6.90527 5.25L6.97527 5.185L7.04527 5.12L7.11527 5.055L7.17027 5L7.24527 4.94L7.32027 4.885L7.39527 4.83L7.47027 4.775L7.54527 4.725L7.62027 4.68L7.69527 4.635L7.77027 4.595L7.84527 4.555L7.91027 4.5L8.00027 4.475L8.07027 4.445L8.14027 4.415L8.21027 4.39H9.41527L9.47027 4.415L9.52527 4.44L9.58027 4.47L9.63527 4.5L9.68527 4.535L9.73527 4.57L9.78527 4.61L9.83527 4.65L9.88027 4.695L9.92527 4.74L9.97027 4.79L10.0153 4.84L10.0553 4.895L10.0953 4.95L10.1353 5.005L10.1753 5.065L10.2103 5.125L10.2453 5.19L10.2803 5.255L10.3103 5.325L10.3403 5.395L10.3703 5.465L10.4003 5.54L10.4253 5.615V6.5L10.9253 6.34L11.0953 6.935L10.4553 7.145V7.96L10.4303 8.11L10.4003 8.26L10.3653 8.41V8.475L11.2403 8.46Z" fill="white"/>
</g>
<defs>
<clipPath id="clip0_7_8005">
<rect width="16" height="16" fill="white"/>
</clipPath>
</defs>
</svg>
