<svg width="16" height="16" viewBox="0 0 16 16" fill="none" xmlns="http://www.w3.org/2000/svg">
<g clip-path="url(#clip0_7_8046)">
<path d="M8 16C12.4183 16 16 12.4183 16 8C16 3.58172 12.4183 0 8 0C3.58172 0 0 3.58172 0 8C0 12.4183 3.58172 16 8 16Z" fill="#F19F13"/>
<path d="M11.385 6.975H13.82L14 5.975H11.645C11.1807 5.98944 10.7307 6.13887 10.35 6.405C10.21 5.905 8.85 5.975 8.85 5.975L9.03 4.975H8.5L8.32 5.975H7.765L7.92 4.975H7.345L7.135 5.975H6.54L6.235 7.535L5.83 6.005H4.5L2 9.68H4.06L4.27 8.705H3.85L5.05 6.95L5.5 8.715H5.05L4.855 9.68H6.385L6.26 10.35H6.86L7 9.68H7.5L7.375 10.35H8L8.125 9.68H8.905C9.26367 9.63932 9.59564 9.47068 9.84 9.205C10.1313 9.49983 10.5257 9.67011 10.94 9.68H13.295L13.45 8.705H11.335C9.88 8.68 10.5 6.965 11.385 6.975ZM8.74 8.68H7.18L7.305 8.205H8.805C9.185 8.23 9.06 8.68 8.74 8.68ZM8.975 7.4H7.415L7.54 6.925H9.04C9.42 6.95 9.28 7.42 8.975 7.42V7.4Z" fill="white"/>
</g>
<defs>
<clipPath id="clip0_7_8046">
<rect width="16" height="16" fill="white"/>
</clipPath>
</defs>
</svg>
