<svg width="16" height="16" viewBox="0 0 16 16" fill="none" xmlns="http://www.w3.org/2000/svg">
<g clip-path="url(#clip0_7_8003)">
<path d="M8 16C12.4183 16 16 12.4183 16 8C16 3.58172 12.4183 0 8 0C3.58172 0 0 3.58172 0 8C0 12.4183 3.58172 16 8 16Z" fill="#1E1E1E"/>
<path d="M8.046 11.598C5.259 11.598 3 10.793 3 9.714C3 9.151 3.615 8.644 4.6 8.286C5.369 8.7795 6.6585 9.0325 8.121 9.0325C9.549 9.0325 10.811 8.724 11.586 8.2515C12.5155 8.605 13.0925 9.0985 13.0925 9.6425C13.0925 10.723 10.8335 11.598 8.046 11.598Z" fill="white"/>
<path d="M8.076 8.79C5.963 8.79 4.25 8.1275 4.25 7.31C4.25 6.857 4.778 6.451 5.606 6.1805C6.197 6.489 7.0825 6.686 8.076 6.686C9.0695 6.686 9.955 6.489 10.546 6.181C11.3755 6.4525 11.902 6.857 11.902 7.31C11.9035 8.1275 10.19 8.79 8.076 8.79Z" fill="white"/>
<path d="M8.06152 6.44C6.42802 6.44 5.10352 5.893 5.10352 5.22C5.10352 4.5475 6.42852 4 8.06152 4C9.69452 4 11.0195 4.5475 11.0195 5.22C11.0195 5.893 9.69452 6.44 8.06152 6.44Z" fill="white"/>
</g>
<defs>
<clipPath id="clip0_7_8003">
<rect width="16" height="16" fill="white"/>
</clipPath>
</defs>
</svg>
