<svg width="16" height="16" viewBox="0 0 16 16" fill="none" xmlns="http://www.w3.org/2000/svg">
<g clip-path="url(#clip0_7_8043)">
<path d="M8 16C12.4183 16 16 12.4183 16 8C16 3.58172 12.4183 0 8 0C3.58172 0 0 3.58172 0 8C0 12.4183 3.58172 16 8 16Z" fill="#516AFF"/>
<path d="M9.143 6.2395L10.243 6.868V3.725L8.043 2.625L4.625 4.55V11.3855L8.043 13.35L11.4215 11.3465V7.968L8.1605 6.0035L7.0605 6.5535L10.3215 8.4785L10.3605 10.7965L8.043 12.093L5.6855 10.757V5.1L8.043 3.8035L9.143 4.393V6.2395Z" fill="white"/>
<path d="M7.92505 8.125L8.67155 7.732L9.49655 8.243L7.06055 9.618V6.7895L7.92505 7.3" fill="white"/>
</g>
<defs>
<clipPath id="clip0_7_8043">
<rect width="16" height="16" fill="white"/>
</clipPath>
</defs>
</svg>
