<svg width="16" height="16" viewBox="0 0 16 16" fill="none" xmlns="http://www.w3.org/2000/svg">
<g clip-path="url(#clip0_7_7885)">
<path d="M8 16C12.4183 16 16 12.4183 16 8C16 3.58172 12.4183 0 8 0C3.58172 0 0 3.58172 0 8C0 12.4183 3.58172 16 8 16Z" fill="#6356AB"/>
<path d="M11.392 7.987C11.421 7.9545 11.4535 7.922 11.486 7.889C11.591 7.776 11.706 7.6555 11.8145 7.539C12.2492 7.08586 12.4923 6.48243 12.493 5.8545C12.493 5.811 12.5 5.632 12.5 5.6065C12.4495 4.1705 11.2405 3 9.8115 3H5.3115V4.8155H3.5V13H9.8835C11.302 13 12.5 11.7385 12.5 10.244C12.5035 9.1755 11.843 8.421 11.392 7.987ZM6.2135 5.727L9.797 5.7305L7.5455 8.013L9.772 10.273H6.2135V5.727ZM9.8835 12.085H4.402V5.7235H5.312V11.181H9.772C10.14 11.181 10.4685 10.9585 10.609 10.616C10.6782 10.4493 10.6966 10.2659 10.6619 10.0888C10.6272 9.91168 10.541 9.74877 10.414 9.6205L8.823 8.009L10.4395 6.372C10.6995 6.1095 10.775 5.7195 10.6345 5.377C10.567 5.21015 10.4512 5.06725 10.302 4.96659C10.1528 4.86593 9.97698 4.81211 9.797 4.812H6.217V3.908H9.815C10.768 3.908 11.569 4.6845 11.6015 5.6285C11.6015 5.6685 11.594 5.8255 11.594 5.829V5.847C11.594 6.24291 11.4401 6.62332 11.165 6.908C11.053 7.025 10.9375 7.1485 10.833 7.258C10.656 7.444 10.5045 7.6045 10.432 7.6775L10.107 7.998L10.4285 8.323C10.472 8.3665 10.526 8.4175 10.591 8.4795C10.966 8.8295 11.598 9.4125 11.598 10.2365C11.6015 11.221 10.8005 12.085 9.8835 12.085Z" fill="white"/>
</g>
<defs>
<clipPath id="clip0_7_7885">
<rect width="16" height="16" fill="white"/>
</clipPath>
</defs>
</svg>
