<svg width="16" height="16" viewBox="0 0 16 16" fill="none" xmlns="http://www.w3.org/2000/svg">
<g clip-path="url(#clip0_7_7984)">
<path d="M8 16C12.4183 16 16 12.4183 16 8C16 3.58172 12.4183 0 8 0C3.58172 0 0 3.58172 0 8C0 12.4183 3.58172 16 8 16Z" fill="#004AB5"/>
<path d="M6.24142 3.8965C5.5816 4.14513 4.99159 4.54947 4.52161 5.07512C4.05163 5.60077 3.71559 6.23218 3.54207 6.91561C3.36855 7.59904 3.3627 8.31428 3.525 9.00046C3.68731 9.68665 4.01297 10.3235 4.47428 10.8567C4.93559 11.39 5.5189 11.804 6.17457 12.0634C6.83024 12.3228 7.53887 12.4199 8.24016 12.3466C8.94146 12.2733 9.61466 12.0316 10.2025 11.6422C10.7903 11.2528 11.2754 10.7272 11.6164 10.11L7.78542 7.9925L9.33992 3.9C8.34221 3.52124 7.24049 3.51999 6.24193 3.8965H6.24142ZM6.51442 4.683C7.32315 4.37806 8.21543 4.37913 9.02343 4.686L7.76492 7.9995L10.8669 9.7145C10.5907 10.2141 10.1979 10.6396 9.72195 10.9548C9.24598 11.27 8.70092 11.4656 8.13313 11.5249C7.56534 11.5842 6.99162 11.5055 6.46078 11.2955C5.92995 11.0854 5.4577 10.7503 5.08421 10.3185C4.71073 9.88676 4.44705 9.37119 4.31562 8.81564C4.18418 8.2601 4.18888 7.68103 4.32931 7.12769C4.46974 6.57435 4.74174 6.06312 5.12219 5.63748C5.50263 5.21185 5.98025 4.8844 6.51442 4.683ZM7.98242 2.49C8.57792 2.5135 9.16542 2.6335 9.72242 2.845L7.76492 7.9995L12.5904 10.667C12.1156 11.526 11.4201 12.2428 10.5758 12.7432C9.7314 13.2436 8.76876 13.5096 7.78725 13.5136C6.80574 13.5177 5.84094 13.2597 4.99247 12.7662C4.144 12.2728 3.44261 11.5618 2.96074 10.7068C2.47887 9.85166 2.23398 8.88344 2.25135 7.90208C2.26873 6.92071 2.54774 5.96177 3.05958 5.12427C3.57142 4.28678 4.29753 3.60108 5.16293 3.13799C6.02834 2.6749 7.00167 2.4512 7.98242 2.49ZM11.7469 4.396C11.8789 4.396 12.0019 4.4115 12.1149 4.4435C12.4479 4.535 12.6729 4.742 12.7899 5.064C12.8614 5.2595 12.8769 5.4515 12.8369 5.64C12.8009 5.827 12.7144 5.995 12.5774 6.145C12.8344 6.1335 13.0589 6.191 13.2524 6.316C13.4439 6.437 13.5854 6.6225 13.6759 6.8715C13.8044 7.2245 13.7659 7.547 13.5594 7.839C13.3554 8.126 12.9909 8.3655 12.4654 8.5565L10.3834 9.3145L8.91792 5.288L10.8849 4.572C11.2069 4.455 11.4944 4.396 11.7469 4.396ZM11.4419 5.229C11.3219 5.229 11.1834 5.258 11.0254 5.3155L10.0994 5.6525L10.4444 6.602L11.3709 6.2645C11.6009 6.181 11.7609 6.0775 11.8499 5.9535C11.9399 5.8295 11.9559 5.689 11.8984 5.532C11.8414 5.375 11.7394 5.2795 11.5924 5.246C11.5432 5.2341 11.4926 5.22839 11.4419 5.229ZM12.2229 6.79C12.0969 6.7915 11.9489 6.823 11.7789 6.885L10.6919 7.2805L11.0539 8.2755L12.1409 7.88C12.3859 7.7905 12.5559 7.6835 12.6489 7.558C12.7464 7.4315 12.7639 7.284 12.7029 7.115C12.6229 6.8965 12.4629 6.788 12.2229 6.79Z" fill="white"/>
</g>
<defs>
<clipPath id="clip0_7_7984">
<rect width="16" height="16" fill="white"/>
</clipPath>
</defs>
</svg>
