<svg width="16" height="16" viewBox="0 0 16 16" fill="none" xmlns="http://www.w3.org/2000/svg">
<g clip-path="url(#clip0_7_8044)">
<path d="M8 16C12.4183 16 16 12.4183 16 8C16 3.58172 12.4183 0 8 0C3.58172 0 0 3.58172 0 8C0 12.4183 3.58172 16 8 16Z" fill="#F7931C"/>
<path d="M3.6753 9.66C3.6713 8.154 4.7318 6.89 6.2488 6.6055C6.3788 6.5815 6.4158 6.538 6.4123 6.411C6.40406 6.07288 6.40406 5.73462 6.4123 5.3965C6.4148 5.275 6.3763 5.2025 6.2718 5.1345C5.9073 4.897 5.7583 4.465 5.8918 4.0765C5.95599 3.87993 6.08337 3.7101 6.2541 3.59344C6.42484 3.47679 6.62935 3.41985 6.8358 3.4315C7.2208 3.4495 7.5733 3.736 7.6773 4.1165C7.7823 4.4985 7.6363 4.914 7.2973 5.1295C7.1773 5.2055 7.1398 5.282 7.1438 5.418C7.1538 5.756 7.1503 6.094 7.1458 6.4325C7.1443 6.5305 7.1588 6.583 7.2753 6.598C7.4968 6.6275 7.7133 6.687 7.9183 6.775C7.9953 6.808 8.0368 6.788 8.0883 6.731C8.8058 5.9405 9.5258 5.1515 10.2473 4.3645C10.3218 4.2835 10.3003 4.228 10.2663 4.1445C10.0903 3.7105 10.1933 3.242 10.5253 2.932C10.8283 2.6495 11.3293 2.569 11.6913 2.7445C12.1173 2.951 12.3513 3.347 12.3223 3.812C12.2833 4.434 11.6783 4.9025 11.0643 4.775C10.9398 4.749 10.8678 4.779 10.7873 4.868C10.1194 5.60621 9.44876 6.34188 8.7753 7.075C8.6938 7.1635 8.6823 7.211 8.7838 7.299C9.88581 8.26 10.1858 9.708 9.5578 11.027C9.5103 11.127 9.5208 11.184 9.5978 11.257C9.7813 11.4315 9.9588 11.612 10.1348 11.7945C10.2048 11.867 10.2703 11.886 10.3743 11.8595C10.7793 11.7575 11.1993 11.9395 11.4013 12.291C11.5014 12.465 11.5427 12.6665 11.5192 12.8659C11.4957 13.0652 11.4086 13.2516 11.2708 13.3975C10.9938 13.692 10.5413 13.7775 10.1898 13.6015C9.8058 13.4095 9.5938 12.999 9.6848 12.5775C9.71131 12.4565 9.6833 12.3875 9.6023 12.311C9.45318 12.17 9.30861 12.0243 9.1688 11.874C9.0873 11.786 9.0368 11.7845 8.9438 11.872C7.9943 12.757 6.8933 12.986 5.6783 12.554C4.4703 12.1255 3.6788 10.9505 3.6753 9.66Z" fill="#FEFDFC"/>
</g>
<defs>
<clipPath id="clip0_7_8044">
<rect width="16" height="16" fill="white"/>
</clipPath>
</defs>
</svg>
