<svg width="16" height="16" viewBox="0 0 16 16" fill="none" xmlns="http://www.w3.org/2000/svg">
<g clip-path="url(#clip0_7_7918)">
<path d="M8 16C12.4183 16 16 12.4183 16 8C16 3.58172 12.4183 0 8 0C3.58172 0 0 3.58172 0 8C0 12.4183 3.58172 16 8 16Z" fill="#FCC339"/>
<path d="M11.2925 4.847L11.331 4.9325L9.804 5.6335L10.491 7.9085L12.7515 6.767L12.7815 6.8265L12.7905 6.8155L11.326 4.8625L11.2925 4.847ZM11.21 4.8085L9.8235 4.1635H6.238L4.757 4.8435L6.297 5.4915H9.722L11.21 4.8085ZM4.633 4.9685L3.2465 6.769L5.5035 7.909L6.1935 5.625L4.633 4.9685ZM6.353 5.655L5.6405 8.015L7.997 12.181L10.354 8.015L9.641 5.655H6.353ZM12.609 7.0215L10.5 8.087L8.3975 11.8035L12.609 7.0215ZM7.5855 11.7835L5.4945 8.087L3.3965 7.0275L7.5855 11.7835ZM3.2155 6.8215L3.232 6.788L3.2105 6.816L3.2155 6.8215ZM4.611 4.731L6.2025 4H9.8585L11.4305 4.731L13 6.824L8 12.5L3 6.823L4.611 4.731ZM9.2115 7.417C9.241 7.7205 9.1155 7.903 8.9145 8.0065C9.245 8.0865 9.452 8.2855 9.411 8.7315C9.361 9.2845 8.9535 9.4325 8.3715 9.4665V10.048H8.0255V9.4745C7.9355 9.4745 7.844 9.4735 7.749 9.4715V10.048H7.4035V9.465C7.3225 9.4645 7.24 9.463 7.156 9.463H6.706L6.7745 9.0445C6.7745 9.0445 7.0305 9.0485 7.026 9.0445C7.124 9.0445 7.15 8.973 7.156 8.9285V8.01H7.193C7.18074 8.00834 7.16838 8.0075 7.156 8.0075V7.352C7.143 7.2805 7.0975 7.1985 6.957 7.198C6.9615 7.193 6.706 7.198 6.706 7.198V6.824H7.183V6.826C7.255 6.826 7.328 6.8245 7.403 6.823V6.2475H7.7495V6.812C7.8415 6.81 7.9345 6.808 8.0255 6.808V6.248L8.3715 6.2475V6.823C8.8185 6.863 9.172 7.002 9.2115 7.417ZM8.7275 8.662C8.7275 8.208 7.992 8.2765 7.7575 8.2765V9.048C7.992 9.048 8.7275 9.097 8.7275 8.662ZM8.5665 7.5735C8.5665 7.1605 7.9525 7.2235 7.7575 7.2235V7.9235C7.9525 7.9235 8.5665 7.9695 8.5665 7.5735Z" fill="white"/>
</g>
<defs>
<clipPath id="clip0_7_7918">
<rect width="16" height="16" fill="white"/>
</clipPath>
</defs>
</svg>
