<svg width="16" height="16" viewBox="0 0 16 16" fill="none" xmlns="http://www.w3.org/2000/svg">
<g clip-path="url(#clip0_7_8040)">
<path d="M8 16C12.4183 16 16 12.4183 16 8C16 3.58172 12.4183 0 8 0C3.58172 0 0 3.58172 0 8C0 12.4183 3.58172 16 8 16Z" fill="#8DC351"/>
<path d="M10.6033 5.267C10.2153 4.281 9.24228 4.192 8.10928 4.412L7.70578 3.0055L6.84978 3.251L7.24278 4.621C7.01778 4.685 6.78878 4.756 6.56128 4.826L6.16628 3.447L5.31078 3.692L5.71328 5.0985C5.52928 5.1555 5.34828 5.2115 5.17078 5.2625L5.16928 5.2575L3.98828 5.596L4.25078 6.511C4.25078 6.511 4.87978 6.317 4.87228 6.332C5.21928 6.2325 5.38978 6.4015 5.47228 6.566L5.93228 8.168C5.95578 8.1615 5.98728 8.1535 6.02428 8.148L5.93378 8.174L6.57728 10.419C6.59328 10.5325 6.57928 10.725 6.33728 10.795C6.35078 10.8015 5.71428 10.973 5.71428 10.973L5.83778 12.0445L6.95178 11.7245C7.15928 11.666 7.36428 11.611 7.56478 11.5545L7.97328 12.977L8.82828 12.732L8.42478 11.3245C8.65413 11.2636 8.88281 11.2003 9.11078 11.1345L9.51178 12.536L10.3683 12.2905L9.96128 10.8705C11.3768 10.375 12.2803 9.7235 12.0178 8.3355C11.8068 7.2185 11.1558 6.8795 10.2823 6.9175C10.7063 6.5225 10.8888 5.988 10.6033 5.267ZM10.2783 8.652C10.5833 9.7155 8.72828 10.1165 8.14828 10.2835L7.60778 8.3985C8.18778 8.232 9.95978 7.5435 10.2778 8.6525L10.2783 8.652ZM9.11728 6.107C9.39428 7.0745 7.84378 7.397 7.36028 7.5355L6.87028 5.826C7.35328 5.6875 8.82778 5.0985 9.11728 6.1075V6.107Z" fill="white"/>
</g>
<defs>
<clipPath id="clip0_7_8040">
<rect width="16" height="16" fill="white"/>
</clipPath>
</defs>
</svg>
