<svg width="16" height="16" viewBox="0 0 16 16" fill="none" xmlns="http://www.w3.org/2000/svg">
<g clip-path="url(#clip0_7_8075)">
<path d="M8 16C12.4183 16 16 12.4183 16 8C16 3.58172 12.4183 0 8 0C3.58172 0 0 3.58172 0 8C0 12.4183 3.58172 16 8 16Z" fill="#3F43AD"/>
<path d="M5.96959 3.718C5.85792 3.72454 5.75297 3.77351 5.67622 3.85488C5.59947 3.93626 5.55672 4.04389 5.55672 4.15575C5.55672 4.26761 5.59947 4.37524 5.67622 4.45661C5.75297 4.53799 5.85792 4.58696 5.96959 4.5935C6.08125 4.58696 6.1862 4.53799 6.26295 4.45661C6.3397 4.37524 6.38245 4.26761 6.38245 4.15575C6.38245 4.04389 6.3397 3.93626 6.26295 3.85488C6.1862 3.77351 6.08125 3.72454 5.96959 3.718ZM7.99459 2.503C7.88204 2.50838 7.77589 2.55687 7.69814 2.63842C7.62039 2.71998 7.57702 2.82833 7.57702 2.941C7.57702 3.05367 7.62039 3.16202 7.69814 3.24357C7.77589 3.32512 7.88204 3.37362 7.99459 3.379C8.10713 3.37362 8.21329 3.32512 8.29103 3.24357C8.36878 3.16202 8.41215 3.05367 8.41215 2.941C8.41215 2.82833 8.36878 2.71998 8.29103 2.63842C8.21329 2.55687 8.10713 2.50838 7.99459 2.503ZM7.99459 7.3625C7.88292 7.36904 7.77797 7.41801 7.70122 7.49938C7.62447 7.58076 7.58172 7.68839 7.58172 7.80025C7.58172 7.91211 7.62447 8.01974 7.70122 8.10111C7.77797 8.18249 7.88292 8.23146 7.99459 8.238C8.10625 8.23146 8.2112 8.18249 8.28795 8.10111C8.3647 8.01974 8.40745 7.91211 8.40745 7.80025C8.40745 7.68839 8.3647 7.58076 8.28795 7.49938C8.2112 7.41801 8.10625 7.36904 7.99459 7.3625ZM10.0191 6.1475C9.96153 6.14756 9.90456 6.15896 9.85141 6.18105C9.79827 6.20313 9.74999 6.23547 9.70934 6.27621C9.66869 6.31695 9.63647 6.3653 9.6145 6.4185C9.59254 6.4717 9.58127 6.5287 9.58134 6.58625C9.5814 6.6438 9.5928 6.70078 9.61489 6.75392C9.63697 6.80707 9.66931 6.85534 9.71005 6.89599C9.75079 6.93664 9.79914 6.96887 9.85234 6.99083C9.90553 7.01279 9.96253 7.02406 10.0201 7.024C10.1363 7.02387 10.2477 6.97757 10.3298 6.89528C10.4119 6.813 10.458 6.70148 10.4578 6.58525C10.4577 6.46902 10.4114 6.3576 10.3291 6.27551C10.2468 6.19341 10.1353 6.14737 10.0191 6.1475ZM12.0436 4.933C11.9848 4.93108 11.9262 4.94101 11.8713 4.96221C11.8164 4.9834 11.7664 5.01542 11.7241 5.05636C11.6819 5.0973 11.6483 5.14632 11.6254 5.20051C11.6025 5.25469 11.5907 5.31294 11.5908 5.37177C11.5909 5.4306 11.6028 5.48881 11.6258 5.54294C11.6488 5.59708 11.6825 5.64602 11.7249 5.68687C11.7672 5.72771 11.8173 5.75962 11.8723 5.78068C11.9272 5.80175 11.9858 5.81155 12.0446 5.8095C12.1583 5.80553 12.2659 5.75755 12.3449 5.6757C12.4239 5.59384 12.4679 5.4845 12.4678 5.37076C12.4677 5.25703 12.4233 5.14779 12.3442 5.06612C12.265 4.98444 12.1573 4.93671 12.0436 4.933ZM5.96959 8.5775C5.85792 8.58404 5.75297 8.63301 5.67622 8.71438C5.59947 8.79576 5.55672 8.90339 5.55672 9.01525C5.55672 9.12711 5.59947 9.23474 5.67622 9.31611C5.75297 9.39749 5.85792 9.44646 5.96959 9.453C6.08125 9.44646 6.1862 9.39749 6.26295 9.31611C6.3397 9.23474 6.38245 9.12711 6.38245 9.01525C6.38245 8.90339 6.3397 8.79576 6.26295 8.71438C6.1862 8.63301 6.08125 8.58404 5.96959 8.5775ZM3.94459 4.933C3.88707 4.93306 3.83012 4.94446 3.77701 4.96653C3.72389 4.9886 3.67565 5.02092 3.63502 5.06164C3.59439 5.10236 3.56219 5.15068 3.54024 5.20384C3.51828 5.25701 3.50702 5.31398 3.50709 5.3715C3.50715 5.42902 3.51855 5.48596 3.54062 5.53908C3.56269 5.59219 3.59501 5.64044 3.63573 5.68106C3.67645 5.72169 3.72477 5.7539 3.77793 5.77585C3.8311 5.7978 3.88807 5.80906 3.94559 5.809C4.06175 5.80887 4.17311 5.76259 4.25515 5.68036C4.3372 5.59812 4.38322 5.48666 4.38309 5.3705C4.38295 5.25433 4.33668 5.14298 4.25445 5.06093C4.17221 4.97888 4.06075 4.93287 3.94459 4.933ZM3.94459 9.792C3.88703 9.79206 3.83006 9.80346 3.77691 9.82555C3.72377 9.84763 3.67549 9.87997 3.63484 9.92071C3.55275 10.003 3.5067 10.1145 3.50684 10.2307C3.50697 10.347 3.55327 10.4584 3.63555 10.5405C3.71783 10.6226 3.82936 10.6686 3.94559 10.6685C4.06182 10.6684 4.17324 10.6221 4.25533 10.5398C4.33742 10.4575 4.38347 10.346 4.38334 10.2297C4.3832 10.1135 4.3369 10.0021 4.25462 9.92C4.17234 9.83791 4.06082 9.79187 3.94459 9.792ZM3.94459 7.3625C3.83292 7.36904 3.72797 7.41801 3.65122 7.49938C3.57447 7.58076 3.53172 7.68839 3.53172 7.80025C3.53172 7.91211 3.57447 8.01974 3.65122 8.10111C3.72797 8.18249 3.83292 8.23146 3.94459 8.238C4.05625 8.23146 4.1612 8.18249 4.23795 8.10111C4.3147 8.01974 4.35745 7.91211 4.35745 7.80025C4.35745 7.68839 4.3147 7.58076 4.23795 7.49938C4.1612 7.41801 4.05625 7.36904 3.94459 7.3625ZM7.99459 4.933C7.93579 4.93101 7.87719 4.94088 7.82229 4.96201C7.76738 4.98314 7.71729 5.0151 7.67499 5.05599C7.6327 5.09688 7.59906 5.14587 7.57609 5.20003C7.55312 5.25419 7.54128 5.31242 7.54128 5.37125C7.54128 5.43008 7.55312 5.48831 7.57609 5.54247C7.59906 5.59663 7.6327 5.64561 7.67499 5.68651C7.71729 5.7274 7.76738 5.75936 7.82229 5.78049C7.87719 5.80162 7.93579 5.81148 7.99459 5.8095C8.10825 5.80566 8.21599 5.7578 8.29504 5.67604C8.37409 5.59427 8.41828 5.48498 8.41828 5.37125C8.41828 5.25751 8.37409 5.14823 8.29504 5.06646C8.21599 4.98469 8.10825 4.93684 7.99459 4.933ZM10.0191 3.718C9.96029 3.71608 9.9017 3.72601 9.84682 3.74721C9.79194 3.7684 9.74189 3.80042 9.69964 3.84136C9.65739 3.8823 9.62381 3.93132 9.6009 3.98551C9.57799 4.03969 9.56622 4.09794 9.56629 4.15677C9.56636 4.2156 9.57826 4.27381 9.60129 4.32794C9.62433 4.38208 9.65802 4.43102 9.70036 4.47187C9.7427 4.51271 9.79283 4.54462 9.84776 4.56568C9.90269 4.58675 9.96129 4.59655 10.0201 4.5945C10.1338 4.59053 10.2414 4.54255 10.3204 4.4607C10.3994 4.37884 10.4434 4.2695 10.4433 4.15576C10.4432 4.04203 10.3988 3.93279 10.3197 3.85112C10.2405 3.76944 10.1328 3.72171 10.0191 3.718ZM10.0191 8.5775C9.96157 8.57753 9.90462 8.58889 9.85149 8.61093C9.79836 8.63298 9.7501 8.66527 9.70945 8.70596C9.6688 8.74666 9.63656 8.79496 9.61458 8.84811C9.5926 8.90127 9.5813 8.95823 9.58134 9.01575C9.58137 9.07327 9.59273 9.13022 9.61477 9.18334C9.63681 9.23647 9.6691 9.28474 9.7098 9.32539C9.75049 9.36604 9.7988 9.39827 9.85195 9.42025C9.9051 9.44223 9.96207 9.45353 10.0196 9.4535C10.1358 9.45343 10.2471 9.40722 10.3292 9.32503C10.4113 9.24285 10.4574 9.13141 10.4573 9.01525C10.4573 8.89908 10.4111 8.7877 10.3289 8.70561C10.2467 8.62351 10.1353 8.57743 10.0191 8.5775ZM12.0436 7.3625C11.9319 7.36904 11.827 7.41801 11.7502 7.49938C11.6735 7.58076 11.6307 7.68839 11.6307 7.80025C11.6307 7.91211 11.6735 8.01974 11.7502 8.10111C11.827 8.18249 11.9319 8.23146 12.0436 8.238C12.1553 8.23146 12.2602 8.18249 12.337 8.10111C12.4137 8.01974 12.4565 7.91211 12.4565 7.80025C12.4565 7.68839 12.4137 7.58076 12.337 7.49938C12.2602 7.41801 12.1553 7.36904 12.0436 7.3625ZM10.0191 11.007C9.96153 11.007 9.90455 11.0184 9.85139 11.0405C9.79824 11.0625 9.74994 11.0948 9.70927 11.1355C9.6686 11.1763 9.63634 11.2246 9.61435 11.2778C9.59236 11.331 9.58105 11.3879 9.58109 11.4455C9.58112 11.503 9.59249 11.56 9.61454 11.6132C9.6366 11.6663 9.6689 11.7146 9.70962 11.7553C9.75034 11.796 9.79867 11.8282 9.85186 11.8502C9.90504 11.8722 9.96203 11.8835 10.0196 11.8835C10.1358 11.8834 10.2473 11.8372 10.3294 11.755C10.4115 11.6727 10.4577 11.5612 10.4576 11.445C10.4575 11.3288 10.4113 11.2173 10.329 11.1352C10.2468 11.053 10.1353 11.0069 10.0191 11.007ZM12.0436 9.792C11.931 9.79738 11.8249 9.84587 11.7471 9.92742C11.6694 10.009 11.626 10.1173 11.626 10.23C11.626 10.3427 11.6694 10.451 11.7471 10.5326C11.8249 10.6141 11.931 10.6626 12.0436 10.668C12.1561 10.6626 12.2623 10.6141 12.34 10.5326C12.4178 10.451 12.4612 10.3427 12.4612 10.23C12.4612 10.1173 12.4178 10.009 12.34 9.92742C12.2623 9.84587 12.1561 9.79738 12.0436 9.792ZM7.99459 12.222C7.88292 12.2285 7.77797 12.2775 7.70122 12.3589C7.62447 12.4403 7.58172 12.5479 7.58172 12.6597C7.58172 12.7716 7.62447 12.8792 7.70122 12.9606C7.77797 13.042 7.88292 13.091 7.99459 13.0975C8.11062 13.0974 8.22188 13.0512 8.30398 12.9692C8.38607 12.8872 8.43232 12.776 8.43259 12.66C8.43245 12.5439 8.38626 12.4325 8.30415 12.3504C8.22204 12.2683 8.11071 12.2221 7.99459 12.222ZM7.99459 9.792C7.937 9.79203 7.87999 9.80341 7.8268 9.82547C7.77361 9.84754 7.72529 9.87987 7.68459 9.92061C7.6439 9.96135 7.61163 10.0097 7.58962 10.0629C7.56761 10.1161 7.5563 10.1732 7.55634 10.2307C7.55637 10.2883 7.56774 10.3453 7.58981 10.3985C7.61188 10.4517 7.6442 10.5 7.68495 10.5407C7.72569 10.5814 7.77405 10.6137 7.82726 10.6357C7.88047 10.6577 7.9375 10.669 7.99509 10.669C8.11138 10.6689 8.22289 10.6227 8.30508 10.5404C8.38727 10.4581 8.4334 10.3465 8.43334 10.2302C8.43327 10.114 8.38701 10.0024 8.30473 9.92025C8.22244 9.83807 8.11088 9.79193 7.99459 9.792ZM5.96959 6.1475C5.85792 6.15404 5.75297 6.20301 5.67622 6.28438C5.59947 6.36576 5.55672 6.47339 5.55672 6.58525C5.55672 6.69711 5.59947 6.80474 5.67622 6.88611C5.75297 6.96749 5.85792 7.01646 5.96959 7.023C6.08051 7.01549 6.18444 6.96614 6.26035 6.88492C6.33626 6.8037 6.37849 6.69667 6.37849 6.5855C6.37849 6.47432 6.33626 6.3673 6.26035 6.28608C6.18444 6.20486 6.08051 6.155 5.96959 6.1475ZM5.96959 11.007C5.85792 11.0135 5.75297 11.0625 5.67622 11.1439C5.59947 11.2253 5.55672 11.3329 5.55672 11.4447C5.55672 11.5566 5.59947 11.6642 5.67622 11.7456C5.75297 11.827 5.85792 11.876 5.96959 11.8825C6.08125 11.876 6.1862 11.827 6.26295 11.7456C6.3397 11.6642 6.38245 11.5566 6.38245 11.4447C6.38245 11.3329 6.3397 11.2253 6.26295 11.1439C6.1862 11.0625 6.08125 11.0135 5.96959 11.007Z" fill="white"/>
</g>
<defs>
<clipPath id="clip0_7_8075">
<rect width="16" height="16" fill="white"/>
</clipPath>
</defs>
</svg>
