<svg width="16" height="16" viewBox="0 0 16 16" fill="none" xmlns="http://www.w3.org/2000/svg">
<g clip-path="url(#clip0_7_8016)">
<path d="M7.9995 15.999C12.4175 15.999 15.999 12.4175 15.999 7.9995C15.999 3.5815 12.4175 0 7.9995 0C3.5815 0 0 3.5815 0 7.9995C0 12.4175 3.5815 15.999 7.9995 15.999Z" fill="#F04086"/>
<path d="M11.7188 8.377C11.4038 8.029 10.9508 7.813 10.3588 7.729V7.7165C10.8773 7.6325 11.2848 7.42 11.5618 7.08C11.8429 6.74281 11.9956 6.31699 11.9928 5.878C11.9928 5.1475 11.7578 4.651 11.2708 4.2605C10.7838 3.8705 10.0528 3.742 9.06233 3.742H5.32183V7.2235H3.17383V8.557H9.03733C9.49883 8.557 9.84533 8.5895 10.0743 8.774C10.3033 8.9585 10.4203 9.197 10.4203 9.5495C10.4203 9.902 10.3048 10.203 10.0743 10.392C9.84433 10.5805 9.49733 10.705 9.03733 10.705H7.02533V9.668H5.32183V12.0385H9.18533C10.1678 12.0385 10.9188 11.782 11.4398 11.3835C11.9603 10.985 12.2048 10.3965 12.2048 9.674C12.2113 9.196 12.0378 8.73304 11.7188 8.377ZM8.82233 7.22H7.02533V5.072H8.82233C9.74633 5.072 10.2073 5.4325 10.2073 6.146C10.2073 6.8595 9.74633 7.22 8.82233 7.22Z" fill="white"/>
</g>
<defs>
<clipPath id="clip0_7_8016">
<rect width="16" height="16" fill="white"/>
</clipPath>
</defs>
</svg>
