<svg width="16" height="16" viewBox="0 0 16 16" fill="none" xmlns="http://www.w3.org/2000/svg">
<g clip-path="url(#clip0_7_8056)">
<path d="M8 16C12.4183 16 16 12.4183 16 8C16 3.58172 12.4183 0 8 0C3.58172 0 0 3.58172 0 8C0 12.4183 3.58172 16 8 16Z" fill="#2C76B7"/>
<path d="M7.061 10.413L6.308 9.989C6.118 10.2465 5.809 10.414 5.459 10.414C5.109 10.414 4.799 10.246 4.6095 9.9875L4.365 10.126C4.38681 10.1783 4.39803 10.2344 4.398 10.291C4.39728 10.3492 4.3851 10.4068 4.36214 10.4603C4.33919 10.5138 4.30592 10.5623 4.26422 10.603C4.22253 10.6437 4.17323 10.6757 4.11914 10.6974C4.06506 10.719 4.00724 10.7297 3.949 10.729C3.701 10.729 3.5 10.533 3.5 10.291C3.5 10.049 3.701 9.8525 3.949 9.8525C4.0935 9.8525 4.2215 9.919 4.304 10.0225L4.544 9.8865C4.45897 9.73648 4.41435 9.56695 4.4145 9.3945C4.4145 8.8445 4.8605 8.3965 5.4185 8.3755V7.5985C4.875 7.5775 4.4415 7.141 4.4415 6.6055C4.4415 6.4355 4.4855 6.2745 4.563 6.1345L4.308 5.9925C4.26556 6.04722 4.21112 6.09146 4.14888 6.1218C4.08663 6.15214 4.01825 6.16778 3.949 6.1675C3.701 6.1675 3.5 5.971 3.5 5.729C3.5 5.487 3.701 5.291 3.949 5.291C4.197 5.291 4.398 5.487 4.398 5.729C4.398 5.785 4.387 5.839 4.3675 5.888L4.6275 6.033C4.8115 5.778 5.1155 5.612 5.459 5.612C5.81 5.612 6.119 5.785 6.302 6.0485L7.0685 5.624C6.9985 5.488 6.9585 5.334 6.9585 5.1715C6.9585 4.6355 7.3875 4.1975 7.9285 4.1665V3.8725C7.82224 3.8593 7.72438 3.80798 7.65311 3.72806C7.58184 3.64815 7.542 3.54507 7.541 3.438C7.541 3.196 7.742 3 7.99 3C8.238 3 8.439 3.196 8.439 3.438C8.439 3.66 8.27 3.843 8.051 3.8725V4.1665C8.592 4.1975 9.021 4.6355 9.021 5.1715C9.021 5.3345 8.981 5.489 8.9105 5.6255L9.6755 6.056C9.76949 5.91565 9.89675 5.80074 10.0459 5.72153C10.1951 5.64231 10.3616 5.60125 10.5305 5.602C10.885 5.602 11.1965 5.7785 11.379 6.0465L11.6315 5.886C11.6119 5.83598 11.6019 5.78272 11.602 5.729C11.602 5.487 11.803 5.291 12.051 5.291C12.299 5.291 12.5 5.487 12.5 5.729C12.5 5.971 12.299 6.1675 12.051 6.1675C11.9815 6.16776 11.9128 6.15196 11.8504 6.12135C11.7879 6.09074 11.7334 6.04613 11.691 5.991L11.441 6.15C11.5095 6.284 11.5485 6.435 11.5485 6.5955C11.5485 7.141 11.0985 7.584 10.541 7.589V8.398C11.106 8.403 11.562 8.852 11.562 9.4045C11.562 9.572 11.52 9.73 11.4455 9.8695L11.7025 10.0145C11.7451 9.96357 11.7985 9.92266 11.8587 9.89466C11.9189 9.86667 11.9846 9.85227 12.051 9.8525C12.299 9.8525 12.5 10.049 12.5 10.291C12.5 10.533 12.299 10.729 12.051 10.729C11.9928 10.7297 11.9349 10.719 11.8809 10.6974C11.8268 10.6757 11.7775 10.6437 11.7358 10.603C11.6941 10.5623 11.6608 10.5138 11.6379 10.4603C11.6149 10.4068 11.6027 10.3492 11.602 10.291C11.6019 10.2309 11.6145 10.1714 11.639 10.1165L11.3825 9.9715C11.197 10.2365 10.8845 10.411 10.5305 10.411C10.18 10.411 9.8705 10.24 9.684 9.979L8.917 10.4105C9.0005 10.558 9.048 10.728 9.048 10.9085C9.048 11.452 8.618 11.8975 8.0715 11.9385V12.1305C8.17365 12.1479 8.26645 12.2006 8.33363 12.2795C8.40082 12.3584 8.43812 12.4584 8.439 12.562C8.43828 12.6202 8.4261 12.6778 8.40314 12.7313C8.38019 12.7848 8.34692 12.8333 8.30522 12.874C8.26353 12.9147 8.21423 12.9467 8.16014 12.9684C8.10606 12.99 8.04824 13.0007 7.99 13C7.93176 13.0007 7.87394 12.99 7.81986 12.9684C7.76577 12.9467 7.71647 12.9147 7.67478 12.874C7.63308 12.8333 7.59981 12.7848 7.57686 12.7313C7.5539 12.6778 7.54172 12.6202 7.541 12.562C7.541 12.333 7.72 12.1455 7.949 12.1255V11.9405C7.384 11.9195 6.932 11.4655 6.932 10.9085C6.932 10.7285 6.9785 10.56 7.061 10.413ZM7.126 10.3115C7.22535 10.1758 7.35544 10.0655 7.50562 9.98969C7.65579 9.91391 7.82179 9.87478 7.99 9.8755C8.345 9.8755 8.66 10.047 8.852 10.3095L9.62 9.877C9.54079 9.73212 9.49934 9.56962 9.4995 9.4045C9.4995 8.8855 9.9015 8.4585 10.4185 8.4035V7.5835C9.909 7.5285 9.513 7.1075 9.513 6.5955C9.513 6.4395 9.5495 6.2915 9.6155 6.1605L8.8485 5.7285C8.6635 5.9995 8.3485 6.178 7.99 6.178C7.631 6.178 7.315 5.999 7.13 5.728L6.365 6.1515C6.4365 6.2875 6.477 6.4415 6.477 6.6055C6.477 7.1275 6.065 7.5555 5.541 7.5955V8.378C6.0795 8.418 6.504 8.858 6.504 9.3945C6.504 9.5735 6.4565 9.7415 6.3735 9.888L7.126 10.3115ZM5.459 9.9285C5.7615 9.9285 6.0065 9.6895 6.0065 9.3945C6.0065 9.0995 5.7615 8.8605 5.459 8.8605C5.157 8.8605 4.912 9.0995 4.912 9.3945C4.912 9.6895 5.157 9.9285 5.459 9.9285ZM5.459 7.126C5.754 7.126 5.9925 6.893 5.9925 6.606C5.9925 6.319 5.7535 6.085 5.459 6.085C5.1645 6.085 4.926 6.318 4.926 6.6055C4.926 6.893 5.1645 7.126 5.459 7.126ZM7.99 5.6985C8.288 5.6985 8.53 5.4625 8.53 5.1715C8.53 4.88 8.288 4.644 7.99 4.644C7.6915 4.644 7.45 4.88 7.45 5.1715C7.45 5.4625 7.6915 5.6985 7.99 5.6985ZM10.5305 7.116C10.8255 7.116 11.064 6.883 11.064 6.596C11.064 6.308 10.825 6.075 10.5305 6.075C10.236 6.075 9.9975 6.308 9.9975 6.5955C9.9975 6.883 10.236 7.116 10.5305 7.116ZM10.5305 9.9315C10.829 9.9315 11.0705 9.6955 11.0705 9.4045C11.0705 9.113 10.829 8.877 10.5305 8.877C10.2325 8.877 9.9905 9.113 9.9905 9.4045C9.9905 9.6955 10.2325 9.9315 10.5305 9.9315ZM7.99 11.45C8.296 11.45 8.544 11.2075 8.544 10.909C8.544 10.6105 8.296 10.368 7.99 10.368C7.6835 10.368 7.4355 10.61 7.4355 10.909C7.4355 11.208 7.6835 11.45 7.99 11.45ZM7.99 9.46C7.164 9.46 6.4945 8.8065 6.4945 8.0005C6.4945 7.1945 7.164 6.5405 7.9895 6.5405C8.816 6.5405 9.4855 7.1945 9.4855 8.0005C9.4855 8.8065 8.8155 9.46 7.99 9.46ZM7.99 8.5725C8.3135 8.5725 8.576 8.3165 8.576 8.0005C8.576 7.6845 8.3135 7.4285 7.99 7.4285C7.666 7.4285 7.4035 7.6845 7.4035 8.0005C7.4035 8.3165 7.666 8.5725 7.99 8.5725Z" fill="white"/>
</g>
<defs>
<clipPath id="clip0_7_8056">
<rect width="16" height="16" fill="white"/>
</clipPath>
</defs>
</svg>
