<svg width="16" height="16" viewBox="0 0 16 16" fill="none" xmlns="http://www.w3.org/2000/svg">
<g clip-path="url(#clip0_7_7996)">
<path d="M8 16C12.4183 16 16 12.4183 16 8C16 3.58172 12.4183 0 8 0C3.58172 0 0 3.58172 0 8C0 12.4183 3.58172 16 8 16Z" fill="#404040"/>
<path d="M8 13.5C4.9625 13.5 2.5 11.0375 2.5 8C2.5 4.9625 4.9625 2.5 8 2.5C11.0375 2.5 13.5 4.9625 13.5 8C13.5 11.0375 11.0375 13.5 8 13.5ZM8 12.949C10.733 12.949 12.949 10.733 12.949 8C12.949 5.267 10.733 3.051 8 3.051C5.267 3.051 3.051 5.267 3.051 8C3.051 10.733 5.267 12.949 8 12.949ZM11.0215 6.06C11.104 7.529 9.7465 7.917 9.7465 7.917C11.298 8.1385 11.215 9.469 11.215 9.469C11.215 11.63 8.804 11.7145 8.804 11.7145H5.4225V4.286H8.4715C11.0215 4.397 11.0215 6.06 11.0215 6.06ZM7.1685 5.6165V7.4175H8.3885C8.3885 7.4175 9.2475 7.39 9.3025 6.697V6.2535C9.3025 6.2535 9.3025 5.672 8.471 5.6165H7.1685ZM9.4685 9.6915V9.2475C9.4685 9.2475 9.4685 8.665 8.6375 8.6095H7.168V10.412H8.5545C8.5545 10.412 9.4135 10.3845 9.469 9.691L9.4685 9.6915Z" fill="white"/>
</g>
<defs>
<clipPath id="clip0_7_7996">
<rect width="16" height="16" fill="white"/>
</clipPath>
</defs>
</svg>
