<svg width="16" height="16" viewBox="0 0 16 16" fill="none" xmlns="http://www.w3.org/2000/svg">
<g clip-path="url(#clip0_7_7909)">
<path d="M8 16C12.4183 16 16 12.4183 16 8C16 3.58172 12.4183 0 8 0C3.58172 0 0 3.58172 0 8C0 12.4183 3.58172 16 8 16Z" fill="#E54C40"/>
<path d="M4.66407 4.3085C4.65407 4.235 4.72307 4.191 4.76257 4.141C5.25961 3.64921 5.75428 3.15504 6.24657 2.6585C6.23957 4.0165 6.25057 5.3745 6.24107 6.7325C7.26557 6.1675 8.55607 6.1425 9.60907 6.6485C9.60807 6.736 9.60807 6.823 9.60807 6.911C8.76757 6.459 7.73407 6.401 6.83757 6.716C5.80607 7.071 4.98407 7.9445 4.66257 8.984C4.66407 7.425 4.66207 5.867 4.66407 4.3085ZM11.3591 10.1395C11.3278 10.9661 10.9896 11.7513 10.4106 12.342C9.86611 12.9016 9.14322 13.2534 8.3669 13.3364C7.59057 13.4195 6.80962 13.2287 6.15907 12.797C5.41907 12.31 4.88407 11.52 4.72007 10.649C4.57757 9.959 4.67407 9.2265 4.97057 8.589C5.30749 7.872 5.88592 7.2964 6.60457 6.963C7.54657 6.519 8.69457 6.5565 9.60657 7.059C9.60107 7.806 9.60157 8.553 9.60707 9.3C9.45807 8.9915 9.23707 8.7155 8.94457 8.5325C8.36607 8.159 7.56207 8.1765 7.00357 8.5815C6.38857 9.0045 6.11107 9.8435 6.35557 10.549C6.57407 11.2445 7.26557 11.755 7.99657 11.747C8.69957 11.7645 9.37807 11.305 9.62957 10.6495C9.78957 10.278 9.74957 9.8675 9.75307 9.4745C9.75607 7.447 9.74807 5.4195 9.74907 3.3925C9.74957 3.1375 9.75407 2.8825 9.73907 2.6285C10.2841 3.1655 10.8241 3.709 11.3641 4.2515C11.3531 6.214 11.3641 8.1765 11.3591 10.14V10.1395Z" fill="white"/>
</g>
<defs>
<clipPath id="clip0_7_7909">
<rect width="16" height="16" fill="white"/>
</clipPath>
</defs>
</svg>
