<svg width="16" height="16" viewBox="0 0 16 16" fill="none" xmlns="http://www.w3.org/2000/svg">
<g clip-path="url(#clip0_7_7788)">
<path d="M8 16C12.4183 16 16 12.4183 16 8C16 3.58172 12.4183 0 8 0C3.58172 0 0 3.58172 0 8C0 12.4183 3.58172 16 8 16Z" fill="#0B76FF"/>
<path d="M13.58 6.33V5.23L10 7.315L7.79 3.505V6.005L8.915 7.955L8.46 8.225L7.79 7.045L7.07 8.325L6.57 8.12L7.79 6.005V3.505L5.37 7.625L2 6.23V7.505L5 8.245L3.1 11.505H7.79V10.16H5.395L6.29 8.59L6.83 8.725L6.29 9.675H9.29L8.84 8.88L9.435 8.835L10.2 10.16H7.79V11.505H12.5L10.88 8.74L13.6 8.54V7.435L10.54 8.19L13.595 7.405V6.405L10.28 7.75L13.58 6.33ZM9.23 8.505L8.69 8.64L9.22 8.505H9.23ZM9.06 8.205L8.56 8.405L9.06 8.2V8.205Z" fill="white"/>
</g>
<defs>
<clipPath id="clip0_7_7788">
<rect width="16" height="16" fill="white"/>
</clipPath>
</defs>
</svg>
