<svg width="16" height="16" viewBox="0 0 16 16" fill="none" xmlns="http://www.w3.org/2000/svg">
<g clip-path="url(#clip0_7_8097)">
<path d="M8 16C12.4183 16 16 12.4183 16 8C16 3.58172 12.4183 0 8 0C3.58172 0 0 3.58172 0 8C0 12.4183 3.58172 16 8 16Z" fill="#13A0F6"/>
<path fill-rule="evenodd" clip-rule="evenodd" d="M4.14835 5.784C3.95263 5.68135 3.78874 5.5271 3.67443 5.33796C3.56012 5.14882 3.49974 4.932 3.49985 4.711C3.41439 4.54896 3.3669 4.36961 3.36098 4.18651C3.35506 4.00341 3.39086 3.82137 3.46568 3.65414C3.54049 3.48692 3.65236 3.33891 3.79281 3.2213C3.93327 3.10369 4.09864 3.01956 4.2764 2.97529C4.45416 2.93101 4.63967 2.92775 4.81888 2.96574C4.99809 3.00373 5.16631 3.08199 5.31082 3.19458C5.45533 3.30718 5.57233 3.45116 5.65298 3.61565C5.73363 3.78013 5.77582 3.96081 5.77635 4.144C6.45907 3.74475 7.23595 3.53487 8.02685 3.536C10.4968 3.536 12.4998 5.543 12.4998 8.018C12.4998 10.493 10.4973 12.5 8.02685 12.5C5.55635 12.5 3.55385 10.4935 3.55385 8.018C3.55269 7.23409 3.75772 6.46366 4.14835 5.784ZM8.02685 10.223C9.24185 10.223 10.2268 9.236 10.2268 8.018C10.2268 6.8 9.24185 5.813 8.02685 5.813C6.81185 5.813 5.82685 6.8005 5.82685 8.018C5.82685 9.2355 6.81185 10.223 8.02685 10.223Z" fill="white"/>
</g>
<defs>
<clipPath id="clip0_7_8097">
<rect width="16" height="16" fill="white"/>
</clipPath>
</defs>
</svg>
