<svg width="16" height="16" viewBox="0 0 16 16" fill="none" xmlns="http://www.w3.org/2000/svg">
<g clip-path="url(#clip0_7_8068)">
<path d="M8 16C12.4183 16 16 12.4183 16 8C16 3.58172 12.4183 0 8 0C3.58172 0 0 3.58172 0 8C0 12.4183 3.58172 16 8 16Z" fill="black"/>
<path d="M8.4705 12.2885C8.4965 12.3495 8.5105 12.416 8.5105 12.486C8.5105 12.77 8.2765 13 7.988 13C7.6995 13 7.4655 12.77 7.4655 12.486C7.4655 12.418 7.479 12.353 7.5035 12.2935L4.3985 10.53C4.34945 10.5799 4.29092 10.6195 4.22635 10.6465C4.16178 10.6734 4.09247 10.6872 4.0225 10.687C3.734 10.687 3.5 10.457 3.5 10.173C3.5 9.933 3.6665 9.732 3.892 9.675V6.1615C3.78058 6.13392 3.68153 6.06997 3.61053 5.97977C3.53954 5.88958 3.50064 5.77828 3.5 5.6635C3.5 5.3795 3.734 5.1495 4.0225 5.1495C4.1955 5.1495 4.349 5.2325 4.4445 5.3605L7.4805 3.6355C7.47041 3.59579 7.46537 3.55497 7.4655 3.514C7.4655 3.23 7.7 3 7.988 3C8.066 2.99959 8.14309 3.01679 8.21352 3.05032C8.28395 3.08384 8.34592 3.13282 8.39479 3.19362C8.44366 3.25441 8.47819 3.32544 8.4958 3.40143C8.51341 3.47742 8.51365 3.55641 8.4965 3.6325L11.5505 5.3675C11.6455 5.2355 11.801 5.1495 11.9775 5.1495C12.266 5.1495 12.5 5.3795 12.5 5.6635C12.5 5.9035 12.3325 6.1055 12.1065 6.162L12.0975 9.672C12.328 9.7255 12.5 9.9295 12.5 10.173C12.5 10.457 12.266 10.687 11.9775 10.687C11.9046 10.6872 11.8324 10.6721 11.7656 10.6429C11.6988 10.6136 11.6388 10.5707 11.5895 10.517L8.4705 12.2885ZM8.331 12.0985L11.4745 10.3125C11.4451 10.2104 11.4486 10.1015 11.4845 10.0015L8.452 8.0515C8.39388 8.11296 8.32379 8.16188 8.24606 8.19524C8.16833 8.2286 8.08459 8.24571 8 8.2455C7.90572 8.24573 7.81263 8.22447 7.72781 8.18331C7.64298 8.14216 7.56866 8.0822 7.5105 8.008L4.522 10.0215C4.55332 10.1219 4.55262 10.2295 4.52 10.3295L7.641 12.102C7.73702 12.0179 7.86038 11.9717 7.988 11.972C8.1195 11.972 8.2395 12.0195 8.331 12.098V12.0985ZM8.3905 3.842C8.31939 3.92592 8.22372 3.98538 8.117 4.012L8.109 7.04C8.25054 7.06398 8.3791 7.13708 8.4721 7.24644C8.5651 7.35581 8.61658 7.49444 8.6175 7.638C8.6175 7.7135 8.6035 7.7865 8.5775 7.853L11.6125 9.805C11.68 9.74 11.765 9.6935 11.86 9.672L11.869 6.1665C11.7398 6.14016 11.6256 6.06542 11.5497 5.95758C11.4739 5.84975 11.4421 5.71699 11.461 5.5865L8.3905 3.842ZM7.588 3.8445L4.5375 5.577C4.55916 5.70904 4.52873 5.84433 4.45263 5.95438C4.37653 6.06443 4.26068 6.14066 4.1295 6.167V9.6695C4.2355 9.6915 4.3295 9.7445 4.4015 9.8195L7.404 7.797C7.38286 7.71677 7.37832 7.63308 7.39063 7.55104C7.40295 7.469 7.43187 7.39033 7.47563 7.31985C7.51939 7.24936 7.57707 7.18855 7.64513 7.14112C7.7132 7.09369 7.79023 7.06064 7.8715 7.044L7.8795 4.017C7.7659 3.99339 7.66337 3.93271 7.588 3.8445Z" fill="white"/>
</g>
<defs>
<clipPath id="clip0_7_8068">
<rect width="16" height="16" fill="white"/>
</clipPath>
</defs>
</svg>
