<svg width="16" height="16" viewBox="0 0 16 16" fill="none" xmlns="http://www.w3.org/2000/svg">
<g clip-path="url(#clip0_7_8036)">
<path d="M8 16C12.4183 16 16 12.4183 16 8C16 3.58172 12.4183 0 8 0C3.58172 0 0 3.58172 0 8C0 12.4183 3.58172 16 8 16Z" fill="#2AABE4"/>
<path fill-rule="evenodd" clip-rule="evenodd" d="M3.95 3.5H7.05C7.16935 3.5 7.28381 3.54741 7.3682 3.6318C7.45259 3.71619 7.5 3.83065 7.5 3.95V7.05C7.5 7.16935 7.45259 7.28381 7.3682 7.3682C7.28381 7.45259 7.16935 7.5 7.05 7.5H3.95C3.83065 7.5 3.71619 7.45259 3.6318 7.3682C3.54741 7.28381 3.5 7.16935 3.5 7.05V3.95C3.5 3.83065 3.54741 3.71619 3.6318 3.6318C3.71619 3.54741 3.83065 3.5 3.95 3.5ZM8.95 3.5H12.05C12.1693 3.5 12.2838 3.54741 12.3682 3.6318C12.4526 3.71619 12.5 3.83065 12.5 3.95V7.05C12.5 7.16935 12.4526 7.28381 12.3682 7.3682C12.2838 7.45259 12.1693 7.5 12.05 7.5H8.95C8.83065 7.5 8.71619 7.45259 8.6318 7.3682C8.54741 7.28381 8.5 7.16935 8.5 7.05V3.95C8.5 3.83065 8.54741 3.71619 8.6318 3.6318C8.71619 3.54741 8.83065 3.5 8.95 3.5ZM8.95 8.5H12.05C12.1693 8.5 12.2838 8.54741 12.3682 8.6318C12.4526 8.71619 12.5 8.83065 12.5 8.95V12.05C12.5 12.1693 12.4526 12.2838 12.3682 12.3682C12.2838 12.4526 12.1693 12.5 12.05 12.5H8.95C8.83065 12.5 8.71619 12.4526 8.6318 12.3682C8.54741 12.2838 8.5 12.1693 8.5 12.05V8.95C8.5 8.83065 8.54741 8.71619 8.6318 8.6318C8.71619 8.54741 8.83065 8.5 8.95 8.5ZM3.95 8.5H7.05C7.16935 8.5 7.28381 8.54741 7.3682 8.6318C7.45259 8.71619 7.5 8.83065 7.5 8.95V12.05C7.5 12.1693 7.45259 12.2838 7.3682 12.3682C7.28381 12.4526 7.16935 12.5 7.05 12.5H3.95C3.83065 12.5 3.71619 12.4526 3.6318 12.3682C3.54741 12.2838 3.5 12.1693 3.5 12.05V8.95C3.5 8.83065 3.54741 8.71619 3.6318 8.6318C3.71619 8.54741 3.83065 8.5 3.95 8.5Z" fill="white"/>
</g>
<defs>
<clipPath id="clip0_7_8036">
<rect width="16" height="16" fill="white"/>
</clipPath>
</defs>
</svg>
