<svg width="16" height="16" viewBox="0 0 16 16" fill="none" xmlns="http://www.w3.org/2000/svg">
<g clip-path="url(#clip0_7_7706)">
<path d="M8 16C12.4183 16 16 12.4183 16 8C16 3.58172 12.4183 0 8 0C3.58172 0 0 3.58172 0 8C0 12.4183 3.58172 16 8 16Z" fill="#181818"/>
<path d="M11.55 5.565C11.5691 5.96462 11.4617 6.36009 11.243 6.69511C11.0243 7.03013 10.7055 7.28765 10.332 7.431C10.332 7.431 10.838 6.931 10.8145 5.6495C10.7905 4.368 9.8495 3.7345 9.8495 3.7345C9.8495 3.7345 11.5265 4.108 11.5495 5.5645L11.55 5.565ZM5.968 12.4095L4.25 12.494V12.3335C4.25 12.3335 5.3015 12.225 5.3015 10.3385V5.5185C5.3015 3.9215 4.25 3.645 4.25 3.645V3.5L5.968 3.584V12.4095ZM8.714 12.4995C7.9665 12.506 6.58 12.4015 6.58 12.4015V3.5965C7.494 3.584 7.8135 3.458 8.5665 3.5665C9.32 3.6745 9.967 4.427 10.1435 5.1795C10.32 5.932 10.132 6.6485 9.8905 7.0395C9.649 7.4305 9.12 7.702 9.12 7.702C9.12 7.702 9.92 7.979 10.2025 8.2195C10.485 8.4605 11.0325 9.1165 10.8205 10.5435C10.6085 11.9705 9.461 12.4935 8.714 12.4995ZM10.6995 12.1745C10.6995 12.1745 11.5145 11.4645 11.4785 10.024C11.4425 8.5835 10.6995 7.9065 10.6995 7.9065C10.6995 7.9065 12.2325 8.2915 12.2495 10.0075C12.2675 11.723 10.6995 12.1745 10.6995 12.1745ZM9.1495 7.0075C9.6985 6.277 9.526 4.9025 8.861 4.4325C8.196 3.9625 7.496 4.1975 7.361 4.33C7.225 4.4625 7.231 7.545 7.231 7.545C7.231 7.545 8.6005 7.738 9.1495 7.0075ZM9.251 8.32C8.737 8.091 7.231 8.151 7.231 8.151C7.231 8.151 7.2075 8.9295 7.2625 10.3865C7.3175 11.8435 7.804 11.8355 8.31 11.8555C8.816 11.8755 9.781 11.8395 10.0985 10.583C10.4165 9.327 9.765 8.5485 9.251 8.32Z" fill="white"/>
</g>
<defs>
<clipPath id="clip0_7_7706">
<rect width="16" height="16" fill="white"/>
</clipPath>
</defs>
</svg>
