<svg width="16" height="16" viewBox="0 0 16 16" fill="none" xmlns="http://www.w3.org/2000/svg">
<g clip-path="url(#clip0_7_7998)">
<path d="M8 16C12.4183 16 16 12.4183 16 8C16 3.58172 12.4183 0 8 0C3.58172 0 0 3.58172 0 8C0 12.4183 3.58172 16 8 16Z" fill="#101341"/>
<path fill-rule="evenodd" clip-rule="evenodd" d="M5.51132 3.5H10.6253L13.2503 8L10.6253 12.5H5.46582L8.04582 8L5.51082 3.5H5.51132ZM8.22632 5.083L9.90182 8L8.22682 10.917H9.72082L11.3948 8L9.71982 5.083H8.22632Z" fill="white"/>
<path opacity="0.5" fill-rule="evenodd" clip-rule="evenodd" d="M6.0565 5.513L4.6055 8L6.0435 10.465L5.124 12.0695L2.75 8L5.1445 3.8945L6.0565 5.513Z" fill="white"/>
</g>
<defs>
<clipPath id="clip0_7_7998">
<rect width="16" height="16" fill="white"/>
</clipPath>
</defs>
</svg>
