<svg width="16" height="16" viewBox="0 0 16 16" fill="none" xmlns="http://www.w3.org/2000/svg">
<g clip-path="url(#clip0_7_7982)">
<path d="M8 16C12.4183 16 16 12.4183 16 8C16 3.58172 12.4183 0 8 0C3.58172 0 0 3.58172 0 8C0 12.4183 3.58172 16 8 16Z" fill="#18578C"/>
<path d="M5.8165 10.168C6.1475 10.5055 6.1475 11.0525 5.8165 11.39C5.4855 11.7275 4.9485 11.7285 4.6165 11.3915C4.4565 11.2295 4.3665 11.009 4.3665 10.779C4.3665 10.549 4.4565 10.329 4.6165 10.1665C4.69467 10.0865 4.78806 10.023 4.89116 9.97969C4.99426 9.93637 5.10499 9.91413 5.21682 9.91427C5.32865 9.91441 5.43932 9.93693 5.54231 9.9805C5.6453 10.0241 5.73853 10.0878 5.8165 10.168ZM11.348 4.363C11.5042 4.43002 11.6373 4.5416 11.7305 4.68379C11.8237 4.82598 11.8729 4.99249 11.872 5.1625C11.872 5.5125 11.665 5.8275 11.348 5.9615C11.031 6.0955 10.6655 6.0215 10.423 5.774C10.2631 5.61065 10.1737 5.39108 10.174 5.1625C10.174 4.9325 10.2635 4.7125 10.423 4.551C10.5405 4.43039 10.6916 4.34799 10.8566 4.31454C11.0216 4.28109 11.1928 4.29816 11.348 4.3635V4.363ZM5.705 9.5015L6.5235 8.6635C6.60364 8.86875 6.72452 9.05564 6.87886 9.2129C7.0332 9.37016 7.21779 9.49453 7.4215 9.5785L6.601 10.414L5.705 9.5015ZM10.5535 6.433L9.733 7.269C9.65338 7.06369 9.53257 6.87685 9.378 6.72C9.22442 6.56335 9.0405 6.43966 8.8375 6.3565L9.6575 5.5205L10.5535 6.433ZM10.21 10.404C10.2728 10.2471 10.381 10.1125 10.5208 10.0174C10.6605 9.9224 10.8255 9.87124 10.9945 9.8705C11.338 9.8705 11.6475 10.081 11.779 10.404C11.91 10.7275 11.8375 11.099 11.595 11.3465C11.5169 11.4267 11.4235 11.4905 11.3204 11.5341C11.2173 11.5778 11.1065 11.6003 10.9945 11.6005C10.8826 11.6003 10.7719 11.5777 10.6689 11.534C10.5658 11.4904 10.4726 11.4267 10.3945 11.3465C10.2754 11.2244 10.1944 11.0702 10.1617 10.9028C10.1289 10.7354 10.1457 10.562 10.21 10.404ZM4.5175 4.755C4.58023 4.59799 4.68841 4.46329 4.82817 4.36816C4.96794 4.27302 5.13293 4.22178 5.302 4.221C5.6455 4.221 5.955 4.4315 6.0865 4.755C6.2175 5.078 6.145 5.45 5.9025 5.6975C5.82435 5.77763 5.73096 5.84134 5.62784 5.88487C5.52472 5.9284 5.41393 5.95089 5.302 5.951C5.19015 5.95082 5.07946 5.9283 4.97643 5.88477C4.8734 5.84124 4.7801 5.77757 4.702 5.6975C4.58286 5.5754 4.50195 5.42118 4.46917 5.25377C4.4364 5.08635 4.4532 4.91301 4.5175 4.755ZM9.59 10.377L8.7675 9.5435C8.97121 9.45953 9.1558 9.33516 9.31014 9.1779C9.46448 9.02064 9.58536 8.83375 9.6655 8.6285L10.4855 9.4645L9.59 10.377ZM6.6695 5.472L7.4895 6.3085C7.287 6.39059 7.10366 6.51367 6.951 6.67C6.797 6.827 6.6755 7.015 6.594 7.221L5.774 6.385L6.6695 5.472ZM8.1405 4.7315C7.671 4.7315 7.2905 4.344 7.2905 3.8655C7.2905 3.387 7.671 3 8.1405 3C8.3655 3 8.582 3.091 8.7415 3.2535C8.901 3.416 8.9905 3.636 8.99 3.8655C8.99 4.344 8.6105 4.7315 8.1405 4.7315ZM8.9905 12.1345C8.9905 12.6125 8.6095 13 8.1405 13C7.6715 13 7.2905 12.6125 7.2905 12.1345C7.2905 11.6565 7.671 11.2685 8.1405 11.2685C8.3655 11.2685 8.582 11.3595 8.7415 11.522C8.901 11.6845 8.9905 11.9045 8.99 12.1345H8.9905ZM8.449 5.1845V6.2565C8.27204 6.22523 8.09096 6.22523 7.914 6.2565V5.1845H8.449ZM8.449 9.7905V10.863H7.914V9.79C8.091 9.8215 8.272 9.822 8.449 9.7905ZM11.115 8.0945C11.0506 7.93634 11.0338 7.76283 11.0665 7.59524C11.0993 7.42764 11.1803 7.27326 11.2995 7.151C11.4171 7.03022 11.5683 6.94768 11.7335 6.91415C11.8987 6.88061 12.0701 6.89763 12.2255 6.963C12.543 7.097 12.75 7.413 12.75 7.763C12.75 7.993 12.6605 8.213 12.5015 8.3755C12.4033 8.47631 12.2813 8.55087 12.1468 8.59236C12.0123 8.63385 11.8696 8.64094 11.7316 8.61298C11.5937 8.58502 11.465 8.52291 11.3572 8.43233C11.2495 8.34175 11.1662 8.2256 11.115 8.0945ZM3.25 7.91C3.25 7.432 3.63 7.0445 4.1 7.0445C4.569 7.0445 4.9495 7.4315 4.95 7.9095C4.95 8.1395 4.86 8.3595 4.701 8.522C4.62274 8.60213 4.52926 8.66582 4.42606 8.70935C4.32286 8.75288 4.21201 8.77537 4.1 8.7755C3.6305 8.7755 3.25 8.388 3.25 7.9105V7.91ZM10.7915 8.1825L9.7395 8.1815C9.77018 8.00113 9.77018 7.81687 9.7395 7.6365H10.7915V8.1825ZM6.47 8.1825H5.4175V7.6375H6.47C6.43932 7.81787 6.43932 8.00213 6.47 8.1825ZM8.115 9.201C7.4495 9.201 6.91 8.6515 6.91 7.974C6.91 7.2965 7.4495 6.7465 8.115 6.7465C8.78 6.7465 9.3195 7.2965 9.32 7.974C9.32 8.6515 8.78 9.201 8.115 9.201Z" fill="white"/>
</g>
<defs>
<clipPath id="clip0_7_7982">
<rect width="16" height="16" fill="white"/>
</clipPath>
</defs>
</svg>
