<svg width="16" height="16" viewBox="0 0 16 16" fill="none" xmlns="http://www.w3.org/2000/svg">
<g clip-path="url(#clip0_7_8027)">
<path d="M8 16C12.4183 16 16 12.4183 16 8C16 3.58172 12.4183 0 8 0C3.58172 0 0 3.58172 0 8C0 12.4183 3.58172 16 8 16Z" fill="#000D2B"/>
<path d="M7.9598 2.94L5.7008 4.2635L7.9598 5.5875L10.2613 4.2635L7.9598 2.94ZM8.3313 10.007V12.6545L11.3998 10.904V8.256L8.3313 10.007ZM10.6328 5.096V7.744L8.3308 9.068V6.42L10.6328 5.096ZM5.0918 7.744L7.3938 9.068V6.42L5.0918 5.096V7.744ZM5.0918 11.331L7.3938 12.6545V10.007L5.0918 8.6835V11.3305V11.331Z" fill="white"/>
</g>
<defs>
<clipPath id="clip0_7_8027">
<rect width="16" height="16" fill="white"/>
</clipPath>
</defs>
</svg>
