<svg width="16" height="16" viewBox="0 0 16 16" fill="none" xmlns="http://www.w3.org/2000/svg">
<g clip-path="url(#clip0_7_8025)">
<path d="M8 16C12.4183 16 16 12.4183 16 8C16 3.58172 12.4183 0 8 0C3.58172 0 0 3.58172 0 8C0 12.4183 3.58172 16 8 16Z" fill="#FD7A3D"/>
<path d="M12.5976 9.7C12.9826 9.91 13.1111 10.393 12.8541 10.771C12.6406 11.149 12.1491 11.275 11.7641 11.065C11.6481 10.9981 11.5504 10.9038 11.4795 10.7903C11.4086 10.6767 11.3667 10.5475 11.3576 10.414H9.39007L8.44907 12.0095C8.44907 12.0305 8.42757 12.0515 8.40657 12.0725C8.62007 12.1985 8.77007 12.4505 8.77007 12.7235C8.77007 13.1435 8.40657 13.5 7.97857 13.5C7.55107 13.5 7.18757 13.164 7.18757 12.7235C7.18757 12.4505 7.33757 12.2195 7.55107 12.0725C7.55107 12.0515 7.52957 12.0305 7.50807 12.0095L6.56757 10.4145H4.60007C4.57857 10.687 4.42907 10.918 4.19357 11.0645C3.80857 11.2745 3.31707 11.149 3.10307 10.771C2.88907 10.393 3.01757 9.9105 3.40257 9.7005C3.65907 9.5535 3.93707 9.5535 4.17257 9.6795C4.19357 9.6585 4.19357 9.6165 4.21507 9.5955L5.17757 8L4.23657 6.405C4.21393 6.3819 4.19892 6.3524 4.19357 6.3205C3.95857 6.4255 3.65907 6.4465 3.42357 6.2995C3.33297 6.24952 3.25324 6.18199 3.18902 6.10086C3.1248 6.01973 3.07739 5.92662 3.04956 5.82696C3.02172 5.7273 3.01402 5.6231 3.0269 5.52043C3.03978 5.41776 3.07298 5.31869 3.12457 5.229C3.33807 4.851 3.83007 4.725 4.21507 4.935C4.47157 5.082 4.60007 5.334 4.62157 5.586H6.61007L7.55107 3.9905C7.55107 3.9695 7.57257 3.9485 7.59357 3.9275C7.48249 3.85901 7.39077 3.76323 7.32714 3.64928C7.26352 3.53534 7.2301 3.40701 7.23007 3.2765C7.23007 2.8565 7.59357 2.5 8.02157 2.5C8.44907 2.5 8.81257 2.836 8.81257 3.2765C8.81257 3.5495 8.66257 3.7805 8.44907 3.9275C8.44907 3.9485 8.47057 3.9695 8.49207 3.9905L9.43257 5.5855H11.4001C11.4216 5.313 11.5711 5.082 11.8066 4.9355C12.1916 4.7255 12.6831 4.851 12.8971 5.229C12.9486 5.31872 12.9818 5.41782 12.9947 5.52051C13.0075 5.6232 12.9998 5.72741 12.9719 5.82707C12.944 5.92673 12.8965 6.01984 12.8323 6.10096C12.768 6.18207 12.6882 6.24956 12.5976 6.2995C12.3411 6.4465 12.0631 6.4465 11.8276 6.3205C11.8066 6.3415 11.8066 6.3835 11.7851 6.4045L10.8441 8L11.7851 9.595C11.8077 9.6181 11.8227 9.6476 11.8281 9.6795C12.0631 9.5745 12.3626 9.5535 12.5981 9.7005L12.5976 9.7ZM9.02657 7.475C9.02657 7.0345 8.66307 6.6775 8.21407 6.6775H7.18757C7.1625 6.67717 7.1376 6.68181 7.11433 6.69114C7.09105 6.70048 7.06985 6.71434 7.05196 6.73191C7.03406 6.74948 7.01982 6.77042 7.01006 6.79352C7.0003 6.81662 6.9952 6.84142 6.99507 6.8665V9.1335C6.99507 9.2385 7.08057 9.3225 7.18757 9.3225H8.21407C8.66307 9.3225 9.02657 8.9655 9.02657 8.525C9.02657 8.336 8.96257 8.147 8.83407 8.021C8.94107 7.853 9.02657 7.685 9.02657 7.475Z" fill="white"/>
</g>
<defs>
<clipPath id="clip0_7_8025">
<rect width="16" height="16" fill="white"/>
</clipPath>
</defs>
</svg>
