<svg width="16" height="16" viewBox="0 0 16 16" fill="none" xmlns="http://www.w3.org/2000/svg">
<g clip-path="url(#clip0_7_7946)">
<path d="M8 16C12.4183 16 16 12.4183 16 8C16 3.58172 12.4183 0 8 0C3.58172 0 0 3.58172 0 8C0 12.4183 3.58172 16 8 16Z" fill="#00B4F4"/>
<path d="M3.8865 11.49V11.568H3.0815V10.0915L3.0565 10.173L2.2865 9.938L2.7215 8.515L2.6675 8.5945L2 8.1445L2.834 6.9075L2.7545 6.972L2.248 6.346L3.448 5.374L3.295 5.433L3.0065 4.681L4.44 4.131L4.2725 4.1425L4.2165 3.3395L5.7175 3.2345L5.5825 3.203L5.7635 2.418L7.1975 2.7495L7.107 2.6975L7.5095 2L8.7605 2.722L8.7115 2.67L9.3005 2.1205L10.2745 3.1655L10.254 3.1225L10.9775 2.7695L11.6025 4.0505L11.597 4.0145L12.392 3.8885L12.6265 5.3685L12.643 5.263L13.4385 5.389L13.2005 6.8905L13.2595 6.77L13.9835 7.123L13.3135 8.4965L13.411 8.3915L14 8.941L12.959 10.057L13.085 9.9845L13.4875 10.682L12.179 11.437L12.3105 11.407L12.4915 12.1915L11.0455 12.5255L11.157 12.533L11.1005 13.3365L9.653 13.235L9.727 13.2635L9.4385 14.015L8.0525 13.4835L8.14 13.554L7.6335 14.18L6.4895 13.254L6.546 13.3375L5.8785 13.7875L5.061 12.576L5.0855 12.6555L4.315 12.8905L3.8865 11.49ZM3.8865 10.533L4.3895 10.3795L4.7805 11.658L5.2155 11.3645L5.9585 12.4665L6.2905 12.0565L7.3205 12.8905L7.505 12.4105L8.746 12.887L8.7825 12.367L10.1105 12.46L9.991 11.9425L11.2935 11.6415L11.0235 11.1745L12.186 10.5035L11.7875 10.1325L12.706 9.1475L12.216 8.909L12.8065 7.6985L12.271 7.6135L12.481 6.2845L11.969 6.3655L11.759 5.0365L11.2975 5.2615L10.711 4.06L10.335 4.4105L9.428 3.438L9.168 3.8875L8.02 3.2245L7.9015 3.7385L6.6095 3.44L6.647 3.9765L5.321 4.069L5.517 4.58L4.2685 5.059L4.6045 5.474L3.556 6.323L3.9985 6.621L3.243 7.741L3.752 7.897L3.357 9.188H3.8865V10.533ZM5.6665 5.6085H7.29C7.479 5.6085 7.6665 5.622 7.853 5.6485C8.0395 5.675 8.2035 5.7285 8.345 5.8085C8.4865 5.8885 8.5945 6 8.668 6.1435C8.742 6.287 8.7625 6.478 8.7295 6.7155C8.697 6.962 8.5995 7.1655 8.4375 7.3275C8.2755 7.4895 8.0775 7.6055 7.844 7.675V7.6875C7.983 7.708 8.1075 7.748 8.216 7.8075C8.3245 7.867 8.414 7.9425 8.4835 8.035C8.5535 8.1275 8.6025 8.235 8.631 8.358C8.66 8.481 8.664 8.612 8.6435 8.7515C8.6105 8.9815 8.535 9.173 8.416 9.3265C8.29925 9.47858 8.15278 9.60532 7.9855 9.699C7.81253 9.7951 7.62561 9.86359 7.4315 9.902C7.2374 9.94228 7.03973 9.96288 6.8415 9.9635H5.0575L5.666 5.6085H5.6665ZM6.38 7.35H7.075C7.1485 7.35 7.2225 7.3415 7.2965 7.325C7.36887 7.30909 7.43836 7.28211 7.5025 7.245C7.56602 7.20818 7.62064 7.15782 7.6625 7.0975C7.7055 7.036 7.733 6.9625 7.7455 6.876C7.75963 6.80007 7.74985 6.72163 7.7175 6.6515C7.68809 6.59335 7.64217 6.54517 7.5855 6.513C7.52322 6.47854 7.45562 6.45471 7.3855 6.4425C7.3115 6.42834 7.23634 6.42114 7.161 6.421H6.509L6.38 7.35ZM6.1275 9.152H6.989C7.0625 9.152 7.1395 9.1435 7.219 9.127C7.37538 9.09679 7.51473 9.009 7.6095 8.881C7.66091 8.81049 7.69298 8.72774 7.7025 8.641C7.7145 8.539 7.7005 8.456 7.6595 8.3925C7.61773 8.32806 7.55766 8.27757 7.487 8.2475C7.40956 8.21374 7.32776 8.19102 7.244 8.18C7.16153 8.1681 7.07833 8.16192 6.995 8.1615H6.269L6.1275 9.1515V9.152ZM10.7575 5.678L9.739 9.398L8.898 9.339L9.532 5.504L10.7575 5.678ZM9.8695 9.786L9.605 11.1L8.4865 10.774L8.7425 9.5135L9.8695 9.7855V9.786Z" fill="#FEFFFF"/>
</g>
<defs>
<clipPath id="clip0_7_7946">
<rect width="16" height="16" fill="white"/>
</clipPath>
</defs>
</svg>
