<svg width="16" height="16" viewBox="0 0 16 16" fill="none" xmlns="http://www.w3.org/2000/svg">
<g clip-path="url(#clip0_7_7977)">
<path d="M8 16C12.4183 16 16 12.4183 16 8C16 3.58172 12.4183 0 8 0C3.58172 0 0 3.58172 0 8C0 12.4183 3.58172 16 8 16Z" fill="#00A8D6"/>
<path fill-rule="evenodd" clip-rule="evenodd" d="M7.216 9.475V8.5165H8.693C9.678 8.5165 10.1705 8.2705 10.1705 7.7785V5.1965C10.1705 4.705 9.678 4.459 8.693 4.459H6.33V6.008H5V3.5H8.545C10.515 3.5 11.5 4.041 11.5 5.123V7.8525C11.5 8.9345 10.515 9.4755 8.545 9.4755L7.216 9.475ZM10.1705 10.0655H11.5V10.877C11.5 11.959 10.515 12.5 8.545 12.5H5V6.746H8.545C8.7535 6.746 8.95 6.752 9.1365 6.764V7.7245C8.98908 7.71068 8.84107 7.70401 8.693 7.7045H6.33V11.541H8.6935C9.6785 11.541 10.171 11.295 10.171 10.8035V10.065L10.1705 10.0655Z" fill="white"/>
</g>
<defs>
<clipPath id="clip0_7_7977">
<rect width="16" height="16" fill="white"/>
</clipPath>
</defs>
</svg>
