<svg width="16" height="16" viewBox="0 0 16 16" fill="none" xmlns="http://www.w3.org/2000/svg">
<g clip-path="url(#clip0_7_8024)">
<path d="M8 16C12.4183 16 16 12.4183 16 8C16 3.58172 12.4183 0 8 0C3.58172 0 0 3.58172 0 8C0 12.4183 3.58172 16 8 16Z" fill="#0F63D8"/>
<path d="M12.942 10.3685C12.8938 10.4676 12.841 10.5644 12.7835 10.6585C12.745 10.7275 12.708 10.7965 12.6675 10.862C12.649 10.8925 12.634 10.924 12.6155 10.9535H12.6095C12.2213 11.5703 11.7133 12.103 11.1156 12.52C10.5178 12.937 9.84249 13.2298 9.12955 13.3811C8.41662 13.5325 7.68057 13.5392 6.96498 13.401C6.24939 13.2628 5.5688 12.9824 4.9635 12.5765C4.9385 12.5595 4.917 12.541 4.8925 12.5245C4.79788 12.4633 4.70627 12.3975 4.618 12.3275C4.47835 12.2211 4.3448 12.1069 4.218 11.9855C4.15736 11.9294 4.09818 11.8717 4.0405 11.8125C3.9785 11.749 3.9245 11.6875 3.8615 11.616C3.79817 11.5448 3.73649 11.4721 3.6765 11.398C3.62959 11.3381 3.58407 11.277 3.54 11.215C3.47865 11.1308 3.41963 11.0449 3.363 10.9575C3.3265 10.9005 3.2925 10.8425 3.258 10.7835C3.20151 10.6894 3.14831 10.5933 3.0985 10.4955C3.069 10.4375 3.0415 10.3785 3.014 10.3195C2.96788 10.22 2.92403 10.1195 2.8825 10.018C2.8575 9.955 2.835 9.891 2.8125 9.827C2.778 9.727 2.744 9.6225 2.7145 9.5245C2.6945 9.4535 2.682 9.386 2.66 9.313C2.63498 9.21533 2.61281 9.11695 2.5935 9.018C2.5835 8.943 2.567 8.864 2.56 8.793C2.54541 8.69498 2.53324 8.59661 2.5235 8.498C2.5165 8.4205 2.508 8.343 2.508 8.265C2.5 8.167 2.5 8.0685 2.5 7.97C2.5 7.895 2.506 7.82 2.506 7.7445C2.51396 7.57051 2.52997 7.397 2.554 7.2245C2.60325 6.87283 2.6863 6.52672 2.802 6.191C2.8445 6.068 2.892 5.946 2.9445 5.8245C2.956 5.797 2.9695 5.7635 2.9765 5.741C2.9846 5.71622 2.99828 5.69364 3.0165 5.675C3.068 5.564 3.125 5.454 3.185 5.345C3.2135 5.284 3.248 5.224 3.2835 5.165C3.3085 5.122 3.3255 5.0815 3.3585 5.0345C3.3905 4.987 3.428 4.938 3.4615 4.889C3.50438 4.82171 3.54991 4.75616 3.598 4.6925C3.661 4.6075 3.7265 4.525 3.7945 4.4445C3.91359 4.30368 4.03958 4.16885 4.172 4.0405C4.221 3.9945 4.2695 3.948 4.3195 3.904C4.45433 3.78833 4.5929 3.6771 4.735 3.5705C4.829 3.5055 4.925 3.4395 5.022 3.374C5.07369 3.34005 5.12621 3.30737 5.1795 3.276C5.278 3.219 5.376 3.164 5.4745 3.1125C5.69686 2.99735 5.92711 2.8981 6.1635 2.8155C6.40998 2.72735 6.66268 2.65765 6.9195 2.607C7.08767 2.57416 7.25715 2.54847 7.4275 2.53C7.5385 2.518 7.6505 2.51 7.7635 2.505C7.8245 2.5 7.8865 2.5 7.9485 2.5C8.12624 2.49785 8.30398 2.50486 8.481 2.521C8.76899 2.54588 9.05445 2.59438 9.3345 2.666C9.406 2.685 9.478 2.705 9.5495 2.726C9.6545 2.756 9.753 2.7885 9.8515 2.8245C9.925 2.851 9.999 2.8795 10.0715 2.91C10.1265 2.933 10.1825 2.9505 10.2375 2.975V2.983C10.9056 3.27555 11.5082 3.69931 12.0095 4.22913C12.5108 4.75894 12.9006 5.38403 13.1557 6.06732C13.4109 6.75061 13.5263 7.47819 13.495 8.2069C13.4637 8.93561 13.2863 9.65061 12.9735 10.3095C12.9635 10.3305 12.9515 10.348 12.942 10.3685ZM5.914 12.6185V12.6175C7.03674 13.1205 8.30403 13.1984 9.47992 12.8366C10.6558 12.4749 11.6602 11.6981 12.306 10.651C12.342 10.591 12.376 10.529 12.41 10.468C12.457 10.378 12.51 10.291 12.5555 10.193C12.8578 9.57134 13.0291 8.89418 13.0587 8.20356C13.0884 7.51293 12.9757 6.82359 12.7278 6.17832C12.4798 5.53306 12.1019 4.94565 11.6174 4.45257C11.133 3.95949 10.5523 3.57126 9.9115 3.312C9.84671 3.28439 9.78119 3.25855 9.715 3.2345C9.55757 3.17862 9.39775 3.12974 9.236 3.088C8.97447 3.02117 8.70792 2.97585 8.439 2.9525L8.271 2.9405C8.1625 2.9355 8.055 2.933 7.9475 2.933H7.7785C7.674 2.9375 7.5705 2.945 7.467 2.9555C7.4045 2.9625 7.3425 2.9705 7.281 2.979C7.11454 3.00152 6.94946 3.03324 6.7865 3.074C6.62232 3.1135 6.46042 3.1619 6.3015 3.219C6.231 3.243 6.163 3.269 6.0975 3.2955C5.95157 3.35515 5.80812 3.4207 5.6675 3.492C5.52476 3.56591 5.3853 3.64599 5.2495 3.732C5.15794 3.78892 5.06901 3.84998 4.983 3.915C4.938 3.9455 4.893 3.9785 4.849 4.013C4.71782 4.11674 4.59168 4.2267 4.471 4.3425C4.3975 4.4165 4.3255 4.4915 4.2545 4.5675C4.14275 4.68997 4.0368 4.81761 3.937 4.95C3.83327 5.08952 3.73617 5.23385 3.646 5.3825C3.6135 5.4365 3.584 5.4905 3.5535 5.5445C3.4935 5.6455 3.4445 5.748 3.3955 5.8545C3.3025 6.05526 3.22266 6.26186 3.1565 6.473C3.10134 6.63511 3.05675 6.80062 3.023 6.9685C3.0015 7.0735 2.9835 7.18 2.969 7.286C2.961 7.347 2.952 7.409 2.9465 7.47C2.9365 7.5685 2.9255 7.6665 2.9255 7.765C2.9195 7.832 2.9195 7.9 2.9195 7.9675C2.9195 8.061 2.9275 8.154 2.9275 8.2475C2.93614 8.40985 2.95249 8.5717 2.9765 8.7325C2.9895 8.8 3.0005 8.864 3.013 8.9365C3.031 9.029 3.0525 9.1215 3.075 9.214C3.091 9.2765 3.1065 9.3395 3.125 9.4035C3.1525 9.4985 3.184 9.592 3.2175 9.6855C3.238 9.7425 3.2575 9.8005 3.2805 9.8575C3.318 9.952 3.359 10.0435 3.3975 10.1405C3.423 10.1945 3.4475 10.249 3.475 10.302C3.524 10.3915 3.5715 10.48 3.6225 10.567C3.656 10.6215 3.6875 10.6745 3.721 10.7275C3.772 10.808 3.828 10.8865 3.884 10.9655C3.9255 11.0225 3.9555 11.0695 4.01 11.1345C4.064 11.1995 4.125 11.27 4.178 11.331C4.231 11.392 4.29 11.458 4.343 11.513C4.396 11.568 4.4375 11.607 4.506 11.672C4.62213 11.7842 4.74467 11.8895 4.873 11.9875C5.19337 12.2389 5.54289 12.4508 5.914 12.6185ZM7.99 12.206C7.1575 12.2066 6.34351 11.9603 5.651 11.4982C4.95848 11.0362 4.41853 10.3792 4.09944 9.61025C3.78036 8.84133 3.69646 7.99505 3.85836 7.17844C4.02027 6.36183 4.4207 5.61157 5.00902 5.02255C5.59734 4.43353 6.34712 4.03221 7.16354 3.86934C7.97995 3.70646 8.82633 3.78935 9.59564 4.10753C10.3649 4.4257 11.0226 4.96487 11.4855 5.65683C11.9483 6.3488 12.1956 7.16249 12.196 7.995C12.1952 9.11071 11.752 10.1806 10.9635 10.97C10.1751 11.7594 9.10572 12.2039 7.99 12.206ZM7.99 5.167C7.43005 5.1663 6.88247 5.33174 6.41658 5.64237C5.95068 5.95301 5.58741 6.39487 5.37274 6.91204C5.15806 7.42921 5.10164 7.99844 5.2106 8.54769C5.31956 9.09694 5.58901 9.60152 5.98486 9.99758C6.3807 10.3936 6.88514 10.6634 7.43433 10.7726C7.98353 10.8819 8.55279 10.8257 9.07007 10.6113C9.58736 10.3969 10.0294 10.0339 10.3403 9.56817C10.6512 9.10244 10.8169 8.55495 10.8165 7.995C10.8157 7.24528 10.5178 6.52645 9.98797 5.996C9.45817 5.46554 8.73971 5.16672 7.99 5.165V5.167Z" fill="white"/>
</g>
<defs>
<clipPath id="clip0_7_8024">
<rect width="16" height="16" fill="white"/>
</clipPath>
</defs>
</svg>
