<svg width="16" height="16" viewBox="0 0 16 16" fill="none" xmlns="http://www.w3.org/2000/svg">
<g clip-path="url(#clip0_7_7777)">
<path d="M8 16C12.4183 16 16 12.4183 16 8C16 3.58172 12.4183 0 8 0C3.58172 0 0 3.58172 0 8C0 12.4183 3.58172 16 8 16Z" fill="#1D1D1D"/>
<path fill-rule="evenodd" clip-rule="evenodd" d="M4.981 8.477C4.98106 8.73053 5.03122 8.98155 5.12859 9.21564C5.22596 9.44972 5.36862 9.66227 5.54838 9.84105C5.72814 10.0198 5.94146 10.1613 6.17607 10.2574C6.41068 10.3535 6.66197 10.4023 6.9155 10.401C7.9765 10.3945 8.8385 9.543 8.839 8.501C8.84133 8.24677 8.79306 7.99463 8.69701 7.75923C8.60096 7.52384 8.45905 7.3099 8.27953 7.12987C8.10002 6.94984 7.88648 6.80732 7.65136 6.7106C7.41624 6.61388 7.16423 6.5649 6.91 6.5665C5.844 6.568 4.981 7.4225 4.981 8.477ZM4.983 10.547V11.1835H4V4C4.2795 4.005 4.5155 4.105 4.705 4.3025C4.8865 4.4925 4.977 4.72 4.976 4.984C4.9735 5.4575 4.975 5.931 4.975 6.427C5.6615 5.8535 6.426 5.571 7.3165 5.707C8.199 5.842 8.8765 6.286 9.3385 7.0455C10.036 8.193 9.81 9.6585 8.7995 10.5705C7.814 11.4605 6.1765 11.5985 4.983 10.547ZM8.1625 11.1705C8.2015 11.147 8.222 11.133 8.2435 11.122C8.55314 10.9698 8.83265 10.7628 9.0685 10.511C9.09236 10.4839 9.12154 10.4619 9.15422 10.4465C9.1869 10.4311 9.22239 10.4226 9.2585 10.4215C10.0935 10.3735 10.846 9.7015 10.9875 8.8795C11.1735 7.7995 10.5175 6.8465 9.4325 6.6395C9.28347 6.61694 9.14715 6.54259 9.0475 6.4295C8.8475 6.2085 8.6045 6.036 8.346 5.8875C8.324 5.875 8.303 5.8615 8.267 5.8395C8.759 5.7045 9.2385 5.6725 9.7245 5.783C10.208 5.8925 10.6245 6.1295 11.0145 6.453V5.8155H12V13C11.869 12.9992 11.7396 12.9722 11.6193 12.9205C11.4989 12.8688 11.3902 12.7935 11.2995 12.699C11.2098 12.6086 11.1391 12.5012 11.0917 12.383C11.0443 12.2648 11.0211 12.1383 11.0235 12.011V10.576C10.1745 11.2875 9.2355 11.5005 8.1625 11.1705Z" fill="white"/>
</g>
<defs>
<clipPath id="clip0_7_7777">
<rect width="16" height="16" fill="white"/>
</clipPath>
</defs>
</svg>
