<svg width="16" height="16" viewBox="0 0 16 16" fill="none" xmlns="http://www.w3.org/2000/svg">
<g clip-path="url(#clip0_7_8099)">
<path d="M8 16C12.4183 16 16 12.4183 16 8C16 3.58172 12.4183 0 8 0C3.58172 0 0 3.58172 0 8C0 12.4183 3.58172 16 8 16Z" fill="#FE5D86"/>
<path d="M4 4.5195C4 4.2325 4.236 4 4.527 4H8.321C10.559 4 11.3485 4.264 11.8925 4.8005C12.0607 4.97137 12.1913 5.17561 12.2757 5.40005C12.3601 5.62448 12.3965 5.86412 12.3825 6.1035C12.3825 7.029 11.884 7.6565 10.539 7.932C11.838 8.159 12.4975 8.687 12.4975 9.749C12.5098 9.99669 12.4709 10.2443 12.3831 10.4762C12.2954 10.7082 12.1607 10.9195 11.9875 11.097C11.455 11.622 10.585 12 8.2435 12H4.527C4.38824 12.0009 4.25479 11.9467 4.15598 11.8493C4.05716 11.7519 4.00106 11.6193 4 11.4805V4.5195ZM6.8805 7.5005C6.8805 7.309 7.038 7.154 7.232 7.154H8.4535C9.1505 7.154 9.672 7.12 9.9135 6.87C9.96975 6.81094 10.0131 6.74086 10.0409 6.66418C10.0687 6.5875 10.0803 6.50589 10.075 6.4245C10.09 6.2645 10.036 6.1055 9.925 5.987C9.68 5.746 9.159 5.7035 8.4535 5.7035H6.18V10.3195H8.43C9.196 10.3195 9.7635 10.2625 10.0285 9.9985C10.1505 9.8735 10.2135 9.7035 10.2015 9.53C10.2125 9.3535 10.15 9.18 10.0285 9.05C9.7605 8.7865 9.1935 8.7665 8.43 8.7665H7.24C7.19231 8.76768 7.14487 8.75921 7.10053 8.7416C7.0562 8.72398 7.01588 8.69759 6.982 8.664C6.94837 8.6308 6.92196 8.59101 6.90441 8.54714C6.88685 8.50326 6.87855 8.45623 6.88 8.409L6.8805 7.5005Z" fill="white"/>
</g>
<defs>
<clipPath id="clip0_7_8099">
<rect width="16" height="16" fill="white"/>
</clipPath>
</defs>
</svg>
