<svg width="16" height="16" viewBox="0 0 16 16" fill="none" xmlns="http://www.w3.org/2000/svg">
<g clip-path="url(#clip0_7_8021)">
<path d="M8 16C12.4183 16 16 12.4183 16 8C16 3.58172 12.4183 0 8 0C3.58172 0 0 3.58172 0 8C0 12.4183 3.58172 16 8 16Z" fill="#EAB304"/>
<path d="M11.0753 7.285L11.1103 7.215C11.1103 7.18 11.1103 7.145 11.1803 7.17C11.1857 7.13857 11.1857 7.10644 11.1803 7.075C11.1971 7.02986 11.1971 6.98015 11.1803 6.935C11.1093 6.76205 11.097 6.57061 11.1453 6.39C11.1508 6.367 11.1508 6.34301 11.1453 6.32L11.1803 6.285C11.1944 6.29786 11.2063 6.31309 11.2153 6.33C11.2208 6.35301 11.2208 6.377 11.2153 6.4V6.435C11.2153 6.47 11.2753 6.4 11.3003 6.375C11.3311 6.35117 11.3647 6.33103 11.4003 6.315C11.4069 6.22356 11.395 6.13172 11.3653 6.045C11.3096 5.8568 11.322 5.65498 11.4003 5.475C11.4003 5.51 11.4453 5.535 11.4453 5.57C11.4538 5.7 11.5088 5.8225 11.6003 5.915C11.7018 6.0315 11.7783 6.1675 11.8253 6.315C11.8253 6.315 11.8253 6.36 11.8603 6.36C12.0043 6.4015 12.1353 6.4785 12.2403 6.585C12.3613 6.694 12.4763 6.809 12.5853 6.93C12.6041 6.9506 12.6194 6.97428 12.6303 7H12.6653C12.6711 6.89008 12.6711 6.77993 12.6653 6.67C12.6653 6.575 12.7103 6.48 12.8053 6.495H12.8503C12.8524 6.4528 12.8681 6.41243 12.8952 6.37996C12.9223 6.3475 12.9591 6.3247 13.0003 6.315C13.0178 6.34541 13.027 6.3799 13.027 6.415C13.027 6.45011 13.0178 6.4846 13.0003 6.515C13.0703 6.6 13.0853 6.645 13.0003 6.74C12.9153 6.835 12.9553 6.845 13.0003 6.94C13.01 6.88493 13.0304 6.83228 13.0603 6.785C13.0853 6.735 13.0953 6.655 13.1553 6.63C13.1747 6.62314 13.1958 6.62314 13.2153 6.63C13.273 6.64146 13.3325 6.64146 13.3903 6.63C13.4267 6.627 13.4632 6.63552 13.4946 6.65435C13.526 6.67319 13.5507 6.7014 13.5653 6.735L13.4003 6.815C13.4353 6.885 13.4003 6.91 13.3303 6.955C13.2954 6.98699 13.2636 7.02214 13.2353 7.06C13.2994 7.04863 13.3628 7.03361 13.4253 7.015C13.4677 7.00421 13.5126 7.00884 13.552 7.02807C13.5914 7.0473 13.6227 7.07988 13.6403 7.12C13.6536 7.14828 13.6744 7.17245 13.7003 7.19C13.7487 7.23206 13.7791 7.29113 13.7853 7.355C13.7891 7.36976 13.7891 7.38525 13.7853 7.4L13.6903 7.33C13.6781 7.31839 13.662 7.31191 13.6453 7.31191C13.6285 7.31191 13.6124 7.31839 13.6003 7.33C13.5835 7.3462 13.5611 7.35524 13.5378 7.35524C13.5144 7.35524 13.492 7.3462 13.4753 7.33C13.4412 7.30975 13.4024 7.29906 13.3628 7.29906C13.3232 7.29906 13.2843 7.30975 13.2503 7.33C13.1972 7.3649 13.1421 7.39662 13.0853 7.425C13.1509 7.43383 13.2135 7.45786 13.2682 7.49519C13.3229 7.53252 13.3681 7.58211 13.4003 7.64C13.4353 7.71 13.4853 7.78 13.5203 7.855C13.5339 7.88487 13.5353 7.91893 13.5241 7.94981C13.5129 7.98069 13.4899 8.00591 13.4603 8.02H13.4353V7.995C13.4353 7.935 13.4003 7.925 13.3403 7.935C13.3238 7.94043 13.3065 7.94253 13.2893 7.94118C13.2721 7.93983 13.2553 7.93506 13.2399 7.92714C13.2245 7.91923 13.2109 7.90833 13.1998 7.89508C13.1887 7.88184 13.1804 7.86651 13.1753 7.85C13.1172 7.73354 13.0198 7.64141 12.9003 7.59L12.7953 7.545C12.7874 7.59049 12.7722 7.6344 12.7503 7.675C12.7338 7.70115 12.7136 7.72474 12.6903 7.745C12.6203 7.805 12.6203 7.815 12.6903 7.9C12.7603 7.985 12.7253 7.945 12.7503 7.985C12.7126 7.98717 12.675 7.98063 12.6403 7.96589C12.6056 7.95115 12.5748 7.9286 12.5503 7.9C12.4882 7.83009 12.4375 7.75077 12.4003 7.665C12.3858 7.625 12.3848 7.58136 12.3974 7.54073C12.4101 7.50011 12.4356 7.46474 12.4703 7.44C12.5053 7.40525 12.5341 7.36464 12.5553 7.32L12.2003 7.225C12.2059 7.27986 12.2059 7.33515 12.2003 7.39C12.2123 7.5915 12.2123 7.7935 12.2003 7.995C12.1882 8.29445 12.1412 8.59146 12.0603 8.88C12.0017 9.10221 11.9178 9.31695 11.8103 9.52C11.72 9.70301 11.6181 9.88004 11.5053 10.05C11.4088 10.1912 11.3018 10.3249 11.1853 10.45C11.0672 10.5884 10.9367 10.7156 10.7953 10.83C10.6403 10.96 10.4753 11.065 10.2953 11.175C10.0529 11.3288 9.79041 11.4483 9.51525 11.53C9.32965 11.5844 9.14098 11.6278 8.95025 11.66C8.84448 11.6808 8.73766 11.6958 8.63025 11.705C8.59741 11.7154 8.56754 11.7336 8.54318 11.7579C8.51881 11.7823 8.50066 11.8122 8.49025 11.845C8.47558 11.9242 8.44497 11.9996 8.40027 12.0667C8.35558 12.1337 8.29774 12.191 8.23025 12.235C8.17025 12.28 8.10025 12.32 8.03025 12.365L8.06525 12.26C8.0713 12.2372 8.07125 12.2131 8.06511 12.1903C8.05897 12.1675 8.04695 12.1467 8.03025 12.13C7.99525 12.095 7.94525 12.13 7.90025 12.13C7.85525 12.13 7.81525 12.19 7.80525 12.26C7.79563 12.3241 7.76997 12.3848 7.73063 12.4364C7.6913 12.488 7.63957 12.5288 7.58025 12.555H7.52025C7.53593 12.5128 7.54764 12.4693 7.55525 12.425C7.55525 12.39 7.52025 12.355 7.49525 12.32C7.47025 12.285 7.45025 12.32 7.42525 12.32L7.21025 12.425L7.14025 12.46L7.33025 12.545C7.43309 12.5943 7.516 12.6772 7.56525 12.78C7.58555 12.8075 7.59651 12.8408 7.59651 12.875C7.59651 12.9092 7.58555 12.9425 7.56525 12.97C7.55944 12.9789 7.55635 12.9894 7.55635 13C7.55635 13.0107 7.55944 13.0211 7.56525 13.03C7.58157 13.0892 7.58599 13.1511 7.57827 13.212C7.57054 13.2729 7.55083 13.3317 7.52025 13.385C7.52025 13.42 7.46025 13.455 7.43525 13.49L7.40025 13.25C7.40025 13.2381 7.39551 13.2266 7.38707 13.2182C7.37863 13.2097 7.36719 13.205 7.35525 13.205C7.28465 13.2081 7.21464 13.1909 7.1535 13.1555C7.09236 13.12 7.04265 13.0678 7.01025 13.005L6.97525 12.96C6.91334 13.0486 6.82065 13.111 6.71525 13.135C6.64379 13.1674 6.58033 13.215 6.52935 13.2747C6.47837 13.3343 6.44112 13.4044 6.42025 13.48C6.40309 13.5667 6.37451 13.6508 6.33525 13.73C6.31395 13.7845 6.27229 13.8285 6.21909 13.8527C6.16589 13.877 6.10534 13.8796 6.05025 13.86V14.05C6.02317 14.0431 5.99775 14.0308 5.97549 14.0139C5.95322 13.9969 5.93455 13.9758 5.92058 13.9515C5.90661 13.9273 5.89762 13.9006 5.89412 13.8728C5.89063 13.8451 5.89272 13.8169 5.90025 13.79C5.90634 13.762 5.90634 13.733 5.90025 13.705C5.86546 13.6371 5.85693 13.5587 5.8763 13.4849C5.89568 13.4111 5.94159 13.3471 6.00525 13.305C6.10316 13.2336 6.18778 13.1456 6.25525 13.045C6.25873 13.0336 6.25873 13.0214 6.25525 13.01L5.90025 12.965C5.85679 12.953 5.81136 12.95 5.76668 12.956C5.72201 12.962 5.67901 12.977 5.64025 13L5.57025 13.09C5.46525 13.21 5.41525 13.22 5.27525 13.15C5.22011 13.247 5.19899 13.3596 5.21525 13.47C5.16229 13.4184 5.12575 13.3523 5.11025 13.28C5.10414 13.2402 5.10414 13.1998 5.11025 13.16V13.09C5.09882 13.0559 5.09882 13.0191 5.11025 12.985C5.15214 12.8887 5.22897 12.8119 5.32525 12.77C5.43143 12.7004 5.55363 12.6591 5.68025 12.65C5.77525 12.644 5.87025 12.644 5.96525 12.65H6.03525C6.01403 12.5981 5.98214 12.5513 5.94166 12.5125C5.90118 12.4738 5.853 12.444 5.80025 12.425L5.53025 12.32C5.50046 12.3243 5.47016 12.3168 5.44585 12.2991C5.42155 12.2813 5.40517 12.2547 5.40025 12.225C5.40025 12.2131 5.39551 12.2016 5.38707 12.1932C5.37863 12.1847 5.36719 12.18 5.35525 12.18C5.27174 12.1797 5.19001 12.2041 5.12025 12.25C5.15525 12.145 5.20525 12.035 5.32025 12.015C5.37174 12.009 5.42376 12.009 5.47525 12.015H5.52025C5.59025 11.91 5.69525 11.93 5.79025 11.98C5.92875 12.046 6.04375 12.152 6.12025 12.285C6.1377 12.3195 6.16235 12.3499 6.19254 12.374C6.22273 12.3982 6.25776 12.4156 6.29525 12.425C6.30191 12.3336 6.29 12.2417 6.26025 12.155C6.25848 12.1148 6.24397 12.0761 6.2188 12.0447C6.19364 12.0132 6.15913 11.9906 6.12025 11.98C6.00025 11.945 5.96525 11.86 6.02525 11.73C5.98573 11.6949 5.93763 11.6709 5.88582 11.6603C5.83402 11.6498 5.78035 11.6531 5.73025 11.67C5.76525 11.575 5.90525 11.54 6.00025 11.55C6.08611 11.6013 6.18539 11.6257 6.28525 11.62C6.31875 11.6263 6.35027 11.6404 6.37722 11.6613C6.40417 11.6822 6.42578 11.7091 6.44025 11.74L6.51025 11.88C6.57025 11.985 6.61525 12.105 6.66525 12.21C6.73525 12.01 6.82025 11.795 6.90025 11.57L6.78025 11.525L6.43525 11.385C6.17205 11.2712 5.9222 11.1286 5.69025 10.96C5.64965 10.938 5.60574 10.9228 5.56025 10.915C5.52525 10.915 5.47525 10.96 5.50025 11C5.52525 11.04 5.56025 11.045 5.58525 11.085C5.61025 11.125 5.58525 11.12 5.63025 11.145H5.57025C5.48902 11.1469 5.40914 11.1239 5.34126 11.0793C5.27337 11.0346 5.2207 10.9703 5.19025 10.895C5.11658 10.7466 5.07243 10.5853 5.06025 10.42C5.06259 10.4145 5.06379 10.4085 5.06379 10.4025C5.06379 10.3965 5.06259 10.3905 5.06025 10.385L4.74025 10.03C4.71628 10.0911 4.71628 10.1589 4.74025 10.22L4.77525 10.29V10.375H4.68025C4.62625 10.3159 4.58233 10.2483 4.55025 10.175C4.50525 10 4.48025 9.82 4.44525 9.645C4.43665 9.55735 4.42161 9.47045 4.40025 9.385C4.37435 9.28491 4.34262 9.18641 4.30525 9.09V9.365C4.30525 9.39 4.24525 9.365 4.23525 9.32C4.18099 9.2268 4.14851 9.12253 4.14025 9.015C4.13439 8.76261 4.16986 8.51095 4.24525 8.27C4.26818 8.18166 4.29656 8.09483 4.33025 8.01C4.31878 8.03851 4.30365 8.0654 4.28525 8.09L4.24025 8.135V8.075C4.2388 7.96257 4.2682 7.85189 4.32525 7.755C4.41025 7.565 4.51525 7.375 4.61025 7.19C4.6495 7.12397 4.69292 7.06051 4.74025 7L4.65525 7.09L4.59525 7.125V7.09C4.62743 7.03648 4.66248 6.98474 4.70025 6.935C4.81273 6.79875 4.94405 6.67921 5.09025 6.58C5.12426 6.56819 5.16125 6.56819 5.19525 6.58L5.69525 6.685L5.87025 6.73C5.82262 6.77903 5.78222 6.83459 5.75025 6.895C5.73488 6.92521 5.72687 6.95862 5.72687 6.9925C5.72687 7.02639 5.73488 7.0598 5.75025 7.09C5.75885 7.10251 5.76346 7.11733 5.76346 7.1325C5.76346 7.14768 5.75885 7.1625 5.75025 7.175C5.63645 7.27308 5.54008 7.38973 5.46525 7.52V7.565C5.46525 7.565 5.63025 7.73 5.71525 7.825C5.72025 7.84 5.72025 7.855 5.71525 7.87C5.67745 7.93444 5.65753 8.0078 5.65753 8.0825C5.65753 8.15721 5.67745 8.23057 5.71525 8.295C5.72099 8.3173 5.7312 8.3382 5.74526 8.35644C5.75931 8.37467 5.77693 8.38986 5.79704 8.40108C5.81714 8.4123 5.83931 8.41932 5.86221 8.42171C5.88511 8.42411 5.90826 8.42182 5.93025 8.415C5.92607 8.51218 5.95615 8.60775 6.01525 8.685C6.05025 8.72 6.10025 8.745 6.13525 8.78C6.15628 8.79468 6.17205 8.81571 6.18025 8.84C6.20807 8.92912 6.26028 9.00866 6.33097 9.06964C6.40167 9.13061 6.48802 9.17057 6.58025 9.185C6.72425 9.205 6.87025 9.175 6.99525 9.1C7.04025 9.1 7.05525 9.065 7.06525 9.1C7.09325 9.2745 7.14925 9.443 7.23025 9.6C7.33375 9.783 7.46175 9.951 7.61025 10.1C7.74375 10.2275 7.90725 10.32 8.08525 10.37C8.30525 10.4195 8.53525 10.3575 8.70025 10.205C8.8039 10.1001 8.89151 9.98048 8.96025 9.85L9.17525 9.505C9.26987 9.37465 9.39081 9.26563 9.53025 9.185C9.55338 9.16719 9.58021 9.1548 9.60877 9.14874C9.63733 9.14268 9.66688 9.14311 9.69525 9.15L9.66025 9.22C9.63367 9.26278 9.61959 9.31214 9.61959 9.3625C9.61959 9.41287 9.63367 9.46223 9.66025 9.505C9.69525 9.55 9.72025 9.55 9.74525 9.505C9.77025 9.46 9.81525 9.375 9.91025 9.385C10.0053 9.395 10.0053 9.325 10.0153 9.265C10.0251 9.00462 10.1027 8.7513 10.2403 8.53C10.2659 8.50361 10.2944 8.48014 10.3253 8.46V8.65C10.3348 8.703 10.3503 8.755 10.3703 8.805L10.4003 8.74C10.4088 8.72203 10.4222 8.70685 10.4391 8.69623C10.4559 8.6856 10.4754 8.67998 10.4953 8.68C10.5188 8.67588 10.5401 8.66347 10.5553 8.645C10.5882 8.60627 10.611 8.55991 10.6215 8.51013C10.6319 8.46035 10.6298 8.40874 10.6153 8.36C10.6034 8.28547 10.6034 8.20953 10.6153 8.135C10.615 8.04048 10.6391 7.94749 10.6853 7.865C10.6962 7.83927 10.7114 7.8156 10.7303 7.795H10.7653V7.96C10.7614 7.97476 10.7614 7.99025 10.7653 8.005H10.8103L10.9003 7.945C10.9343 7.88411 10.95 7.81462 10.9453 7.745C10.9383 7.7053 10.9383 7.66471 10.9453 7.625V7.215C10.9453 7.16 10.9453 7.155 10.9803 7.12L11.0353 7.09V7.31C11.039 7.30254 11.0447 7.29626 11.0517 7.29184C11.0588 7.28743 11.0669 7.28506 11.0753 7.285ZM4.93025 5.005L5.22525 4.71C5.24231 4.69144 5.26265 4.67619 5.28525 4.665C5.32025 4.63 5.28525 4.595 5.28525 4.56C5.28525 4.525 5.24025 4.56 5.20025 4.56H5.15525V4.5C5.16769 4.45904 5.18888 4.42128 5.21738 4.38933C5.24587 4.35738 5.28097 4.33202 5.32025 4.315C5.44952 4.26843 5.59099 4.26843 5.72025 4.315C5.73116 4.32031 5.74312 4.32307 5.75525 4.32307C5.76738 4.32307 5.77935 4.32031 5.79025 4.315L6.07525 4.16C6.12025 4.16 6.11025 4.115 6.07525 4.09C6.04025 4.065 5.99025 4.03 5.94525 4.09C5.93049 4.09381 5.91501 4.09381 5.90025 4.09C5.90025 4.005 5.98525 3.935 6.06525 3.9C6.20025 3.8585 6.34525 3.8585 6.48025 3.9H6.50025C6.53525 3.9 6.64025 3.945 6.72525 3.9L6.90025 3.84C6.94525 3.84 6.94525 3.805 6.90025 3.78C6.85525 3.755 6.84025 3.71 6.79525 3.745C6.75025 3.78 6.79525 3.745 6.75025 3.745C6.74076 3.73482 6.73549 3.72142 6.73549 3.7075C6.73549 3.69359 6.74076 3.68019 6.75025 3.67C6.83743 3.60425 6.94702 3.5755 7.05525 3.59C7.15364 3.59759 7.24759 3.63413 7.32525 3.695H7.36025C7.37712 3.71475 7.39914 3.72942 7.42387 3.73737C7.44859 3.74531 7.47504 3.74623 7.50025 3.74C7.52896 3.72282 7.56179 3.71375 7.59525 3.71375C7.62871 3.71375 7.66154 3.72282 7.69025 3.74H7.72525V3.695C7.71732 3.6642 7.69913 3.63702 7.67368 3.61793C7.64823 3.59885 7.61704 3.589 7.58525 3.59H7.55025C7.60963 3.54365 7.68014 3.51371 7.75473 3.50318C7.82932 3.49265 7.90536 3.5019 7.97525 3.53C8.07825 3.572 8.16825 3.641 8.23525 3.73C8.2615 3.74619 8.29021 3.75801 8.32025 3.765C8.38861 3.76287 8.45668 3.77478 8.52025 3.8C8.58025 3.835 8.55525 3.8 8.56525 3.845C8.57285 3.82892 8.57719 3.8115 8.57803 3.79374C8.57887 3.77598 8.5762 3.75822 8.57016 3.7415C8.56412 3.72477 8.55483 3.7094 8.54284 3.69628C8.53084 3.68315 8.51637 3.67252 8.50025 3.665H8.40025V3.59C8.45474 3.57935 8.51077 3.57935 8.56525 3.59C8.72325 3.6085 8.86525 3.694 8.95525 3.825C8.99025 3.885 9.01925 3.9485 9.04025 4.015C9.08279 4.00978 9.12595 4.0158 9.16543 4.03247C9.20492 4.04914 9.23933 4.07587 9.26525 4.11H9.30025C9.32099 4.1058 9.34114 4.09909 9.36025 4.09C9.35916 4.05102 9.3461 4.01331 9.32285 3.982C9.29959 3.9507 9.26726 3.9273 9.23025 3.915H9.19525C9.24025 3.915 9.28025 3.88 9.32525 3.915C9.40025 3.922 9.47275 3.9425 9.54025 3.975C9.71825 4.0475 9.85125 4.1995 9.90025 4.385C9.98525 4.43 10.0403 4.48 10.1003 4.515H10.1703V4.41C10.1629 4.3743 10.1473 4.34081 10.1247 4.31217C10.1022 4.28353 10.0732 4.26054 10.0403 4.245L9.99525 4.21C10.05 4.19773 10.1069 4.20005 10.1605 4.21672C10.214 4.23339 10.2622 4.26384 10.3003 4.305C10.3928 4.383 10.4618 4.485 10.5003 4.6C10.5043 4.61873 10.5127 4.63622 10.5249 4.65101C10.5371 4.66579 10.5526 4.67745 10.5703 4.685C10.6083 4.7135 10.6433 4.745 10.6753 4.78C10.7203 4.65 10.6153 4.58 10.5803 4.485C10.6184 4.4858 10.656 4.49468 10.6904 4.51106C10.7249 4.52743 10.7555 4.55093 10.7803 4.58C10.8503 4.653 10.9133 4.7315 10.9703 4.815C11.0063 4.876 11.0463 4.9345 11.0903 4.99C11.1263 5.057 11.1498 5.13 11.1603 5.205C11.1673 5.37453 11.1436 5.54393 11.0903 5.705C11.0842 5.81492 11.0842 5.92509 11.0903 6.035C11.0953 6.05 11.0953 6.065 11.0903 6.08C11.0461 6.11639 11.0096 6.16122 10.983 6.21188C10.9564 6.26253 10.9402 6.31799 10.9353 6.375C10.9115 6.52406 10.9115 6.67594 10.9353 6.825V6.86C10.8665 6.9053 10.8099 6.96688 10.7707 7.03928C10.7314 7.11168 10.7107 7.19265 10.7103 7.275V7.535C10.6382 7.54961 10.5715 7.5833 10.5169 7.63256C10.4624 7.68182 10.4221 7.74483 10.4003 7.815C10.3653 7.885 10.3553 7.97 10.3153 8.04C10.2753 8.11 10.2703 8.085 10.2453 8.11V8.015C10.2751 7.85854 10.2869 7.69916 10.2803 7.54C10.2851 7.3051 10.2409 7.07178 10.1503 6.855V6.77C10.2286 6.69011 10.2779 6.58623 10.2903 6.475C10.3028 6.30857 10.3028 6.14143 10.2903 5.975C10.2923 5.85697 10.2494 5.74257 10.1703 5.655C10.1296 5.61329 10.0773 5.58478 10.0203 5.57319C9.96319 5.56159 9.90395 5.56745 9.85025 5.59C9.78051 5.61951 9.72102 5.66892 9.67922 5.73207C9.63742 5.79521 9.61517 5.86928 9.61525 5.945V6.12C9.4385 5.94278 9.22521 5.80627 8.99025 5.72C8.85538 5.6725 8.71648 5.63736 8.57525 5.615H8.27025C8.07311 5.61573 7.87733 5.6478 7.69025 5.71C7.58525 5.745 7.49025 5.795 7.38525 5.83C7.37446 5.8357 7.36245 5.83867 7.35025 5.83867C7.33805 5.83867 7.32604 5.8357 7.31525 5.83C7.09094 5.69468 6.84851 5.59199 6.59525 5.525C6.47593 5.49269 6.35364 5.47259 6.23025 5.465C5.98025 5.415 5.73025 5.38 5.52025 5.315C5.33226 5.27014 5.15311 5.19408 4.99025 5.09C4.97905 5.05638 4.95818 5.02681 4.93025 5.005ZM9.65525 7.355C9.65525 7.44 9.50025 7.46 9.33525 7.415V7.59C9.33776 7.60993 9.33776 7.63008 9.33525 7.65H9.26525C9.21571 7.60987 9.16894 7.56644 9.12525 7.52C9.09592 7.53267 9.06986 7.55187 9.04906 7.57613C9.02827 7.60039 9.01328 7.62908 9.00525 7.66C8.97025 7.755 8.92025 7.765 8.85025 7.66C8.82443 7.63378 8.79594 7.61032 8.76525 7.59C8.73318 7.63562 8.6981 7.67905 8.66025 7.72C8.65154 7.73024 8.64085 7.73862 8.62882 7.74464C8.61679 7.75065 8.60367 7.75418 8.59025 7.755C8.57232 7.73738 8.55715 7.71715 8.54525 7.695C8.54012 7.66019 8.54012 7.62482 8.54525 7.59C8.48525 7.745 8.41525 7.875 8.24025 7.91C8.23386 7.84464 8.24599 7.7788 8.27525 7.72C8.31025 7.66 8.27525 7.72 8.27525 7.685C8.19721 7.75999 8.15072 7.86192 8.14525 7.97C8.15325 8.1865 8.20925 8.3985 8.31025 8.59C8.38025 8.765 8.46525 8.935 8.53525 9.09C8.59925 9.2485 8.62825 9.419 8.62025 9.59C8.62829 9.67694 8.61087 9.76433 8.57011 9.84153C8.52936 9.91874 8.46702 9.98242 8.3907 10.0248C8.31439 10.0672 8.22739 10.0865 8.1403 10.0803C8.05322 10.0741 7.96981 10.0428 7.90025 9.99C7.78597 9.91915 7.68592 9.82758 7.60525 9.72C7.53525 9.625 7.46525 9.53 7.40525 9.435C7.37171 9.36551 7.3433 9.29365 7.32025 9.22V9.15C7.34818 9.14829 7.37592 9.15564 7.39934 9.17095C7.42276 9.18627 7.44062 9.20873 7.45025 9.235C7.47525 9.275 7.58025 9.435 7.65025 9.53C7.70775 9.645 7.79425 9.743 7.90025 9.815C7.93538 9.8298 7.97307 9.83753 8.01119 9.83775C8.04931 9.83797 8.08709 9.83067 8.12238 9.81628C8.15768 9.80188 8.18979 9.78067 8.21687 9.75386C8.24396 9.72704 8.2655 9.69515 8.28025 9.66V9.625C8.30131 9.56274 8.30908 9.49675 8.30305 9.43129C8.29703 9.36584 8.27733 9.30237 8.24525 9.245C8.16025 9.055 8.05525 8.865 7.96025 8.68C7.85031 8.48061 7.77428 8.26433 7.73525 8.04C7.72934 7.98516 7.72934 7.92984 7.73525 7.875C7.66025 7.881 7.58525 7.881 7.51025 7.875L7.28525 7.815L7.18025 7.885C7.18497 7.86191 7.18497 7.8381 7.18025 7.815C7.18129 7.76919 7.16971 7.72397 7.14678 7.68429C7.12386 7.64461 7.09046 7.61199 7.05025 7.59C7.02506 7.59 7.00089 7.60001 6.98308 7.61783C6.96526 7.63564 6.95525 7.65981 6.95525 7.685C6.9516 7.73602 6.96174 7.78708 6.98461 7.83282C7.00748 7.87857 7.04225 7.91732 7.08525 7.945L7.28525 8.085C7.35525 8.13 7.34525 8.13 7.38025 8.085C7.38511 8.06192 7.38511 8.03808 7.38025 8.015C7.47525 8.015 7.51025 8.075 7.52025 8.17C7.54325 8.29 7.57525 8.409 7.61525 8.525C7.61743 8.55016 7.61457 8.5755 7.60685 8.59953C7.59912 8.62357 7.58668 8.64583 7.57025 8.665C7.50851 8.74282 7.4275 8.80314 7.33525 8.84C7.25966 8.86932 7.17584 8.86932 7.10025 8.84C7.1439 8.79661 7.19069 8.7565 7.24025 8.72C7.26124 8.69865 7.2764 8.67226 7.28428 8.64338C7.29216 8.61449 7.29249 8.58406 7.28525 8.555C7.28166 8.54562 7.27557 8.53739 7.26764 8.53122C7.25971 8.52505 7.25023 8.52117 7.24025 8.52C7.19376 8.51425 7.14674 8.51425 7.10025 8.52C7.06407 8.52259 7.03018 8.53865 7.00525 8.565C6.9233 8.63005 6.83636 8.68856 6.74525 8.74C6.67104 8.77853 6.58651 8.7925 6.50385 8.77992C6.42119 8.76734 6.34465 8.72886 6.28525 8.67C6.24254 8.62215 6.2102 8.56597 6.19025 8.505L6.15525 8.435C6.13763 8.45294 6.1174 8.46811 6.09525 8.48C6.07025 8.48 6.06025 8.42 6.09525 8.41C6.10975 8.345 6.13025 8.2815 6.15525 8.22C6.16094 8.20922 6.16392 8.1972 6.16392 8.185C6.16392 8.17281 6.16094 8.16079 6.15525 8.15C6.11525 8.0944 6.06197 8.04971 6.00025 8.02C5.95525 7.985 5.91525 8.02 5.88025 8.02H5.82025C5.82145 8.00002 5.82145 7.97999 5.82025 7.96C5.8287 7.90735 5.85201 7.8582 5.88744 7.81834C5.92287 7.77848 5.96895 7.74957 6.02025 7.735H6.08025C5.93691 7.68029 5.80723 7.59498 5.70025 7.485C5.66525 7.45 5.65525 7.425 5.70025 7.39C5.74525 7.355 5.83025 7.275 5.90025 7.225C6.03448 7.17733 6.18103 7.17733 6.31525 7.225C6.43875 7.266 6.55175 7.334 6.64525 7.425L6.68025 7.46C6.65204 7.37438 6.60441 7.29643 6.5411 7.23224C6.47778 7.16806 6.40049 7.11938 6.31525 7.09C6.16297 7.03331 6.00263 7.00125 5.84025 6.995C5.84829 6.96472 5.86479 6.93736 5.88781 6.91611C5.91083 6.89486 5.93943 6.8806 5.97025 6.875L6.24025 6.825C6.33626 6.80364 6.42555 6.75899 6.50025 6.695C6.45198 6.65523 6.40009 6.62008 6.34525 6.59C6.20525 6.53 6.06025 6.46 5.92025 6.415C5.79305 6.35888 5.65827 6.32182 5.52025 6.305C5.32757 6.27809 5.13821 6.23117 4.95525 6.165C4.73447 6.10473 4.52385 6.01206 4.33025 5.89C4.13025 5.76 3.96025 5.59 3.83025 5.39C3.79994 5.33823 3.77642 5.28278 3.76025 5.225V5.165H3.82025L3.90025 5.21C4.03025 5.315 4.15025 5.445 4.28025 5.54C4.43972 5.65576 4.6195 5.74056 4.81025 5.79C4.96525 5.825 5.11525 5.86 5.27025 5.885C5.42525 5.91 5.53025 5.885 5.66025 5.92L5.94525 5.955C6.05375 5.9625 6.16125 5.9825 6.26525 6.015C6.43025 6.075 6.58525 6.145 6.74025 6.205C6.74918 6.21081 6.7596 6.21391 6.77025 6.21391C6.7809 6.21391 6.79133 6.21081 6.80025 6.205C6.86525 6.1905 6.92875 6.17 6.99025 6.145V6.09C6.87497 6.02568 6.75648 5.96727 6.63525 5.915C6.40792 5.82561 6.16871 5.77002 5.92525 5.75L5.59525 5.715C5.41438 5.68507 5.23566 5.64332 5.06025 5.59C4.87868 5.52393 4.70962 5.42757 4.56025 5.305C4.43453 5.20795 4.34053 5.07566 4.29025 4.925V4.82C4.30371 4.81437 4.31816 4.81146 4.33275 4.81146C4.34734 4.81146 4.36179 4.81437 4.37525 4.82L4.50525 4.96C4.57525 5.03 4.64525 5.1 4.73025 5.175C4.92825 5.33 5.15625 5.4425 5.40025 5.505C5.54025 5.54 5.68525 5.565 5.82525 5.59C6.05025 5.625 6.28525 5.66 6.51025 5.71C6.77701 5.75785 7.02583 5.87707 7.23025 6.055C7.31525 6.125 7.38525 6.09 7.46525 6.055C7.50762 6.04699 7.55144 6.05288 7.59019 6.07181C7.62893 6.09073 7.66052 6.12166 7.68025 6.16C7.74025 6.3215 7.74025 6.4985 7.68025 6.66C7.67486 6.68989 7.67866 6.72071 7.69116 6.74838C7.70366 6.77606 7.72427 6.79929 7.75025 6.815H7.81025C7.88004 6.78639 7.95619 6.77687 8.03088 6.78741C8.10557 6.79796 8.17611 6.82819 8.23525 6.875C8.25377 6.8896 8.27667 6.89754 8.30025 6.89754C8.32383 6.89754 8.34673 6.8896 8.36525 6.875C8.46331 6.82917 8.55849 6.77741 8.65025 6.72C8.74525 6.66 8.69525 6.635 8.72025 6.59C8.75433 6.52078 8.80946 6.46414 8.87773 6.42821C8.946 6.39228 9.0239 6.3789 9.10025 6.39C9.20775 6.39 9.31525 6.4015 9.42025 6.425C9.5054 6.44793 9.5951 6.44793 9.68025 6.425C9.73392 6.41856 9.78414 6.39523 9.82368 6.35838C9.86323 6.32154 9.89004 6.27308 9.90025 6.22V5.9C9.90025 5.865 9.90025 5.83 9.96025 5.83C10.0203 5.83 10.0053 5.875 10.0053 5.915C10.0413 6.08 10.0413 6.25 10.0053 6.415C9.99529 6.4863 9.95777 6.55085 9.90074 6.59479C9.84371 6.63873 9.77173 6.65855 9.70025 6.65H9.27525C9.21771 6.64636 9.16077 6.66356 9.11487 6.69845C9.06896 6.73333 9.03715 6.78358 9.02525 6.84C9.01973 6.86301 9.01973 6.887 9.02525 6.91C9.06025 6.98 9.08525 7.04 9.19025 7.03C9.24625 7.035 9.29025 7.079 9.29525 7.135C9.30615 7.19489 9.3366 7.24946 9.38184 7.29018C9.42708 7.3309 9.48456 7.35545 9.54525 7.36L9.65525 7.355ZM6.87025 7.01C6.93025 7.0715 6.99375 7.13 7.06025 7.185C7.09409 7.21056 7.13535 7.22438 7.17775 7.22438C7.22016 7.22438 7.26141 7.21056 7.29525 7.185C7.36129 7.14576 7.42475 7.10234 7.48525 7.055V7.02C7.4796 6.99736 7.46906 6.97623 7.45438 6.95809C7.43969 6.93995 7.42122 6.92525 7.40025 6.915C7.35765 6.90377 7.31286 6.90377 7.27025 6.915L7.18525 6.95C7.1001 6.97293 7.0104 6.97293 6.92525 6.95L6.87025 7.01ZM8.50025 7.175C8.52064 7.19181 8.54458 7.20377 8.57025 7.21C8.65777 7.22672 8.73706 7.27253 8.79525 7.34C8.85325 7.3455 8.91225 7.3455 8.97025 7.34C9.00525 7.34 9.03025 7.305 9.06525 7.295C9.03664 7.26043 9.00483 7.22862 8.97025 7.2C8.82126 7.13726 8.65506 7.12842 8.50025 7.175ZM2.27025 8.715C2.33279 8.78188 2.41248 8.83031 2.50065 8.85499C2.58882 8.87968 2.68208 8.87968 2.77025 8.855C2.79967 8.84631 2.8267 8.83097 2.84924 8.81016C2.87178 8.78935 2.88924 8.76364 2.90025 8.735C2.71281 8.77832 2.51607 8.75351 2.34525 8.665C2.26446 8.61891 2.19423 8.55638 2.13911 8.48145C2.08399 8.40652 2.0452 8.32086 2.02525 8.23C1.98781 8.09688 1.99381 7.95528 2.04236 7.8258C2.09092 7.69631 2.17951 7.58569 2.29525 7.51C2.24361 7.67576 2.2599 7.85525 2.34053 8.009C2.42116 8.16276 2.55954 8.27822 2.72525 8.33H2.79525C2.94432 8.36101 3.09947 8.34147 3.2362 8.27447C3.37292 8.20746 3.48343 8.09682 3.55025 7.96C3.49786 8.0005 3.44778 8.0439 3.40025 8.09C3.18175 8.24 2.89375 8.24 2.67525 8.09C2.61599 8.05089 2.56695 7.99815 2.53223 7.93621C2.49751 7.87427 2.47811 7.80492 2.47567 7.73395C2.47322 7.66299 2.48779 7.59247 2.51816 7.52828C2.54853 7.4641 2.59383 7.40811 2.65025 7.365C2.65697 7.40675 2.67306 7.44643 2.69731 7.48107C2.72155 7.5157 2.75333 7.5444 2.79025 7.565C2.86365 7.60547 2.94295 7.63416 3.02525 7.65C3.1149 7.66438 3.20666 7.65788 3.29338 7.63099C3.38011 7.60411 3.45946 7.55757 3.52525 7.495C3.59764 7.42068 3.65383 7.33215 3.69025 7.235C3.78525 7.01 3.85525 6.775 3.96025 6.55C4.02823 6.41284 4.10334 6.27933 4.18525 6.15C4.18525 6.115 4.23025 6.15 4.25525 6.15L4.51525 6.29L4.68025 6.36L4.61025 6.42C4.45359 6.58702 4.31914 6.77356 4.21025 6.975C4.12525 7.13 4.04525 7.27 3.97525 7.425C3.90525 7.58 3.83525 7.78 3.77525 7.955L3.63525 8.355C3.60025 8.46 3.55025 8.555 3.50525 8.66C3.43822 8.81203 3.32198 8.93707 3.17525 9.015C3.08905 9.0569 2.99579 9.08234 2.90025 9.09C2.80563 9.10193 2.70988 9.10193 2.61525 9.09C2.53867 9.08413 2.46566 9.05518 2.40586 9.00698C2.34605 8.95878 2.30226 8.89359 2.28025 8.82C2.28718 8.78477 2.2837 8.74829 2.27025 8.715ZM9.30525 8.315C9.31125 8.37 9.31125 8.425 9.30525 8.48C9.30525 8.55 9.26025 8.55 9.20025 8.515L9.06025 8.445H9.00025C9.02049 8.48535 9.03102 8.52987 9.03102 8.575C9.03102 8.62014 9.02049 8.66466 9.00025 8.705C8.99205 8.7293 8.97628 8.75033 8.95525 8.765H8.90025L8.86525 8.66C8.85316 8.63229 8.83064 8.61046 8.80256 8.59923C8.77449 8.588 8.74312 8.58828 8.71525 8.6C8.6689 8.61269 8.62497 8.63296 8.58525 8.66H8.51525C8.42891 8.49466 8.37302 8.31514 8.35025 8.13L8.40025 8.19C8.4412 8.22123 8.49126 8.23814 8.54275 8.23814C8.59424 8.23814 8.64431 8.22123 8.68525 8.19C8.69731 8.16417 8.70356 8.13601 8.70356 8.1075C8.70356 8.079 8.69731 8.05083 8.68525 8.025C8.68525 7.99 8.65025 7.965 8.64025 7.93C8.71025 7.93 8.71025 7.87 8.89025 8.085L9.02025 8.015C9.06525 8.015 9.02025 7.945 9.02025 7.92V7.815L9.10525 7.85C9.12955 7.85821 9.15057 7.87398 9.16525 7.895C9.23989 7.97914 9.32375 8.05461 9.41525 8.12C9.44306 8.14302 9.46519 8.17213 9.47993 8.20508C9.49468 8.23803 9.50163 8.27393 9.50025 8.31V8.355H9.46525C9.34025 8.315 9.34025 8.315 9.30525 8.315ZM3.40025 7.52C3.30378 7.46314 3.19165 7.43861 3.08025 7.45C3.03376 7.45576 2.98674 7.45576 2.94025 7.45C2.91113 7.44517 2.88354 7.43362 2.85967 7.41626C2.83579 7.39891 2.81629 7.37623 2.8027 7.35003C2.78911 7.32383 2.78182 7.29482 2.78139 7.26531C2.78097 7.23579 2.78743 7.20659 2.80025 7.18C2.84525 7.18 2.88525 7.24 2.93025 7.265C2.97525 7.29 2.99025 7.265 2.99025 7.23C2.98866 7.20082 2.99592 7.17184 3.01109 7.14685C3.02626 7.12187 3.04862 7.10205 3.07525 7.09C3.11334 7.07663 3.15433 7.07375 3.19392 7.08167C3.23351 7.08958 3.27023 7.10801 3.30025 7.135C3.40125 7.235 3.44025 7.383 3.40025 7.52Z" fill="white"/>
</g>
<defs>
<clipPath id="clip0_7_8021">
<rect width="16" height="16" fill="white"/>
</clipPath>
</defs>
</svg>
