<svg width="16" height="16" viewBox="0 0 16 16" fill="none" xmlns="http://www.w3.org/2000/svg">
<g clip-path="url(#clip0_7_8037)">
<path d="M8 16C12.4183 16 16 12.4183 16 8C16 3.58172 12.4183 0 8 0C3.58172 0 0 3.58172 0 8C0 12.4183 3.58172 16 8 16Z" fill="#FF6600"/>
<path d="M8.539 9.678C11.079 8.8945 10.1725 6.261 8.539 6.161C8.954 6.161 9.293 4.9725 9.293 3.5C13.281 3.7835 15.1545 10.3555 9.173 12.4115C9.2115 11.878 8.993 10.389 8.5395 9.678H8.539ZM3 8.9V6.1665H3.005C4.4475 6.161 5.611 4.9665 5.606 3.5055H8.386C8.3865 6.4885 5.9775 8.9 3 8.9ZM6.6435 8.405C8.2935 9.761 8.3865 12.0445 8.3865 12.5H5.606C5.606 10.989 4.6225 9.7665 3.4045 9.7665C5.4695 9.4335 5.89 9.0835 6.6435 8.4055V8.405Z" fill="white"/>
</g>
<defs>
<clipPath id="clip0_7_8037">
<rect width="16" height="16" fill="white"/>
</clipPath>
</defs>
</svg>
