<svg width="16" height="16" viewBox="0 0 16 16" fill="none" xmlns="http://www.w3.org/2000/svg">
<g clip-path="url(#clip0_7_8094)">
<path d="M8 16C12.4183 16 16 12.4183 16 8C16 3.58172 12.4183 0 8 0C3.58172 0 0 3.58172 0 8C0 12.4183 3.58172 16 8 16Z" fill="#4700C2"/>
<path fill-rule="evenodd" clip-rule="evenodd" d="M6.84135 7.255C6.68635 7.356 6.50885 7.463 6.32485 7.575V8.5855C6.49185 8.501 6.66385 8.4155 6.84135 8.331V7.2545V7.255ZM4.25785 9.1235C4.30479 9.21449 4.38566 9.28335 4.48298 9.31516C4.5803 9.34698 4.68623 9.33919 4.77785 9.2935L5.26085 9.05C5.26385 8.644 5.26585 8.3355 5.26585 8.213V8.1805C4.85585 8.3845 4.54485 8.541 4.42535 8.6005C4.33382 8.64768 4.26476 8.72926 4.23336 8.82733C4.20195 8.9254 4.21076 9.03192 4.25785 9.1235ZM6.98735 9.021C6.98715 9.07168 6.99697 9.12191 7.01623 9.16879C7.03549 9.21568 7.06381 9.2583 7.09958 9.2942C7.13535 9.33011 7.17786 9.35861 7.22467 9.37805C7.27148 9.39749 7.32167 9.4075 7.37235 9.4075H7.37685C7.47927 9.40737 7.57745 9.36659 7.64983 9.29412C7.7222 9.22165 7.76285 9.12342 7.76285 9.021V5.8195C7.76282 5.76448 7.75105 5.71009 7.72833 5.65998C7.70561 5.60987 7.67247 5.56517 7.63112 5.52888C7.58976 5.49259 7.54114 5.46553 7.4885 5.44951C7.43586 5.4335 7.38041 5.42889 7.32585 5.436C7.2327 5.44749 7.14698 5.49269 7.08489 5.56307C7.0228 5.63346 6.98864 5.72414 6.98885 5.818V7.417C6.98735 7.954 6.98735 8.487 6.98735 9.021Z" fill="white"/>
<path fill-rule="evenodd" clip-rule="evenodd" d="M12.4925 6.5415C12.468 6.3545 12.344 6.2505 12.1555 6.2015C12.0055 6.163 11.8505 6.1555 11.6925 6.154C11.3245 6.1525 10.9595 6.212 10.5975 6.2825C10.0745 6.384 9.55751 6.514 9.04901 6.6725C8.89551 6.7195 8.74401 6.7685 8.59051 6.8175L8.58901 6.8115L8.61651 6.7885C8.91251 6.5355 9.20651 6.2825 9.50451 6.0325C10.1575 5.4805 10.7465 4.875 11.2935 4.236C11.4425 4.0625 11.571 3.877 11.637 3.6655C11.737 3.348 11.625 3.1505 11.303 3.0615C11.1665 3.02848 11.0264 3.01302 10.886 3.0155C10.579 3.014 10.276 3.0645 9.97651 3.1255C9.66401 3.1905 9.21151 3.3055 8.90501 3.3985C8.41451 3.5485 7.80851 3.8065 7.26751 4.0255C6.99151 4.133 6.69751 4.271 6.42251 4.3785L5.38301 4.8015C4.00301 5.395 3.60151 4.9685 3.60151 4.9685C3.60151 4.9705 3.60201 4.972 3.60301 4.9735C3.60039 4.96966 3.59837 4.96545 3.59701 4.961C3.32851 5.49 3.55201 6.451 5.10401 5.7645C5.34801 5.6695 5.59601 5.5665 5.83851 5.473C6.30601 5.2905 6.76901 5.065 7.23851 4.8845C7.56145 4.75165 7.88701 4.6253 8.21501 4.5055L8.51101 4.3905C8.81451 4.2905 9.11801 4.1915 9.42751 4.1145C9.76501 4.0275 10.0595 3.975 10.2375 3.998C10.2555 3.9995 10.274 4.001 10.291 4.0045C10.372 4.015 10.415 4.058 10.4075 4.1145C10.4045 4.202 10.2635 4.492 8.98001 5.5605C8.88651 5.6405 8.79301 5.7215 8.69951 5.801C8.55551 5.9255 8.41601 6.048 8.27451 6.171L8.15651 6.275L8.15501 6.2765L8.10001 6.3255C8.09571 6.33005 8.09102 6.33424 8.08601 6.338L8.07251 6.35L7.96501 6.4315C7.95768 6.43854 7.95 6.44522 7.94201 6.4515V7.808C8.39601 7.653 10.605 6.916 10.843 7.132C10.8615 7.157 11.142 7.3315 8.57351 9.0885C8.47251 9.165 8.37451 9.2415 8.27351 9.3185L7.90201 9.602C7.43751 9.938 6.97601 10.275 6.51201 10.611L6.31051 10.7565C6.30751 11.123 6.30601 11.474 6.30451 11.7965L11.2045 8.1805C11.5034 7.92868 11.7866 7.65885 12.0525 7.3725C12.2025 7.212 12.3375 7.0415 12.4265 6.847C12.4725 6.7455 12.5065 6.647 12.4925 6.5415ZM4.50901 12.1025C4.44586 12.1812 4.41364 12.2803 4.41843 12.3812C4.42322 12.482 4.46468 12.5776 4.53501 12.65C4.5992 12.718 4.6847 12.7621 4.77735 12.7749C4.87001 12.7878 4.96426 12.7686 5.04451 12.7205L5.24051 12.5765C5.24201 12.282 5.24551 11.9235 5.24801 11.5365L4.58601 12.0275C4.55741 12.0493 4.53155 12.0745 4.50901 12.1025Z" fill="white"/>
<path fill-rule="evenodd" clip-rule="evenodd" d="M6.18234 6.47251C6.15802 6.38169 6.10148 6.30283 6.02327 6.25066C5.94506 6.19849 5.85053 6.17658 5.75734 6.18901C5.66419 6.20049 5.57847 6.2457 5.51638 6.31608C5.45429 6.38646 5.42012 6.47715 5.42034 6.57101V8.17001C5.42034 8.49351 5.40634 10.099 5.39434 11.431C5.39134 11.813 5.38784 12.1715 5.38634 12.471C5.38334 12.851 5.38184 13.136 5.38184 13.2525C5.38164 13.3032 5.39145 13.3534 5.41071 13.4003C5.42997 13.4472 5.4583 13.4898 5.49407 13.5257C5.52984 13.5616 5.57235 13.5901 5.61916 13.6096C5.66597 13.629 5.71615 13.639 5.76684 13.639H5.77134C5.87385 13.639 5.97215 13.5983 6.04464 13.5258C6.11712 13.4533 6.15784 13.355 6.15784 13.2525C6.15784 12.9845 6.16084 12.495 6.16384 11.8955C6.16534 11.5755 6.16884 11.2225 6.16984 10.856C6.18084 9.18951 6.19584 7.22601 6.19484 6.57101C6.19449 6.5378 6.1903 6.50475 6.18234 6.47251Z" fill="white"/>
</g>
<defs>
<clipPath id="clip0_7_8094">
<rect width="16" height="16" fill="white"/>
</clipPath>
</defs>
</svg>
