<svg width="16" height="16" viewBox="0 0 16 16" fill="none" xmlns="http://www.w3.org/2000/svg">
<g clip-path="url(#clip0_7_8085)">
<path d="M8 16C12.4183 16 16 12.4183 16 8C16 3.58172 12.4183 0 8 0C3.58172 0 0 3.58172 0 8C0 12.4183 3.58172 16 8 16Z" fill="#272D63"/>
<path d="M10.1075 3.6L9.7575 5.021C10.8395 5.399 11.636 5.966 11.4805 7.016C11.4355 7.335 11.3255 7.6545 11.0985 7.896C10.904 8.1045 10.6 8.215 10.3405 8.3C10.0293 8.40525 9.70391 8.46241 9.3755 8.4695C9.1555 8.4695 8.9415 8.463 8.7215 8.4435C8.3655 8.417 8.0025 8.3845 7.653 8.3065C7.543 8.2805 7.439 8.261 7.342 8.2345L6.869 10.1445L6.5905 11.1875L6.2405 12.6155L5.3795 12.4005L5.736 10.9595C5.535 10.9075 5.3275 10.849 5.1205 10.7965L4 10.5165L4.4275 9.5315C4.4275 9.5315 5.0625 9.7015 5.0555 9.6885C5.302 9.747 5.4055 9.584 5.4505 9.48L5.9365 7.524L6.163 6.618L6.4225 5.575C6.435 5.3925 6.3705 5.158 6.0205 5.073C6.0335 5.0665 5.3925 4.9165 5.3925 4.9165L5.619 3.991L6.804 4.291C6.986 4.336 7.167 4.3755 7.355 4.421L7.705 3L8.566 3.215L8.223 4.61C8.4495 4.6625 8.683 4.7145 8.9095 4.773L9.246 3.3845L10.1075 3.6ZM10.0365 8.75C10.276 8.7105 10.5675 8.613 10.7745 8.528C10.781 8.5215 10.7945 8.5215 10.8005 8.515C11.2475 8.9125 11.461 9.558 11.1695 10.386C10.7095 11.729 9.6025 11.8395 8.1385 11.5595L7.7825 13L6.9275 12.785L7.2575 11.4095L7.2705 11.364L7.53 10.3075C8.294 10.4775 9.324 10.588 9.518 9.7925C9.622 9.369 9.421 9.0625 9.097 8.841L9.434 8.821C9.674 8.8085 9.7965 8.7895 10.0365 8.75ZM9.7835 7.0025C10.0365 5.979 8.4685 5.7575 7.9835 5.6275L7.5555 7.361C8.0415 7.485 9.544 7.9805 9.7835 7.0025Z" fill="#FEFEFE"/>
</g>
<defs>
<clipPath id="clip0_7_8085">
<rect width="16" height="16" fill="white"/>
</clipPath>
</defs>
</svg>
