<svg width="16" height="16" viewBox="0 0 16 16" fill="none" xmlns="http://www.w3.org/2000/svg">
<g clip-path="url(#clip0_7_7754)">
<path d="M8 16C12.4183 16 16 12.4183 16 8C16 3.58172 12.4183 0 8 0C3.58172 0 0 3.58172 0 8C0 12.4183 3.58172 16 8 16Z" fill="#F8C24A"/>
<path d="M8 13.5C4.967 13.5 2.5 11.033 2.5 8C2.5 4.967 4.9685 2.5 8 2.5C11.0315 2.5 13.5 4.9685 13.5 8C13.5 8.501 13.432 9 13.2975 9.483C13.2638 9.59401 13.1879 9.68741 13.0862 9.7432C12.9844 9.79899 12.8649 9.81274 12.7532 9.7815C12.6414 9.75026 12.5463 9.67653 12.4883 9.57607C12.4302 9.47561 12.4138 9.35642 12.4425 9.244C12.555 8.839 12.6125 8.4205 12.612 8C12.612 5.457 10.543 3.388 8 3.388C5.457 3.388 3.388 5.457 3.388 8C3.388 10.543 5.457 12.612 8 12.612C8.476 12.612 8.9495 12.539 9.403 12.3945C9.45898 12.3752 9.51826 12.3673 9.57734 12.3712C9.63643 12.3752 9.69413 12.3909 9.74704 12.4174C9.79996 12.444 9.84703 12.4809 9.88548 12.5259C9.92393 12.571 9.95298 12.6233 9.97092 12.6797C9.98887 12.7361 9.99534 12.7956 9.98996 12.8545C9.98459 12.9135 9.96747 12.9708 9.93961 13.0231C9.91176 13.0753 9.87373 13.1215 9.82778 13.1588C9.78182 13.1962 9.72885 13.2239 9.672 13.2405C9.13144 13.413 8.5674 13.5005 8 13.5ZM9.6875 7.987C9.8775 8.146 10.0055 8.376 10.0715 8.6765C10.1145 8.8495 10.1115 9.031 10.0635 9.2025C10.0155 9.36153 9.93092 9.50709 9.8165 9.6275C9.69125 9.75786 9.54442 9.86561 9.3825 9.946C9.2115 10.0345 9.171 10.063 8.967 10.108L8.84 10.1385C8.80234 10.1477 8.76977 10.1712 8.74929 10.2041C8.72882 10.237 8.72207 10.2767 8.7305 10.3145L8.8055 10.6505C8.8097 10.6695 8.8101 10.6892 8.80669 10.7083C8.80328 10.7275 8.79612 10.7458 8.78562 10.7622C8.77513 10.7786 8.7615 10.7928 8.74552 10.8039C8.72954 10.815 8.71152 10.8229 8.6925 10.827L8.354 10.902C8.33502 10.9062 8.31541 10.9066 8.29627 10.9032C8.27713 10.8999 8.25884 10.8928 8.24245 10.8823C8.22606 10.8719 8.21189 10.8583 8.20074 10.8424C8.1896 10.8264 8.1817 10.8085 8.1775 10.7895L8.1035 10.456C8.0993 10.437 8.0914 10.4191 8.08025 10.4031C8.06911 10.3872 8.05494 10.3736 8.03855 10.3632C8.02216 10.3527 8.00387 10.3456 7.98473 10.3423C7.96559 10.3389 7.94598 10.3393 7.927 10.3435L7.0105 10.5465C6.91701 10.567 6.8192 10.5496 6.73856 10.498C6.65793 10.4465 6.60107 10.365 6.5805 10.2715L5.7555 6.542C5.73497 6.44851 5.7524 6.3507 5.80397 6.27006C5.85554 6.18943 5.93702 6.13257 6.0305 6.112L6.947 5.909C6.96598 5.9048 6.98394 5.8969 6.99986 5.88576C7.01579 5.87461 7.02936 5.86044 7.0398 5.84405C7.05025 5.82766 7.05737 5.80937 7.06075 5.79023C7.06413 5.77109 7.0637 5.75148 7.0595 5.7325L6.9845 5.3965C6.98038 5.37749 6.98006 5.35786 6.98353 5.33872C6.98701 5.31958 6.99423 5.30132 7.00477 5.28497C7.01531 5.26863 7.02897 5.25452 7.04497 5.24346C7.06097 5.23239 7.07899 5.22459 7.098 5.2205L7.4365 5.1455C7.45548 5.1413 7.47509 5.14087 7.49423 5.14425C7.51337 5.14763 7.53166 5.15475 7.54805 5.1652C7.56444 5.17564 7.57861 5.18921 7.58976 5.20514C7.6009 5.22106 7.6088 5.23902 7.613 5.258L7.687 5.592C7.6956 5.63023 7.71901 5.66349 7.7521 5.68449C7.78518 5.70548 7.82525 5.7125 7.8635 5.704L8.1435 5.643C8.2885 5.609 8.44 5.6115 8.5835 5.6505C8.7205 5.688 8.8485 5.752 8.96 5.839C9.18656 6.0199 9.34431 6.27294 9.407 6.556C9.454 6.766 9.4445 6.985 9.38 7.191C9.31316 7.40465 9.17853 7.5907 8.9965 7.721C9.2495 7.733 9.4915 7.826 9.6875 7.987ZM6.9725 7.1885L7.0215 7.4015C7.04207 7.49498 7.09893 7.57646 7.17956 7.62803C7.2602 7.6796 7.35801 7.69703 7.4515 7.6765L8.105 7.5315C8.21555 7.50797 8.3135 7.4444 8.38 7.353C8.4505 7.259 8.4685 7.133 8.4335 6.9745C8.401 6.8285 8.3375 6.7245 8.2435 6.6625C8.19931 6.63214 8.14925 6.61138 8.09654 6.60156C8.04384 6.59174 7.98966 6.59308 7.9375 6.6055L7.2475 6.758C7.20116 6.76818 7.15729 6.7874 7.11838 6.81456C7.07948 6.84171 7.04631 6.87627 7.02076 6.91625C6.99522 6.95623 6.97782 7.00085 6.96953 7.04757C6.96125 7.09429 6.96226 7.14217 6.9725 7.1885ZM8.927 9.072H8.928C8.96205 9.01693 8.98448 8.95548 8.99394 8.89143C9.0034 8.82737 8.99968 8.76206 8.983 8.6995C8.95829 8.57164 8.88858 8.45687 8.7865 8.376C8.74104 8.33824 8.68744 8.31155 8.62992 8.29801C8.5724 8.28448 8.51252 8.28448 8.455 8.298L7.627 8.4815C7.53352 8.50207 7.45204 8.55893 7.40047 8.63956C7.3489 8.7202 7.33147 8.81801 7.352 8.9115L7.41 9.175C7.42018 9.22134 7.4394 9.26521 7.46656 9.30412C7.49371 9.34302 7.52826 9.37619 7.56825 9.40174C7.60823 9.42728 7.65285 9.44468 7.69957 9.45297C7.74628 9.46125 7.79417 9.46024 7.8405 9.45L8.625 9.2765C8.68666 9.26492 8.74528 9.24079 8.79723 9.20561C8.84918 9.17043 8.89335 9.12495 8.927 9.072ZM10.576 11.7635L11.3425 10.8475C11.3595 10.8273 11.3703 10.8026 11.3737 10.7765C11.3771 10.7503 11.373 10.7237 11.3618 10.6998C11.3506 10.6759 11.3328 10.6557 11.3105 10.6415C11.2883 10.6274 11.2624 10.6199 11.236 10.62H10.72C10.7018 10.6201 10.6837 10.6165 10.6668 10.6096C10.65 10.6027 10.6347 10.5925 10.6217 10.5796C10.6088 10.5667 10.5986 10.5515 10.5916 10.5346C10.5846 10.5178 10.581 10.4997 10.581 10.4815V10.3735C10.581 10.297 10.643 10.235 10.72 10.235H11.899C11.9357 10.235 11.971 10.2496 11.9969 10.2756C12.0229 10.3015 12.0375 10.3368 12.0375 10.3735V10.5155C12.0375 10.5467 12.0269 10.577 12.0075 10.6015L11.274 11.5225C11.2577 11.5429 11.2475 11.5675 11.2445 11.5934C11.2416 11.6194 11.2461 11.6456 11.2574 11.6692C11.2688 11.6927 11.2865 11.7125 11.3087 11.7264C11.3308 11.7402 11.3564 11.7476 11.3825 11.7475H11.908C11.9845 11.7475 12.047 11.8095 12.047 11.886V11.9935C12.047 12.0117 12.0434 12.0298 12.0364 12.0466C12.0294 12.0635 12.0192 12.0787 12.0063 12.0916C11.9933 12.1045 11.978 12.1147 11.9612 12.1216C11.9443 12.1285 11.9262 12.1321 11.908 12.132H10.682C10.6453 12.132 10.61 12.1174 10.5841 12.0914C10.5581 12.0655 10.5435 12.0302 10.5435 11.9935V11.8535C10.5434 11.8206 10.5549 11.7888 10.576 11.7635Z" fill="white"/>
</g>
<defs>
<clipPath id="clip0_7_7754">
<rect width="16" height="16" fill="white"/>
</clipPath>
</defs>
</svg>
