<svg width="16" height="16" viewBox="0 0 16 16" fill="none" xmlns="http://www.w3.org/2000/svg">
<g clip-path="url(#clip0_7_7760)">
<path d="M8 16C12.4183 16 16 12.4183 16 8C16 3.58172 12.4183 0 8 0C3.58172 0 0 3.58172 0 8C0 12.4183 3.58172 16 8 16Z" fill="#00AAFF"/>
<path d="M7.98073 2.47C4.93673 2.47 2.46973 4.937 2.46973 7.981C2.46973 11.0245 4.93673 13.4925 7.98073 13.4925C11.0242 13.4925 13.4922 11.0245 13.4922 7.981C13.4922 4.937 11.0242 2.47 7.98073 2.47ZM7.99823 3.343C8.43921 3.34286 8.8737 3.44922 9.26475 3.65303C9.65581 3.85685 9.99186 4.15208 10.2443 4.51363C10.4968 4.87519 10.6582 5.29236 10.7149 5.72969C10.7715 6.16701 10.7217 6.61155 10.5697 7.0255C10.333 6.98392 10.0902 6.99048 9.85606 7.04477C9.62188 7.09906 9.40104 7.19998 9.20673 7.3415C9.37671 7.17896 9.51194 6.98362 9.60424 6.7673C9.69655 6.55098 9.744 6.31819 9.74373 6.083C9.74359 5.6197 9.55959 5.1754 9.23213 4.84765C8.90467 4.51991 8.46052 4.33553 7.99723 4.335C7.56482 4.33535 7.1479 4.496 6.82707 4.7859C6.50623 5.07579 6.30427 5.47435 6.26023 5.9045C5.93176 5.84582 5.5958 5.84244 5.26623 5.8945C5.31373 5.20226 5.62219 4.55384 6.12929 4.08024C6.6364 3.60663 7.30435 3.34315 7.99823 3.343ZM9.00573 8.489L8.03673 7.909C8.00514 7.88995 7.9689 7.88001 7.93202 7.88028C7.89513 7.88054 7.85904 7.891 7.82773 7.9105L6.97773 8.4355C6.94449 8.45577 6.91789 8.48531 6.90119 8.52048C6.88449 8.55565 6.87842 8.59493 6.88373 8.6335C6.90608 8.79516 6.89425 8.95971 6.849 9.11651C6.80374 9.27331 6.72608 9.41887 6.62103 9.54376C6.51598 9.66865 6.38588 9.7701 6.23915 9.84154C6.09242 9.91299 5.93233 9.95283 5.76923 9.9585C5.61353 9.9634 5.45843 9.93692 5.31317 9.88065C5.16791 9.82438 5.03546 9.73947 4.92368 9.63096C4.81191 9.52246 4.72311 9.39258 4.66256 9.24905C4.60201 9.10552 4.57095 8.95128 4.57123 8.7955C4.57298 8.49122 4.69341 8.19965 4.90688 7.98281C5.12035 7.76598 5.41001 7.64101 5.71423 7.6345C5.88129 7.63167 6.04699 7.66496 6.2 7.7321C6.353 7.79924 6.4897 7.89864 6.60073 8.0235C6.66273 8.0935 6.76573 8.1085 6.84673 8.0635L7.66573 7.604C7.69682 7.5864 7.72272 7.5609 7.7408 7.53009C7.75889 7.49927 7.76852 7.46423 7.76873 7.4285V7.3785C7.76846 7.33625 7.75496 7.29515 7.73011 7.26098C7.70527 7.2268 7.67033 7.20128 7.63023 7.188C7.36386 7.09916 7.13863 6.91696 6.99612 6.67502C6.85361 6.43309 6.80343 6.14777 6.85486 5.87173C6.90629 5.59569 7.05585 5.34758 7.27593 5.1732C7.49601 4.99882 7.77174 4.90995 8.05223 4.923C8.33546 4.93761 8.60367 5.05491 8.80668 5.25296C9.00969 5.451 9.1336 5.71622 9.15523 5.999C9.17533 6.27003 9.09973 6.53952 8.94157 6.76053C8.78342 6.98155 8.55274 7.14007 8.28973 7.2085C8.24604 7.21928 8.20719 7.24429 8.1793 7.2796C8.15142 7.31492 8.13608 7.35851 8.13573 7.4035V7.412C8.13573 7.482 8.17273 7.5465 8.23173 7.5835L9.09223 8.1125C9.13362 8.13823 9.18299 8.14795 9.23105 8.13985C9.27911 8.13175 9.32255 8.10638 9.35323 8.0685C9.46508 7.92892 9.60765 7.81705 9.76983 7.7416C9.932 7.66615 10.1094 7.62915 10.2882 7.6335C10.5965 7.64537 10.8875 7.77923 11.0971 8.00563C11.3067 8.23204 11.4178 8.53244 11.406 8.84075C11.3941 9.14907 11.2602 9.44004 11.0338 9.64966C10.8074 9.85927 10.507 9.97037 10.1987 9.9585C10.0417 9.94993 9.888 9.90968 9.74692 9.84017C9.60584 9.77066 9.48029 9.67332 9.3778 9.55403C9.27532 9.43473 9.19803 9.29593 9.15059 9.14598C9.10314 8.99603 9.08652 8.83804 9.10173 8.6815C9.10573 8.6436 9.09882 8.60535 9.08181 8.57125C9.0648 8.53714 9.0384 8.50861 9.00573 8.489ZM5.73223 11.5055C5.37615 11.5056 5.02354 11.4356 4.69454 11.2994C4.36554 11.1632 4.0666 10.9636 3.81479 10.7118C3.56298 10.46 3.36325 10.1611 3.227 9.83215C3.09075 9.50317 3.02066 9.15058 3.02073 8.7945C3.02047 8.39437 3.1088 7.99914 3.27939 7.63719C3.44998 7.27524 3.69859 6.95555 4.00737 6.70107C4.31615 6.44659 4.67745 6.26363 5.06532 6.16532C5.45319 6.06702 5.85801 6.05581 6.25073 6.1325C6.26372 6.59089 6.45663 7.02573 6.78773 7.343C6.48182 7.11947 6.1126 6.99931 5.73373 7C5.26292 7.00786 4.81405 7.20041 4.48388 7.53613C4.15371 7.87186 3.96868 8.32388 3.96868 8.79475C3.96868 9.26563 4.15371 9.71765 4.48388 10.0534C4.81405 10.3891 5.26292 10.5816 5.73373 10.5895C6.09248 10.5895 6.44296 10.4817 6.73981 10.2803C7.03665 10.0788 7.2662 9.79288 7.39873 9.4595C7.48423 9.8325 7.64223 10.177 7.85523 10.481C7.60165 10.801 7.27894 11.0594 6.91126 11.2369C6.54359 11.4145 6.14051 11.5059 5.73223 11.5055ZM10.2602 11.5055C9.57302 11.5055 8.91145 11.2445 8.40923 10.7754C7.90701 10.3064 7.6016 9.66411 7.55473 8.9785C7.85995 9.02497 8.17058 9.02311 8.47523 8.973C8.50758 9.29751 8.62773 9.60708 8.82277 9.86846C9.01781 10.1298 9.28037 10.3331 9.58225 10.4565C9.88413 10.5799 10.2139 10.6187 10.5362 10.5688C10.8585 10.5188 11.1611 10.3821 11.4115 10.1731C11.6618 9.96415 11.8506 9.69094 11.9574 9.3828C12.0642 9.07466 12.085 8.74325 12.0177 8.42416C11.9503 8.10507 11.7973 7.81036 11.575 7.57169C11.3528 7.33302 11.0697 7.15941 10.7562 7.0695C10.8603 6.77908 10.9174 6.47391 10.9252 6.1655C11.5652 6.32859 12.1236 6.71959 12.4958 7.26514C12.868 7.81069 13.0283 8.4733 12.9467 9.12865C12.8651 9.784 12.5472 10.387 12.0525 10.8247C11.5579 11.2623 10.9206 11.5043 10.2602 11.5055Z" fill="white"/>
<path d="M8 1.5C4.4105 1.5 1.5 4.4105 1.5 8C1.5 11.5895 4.4105 14.5 8 14.5C11.5895 14.5 14.5 11.5895 14.5 8C14.5 4.4105 11.5895 1.5 8 1.5ZM7.981 14.011C4.651 14.011 1.952 11.312 1.952 7.982C1.952 4.652 4.651 1.9535 7.981 1.9535C11.3105 1.9535 14.0095 4.6525 14.0095 7.982C14.0095 11.312 11.3105 14.011 7.981 14.011Z" fill="white"/>
</g>
<defs>
<clipPath id="clip0_7_7760">
<rect width="16" height="16" fill="white"/>
</clipPath>
</defs>
</svg>
