<svg width="16" height="16" viewBox="0 0 16 16" fill="none" xmlns="http://www.w3.org/2000/svg">
<g clip-path="url(#clip0_7_8007)">
<path d="M8 16C12.4183 16 16 12.4183 16 8C16 3.58172 12.4183 0 8 0C3.58172 0 0 3.58172 0 8C0 12.4183 3.58172 16 8 16Z" fill="#EBA809"/>
<path fill-rule="evenodd" clip-rule="evenodd" d="M8 13.5C4.9625 13.5 2.5 11.0375 2.5 8C2.5 4.9625 4.9625 2.5 8 2.5C11.0375 2.5 13.5 4.9625 13.5 8C13.5 11.0375 11.0375 13.5 8 13.5ZM7.506 3.37C7.507 3.8075 7.507 4.245 7.507 4.6825L8.162 4.6835C8.1635 4.235 8.1645 3.786 8.162 3.3375C7.9435 3.345 7.724 3.3555 7.506 3.37ZM9.082 4.7035C9.658 4.781 10.277 4.869 10.7355 5.2575C11.436 5.886 11.3455 7.2055 10.488 7.661C11.0015 7.781 11.51 8.1225 11.6365 8.662C11.8015 9.369 11.6705 10.217 11.102 10.715C10.539 11.1775 9.777 11.2385 9.0805 11.305C9.0835 11.714 9.0825 12.123 9.0815 12.533C10.5465 12.1755 11.8115 11.0855 12.349 9.6755C12.859 8.3745 12.739 6.844 12.018 5.6455C11.3815 4.5655 10.2995 3.7705 9.0845 3.4665C9.0815 3.879 9.0815 4.2915 9.0825 4.7035H9.082ZM4.709 4.686C5.344 4.716 5.979 4.71 6.614 4.709C6.614 4.323 6.6155 3.937 6.612 3.551C5.901 3.7815 5.268 4.195 4.7085 4.686H4.709ZM3.968 5.681C3.2215 6.951 3.1375 8.5805 3.76 9.917C4.2975 11.115 5.364 12.047 6.6125 12.4485C6.615 12.0635 6.614 11.6775 6.614 11.2925C5.9765 11.286 5.3375 11.3095 4.7015 11.275C4.7085 10.92 4.7915 10.573 4.913 10.2395C5.225 10.233 5.5505 10.2875 5.852 10.186C6.028 10.038 5.978 9.7935 5.987 9.591C5.978 8.434 5.992 7.2765 5.981 6.1195C5.9925 5.933 5.8755 5.7315 5.681 5.6945C5.361 5.631 5.0325 5.656 4.709 5.654C4.671 5.394 4.667 5.1305 4.6625 4.867C4.66772 4.84028 4.66726 4.81275 4.66114 4.78622C4.65503 4.75969 4.64339 4.73474 4.627 4.713C4.444 5.06 4.153 5.3345 3.968 5.6805V5.681ZM7.533 5.7315V7.4375C8.1035 7.4275 8.736 7.4905 9.235 7.1595C9.649 6.889 9.6225 6.2025 9.195 5.9595C8.696 5.6635 8.087 5.7475 7.5335 5.7315H7.533ZM7.533 8.3555V10.248C8.237 10.191 9.027 10.3095 9.6395 9.885C10.0775 9.5945 10.025 8.8755 9.5735 8.624C8.96 8.2575 8.2145 8.374 7.5335 8.3555H7.533ZM7.5075 11.318C7.5075 11.7555 7.5065 12.193 7.505 12.6315C7.733 12.6465 7.961 12.6555 8.189 12.6615C8.191 12.214 8.19 11.766 8.19 11.318H7.5075Z" fill="white"/>
</g>
<defs>
<clipPath id="clip0_7_8007">
<rect width="16" height="16" fill="white"/>
</clipPath>
</defs>
</svg>
