<svg width="16" height="16" viewBox="0 0 16 16" fill="none" xmlns="http://www.w3.org/2000/svg">
<g clip-path="url(#clip0_7_8023)">
<path d="M8 16C12.4183 16 16 12.4183 16 8C16 3.58172 12.4183 0 8 0C3.58172 0 0 3.58172 0 8C0 12.4183 3.58172 16 8 16Z" fill="#504C4C"/>
<path d="M5.4135 7.688L4.541 9.537L4.947 11.053L5.98 11.329L7.262 12.6125L6.876 13L3.82 12.18L3 9.124L3.615 8.51L6.286 5.8385L5.4135 7.688L4.541 9.537L7.262 6.816L6.286 5.8385L5.4135 7.688ZM6.816 8.738L9.537 11.459L11.053 11.053L11.33 10.02L12.6125 8.738L13 9.124L12.181 12.181L9.124 13L5.8395 9.714L6.816 8.738ZM9.184 7.262L6.463 4.541L4.946 4.947L4.67 5.9785L3.3875 7.262L3 6.876L3.82 3.819L6.876 3L7.49 3.615L10.16 6.285L9.184 7.262ZM10.02 4.67L8.738 3.3875L9.124 3L12.181 3.819L13 6.876L9.714 10.1605L8.738 9.184L11.46 6.462L11.053 4.946L10.02 4.67Z" fill="white"/>
</g>
<defs>
<clipPath id="clip0_7_8023">
<rect width="16" height="16" fill="white"/>
</clipPath>
</defs>
</svg>
