<svg width="16" height="16" viewBox="0 0 16 16" fill="none" xmlns="http://www.w3.org/2000/svg">
<g clip-path="url(#clip0_7_8115)">
<path d="M8 16C12.4183 16 16 12.4183 16 8C16 3.58172 12.4183 0 8 0C3.58172 0 0 3.58172 0 8C0 12.4183 3.58172 16 8 16Z" fill="#35BAEB"/>
<path d="M4.51522 2.5L7.65222 5.2825C7.68872 5.316 7.72822 5.344 7.75872 5.38C7.76221 5.40132 7.76372 5.42291 7.76322 5.4445C7.76172 6.643 7.76622 7.8405 7.76172 9.0375C7.60482 9.06981 7.45441 9.12811 7.31672 9.21L4.54522 6.439C4.53454 6.43031 4.52623 6.41906 4.52107 6.4063C4.51591 6.39353 4.51407 6.37967 4.51572 6.366C4.51872 5.077 4.51572 3.789 4.51872 2.501L4.51522 2.5ZM8.23872 6.8035C8.9984 6.85431 9.72053 7.15251 10.2947 7.6525C10.1312 7.8275 9.95472 7.9925 9.78572 8.164C9.42872 8.52 9.07422 8.879 8.71572 9.2315C8.57091 9.13702 8.40933 9.07117 8.23972 9.0375C8.23572 8.294 8.23972 7.549 8.23972 6.8035H8.23872ZM4.51672 7.1375C5.33072 7.944 6.13972 8.756 6.95222 9.564C6.85722 9.7115 6.78922 9.874 6.75122 10.0455H4.51522V7.136L4.51672 7.1375ZM10.3197 8.304C10.4262 8.202 10.5237 8.0925 10.6362 7.994C11.1363 8.5659 11.4349 9.28606 11.4862 10.044C10.7527 10.047 10.0177 10.044 9.28422 10.0455C9.24022 10.0555 9.24022 10.0045 9.23172 9.977C9.19657 9.83221 9.13577 9.69487 9.05222 9.5715C9.47222 9.1485 9.89672 8.727 10.3197 8.3055V8.304ZM4.51522 10.521H6.42572C6.53522 10.521 6.64472 10.516 6.75572 10.5235C6.78972 10.6925 6.85572 10.8535 6.94922 10.9975L5.39922 12.5435C5.38772 12.5525 5.36872 12.58 5.35522 12.5585C4.86056 11.9891 4.56559 11.2736 4.51522 10.521ZM9.24622 10.5235C9.56122 10.5165 9.87322 10.5235 10.1882 10.521H11.4862C11.4372 11.2673 11.1463 11.9773 10.6577 12.5435L9.75372 11.6425C9.52772 11.415 9.29722 11.1915 9.07372 10.961C9.15722 10.827 9.21572 10.6785 9.24622 10.5235ZM8.61922 11.3885C8.65422 11.3685 8.68922 11.3475 8.72422 11.33L10.3022 12.905C9.7273 13.4092 9.00184 13.7093 8.23872 13.7585V11.527C8.37156 11.5003 8.49942 11.4531 8.61772 11.387L8.61922 11.3885ZM6.32372 12.2855C6.64472 11.9675 6.96222 11.6455 7.28622 11.3305C7.43122 11.4235 7.59272 11.4905 7.76122 11.527V13.7585C7.00126 13.7089 6.27875 13.4106 5.70522 12.9095C5.90672 12.698 6.11822 12.4955 6.32372 12.287V12.2855Z" fill="white"/>
</g>
<defs>
<clipPath id="clip0_7_8115">
<rect width="16" height="16" fill="white"/>
</clipPath>
</defs>
</svg>
