<svg width="16" height="16" viewBox="0 0 16 16" fill="none" xmlns="http://www.w3.org/2000/svg">
<g clip-path="url(#clip0_7_8035)">
<path d="M8 16C12.4183 16 16 12.4183 16 8C16 3.58172 12.4183 0 8 0C3.58172 0 0 3.58172 0 8C0 12.4183 3.58172 16 8 16Z" fill="black"/>
<path d="M13.8714 6.7695C13.7924 6.3854 13.6755 6.01007 13.5224 5.649C13.3716 5.29335 13.1871 4.95296 12.9714 4.6325C12.7576 4.31589 12.5136 4.02068 12.2429 3.75099C11.9731 3.48031 11.6777 3.23635 11.3609 3.0225C11.04 2.80789 10.6999 2.62343 10.3449 2.47149C9.61092 2.16018 8.82176 1.99974 8.02444 1.99974C7.22713 1.99974 6.43797 2.16018 5.70394 2.47149C4.99417 2.77088 4.3495 3.20564 3.80594 3.75149C3.53531 4.02102 3.29135 4.31606 3.07744 4.6325C2.86281 4.9536 2.67835 5.29389 2.52644 5.649C2.21512 6.38302 2.05469 7.17218 2.05469 7.96949C2.05469 8.76681 2.21512 9.55597 2.52644 10.29C2.67344 10.645 2.86344 10.9815 3.07744 11.306C3.29133 11.6227 3.5353 11.9181 3.80594 12.188C4.07579 12.4587 4.37116 12.7026 4.68794 12.9165C5.00594 13.1305 5.34894 13.3145 5.70394 13.4675C6.43797 13.7788 7.22713 13.9392 8.02444 13.9392C8.82176 13.9392 9.61092 13.7788 10.3449 13.4675C10.6999 13.3205 11.0364 13.1305 11.3609 12.9165C11.6777 12.7026 11.9731 12.4587 12.2429 12.188C12.5136 11.9182 12.7576 11.6228 12.9714 11.306C13.1854 10.988 13.3694 10.645 13.5224 10.29C13.9935 9.17913 14.1152 7.95121 13.8714 6.7695ZM8.02994 13.192C5.14644 13.192 2.81394 10.853 2.81394 7.9755C2.81394 5.098 5.15294 2.759 8.02994 2.759C10.9074 2.759 13.2464 5.098 13.2464 7.9755C13.2464 10.853 10.9079 13.192 8.02994 13.192Z" fill="white"/>
<path d="M8.12222 12.739H8.26322C8.28772 12.739 8.31172 12.739 8.33622 12.7325H8.34272C8.36722 12.7325 8.38522 12.7325 8.40972 12.7265H8.42822C8.44672 12.7265 8.46522 12.7265 8.48322 12.7205H8.50172C8.52022 12.7205 8.53872 12.7145 8.56322 12.7145H8.57522C8.59972 12.7145 8.62422 12.708 8.64872 12.708C8.67322 12.708 8.69172 12.702 8.71622 12.696H8.72822C8.74672 12.696 8.76522 12.69 8.78322 12.69H8.79572C8.82022 12.6835 8.83872 12.6835 8.86322 12.6775C8.91172 12.6715 8.96072 12.659 9.00372 12.647H9.01622C9.03422 12.641 9.05872 12.641 9.07722 12.6345H9.08322C9.13222 12.6225 9.17522 12.61 9.22422 12.598C8.76563 12.6125 8.30704 12.5694 7.85922 12.4695C7.18522 12.3225 6.54272 12.0595 5.99772 11.606C5.56806 11.2484 5.22325 10.7998 4.98821 10.2927C4.75318 9.78551 4.6338 9.23245 4.63872 8.67349C4.64313 7.8396 4.93985 7.03366 5.47722 6.39599C6.17522 5.56949 7.16722 5.13449 8.18322 5.10999H8.32422V4.29599H8.16522C7.85613 4.30165 7.5484 4.33851 7.24672 4.40599C6.94313 4.47464 6.64766 4.5752 6.36522 4.70599C6.07722 4.84099 5.80772 5.00599 5.55672 5.19599C5.29735 5.39315 5.06117 5.6191 4.85272 5.86949C4.65645 6.10123 4.4861 6.35373 4.34472 6.62249C4.20484 6.88158 4.09192 7.15435 4.00772 7.43649C3.92512 7.71427 3.86986 7.99946 3.84272 8.28799L3.82422 8.55699V8.71599C3.83022 9.02849 3.86722 9.33449 3.93422 9.63449C4.00172 9.94099 4.10572 10.2345 4.23422 10.5165C4.38772 10.853 4.66322 11.349 5.07322 11.7225C5.91037 12.3824 6.94572 12.7406 8.01172 12.739H8.12222Z" fill="white"/>
<path d="M9.45689 11.955C9.15491 11.9442 8.85412 11.9115 8.55689 11.857C7.29589 11.6305 6.21189 10.859 5.81439 9.696C5.33039 8.2815 6.07139 6.751 7.47939 6.286C7.74772 6.19608 8.0289 6.15048 8.31189 6.151C8.67339 6.151 9.03439 6.2245 9.36539 6.359L9.70789 5.6305C9.60489 5.5892 9.50086 5.55053 9.39589 5.5145C9.04511 5.4044 8.67955 5.34859 8.31189 5.349C7.94354 5.34969 7.57771 5.40962 7.22839 5.5265C6.78257 5.67355 6.37198 5.91119 6.02239 6.2245C5.8538 6.37469 5.70008 6.54079 5.56339 6.7205C5.42827 6.89816 5.31135 7.08895 5.21439 7.29C5.01697 7.69421 4.90045 8.1331 4.87139 8.582C4.84089 9.047 4.90189 9.512 5.05489 9.953C5.21079 10.4067 5.46132 10.822 5.78989 11.1715C6.08989 11.496 6.43889 11.741 6.86089 11.9675C7.30189 12.2 7.84689 12.3225 8.41589 12.4025C8.78339 12.451 9.27339 12.4635 9.56089 12.4635C9.81189 12.3715 9.91589 12.3285 10.0509 12.2735C10.1674 12.2185 10.2834 12.1635 10.3999 12.096C10.5164 12.0285 10.5349 12.016 10.7304 11.888C10.7478 11.8772 10.7642 11.8648 10.7794 11.851C10.1059 11.9675 9.93439 11.961 9.45689 11.955Z" fill="white"/>
<path d="M10.9636 11.043C10.7736 11.055 10.5041 11.073 10.1981 11.073C9.65305 11.073 8.98555 11.0245 8.41655 10.8345C7.53455 10.541 6.70205 9.78799 6.70205 8.85699C6.70186 8.63665 6.74511 8.41842 6.82935 8.21481C6.91358 8.0112 7.03713 7.82619 7.19294 7.67038C7.34875 7.51457 7.53376 7.39102 7.73737 7.30678C7.94098 7.22255 8.15921 7.1793 8.37956 7.17949C9.01006 7.17949 9.55506 7.52849 9.84306 8.03649L10.5716 7.67549C10.4573 7.46044 10.3106 7.2643 10.1366 7.09399C9.90593 6.86297 9.63202 6.6797 9.33049 6.55465C9.02896 6.4296 8.70573 6.36523 8.3793 6.36523C8.05287 6.36523 7.72965 6.4296 7.42812 6.55465C7.12659 6.6797 6.85268 6.86297 6.62206 7.09399C6.39111 7.32461 6.2079 7.59849 6.0829 7.89997C5.95789 8.20145 5.89355 8.52462 5.89355 8.85099C5.89519 9.19304 5.96843 9.53096 6.10855 9.84299C6.23655 10.1245 6.41455 10.388 6.64105 10.633C7.03905 11.061 7.58355 11.404 8.16555 11.6C8.72255 11.7835 9.54305 11.851 10.3391 11.796C10.5591 11.7775 10.7246 11.759 11.0061 11.698C11.2777 11.4836 11.5243 11.2392 11.7411 10.9695C11.5511 10.988 11.2021 11.0245 10.9636 11.043Z" fill="white"/>
</g>
<defs>
<clipPath id="clip0_7_8035">
<rect width="16" height="16" fill="white"/>
</clipPath>
</defs>
</svg>
