<svg width="16" height="16" viewBox="0 0 16 16" fill="none" xmlns="http://www.w3.org/2000/svg">
<g clip-path="url(#clip0_7_8107)">
<path d="M8 16C12.4183 16 16 12.4183 16 8C16 3.58172 12.4183 0 8 0C3.58172 0 0 3.58172 0 8C0 12.4183 3.58172 16 8 16Z" fill="#FB2EA3"/>
<path d="M11.3158 7.01C11.2023 7.7775 10.7768 8.149 10.2123 8.279C10.9873 8.6825 11.3823 9.302 11.0063 10.375C10.5398 11.708 9.43182 11.82 7.95832 11.5415L7.59982 12.975L6.73582 12.7595L7.08882 11.3455C6.85851 11.2883 6.62883 11.2287 6.39982 11.1665L6.04582 12.5875L5.18232 12.3725L5.54032 10.936C5.33832 10.8845 5.13332 10.8295 4.92382 10.777L3.79932 10.497L4.22832 9.507C4.22832 9.507 4.86532 9.677 4.85632 9.664C5.10132 9.7245 5.20982 9.565 5.25282 9.459L5.81782 7.193L5.90932 7.2155C5.87998 7.20403 5.84991 7.19451 5.81932 7.187L6.22232 5.5695C6.23282 5.3855 6.16982 5.1545 5.81982 5.0665C5.83332 5.0575 5.19182 4.9105 5.19182 4.9105L5.42182 3.9875L6.61382 4.285L6.61282 4.29C6.79182 4.334 6.97682 4.3765 7.16482 4.4195L7.51932 3L8.38332 3.215L8.03632 4.607C8.26782 4.66 8.50132 4.713 8.72832 4.77L9.07332 3.3875L9.93732 3.6025L9.58332 5.0225C10.6748 5.3985 11.4728 5.962 11.3158 7.01ZM9.34082 9.779C9.62082 8.66 7.74182 8.3705 7.15582 8.224L6.68132 10.1265C7.26732 10.272 9.07432 10.8525 9.34132 9.779H9.34082ZM9.60832 6.9945C9.86232 5.976 8.29132 5.7495 7.80332 5.6275L7.37332 7.353C7.86082 7.475 9.36482 7.971 9.60832 6.9945ZM12.1233 10.809C12.0814 10.8034 12.0388 10.8061 11.998 10.817C11.9571 10.8279 11.9189 10.8468 11.8853 10.8725C11.8203 10.9282 11.7763 11.0044 11.7603 11.0885C11.7501 11.1353 11.7467 11.1833 11.7503 11.231C11.7546 11.2854 11.7721 11.3379 11.8013 11.384C11.8313 11.434 11.8793 11.481 11.9443 11.525C12.0093 11.5685 12.0993 11.6035 12.2143 11.63C12.2763 11.645 12.3403 11.652 12.4058 11.6515C12.4718 11.6515 12.5328 11.641 12.5888 11.62C12.648 11.5991 12.7008 11.5632 12.742 11.5158C12.7832 11.4684 12.8114 11.4111 12.8238 11.3495C12.8356 11.3056 12.8386 11.2598 12.8326 11.2147C12.8266 11.1697 12.8117 11.1263 12.7888 11.087C12.7428 11.01 12.6673 10.951 12.5618 10.91L12.6388 10.577C12.8288 10.6535 12.9618 10.763 13.0388 10.9045C13.1158 11.0465 13.1318 11.215 13.0868 11.41C13.064 11.5181 13.0189 11.6203 12.9543 11.71C12.8963 11.7891 12.8219 11.8548 12.7362 11.9026C12.6506 11.9504 12.5556 11.9792 12.4578 11.987C12.3503 11.9967 12.2418 11.9888 12.1368 11.9635C12.0288 11.9394 11.9251 11.8989 11.8293 11.8435C11.741 11.7929 11.6639 11.7249 11.6028 11.6435C11.5434 11.5627 11.5027 11.4696 11.4838 11.371C11.4636 11.2579 11.4679 11.1418 11.4963 11.0305C11.5155 10.946 11.5462 10.8645 11.5878 10.7885C11.6283 10.7145 11.6778 10.652 11.7373 10.601C11.7963 10.55 11.8643 10.513 11.9413 10.49C12.0188 10.4665 12.1048 10.462 12.2003 10.4755L12.1233 10.809ZM13.4693 9.7525C13.4457 9.86366 13.4 9.96893 13.3348 10.062C13.2733 10.147 13.1998 10.214 13.1148 10.2635C13.0269 10.3134 12.9295 10.3444 12.8288 10.3545C12.7171 10.3657 12.6044 10.3579 12.4953 10.3315C12.3866 10.3075 12.2828 10.2652 12.1883 10.2065C12.1023 10.1534 12.0284 10.0829 11.9713 9.9995C11.9153 9.91573 11.8777 9.82095 11.8613 9.7215C11.8437 9.60946 11.8488 9.49502 11.8763 9.385C11.8999 9.27384 11.9456 9.16857 12.0108 9.0755C12.0728 8.9905 12.1458 8.923 12.2313 8.874C12.3193 8.82405 12.4167 8.79305 12.5173 8.783C12.6223 8.7715 12.7323 8.779 12.8473 8.8055C12.9569 8.82948 13.0617 8.87174 13.1573 8.9305C13.2473 8.9875 13.3193 9.0565 13.3743 9.138C13.4293 9.2195 13.4658 9.312 13.4843 9.4155C13.502 9.5277 13.4969 9.64232 13.4693 9.7525ZM12.1573 8.3535L12.2298 8.041L12.5218 8.1085L12.5233 8.1025C12.4825 8.08151 12.4463 8.05261 12.4168 8.0175C12.349 7.9386 12.304 7.84263 12.2868 7.74C12.2784 7.68816 12.2801 7.6352 12.2918 7.584C12.3009 7.54181 12.3136 7.50048 12.3298 7.4605L12.6513 7.5345C12.642 7.55746 12.6331 7.58063 12.6248 7.604C12.6164 7.62706 12.6094 7.6506 12.6038 7.6745C12.59 7.72936 12.5888 7.78664 12.6002 7.84205C12.6116 7.89747 12.6354 7.94958 12.6698 7.9945C12.7088 8.04482 12.757 8.08725 12.8118 8.1195C12.8713 8.156 12.9428 8.184 13.0268 8.2035L13.7458 8.3695L13.6688 8.7025L12.1573 8.3535ZM13.2973 7.2585C13.3553 7.2725 13.4138 7.277 13.4723 7.2735C13.5279 7.27001 13.5822 7.25575 13.6323 7.2315C13.682 7.20717 13.7256 7.17197 13.7598 7.1285C13.7984 7.07759 13.8251 7.01863 13.8378 6.956C13.861 6.87381 13.8581 6.78643 13.8293 6.706C13.7968 6.63196 13.7417 6.57016 13.6718 6.5295L13.7443 6.214C13.8528 6.2633 13.9455 6.34167 14.0121 6.44043C14.0787 6.53919 14.1167 6.65447 14.1218 6.7735C14.1268 6.8535 14.1198 6.9345 14.1013 7.0165C14.0738 7.1355 14.0298 7.2365 13.9698 7.319C13.9122 7.39999 13.8372 7.46714 13.7504 7.51557C13.6635 7.564 13.567 7.5925 13.4678 7.599C13.2488 7.61651 13.0298 7.56474 12.8418 7.451C12.7559 7.39724 12.6809 7.32768 12.6208 7.246C12.5623 7.16534 12.5213 7.07339 12.5003 6.976C12.4778 6.877 12.4803 6.771 12.5058 6.6575C12.5297 6.54583 12.5807 6.44177 12.6543 6.3545C12.7233 6.27361 12.8091 6.20876 12.9058 6.1645C13.0047 6.12073 13.1112 6.09694 13.2193 6.0945C13.3323 6.0905 13.4433 6.1085 13.5533 6.148L13.2968 7.259L13.2973 7.2585ZM13.2063 9.692C13.2228 9.62794 13.2228 9.56075 13.2064 9.49668C13.19 9.4326 13.1576 9.37372 13.1123 9.3255C13.0686 9.2778 13.0168 9.2382 12.9593 9.2085C12.84 9.14573 12.7066 9.11473 12.5718 9.1185C12.5072 9.11974 12.4433 9.13278 12.3833 9.157C12.3217 9.18074 12.2672 9.21962 12.2246 9.27005C12.182 9.32048 12.1529 9.38082 12.1398 9.4455C12.1232 9.50932 12.1229 9.57631 12.1389 9.64028C12.155 9.70425 12.187 9.76314 12.2318 9.8115C12.2733 9.8585 12.3243 9.897 12.3848 9.9285C12.5042 9.99102 12.6376 10.022 12.7723 10.0185C12.8371 10.0169 12.9011 10.0039 12.9613 9.98C13.0231 9.95651 13.078 9.91779 13.1208 9.86745C13.1636 9.8171 13.193 9.75675 13.2063 9.692ZM13.2573 6.4305C13.2043 6.42222 13.1504 6.42172 13.0973 6.429C13.0467 6.43466 12.9978 6.45025 12.9533 6.47487C12.9087 6.4995 12.8695 6.53268 12.8378 6.5725C12.805 6.61682 12.7815 6.66728 12.7686 6.72088C12.7557 6.77448 12.7538 6.83012 12.7628 6.8845C12.7728 6.937 12.7913 6.9845 12.8193 7.027C12.881 7.11643 12.9727 7.18081 13.0778 7.2085L13.2573 6.4305Z" fill="white"/>
</g>
<defs>
<clipPath id="clip0_7_8107">
<rect width="16" height="16" fill="white"/>
</clipPath>
</defs>
</svg>
