<svg width="16" height="16" viewBox="0 0 16 16" fill="none" xmlns="http://www.w3.org/2000/svg">
<g clip-path="url(#clip0_7_8004)">
<path d="M8 16C12.4183 16 16 12.4183 16 8C16 3.58172 12.4183 0 8 0C3.58172 0 0 3.58172 0 8C0 12.4183 3.58172 16 8 16Z" fill="#2D2D2D"/>
<path d="M5.853 9.648L2 8.385H4.5775L4.8325 7.1635L7.1215 7.165L7.6925 4H9.9955C11.5545 4 12.1865 4.6275 11.953 5.9225L11.903 6.2C11.7665 6.9545 11.422 7.456 10.83 7.7455C11.4165 8.0455 11.6135 8.613 11.466 9.4305L11.352 10.0635C11.124 11.3265 10.195 12 8.686 12H6.2485L6.88 8.5035H6.115L5.853 9.648ZM8.386 8.2745L7.914 10.8895H8.8865C9.4635 10.8895 9.784 10.6335 9.893 10.0295L10.0155 9.353C10.1545 8.5815 9.8875 8.2745 9.131 8.2745H8.386ZM8.9575 5.11L8.5455 7.392H9.2515C9.8955 7.392 10.272 7.117 10.3875 6.477L10.466 6.044C10.5785 5.4205 10.3455 5.11 9.755 5.11H9.05H8.9575Z" fill="white"/>
</g>
<defs>
<clipPath id="clip0_7_8004">
<rect width="16" height="16" fill="white"/>
</clipPath>
</defs>
</svg>
