<svg width="16" height="16" viewBox="0 0 16 16" fill="none" xmlns="http://www.w3.org/2000/svg">
<g clip-path="url(#clip0_7_8041)">
<path d="M8 16C12.4183 16 16 12.4183 16 8C16 3.58172 12.4183 0 8 0C3.58172 0 0 3.58172 0 8C0 12.4183 3.58172 16 8 16Z" fill="#00AEEF"/>
<path d="M6.976 12.2305H4.132L4.69 9.073L7.6425 6.4135H5.1315L7.162 5.169H10.4635L6.1935 9.384L5.9065 10.994C5.9065 10.994 6.86 11.064 7.6115 10.994C8.3635 10.9165 9.208 10.6055 9.208 10.6055L6.976 12.2305ZM11.448 5.4725L10.177 6.717C10.177 6.717 11.2465 7.907 10.262 9.54C9.2935 11.142 6.077 10.8465 6.077 10.8465L6.325 9.439L10.851 5.0215H7.1L7.48 2.875H5.6665L5.0155 6.5455H7.325L4.5815 9.019L4 12.3475C4 12.3475 6.1935 12.4095 8.0535 12.3475C9.921 12.285 12.0985 10.683 12.4165 8.871C12.8505 6.421 11.448 5.4725 11.448 5.4725Z" fill="white"/>
</g>
<defs>
<clipPath id="clip0_7_8041">
<rect width="16" height="16" fill="white"/>
</clipPath>
</defs>
</svg>
