<svg width="16" height="16" viewBox="0 0 16 16" fill="none" xmlns="http://www.w3.org/2000/svg">
<g clip-path="url(#clip0_7_7900)">
<path d="M8 16C12.4183 16 16 12.4183 16 8C16 3.58172 12.4183 0 8 0C3.58172 0 0 3.58172 0 8C0 12.4183 3.58172 16 8 16Z" fill="#FBB413"/>
<path d="M8.00835 10.902C8.34022 10.9172 8.6714 10.8598 8.97885 10.734C9.10085 10.6905 9.21735 10.633 9.32635 10.563C9.33599 10.5545 9.34734 10.5481 9.35965 10.5443C9.37195 10.5404 9.38493 10.5393 9.3977 10.5409C9.41048 10.5425 9.42277 10.5468 9.43375 10.5536C9.44472 10.5603 9.45414 10.5693 9.46135 10.58L10.2509 11.3925C10.3074 11.4515 10.3054 11.4705 10.2379 11.517C9.96364 11.705 9.66571 11.8558 9.35185 11.9655C8.96342 12.0983 8.5576 12.1735 8.14735 12.1885C7.62504 12.2154 7.10231 12.144 6.60635 11.978C6.17935 11.83 5.78227 11.6068 5.43385 11.319C5.11921 11.0587 4.84282 10.7554 4.61285 10.418C4.48297 10.234 4.3708 10.0381 4.27785 9.833C4.20766 9.67077 4.14444 9.50562 4.08835 9.338C3.99521 9.03038 3.93603 8.71349 3.91185 8.393C3.88579 8.15766 3.88915 7.92 3.92185 7.6855C3.94685 7.4535 3.98785 7.2235 4.04435 6.997C4.13879 6.65081 4.27602 6.31774 4.45285 6.0055C4.83278 5.34799 5.39023 4.81081 6.06135 4.4555C6.31602 4.31745 6.58493 4.20747 6.86335 4.1275C7.0892 4.05988 7.32115 4.01466 7.55585 3.9925C7.73662 3.9698 7.91923 3.96562 8.10085 3.98C8.13335 3.982 8.16585 3.982 8.19785 3.98C8.49535 3.98761 8.79055 4.03434 9.07585 4.119C9.31935 4.184 9.55485 4.276 9.77685 4.395C10.0114 4.511 10.2319 4.652 10.4359 4.816C10.4759 4.8515 10.5074 4.835 10.5389 4.801L11.0254 4.2875L11.7264 3.5425C11.8084 3.454 11.8294 3.4515 11.9179 3.5315C12.1879 3.775 12.4379 4.0405 12.6629 4.3255C12.9488 4.68061 13.1926 5.0677 13.3894 5.479C13.5469 5.819 13.6764 6.171 13.7769 6.5315C13.8614 6.8285 13.8884 7.1315 13.9539 7.4285C13.9545 7.43414 13.9545 7.43985 13.9539 7.4455C13.9539 7.721 14.0149 7.997 13.9854 8.2725C13.9519 8.5865 13.9349 8.9045 13.8694 9.214C13.8139 9.474 13.7434 9.73 13.6594 9.982C13.4527 10.6073 13.1431 11.1937 12.7434 11.717C12.6824 11.797 12.6634 11.799 12.5934 11.717C12.3624 11.483 12.1309 11.2455 11.8969 11.014C11.8484 10.9655 11.8549 10.9275 11.8969 10.875C12.1433 10.5295 12.3431 10.1529 12.4909 9.755C12.6234 9.3815 12.7144 8.9945 12.7624 8.601C12.7914 8.2995 12.7974 7.996 12.7814 7.694C12.7743 7.52199 12.7537 7.35079 12.7199 7.182C12.5923 6.48893 12.3118 5.83303 11.8989 5.262C11.8549 5.199 11.7999 5.142 11.7599 5.075C11.7199 5.0075 11.7159 5.0265 11.6779 5.0645C11.4549 5.2895 11.2254 5.5085 11.0084 5.738C10.9329 5.818 10.8464 5.881 10.7749 5.963C10.7034 6.0455 10.6169 6.123 10.5369 6.203L10.2929 6.4475C10.2549 6.4855 10.2254 6.4705 10.1999 6.435C9.99324 6.1323 9.72759 5.87447 9.41885 5.677C9.12051 5.48486 8.78597 5.35587 8.43585 5.298C8.16269 5.256 7.885 5.25247 7.61085 5.2875C7.27386 5.32352 6.94747 5.42654 6.65085 5.5905C6.33245 5.76537 6.05294 6.00319 5.82935 6.2895C5.63473 6.536 5.48449 6.81449 5.38535 7.1125C5.27373 7.46568 5.22317 7.83531 5.23585 8.2055C5.23137 8.86966 5.47801 9.51098 5.92635 10.001C6.19568 10.2989 6.526 10.5352 6.89485 10.694C7.24485 10.848 7.62635 10.9195 8.00835 10.902Z" fill="white"/>
<path d="M12.5186 11.8555L10.3886 9.687C10.3421 9.6385 10.3036 9.637 10.2661 9.687C10.1156 9.90645 9.93326 10.1023 9.72508 10.268C9.67458 10.308 9.67458 10.3395 9.72508 10.386C9.91658 10.5775 10.1061 10.7735 10.2956 10.965C10.5421 11.2155 10.7881 11.466 11.0366 11.7165C11.0806 11.7605 11.0786 11.7815 11.0366 11.8195C10.9376 11.8935 10.8406 11.9695 10.7376 12.03C10.1976 12.4027 9.58484 12.6568 8.93958 12.7755C8.68883 12.8324 8.43268 12.862 8.17558 12.864H8.07258C7.89058 12.8765 7.70758 12.871 7.52758 12.847C7.31658 12.8155 7.11858 12.79 6.91858 12.746C6.66516 12.6883 6.41722 12.6086 6.17758 12.508C5.77049 12.3385 5.38859 12.1139 5.04258 11.8405C4.70086 11.5715 4.39593 11.2588 4.13558 10.9105C3.86113 10.5456 3.64256 10.1418 3.48708 9.7125C3.31673 9.29214 3.21982 8.84566 3.20058 8.3925C3.19699 8.34473 3.19699 8.29677 3.20058 8.249V7.7525C3.18909 7.69894 3.18909 7.64356 3.20058 7.59C3.20058 7.55 3.21758 7.5125 3.22408 7.4725C3.24508 7.286 3.27808 7.101 3.32308 6.9185C3.38058 6.6735 3.45708 6.4335 3.55258 6.2005C3.9764 5.1626 4.74724 4.30392 5.73358 3.771C6.31699 3.44714 6.96331 3.25273 7.62858 3.201H7.75008C8.4427 3.15705 9.13649 3.2663 9.78208 3.521L9.96308 3.5965C10.2391 3.71887 10.5033 3.86614 10.7526 4.0365C10.7615 4.04469 10.7721 4.0509 10.7836 4.05473C10.7951 4.05857 10.8073 4.05994 10.8194 4.05876C10.8314 4.05758 10.8431 4.05388 10.8537 4.04789C10.8642 4.0419 10.8734 4.03376 10.8806 4.024C11.1041 3.769 11.3396 3.527 11.5736 3.283C11.6176 3.2365 11.6196 3.1945 11.5736 3.1565C10.8019 2.59536 9.90777 2.22586 8.96508 2.0785C8.69463 2.03552 8.42177 2.00947 8.14808 2.0005C7.72404 1.99379 7.30054 2.03336 6.88508 2.1185C6.6197 2.17124 6.35813 2.24156 6.10208 2.329C5.64608 2.4815 5.21108 2.6905 4.80708 2.95C4.32208 3.26 3.88358 3.636 3.50408 4.068C2.9972 4.64324 2.60621 5.31097 2.35258 6.0345C2.24658 6.3405 2.16258 6.6535 2.10208 6.9715C2.05558 7.25 2.02408 7.5315 2.00708 7.8135C1.98991 8.11647 2.00399 8.42041 2.04908 8.7205C2.08208 9.019 2.13908 9.314 2.21958 9.603C2.27658 9.7985 2.33358 9.9945 2.40708 10.184C2.55408 10.564 2.73858 10.929 2.95858 11.2725C3.23225 11.6951 3.55518 12.0836 3.92058 12.43C4.15708 12.648 4.41058 12.8465 4.67858 13.024C5.03758 13.2695 5.42358 13.474 5.82858 13.6325C6.23158 13.7925 6.65208 13.9065 7.08058 13.9735C7.40208 14.0215 7.72658 14.0495 8.05158 14.0575C8.26158 14.0575 8.47258 14.024 8.67008 14.0195C8.82008 14.0085 8.96858 13.986 9.11458 13.9525C9.27658 13.925 9.43658 13.8825 9.59658 13.8405C10.195 13.684 10.7638 13.4308 11.2806 13.091C11.7491 12.791 12.1741 12.4285 12.5441 12.0135C12.6051 11.9435 12.6026 11.9315 12.5186 11.8555Z" fill="white"/>
</g>
<defs>
<clipPath id="clip0_7_7900">
<rect width="16" height="16" fill="white"/>
</clipPath>
</defs>
</svg>
