<svg width="16" height="16" viewBox="0 0 16 16" fill="none" xmlns="http://www.w3.org/2000/svg">
<g clip-path="url(#clip0_7_8118)">
<path d="M8 16C12.4183 16 16 12.4183 16 8C16 3.58172 12.4183 0 8 0C3.58172 0 0 3.58172 0 8C0 12.4183 3.58172 16 8 16Z" fill="#36B0F3"/>
<path fill-rule="evenodd" clip-rule="evenodd" d="M7.04466 2.1305C7.44466 2.0505 7.85216 2.016 8.25966 2.0275C8.51366 2.0275 8.76766 2.0505 9.01816 2.096C9.50566 2.163 9.97566 2.318 10.4342 2.492C10.7677 2.641 11.1172 2.781 11.3882 3.034C11.4637 3.089 11.4232 3.199 11.3562 3.2425C11.2012 3.342 11.0147 3.3705 10.8377 3.4095C10.0397 3.5465 9.22766 3.608 8.44366 3.8205C8.09216 3.8995 7.75416 4.0285 7.41966 4.162C6.79816 4.44 6.22666 4.8485 5.81316 5.3945C5.73414 5.51003 5.65812 5.62757 5.58516 5.747C5.51966 5.8745 5.45366 6.002 5.40016 6.1355C5.36016 6.231 5.32316 6.3275 5.28816 6.4245C5.21766 6.631 5.18316 6.8465 5.13066 7.0585C5.11416 7.1975 5.10466 7.3375 5.07566 7.475C5.05716 7.79 5.06616 8.105 5.06866 8.42C5.06866 8.525 5.09716 8.628 5.09866 8.7335C5.10016 8.8305 5.11366 8.927 5.13966 9.0205C5.18966 9.283 5.25066 9.549 5.36216 9.7945C5.50666 10.143 5.73166 10.4695 6.05166 10.677C6.31716 10.874 6.64566 10.958 6.96766 11.008C7.39766 11.064 7.83416 11.013 8.25766 10.936C8.47916 10.896 8.69916 10.846 8.91766 10.7875C9.05616 10.7485 9.19866 10.7225 9.33566 10.676C9.38819 10.6669 9.44135 10.6619 9.49466 10.661C9.32316 10.814 9.15066 10.966 8.95666 11.0895C8.29566 11.5155 7.52716 11.7375 6.76066 11.8805C6.41416 11.9515 6.06166 11.9935 5.71266 12.0535C5.31516 12.111 4.90316 12.1585 4.54466 12.3535C4.43766 12.4285 4.35466 12.5305 4.28016 12.6365C4.25766 12.6825 4.21516 12.6365 4.19016 12.62C4.10866 12.5265 4.00416 12.458 3.91566 12.3715C3.82125 12.2806 3.72857 12.1879 3.63766 12.0935C3.49216 11.924 3.34266 11.757 3.21416 11.5745C2.95816 11.2275 2.73166 10.856 2.56566 10.458L2.53666 10.445C2.51566 10.3305 2.45766 10.2295 2.41916 10.121C2.32837 9.88327 2.25485 9.63931 2.19916 9.391C2.17717 9.31516 2.15997 9.23801 2.14766 9.16C2.12079 9.07228 2.10468 8.98161 2.09966 8.89C2.05066 8.675 2.05966 8.453 2.02866 8.236C2.02866 8.055 2.01666 7.8725 2.03866 7.692C2.06266 7.542 2.05266 7.3885 2.08366 7.239C2.11416 7.1175 2.10816 6.9905 2.14666 6.871C2.19469 6.60362 2.26493 6.34071 2.35666 6.085C2.39266 5.991 2.42516 5.896 2.45866 5.8015C2.47866 5.758 2.49516 5.7135 2.50866 5.668L2.53516 5.6365C2.5672 5.5426 2.60857 5.45215 2.65866 5.3665C2.70845 5.26224 2.76266 5.16014 2.82116 5.0605C2.83816 5.025 2.85716 4.9905 2.87716 4.9555C3.19216 4.462 3.56016 3.9945 4.00316 3.6085C4.55271 3.11932 5.18376 2.73027 5.86766 2.459C6.24789 2.30953 6.64196 2.19946 7.04466 2.1305Z" fill="white"/>
<path fill-rule="evenodd" clip-rule="evenodd" d="M11.62 3.695C11.73 3.631 11.8055 3.5275 11.8815 3.429C12.4816 3.94213 12.9746 4.56864 13.3322 5.27265C13.6898 5.97665 13.905 6.7443 13.9653 7.5316C14.0257 8.3189 13.9302 9.11038 13.6841 9.86068C13.438 10.611 13.0463 11.3054 12.5315 11.904C11.613 12.983 10.294 13.716 8.88846 13.9105C8.24196 14.0055 7.58346 13.9805 6.93746 13.892C6.44246 13.822 5.95846 13.687 5.49896 13.4895C5.24896 13.3795 5.00046 13.2505 4.80496 13.0555C4.75446 13.0115 4.72246 12.9385 4.75596 12.875C4.80596 12.7975 4.89596 12.759 4.98096 12.7315C5.22346 12.6615 5.47296 12.6205 5.72246 12.582C6.17346 12.5035 6.62896 12.453 7.07646 12.3545C7.81996 12.194 8.56346 11.9665 9.20646 11.5495C9.64346 11.2705 10.0285 10.9075 10.312 10.4725C10.719 9.8585 10.907 9.123 10.952 8.394C10.9745 7.8515 10.962 7.304 10.8485 6.771C10.745 6.311 10.5635 5.8475 10.22 5.5125C9.95746 5.243 9.59996 5.0755 9.23096 5.0115C8.61846 4.897 7.99296 5.0075 7.39296 5.1425C7.11196 5.209 6.83496 5.2925 6.55096 5.3475C6.95496 4.967 7.44946 4.695 7.96896 4.509C8.26746 4.3985 8.57746 4.325 8.88596 4.2525C9.56196 4.1005 10.254 4.0425 10.936 3.9255C11.174 3.8755 11.416 3.8275 11.62 3.695Z" fill="white"/>
</g>
<defs>
<clipPath id="clip0_7_8118">
<rect width="16" height="16" fill="white"/>
</clipPath>
</defs>
</svg>
