<svg width="16" height="16" viewBox="0 0 16 16" fill="none" xmlns="http://www.w3.org/2000/svg">
<g clip-path="url(#clip0_7_8060)">
<path d="M8 16C12.4183 16 16 12.4183 16 8C16 3.58172 12.4183 0 8 0C3.58172 0 0 3.58172 0 8C0 12.4183 3.58172 16 8 16Z" fill="#F70808"/>
<path d="M7.99952 3L7.16952 4.508C7.07552 4.672 6.90702 4.657 6.73802 4.5655L6.13802 4.262L6.58502 6.5785C6.67952 7.002 6.37752 7.002 6.22852 6.8185L5.17952 5.675L5.00952 6.256C4.98952 6.3325 4.90352 6.4125 4.77402 6.3935L3.44902 6.1215L3.79652 7.3555C3.87152 7.63 3.92952 7.7435 3.72152 7.8155L3.24902 8.0325L5.53052 9.8385C5.57587 9.87295 5.60996 9.92009 5.62848 9.97395C5.64699 10.0278 5.6491 10.0859 5.63452 10.141L5.43452 10.78C6.22052 10.6915 6.92452 10.559 7.71052 10.477C7.78002 10.47 7.89602 10.5815 7.89552 10.66L7.79202 13H8.17402L8.11402 10.665C8.11352 10.5865 8.21902 10.47 8.28802 10.477C9.07402 10.559 9.77802 10.692 10.5635 10.78L10.364 10.141C10.3494 10.0859 10.3515 10.0278 10.37 9.97392C10.3885 9.92005 10.4226 9.87291 10.468 9.8385L12.7495 8.0325L12.277 7.816C12.069 7.7435 12.127 7.63 12.202 7.3555L12.55 6.1215L11.2245 6.3935C11.095 6.4125 11.0085 6.3325 10.9895 6.256L10.819 5.675L9.77052 6.819C9.62152 7.002 9.31952 7.002 9.41402 6.579L9.86152 4.262L9.26102 4.5655C9.09202 4.657 8.92352 4.672 8.82952 4.508L7.99952 3Z" fill="white"/>
</g>
<defs>
<clipPath id="clip0_7_8060">
<rect width="16" height="16" fill="white"/>
</clipPath>
</defs>
</svg>
