<svg width="16" height="16" viewBox="0 0 16 16" fill="none" xmlns="http://www.w3.org/2000/svg">
<g clip-path="url(#clip0_7_7999)">
<path d="M8 16C12.4183 16 16 12.4183 16 8C16 3.58172 12.4183 0 8 0C3.58172 0 0 3.58172 0 8C0 12.4183 3.58172 16 8 16Z" fill="#272731"/>
<path d="M13.5 8.015C13.5 9.47 12.9275 10.865 11.907 11.894C11.4036 12.4025 10.8045 12.8063 10.1442 13.082C9.48391 13.3576 8.77553 13.4997 8.06 13.5V12.099C10.034 12.105 11.7225 10.6705 12.052 8.708H10.107C10.184 8.48 10.2235 8.241 10.224 8C10.2209 7.75946 10.1814 7.52077 10.107 7.292H12.052C11.718 5.332 10.032 3.9 8.06 3.901V2.5C11.064 2.529 13.4875 4.986 13.5 8.015ZM9.873 9.1945H11.409C10.841 10.847 9.173 11.8445 7.4625 11.5545C5.7525 11.2635 4.5 9.7705 4.5 8.0215C4.5 6.2725 5.7525 4.78 7.4625 4.4895C9.173 4.1995 10.841 5.197 11.409 6.8495H9.873C9.70008 6.58669 9.47636 6.3611 9.215 6.186C8.97604 6.03228 8.70897 5.92747 8.42925 5.87762C8.14952 5.82776 7.86269 5.83387 7.58534 5.89557C7.30798 5.95727 7.04562 6.07334 6.81341 6.23708C6.5812 6.40082 6.38376 6.60897 6.2325 6.8495C5.5905 7.863 5.885 9.2095 6.8905 9.857C7.12943 10.0107 7.39647 10.1156 7.67618 10.1655C7.95588 10.2154 8.2427 10.2093 8.52005 10.1477C8.7974 10.086 9.05978 9.96997 9.292 9.80628C9.52423 9.64259 9.7217 9.43499 9.873 9.1945Z" fill="white"/>
</g>
<defs>
<clipPath id="clip0_7_7999">
<rect width="16" height="16" fill="white"/>
</clipPath>
</defs>
</svg>
