<svg width="16" height="16" viewBox="0 0 16 16" fill="none" xmlns="http://www.w3.org/2000/svg">
<g clip-path="url(#clip0_7_7997)">
<path d="M8 16C12.4183 16 16 12.4183 16 8C16 3.58172 12.4183 0 8 0C3.58172 0 0 3.58172 0 8C0 12.4183 3.58172 16 8 16Z" fill="#3089F2"/>
<path d="M10.8136 8.939C10.6026 9.1205 10.4136 9.282 10.2266 9.4455C10.2056 9.464 10.1846 9.497 10.1846 9.5235C10.1816 9.8425 10.1826 10.161 10.1826 10.491C10.6631 10.288 10.9141 9.671 10.8136 8.939ZM10.2346 6.9905C10.7701 6.6715 10.8336 6.561 10.8356 5.928C10.8356 5.878 10.8371 5.8285 10.8351 5.779C10.8121 5.1975 10.4141 4.684 9.86312 4.561C9.36812 4.451 8.86913 4.3595 8.36913 4.275C8.11463 4.2315 7.85412 4.1945 7.59762 4.203C7.28712 4.213 7.03363 4.376 6.80013 4.642C7.36613 4.7475 7.89162 4.856 8.42062 4.942C9.14712 5.06 9.70163 5.4245 10.0046 6.119C10.1221 6.3885 10.1596 6.694 10.2346 6.9905ZM5.82312 5.4865C5.39312 5.7535 5.18112 6.1155 5.17462 6.5655C5.15996 7.78045 5.15879 8.99552 5.17112 10.2105C5.17612 10.799 5.56463 11.3035 6.12563 11.4405C6.60563 11.5575 7.09662 11.6295 7.58262 11.7235C7.89062 11.7835 8.19563 11.8745 8.51363 11.7955C8.77363 11.7305 9.00563 11.621 9.18863 11.364C8.60563 11.2545 8.05813 11.134 7.50513 11.052C6.55862 10.9115 5.82463 10.073 5.82363 9.097C5.82213 7.981 5.82312 6.8655 5.82312 5.7495V5.4865ZM6.49213 5.311C6.48612 5.4345 6.47713 5.5265 6.47713 5.6185C6.47563 6.7415 6.47563 7.8645 6.47713 8.9875C6.47863 9.7255 6.92462 10.2555 7.63312 10.3795C8.14512 10.4695 8.65513 10.5695 9.16613 10.6645C9.20163 10.671 9.23763 10.6745 9.27363 10.6785C9.51613 10.7055 9.52462 10.701 9.52612 10.458C9.52863 10.0855 9.51612 9.713 9.53362 9.3415C9.53862 9.2315 9.59412 9.093 9.67362 9.0225C10.0791 8.661 10.5001 8.3175 10.9156 7.9675C11.0286 7.8725 11.1446 7.8075 11.2966 7.881C11.4571 7.9585 11.4991 8.0925 11.4966 8.261C11.4906 8.683 11.4996 9.1055 11.4866 9.5265C11.4621 10.2875 10.9101 11.0365 10.2016 11.2765C10.1416 11.2949 10.0859 11.3252 10.0378 11.3656C9.98969 11.406 9.95019 11.4556 9.92163 11.5115C9.48513 12.2865 8.73712 12.5855 7.93563 12.4795C7.27863 12.392 6.62662 12.2535 5.97762 12.1145C5.14162 11.9355 4.52412 11.1575 4.51062 10.2265C4.49262 8.9735 4.49862 7.72 4.52012 6.4675C4.53312 5.6845 5.11513 4.9575 5.85313 4.7175C5.93525 4.68711 6.00468 4.62984 6.05013 4.555C6.54513 3.696 7.34912 3.3475 8.30462 3.5615C8.83462 3.68 9.37412 3.758 9.90712 3.8665C10.8531 4.0595 11.4851 4.8405 11.4976 5.8235C11.5011 6.103 11.5031 6.3825 11.4876 6.661C11.4831 6.7495 11.4441 6.8625 11.3811 6.918C10.9276 7.318 10.4686 7.712 9.99813 8.091C9.92562 8.1495 9.76312 8.163 9.68213 8.1195C9.60262 8.0765 9.53562 7.937 9.53012 7.836C9.51062 7.5025 9.54763 7.164 9.51513 6.8325C9.45013 6.168 8.99763 5.729 8.31563 5.6155C7.77363 5.5255 7.23263 5.428 6.69112 5.335C6.63312 5.325 6.57413 5.3205 6.49213 5.311Z" fill="white"/>
</g>
<defs>
<clipPath id="clip0_7_7997">
<rect width="16" height="16" fill="white"/>
</clipPath>
</defs>
</svg>
