<svg width="16" height="16" viewBox="0 0 16 16" fill="none" xmlns="http://www.w3.org/2000/svg">
<g clip-path="url(#clip0_7_7994)">
<path d="M8 16C12.4183 16 16 12.4183 16 8C16 3.58172 12.4183 0 8 0C3.58172 0 0 3.58172 0 8C0 12.4183 3.58172 16 8 16Z" fill="#00ACED"/>
<path fill-rule="evenodd" clip-rule="evenodd" d="M3 4.85699V6.89499L7.9475 9.75249L11.1575 7.89499V9.55249L12.8855 10.5715V4.85699L7.943 7.71449L3 4.85699Z" fill="white"/>
<path opacity="0.7" fill-rule="evenodd" clip-rule="evenodd" d="M7.943 2L3 4.857V10.5715L7.943 13.4285L12.8715 10.5715L11.124 9.5525L7.943 11.3905L4.748 9.5525V5.876L7.943 4.038L11.124 5.876L12.8715 4.857L7.943 2Z" fill="white"/>
</g>
<defs>
<clipPath id="clip0_7_7994">
<rect width="16" height="16" fill="white"/>
</clipPath>
</defs>
</svg>
