<svg width="16" height="16" viewBox="0 0 16 16" fill="none" xmlns="http://www.w3.org/2000/svg">
<g clip-path="url(#clip0_7_7989)">
<path d="M8 16C12.4183 16 16 12.4183 16 8C16 3.58172 12.4183 0 8 0C3.58172 0 0 3.58172 0 8C0 12.4183 3.58172 16 8 16Z" fill="#1C98F7"/>
<path fill-rule="evenodd" clip-rule="evenodd" d="M8.14 11.6625C8.49183 11.6381 8.84064 11.5811 9.182 11.4925C9.60326 11.6211 10.0486 11.6501 10.483 11.5775C10.5002 11.5747 10.5176 11.5734 10.535 11.5735C10.69 11.5735 10.8935 11.6635 11.19 11.8535V11.541C11.1901 11.4869 11.2045 11.4339 11.2318 11.3872C11.2591 11.3406 11.2984 11.302 11.3455 11.2755C11.4745 11.2025 11.5945 11.1185 11.704 11.026C12.136 10.66 12.38 10.172 12.38 9.655C12.38 9.4815 12.3525 9.313 12.3005 9.152C12.431 8.9085 12.5365 8.6525 12.614 8.387C12.8646 8.7625 12.9988 9.20357 13 9.655C13 10.3575 12.673 11.0125 12.1075 11.4915C12.0131 11.5714 11.9137 11.6452 11.81 11.7125V12.443C11.81 12.6945 11.52 12.839 11.3155 12.6895C11.1221 12.5449 10.9219 12.4098 10.7155 12.2845C10.6564 12.2491 10.5949 12.2179 10.5315 12.191C10.3615 12.2165 10.1875 12.2295 10.012 12.2295C9.306 12.2295 8.6535 12.018 8.14 11.6625ZM4.407 10.2015C3.515 9.445 3 8.4145 3 7.31C3 5.0535 5.129 3.25 7.7285 3.25C10.3285 3.25 12.4575 5.0535 12.4575 7.31C12.4575 9.567 10.328 11.3705 7.7285 11.3705C7.4365 11.3705 7.1475 11.348 6.8645 11.303C6.742 11.332 6.2525 11.623 5.547 12.138C5.2915 12.325 4.929 12.1445 4.929 11.83V10.584C4.7463 10.4688 4.57188 10.341 4.407 10.2015ZM6.8815 10.5345C6.903 10.5345 6.925 10.536 6.9465 10.5395C7.2015 10.5825 7.4635 10.6045 7.7285 10.6045C9.9245 10.6045 11.682 9.1155 11.682 7.31C11.682 5.505 9.9245 4.016 7.7285 4.016C5.5335 4.016 3.775 5.505 3.775 7.31C3.775 8.183 4.1855 9.005 4.9115 9.62C5.094 9.774 5.2945 9.914 5.5095 10.036C5.63 10.104 5.7045 10.231 5.7045 10.368V11.0865C6.2625 10.712 6.6295 10.5345 6.8815 10.5345ZM5.713 8.0765C5.3705 8.0765 5.093 7.8015 5.093 7.4635C5.093 7.125 5.3705 6.8505 5.713 6.8505C6.0555 6.8505 6.333 7.125 6.333 7.4635C6.333 7.802 6.0555 8.0765 5.713 8.0765ZM7.7285 8.0765C7.386 8.0765 7.1085 7.8015 7.1085 7.4635C7.1085 7.125 7.386 6.8505 7.7285 6.8505C8.071 6.8505 8.3485 7.125 8.3485 7.4635C8.3485 7.802 8.071 8.0765 7.7285 8.0765ZM9.744 8.0765C9.4015 8.0765 9.124 7.8015 9.124 7.4635C9.124 7.125 9.4015 6.8505 9.744 6.8505C10.0865 6.8505 10.364 7.125 10.364 7.4635C10.364 7.802 10.0865 8.0765 9.744 8.0765Z" fill="white"/>
</g>
<defs>
<clipPath id="clip0_7_7989">
<rect width="16" height="16" fill="white"/>
</clipPath>
</defs>
</svg>
