<svg width="16" height="16" viewBox="0 0 16 16" fill="none" xmlns="http://www.w3.org/2000/svg">
<g clip-path="url(#clip0_7_7897)">
<path d="M8 16C12.4183 16 16 12.4183 16 8C16 3.58172 12.4183 0 8 0C3.58172 0 0 3.58172 0 8C0 12.4183 3.58172 16 8 16Z" fill="#598182"/>
<path fill-rule="evenodd" clip-rule="evenodd" d="M6.77431 12.704C7.19698 12.1578 7.61965 11.6117 8.04231 11.0655C8.51681 11.1395 8.98431 11.0975 9.43131 10.9035C9.59281 10.8335 9.73731 10.7245 9.88931 10.6325C9.91081 10.6195 9.93081 10.6025 9.94731 10.59L11.4833 12.109C11.3558 12.194 11.2293 12.286 11.0948 12.365C10.5744 12.6667 10.0008 12.8653 9.40531 12.95C9.05391 12.9993 8.69842 13.0127 8.34431 12.99C7.81052 12.9655 7.28245 12.8693 6.77431 12.704ZM6.29131 12.516C6.12063 12.4397 5.95437 12.3539 5.79331 12.259C4.9702 11.782 4.32045 11.0552 3.93831 10.184C3.73661 9.72961 3.60397 9.24761 3.54481 8.754C3.49838 8.37115 3.488 7.98479 3.51381 7.6C3.57531 6.6125 3.87581 5.705 4.48131 4.9065C5.04031 4.1695 5.77431 3.665 6.64281 3.3415C7.05485 3.18512 7.48635 3.08586 7.92531 3.0465C8.25681 3.018 8.59181 2.9895 8.92331 3.004C9.12831 3.0125 9.32981 3.0325 9.52831 3.064C9.09964 3.68633 8.67098 4.30866 8.24231 4.931C7.81343 4.96694 7.3998 5.10699 7.03731 5.339C6.37231 5.761 5.97431 6.369 5.78731 7.119C5.70796 7.435 5.67164 7.76027 5.67931 8.086C5.68381 8.257 5.69831 8.4245 5.72381 8.588L5.56981 8.8115C5.44581 8.9915 5.59831 9.2295 5.81881 9.2005L5.87481 9.1935C6.00381 9.558 6.19931 9.8985 6.46981 10.211C6.63781 10.404 6.82531 10.566 7.03181 10.696L6.30931 12.4415C6.29939 12.4654 6.29331 12.4907 6.29131 12.5165V12.516ZM10.0128 3.167C10.4579 3.2856 10.8799 3.47847 11.2608 3.7375C11.3298 3.7845 11.3928 3.84 11.4588 3.8915C11.4713 3.901 11.4843 3.9095 11.5003 3.9205C11.4793 3.9445 11.4673 3.9605 11.4528 3.9745C10.9973 4.4235 10.5408 4.871 10.0868 5.3215C10.0368 5.3715 10.0053 5.3795 9.94481 5.3365C9.76154 5.20623 9.55889 5.10567 9.34431 5.0385L9.98581 3.351L10.0028 3.3075C10.0199 3.26266 10.0234 3.21379 10.0128 3.167ZM8.16081 8.641L5.78431 8.9515L9.73831 3.21L9.76031 3.22L8.23281 7.2355L11.0203 6.7955L6.57081 12.5505L6.54931 12.5355L8.16081 8.641Z" fill="white"/>
</g>
<defs>
<clipPath id="clip0_7_7897">
<rect width="16" height="16" fill="white"/>
</clipPath>
</defs>
</svg>
