<svg width="16" height="16" viewBox="0 0 16 16" fill="none" xmlns="http://www.w3.org/2000/svg">
<g clip-path="url(#clip0_7_8113)">
<path d="M8 16C12.4183 16 16 12.4183 16 8C16 3.58172 12.4183 0 8 0C3.58172 0 0 3.58172 0 8C0 12.4183 3.58172 16 8 16Z" fill="#01C38D"/>
<path d="M9.2515 2.75L8.3905 3.239V7.391L8.8605 7.658V4.496L10.4755 5.4125L10.477 5.412L10.7905 5.5895L11.0525 5.442V5.192L8.861 3.95V3.518L9.2515 3.296L11.5215 4.5845V5.7315L10.4315 6.3465L10.395 6.328C10.3317 6.29601 10.2619 6.27907 10.191 6.2785C10.0655 6.27956 9.94563 6.33031 9.85753 6.41962C9.76943 6.50894 9.72033 6.62954 9.721 6.755C9.721 7.0175 9.9315 7.2315 10.191 7.2315C10.3078 7.23072 10.4202 7.18645 10.5062 7.10732C10.5921 7.02819 10.6456 6.91988 10.656 6.8035L10.66 6.7625L11.76 6.142L12.78 6.721V9.2825L11.7585 9.8615L7.6095 7.5055V3.239L6.748 2.75L4.0085 4.305V5.725L2.75 6.4385V9.5585L4.0085 10.273V11.6945L6.7485 13.25L7.6095 12.761V8.6L7.1395 8.333V11.504L5.2095 10.4105L4.9475 10.558V10.808L7.139 12.05V12.482L6.748 12.704L4.4785 11.4155V10.2685L5.5685 9.654L5.605 9.672C5.6715 9.7045 5.74 9.721 5.809 9.721C6.0685 9.721 6.279 9.5075 6.279 9.245C6.27967 9.11954 6.23057 8.99894 6.14247 8.90962C6.05437 8.82031 5.93445 8.76956 5.809 8.7685C5.69216 8.76928 5.57979 8.81355 5.49382 8.89268C5.40785 8.97181 5.35444 9.08012 5.344 9.1965L5.34 9.2375L4.24 9.858L3.22 9.279V6.7175L4.2415 6.1385L8.3905 8.4945V12.761L9.2515 13.25L11.9915 11.695V10.275L13.25 9.5615V6.4415L11.9915 5.7275V4.3055L9.2515 2.75ZM4.4785 4.585L6.7485 3.296L7.139 3.518V3.95L4.479 5.458V4.585H4.4785ZM4.7225 5.866L7.139 4.496V7.238L4.7225 5.866ZM8.861 8.7615L11.2775 10.134L8.861 11.504V8.7615ZM8.861 12.482V12.05L11.521 10.542V11.4155L9.2515 12.704L8.861 12.482Z" fill="white"/>
</g>
<defs>
<clipPath id="clip0_7_8113">
<rect width="16" height="16" fill="white"/>
</clipPath>
</defs>
</svg>
