<svg width="16" height="16" viewBox="0 0 16 16" fill="none" xmlns="http://www.w3.org/2000/svg">
<g clip-path="url(#clip0_7_8034)">
<path d="M8 16C12.4183 16 16 12.4183 16 8C16 3.58172 12.4183 0 8 0C3.58172 0 0 3.58172 0 8C0 12.4183 3.58172 16 8 16Z" fill="#CD0124"/>
<path fill-rule="evenodd" clip-rule="evenodd" d="M11.6595 3.625C11.9855 3.625 12.25 3.898 12.25 4.235C12.25 4.572 11.9855 4.845 11.6595 4.845L11.623 4.8445L10.351 7.9405C10.4235 8.042 10.4665 8.1675 10.4665 8.303C10.4665 8.613 10.243 8.869 9.9535 8.908L8.642 12.1005C8.7395 12.209 8.799 12.355 8.799 12.515C8.799 12.852 8.5345 13.125 8.2085 13.125C7.8825 13.125 7.618 12.852 7.618 12.515C7.618 12.353 7.6785 12.206 7.778 12.097L6.2745 8.9115L6.2395 8.9135C5.934 8.9135 5.6825 8.6735 5.652 8.3655L5.649 8.303C5.649 8.1485 5.705 8.0075 5.7965 7.8995L4.355 4.845L4.341 4.846C4.0355 4.846 3.784 4.606 3.7535 4.298L3.75 4.235C3.75 3.898 4.0145 3.625 4.3405 3.625C4.589 3.625 4.8015 3.7835 4.8885 4.0075H11.1115C11.1985 3.7835 11.4115 3.625 11.6595 3.625ZM8.121 7.1955L6.8175 8.1755C6.83789 8.27103 6.83538 8.37003 6.81018 8.46441C6.78498 8.55878 6.7378 8.64585 6.6725 8.7185L8.1775 11.906L8.2085 11.9045C8.22 11.9045 8.232 11.9045 8.2435 11.9055L9.5225 8.792C9.41706 8.70834 9.34139 8.59293 9.30671 8.46287C9.27204 8.33282 9.2802 8.19505 9.33 8.07L8.121 7.1955ZM4.83 4.815L6.1895 7.6955L6.2395 7.693C6.363 7.693 6.477 7.732 6.5715 7.798L7.74 6.92L4.83 4.815ZM11.0955 4.963L8.4975 6.913L9.643 7.7425C9.697 7.7185 9.755 7.7025 9.8155 7.696L9.876 7.693C9.9085 7.693 9.94 7.6955 9.971 7.701L11.0955 4.963ZM11.0135 4.4625H5.11L8.1165 6.6375L11.0135 4.4625Z" fill="white"/>
</g>
<defs>
<clipPath id="clip0_7_8034">
<rect width="16" height="16" fill="white"/>
</clipPath>
</defs>
</svg>
