<svg width="16" height="16" viewBox="0 0 16 16" fill="none" xmlns="http://www.w3.org/2000/svg">
<g clip-path="url(#clip0_7_7986)">
<path d="M8 16C12.4183 16 16 12.4183 16 8C16 3.58172 12.4183 0 8 0C3.58172 0 0 3.58172 0 8C0 12.4183 3.58172 16 8 16Z" fill="#0576B4"/>
<path d="M12.3349 9.43151L11.8054 9.10001L12.9604 9.08651L12.9844 9.07351V9.08601L13.4614 9.08101L12.6519 10.398L12.5794 9.76301L8.89744 11.7945L7.50094 9.93001L3.58594 11.993V11.523L7.62244 9.39651L9.01844 11.261L12.3354 9.43151H12.3349ZM7.27894 8.97901L5.74894 9.78451V4.32201H7.27894V8.97901ZM11.6054 9.21951L10.0754 10.0695V4.32201H11.6054V9.21951Z" fill="white"/>
<path opacity="0.5" d="M9.44196 10.4215L9.11346 10.6035L7.91146 8.99851V4.94701H9.44146L9.44196 10.4215ZM5.11496 10.118L3.58496 10.924V5.65601H5.11496V10.118Z" fill="white"/>
</g>
<defs>
<clipPath id="clip0_7_7986">
<rect width="16" height="16" fill="white"/>
</clipPath>
</defs>
</svg>
