<svg width="16" height="16" viewBox="0 0 16 16" fill="none" xmlns="http://www.w3.org/2000/svg">
<g clip-path="url(#clip0_7_7983)">
<path d="M8 16C12.4183 16 16 12.4183 16 8C16 3.58172 12.4183 0 8 0C3.58172 0 0 3.58172 0 8C0 12.4183 3.58172 16 8 16Z" fill="#20C5D3"/>
<path d="M8.90497 3.935V3.8905C8.99347 3.853 9.16897 3.8175 9.47097 3.8985C9.81647 3.9915 10.0835 4.3385 10.206 4.5255L10.205 4.6455C10.199 5.315 9.98597 6.969 9.61697 8.209C9.29447 9.2925 8.59097 10.734 8.44797 11.022C8.37771 11.0065 8.30658 10.9953 8.23497 10.9885C8.29447 10.623 8.55397 8.995 8.71747 7.5115C8.89097 5.9375 8.90447 4.3765 8.90447 3.9355L8.90497 3.935ZM10.3545 4.647V4.6415C10.4845 4.6385 10.7725 4.662 11.101 4.8735C11.419 5.078 11.583 5.467 11.651 5.676L11.6195 5.7995C11.542 6.1005 10.968 7.652 10.3505 8.8215C9.82647 9.8125 8.98997 10.909 8.80747 11.144C8.73867 11.1112 8.66766 11.0833 8.59497 11.0605C8.76497 10.717 9.44347 9.315 9.75997 8.2505C10.133 6.9975 10.348 5.3245 10.3545 4.647ZM10.483 8.889C11.071 7.7755 11.665 6.213 11.763 5.8405C11.8925 5.8875 12.1705 6.012 12.3515 6.259C12.5065 6.47 12.557 6.7555 12.5735 6.935L12.513 7.076C12.396 7.3475 11.683 8.5985 10.9645 9.49C10.3425 10.262 9.40797 11.178 9.18397 11.395C9.10858 11.3273 9.02688 11.2671 8.93997 11.215C9.15047 10.943 9.96647 9.8665 10.483 8.889ZM5.50247 4.763L5.48497 4.626C5.56647 4.4485 5.74647 4.1525 6.09097 3.995C6.46597 3.824 6.75747 3.8705 6.88797 3.9085L6.88897 3.938C6.89897 4.2355 6.97747 5.7 7.16897 7.4285C7.34497 9.01 7.62847 10.692 7.68297 11.0115C7.60797 11.025 7.53447 11.0435 7.46247 11.0665C7.32347 10.7715 6.70447 9.4315 6.28847 8.089C5.82447 6.5915 5.55847 5.2015 5.50247 4.763ZM7.03797 3.933L7.03597 3.8645C7.17297 3.7415 7.49197 3.5 7.89097 3.5C8.28897 3.5 8.61497 3.7415 8.75547 3.865V3.935C8.75547 4.3745 8.74197 5.929 8.56897 7.495C8.40347 8.997 8.13897 10.6485 8.08497 10.9805L8.04597 10.9795C7.97397 10.9795 7.90247 10.9835 7.83097 10.9905C7.77797 10.683 7.49347 8.997 7.31747 7.4125C7.12647 5.6885 7.04847 4.229 7.03797 3.9325V3.933ZM8.04597 11.1265C8.85447 11.1265 9.22697 11.617 9.33947 11.804C8.72697 12.234 8.22847 12.5 8.05247 12.5C7.87647 12.5 7.43897 12.28 6.75097 11.7825C6.86097 11.605 7.23197 11.1265 8.04597 11.1265ZM12.6465 7.1425C12.7695 7.2225 13.022 7.438 12.9985 7.8525C12.9675 8.3985 12.031 9.4805 10.855 10.575C10.414 10.9846 9.94812 11.3665 9.45997 11.7185C9.40985 11.6404 9.35279 11.5669 9.28947 11.499C9.51747 11.2785 10.4555 10.359 11.0815 9.5815C11.8015 8.6885 12.518 7.434 12.6465 7.1425ZM3.40997 7.0365C3.37356 6.94607 3.33905 6.85488 3.30647 6.763C3.30583 6.60104 3.34534 6.44145 3.42147 6.2985C3.59247 5.9885 4.02647 5.8465 4.19847 5.801L4.19947 5.804L4.21797 5.869C4.34297 6.3045 4.63497 7.325 5.40397 8.8C6.09047 10.1165 6.83647 11.0265 7.04547 11.27C6.98946 11.3083 6.93601 11.3502 6.88547 11.3955C6.17994 10.7846 5.52621 10.1163 4.93097 9.3975C4.18997 8.5015 3.67847 7.7075 3.40997 7.0365ZM6.77997 11.5005C6.72497 11.5605 6.67497 11.6255 6.62997 11.6945C6.19646 11.3712 5.77453 11.0327 5.36497 10.6795C3.85897 9.392 3.03497 8.4965 3.00197 7.931C2.97697 7.4995 3.19597 7.256 3.30197 7.1645C3.58297 7.833 4.09097 8.6145 4.81497 9.4905C5.41373 10.2131 6.07095 10.8857 6.77997 11.5005ZM4.34347 5.7635C4.3272 5.70793 4.31186 5.65209 4.29747 5.596C4.33597 5.413 4.43097 5.139 4.66347 4.97C4.86309 4.82515 5.10612 4.75266 5.35247 4.7645L5.35497 4.7815C5.41147 5.224 5.67897 6.6255 6.14597 8.1315C6.55997 9.467 7.17247 10.8 7.32247 11.119C7.27159 11.1404 7.22185 11.1644 7.17347 11.191C6.99097 10.98 6.23397 10.0695 5.53747 8.733C4.77497 7.271 4.48597 6.2605 4.36247 5.829L4.34347 5.7635Z" fill="white"/>
</g>
<defs>
<clipPath id="clip0_7_7983">
<rect width="16" height="16" fill="white"/>
</clipPath>
</defs>
</svg>
