<svg width="16" height="16" viewBox="0 0 16 16" fill="none" xmlns="http://www.w3.org/2000/svg">
<g clip-path="url(#clip0_7_7981)">
<path d="M8 16C12.4183 16 16 12.4183 16 8C16 3.58172 12.4183 0 8 0C3.58172 0 0 3.58172 0 8C0 12.4183 3.58172 16 8 16Z" fill="#FF3A00"/>
<path d="M8.0015 2.5C11.035 2.505 13.501 4.973 13.5 8.0015C13.499 11.0335 11.031 13.5 7.998 13.5H7.993C4.963 13.497 2.4985 11.0265 2.5 7.993C2.5015 4.965 4.97 2.5 8.0015 2.5ZM8 3.209C5.3615 3.209 3.214 5.358 3.213 7.999C3.2125 10.637 5.357 12.785 7.994 12.787C10.6355 12.787 12.7865 10.639 12.7885 7.999C12.7904 7.37004 12.6674 6.74696 12.4266 6.16589C12.1859 5.58482 11.8322 5.05733 11.386 4.614C10.9427 4.16757 10.4153 3.81352 9.83427 3.57234C9.25323 3.33117 8.63011 3.20767 8.001 3.209H8ZM10.364 7.5085C10.5335 8.368 10.3155 9.09 9.698 9.717L9.613 9.8025L9.505 9.7495C9.44521 9.72026 9.38451 9.69291 9.323 9.6675L9.0785 9.5655L9.2755 9.3885C9.66 9.0435 9.8645 8.593 9.884 8.05C9.904 7.507 9.7115 7.0335 9.3125 6.643C8.96277 6.29988 8.49193 6.10839 8.002 6.11C7.73422 6.10979 7.46949 6.16673 7.22547 6.27701C6.98146 6.38729 6.76379 6.54838 6.587 6.7495C6.188 7.2045 6.0355 7.7585 6.147 8.351C6.21593 8.74298 6.41161 9.10149 6.704 9.3715L6.8975 9.551L6.653 9.6495C6.592 9.674 6.528 9.7005 6.4595 9.7295L6.3545 9.7735L6.2745 9.692C5.863 9.268 5.64 8.78 5.5935 8.2C5.495 6.9775 6.2875 5.9005 7.4785 5.6395C7.65419 5.60062 7.83356 5.58084 8.0135 5.5805C8.5676 5.58103 9.10444 5.77336 9.53282 6.12482C9.9612 6.47627 10.2547 6.96518 10.3635 7.5085H10.364ZM4.9865 10.6535C4.2485 9.8305 3.65 8.3705 4.185 6.7415C4.44938 5.93893 4.96016 5.2402 5.64467 4.74475C6.32917 4.24931 7.15251 3.98239 7.9975 3.982C8.83533 3.98103 9.65246 4.24224 10.3344 4.72903C11.0163 5.21582 11.5288 5.90379 11.8 6.6965C12.273 8.0825 11.944 9.6585 10.9625 10.7115L10.8375 10.845L10.389 10.344L10.488 10.2325C11.102 9.541 11.387 8.721 11.3355 7.796C11.2875 6.951 10.9515 6.215 10.3365 5.609C9.7155 4.99477 8.87645 4.65156 8.003 4.6545C7.2007 4.65485 6.42518 4.94316 5.8175 5.467C5.34665 5.86874 4.99852 6.39501 4.813 6.9855C4.62451 7.57245 4.60373 8.20038 4.753 8.7985C4.87718 9.31069 5.12236 9.78564 5.468 10.1835L5.566 10.297L5.108 10.79L4.9865 10.6535Z" fill="white"/>
</g>
<defs>
<clipPath id="clip0_7_7981">
<rect width="16" height="16" fill="white"/>
</clipPath>
</defs>
</svg>
