<svg width="16" height="16" viewBox="0 0 16 16" fill="none" xmlns="http://www.w3.org/2000/svg">
<g clip-path="url(#clip0_7_7980)">
<path d="M8 16C12.4183 16 16 12.4183 16 8C16 3.58172 12.4183 0 8 0C3.58172 0 0 3.58172 0 8C0 12.4183 3.58172 16 8 16Z" fill="#2FD2E5"/>
<path d="M8.285 2.00349C6.93398 1.95656 5.60789 2.37546 4.529 3.18999C4.4244 3.26862 4.33859 3.36951 4.27778 3.48538C4.21698 3.60126 4.1827 3.7292 4.17744 3.85995C4.17218 3.9907 4.19605 4.12098 4.24734 4.24136C4.29864 4.36175 4.37606 4.46922 4.474 4.556C4.785 4.85 5.264 4.87299 5.602 4.61049C6.42964 3.96639 7.46861 3.65582 8.51397 3.74005C9.55932 3.82428 10.5352 4.29719 11.249 5.06549C11.544 5.37049 11.553 5.85099 11.27 6.16699C11.1989 6.24328 11.1134 6.30481 11.0185 6.34806C10.9236 6.39131 10.8211 6.41544 10.7168 6.41906C10.6126 6.42268 10.5087 6.40573 10.411 6.36917C10.3133 6.33261 10.2238 6.27716 10.1475 6.20599L10.109 6.16699C9.75305 5.77667 9.28738 5.50311 8.77313 5.38223C8.25889 5.26135 7.72011 5.29881 7.22754 5.48968C6.73497 5.68056 6.31163 6.01592 6.01311 6.45175C5.71459 6.88757 5.55485 7.40349 5.55485 7.93174C5.55485 8.46 5.71459 8.97592 6.01311 9.41174C6.31163 9.84757 6.73497 10.1829 7.22754 10.3738C7.72011 10.5647 8.25889 10.6021 8.77313 10.4813C9.28738 10.3604 9.75305 10.0868 10.109 9.69649C10.223 9.56889 10.3759 9.48244 10.5441 9.45053C10.7122 9.41862 10.8862 9.44304 11.039 9.52C11.1477 9.57453 11.2424 9.65348 11.3156 9.75066C11.3887 9.84784 11.4385 9.96062 11.4608 10.0802C11.4832 10.1998 11.4776 10.3229 11.4445 10.44C11.4114 10.557 11.3517 10.6648 11.27 10.755C10.5591 11.5332 9.58199 12.0162 8.532 12.1084C7.48202 12.2006 6.43567 11.8954 5.6 11.253C5.43464 11.127 5.23011 11.0634 5.02247 11.0735C4.81483 11.0836 4.61741 11.1666 4.465 11.308C4.3677 11.3971 4.29138 11.5068 4.24151 11.6289C4.19164 11.7511 4.16947 11.8828 4.1766 12.0146C4.18372 12.1464 4.21996 12.2749 4.28271 12.391C4.34546 12.5071 4.43316 12.6079 4.5395 12.686C5.28533 13.2391 6.15071 13.6092 7.06584 13.7665C7.98098 13.9237 8.92027 13.8638 9.80796 13.5914C10.6957 13.319 11.5069 12.8418 12.1763 12.1983C12.8457 11.5548 13.3546 10.7629 13.6618 9.88669C13.969 9.01043 14.066 8.07424 13.9449 7.15361C13.8239 6.23299 13.4882 5.35369 12.9649 4.58661C12.4417 3.81954 11.7455 3.18617 10.9325 2.73757C10.1195 2.28896 9.21244 2.03769 8.2845 2.00399L8.285 2.00349ZM8.175 9.39749C7.98242 9.39677 7.79186 9.35813 7.61421 9.28376C7.43657 9.20939 7.27531 9.10077 7.13964 8.96408C7.00397 8.82739 6.89656 8.66532 6.82353 8.48712C6.7505 8.30892 6.71328 8.11808 6.714 7.92549C6.71472 7.73291 6.75337 7.54236 6.82774 7.36471C6.9021 7.18706 7.01073 7.0258 7.14742 6.89013C7.28411 6.75447 7.44618 6.64705 7.62438 6.57402C7.80258 6.50099 7.99342 6.46377 8.186 6.46449C8.57494 6.46589 8.9474 6.62173 9.22144 6.89774C9.49547 7.17374 9.64864 7.54731 9.64725 7.93624C9.64586 8.32518 9.49002 8.69764 9.21401 8.97168C8.938 9.24572 8.56394 9.39889 8.175 9.39749Z" fill="white"/>
</g>
<defs>
<clipPath id="clip0_7_7980">
<rect width="16" height="16" fill="white"/>
</clipPath>
</defs>
</svg>
