<svg width="16" height="16" viewBox="0 0 16 16" fill="none" xmlns="http://www.w3.org/2000/svg">
<g clip-path="url(#clip0_7_7978)">
<path d="M8 16C12.4183 16 16 12.4183 16 8C16 3.58172 12.4183 0 8 0C3.58172 0 0 3.58172 0 8C0 12.4183 3.58172 16 8 16Z" fill="#C1A05C"/>
<path fill-rule="evenodd" clip-rule="evenodd" d="M8.1379 13C6.9784 12.997 5.9404 12.641 5.0134 11.96C4.7669 11.779 4.7594 11.675 4.9694 11.4495L4.9884 11.4295C5.2449 11.1515 5.2434 11.153 5.5479 11.372C6.2496 11.8847 7.09068 12.1717 7.9594 12.195C8.8824 12.227 9.7304 12.0065 10.4969 11.512C11.4164 10.919 12.0434 10.093 12.3059 9.0385C12.6354 7.7145 12.3904 6.4885 11.5224 5.411C10.9144 4.656 10.1244 4.1695 9.1699 3.939C8.3179 3.733 7.4809 3.7835 6.6584 4.0665C6.2229 4.2165 5.8204 4.4375 5.4569 4.7215C5.2774 4.8615 5.2094 4.8585 5.0569 4.6875C4.98353 4.60781 4.91475 4.524 4.8509 4.4365C4.7569 4.3035 4.7699 4.2245 4.8969 4.1235C5.50034 3.64485 6.20342 3.30758 6.9544 3.1365C7.63405 2.97541 8.33967 2.95668 9.0269 3.0815C9.9609 3.2505 10.7919 3.6345 11.5054 4.2565C12.0334 4.7175 12.4604 5.2565 12.7574 5.8865C13.1664 6.7545 13.3329 7.6635 13.2104 8.6225C13.1011 9.49756 12.7573 10.3268 12.2154 11.0225C11.6619 11.7435 10.9534 12.2695 10.1064 12.615C9.48238 12.873 8.81315 13.0039 8.1379 13ZM7.8199 9.8085C7.7864 9.8595 7.7689 9.8975 7.7409 9.9265C7.5719 10.104 7.3654 10.2105 7.1164 10.2185C6.9439 10.2235 6.7709 10.209 6.5984 10.213C6.53168 10.2124 6.46591 10.2289 6.4074 10.261C5.6104 10.761 4.7524 10.834 3.8484 10.642C3.5509 10.579 3.2844 10.4645 3.0574 10.2695C2.8864 10.123 2.7659 9.95 2.7514 9.707C2.7264 9.2835 3.0399 8.9945 3.3629 8.9C3.9594 8.725 4.5269 8.8315 5.0699 9.095C5.3179 9.215 5.5499 9.368 5.7869 9.51C5.9229 9.5905 5.9634 9.5875 6.0314 9.4485C6.3389 8.8205 6.1404 8.128 5.3894 7.872C4.7304 7.647 4.0859 7.6695 3.4514 7.962C3.3584 8.005 3.2564 8.087 3.1469 7.999C3.0334 7.907 3.1094 7.7975 3.1384 7.7005C3.3469 6.9985 3.5584 6.298 3.7729 5.598C3.8199 5.4445 3.9424 5.3655 4.1214 5.375C4.3849 5.3895 4.6469 5.429 4.9104 5.435C5.3054 5.445 5.7019 5.4485 6.0964 5.429C6.3899 5.414 6.6474 5.285 6.8739 5.098C6.9014 5.0755 6.9569 5.0495 6.9749 5.0615C7.0014 5.079 7.0174 5.128 7.0199 5.165C7.0384 5.468 6.9084 5.7015 6.6674 5.883C6.3824 6.098 6.0569 6.198 5.7014 6.2065C5.3329 6.215 4.9644 6.22 4.5964 6.2215C4.5134 6.2225 4.4694 6.2525 4.4499 6.3305C4.4169 6.4605 4.3819 6.591 4.3444 6.7205C4.3159 6.817 4.3524 6.8555 4.4499 6.8515C4.6819 6.843 4.9139 6.8275 5.1454 6.829C5.67828 6.82589 6.19283 7.02329 6.5869 7.382C6.9734 7.726 7.1299 8.17 7.1534 8.666C7.1719 9.0635 7.0959 9.444 6.8774 9.7865C6.8179 9.88 6.8449 9.9205 6.9454 9.947C7.2124 10.0175 7.4589 9.9695 7.6944 9.838C7.7144 9.827 7.7329 9.8145 7.7534 9.805C7.7604 9.802 7.7709 9.8055 7.8199 9.8085ZM5.5359 9.9215L5.5279 9.873C5.4944 9.8525 5.4629 9.827 5.4264 9.811C5.1614 9.6935 4.8999 9.5635 4.6279 9.4645C4.3504 9.363 4.0619 9.2905 3.7599 9.361C3.6239 9.3925 3.4879 9.427 3.4484 9.5835C3.4044 9.756 3.5099 9.8635 3.6329 9.9575C3.6714 9.987 3.7189 10.008 3.7649 10.026C4.2319 10.206 4.7059 10.211 5.1819 10.07C5.3039 10.034 5.4184 9.9715 5.5359 9.9215Z" fill="white"/>
</g>
<defs>
<clipPath id="clip0_7_7978">
<rect width="16" height="16" fill="white"/>
</clipPath>
</defs>
</svg>
