<svg width="16" height="16" viewBox="0 0 16 16" fill="none" xmlns="http://www.w3.org/2000/svg">
<g clip-path="url(#clip0_7_7731)">
<path d="M8 16C12.4183 16 16 12.4183 16 8C16 3.58172 12.4183 0 8 0C3.58172 0 0 3.58172 0 8C0 12.4183 3.58172 16 8 16Z" fill="#383939"/>
<path fill-rule="evenodd" clip-rule="evenodd" d="M9.7365 5.7395L11.07 5.434L11.5865 4.5835L11.0765 3.747L10.4235 3.296L9.082 3L8.2545 3.4665L6.9305 3.2305L5.1125 4.49L4.971 5.961L4.1995 6.283L4.2885 7.6475L3.75 8.0765L4.288 9.6125L4.369 9.7735L4.938 11.355L6.1075 11.769L6.9745 12.651L7.9715 13L8.4225 12.87L9.138 12.7875L10.187 12.487L11.75 11.6045L11.341 9.9885L10.554 9.6785L10.162 10.127L9.0595 10.398L7.456 10.144L6.9385 9.5455L7.1185 8.96L6.3605 7.7605L6.998 6.9825L7.066 5.66L7.979 5.136L8.605 4.886L9.455 5.0395L9.7365 5.7395Z" fill="white"/>
</g>
<defs>
<clipPath id="clip0_7_7731">
<rect width="16" height="16" fill="white"/>
</clipPath>
</defs>
</svg>
