<svg width="16" height="16" viewBox="0 0 16 16" fill="none" xmlns="http://www.w3.org/2000/svg">
<g clip-path="url(#clip0_7_7976)">
<path d="M8 16C12.4183 16 16 12.4183 16 8C16 3.58172 12.4183 0 8 0C3.58172 0 0 3.58172 0 8C0 12.4183 3.58172 16 8 16Z" fill="#4C6BAE"/>
<path opacity="0.5" fill-rule="evenodd" clip-rule="evenodd" d="M3.1915 8.50499L2.5 8.57649C2.87 7.54149 3.6015 6.71349 4.6955 6.09249C4.799 6.95049 5.2055 7.65999 5.9155 8.22199L5.2655 8.28949C5.32883 8.8863 5.58556 9.44604 5.99655 9.8834C6.40755 10.3208 6.95027 10.6117 7.542 10.712C7.10626 11.0398 6.59044 11.2444 6.0485 11.3045C6.389 11.9045 6.792 12.396 7.257 12.778C6.20302 12.6137 5.2329 12.1056 4.49763 11.3328C3.76235 10.56 3.30315 9.56584 3.1915 8.50499ZM12.8085 7.49499L13.5 7.42349C13.13 8.45849 12.3985 9.28649 11.3045 9.90749C11.201 9.04949 10.7945 8.33999 10.0845 7.77799L10.7345 7.71049C10.6705 7.10737 10.4091 6.54229 9.99076 6.10311C9.57247 5.66393 9.02079 5.37526 8.4215 5.28199C8.85575 4.95761 9.36877 4.75513 9.9075 4.69549C9.564 4.09099 9.158 3.59749 8.6885 3.21399C9.7536 3.36759 10.7371 3.87198 11.4833 4.64735C12.2295 5.42272 12.6958 6.42479 12.8085 7.49499Z" fill="white"/>
<path fill-rule="evenodd" clip-rule="evenodd" d="M8.46087 12.813L8.53237 13.5C7.49737 13.13 6.66937 12.3985 6.04837 11.3045C6.90587 11.201 7.61537 10.7945 8.17737 10.0845L8.24537 10.7395C8.85708 10.6845 9.4328 10.4264 9.88087 10.0064C10.3289 9.5863 10.6236 9.0284 10.7179 8.4215C11.0422 8.85575 11.2447 9.36877 11.3044 9.9075C11.9089 9.564 12.4024 9.158 12.7859 8.6885C12.6312 9.76111 12.1208 10.7507 11.3366 11.4986C10.5523 12.2465 9.53961 12.7094 8.46087 12.813ZM7.49487 3.1915L7.42337 2.5C8.45837 2.87 9.28637 3.6015 9.90737 4.6955C9.04937 4.799 8.33987 5.2055 7.77787 5.9155L7.71037 5.2655C7.10725 5.32948 6.54217 5.59095 6.10299 6.00924C5.66381 6.42753 5.37514 6.97921 5.28187 7.5785C4.95749 7.14425 4.75501 6.63123 4.69537 6.0925C4.09087 6.436 3.59737 6.842 3.21387 7.3115C3.36747 6.2464 3.87186 5.26294 4.64723 4.51673C5.4226 3.77052 6.42467 3.30418 7.49487 3.1915Z" fill="white"/>
</g>
<defs>
<clipPath id="clip0_7_7976">
<rect width="16" height="16" fill="white"/>
</clipPath>
</defs>
</svg>
