<svg width="16" height="16" viewBox="0 0 16 16" fill="none" xmlns="http://www.w3.org/2000/svg">
<g clip-path="url(#clip0_7_7969)">
<path d="M8 16C12.4183 16 16 12.4183 16 8C16 3.58172 12.4183 0 8 0C3.58172 0 0 3.58172 0 8C0 12.4183 3.58172 16 8 16Z" fill="#FF4314"/>
<path fill-rule="evenodd" clip-rule="evenodd" d="M4.5855 4H11.4935V4.9625H4.585L4.5855 4ZM3.8155 6.8205H12.352V7.793H9.737V11.0465C9.737 11.2965 9.8455 11.4215 10.072 11.4215H11.158C11.2765 11.4215 11.375 11.345 11.434 11.2005C11.5035 11.0465 11.5525 10.5745 11.5725 9.795L12.5 10.084C12.431 11.1715 12.3025 11.8165 12.125 12.019C11.9475 12.211 11.691 12.317 11.345 12.317H9.7765C9.0755 12.317 8.7305 11.961 8.7305 11.258V7.793H7.2695V7.9855C7.2205 9.208 6.9445 10.1895 6.441 10.9215C5.9475 11.595 5.158 12.1245 4.0525 12.5L3.5 11.653C4.566 11.287 5.2765 10.825 5.6515 10.286C6.0265 9.689 6.2235 8.9285 6.263 7.9855V7.793H3.816L3.8155 6.8205Z" fill="white"/>
</g>
<defs>
<clipPath id="clip0_7_7969">
<rect width="16" height="16" fill="white"/>
</clipPath>
</defs>
</svg>
