<svg width="16" height="16" viewBox="0 0 16 16" fill="none" xmlns="http://www.w3.org/2000/svg">
<g clip-path="url(#clip0_7_8069)">
<path d="M8 16C12.4183 16 16 12.4183 16 8C16 3.58172 12.4183 0 8 0C3.58172 0 0 3.58172 0 8C0 12.4183 3.58172 16 8 16Z" fill="#13BF99"/>
<path d="M8 12.5H5.732L6.868 10.5215H9.132L10.268 12.5H8ZM6.868 5.478L5.732 3.5H10.268L9.132 5.478H6.868ZM11.868 10.2475L10.7315 12.2265L9.5995 10.248H9.6L10.7315 8.269H13L11.868 10.2475ZM4.132 5.748L5.268 3.7695L6.4 5.748L5.268 7.726H3L4.132 5.748ZM6.3995 10.248H6.4L5.268 12.2265L4.132 10.248L3 8.2685H5.268L6.4 10.247L6.3995 10.248ZM11.868 5.748L13 7.7265H10.732L9.5995 5.748L10.7315 3.7695L11.868 5.748Z" fill="white"/>
</g>
<defs>
<clipPath id="clip0_7_8069">
<rect width="16" height="16" fill="white"/>
</clipPath>
</defs>
</svg>
