<svg width="16" height="16" viewBox="0 0 16 16" fill="none" xmlns="http://www.w3.org/2000/svg">
<g clip-path="url(#clip0_7_7975)">
<path d="M8 16C12.4183 16 16 12.4183 16 8C16 3.58172 12.4183 0 8 0C3.58172 0 0 3.58172 0 8C0 12.4183 3.58172 16 8 16Z" fill="#77C3B0"/>
<path d="M12.8394 6.64148L11.9954 5.79749C11.8686 5.67003 11.7177 5.56903 11.5515 5.50037C11.3854 5.4317 11.2072 5.39673 11.0274 5.39749H10.8974V5.26248C10.8974 5.02598 10.8414 4.80098 10.7234 4.59848C10.6627 4.48105 10.5827 4.37458 10.4869 4.28349L9.64291 3.43898C9.51603 3.31147 9.36507 3.21044 9.19881 3.14177C9.03254 3.0731 8.85429 3.03816 8.67441 3.03899H4.78541C4.41941 3.03899 4.07641 3.17998 3.81741 3.43898L2.97341 4.28299C2.84559 4.40839 2.74431 4.55823 2.67559 4.72358C2.60687 4.88894 2.57212 5.06643 2.57341 5.24549L2.55091 8.89298C2.54591 9.25848 2.69191 9.61299 2.95091 9.87198L3.79491 10.7165C3.92175 10.8439 4.07264 10.9448 4.23882 11.0134C4.40499 11.082 4.58314 11.1168 4.76291 11.116H4.91491V11.251C4.91491 11.4875 4.97141 11.7125 5.08941 11.915C5.15141 12.0335 5.22991 12.14 5.32591 12.23L6.16991 13.075C6.29687 13.2022 6.4478 13.3029 6.61395 13.3714C6.78011 13.4399 6.95819 13.4748 7.13791 13.474H11.0329C11.3989 13.474 11.7419 13.3335 12.0009 13.0745L12.8454 12.2305C12.9727 12.1035 13.0735 11.9526 13.1421 11.7865C13.2106 11.6203 13.2456 11.4422 13.2449 11.2625V7.60399C13.244 7.42481 13.2077 7.24758 13.1382 7.08243C13.0687 6.91728 12.9673 6.76744 12.8399 6.64148H12.8394ZM4.76291 9.87748C4.72719 9.87753 4.69288 9.86352 4.66741 9.83849L4.24541 9.41599L3.82291 8.99399C3.80478 8.97268 3.79132 8.94781 3.78341 8.92098V5.25149C3.78341 5.21149 3.80041 5.17798 3.82341 5.15548L4.66741 4.31149C4.67841 4.29999 4.68991 4.29449 4.70091 4.28899C4.72176 4.2781 4.74488 4.27228 4.76841 4.27198H8.66341C8.68591 4.27198 8.70291 4.27749 8.72541 4.28899C8.74241 4.29449 8.75341 4.30598 8.76491 4.31699L9.60891 5.16148C9.62124 5.17205 9.63084 5.18542 9.63691 5.20048C9.64291 5.20649 9.64291 5.21199 9.64291 5.21749C9.64291 5.22299 9.64791 5.22898 9.64791 5.23448C9.64791 5.23998 9.65391 5.25699 9.65391 5.26799V5.44798C9.65391 5.52698 9.59191 5.58299 9.51891 5.58299H8.84391C8.80801 5.58316 8.77351 5.56914 8.74791 5.54399L8.36491 5.16148H5.06691L4.92641 5.30148L4.73491 5.49349V8.66198L5.06691 8.99399H8.35941L8.74241 8.60599L8.74741 8.59999C8.75891 8.59449 8.77041 8.58299 8.78141 8.57749C8.79841 8.56649 8.82141 8.56648 8.83791 8.56648H9.51291C9.55791 8.56648 9.59791 8.58899 9.62591 8.62249C9.64341 8.64516 9.65322 8.67284 9.65391 8.70149V8.89298C9.65382 8.92878 9.63963 8.96309 9.61441 8.98848L9.19241 9.41048L8.77041 9.83249C8.76491 9.83849 8.75341 9.84399 8.74791 9.84948C8.74791 9.84948 8.74241 9.85498 8.73641 9.85498C8.73091 9.86098 8.72541 9.86099 8.71941 9.86099C8.71441 9.86099 8.71441 9.86099 8.70841 9.86649C8.70291 9.86649 8.69691 9.87198 8.69141 9.87198H4.76291V9.87748ZM12.0124 11.251C12.0122 11.2868 11.9978 11.3212 11.9724 11.3465L11.1284 12.191C11.1186 12.2003 11.1073 12.2079 11.0949 12.2135C11.074 12.2244 11.0509 12.2302 11.0274 12.2305H7.13241C7.11063 12.2302 7.0893 12.2243 7.07041 12.2135C7.05534 12.2074 7.04197 12.1978 7.03141 12.1855L6.18691 11.341C6.17591 11.33 6.16441 11.3185 6.15891 11.3015C6.15291 11.2965 6.15291 11.2905 6.15291 11.285C6.15291 11.279 6.14791 11.2735 6.14791 11.268C6.14791 11.2625 6.14191 11.2455 6.14191 11.234V11.054C6.14191 10.9755 6.20391 10.919 6.27691 10.919H6.95191C6.99191 10.919 7.02541 10.936 7.04791 10.9585L7.43091 11.341H10.7234L10.8639 11.2005L11.0554 11.009V7.84049L10.7234 7.50799H7.43641L7.05391 7.89649L7.04791 7.90199C7.03691 7.90799 7.02541 7.91899 7.01441 7.92449C6.99741 7.93599 6.97491 7.93599 6.95791 7.93599H6.28291C6.26105 7.93556 6.23957 7.93027 6.22003 7.92049C6.20048 7.91072 6.18336 7.89671 6.16991 7.87949C6.1525 7.85694 6.14269 7.82946 6.14191 7.80099V7.60949C6.1419 7.59175 6.14538 7.57419 6.15216 7.55781C6.15893 7.54142 6.16887 7.52653 6.18141 7.51399L6.60341 7.09199L7.02541 6.66948C7.03141 6.66398 7.04241 6.65849 7.04791 6.65249C7.04791 6.65249 7.05391 6.64749 7.05941 6.64749C7.06491 6.64148 7.07041 6.64148 7.07641 6.64148C7.08141 6.64148 7.08141 6.64149 7.08741 6.63599C7.09291 6.63599 7.09891 6.62999 7.10441 6.62999H11.0274C11.0664 6.62999 11.1004 6.64699 11.1229 6.66999L11.5449 7.09199L11.9674 7.51399C11.9724 7.51948 11.9784 7.52499 11.9839 7.53649C11.9939 7.55211 12.0015 7.56913 12.0064 7.58699V7.61498C12.0124 7.60398 12.0124 11.251 12.0124 11.251Z" fill="white"/>
</g>
<defs>
<clipPath id="clip0_7_7975">
<rect width="16" height="16" fill="white"/>
</clipPath>
</defs>
</svg>
