<svg width="16" height="16" viewBox="0 0 16 16" fill="none" xmlns="http://www.w3.org/2000/svg">
<g clip-path="url(#clip0_7_7970)">
<path d="M8 16C12.4183 16 16 12.4183 16 8C16 3.58172 12.4183 0 8 0C3.58172 0 0 3.58172 0 8C0 12.4183 3.58172 16 8 16Z" fill="#00D395"/>
<path fill-rule="evenodd" clip-rule="evenodd" d="M4.285 10.7935C4.16072 10.72 4.05762 10.6156 3.98576 10.4903C3.9139 10.3651 3.87574 10.2234 3.875 10.079V8.45249C3.875 8.25899 4.036 8.10249 4.233 8.10349C4.296 8.10349 4.358 8.11999 4.413 8.15099L8.1645 10.2915C8.384 10.4165 8.5195 10.6465 8.5195 10.895V12.58C8.51917 12.6357 8.50784 12.6908 8.48615 12.7421C8.46446 12.7934 8.43284 12.8399 8.3931 12.8789C8.35337 12.9179 8.30632 12.9487 8.25464 12.9695C8.20297 12.9903 8.14769 13.0007 8.092 13C8.01284 13 7.93513 12.9788 7.867 12.9385L4.285 10.7935ZM9.877 7.70549C10.097 7.83049 10.231 8.06099 10.232 8.30899V11.729C10.232 11.83 10.177 11.9235 10.0865 11.9725L9.2655 12.4245C9.25494 12.4304 9.24369 12.4349 9.232 12.438V10.539C9.232 10.293 9.1005 10.065 8.884 9.93899L5.59 8.00999V5.86649C5.59 5.67299 5.751 5.51649 5.9485 5.51749C6.01143 5.51759 6.07326 5.53395 6.128 5.56499L9.878 7.70549H9.877ZM11.5195 5.17949C11.7395 5.30449 11.875 5.53449 11.875 5.78399V10.779C11.8744 10.8297 11.8601 10.8794 11.8336 10.9227C11.8071 10.966 11.7694 11.0013 11.7245 11.025L10.946 11.4365V7.95849C10.946 7.71299 10.814 7.48549 10.5995 7.35899L7.2315 5.38249V3.34999C7.2315 3.28799 7.249 3.22749 7.2795 3.17399C7.32854 3.09358 7.40695 3.0354 7.49813 3.01179C7.58931 2.98818 7.6861 3.00098 7.768 3.04749L11.5195 5.17949Z" fill="white"/>
</g>
<defs>
<clipPath id="clip0_7_7970">
<rect width="16" height="16" fill="white"/>
</clipPath>
</defs>
</svg>
