<svg width="16" height="16" viewBox="0 0 16 16" fill="none" xmlns="http://www.w3.org/2000/svg">
<g clip-path="url(#clip0_7_7965)">
<path d="M8 16C12.4183 16 16 12.4183 16 8C16 3.58172 12.4183 0 8 0C3.58172 0 0 3.58172 0 8C0 12.4183 3.58172 16 8 16Z" fill="#71C800"/>
<path fill-rule="evenodd" clip-rule="evenodd" d="M12.9096 7.35749C12.5161 7.37599 12.1211 7.39899 11.7276 7.38499C11.3746 7.37199 11.0231 7.31349 10.6711 7.27249C10.6347 7.26633 10.6007 7.25043 10.5726 7.22649C9.99007 6.74899 9.41757 6.26049 8.91557 5.69499C8.73257 5.48849 8.58457 5.26549 8.50157 4.99449C8.39007 4.62899 7.92157 4.48849 7.57457 4.69999C7.21057 4.92199 7.14807 5.43849 7.45457 5.73449C7.50883 5.78844 7.57594 5.82767 7.64957 5.84849C7.91457 5.91249 8.11957 6.07049 8.31307 6.24949C8.66007 6.56999 8.97107 6.92449 9.27307 7.28749C9.35957 7.39099 9.31557 7.51099 9.18307 7.52599C8.97807 7.54999 8.77157 7.57149 8.56507 7.57999C8.17607 7.59599 7.78657 7.61149 7.39707 7.60749C7.17957 7.60499 6.96107 7.57149 6.74557 7.53549C6.64396 7.51566 6.54686 7.47736 6.45907 7.42249C6.16957 7.24899 5.86957 7.36749 5.70257 7.53849C5.60167 7.64186 5.53726 7.77533 5.51912 7.91863C5.50099 8.06194 5.53011 8.20725 5.60207 8.33249C5.74107 8.57049 6.01507 8.70949 6.26107 8.65749C6.33207 8.64249 6.40207 8.61099 6.46507 8.57449C6.63007 8.48049 6.80907 8.43649 6.99407 8.42499C7.29107 8.40699 7.59007 8.38999 7.88757 8.39699C8.26607 8.40599 8.64457 8.43949 9.02307 8.46299C9.07457 8.46649 9.12657 8.46899 9.17757 8.47699C9.31957 8.49999 9.36057 8.61349 9.26657 8.72499C9.15357 8.85899 9.04457 8.99749 8.92257 9.12249C8.66593 9.38552 8.40506 9.64439 8.14007 9.89899C8.01979 10.014 7.87073 10.0945 7.70857 10.132C7.38057 10.2105 7.21857 10.527 7.26457 10.847C7.31057 11.165 7.59457 11.404 7.91607 11.4045C8.21407 11.4045 8.44307 11.2455 8.52257 10.9605C8.60407 10.6675 8.79207 10.4465 8.98807 10.231C9.47157 9.70049 10.0151 9.23399 10.5696 8.78099C10.602 8.75467 10.6408 8.73741 10.6821 8.73099C10.9626 8.69449 11.2431 8.64899 11.5246 8.63149C11.842 8.61091 12.1602 8.60657 12.4781 8.61849C12.8096 8.63199 13.1396 8.67549 13.4796 8.70699C13.4736 8.82199 13.4721 8.91999 13.4631 9.01699C13.4021 9.64699 13.2416 10.2505 12.9451 10.811C12.2131 12.1935 11.0841 13.059 9.55657 13.3965C9.21422 13.4688 8.86495 13.5032 8.51507 13.499C8.14257 13.4985 7.77007 13.502 7.39757 13.498C6.36507 13.487 5.42057 13.193 4.58007 12.591C3.56857 11.866 2.91507 10.8925 2.63407 9.67799C2.57093 9.40678 2.53343 9.13023 2.52207 8.85199C2.49846 8.32633 2.49379 7.79999 2.50807 7.27399C2.53855 6.21941 2.90757 5.20262 3.56056 4.37396C4.21355 3.54529 5.11585 2.94874 6.13407 2.67249C6.541 2.56155 6.96078 2.50473 7.38257 2.50349C7.81457 2.50199 8.24607 2.49549 8.67757 2.50549C9.71057 2.52949 10.6491 2.84449 11.4791 3.46149C12.4716 4.19899 13.1031 5.17749 13.3691 6.38599C13.4336 6.67599 13.4561 6.97499 13.4996 7.28449C13.2846 7.31199 13.0981 7.34849 12.9096 7.35749Z" fill="white"/>
</g>
<defs>
<clipPath id="clip0_7_7965">
<rect width="16" height="16" fill="white"/>
</clipPath>
</defs>
</svg>
