<svg width="16" height="16" viewBox="0 0 16 16" fill="none" xmlns="http://www.w3.org/2000/svg">
<g clip-path="url(#clip0_7_7831)">
<path d="M8 16C12.4183 16 16 12.4183 16 8C16 3.58172 12.4183 0 8 0C3.58172 0 0 3.58172 0 8C0 12.4183 3.58172 16 8 16Z" fill="#00BDCD"/>
<path d="M10.9165 4.872C10.2107 4.27233 9.31367 3.94479 8.3875 3.9485C6.29 3.9485 4.5625 5.607 4.4185 7.727H4.0075C4.1515 5.355 6.064 3.5285 8.3875 3.5285C9.416 3.5285 10.4025 3.9065 11.2045 4.5785L10.9165 4.872ZM10.7725 6.2575C10.5025 5.87585 10.1452 5.5643 9.73028 5.34885C9.31539 5.13341 8.85499 5.02031 8.3875 5.019C6.763 5.019 5.447 6.3625 5.447 8C5.447 9.658 6.763 11.002 8.387 11.002C9.33 11.002 10.2165 10.542 10.7725 9.763L11.061 10.057C10.423 10.9175 9.436 11.422 8.3875 11.422C6.5365 11.422 5.0355 9.889 5.0355 8C5.0355 6.132 6.5365 4.599 8.3875 4.599C8.90891 4.60114 9.42253 4.72579 9.88692 4.9629C10.3513 5.2 10.7535 5.54292 11.061 5.964L10.7725 6.2575ZM11.2455 5.187L11.534 4.893C11.6365 4.998 11.719 5.103 11.801 5.208L11.513 5.5015C11.4298 5.39157 11.3405 5.2869 11.2455 5.187ZM8.367 12.492C6.0435 12.492 4.131 10.666 3.987 8.294H4.398C4.542 10.414 6.2695 12.0725 8.367 12.0725C9.292 12.0725 10.177 11.7575 10.896 11.149L11.184 11.4425C10.3999 12.1166 9.40104 12.4889 8.367 12.4925V12.492ZM11.2455 10.834C11.3485 10.729 11.4305 10.624 11.513 10.519L11.801 10.8125C11.7185 10.9175 11.6365 11.0225 11.534 11.1275L11.2455 10.834ZM3.4115 8C3.4115 10.792 5.6525 13.08 8.3875 13.08C9.868 13.08 11.266 12.4295 12.2125 11.233L12.5 11.5265C11.472 12.7865 9.9915 13.5 8.3875 13.5C5.406 13.5 3 11.0225 3 8C3 4.956 5.4265 2.5 8.3875 2.5C9.97 2.5 11.4725 3.2135 12.5 4.4735L12.212 4.7675C11.266 3.592 9.868 2.92 8.387 2.92C5.652 2.92 3.4115 5.208 3.4115 8Z" fill="white"/>
</g>
<defs>
<clipPath id="clip0_7_7831">
<rect width="16" height="16" fill="white"/>
</clipPath>
</defs>
</svg>
