<svg width="16" height="16" viewBox="0 0 16 16" fill="none" xmlns="http://www.w3.org/2000/svg">
<g clip-path="url(#clip0_7_7920)">
<path d="M8 16C12.4183 16 16 12.4183 16 8C16 3.58172 12.4183 0 8 0C3.58172 0 0 3.58172 0 8C0 12.4183 3.58172 16 8 16Z" fill="#40649F"/>
<path fill-rule="evenodd" clip-rule="evenodd" d="M6.4985 3.625C7.374 3.625 9.5385 4.0425 11.5935 5.528C13.6485 7.0135 12.7255 9.1015 12.266 9.509C11.806 9.9165 8.212 10.4545 7.988 10.8265C7.764 11.198 7.503 12.625 6.383 12.625C5.263 12.625 4.742 11.49 4.478 10.8315C4.213 10.173 3.875 9.0575 3.875 7.4935C3.875 5.9295 4.55 3.625 6.4985 3.625ZM5.7335 7.767C5.057 7.8175 4.7385 8.8095 4.81 9.8905C4.8815 10.9715 5.6965 11.8925 6.188 11.8925C6.6795 11.8925 7.408 11.2395 7.263 9.8275C7.1175 8.415 6.41 7.716 5.7335 7.767ZM9.5295 6.007C8.582 5.6385 7.1825 5.3035 7.6245 6.272C7.7735 6.5975 7.8935 7.1635 7.985 7.9695C9.747 7.8395 10.805 7.6295 11.1575 7.3395C11.686 6.9055 10.4765 6.376 9.5295 6.007Z" fill="white"/>
</g>
<defs>
<clipPath id="clip0_7_7920">
<rect width="16" height="16" fill="white"/>
</clipPath>
</defs>
</svg>
