<svg width="16" height="16" viewBox="0 0 16 16" fill="none" xmlns="http://www.w3.org/2000/svg">
<g clip-path="url(#clip0_7_8070)">
<path d="M8 16C12.4183 16 16 12.4183 16 8C16 3.58172 12.4183 0 8 0C3.58172 0 0 3.58172 0 8C0 12.4183 3.58172 16 8 16Z" fill="#0F1529"/>
<path fill-rule="evenodd" clip-rule="evenodd" d="M12.4165 7.673C12.316 7.6955 12.247 7.7085 12.1795 7.7265C11.757 7.837 11.3315 7.9245 10.8915 7.908C10.3035 7.8855 9.7985 7.649 9.353 7.268C9.173 7.1135 9.006 6.943 8.834 6.779C8.7505 6.7 8.7305 6.61 8.794 6.507L8.9565 6.2435L9.176 6.4845C9.4925 6.8355 9.831 7.155 10.2775 7.3255C10.716 7.4925 11.1625 7.468 11.611 7.3925C12.245 7.2865 12.8305 7.033 13.4045 6.7485C13.4235 6.739 13.4445 6.733 13.5 6.711C13.462 6.7825 13.441 6.825 13.417 6.865C12.579 8.274 11.741 9.683 10.902 11.0915C10.799 11.2645 10.7605 11.2775 10.5815 11.19C9.3985 10.609 8.1595 10.4985 6.8805 10.7185C6.6805 10.753 6.645 10.736 6.5495 10.531C6.445 10.307 6.446 10.313 6.6825 10.2675C7.34148 10.1388 8.01624 10.1113 8.6835 10.186C9.308 10.256 9.9305 10.348 10.5035 10.642C10.5855 10.6845 10.629 10.649 10.67 10.581C11.0335 9.974 11.397 9.367 11.7625 8.761C11.958 8.4365 12.1575 8.1145 12.354 7.791C12.371 7.763 12.3845 7.7335 12.4165 7.673ZM3.5895 7.7335C3.6735 7.875 3.7575 8.0165 3.8425 8.1575L5.5245 10.9475C5.6045 11.0805 5.6045 11.0845 5.466 11.148C5.1675 11.2855 5.2045 11.321 5.022 11.0155C4.377 9.933 3.733 8.8495 3.089 7.7665L2.567 6.889C2.542 6.8475 2.522 6.8025 2.5 6.759L2.5195 6.733C2.593 6.7655 2.667 6.796 2.7395 6.83C3.181 7.0365 3.6275 7.2285 4.1005 7.3455C4.7075 7.4965 5.307 7.514 5.8855 7.2255C6.2455 7.046 6.542 6.7815 6.809 6.48C7.2365 5.996 7.5835 5.453 7.898 4.887L7.9745 4.75C8.016 4.812 8.0425 4.859 8.076 4.9C8.2605 5.126 8.217 5.327 8.0615 5.561C7.7145 6.083 7.365 6.6 6.903 7.024C6.49 7.403 6.027 7.689 5.483 7.8195C5.056 7.922 4.627 7.9015 4.1985 7.822C4.0025 7.7855 3.8075 7.7445 3.612 7.7055L3.5895 7.7335Z" fill="white"/>
</g>
<defs>
<clipPath id="clip0_7_8070">
<rect width="16" height="16" fill="white"/>
</clipPath>
</defs>
</svg>
