<svg width="16" height="16" viewBox="0 0 16 16" fill="none" xmlns="http://www.w3.org/2000/svg">
<g clip-path="url(#clip0_7_7961)">
<path d="M8 16C12.4183 16 16 12.4183 16 8C16 3.58172 12.4183 0 8 0C3.58172 0 0 3.58172 0 8C0 12.4183 3.58172 16 8 16Z" fill="#262626"/>
<path fill-rule="evenodd" clip-rule="evenodd" d="M8.46502 4.8125C9.69152 4.903 10.2865 5.635 10.2865 5.7675C10.2865 5.861 10.264 6.065 10.264 6.19C10.264 6.2735 10.294 6.407 10.354 6.59C10.339 6.715 10.2565 6.778 10.106 6.778C9.88102 6.778 9.94402 6.5255 9.61002 6.0255C9.25002 5.487 8.88602 5.374 8.46302 5.3505C8.47152 6.4985 8.50302 9.6585 8.50552 10.7455C9.63302 10.5815 10.259 9.7395 10.4215 9.7395C10.5115 9.7395 10.6245 9.8095 10.6245 9.9745C10.6245 10.322 9.73352 11.108 8.48852 11.2635C8.39552 12.278 7.91552 13.5 6.72452 13.5C6.16102 13.5 5.68752 13.065 5.68752 12.56C5.68752 12.231 5.93552 12.09 6.16102 12.09C6.38602 12.09 6.61152 12.2545 6.61152 12.56C6.61152 12.7635 6.54402 12.905 6.40902 12.983C6.54402 13.077 6.67902 13.124 6.81452 13.124C7.26552 13.124 7.60452 12.308 7.66252 11.259C6.34852 11.048 5.12402 9.796 5.12402 7.9765C5.12402 5.93 6.39902 5.045 7.64952 4.8475C7.67452 3.9275 8.15502 2.5225 9.38452 2.5C10.128 2.5 10.4435 3.111 10.4435 3.44C10.4435 3.769 10.207 3.91 9.97052 3.91C9.73352 3.91 9.49702 3.722 9.49702 3.44C9.49702 3.252 9.57202 3.119 9.72202 3.0405C9.61702 2.9465 9.48202 2.8995 9.31702 2.8995C8.69152 2.8995 8.49552 4.2185 8.46502 4.8125ZM7.67152 10.7065C7.66952 9.4895 7.65402 6.685 7.65002 5.3965C6.49602 5.68 6.11652 7.053 6.11652 7.9765C6.11652 9.4405 6.80852 10.446 7.67152 10.7065Z" fill="white"/>
</g>
<defs>
<clipPath id="clip0_7_7961">
<rect width="16" height="16" fill="white"/>
</clipPath>
</defs>
</svg>
