<svg width="16" height="16" viewBox="0 0 16 16" fill="none" xmlns="http://www.w3.org/2000/svg">
<g clip-path="url(#clip0_7_8054)">
<path d="M8 16C12.4183 16 16 12.4183 16 8C16 3.58172 12.4183 0 8 0C3.58172 0 0 3.58172 0 8C0 12.4183 3.58172 16 8 16Z" fill="#FDDE6C"/>
<path fill-rule="evenodd" clip-rule="evenodd" d="M8 13.5C4.9625 13.5 2.5 11.0375 2.5 8C2.5 4.9625 4.9625 2.5 8 2.5C11.0375 2.5 13.5 4.9625 13.5 8C13.5 11.0375 11.0375 13.5 8 13.5ZM8 12.727C9.25368 12.727 10.456 12.229 11.3425 11.3425C12.229 10.456 12.727 9.25368 12.727 8C12.727 6.74632 12.229 5.54399 11.3425 4.65751C10.456 3.77102 9.25368 3.273 8 3.273C6.74632 3.273 5.54399 3.77102 4.65751 4.65751C3.77102 5.54399 3.273 6.74632 3.273 8C3.273 9.25368 3.77102 10.456 4.65751 11.3425C5.54399 12.229 6.74632 12.727 8 12.727ZM8.036 11.2705C6.2375 11.2705 4.789 9.8955 4.789 8.018V8C4.789 6.167 6.2015 4.73 8.108 4.73C9.394 4.73 10.2215 5.269 10.7795 6.0415L9.466 7.0565C9.106 6.6075 8.6925 6.32 8.09 6.32C7.2085 6.32 6.588 7.0655 6.588 7.982V8C6.588 8.9435 7.2085 9.68 8.09 9.68C8.7465 9.68 9.1335 9.375 9.511 8.9165L10.8245 9.851C10.2305 10.6685 9.43 11.2705 8.036 11.2705Z" fill="white"/>
</g>
<defs>
<clipPath id="clip0_7_8054">
<rect width="16" height="16" fill="white"/>
</clipPath>
</defs>
</svg>
