<svg width="16" height="16" viewBox="0 0 16 16" fill="none" xmlns="http://www.w3.org/2000/svg">
<g clip-path="url(#clip0_7_7958)">
<path d="M8 16C12.4183 16 16 12.4183 16 8C16 3.58172 12.4183 0 8 0C3.58172 0 0 3.58172 0 8C0 12.4183 3.58172 16 8 16Z" fill="black"/>
<path d="M7.94867 2.19901C7.87567 2.03401 8.13967 1.91701 8.21267 2.07401C9.92867 5.03001 11.6447 7.98751 13.3607 10.948C13.2692 10.948 13.1812 10.918 13.0932 10.904L8.51317 9.99101C8.36317 9.98351 8.33017 9.74101 8.47667 9.70501L10.2737 9.21001C10.2951 9.20458 10.315 9.19449 10.3321 9.18045C10.3492 9.16642 10.3629 9.14879 10.3724 9.12882C10.3818 9.10885 10.3868 9.08704 10.3868 9.06495C10.3869 9.04285 10.382 9.02102 10.3727 9.00101L7.94867 2.19501V2.19901Z" fill="white"/>
<path d="M7.685 2.21402C7.7015 2.23802 7.716 2.26402 7.7285 2.29102C8.2715 3.83102 8.8285 5.37102 9.3675 6.91102C9.4155 7.03902 9.2355 7.14552 9.1475 7.05002C8.6855 6.56602 8.2455 6.06752 7.791 5.58352C7.7175 5.51752 7.611 5.56152 7.5635 5.63102L2.841 11.179C2.786 11.2375 2.7385 11.3255 2.6465 11.3365C2.5805 11.3365 2.5365 11.285 2.5 11.234V11.149C4.2305 8.17202 5.959 5.19402 7.685 2.21402Z" fill="white"/>
<path d="M6.23994 7.49751C6.32794 7.47201 6.44494 7.53401 6.41594 7.64051C6.23244 8.27851 6.03844 8.91301 5.84744 9.54701C5.81844 9.62801 5.89144 9.70101 5.96844 9.70501C8.43994 10.2 10.9114 10.713 13.3824 11.208C13.4304 11.2155 13.4634 11.252 13.4999 11.2815V11.384L13.4299 11.4575H2.93994C4.03994 10.1375 5.13644 8.81001 6.23994 7.49751Z" fill="white"/>
</g>
<defs>
<clipPath id="clip0_7_7958">
<rect width="16" height="16" fill="white"/>
</clipPath>
</defs>
</svg>
