<svg width="16" height="16" viewBox="0 0 16 16" fill="none" xmlns="http://www.w3.org/2000/svg">
<g clip-path="url(#clip0_7_8117)">
<path d="M8 16C12.4183 16 16 12.4183 16 8C16 3.58172 12.4183 0 8 0C3.58172 0 0 3.58172 0 8C0 12.4183 3.58172 16 8 16Z" fill="#3AB03E"/>
<path d="M8.5805 8.3895C8.77925 8.29427 8.94709 8.14489 9.06473 7.95852C9.18236 7.77216 9.24502 7.55638 9.2455 7.336C9.2455 6.689 8.7145 6.1645 8.0605 6.1645C7.4055 6.1645 6.874 6.689 6.874 7.336C6.87454 7.55643 6.93735 7.77223 7.05518 7.95853C7.17301 8.14482 7.34107 8.29404 7.54 8.389V9.836H8.5805V8.3895ZM8.0605 11.75C5.9675 11.75 4.2655 10.068 4.2655 8C4.2655 5.932 5.9675 4.25 8.0605 4.25C9.768 4.25 11.2155 5.37 11.6905 6.906H12.9985C12.4935 4.671 10.4745 3 8.06 3C5.2655 3 3 5.2385 3 8C3 10.7615 5.2655 13 8.06 13C10.4745 13 12.4935 11.329 12.9985 9.094H11.69C11.215 10.63 9.768 11.75 8.0605 11.75Z" fill="white"/>
</g>
<defs>
<clipPath id="clip0_7_8117">
<rect width="16" height="16" fill="white"/>
</clipPath>
</defs>
</svg>
