<svg width="16" height="16" viewBox="0 0 16 16" fill="none" xmlns="http://www.w3.org/2000/svg">
<g clip-path="url(#clip0_7_7987)">
<path d="M8 16C12.4183 16 16 12.4183 16 8C16 3.58172 12.4183 0 8 0C3.58172 0 0 3.58172 0 8C0 12.4183 3.58172 16 8 16Z" fill="#008CE7"/>
<path d="M9.54302 4.00201H5.90502L5.60402 5.68551L8.88502 5.69051C10.5005 5.69051 10.98 6.27701 10.9645 7.25051C10.9575 7.74951 10.74 8.59351 10.648 8.86551C10.3995 9.59551 9.88752 10.4265 7.96852 10.424L4.77952 10.422L4.47852 12.1075H8.10702C9.38652 12.1075 9.93152 11.958 10.507 11.6925C11.784 11.1035 12.5445 9.84201 12.85 8.19551C13.303 5.74551 12.738 4.00201 9.54252 4.00201H9.54302Z" fill="white"/>
<path d="M7.90345 7.89901C8.02195 7.40651 8.05945 7.20901 8.05945 7.20901H4.33645C3.38445 7.20901 3.24845 7.82902 3.15795 8.20402C3.03945 8.69452 3.00195 8.89451 3.00195 8.89451H6.72545C7.67695 8.89451 7.81295 8.27451 7.90345 7.89901Z" fill="white"/>
</g>
<defs>
<clipPath id="clip0_7_7987">
<rect width="16" height="16" fill="white"/>
</clipPath>
</defs>
</svg>
