<svg width="16" height="16" viewBox="0 0 16 16" fill="none" xmlns="http://www.w3.org/2000/svg">
<g clip-path="url(#clip0_7_7955)">
<path d="M8 16C12.4183 16 16 12.4183 16 8C16 3.58172 12.4183 0 8 0C3.58172 0 0 3.58172 0 8C0 12.4183 3.58172 16 8 16Z" fill="#2D9CDB"/>
<path d="M10.027 2.803C10.223 2.803 10.381 2.863 10.5005 2.9825C10.62 3.102 10.6795 3.2595 10.6795 3.456V9.293C10.6795 9.958 10.522 10.5645 10.206 11.1105C9.90475 11.6421 9.46744 12.0839 8.93895 12.3905C8.40995 12.6975 7.81695 12.851 7.15945 12.851C6.50245 12.851 5.90095 12.6975 5.35445 12.3905C4.82597 12.0839 4.38866 11.6421 4.08745 11.1105C3.78045 10.5645 3.62695 9.9585 3.62695 9.293C3.62695 8.6275 3.76745 8.0255 4.04945 7.488C4.33945 6.942 4.73195 6.515 5.22695 6.208C5.73045 5.901 6.28945 5.747 6.90345 5.747C7.37624 5.74353 7.84376 5.84643 8.2714 6.04809C8.69904 6.24976 9.07586 6.54501 9.37395 6.912V3.456C9.37395 3.2595 9.43395 3.102 9.55345 2.9825C9.68144 2.86256 9.85162 2.79805 10.027 2.803ZM7.15945 11.699C7.58645 11.699 7.97045 11.597 8.31145 11.392C8.65856 11.1818 8.94187 10.881 9.13095 10.522C9.32695 10.1545 9.42545 9.745 9.42545 9.293C9.42545 8.841 9.32695 8.435 9.13045 8.077C8.94359 7.71966 8.65972 7.42227 8.31145 7.219C7.97045 7.006 7.58645 6.899 7.15945 6.899C6.73295 6.899 6.34445 7.006 5.99445 7.219C5.65005 7.42713 5.36735 7.7233 5.17545 8.077C4.97945 8.435 4.88145 8.8405 4.88145 9.293C4.88145 9.7455 4.97945 10.1545 5.17545 10.5215C5.36956 10.8771 5.65174 11.1768 5.99495 11.392C6.34495 11.597 6.73245 11.699 7.15945 11.699Z" fill="white"/>
</g>
<defs>
<clipPath id="clip0_7_7955">
<rect width="16" height="16" fill="white"/>
</clipPath>
</defs>
</svg>
