<svg width="16" height="16" viewBox="0 0 16 16" fill="none" xmlns="http://www.w3.org/2000/svg">
<g clip-path="url(#clip0_7_7952)">
<path d="M8 16C12.4183 16 16 12.4183 16 8C16 3.58172 12.4183 0 8 0C3.58172 0 0 3.58172 0 8C0 12.4183 3.58172 16 8 16Z" fill="#E9570F"/>
<path d="M12.07 4.95699L12.8735 4.15999C13.0635 3.97199 13.024 3.62799 12.7865 3.39249C12.549 3.15649 12.2015 3.11799 12.012 3.30649L10.504 4.80149L10.4525 4.85299L9.13852 6.15549C8.70173 5.84053 8.16755 5.69034 7.63062 5.73152C7.09369 5.7727 6.58867 6.0026 6.20502 6.38049C5.82452 6.75741 5.59224 7.25857 5.55057 7.79253C5.5089 8.32648 5.66061 8.85761 5.97802 9.28899L4.97502 10.284C4.71486 9.93731 4.51397 9.54989 4.38052 9.13749C4.04402 8.11849 4.13452 7.00249 4.68052 6.08249C5.53202 4.64749 7.05552 4.02349 8.49952 4.20649C8.57223 4.21669 8.64627 4.2118 8.71702 4.19215C8.78777 4.17249 8.85371 4.13848 8.91074 4.09223C8.96778 4.04598 9.01468 3.98849 9.04853 3.92333C9.08239 3.85818 9.10246 3.78675 9.10752 3.71349C9.11699 3.54542 9.06125 3.38017 8.95189 3.25219C8.84254 3.12421 8.68801 3.04336 8.52052 3.02649C7.07002 2.87799 5.57052 3.35149 4.46302 4.44949C2.62802 6.26849 2.52052 9.15399 4.13302 11.1185L3.21302 12.031C3.03152 12.211 3.07652 12.5485 3.31452 12.784C3.55202 13.0195 3.89202 13.065 4.07352 12.885L5.06402 11.903L5.78052 11.193L5.78202 11.191L6.94302 10.04C7.35585 10.2082 7.80894 10.2515 8.24618 10.1648C8.68343 10.0781 9.08564 9.86501 9.40302 9.55199C9.7181 9.24026 9.93322 8.84175 10.0209 8.40728C10.1086 7.97281 10.065 7.52206 9.89552 7.11249L11.2125 5.80699C12.178 7.26099 11.9865 9.27399 10.6575 10.591C10.2579 10.9891 9.77746 11.2969 9.24871 11.4934C8.71996 11.69 8.15518 11.7709 7.59252 11.7305C7.46585 11.7232 7.34131 11.7655 7.24521 11.8483C7.14912 11.9312 7.08899 12.0481 7.07752 12.1745L7.06352 12.3345C7.05723 12.4045 7.06522 12.475 7.087 12.5418C7.10878 12.6086 7.1439 12.6703 7.19023 12.7231C7.23656 12.776 7.29314 12.8188 7.35653 12.8492C7.41992 12.8795 7.48881 12.8966 7.55902 12.8995C8.28028 12.9382 9.00163 12.8248 9.67626 12.5668C10.3509 12.3087 10.9637 11.9117 11.475 11.4015C13.2735 9.61799 13.4815 6.87149 12.07 4.95699ZM8.56952 8.72449C8.36559 8.92542 8.0908 9.03804 7.80452 9.03804C7.51824 9.03804 7.24345 8.92542 7.03952 8.72449C6.93937 8.62525 6.85987 8.50714 6.80561 8.37699C6.75136 8.24685 6.72343 8.10724 6.72343 7.96624C6.72343 7.82524 6.75136 7.68564 6.80561 7.5555C6.85987 7.42535 6.93937 7.30724 7.03952 7.20799C7.24338 7.00695 7.5182 6.89424 7.80452 6.89424C8.09084 6.89424 8.36565 7.00695 8.56952 7.20799C8.66967 7.30724 8.74917 7.42535 8.80342 7.5555C8.85768 7.68564 8.88561 7.82524 8.88561 7.96624C8.88561 8.10724 8.85768 8.24685 8.80342 8.37699C8.74917 8.50714 8.66967 8.62525 8.56952 8.72449Z" fill="white"/>
</g>
<defs>
<clipPath id="clip0_7_7952">
<rect width="16" height="16" fill="white"/>
</clipPath>
</defs>
</svg>
