<svg width="16" height="16" viewBox="0 0 16 16" fill="none" xmlns="http://www.w3.org/2000/svg">
<g clip-path="url(#clip0_7_7949)">
<path d="M8 16C12.4183 16 16 12.4183 16 8C16 3.58172 12.4183 0 8 0C3.58172 0 0 3.58172 0 8C0 12.4183 3.58172 16 8 16Z" fill="#5BC1D4"/>
<path fill-rule="evenodd" clip-rule="evenodd" d="M6.8925 8.46399L6.0675 9.32599C5.919 9.48099 5.7735 9.63749 5.6245 9.79149C5.5995 9.81749 5.564 9.83299 5.5335 9.85349C5.4685 9.84299 5.4185 9.80249 5.41 9.74349C5.39619 9.6537 5.38386 9.56369 5.373 9.47349C5.358 9.35449 5.3215 9.32149 5.201 9.30649C4.9525 9.27649 4.7045 9.24399 4.456 9.21149L3.889 9.13799C3.776 9.12299 3.735 9.04199 3.794 8.94549C3.93 8.72649 4.067 8.50849 4.2035 8.29049L5.0385 6.95649C5.0715 6.90249 5.1085 6.86549 5.1795 6.86749C5.2245 6.86849 5.2715 6.85749 5.316 6.84599C5.369 6.83299 5.4105 6.84899 5.4475 6.88399C5.513 6.94549 5.5795 7.00649 5.6445 7.06849L6.3985 7.78399C6.561 7.93799 6.725 8.09099 6.8875 8.24499C6.9715 8.32399 6.9715 8.38099 6.8925 8.46399ZM12.4375 9.62349C12.4845 9.66249 12.5355 9.69949 12.5455 9.76599C12.558 9.85099 12.524 9.91249 12.452 9.95899C12.027 10.234 11.602 10.5105 11.177 10.786L10.3555 11.3185C10.3296 11.3349 10.3049 11.3531 10.2815 11.373C10.2608 11.39 10.2444 11.4116 10.2335 11.4361C10.2227 11.4606 10.2177 11.4872 10.219 11.514C10.223 11.6165 10.229 11.719 10.2305 11.821C10.232 11.9385 10.1455 12.012 10.0275 11.9985C9.98499 11.9929 9.94638 11.9708 9.92 11.937C9.82117 11.823 9.72251 11.7088 9.624 11.5945C9.5005 11.4515 9.3775 11.3075 9.2535 11.165C9.22796 11.1395 9.2086 11.1085 9.1969 11.0743C9.1852 11.0402 9.18147 11.0038 9.186 10.968L9.203 10.3705C9.205 10.3005 9.2465 10.2555 9.3025 10.2195L9.9815 9.78549C10.3615 9.54299 10.7425 9.30149 11.1215 9.05649C11.2015 9.00499 11.276 8.98949 11.364 9.03449C11.429 9.06749 11.5025 9.07349 11.573 9.05149C11.6785 9.01799 11.7595 9.04749 11.841 9.11949C12.036 9.29149 12.238 9.45549 12.4375 9.62349ZM8.7885 10.1195C8.81936 10.1496 8.84133 10.1877 8.852 10.2295C8.8705 10.323 8.8335 10.3865 8.7455 10.429C8.453 10.57 8.161 10.7125 7.866 10.849C7.813 10.873 7.7465 10.876 7.686 10.879C7.4415 10.89 7.197 10.8965 6.9525 10.9065C6.808 10.912 6.664 10.921 6.531 10.928H6.433C6.41083 10.9285 6.38878 10.9246 6.36816 10.9165C6.34755 10.9083 6.32878 10.8961 6.313 10.8805C6.282 10.852 6.25 10.8245 6.2195 10.7955C6.0475 10.632 5.8785 10.4655 5.703 10.3055C5.605 10.2165 5.6035 10.097 5.697 10.0015C5.9075 9.78449 6.1155 9.56549 6.3245 9.34649C6.55 9.11049 6.7755 8.87349 7.0005 8.63649C7.01757 8.6164 7.03857 8.60003 7.06222 8.58837C7.08586 8.57671 7.11164 8.57001 7.13797 8.5687C7.1643 8.56739 7.19062 8.57149 7.2153 8.58074C7.23999 8.58999 7.26252 8.6042 7.2815 8.62249L8.1815 9.51699C8.3835 9.71799 8.5875 9.91699 8.7885 10.1195ZM10.0275 6.09499C9.931 5.94599 10.04 5.73999 10.2005 5.71349C10.6295 5.64199 11.057 5.55999 11.4855 5.48549C11.58 5.46899 11.655 5.51249 11.707 5.59049C11.797 5.72549 11.8855 5.86099 11.9745 5.99649C12.1625 6.28149 12.351 6.56649 12.537 6.85249C12.562 6.89099 12.5745 6.93749 12.593 6.97999L12.582 6.98499C12.5789 7.05799 12.5519 7.12794 12.505 7.18399C12.243 7.53599 11.978 7.88649 11.7165 8.23899C11.6918 8.27027 11.6599 8.29506 11.6235 8.31121C11.5871 8.32736 11.5472 8.33438 11.5075 8.33167C11.4677 8.32897 11.4293 8.3166 11.3954 8.29566C11.3615 8.27472 11.3332 8.24583 11.313 8.21149C10.9305 7.57649 10.544 6.94349 10.159 6.30999C10.1155 6.23799 10.073 6.16499 10.0275 6.09499ZM9.275 7.86099L9.2 8.52849C9.179 8.71349 9.1565 8.89749 9.1355 9.08249L9.0615 9.73249C9.0565 9.77799 9.056 9.82449 9.0465 9.86849C9.0415 9.88999 9.0255 9.91749 9.0075 9.92449C8.9895 9.93149 8.9575 9.92149 8.9415 9.90799C8.8705 9.84649 8.803 9.78149 8.735 9.71699C8.49 9.48499 8.2465 9.25249 8.0015 9.02149C7.7885 8.81999 7.575 8.61999 7.361 8.41999C7.29 8.35399 7.2895 8.33299 7.358 8.26149L8.337 7.23649L9.0055 6.53449L9.3335 6.18949C9.343 6.17949 9.351 6.16599 9.3625 6.16199C9.386 6.15349 9.415 6.14199 9.4355 6.14849C9.4525 6.15449 9.4605 6.18499 9.4655 6.19349L9.4155 6.63349L9.351 7.19899L9.275 7.86099ZM11.178 8.37099C11.21 8.42249 11.215 8.47149 11.18 8.52499C11.1418 8.58501 11.1256 8.65637 11.134 8.72699C11.14 8.78999 11.114 8.82849 11.0605 8.86199C10.642 9.12749 10.2255 9.39499 9.8085 9.66199C9.6775 9.74599 9.5465 9.82949 9.415 9.91249C9.363 9.94549 9.3095 9.94299 9.281 9.90099C9.265 9.87799 9.263 9.84599 9.2585 9.82999L9.3135 9.42599L9.436 8.53499L9.571 7.55999L9.7025 6.60649L9.7525 6.25149C9.7535 6.24199 9.754 6.23099 9.759 6.22399C9.772 6.20749 9.7865 6.18299 9.803 6.17999C9.821 6.17699 9.849 6.19099 9.8605 6.20649C9.891 6.24749 9.9155 6.29299 9.9425 6.33699L10.92 7.94499C11.006 8.08699 11.091 8.22949 11.178 8.37049V8.37099ZM9.1515 5.91899C9.167 5.92899 9.197 5.93949 9.213 5.96099C9.2375 5.99399 9.216 6.02499 9.1905 6.05149L8.8505 6.40899L7.8595 7.44599C7.6525 7.66349 7.4465 7.88199 7.2395 8.09899C7.1645 8.17699 7.1045 8.17699 7.0265 8.10299C6.785 7.87399 6.5435 7.64399 6.3015 7.41549C6.0665 7.19349 5.8305 6.97199 5.5945 6.75049C5.563 6.72049 5.538 6.68799 5.5415 6.64199C5.5465 6.57949 5.5825 6.54399 5.654 6.53199C5.7845 6.50849 5.9155 6.48549 6.0465 6.46299L7.304 6.24299L8.789 5.98249L9.1515 5.91899ZM5.782 6.23499C6.015 6.07549 6.248 5.91699 6.4815 5.75849L8.7365 4.22249C8.8115 4.17149 8.859 4.18199 8.8965 4.26299C9.052 4.59599 9.2065 4.92949 9.3615 5.26299C9.3815 5.30599 9.4005 5.34949 9.421 5.39299C9.4375 5.42799 9.4265 5.45649 9.4055 5.48799C9.37819 5.5266 9.35506 5.568 9.3365 5.61149C9.32 5.65299 9.295 5.67549 9.25 5.68349C8.918 5.74249 8.5865 5.80349 8.255 5.86249L7.078 6.07399L5.793 6.30499C5.775 6.30799 5.7565 6.30499 5.738 6.30499L5.727 6.28449C5.7455 6.26799 5.762 6.24899 5.782 6.23499ZM3.437 6.99799C3.29 6.99499 3.2025 6.85199 3.273 6.72049C3.3325 6.60949 3.3985 6.50249 3.4625 6.39399C3.6465 6.07949 3.8315 5.76599 4.0145 5.45149C4.04436 5.40014 4.08755 5.35781 4.1395 5.32899C4.6275 5.04849 5.1145 4.76649 5.6025 4.48549C5.63348 4.46654 5.66747 4.45301 5.703 4.44549C5.73631 4.43892 5.77082 4.44223 5.80227 4.45502C5.83372 4.46782 5.86074 4.48953 5.88 4.51749C5.9013 4.54481 5.91424 4.57772 5.91726 4.61223C5.92027 4.64674 5.91324 4.68139 5.897 4.71199C5.8235 4.86899 5.747 5.02449 5.672 5.18049C5.532 5.46649 5.392 5.75199 5.2535 6.03849C5.24038 6.07016 5.21995 6.09827 5.19388 6.12051C5.16781 6.14276 5.13683 6.15852 5.1035 6.16649C5.04148 6.18128 4.98474 6.21292 4.93957 6.25792C4.89439 6.30292 4.86253 6.35953 4.8475 6.42149C4.83991 6.45209 4.82441 6.48016 4.80256 6.50288C4.78071 6.52561 4.75328 6.5422 4.723 6.55099C4.322 6.69199 3.9215 6.83599 3.521 6.97849C3.494 6.98849 3.4655 6.99149 3.4375 6.99849L3.437 6.99799ZM5.5135 6.08499C5.51549 6.06413 5.52125 6.0438 5.5305 6.02499L6.0545 4.87649C6.1635 4.63749 6.274 4.39899 6.3815 4.15949C6.4065 4.10449 6.443 4.07699 6.505 4.07449C6.6685 4.06949 6.832 4.06099 6.9955 4.05449L7.9605 4.01799C8.0735 4.01299 8.187 4.00549 8.3005 3.99999C8.3815 3.99649 8.437 4.04549 8.4375 4.12499C8.441 4.17349 8.41 4.20499 8.37 4.23249L8.061 4.44299L6.214 5.69949L5.624 6.10149C5.61024 6.1119 5.59551 6.12094 5.58 6.12849C5.545 6.14349 5.5115 6.12249 5.5135 6.08499ZM4.832 6.90999C4.7505 7.04149 4.668 7.17199 4.586 7.30299C4.2795 7.79299 3.973 8.28349 3.666 8.77299C3.65334 8.79645 3.63638 8.81731 3.616 8.83449C3.563 8.87249 3.4925 8.84599 3.4675 8.77949C3.4275 8.67249 3.3895 8.56449 3.351 8.45699L3.0165 7.51599C3.0085 7.49249 3.003 7.46849 3 7.45699C3.0005 7.39349 3.0215 7.36649 3.081 7.34699C3.259 7.28949 3.437 7.23299 3.615 7.17649L4.6225 6.85649L4.755 6.81549C4.7865 6.80549 4.818 6.79199 4.844 6.82699C4.8675 6.85849 4.848 6.88449 4.832 6.90999ZM12.891 8.21449L12.992 8.79249C12.995 8.81099 12.997 8.82999 13 8.85449C12.995 8.87949 12.9895 8.90949 12.9815 8.93849L12.849 9.41649C12.811 9.55399 12.702 9.58649 12.592 9.49349C12.3665 9.30349 12.14 9.11349 11.9135 8.92449C11.862 8.88149 11.8405 8.83199 11.8525 8.76399C11.8672 8.69629 11.8591 8.62563 11.8295 8.56299C11.7985 8.50149 11.8085 8.44699 11.849 8.39299C12.034 8.14499 12.2175 7.89599 12.402 7.64799L12.5145 7.49599C12.552 7.44449 12.6015 7.41949 12.6645 7.43349C12.7305 7.44849 12.7645 7.49349 12.7755 7.55799L12.891 8.21449ZM9.109 4.24249L9.099 4.22149C9.0855 4.19149 9.08 4.15649 9.1105 4.13949C9.13727 4.12749 9.16751 4.12571 9.1955 4.13449C9.2395 4.14799 9.279 4.17299 9.3205 4.19349L11.0015 5.03299L11.3 5.18299C11.3335 5.19949 11.36 5.21899 11.353 5.26099C11.346 5.30249 11.3145 5.31149 11.278 5.31799C10.874 5.38999 10.4705 5.46299 10.067 5.53549L10.0275 5.54349C10.016 5.53599 9.994 5.52749 9.98 5.51149C9.94405 5.46628 9.89878 5.42934 9.84727 5.40319C9.79576 5.37705 9.73922 5.36232 9.6815 5.35999C9.6365 5.35799 9.6135 5.33149 9.5965 5.29399C9.5255 5.13999 9.453 4.98699 9.3815 4.83349L9.109 4.24249Z" fill="white"/>
</g>
<defs>
<clipPath id="clip0_7_7949">
<rect width="16" height="16" fill="white"/>
</clipPath>
</defs>
</svg>
