<svg width="16" height="16" viewBox="0 0 16 16" fill="none" xmlns="http://www.w3.org/2000/svg">
<g clip-path="url(#clip0_7_7943)">
<path d="M8 16C12.4183 16 16 12.4183 16 8C16 3.58172 12.4183 0 8 0C3.58172 0 0 3.58172 0 8C0 12.4183 3.58172 16 8 16Z" fill="#136485"/>
<path fill-rule="evenodd" clip-rule="evenodd" d="M5.21802 15.503C4.17041 15.1138 3.21592 14.5095 2.41602 13.729L2.48952 13.6005C3.68352 11.714 4.75602 9.7615 5.56352 7.6755C6.42002 5.463 7.10552 3.192 7.75852 0.912C7.81702 0.7085 7.88652 0.5085 7.95052 0.307C8.01952 0.386 8.04452 0.4595 8.06552 0.534C8.47552 1.997 8.87202 3.464 9.29752 4.922C10.0725 7.5785 11.1625 10.0985 12.606 12.4605C12.7745 12.7355 13.061 13.1965 13.466 13.8415C12.6039 14.6496 11.5733 15.2565 10.4485 15.6185C9.61952 13.0886 8.78586 10.5603 7.94752 8.0335L7.87052 8.0325C7.28752 9.671 6.40352 12.161 5.21802 15.503ZM8.03752 0.0245H7.97552L8.00002 0L8.03752 0.0245Z" fill="white"/>
</g>
<defs>
<clipPath id="clip0_7_7943">
<rect width="16" height="16" fill="white"/>
</clipPath>
</defs>
</svg>
