<svg width="16" height="16" viewBox="0 0 16 16" fill="none" xmlns="http://www.w3.org/2000/svg">
<g clip-path="url(#clip0_7_7941)">
<path d="M8 16C12.4183 16 16 12.4183 16 8C16 3.58172 12.4183 0 8 0C3.58172 0 0 3.58172 0 8C0 12.4183 3.58172 16 8 16Z" fill="#2ED6A1"/>
<path d="M7.42812 8.81H9.63812C9.83425 8.80941 10.0283 8.77019 10.2093 8.69459C10.3903 8.61899 10.5546 8.50849 10.6929 8.36938C10.8311 8.23028 10.9406 8.06531 11.0152 7.88388C11.0897 7.70245 11.1277 7.50813 11.1271 7.312C11.1282 6.91598 10.9719 6.53576 10.6927 6.25494C10.4135 5.97412 10.0341 5.81569 9.63812 5.8145H8.93512L7.42812 4.5H9.63812C10.2881 4.50155 10.9174 4.72913 11.418 5.14374C11.9186 5.55834 12.2595 6.13416 12.3821 6.7725C12.5073 7.41121 12.4075 8.07357 12.0994 8.64695C11.7914 9.22032 11.2943 9.66929 10.6926 9.9175L12.4351 11.4385H10.4396L7.42812 8.8095V8.81ZM8.50662 7.13H6.29662C5.90069 7.13119 5.52144 7.28955 5.24222 7.57026C4.96301 7.85098 4.80669 8.23107 4.80762 8.627C4.80656 9.02301 4.96282 9.40324 5.24205 9.68406C5.52128 9.96488 5.9006 10.1233 6.29662 10.1245H7.00012L8.50612 11.4395H6.29662C5.6466 11.4379 5.01736 11.2104 4.51673 10.7958C4.01611 10.3812 3.67526 9.80534 3.55262 9.167C3.42739 8.52829 3.52728 7.86593 3.83529 7.29255C4.14331 6.71918 4.64044 6.27021 5.24212 6.022L3.50112 4.5H5.49662L8.50662 7.13Z" fill="white"/>
</g>
<defs>
<clipPath id="clip0_7_7941">
<rect width="16" height="16" fill="white"/>
</clipPath>
</defs>
</svg>
