<svg width="16" height="16" viewBox="0 0 16 16" fill="none" xmlns="http://www.w3.org/2000/svg">
<g clip-path="url(#clip0_7_8033)">
<path d="M8 16C12.4183 16 16 12.4183 16 8C16 3.58172 12.4183 0 8 0C3.58172 0 0 3.58172 0 8C0 12.4183 3.58172 16 8 16Z" fill="#939393"/>
<path fill-rule="evenodd" clip-rule="evenodd" d="M6.8535 9.93C7.036 9.8115 8.2625 9.06 9.4575 8.328C10.319 7.801 10.319 7.801 10.304 7.7495C10.289 7.687 4.954 4.445 4.8995 4.4125C4.79816 4.35265 4.69782 4.29115 4.5985 4.228C4.6965 4.16 4.887 4.03 5.115 3.875L5.67 3.5L6.051 3.728C6.521 4.009 11.681 7.174 12.404 7.6245C12.109 7.802 11.064 8.4205 9.659 9.248L6.8675 10.893C6.86241 10.7474 6.85908 10.6017 6.8575 10.456C6.85435 10.2809 6.85318 10.1057 6.854 9.9305L6.8535 9.93ZM5.6695 6.782C5.762 6.837 5.922 6.9335 6.119 7.056L6.6335 7.375L6.6445 8.34C6.677 11.1285 6.677 11.1285 6.7175 11.157L6.7445 11.1755L6.7745 11.1645C6.7895 11.16 6.795 11.158 12.21 7.9635L12.5 7.7925L12.4045 9.134L12.3695 9.154C10.1399 10.4347 7.90843 11.712 5.675 12.986C5.673 12.6365 5.67 11.4435 5.6695 9.888V6.782ZM4.5 12.4L4.5125 4.4165L4.7065 4.531C4.8625 4.622 5.9145 5.2635 7.103 5.9905C7.95405 6.51227 8.80638 7.03194 9.66 7.5495L10.0175 7.7645L8.8355 8.4875L8.5995 8.35C8.12613 8.06413 7.65445 7.77546 7.1845 7.484C6.72625 7.19982 6.26624 6.91848 5.8045 6.64L5.4785 6.45L5.476 9.8345C5.475 11.3615 5.4735 12.6305 5.4725 13.0005C5.376 12.942 5.2115 12.8405 5.0185 12.7205L4.5 12.4Z" fill="white"/>
</g>
<defs>
<clipPath id="clip0_7_8033">
<rect width="16" height="16" fill="white"/>
</clipPath>
</defs>
</svg>
