<svg width="16" height="16" viewBox="0 0 16 16" fill="none" xmlns="http://www.w3.org/2000/svg">
<g clip-path="url(#clip0_7_7742)">
<path d="M8 16C12.4183 16 16 12.4183 16 8C16 3.58172 12.4183 0 8 0C3.58172 0 0 3.58172 0 8C0 12.4183 3.58172 16 8 16Z" fill="#666666"/>
<path fill-rule="evenodd" clip-rule="evenodd" d="M12.5412 10.575C12.4383 10.7467 12.2723 10.8713 12.0787 10.9223C11.8851 10.9732 11.6793 10.9464 11.5052 10.8475L9.11568 9.4925V8.6325L9.87468 8.2025L12.2637 9.557C12.6267 9.7625 12.7507 10.219 12.5412 10.575ZM8.75868 12.4045C8.75868 12.816 8.41918 13.1495 8.00018 13.1495C7.58118 13.1495 7.24168 12.816 7.24168 12.4045V9.695L8.00018 9.265L8.75868 9.695V12.4045ZM4.49518 10.8475C4.32105 10.9463 4.11517 10.9731 3.92156 10.9221C3.72796 10.871 3.562 10.7463 3.45918 10.5745C3.40955 10.4897 3.37733 10.3959 3.36443 10.2985C3.35153 10.2012 3.3582 10.1022 3.38404 10.0074C3.40989 9.91265 3.45439 9.824 3.51495 9.74665C3.5755 9.66931 3.65088 9.60483 3.73668 9.557L6.12568 8.202L6.88468 8.6325V9.4925L4.49518 10.8475ZM3.73668 6.443C3.65088 6.39517 3.5755 6.33069 3.51495 6.25335C3.45439 6.176 3.40989 6.08735 3.38404 5.99258C3.3582 5.89782 3.35153 5.79884 3.36443 5.70147C3.37733 5.60409 3.40955 5.51027 3.45918 5.4255C3.562 5.25371 3.72796 5.12896 3.92156 5.07794C4.11517 5.02693 4.32105 5.05369 4.49518 5.1525L6.88468 6.5075V7.3675L6.12568 7.7975L3.73668 6.443ZM7.24168 3.5955C7.24168 3.184 7.58168 2.8505 8.00018 2.8505C8.41918 2.8505 8.75868 3.184 8.75868 3.5955V6.3045L8.00018 6.735L7.24168 6.305V3.5955ZM9.11568 7.7725L9.51768 8L9.11568 8.2275V7.7725ZM8.35718 6.9375L8.75868 6.7095V7.165L8.35718 6.9375ZM7.24168 7.165V6.71L7.64318 6.9375L7.24168 7.165ZM6.88468 8.2275L6.48268 8L6.88468 7.7725V8.2275ZM7.64318 9.0625L7.24168 9.2905V8.835L7.64318 9.0625ZM8.75868 8.835V9.29L8.35718 9.0625L8.75868 8.835ZM8.00018 8.86L7.24168 8.43V7.57L8.00018 7.14L8.75868 7.57V8.43L8.00018 8.86ZM11.5052 5.1525C11.6793 5.05369 11.8852 5.02693 12.0788 5.07794C12.2724 5.12896 12.4384 5.25371 12.5412 5.4255C12.7512 5.7815 12.6262 6.2375 12.2637 6.443L9.87468 7.798L9.11568 7.3675V6.5075L11.5052 5.1525ZM12.4422 9.2535L10.2317 8L12.4422 6.7465C12.5684 6.67623 12.6794 6.58144 12.7685 6.4677C12.8576 6.35397 12.9232 6.22357 12.9612 6.08418C12.9993 5.94478 13.0091 5.79918 12.9901 5.65594C12.9711 5.51269 12.9237 5.37468 12.8507 5.25C12.5427 4.726 11.8602 4.5465 11.3267 4.849L9.11568 6.1025V3.595C9.11568 2.9905 8.61618 2.5 8.00018 2.5C7.38418 2.5 6.88468 2.9905 6.88468 3.5955V6.1025L4.67368 4.849C4.14018 4.5465 3.45768 4.726 3.15018 5.25C3.07714 5.37468 3.02974 5.51269 3.01075 5.65594C2.99177 5.79918 3.0016 5.94478 3.03965 6.08418C3.0777 6.22357 3.14321 6.35397 3.23234 6.4677C3.32147 6.58144 3.43242 6.67623 3.55868 6.7465L5.76868 8L3.55868 9.2535C3.43238 9.32373 3.32138 9.41849 3.2322 9.5322C3.14302 9.64592 3.07746 9.77631 3.03936 9.91571C3.00126 10.0551 2.9914 10.2007 3.01034 10.344C3.02928 10.4873 3.07666 10.6253 3.14968 10.75C3.45768 11.274 4.14018 11.4535 4.67368 11.151L6.88468 9.8975V12.4045C6.88468 13.0095 7.38418 13.5 8.00018 13.5C8.61618 13.5 9.11568 13.0095 9.11568 12.4045V9.8975L11.3267 11.151C11.8602 11.4535 12.5427 11.274 12.8507 10.75C12.9237 10.6253 12.9711 10.4873 12.9901 10.3441C13.0091 10.2008 12.9993 10.0552 12.9612 9.91582C12.9232 9.77643 12.8576 9.64603 12.7685 9.5323C12.6794 9.41856 12.5684 9.32377 12.4422 9.2535Z" fill="white"/>
</g>
<defs>
<clipPath id="clip0_7_7742">
<rect width="16" height="16" fill="white"/>
</clipPath>
</defs>
</svg>
