<svg width="16" height="16" viewBox="0 0 16 16" fill="none" xmlns="http://www.w3.org/2000/svg">
<g clip-path="url(#clip0_7_7939)">
<path d="M8 16C12.4183 16 16 12.4183 16 8C16 3.58172 12.4183 0 8 0C3.58172 0 0 3.58172 0 8C0 12.4183 3.58172 16 8 16Z" fill="#FEC907"/>
<path d="M6.0805 11.408C6.3895 11.408 6.6405 11.653 6.6405 11.954C6.6405 12.2555 6.3895 12.5 6.0805 12.5H5.354C5.194 12.5 5.04 12.438 4.927 12.3275C4.87116 12.2734 4.82672 12.2087 4.79632 12.1372C4.76592 12.0656 4.75017 11.9887 4.75 11.911V4.0745C4.75 3.922 4.812 3.776 4.9225 3.668C5.0325 3.5605 5.1825 3.5 5.339 3.5H6.1175C6.4265 3.5 6.6775 3.7445 6.6775 4.046C6.6775 4.191 6.618 4.3295 6.513 4.432C6.408 4.534 6.2655 4.592 6.1175 4.592H5.945V11.408H6.0805ZM12.1655 5.682C12.555 6.351 12.75 7.0995 12.75 7.9275C12.75 8.7555 12.5525 9.504 12.159 10.1735C11.7655 10.843 11.328 11.356 10.6095 11.8205C9.9495 12.2475 9.2605 12.4995 8.406 12.4995H8.1225C7.8135 12.4995 7.5625 12.255 7.5625 11.9535C7.5625 11.652 7.8135 11.408 8.1225 11.408H8.4675C9.0725 11.408 9.512 11.1575 10.0055 10.873C10.4985 10.589 10.8145 10.1235 11.1005 9.6215C11.387 9.12 11.5305 8.5595 11.5305 7.9405C11.53 7.313 11.385 6.7485 11.0945 6.2465C10.8116 5.75207 10.4014 5.34253 9.9065 5.0605C9.4045 4.772 8.8465 4.6275 8.233 4.6275H8.0845C7.7755 4.6275 7.5245 4.3835 7.5245 4.082C7.5245 3.937 7.584 3.798 7.689 3.696C7.794 3.5935 7.936 3.536 8.0845 3.536H8.259C9.105 3.536 9.87 3.726 10.554 4.107C11.2251 4.47475 11.7825 5.01951 12.1655 5.682Z" fill="white"/>
</g>
<defs>
<clipPath id="clip0_7_7939">
<rect width="16" height="16" fill="white"/>
</clipPath>
</defs>
</svg>
