<svg width="16" height="16" viewBox="0 0 16 16" fill="none" xmlns="http://www.w3.org/2000/svg">
<g clip-path="url(#clip0_7_8029)">
<path d="M8 16C12.4183 16 16 12.4183 16 8C16 3.58172 12.4183 0 8 0C3.58172 0 0 3.58172 0 8C0 12.4183 3.58172 16 8 16Z" fill="#006AD2"/>
<path fill-rule="evenodd" clip-rule="evenodd" d="M6.184 12.5L6.4235 11.859L5.9985 11.901L5.8455 12.306C5.8335 12.3365 5.8235 12.3685 5.808 12.3975C5.7745 12.46 5.723 12.499 5.6515 12.4995C5.3365 12.5 5.0225 12.4995 4.7075 12.499C4.7 12.499 4.6925 12.4945 4.676 12.4895L4.877 11.947C4.5105 11.937 4.154 11.931 3.799 11.8905C3.805 11.824 5.83 6.71801 5.9105 6.56451C5.9305 6.56301 5.954 6.55951 5.978 6.55951H7.613C7.6295 6.55951 7.646 6.55951 7.662 6.56051C7.8275 6.57301 7.9195 6.71301 7.862 6.87201C7.7855 7.08201 7.7045 7.29101 7.626 7.50001L6.597 10.237C6.5865 10.265 6.5775 10.294 6.5645 10.332C6.5935 10.3335 6.616 10.3365 6.6385 10.3355C8.1865 10.268 9.3225 9.52901 10.0565 8.14051C10.217 7.83704 10.33 7.51074 10.3915 7.17301C10.428 6.97551 10.4395 6.77751 10.39 6.58001C10.3401 6.37163 10.2161 6.18855 10.041 6.06501C9.807 5.89651 9.544 5.82451 9.26 5.82301H3.75C3.762 5.79301 3.7675 5.77301 3.777 5.75501L4.471 4.50451C4.50338 4.43931 4.55394 4.38488 4.61658 4.34779C4.67922 4.3107 4.75126 4.29254 4.824 4.29551H7.757L8.0575 3.50051H8.9485C8.9705 3.50051 8.9925 3.49901 9.0135 3.50201C9.077 3.51201 9.1135 3.56201 9.104 3.62701C9.1 3.65401 9.09 3.68001 9.08 3.70601C9.0185 3.87151 8.9555 4.03651 8.894 4.20201C8.8835 4.23001 8.875 4.25851 8.864 4.29201H9.2665C9.2765 4.27051 9.2865 4.24851 9.2955 4.22601L9.5435 3.56751C9.5685 3.50101 9.5695 3.50051 9.636 3.50051C9.918 3.50051 10.2005 3.49951 10.4825 3.50051C10.6015 3.50101 10.644 3.56401 10.6015 3.67901C10.534 3.86351 10.4645 4.04651 10.3955 4.23001C10.386 4.25551 10.3775 4.28151 10.3655 4.31651C10.393 4.32151 10.4155 4.32651 10.438 4.32951C10.8305 4.37751 11.2125 4.46651 11.575 4.63001C11.8505 4.75451 12.101 4.91701 12.307 5.14501C12.586 5.45251 12.7245 5.82001 12.7465 6.23501C12.7675 6.63751 12.694 7.02551 12.5605 7.40001C12.2445 8.28751 11.7955 9.09401 11.1455 9.77351C10.6975 10.2415 10.1805 10.6135 9.6135 10.9145C9.0015 11.2395 8.3545 11.467 7.6845 11.628C7.6245 11.643 7.593 11.669 7.5725 11.728C7.499 11.933 7.421 12.137 7.344 12.341C7.2965 12.466 7.249 12.5 7.118 12.5H6.184Z" fill="white"/>
</g>
<defs>
<clipPath id="clip0_7_8029">
<rect width="16" height="16" fill="white"/>
</clipPath>
</defs>
</svg>
