<svg width="16" height="16" viewBox="0 0 16 16" fill="none" xmlns="http://www.w3.org/2000/svg">
<g clip-path="url(#clip0_7_7703)">
<path d="M8 16C12.4183 16 16 12.4183 16 8C16 3.58172 12.4183 0 8 0C3.58172 0 0 3.58172 0 8C0 12.4183 3.58172 16 8 16Z" fill="#F4D029"/>
<path fill-rule="evenodd" clip-rule="evenodd" d="M6.25 5.5V7H2.75V5.5H6.25ZM6.75 5.5H7.75V10.5H2.75V7.5H6.75V5.5ZM3.75 8.5V9.5H6.75V8.5H3.75ZM13.25 6.5H9.25V9.5H12.25V8.5H10.25V7.5H13.25V10.5H8.25V5.5H13.25V6.5Z" fill="white"/>
</g>
<defs>
<clipPath id="clip0_7_7703">
<rect width="16" height="16" fill="white"/>
</clipPath>
</defs>
</svg>
