<svg width="16" height="16" viewBox="0 0 16 16" fill="none" xmlns="http://www.w3.org/2000/svg">
<g clip-path="url(#clip0_7_7936)">
<path d="M8 16C12.4183 16 16 12.4183 16 8C16 3.58172 12.4183 0 8 0C3.58172 0 0 3.58172 0 8C0 12.4183 3.58172 16 8 16Z" fill="#F4AE95"/>
<path d="M7.90337 4.47901L4.85637 10.9825H9.91487C10.0614 10.9825 10.1939 11.0725 10.2514 11.21L10.2569 11.2225C10.2757 11.2673 10.2841 11.3158 10.2814 11.3643C10.2787 11.4128 10.265 11.4601 10.2414 11.5025C10.2001 11.5771 10.1396 11.6394 10.0662 11.6829C9.99283 11.7264 9.90918 11.7496 9.82387 11.75H4.44787C4.36468 11.7499 4.28346 11.7246 4.21487 11.6775L4.18687 11.6585C4.10223 11.5994 4.04123 11.5123 4.01469 11.4125C3.98815 11.3128 3.99778 11.2068 4.04187 11.1135L7.63687 3.53901C7.67437 3.46001 7.72787 3.39001 7.79337 3.33401C7.85518 3.2807 7.93385 3.25097 8.01546 3.25005C8.09707 3.24914 8.17638 3.2771 8.23937 3.32901C8.26798 3.35231 8.29104 3.38169 8.30687 3.41501L11.9534 11.041C12.0034 11.1445 12.0134 11.263 11.9824 11.374C11.9662 11.4344 11.9307 11.4879 11.8812 11.5261C11.8316 11.5643 11.7709 11.5852 11.7084 11.5855H11.6664C11.5824 11.585 11.5004 11.5604 11.4301 11.5147C11.3597 11.469 11.3039 11.404 11.2694 11.3275L8.12437 4.48001C8.1149 4.45866 8.0995 4.44049 8.08 4.42763C8.0605 4.41478 8.03772 4.4078 8.01437 4.40751C7.99096 4.40752 7.96805 4.41427 7.94836 4.42694C7.92868 4.43962 7.91306 4.4577 7.90337 4.47901Z" fill="white"/>
</g>
<defs>
<clipPath id="clip0_7_7936">
<rect width="16" height="16" fill="white"/>
</clipPath>
</defs>
</svg>
