<svg width="16" height="16" viewBox="0 0 16 16" fill="none" xmlns="http://www.w3.org/2000/svg">
<g clip-path="url(#clip0_7_7934)">
<path d="M8 16C12.4183 16 16 12.4183 16 8C16 3.58172 12.4183 0 8 0C3.58172 0 0 3.58172 0 8C0 12.4183 3.58172 16 8 16Z" fill="#2C398F"/>
<path d="M12.5377 9.55C12.8009 9.5369 13.052 9.43524 13.2502 9.2615C12.9747 10.6695 12.2047 12.055 10.8832 12.8165C9.87219 13.4055 8.60819 13.6015 7.37919 13.4515C7.19519 12.9205 6.71269 12.355 5.87419 11.928C4.55269 11.247 3.93219 10.0695 3.36919 10.6465C3.31719 10.6965 3.27419 10.755 3.24269 10.8195C3.21753 10.7666 3.19451 10.7127 3.17369 10.658C2.09369 7.98 3.17369 5.29 5.33369 3.3625C6.62069 2.2195 8.12569 2.3465 9.47019 2.97C9.38948 3.03518 9.32473 3.11794 9.28089 3.21196C9.23704 3.30598 9.21525 3.40878 9.21719 3.5125V6.2135C8.65829 5.88802 8.00162 5.77256 7.36522 5.88785C6.72881 6.00315 6.15439 6.34164 5.74519 6.8425C5.33437 7.34443 5.11425 7.97545 5.12377 8.624C5.13328 9.27255 5.37182 9.89684 5.79719 10.3865C6.22109 10.8749 6.80529 11.1962 7.44481 11.2925C8.08432 11.3888 8.73723 11.2539 9.28619 10.912C9.35343 11.0568 9.46823 11.1743 9.61151 11.2448C9.75479 11.3154 9.91789 11.3347 10.0737 11.2996C10.2295 11.2646 10.3686 11.1772 10.4678 11.0521C10.5671 10.927 10.6205 10.7717 10.6192 10.612V3.651C11.6532 4.378 12.4802 5.3015 12.8592 5.9365C13.0442 6.2555 13.1762 6.6025 13.2502 6.964C13.0877 6.844 12.8982 6.764 12.6987 6.733C12.2737 6.71 11.9517 7.2875 12.1702 8.118C12.3542 8.869 12.1242 9.527 12.5377 9.55ZM7.35619 9.596C5.90819 8.765 7.12619 6.6295 8.57419 7.4605C9.01069 7.703 9.05669 8.4765 8.97619 8.9725C8.82669 9.827 8.02269 9.977 7.35619 9.596ZM8.03419 4.078C7.71219 4.0895 7.48269 4.482 7.49419 4.6555C7.50519 4.8285 7.74669 4.9325 8.07969 4.817C8.37869 4.713 8.65469 4.782 8.64269 4.609C8.63119 4.436 8.34419 4.0665 8.03419 4.078Z" fill="white"/>
</g>
<defs>
<clipPath id="clip0_7_7934">
<rect width="16" height="16" fill="white"/>
</clipPath>
</defs>
</svg>
