<svg width="16" height="16" viewBox="0 0 16 16" fill="none" xmlns="http://www.w3.org/2000/svg">
<g clip-path="url(#clip0_7_7932)">
<path d="M8 16C12.4183 16 16 12.4183 16 8C16 3.58172 12.4183 0 8 0C3.58172 0 0 3.58172 0 8C0 12.4183 3.58172 16 8 16Z" fill="#786DBC"/>
<path d="M7.9657 5.38551L7.1512 4.56901C7.04153 4.46412 6.97803 4.31996 6.97465 4.16824C6.97127 4.01652 7.02831 3.86968 7.1332 3.76001C7.23809 3.65034 7.38225 3.58684 7.53397 3.58346C7.68569 3.58009 7.83253 3.63712 7.9422 3.74201L7.9612 3.76101L9.7792 5.57901C10.0027 5.80251 10.0027 6.16401 9.7792 6.38751L7.9592 8.20551C7.85122 8.30854 7.70722 8.36523 7.55798 8.36348C7.40874 8.36173 7.26611 8.30166 7.16058 8.19613C7.05505 8.0906 6.99499 7.94797 6.99323 7.79873C6.99148 7.6495 7.04817 7.50549 7.1512 7.39751L8.0047 6.54401C7.42967 6.44251 6.83733 6.52024 6.30796 6.76668C5.77859 7.01312 5.33778 7.41635 5.04527 7.92172C4.75275 8.42709 4.62268 9.01018 4.67268 9.59196C4.72267 10.1737 4.95031 10.7261 5.32476 11.1741C5.6992 11.6222 6.20234 11.9443 6.76599 12.0968C7.32965 12.2493 7.92656 12.2249 8.47585 12.0268C9.02513 11.8286 9.50023 11.4664 9.83676 10.9892C10.1733 10.512 10.355 9.94293 10.3572 9.35901V3.07101C10.3572 2.91944 10.4174 2.77408 10.5246 2.6669C10.6318 2.55972 10.7771 2.49951 10.9287 2.49951C11.0803 2.49951 11.2256 2.55972 11.3328 2.6669C11.44 2.77408 11.5002 2.91944 11.5002 3.07101V9.43551C11.4842 10.2429 11.2243 11.0266 10.7545 11.6835C10.2846 12.3403 9.62701 12.8396 8.86806 13.1156C8.10912 13.3916 7.28439 13.4314 6.50238 13.2298C5.72038 13.0282 5.01771 12.5946 4.48681 11.9861C3.9559 11.3775 3.62164 10.6225 3.52797 9.8204C3.43431 9.01827 3.58564 8.20658 3.96205 7.49209C4.33846 6.7776 4.92233 6.19377 5.63685 5.81741C6.35137 5.44105 7.16308 5.28979 7.9652 5.38351L7.9657 5.38551Z" fill="white"/>
</g>
<defs>
<clipPath id="clip0_7_7932">
<rect width="16" height="16" fill="white"/>
</clipPath>
</defs>
</svg>
