<svg width="16" height="16" viewBox="0 0 16 16" fill="none" xmlns="http://www.w3.org/2000/svg">
<g clip-path="url(#clip0_7_8011)">
<path d="M8 16C12.4183 16 16 12.4183 16 8C16 3.58172 12.4183 0 8 0C3.58172 0 0 3.58172 0 8C0 12.4183 3.58172 16 8 16Z" fill="#E6007A"/>
<path d="M8.13607 3.3125C6.28257 3.3125 4.76807 4.8185 4.76807 6.6805C4.76807 7.055 4.83007 7.4205 4.94607 7.7765C4.98713 7.89403 5.07269 7.99075 5.18435 8.04582C5.296 8.1009 5.42481 8.10994 5.54307 8.071C5.66051 8.02984 5.7571 7.94423 5.81208 7.83259C5.86706 7.72095 5.87603 7.59219 5.83707 7.474C5.73931 7.19644 5.69404 6.90312 5.70357 6.609C5.73907 5.353 6.75507 4.319 8.01157 4.257C8.3407 4.23971 8.6699 4.28955 8.97916 4.40349C9.28842 4.51743 9.57127 4.6931 9.81051 4.9198C10.0497 5.14649 10.2404 5.41949 10.3708 5.72218C10.5012 6.02487 10.5686 6.35092 10.5691 6.6805C10.5683 7.30033 10.3309 7.89647 9.90519 8.34703C9.47954 8.79759 8.89785 9.06855 8.27907 9.1045C8.27907 9.1045 7.80657 9.131 7.57507 9.167C7.45907 9.1845 7.37007 9.2025 7.30757 9.2115C7.28057 9.2205 7.25407 9.1935 7.26257 9.1665L7.34307 8.775L7.77957 6.761C7.80501 6.64058 7.78188 6.51498 7.71522 6.41152C7.64855 6.30806 7.54374 6.2351 7.42357 6.2085C7.30307 6.18307 7.17742 6.20627 7.07394 6.27303C6.97047 6.3398 6.89755 6.44474 6.87107 6.565C6.87107 6.565 5.81957 11.466 5.81057 11.5195C5.78514 11.64 5.80833 11.7657 5.8751 11.8691C5.94187 11.9726 6.0468 12.0455 6.16707 12.072C6.28756 12.0974 6.41322 12.0742 6.51669 12.0075C6.62017 11.9407 6.69308 11.8358 6.71957 11.7155C6.72807 11.662 6.87107 11.0115 6.87107 11.0115C6.92168 10.773 7.04471 10.556 7.22334 10.39C7.40197 10.2241 7.62749 10.1174 7.86907 10.0845C8.04384 10.0654 8.21906 10.0505 8.39457 10.04C9.24056 9.97407 10.0306 9.5916 10.607 8.9689C11.1835 8.3462 11.504 7.52906 11.5046 6.6805C11.5046 4.8185 9.98957 3.3125 8.13607 3.3125ZM8.37657 11.065C8.30401 11.0494 8.22908 11.0483 8.1561 11.0618C8.08312 11.0753 8.01355 11.1032 7.95142 11.1438C7.88929 11.1844 7.83583 11.2369 7.79414 11.2983C7.75246 11.3597 7.72337 11.4288 7.70857 11.5015C7.64607 11.8045 7.83357 12.1075 8.14507 12.17C8.21769 12.1857 8.29271 12.1868 8.36577 12.1733C8.43884 12.1598 8.50849 12.1319 8.57068 12.0913C8.63287 12.0506 8.68637 11.998 8.72807 11.9365C8.76976 11.875 8.79882 11.8058 8.81357 11.733C8.87557 11.4215 8.68857 11.127 8.37657 11.065Z" fill="white"/>
</g>
<defs>
<clipPath id="clip0_7_8011">
<rect width="16" height="16" fill="white"/>
</clipPath>
</defs>
</svg>
