<svg width="16" height="16" viewBox="0 0 16 16" fill="none" xmlns="http://www.w3.org/2000/svg">
<g clip-path="url(#clip0_7_7927)">
<path d="M8 16C12.4183 16 16 12.4183 16 8C16 3.58172 12.4183 0 8 0C3.58172 0 0 3.58172 0 8C0 12.4183 3.58172 16 8 16Z" fill="#242D3D"/>
<path d="M11.5666 8.73351C11.2911 7.52001 10.4346 6.18201 10.4346 6.18201C11.4216 8.87551 11.0416 10.907 10.7801 12.0595C10.7801 12.0595 10.4351 13.3485 11.1776 12.2745C12.1036 10.9305 11.5666 8.73351 11.5666 8.73351Z" fill="white"/>
<path d="M9.12899 3.95551C9.64249 5.78451 9.87499 7.33701 9.94749 8.63151C10.075 10.8375 9.73849 12.289 9.52949 13.0555C9.46249 13.305 9.74149 13.4905 9.90399 13.302L9.90699 13.299C10.313 12.8345 10.505 11.7465 10.595 10.7915L10.621 10.478C10.705 9.32801 10.656 8.16751 10.386 7.05551C9.88949 5.00351 9.12899 3.95551 9.12899 3.95551ZM8.20899 7.17751C8.08399 4.17351 7.85749 1.50601 7.85749 1.50601C7.85749 1.50601 7.62849 4.04001 7.50349 6.97701C7.48349 7.45351 7.46549 7.93801 7.45099 8.42551C7.43099 9.13401 7.42199 9.84551 7.42199 10.533C7.42499 11.755 7.47199 12.9015 7.58199 13.816C7.62549 14.1785 8.09549 14.1785 8.13899 13.816C8.21449 13.192 8.25799 12.4255 8.27549 11.5835C8.29174 10.6732 8.2879 9.76265 8.26399 8.85251C8.24899 8.29501 8.23199 7.73201 8.20899 7.17751ZM4.69999 10.797C4.63148 10.2309 4.61575 9.65957 4.65299 9.09051C4.68199 8.64351 4.74599 8.16451 4.85649 7.65351C4.95799 7.18601 5.09699 6.69551 5.28599 6.17901C5.28599 6.17901 4.68199 7.12251 4.32799 8.14101C4.25799 8.33601 4.20049 8.53601 4.15649 8.73051C4.15649 8.73051 4.04349 9.24151 4.02649 9.92351C4.01449 10.3965 4.05199 10.9565 4.20299 11.485C4.27931 11.7617 4.39374 12.0264 4.54299 12.2715C4.54299 12.2715 5.28599 13.3775 4.94049 12.0565C4.83301 11.6423 4.753 11.2216 4.69999 10.797Z" fill="white"/>
<path d="M5.75875 10.205C5.73452 9.60694 5.7442 9.00798 5.78775 8.41101C5.81792 7.97026 5.86445 7.53079 5.92725 7.09351C6.05725 6.15301 6.26975 5.11101 6.59225 3.95551C6.59225 3.95551 5.82825 5.00351 5.33225 7.05551C5.30575 7.16551 5.28225 7.27601 5.25925 7.38351C5.16925 7.83051 5.11125 8.28351 5.08225 8.74201C5.04725 9.31701 5.05625 9.89701 5.09725 10.475L5.12325 10.7915C5.21325 11.7465 5.40175 12.8345 5.81075 13.299L5.81375 13.302C5.97625 13.488 6.25775 13.302 6.18875 13.0555C6.03725 12.4895 5.81375 11.549 5.75875 10.205Z" fill="white"/>
<path d="M7.02736 10.318C7.01097 9.65247 7.00797 8.98667 7.01836 8.32101C7.02435 7.88301 7.03586 7.42101 7.05636 6.93651C7.10586 5.68551 7.34086 3.87701 7.50336 2.34451C7.50336 2.34451 6.70236 4.00201 6.33636 6.99201C6.28736 7.40101 6.24086 7.84201 6.20586 8.31851L6.17985 8.67251C6.17985 8.67251 6.13636 9.30501 6.15336 10.1585C6.17686 11.2555 6.29836 12.7185 6.75136 13.6765C6.76636 13.7055 6.78336 13.7315 6.80636 13.7515L6.80936 13.755C6.98086 13.9175 7.24486 13.7635 7.22186 13.511C7.11534 12.4496 7.05029 11.3845 7.02686 10.318H7.02736ZM8.68736 10.318C8.70236 9.72001 8.70785 9.05301 8.69635 8.32101C8.69035 7.88301 8.67885 7.42101 8.65835 6.93651C8.60935 5.68551 8.37436 3.87701 8.21136 2.34451C8.21136 2.34451 9.01286 4.00201 9.37836 6.99201C9.42786 7.40101 9.47435 7.84201 9.50885 8.31851L9.53535 8.67251C9.53535 8.67251 9.57885 9.30501 9.56135 10.1585C9.53785 11.2555 9.41636 12.7185 8.96336 13.6765C8.95005 13.7048 8.93137 13.7303 8.90835 13.7515L8.90536 13.755C8.73386 13.9175 8.47035 13.7635 8.49335 13.511C8.55135 12.9625 8.64986 11.874 8.68736 10.318Z" fill="white"/>
</g>
<defs>
<clipPath id="clip0_7_7927">
<rect width="16" height="16" fill="white"/>
</clipPath>
</defs>
</svg>
