<svg width="16" height="16" viewBox="0 0 16 16" fill="none" xmlns="http://www.w3.org/2000/svg">
<g clip-path="url(#clip0_7_7826)">
<path d="M8 16C12.4183 16 16 12.4183 16 8C16 3.58172 12.4183 0 8 0C3.58172 0 0 3.58172 0 8C0 12.4183 3.58172 16 8 16Z" fill="#74D269"/>
<path d="M12.4815 7.256H12.4915L12.5 9.739L6.9115 13L5.4155 12.159V12.16L5.406 12.154L4 11.2525V4.742L5.5365 3.8355L5.5395 3.837L6.896 3L12.471 6.2815L12.4815 7.256ZM10.844 8.812L9.6745 8.1425L5.771 10.4395L6.917 11.121L10.844 8.812ZM9.411 7.992L7.003 6.613L6.9925 9.4535L9.411 7.992ZM7.004 6.309L10.875 8.5745V7.222L7.009 4.9645L7.004 6.309ZM5.41 11.785L5.425 10.4285L5.416 10.434V5.648L4.2425 4.948V11.088L5.41 11.785ZM5.618 10.2845L6.7905 9.5755V4.948L5.618 5.6485V10.2845ZM7.0585 11.3L7.035 12.718L12.253 9.65L12.268 8.24L7.0585 11.3ZM10.955 7.008L12.1695 6.315L6.942 3.2625L5.739 3.9585L10.955 7.008Z" fill="white"/>
</g>
<defs>
<clipPath id="clip0_7_7826">
<rect width="16" height="16" fill="white"/>
</clipPath>
</defs>
</svg>
