<svg width="16" height="16" viewBox="0 0 16 16" fill="none" xmlns="http://www.w3.org/2000/svg">
<g clip-path="url(#clip0_7_8026)">
<path d="M8 16C12.4183 16 16 12.4183 16 8C16 3.58172 12.4183 0 8 0C3.58172 0 0 3.58172 0 8C0 12.4183 3.58172 16 8 16Z" fill="#3C80F1"/>
<path d="M8.04191 2C5.30691 2.002 3.08991 4.218 3.08691 6.9525C3.08941 7.2195 3.11941 7.4855 3.17591 7.7465C3.17879 7.75885 3.18467 7.7703 3.19304 7.77983C3.20141 7.78935 3.212 7.79667 3.22387 7.80112C3.23574 7.80557 3.24853 7.80703 3.2611 7.80535C3.27367 7.80367 3.28563 7.79891 3.29591 7.7915C3.48521 7.65596 3.7121 7.58289 3.94491 7.5825C3.95616 7.58288 3.96736 7.58075 3.97768 7.57627C3.98801 7.5718 3.99722 7.56508 4.00463 7.55661C4.01205 7.54814 4.01749 7.53813 4.02057 7.52731C4.02364 7.51648 4.02427 7.5051 4.02241 7.494C3.98949 7.31721 3.97242 7.13783 3.97141 6.958C3.97141 6.42352 4.07669 5.89427 4.28122 5.40048C4.48576 4.90668 4.78555 4.45801 5.16349 4.08008C5.54142 3.70214 5.9901 3.40235 6.48389 3.19781C6.97769 2.99327 7.50693 2.888 8.04141 2.888C8.57589 2.888 9.10514 2.99327 9.59894 3.19781C10.0927 3.40235 10.5414 3.70214 10.9193 4.08008C11.2973 4.45801 11.5971 4.90668 11.8016 5.40048C12.0061 5.89427 12.1114 6.42352 12.1114 6.958C12.1114 9.203 9.23941 12.0705 8.21141 13.083C8.16617 13.1274 8.10531 13.1523 8.04191 13.1523C7.97852 13.1523 7.91766 13.1274 7.87241 13.083C7.43721 12.6583 7.01485 12.2206 6.60591 11.7705H6.58591C6.19262 11.7318 5.80651 11.6393 5.43841 11.4955L5.37041 11.468C5.35467 11.4607 5.33691 11.4591 5.32009 11.4633C5.30327 11.4675 5.28841 11.4774 5.27796 11.4912C5.26751 11.5051 5.2621 11.522 5.26264 11.5394C5.26318 11.5567 5.26963 11.5733 5.28091 11.5865C5.91739 12.3471 6.59279 13.0742 7.30441 13.765C7.50136 13.9571 7.76557 14.0646 8.04066 14.0646C8.31576 14.0646 8.57997 13.9571 8.77691 13.765C10.5869 11.977 12.9969 9.332 12.9969 6.9525C12.9939 4.2175 10.7769 2.002 8.04191 2Z" fill="white"/>
<path d="M10.1015 7.45351C10.1015 7.5235 10.096 7.59201 10.0895 7.66001C10.0715 7.92036 10.0112 8.17604 9.91101 8.41701C9.80301 8.657 9.65901 8.87851 9.48451 9.07501L9.48951 9.07951C9.14383 9.46576 8.71696 9.77072 8.23951 9.97251C7.76669 10.1759 7.25074 10.2587 6.73801 10.2135C6.24939 10.1649 5.78238 9.98776 5.38451 9.70001C5.51301 9.696 5.64051 9.67651 5.76451 9.64201C5.87648 9.61102 5.98378 9.56511 6.08351 9.50551C6.29911 9.37679 6.46638 9.18071 6.55951 8.94751C6.60301 8.84101 6.63251 8.73001 6.64851 8.61601C6.65851 8.52101 6.66101 8.42451 6.65751 8.32851V5.08351C6.65728 5.08034 6.65728 5.07717 6.65751 5.07401V5.05701C6.66475 5.01791 6.68418 4.9821 6.71301 4.95471C6.74184 4.92732 6.77859 4.90975 6.81801 4.90451H7.88951C8.14351 4.92451 8.39201 4.99101 8.62201 5.10101C9.10133 5.32763 9.50223 5.69197 9.77351 6.14751C9.83951 6.25951 9.89751 6.37651 9.94601 6.49751C9.99251 6.61751 10.0295 6.74251 10.056 6.86851C10.0825 6.99451 10.0975 7.12251 10.101 7.25101V7.45401L10.1015 7.45351ZM10.9835 7.22051C10.9781 7.04043 10.9565 6.86121 10.919 6.68501C10.8447 6.33648 10.7136 6.00254 10.531 5.69651C10.1691 5.08785 9.63326 4.60147 8.99251 4.30001C8.6651 4.14455 8.31189 4.05066 7.95051 4.02301C7.90501 4.02301 7.86101 4.02301 7.81101 4.01801H6.81201C6.78001 4.01801 6.74701 4.01801 6.71451 4.02501C6.58401 4.04001 6.45701 4.08001 6.34051 4.14201C6.18036 4.22758 6.04458 4.35245 5.94592 4.50489C5.84727 4.65734 5.78897 4.83235 5.77651 5.01351V8.32851C5.77651 8.38651 5.77251 8.44451 5.76451 8.50201C5.75951 8.54101 5.75001 8.57901 5.73601 8.61601C5.72506 8.64353 5.70988 8.66917 5.69101 8.69201C5.64489 8.7415 5.58497 8.77599 5.51901 8.79101C5.42051 8.81601 5.31901 8.82401 5.21751 8.81451C4.85546 8.77906 4.5148 8.62672 4.24701 8.38051C4.1701 8.30937 4.07042 8.26786 3.96575 8.26339C3.86107 8.25892 3.75822 8.29178 3.67552 8.3561C3.59282 8.42042 3.53566 8.51202 3.51423 8.61457C3.4928 8.71712 3.50849 8.82395 3.55851 8.91601C3.87049 9.48586 4.29874 9.98378 4.81551 10.3775C5.08202 10.5763 5.37395 10.7386 5.68351 10.86C5.99422 10.9812 6.32009 11.0593 6.65201 11.092C7.31092 11.153 7.97467 11.0492 8.58351 10.79C9.18994 10.5392 9.72769 10.1471 10.152 9.6465L10.1575 9.65101C10.3916 9.3863 10.5838 9.08734 10.7275 8.7645C10.8637 8.43574 10.9456 8.08703 10.97 7.73201C10.977 7.64301 10.9815 7.56251 10.9845 7.47751V7.35201C10.988 7.31501 10.985 7.26451 10.9845 7.22051H10.9835Z" fill="white"/>
</g>
<defs>
<clipPath id="clip0_7_8026">
<rect width="16" height="16" fill="white"/>
</clipPath>
</defs>
</svg>
