<svg width="16" height="16" viewBox="0 0 16 16" fill="none" xmlns="http://www.w3.org/2000/svg">
<g clip-path="url(#clip0_7_7925)">
<path d="M8 16C12.4183 16 16 12.4183 16 8C16 3.58172 12.4183 0 8 0C3.58172 0 0 3.58172 0 8C0 12.4183 3.58172 16 8 16Z" fill="#121747"/>
<path d="M9.01551 11.435C9.01551 12.0075 8.55551 12.472 7.98751 12.472C7.41951 12.472 6.96001 12.0075 6.96001 11.4345V4.53999C6.96001 3.96749 7.42001 3.50299 7.98751 3.50299C8.55501 3.50299 9.01551 3.96749 9.01551 4.54049V11.435ZM5.55551 11.4375C5.55884 11.6205 5.51363 11.8011 5.42449 11.9609C5.33535 12.1208 5.20545 12.2542 5.04801 12.3475C4.89144 12.44 4.71289 12.4889 4.53101 12.4889C4.34913 12.4889 4.17059 12.44 4.01401 12.3475C3.85667 12.2541 3.72687 12.1207 3.63782 11.9608C3.54877 11.801 3.50363 11.6204 3.50701 11.4375V9.88749C3.50363 9.70455 3.54877 9.52397 3.63782 9.36413C3.72687 9.20429 3.85667 9.07089 4.01401 8.97749C4.17059 8.88494 4.34913 8.83611 4.53101 8.83611C4.71289 8.83611 4.89144 8.88494 5.04801 8.97749C5.20535 9.07089 5.33515 9.20429 5.42421 9.36413C5.51326 9.52397 5.55839 9.70455 5.55501 9.88749L5.55551 11.4375Z" fill="white"/>
<path opacity="0.5" d="M12.4779 8.7C12.4779 9.2725 12.0179 9.737 11.4499 9.737C10.8819 9.737 10.4219 9.272 10.4219 8.6995V6.083C10.4219 5.51 10.8819 5.0455 11.4499 5.0455C12.0179 5.0455 12.4779 5.51 12.4779 6.083V8.7Z" fill="white"/>
</g>
<defs>
<clipPath id="clip0_7_7925">
<rect width="16" height="16" fill="white"/>
</clipPath>
</defs>
</svg>
