<svg width="16" height="16" viewBox="0 0 16 16" fill="none" xmlns="http://www.w3.org/2000/svg">
<g clip-path="url(#clip0_7_7964)">
<path d="M8 16C12.4183 16 16 12.4183 16 8C16 3.58172 12.4183 0 8 0C3.58172 0 0 3.58172 0 8C0 12.4183 3.58172 16 8 16Z" fill="#1693D4"/>
<path fill-rule="evenodd" clip-rule="evenodd" d="M4.964 8.287C4.95111 8.10726 4.95027 7.92686 4.9615 7.747H3.5615L2 6.498H5.247C5.55027 5.75821 6.06702 5.12551 6.73134 4.68061C7.39567 4.23571 8.17746 3.99877 8.977 4C11.199 4 13 5.791 13 8C13 10.209 11.199 12 8.977 12C8.18372 12.0012 7.40779 11.7679 6.74665 11.3296C6.08551 10.8912 5.56865 10.2672 5.261 9.53601H2L3.5615 8.287H4.964ZM11.2685 8.0745C11.2685 7.6595 11.2125 7.2975 11.1 6.9885C10.9875 6.6795 10.8315 6.4205 10.6325 6.2135C10.433 6.006 10.197 5.84951 9.9235 5.74451C9.65 5.63951 9.3535 5.58651 9.032 5.58651C8.685 5.58651 8.362 5.64551 8.063 5.76351C7.764 5.88151 7.5055 6.0475 7.287 6.261C7.0685 6.475 6.897 6.733 6.7715 7.036C6.646 7.339 6.5835 7.676 6.5835 8.046C6.5835 8.422 6.646 8.7585 6.7715 9.05501C6.8965 9.35151 7.07 9.602 7.2915 9.806C7.5135 10.0105 7.7755 10.168 8.0775 10.28C8.3959 10.3945 8.73217 10.4512 9.0705 10.4475C9.938 10.4475 10.6005 10.141 11.0565 9.5285L10.285 8.9165C10.1565 9.1015 9.993 9.2465 9.7935 9.3515C9.5945 9.4565 9.35 9.5095 9.061 9.5095C8.894 9.5095 8.733 9.481 8.579 9.4235C8.425 9.366 8.2865 9.288 8.164 9.189C8.04102 9.0911 7.9398 8.96864 7.8668 8.82944C7.7938 8.69023 7.75061 8.53733 7.74 8.3805H11.259C11.2655 8.3295 11.2685 8.2785 11.2685 8.2275V8.0745ZM10.1115 7.5575H7.74C7.766 7.2325 7.899 6.966 8.14 6.7585C8.3815 6.5515 8.675 6.4475 9.0225 6.4475C9.2085 6.4475 9.371 6.4775 9.509 6.5385C9.647 6.5995 9.7615 6.6805 9.8515 6.7825C9.9415 6.8845 10.007 7.0025 10.049 7.1365C10.0912 7.27283 10.1122 7.41481 10.1115 7.5575Z" fill="white"/>
</g>
<defs>
<clipPath id="clip0_7_7964">
<rect width="16" height="16" fill="white"/>
</clipPath>
</defs>
</svg>
