<svg width="16" height="16" viewBox="0 0 16 16" fill="none" xmlns="http://www.w3.org/2000/svg">
<g clip-path="url(#clip0_7_7923)">
<path d="M8 16C12.4183 16 16 12.4183 16 8C16 3.58172 12.4183 0 8 0C3.58172 0 0 3.58172 0 8C0 12.4183 3.58172 16 8 16Z" fill="#AA15DD"/>
<path d="M7.99951 12.806C8.11951 12.8065 8.21701 12.906 8.21751 13.028C8.21805 13.0863 8.19545 13.1424 8.15467 13.184C8.1139 13.2256 8.05828 13.2493 8.00001 13.25C7.97112 13.2497 7.94257 13.2438 7.91597 13.2325C7.88938 13.2212 7.86528 13.2048 7.84503 13.1842C7.82479 13.1635 7.80881 13.1391 7.79799 13.1123C7.78718 13.0856 7.78175 13.0569 7.78201 13.028C7.78175 12.9991 7.78718 12.9705 7.79799 12.9437C7.80881 12.9169 7.82479 12.8925 7.84503 12.8719C7.86528 12.8512 7.88938 12.8348 7.91597 12.8235C7.94257 12.8122 7.97112 12.8063 8.00001 12.806H7.99951ZM3.60951 5.679C3.559 5.64879 3.52234 5.6 3.50739 5.54308C3.49243 5.48615 3.50037 5.42564 3.52951 5.3745C3.55091 5.33647 3.58322 5.30573 3.62228 5.28626C3.66133 5.2668 3.70533 5.2595 3.74858 5.26532C3.79183 5.27113 3.83234 5.2898 3.86486 5.31889C3.89739 5.34798 3.92043 5.38617 3.93101 5.4285C3.94226 5.47099 3.94082 5.51583 3.92687 5.5575C3.91292 5.59918 3.88707 5.63585 3.85251 5.663C3.81832 5.6898 3.77683 5.70566 3.73348 5.70851C3.69013 5.71137 3.64693 5.70108 3.60951 5.679ZM3.60951 10.326C3.63438 10.3116 3.66187 10.3023 3.69037 10.2986C3.71887 10.2949 3.74783 10.2969 3.77555 10.3044C3.80328 10.312 3.82922 10.325 3.85187 10.3427C3.87453 10.3604 3.89344 10.3824 3.90751 10.4075C3.93645 10.4584 3.94428 10.5187 3.92932 10.5753C3.91437 10.632 3.87782 10.6805 3.82751 10.7105C3.80268 10.725 3.77519 10.7345 3.74665 10.7383C3.71812 10.742 3.68912 10.7401 3.66136 10.7325C3.6336 10.7249 3.60763 10.7118 3.58499 10.694C3.56235 10.6763 3.54349 10.6542 3.52951 10.629C3.50058 10.5781 3.49275 10.5178 3.50771 10.4612C3.52266 10.4045 3.55921 10.356 3.60951 10.326ZM12.3895 5.679C12.3646 5.69341 12.3372 5.70274 12.3087 5.70644C12.2802 5.71014 12.2512 5.70814 12.2235 5.70056C12.1957 5.69298 12.1698 5.67996 12.1472 5.66227C12.1245 5.64458 12.1056 5.62256 12.0915 5.5975C12.0696 5.55928 12.0594 5.51548 12.062 5.47151C12.0647 5.42754 12.0802 5.38531 12.1065 5.35C12.1325 5.315 12.1685 5.28865 12.2097 5.27438C12.2509 5.26011 12.2954 5.25858 12.3375 5.27C12.3798 5.28196 12.4176 5.30609 12.4463 5.3394C12.475 5.3727 12.4932 5.41371 12.4988 5.4573C12.5043 5.5009 12.4969 5.54517 12.4775 5.58459C12.4581 5.62401 12.4275 5.65684 12.3895 5.679ZM8.00001 3.194C7.94228 3.19256 7.88742 3.16847 7.84729 3.12694C7.80716 3.0854 7.78497 3.02975 7.78551 2.972C7.78551 2.882 7.83951 2.8005 7.92101 2.7665C7.96117 2.7498 8.00544 2.74563 8.04801 2.75455C8.09058 2.76348 8.12945 2.78507 8.15951 2.8165C8.18991 2.8482 8.21037 2.88809 8.21836 2.93127C8.22636 2.97445 8.22154 3.01903 8.20451 3.0595C8.1878 3.09981 8.15938 3.13418 8.12292 3.15816C8.08646 3.18214 8.04365 3.19463 8.00001 3.194ZM11.9 10.291C11.847 10.3845 11.829 10.4939 11.8494 10.5995C11.8697 10.705 11.927 10.7999 12.011 10.867L8.43551 12.967C8.42174 12.8612 8.37008 12.7639 8.2901 12.6932C8.21013 12.6225 8.10725 12.5832 8.00051 12.5825C7.89378 12.5832 7.7909 12.6225 7.71093 12.6932C7.63095 12.7639 7.57929 12.8612 7.56551 12.967L3.98901 10.867C4.07271 10.7998 4.12973 10.7049 4.14989 10.5995C4.17004 10.494 4.15201 10.3849 4.09901 10.2915C4.04728 10.1986 3.96334 10.1279 3.86304 10.0926C3.76274 10.0573 3.653 10.06 3.55451 10.1V5.9C3.65289 5.93995 3.76247 5.94259 3.86265 5.90741C3.96283 5.87224 4.04671 5.80168 4.09851 5.709C4.15154 5.61586 4.16974 5.5069 4.14986 5.40158C4.12999 5.29625 4.07334 5.20142 3.99001 5.134L7.56551 3.034C7.57929 3.13985 7.63095 3.23712 7.71093 3.30781C7.7909 3.3785 7.89378 3.41782 8.00051 3.4185C8.10733 3.41781 8.21027 3.37841 8.29025 3.30762C8.37024 3.23683 8.42185 3.13944 8.43551 3.0335L12.012 5.1335C11.9284 5.20072 11.8715 5.29545 11.8513 5.40079C11.8312 5.50612 11.8492 5.61519 11.902 5.7085C11.9538 5.80139 12.0377 5.87214 12.138 5.90741C12.2383 5.94269 12.348 5.94005 12.4465 5.9V10.0975C12.3476 10.0574 12.2374 10.055 12.1368 10.0906C12.0362 10.1263 11.9521 10.1976 11.9005 10.291H11.9ZM8.84401 9.6475C8.45555 9.87588 7.99599 9.95149 7.55484 9.85962C7.11368 9.76775 6.72252 9.51496 6.45751 9.1505L8.81651 7.7685L9.62051 7.2965L10.0015 7.0715L10.0235 7.061L11.6435 6.108C11.7435 6.0495 11.7785 5.9195 11.7215 5.8175C11.7084 5.79302 11.6905 5.77148 11.6688 5.75419C11.6471 5.73691 11.622 5.72424 11.5953 5.71699C11.5685 5.70973 11.5405 5.70802 11.513 5.71198C11.4855 5.71594 11.4592 5.72548 11.4355 5.74L10.2445 6.4425C10.018 6.10376 9.7206 5.81831 9.37284 5.60592C9.02508 5.39353 8.6353 5.2593 8.23051 5.2125V3.848C8.23078 3.81937 8.2254 3.79097 8.21469 3.76442C8.20398 3.73787 8.18814 3.71369 8.16808 3.69326C8.14802 3.67284 8.12414 3.65656 8.09779 3.64536C8.07144 3.63416 8.04314 3.62826 8.01451 3.628C7.98584 3.6282 7.95749 3.63405 7.93109 3.64522C7.90468 3.65639 7.88073 3.67265 7.86062 3.69309C7.84051 3.71352 7.82463 3.73773 7.81389 3.76431C7.80314 3.79089 7.79775 3.81933 7.79801 3.848V5.2C7.35368 5.22177 6.92128 5.35115 6.53801 5.577C6.19211 5.77975 5.89318 6.05362 5.66101 6.3805L4.56901 5.74C4.54522 5.72607 4.51889 5.71703 4.49156 5.71342C4.46423 5.7098 4.43645 5.71168 4.40986 5.71895C4.38326 5.72621 4.35839 5.73872 4.33669 5.75573C4.31499 5.77274 4.29692 5.79391 4.28351 5.818C4.25597 5.86678 4.24856 5.92438 4.26285 5.97854C4.27714 6.03271 4.312 6.07916 4.36001 6.108L5.44351 6.745C5.21174 7.20962 5.10982 7.72823 5.14851 8.246L5.24901 8.818C5.29401 8.973 5.35051 9.124 5.41951 9.2695L4.36001 9.892C4.31168 9.92095 4.27664 9.9677 4.26243 10.0222C4.24821 10.0767 4.25597 10.1346 4.28401 10.1835C4.29756 10.2076 4.31576 10.2287 4.33756 10.2457C4.35937 10.2627 4.38434 10.2751 4.41101 10.2823C4.43768 10.2896 4.46552 10.2914 4.49291 10.2877C4.5203 10.2841 4.54668 10.275 4.57051 10.261L5.63401 9.638C5.87738 9.99339 6.19871 10.2885 6.57348 10.5008C6.94825 10.7131 7.36657 10.837 7.79651 10.863V12.152C7.79651 12.2735 7.89351 12.372 8.01301 12.372C8.04164 12.3717 8.06994 12.3658 8.09629 12.3546C8.12264 12.3434 8.14652 12.3272 8.16658 12.3067C8.18664 12.2863 8.20248 12.2621 8.21319 12.2356C8.2239 12.209 8.22928 12.1806 8.22901 12.152V10.852C8.61807 10.812 8.99368 10.6874 9.32951 10.487C9.7084 10.2618 10.0281 9.94953 10.262 9.576L11.4305 10.26C11.5305 10.317 11.6565 10.2815 11.714 10.1805C11.7418 10.132 11.7496 10.0746 11.7358 10.0205C11.7219 9.96638 11.6876 9.91975 11.64 9.8905L10.464 9.2005C10.467 9.194 10.474 9.1865 10.474 9.1785C10.831 8.3565 9.87551 8.0035 9.66301 8.6365C9.52107 9.0615 9.23043 9.42067 8.84401 9.6475ZM12.39 10.326C12.4403 10.3562 12.4767 10.4048 12.4917 10.4615C12.5066 10.5182 12.4988 10.5785 12.47 10.6295C12.456 10.6546 12.4371 10.6767 12.4144 10.6944C12.3918 10.7121 12.3658 10.7251 12.3381 10.7327C12.3103 10.7402 12.2813 10.7422 12.2528 10.7383C12.2243 10.7345 12.1968 10.7251 12.172 10.7105C12.1217 10.6805 12.0852 10.632 12.0702 10.5753C12.0553 10.5187 12.0631 10.4584 12.092 10.4075C12.106 10.3823 12.1249 10.3602 12.1475 10.3425C12.1701 10.3247 12.1961 10.3116 12.2239 10.304C12.2516 10.2964 12.2806 10.2945 12.3092 10.2982C12.3377 10.302 12.3652 10.3115 12.39 10.326ZM6.14201 8.2935C6.12051 7.46 6.21951 6.8785 7.00901 6.4145C7.32782 6.22687 7.69647 6.14142 8.06532 6.16967C8.43416 6.19792 8.7855 6.33851 9.07201 6.5725L6.14201 8.2935Z" fill="white"/>
</g>
<defs>
<clipPath id="clip0_7_7923">
<rect width="16" height="16" fill="white"/>
</clipPath>
</defs>
</svg>
