<svg width="16" height="16" viewBox="0 0 16 16" fill="none" xmlns="http://www.w3.org/2000/svg">
<g clip-path="url(#clip0_7_8063)">
<path d="M8 16C12.4183 16 16 12.4183 16 8C16 3.58172 12.4183 0 8 0C3.58172 0 0 3.58172 0 8C0 12.4183 3.58172 16 8 16Z" fill="#2B1544"/>
<path d="M12.4954 6.25099V9.57899C12.4954 9.72699 12.5029 9.87799 12.4694 10.0235C12.3936 10.3601 12.2192 10.6665 11.9684 10.9035C11.8504 11.017 11.7034 11.0905 11.5629 11.1735C10.6094 11.7285 9.65888 12.285 8.70588 12.841C8.41488 12.9965 8.07088 13.023 7.74788 12.983C7.57918 12.9624 7.41613 12.9091 7.26788 12.826C6.26438 12.241 5.26088 11.6545 4.25788 11.07C4.01288 10.9335 3.82988 10.7085 3.69538 10.4665C3.58538 10.2565 3.50488 10.0255 3.50488 9.78499V6.19199C3.52338 5.84199 3.67838 5.51049 3.89888 5.24599C3.98824 5.13418 4.09635 5.03876 4.21838 4.96399C5.15088 4.42099 6.08338 3.87599 7.01538 3.33099C7.16888 3.24599 7.31438 3.14199 7.48038 3.08499C7.76108 2.99733 8.0591 2.98049 8.34788 3.03599C8.47638 3.07199 8.60738 3.10999 8.72288 3.17799C9.73788 3.77349 10.7544 4.36449 11.7689 4.96049C12.0394 5.12049 12.2379 5.38799 12.3669 5.67349C12.4484 5.85349 12.4954 6.05199 12.4954 6.25099ZM7.97038 5.01299C7.75502 5.33228 7.50574 5.62733 7.22688 5.89299C7.08088 6.03149 6.94038 6.18099 6.85688 6.36649C6.78988 6.49749 6.74488 6.64649 6.76388 6.79649C6.78638 6.99849 6.93038 7.17649 7.11738 7.24849C7.30738 7.32449 7.52238 7.30749 7.71138 7.23349C7.7454 7.2183 7.78303 7.2131 7.81988 7.21849C7.78288 7.45549 7.63888 7.65549 7.52488 7.85999L7.52988 7.89399C7.63288 8.00399 7.74138 8.10799 7.84388 8.21599C7.86988 8.24049 7.89388 8.27449 7.92988 8.28599C8.04938 8.19349 8.14288 8.07199 8.25288 7.96999C8.27738 7.94199 8.32788 7.91149 8.30138 7.86799C8.19488 7.66799 8.07688 7.46549 8.04338 7.23449C8.06338 7.18749 8.11988 7.22699 8.15338 7.23849C8.33088 7.32549 8.54538 7.33849 8.73088 7.26699C8.98338 7.17049 9.14038 6.87499 9.08388 6.60799C9.04088 6.36799 8.91388 6.14799 8.74188 5.97999C8.47688 5.70749 8.22238 5.41649 8.04138 5.07949C8.03498 5.06398 8.02533 5.05001 8.01309 5.03854C8.00084 5.02707 7.98628 5.01836 7.97038 5.01299ZM6.15388 8.26799C5.85388 8.43099 5.65338 8.75049 5.60388 9.08999C5.53538 9.56649 5.81388 10.0645 6.24538 10.2595C6.51838 10.377 6.83538 10.3745 7.11038 10.267C7.25238 10.21 7.37388 10.117 7.47838 10.0075C7.51788 9.96549 7.57538 9.92799 7.57538 9.86349C7.57038 9.79899 7.51238 9.76349 7.47488 9.71949C7.42588 9.67599 7.38688 9.61949 7.33088 9.58499C7.24088 9.54549 7.18688 9.64399 7.12888 9.69299C6.90138 9.92399 6.49188 9.92599 6.25888 9.70049C6.18381 9.62985 6.12729 9.5418 6.09432 9.44413C6.06136 9.34646 6.05296 9.24217 6.06988 9.14049C6.09788 8.94899 6.21188 8.76749 6.38188 8.67649C6.49188 8.62149 6.61538 8.59149 6.73688 8.59699C6.90838 8.60799 7.06538 8.69899 7.18138 8.82399C7.57738 9.21799 7.95838 9.62649 8.35288 10.022C8.56188 10.2285 8.85138 10.361 9.14638 10.3495C9.37138 10.3545 9.58788 10.2645 9.77088 10.1375C10.0404 9.94999 10.2044 9.62449 10.2209 9.29549C10.2569 8.77449 9.87938 8.24899 9.37088 8.14849C9.04638 8.08249 8.67988 8.15049 8.42988 8.38149C8.25188 8.54349 8.08988 8.72549 7.91388 8.89199C7.73238 8.74249 7.58888 8.55349 7.41138 8.40049C7.33559 8.32859 7.24753 8.27084 7.15138 8.22999C7.13338 8.21849 7.12738 8.21299 7.10338 8.20349C6.95119 8.13882 6.7859 8.11096 6.62092 8.12217C6.45594 8.13338 6.29593 8.18333 6.15388 8.26799ZM8.67238 8.79399C8.80188 8.66499 8.98488 8.58949 9.16738 8.60449C9.36538 8.60999 9.55738 8.71599 9.66238 8.88649C9.82638 9.13649 9.77838 9.49599 9.56738 9.70199C9.35038 9.91249 8.97838 9.93899 8.74488 9.73999C8.57138 9.59249 8.42588 9.41649 8.25988 9.26149C8.25788 9.25049 8.25588 9.22949 8.25388 9.21999C8.39238 9.07599 8.53388 8.93799 8.67238 8.79399Z" fill="white"/>
</g>
<defs>
<clipPath id="clip0_7_8063">
<rect width="16" height="16" fill="white"/>
</clipPath>
</defs>
</svg>
