<svg width="16" height="16" viewBox="0 0 16 16" fill="none" xmlns="http://www.w3.org/2000/svg">
<g clip-path="url(#clip0_7_7922)">
<path d="M8 16C12.4183 16 16 12.4183 16 8C16 3.58172 12.4183 0 8 0C3.58172 0 0 3.58172 0 8C0 12.4183 3.58172 16 8 16Z" fill="#242424"/>
<path d="M6.53005 11.937L7.87155 10.5885L9.21855 11.937L8.35905 12.798C8.29509 12.8621 8.21911 12.913 8.13546 12.9477C8.0518 12.9825 7.96212 13.0003 7.87155 13.0003C7.78098 13.0003 7.6913 12.9825 7.60764 12.9477C7.52399 12.913 7.44801 12.8621 7.38405 12.798L6.53005 11.937ZM10.0051 7.31601L8.65905 5.96751L10.0056 4.61901L11.3516 5.96751L10.0051 7.31601ZM9.67055 11.4975L8.32405 10.149L11.9391 6.52801L12.7981 7.38851C13.0676 7.65851 13.0676 8.09501 12.7981 8.36501L9.67055 11.4975ZM5.96905 11.3585L4.62305 10.01L8.23205 6.39501L9.57805 7.74351L5.96905 11.3585ZM4.05805 9.45851L3.19855 8.59751C3.0702 8.46711 2.9988 8.29113 3.00002 8.10817C3.00123 7.9252 3.07497 7.75018 3.20505 7.62151L4.06405 6.76051L5.41055 8.10951L4.05805 9.45851ZM9.44155 4.06451L5.82655 7.68351L4.48005 6.33501L7.60755 3.20201C7.67151 3.13788 7.74749 3.087 7.83114 3.05228C7.9148 3.01757 8.00448 2.99969 8.09505 2.99969C8.18562 2.99969 8.2753 3.01757 8.35896 3.05228C8.44261 3.087 8.51859 3.13788 8.58255 3.20201L9.44155 4.06451Z" fill="white"/>
</g>
<defs>
<clipPath id="clip0_7_7922">
<rect width="16" height="16" fill="white"/>
</clipPath>
</defs>
</svg>
