<svg width="16" height="16" viewBox="0 0 16 16" fill="none" xmlns="http://www.w3.org/2000/svg">
<g clip-path="url(#clip0_7_7924)">
<path d="M8 16C12.4183 16 16 12.4183 16 8C16 3.58172 12.4183 0 8 0C3.58172 0 0 3.58172 0 8C0 12.4183 3.58172 16 8 16Z" fill="#0FACF3"/>
<path d="M4.73535 4.508H7.45135C8.52835 4.508 9.06335 4.474 9.86635 4.5475C10.6699 4.6325 11.4734 4.9605 11.9934 5.589C12.6059 6.319 12.7849 7.304 12.7444 8.2205C12.7044 9.132 12.3919 10.088 11.6754 10.7105C11.0399 11.2825 10.1504 11.492 9.30635 11.4975C7.66535 11.503 6.02985 11.4975 4.38885 11.4975C4.20985 11.486 4.00735 11.503 3.86885 11.3785C3.62635 11.1355 3.77085 10.6145 4.15785 10.637C5.07085 10.609 5.98935 10.637 6.90285 10.62C6.88535 9.8505 6.89685 9.08101 6.89685 8.317C6.19185 8.311 5.49235 8.317 4.78785 8.317C4.63135 8.311 4.45785 8.311 4.33685 8.209C4.19235 8.079 4.19235 7.8585 4.25585 7.689C4.33685 7.502 4.55635 7.468 4.74135 7.468C5.45785 7.462 6.18035 7.468 6.89635 7.468C6.90835 6.766 6.88535 6.064 6.90835 5.368C6.10485 5.3625 5.30185 5.368 4.49835 5.368C4.31935 5.3625 4.11735 5.3625 3.97835 5.238C3.83435 5.051 3.86335 4.785 3.98435 4.598C4.21535 4.485 4.48135 4.508 4.73535 4.508ZM7.90235 7.468C8.23135 7.4735 8.56085 7.445 8.89035 7.4905C9.28335 7.547 9.28335 8.2375 8.88435 8.294C8.56085 8.345 8.22585 8.311 7.89635 8.317C7.90235 8.9845 7.89635 9.647 7.89635 10.3145C7.90235 10.428 7.90785 10.5975 8.05235 10.609C8.44535 10.643 8.78735 10.6315 9.23135 10.6315C9.88985 10.66 10.5834 10.4565 11.0454 9.97501C11.5194 9.47151 11.6929 8.77 11.7044 8.1015C11.7219 7.3605 11.5829 6.5455 11.0394 5.9905C10.5489 5.4925 9.80935 5.323 9.12135 5.3625C8.72935 5.3625 8.39335 5.351 8.02935 5.385C7.91385 5.419 7.90785 5.5605 7.90235 5.6625V7.468Z" fill="white"/>
</g>
<defs>
<clipPath id="clip0_7_7924">
<rect width="16" height="16" fill="white"/>
</clipPath>
</defs>
</svg>
