<svg width="16" height="16" viewBox="0 0 16 16" fill="none" xmlns="http://www.w3.org/2000/svg">
<g clip-path="url(#clip0_7_7915)">
<path d="M8 16C12.4183 16 16 12.4183 16 8C16 3.58172 12.4183 0 8 0C3.58172 0 0 3.58172 0 8C0 12.4183 3.58172 16 8 16Z" fill="#2B5EBB"/>
<path fill-rule="evenodd" clip-rule="evenodd" d="M13 7.98101C12.9995 9.14901 12.095 10.06 10.939 10.0565C9.80701 10.053 8.88801 9.11701 8.89401 7.97351C8.90001 6.83051 9.82901 5.89851 10.955 5.90601C12.1045 5.91351 13.0005 6.82301 13 7.98101ZM4.54501 11.96C4.34521 11.9602 4.14737 11.9206 3.96297 11.8437C3.77856 11.7669 3.61125 11.6541 3.47075 11.5121C3.33024 11.37 3.21933 11.2015 3.14444 11.0163C3.06956 10.831 3.03219 10.6328 3.03451 10.433C3.03701 9.58001 3.70401 8.89051 4.54251 8.91001C4.78351 8.91551 5.02551 9.00551 5.26051 9.07901C5.59451 9.18351 5.92051 9.31301 6.25351 9.42201C6.46001 9.49001 6.65751 9.44201 6.84001 9.32901C7.10501 9.16401 7.33001 8.96501 7.47351 8.67301C7.61851 8.37601 7.94851 8.26551 8.24201 8.39151C8.51401 8.50851 8.65551 8.80501 8.57701 9.09301C8.48851 9.41651 8.22201 9.59051 7.89001 9.53251C7.59551 9.48101 7.30351 9.38601 7.00451 9.49451C6.46951 9.68901 6.23451 10.132 6.05851 10.6375C5.96251 10.914 5.86051 11.2045 5.68851 11.4325C5.41251 11.8005 5.00651 11.962 4.54501 11.96ZM4.51301 4.04101C5.19651 4.04101 5.72901 4.44101 5.96101 5.09951C6.05301 5.35951 6.19101 5.60301 6.30901 5.85351C6.60051 6.47351 7.33201 6.53451 7.79601 6.36501C8.20701 6.21501 8.60301 6.47901 8.61251 6.90501C8.61901 7.20001 8.46751 7.41501 8.19051 7.50201C7.94551 7.57801 7.66951 7.47451 7.51951 7.25101C7.46601 7.17101 7.41601 7.08801 7.35651 7.01251C6.94851 6.49751 6.49551 6.36251 5.88151 6.59351C5.66751 6.67351 5.46701 6.79351 5.26601 6.90501C5.08438 7.00846 4.88325 7.07304 4.67536 7.09468C4.46746 7.11631 4.25734 7.09452 4.05831 7.03068C3.85928 6.96684 3.67568 6.86236 3.51915 6.72384C3.36263 6.58532 3.23658 6.4158 3.14901 6.22601C2.67101 5.21101 3.40101 4.04101 4.51301 4.04101ZM9.27801 11.995C9.27201 12.5545 8.81551 13.01 8.27051 13C7.74401 12.99 7.30401 12.5365 7.29051 12.0265C7.27601 11.4495 7.70001 10.98 8.28951 10.9745C8.85351 10.969 9.28451 11.434 9.27851 11.9945L9.27801 11.995ZM7.29701 4.01001C7.29701 3.44401 7.74001 2.99501 8.29451 3.00001C8.83351 3.00501 9.28451 3.46651 9.28001 4.00901C9.27601 4.57951 8.84901 5.03701 8.28701 5.02651C7.64751 5.01451 7.27101 4.49901 7.29701 4.01001Z" fill="white"/>
</g>
<defs>
<clipPath id="clip0_7_7915">
<rect width="16" height="16" fill="white"/>
</clipPath>
</defs>
</svg>
