<svg width="16" height="16" viewBox="0 0 16 16" fill="none" xmlns="http://www.w3.org/2000/svg">
<g clip-path="url(#clip0_7_8073)">
<path d="M8 16C12.4183 16 16 12.4183 16 8C16 3.58172 12.4183 0 8 0C3.58172 0 0 3.58172 0 8C0 12.4183 3.58172 16 8 16Z" fill="#00ADED"/>
<path d="M5.04883 11.8015L5.04983 11.7995L6.64383 7.99149L5.04883 4.18399L7.99133 7.99149L5.05083 11.799L5.04883 11.8015ZM10.9368 11.8015L10.9348 11.799L7.99433 7.99149L10.9368 4.18399L9.34183 7.99149L10.9358 11.7995L10.9368 11.8015Z" fill="white"/>
<path d="M7.99285 7.99201V10.645L5.04785 11.8L7.99285 7.99001V5.33701L10.9379 4.18201L7.99285 7.99201Z" fill="white" fill-opacity="0.8"/>
<path d="M7.99285 10.645V12.9705L5.04785 11.7985L7.99285 10.641V7.99201L5.04785 4.18201L7.99285 5.33701V3.01151L10.9379 4.18301L7.99285 5.34051V7.99001L10.9379 11.8L7.99285 10.645Z" fill="white" fill-opacity="0.5"/>
<path d="M5.04785 4.18301L7.99285 3.01151V5.34051L5.04785 4.18301ZM10.9379 11.7985L7.99285 12.9705V10.641L10.9379 11.7985Z" fill="white" fill-opacity="0.145"/>
</g>
<defs>
<clipPath id="clip0_7_8073">
<rect width="16" height="16" fill="white"/>
</clipPath>
</defs>
</svg>
