<svg width="16" height="16" viewBox="0 0 16 16" fill="none" xmlns="http://www.w3.org/2000/svg">
<g clip-path="url(#clip0_7_7911)">
<path d="M8 16C12.4183 16 16 12.4183 16 8C16 3.58172 12.4183 0 8 0C3.58172 0 0 3.58172 0 8C0 12.4183 3.58172 16 8 16Z" fill="#396A28"/>
<path fill-rule="evenodd" clip-rule="evenodd" d="M9.0365 6.606L8 5.57L6.9565 6.613L5.8745 5.531L8 2.5L10.14 5.5025L9.0365 6.606ZM6.595 6.975L5.57 8L6.606 9.0365L5.528 10.1145L2.5 8L5.495 5.875L6.595 6.975ZM9.387 9.0435L10.43 8L9.398 6.968L10.511 5.855L13.5 8L10.478 10.1345L9.387 9.0435ZM6.968 9.3985L8 10.43L9.025 9.405L10.116 10.4965L8 13.5L5.898 10.468L6.968 9.3985ZM8 6.2635L9.736 8L8 9.736L6.264 8L8 6.2635Z" fill="white"/>
</g>
<defs>
<clipPath id="clip0_7_7911">
<rect width="16" height="16" fill="white"/>
</clipPath>
</defs>
</svg>
