<svg width="16" height="16" viewBox="0 0 16 16" fill="none" xmlns="http://www.w3.org/2000/svg">
<g clip-path="url(#clip0_7_8105)">
<path d="M8 16C12.4183 16 16 12.4183 16 8C16 3.58172 12.4183 0 8 0C3.58172 0 0 3.58172 0 8C0 12.4183 3.58172 16 8 16Z" fill="#F6C054"/>
<path d="M13.4108 7.78401L8.21577 2.58901C8.18758 2.56071 8.15407 2.53826 8.11718 2.52293C8.08028 2.50761 8.04073 2.49973 8.00078 2.49973C7.96083 2.49973 7.92127 2.50761 7.88437 2.52293C7.84748 2.53826 7.81397 2.56071 7.78578 2.58901L2.58978 7.78451C2.56147 7.81271 2.53902 7.84622 2.5237 7.88311C2.50838 7.92001 2.50049 7.95956 2.50049 7.99951C2.50049 8.03946 2.50838 8.07902 2.5237 8.11591C2.53902 8.15281 2.56147 8.18632 2.58978 8.21451L7.78477 13.411C7.81296 13.4392 7.84644 13.4616 7.88329 13.4769C7.92014 13.4922 7.95963 13.5 7.99953 13.5C8.03942 13.5 8.07891 13.4922 8.11576 13.4769C8.15261 13.4616 8.18609 13.4392 8.21428 13.411L13.4093 8.21651C13.4379 8.18838 13.4608 8.15484 13.4764 8.11784C13.492 8.08083 13.5002 8.0411 13.5004 8.00093C13.5005 7.96076 13.4928 7.92095 13.4775 7.8838C13.4622 7.84666 13.4397 7.81291 13.4113 7.78451L13.4108 7.78401ZM12.2688 8.04401L8.46078 11.852V8.00001H7.53678V11.852L3.72878 8.04401C3.72303 8.03842 3.71846 8.03174 3.71534 8.02435C3.71223 8.01696 3.71062 8.00903 3.71062 8.00101C3.71062 7.993 3.71223 7.98506 3.71534 7.97767C3.71846 7.97029 3.72303 7.9636 3.72878 7.95801L7.95578 3.73151C7.96137 3.72577 7.96805 3.7212 7.97544 3.71808C7.98282 3.71496 7.99076 3.71336 7.99878 3.71336C8.00679 3.71336 8.01473 3.71496 8.02211 3.71808C8.0295 3.7212 8.03618 3.72577 8.04177 3.73151L12.2688 7.95801C12.2745 7.9636 12.2791 7.97029 12.2822 7.97767C12.2853 7.98506 12.2869 7.993 12.2869 8.00101C12.2869 8.00903 12.2853 8.01696 12.2822 8.02435C12.2791 8.03174 12.2745 8.03842 12.2688 8.04401C12.2688 8.04201 12.2688 8.04201 12.2688 8.04401Z" fill="white"/>
</g>
<defs>
<clipPath id="clip0_7_8105">
<rect width="16" height="16" fill="white"/>
</clipPath>
</defs>
</svg>
