<svg width="16" height="16" viewBox="0 0 16 16" fill="none" xmlns="http://www.w3.org/2000/svg">
<g clip-path="url(#clip0_7_7951)">
<path d="M8 16C12.4183 16 16 12.4183 16 8C16 3.58172 12.4183 0 8 0C3.58172 0 0 3.58172 0 8C0 12.4183 3.58172 16 8 16Z" fill="#00CCFF"/>
<path d="M3.947 9.5805H6.1455L5.199 11.5H3L3.947 9.5805ZM5.1995 7.0405H7.3985L6.455 8.955H4.255L5.2 7.04L5.1995 7.0405ZM6.4525 4.5005H8.6515L7.707 6.4155H5.5085L6.4525 4.5V4.5005Z" fill="white" fill-opacity="0.4"/>
<path d="M6.13841 9.58H8.33741L7.39041 11.499H5.19141L6.13841 9.58ZM7.39141 7.04H9.58991L8.64591 8.954H6.44691L7.39141 7.04ZM8.64391 4.5H10.8429L9.89841 6.4145H7.69991L8.64391 4.5Z" fill="white" fill-opacity="0.6"/>
<path d="M8.29513 9.58H10.4941L9.54763 11.499H7.34863L8.29563 9.5795L8.29513 9.58ZM9.54813 7.04H11.7471L10.8031 8.954H8.60413L9.54813 7.04ZM10.8011 4.5H13.0001L12.0556 6.4145H9.85713L10.8011 4.5Z" fill="white"/>
</g>
<defs>
<clipPath id="clip0_7_7951">
<rect width="16" height="16" fill="white"/>
</clipPath>
</defs>
</svg>
