<svg width="16" height="16" viewBox="0 0 16 16" fill="none" xmlns="http://www.w3.org/2000/svg">
<g clip-path="url(#clip0_7_7910)">
<path d="M8 16C12.4183 16 16 12.4183 16 8C16 3.58172 12.4183 0 8 0C3.58172 0 0 3.58172 0 8C0 12.4183 3.58172 16 8 16Z" fill="#2F2F2F"/>
<path fill-rule="evenodd" clip-rule="evenodd" d="M12.5747 5.1475C12.6317 5.1775 12.7622 5.2485 12.7497 5.403L12.7417 10.6115C12.7454 10.6606 12.7337 10.7097 12.7084 10.752C12.6831 10.7942 12.6453 10.8276 12.6002 10.8475L11.4502 11.519L10.5402 12.05L8.11819 13.464C8.08748 13.4875 8.04986 13.5001 8.01119 13.5C7.96247 13.4984 7.91518 13.4831 7.87469 13.456L6.20369 12.492C5.27569 11.9565 4.31569 11.4025 3.36969 10.8585C3.29019 10.82 3.24369 10.7305 3.25069 10.6285L3.25419 9.2525C3.25719 8.0145 3.25919 6.757 3.26019 5.541V5.536C3.26089 5.52769 3.26105 5.51934 3.26069 5.511V5.4955C3.25869 5.428 3.25569 5.2895 3.38569 5.227C3.91569 4.9105 4.45769 4.589 4.98219 4.278L5.85069 3.763C6.51169 3.3715 7.18469 2.972 7.83569 2.5855L7.84069 2.5825C7.88328 2.55813 7.92775 2.53723 7.97369 2.52L8.02519 2.5L8.07319 2.5285C8.54619 2.8025 9.02719 3.0825 9.49169 3.3535L10.3597 3.8585L11.2072 4.3515L12.5407 5.1275H12.5417L12.5427 5.1285L12.5747 5.1475ZM8.19019 12.9825L9.67119 12.1175C10.5692 11.594 11.4671 11.0702 12.3647 10.546L12.3697 7.6215L12.3722 5.689L10.4472 6.815V7.703C10.445 8.25717 10.446 8.81134 10.4502 9.3655V9.4035L10.4277 9.4345C10.4031 9.46747 10.3718 9.49476 10.3357 9.5145L10.3227 9.5225H10.3222L9.70019 9.885C9.47519 10.015 9.24269 10.15 9.01519 10.2835L8.19319 10.761L8.19019 12.9825ZM6.09219 6.705C6.51259 6.94664 6.93326 7.1878 7.35419 7.4285L8.00619 7.803L9.89469 6.699L8.00319 5.583L6.09219 6.705ZM5.89719 7.03L5.93269 9.2245L7.81669 10.322L7.81969 8.1325L5.89719 7.03ZM3.63719 5.733L3.62769 10.5705L7.81469 12.9855L7.81619 10.76L6.99619 10.2825L6.48219 9.983C6.21869 9.83 5.94619 9.6715 5.67869 9.515C5.60119 9.4785 5.55269 9.3895 5.55819 9.292L5.51769 6.8125L3.63719 5.733ZM12.1842 5.36L11.4497 4.932L10.6387 4.4595C9.86669 4.0115 8.95119 3.4795 8.00669 2.9265C7.05013 3.49171 6.09412 4.05787 5.13869 4.625L3.82569 5.4035L5.71469 6.486L7.88169 5.2135C7.91914 5.18938 7.96292 5.17698 8.00745 5.17787C8.05199 5.17876 8.09524 5.19291 8.13169 5.2185L10.2697 6.479L12.1842 5.36ZM8.19319 10.3235C8.82478 9.95545 9.45678 9.58812 10.0892 9.2215V7.025L8.19469 8.132L8.19319 10.3235ZM10.7567 9.927C10.7379 9.93272 10.7183 9.93558 10.6987 9.9355C10.6721 9.93589 10.6458 9.93091 10.6212 9.92085C10.5966 9.9108 10.5744 9.89588 10.5557 9.877C10.5255 9.8498 10.503 9.81521 10.4902 9.77662C10.4775 9.73804 10.4751 9.69681 10.4832 9.657C10.4916 9.60499 10.5181 9.55761 10.558 9.52315C10.5978 9.48869 10.6485 9.46935 10.7012 9.4685C10.7627 9.4685 10.8227 9.4965 10.8662 9.545L10.8667 9.546C10.8968 9.5798 10.9164 9.62155 10.9233 9.66625C10.9303 9.71095 10.9241 9.7567 10.9057 9.798C10.893 9.82989 10.8729 9.85827 10.847 9.88072C10.821 9.90318 10.7901 9.91905 10.7567 9.927ZM11.7887 10.631C11.7595 10.6082 11.7364 10.5786 11.7214 10.5448C11.7064 10.5109 11.7 10.4739 11.7027 10.437C11.7067 10.3575 11.7477 10.287 11.8137 10.247C11.8464 10.2256 11.8846 10.2142 11.9237 10.214C11.9667 10.214 12.0087 10.2275 12.0457 10.2525C12.0828 10.2768 12.112 10.3113 12.1299 10.3518C12.1478 10.3924 12.1537 10.4372 12.1467 10.481C12.1401 10.536 12.1137 10.5868 12.0723 10.6237C12.031 10.6606 11.9776 10.6812 11.9222 10.6815C11.8731 10.6813 11.8256 10.6634 11.7887 10.631ZM5.19419 9.471C5.25669 9.471 5.31619 9.4995 5.35769 9.549C5.38744 9.58217 5.40692 9.62326 5.41375 9.66729C5.42058 9.71131 5.41448 9.75637 5.39619 9.797C5.37931 9.8381 5.35043 9.87315 5.31333 9.89759C5.27623 9.92203 5.23262 9.93472 5.18819 9.934C5.15472 9.93276 5.12194 9.92417 5.09217 9.90883C5.06239 9.89348 5.03637 9.87177 5.01594 9.84523C4.99551 9.81869 4.98118 9.78798 4.97396 9.75527C4.96675 9.72257 4.96683 9.68867 4.97419 9.656C4.98423 9.60468 5.01153 9.55834 5.05155 9.52468C5.09157 9.49103 5.14191 9.47208 5.19419 9.471ZM11.1722 10.259C11.1405 10.2324 11.1163 10.198 11.1022 10.1591C11.088 10.1202 11.0844 10.0782 11.0917 10.0375C11.0998 9.98459 11.1261 9.93617 11.1661 9.90057C11.2061 9.86498 11.2572 9.84444 11.3107 9.8425C11.3657 9.8425 11.4187 9.8645 11.4607 9.9035C11.5242 9.9625 11.5507 10.048 11.5297 10.128C11.5227 10.1656 11.506 10.2006 11.4813 10.2298C11.4566 10.2589 11.4246 10.281 11.3887 10.294C11.3528 10.308 11.3137 10.3122 11.2757 10.306C11.2376 10.2999 11.2019 10.2836 11.1722 10.259ZM4.71969 9.8975C4.78619 9.9525 4.81719 10.04 4.80019 10.121C4.79478 10.1573 4.7803 10.1916 4.7581 10.2208C4.7359 10.25 4.7067 10.2731 4.67319 10.288C4.64348 10.3021 4.61058 10.3096 4.57769 10.31C4.53836 10.3095 4.49994 10.298 4.46669 10.277C4.42949 10.2538 4.39958 10.2205 4.38039 10.1811C4.3612 10.1417 4.35351 10.0976 4.35819 10.054C4.3609 10.011 4.37598 9.96962 4.40161 9.93494C4.42725 9.90026 4.46234 9.87372 4.50269 9.8585C4.52718 9.84798 4.55354 9.84254 4.58019 9.8425C4.63019 9.8425 4.67869 9.8615 4.71969 9.8975ZM7.97469 3.0835C8.03969 3.0835 8.10119 3.1115 8.14469 3.1605C8.19819 3.217 8.21819 3.2955 8.19819 3.3705C8.18847 3.41393 8.16575 3.45336 8.13306 3.48355C8.10037 3.51374 8.05925 3.53326 8.01519 3.5395H8.01269C7.96747 3.54839 7.92062 3.54351 7.8782 3.52551C7.83577 3.50751 7.79972 3.4772 7.77469 3.4385C7.75358 3.40595 7.74124 3.3685 7.73888 3.32978C7.73651 3.29105 7.7442 3.25238 7.76119 3.2175L7.76169 3.2165C7.77784 3.18191 7.80242 3.15192 7.83317 3.12929C7.86392 3.10667 7.89986 3.09212 7.93769 3.087C7.95006 3.08472 7.96211 3.08355 7.97469 3.0835ZM4.07519 10.245C4.14769 10.286 4.19169 10.36 4.19119 10.44C4.19334 10.4803 4.18469 10.5205 4.16615 10.5563C4.1476 10.5922 4.11983 10.6224 4.08569 10.644C4.04941 10.6678 4.00706 10.6806 3.96369 10.681C3.92789 10.6813 3.89265 10.672 3.86169 10.654C3.82538 10.6339 3.79522 10.6043 3.77444 10.5683C3.75365 10.5324 3.74303 10.4915 3.74369 10.45C3.74369 10.3635 3.78819 10.285 3.85919 10.245C3.89178 10.2253 3.92913 10.2149 3.96719 10.2149C4.00526 10.2149 4.0426 10.2253 4.07519 10.245ZM8.09519 4.6025C8.13048 4.62445 8.15913 4.6556 8.17807 4.69259C8.197 4.72959 8.20552 4.77104 8.20269 4.8125C8.19989 4.85361 8.18568 4.89313 8.16166 4.9266C8.13763 4.96008 8.10474 4.98619 8.06669 5.002C8.03529 5.01632 8.00121 5.02382 7.96669 5.024C7.91544 5.02455 7.86553 5.00762 7.82519 4.976C7.79442 4.95324 7.77005 4.92291 7.75446 4.88795C7.73886 4.853 7.73257 4.8146 7.73619 4.7765C7.73831 4.7387 7.75015 4.70209 7.77056 4.67021C7.79097 4.63833 7.81926 4.61225 7.85269 4.5945C7.88706 4.57472 7.92604 4.56437 7.96569 4.5645C8.01178 4.56442 8.05641 4.57762 8.09519 4.6025ZM7.81019 4.2235C7.78395 4.2004 7.76355 4.17141 7.75069 4.13891C7.73783 4.1064 7.73286 4.0713 7.73619 4.0365V4.035C7.73947 3.99916 7.75108 3.96459 7.77009 3.93403C7.7891 3.90347 7.81499 3.87778 7.84569 3.859C7.88182 3.83496 7.9243 3.82225 7.96769 3.8225C8.00769 3.8225 8.04769 3.833 8.08419 3.8525L8.08469 3.853C8.12141 3.87276 8.1519 3.90236 8.17275 3.93849C8.19359 3.97461 8.20396 4.01582 8.20269 4.0575C8.20231 4.10137 8.18908 4.14416 8.16465 4.18059C8.14021 4.21703 8.10563 4.2455 8.06519 4.2625C8.03379 4.27681 7.99971 4.28431 7.96519 4.2845C7.90755 4.28516 7.85193 4.26327 7.81019 4.2235Z" fill="white"/>
</g>
<defs>
<clipPath id="clip0_7_7910">
<rect width="16" height="16" fill="white"/>
</clipPath>
</defs>
</svg>
