<svg width="16" height="16" viewBox="0 0 16 16" fill="none" xmlns="http://www.w3.org/2000/svg">
<g clip-path="url(#clip0_7_8049)">
<path d="M8 16C12.4183 16 16 12.4183 16 8C16 3.58172 12.4183 0 8 0C3.58172 0 0 3.58172 0 8C0 12.4183 3.58172 16 8 16Z" fill="#624DBF"/>
<path d="M11.1565 4.5C11.4035 4.5285 11.6535 4.544 11.8975 4.588C12.381 4.6795 12.539 4.9095 12.457 5.376C12.424 5.565 12.302 5.6815 12.108 5.713C11.9924 5.72928 11.8758 5.73764 11.759 5.738C10.1725 5.7415 8.5825 5.7445 6.996 5.751C6.756 5.751 6.5185 5.773 6.285 5.811C5.498 5.934 5.202 6.246 5.136 7.005C5.106 7.3615 5.106 7.3615 5.4785 7.3615H11.9925C12.095 7.3645 12.1935 7.3835 12.279 7.4365C12.569 7.6135 12.4965 7.8905 12.48 8.146C12.467 8.351 12.3385 8.464 12.118 8.505C12.0254 8.51918 11.9317 8.52553 11.838 8.524H5.343C5.103 8.524 5.1065 8.524 5.126 8.751C5.1425 8.959 5.156 9.164 5.2085 9.3655C5.307 9.7405 5.5475 9.9735 5.936 10.0775C6.367 10.194 6.8115 10.2195 7.256 10.2225C8.806 10.232 10.3535 10.229 11.904 10.229C12.1015 10.229 12.2855 10.254 12.401 10.4275C12.625 10.7615 12.4505 11.2275 12.0585 11.3475C11.723 11.4515 11.3705 11.4765 11.0215 11.48C9.5665 11.505 8.1115 11.5085 6.6565 11.48C6.20779 11.4684 5.76086 11.4189 5.3205 11.332C4.2835 11.127 3.7665 10.623 3.592 9.627C3.5525 9.397 3.5295 9.164 3.5 8.9335V7.1155C3.52 6.9355 3.536 6.7565 3.5595 6.58C3.6975 5.4515 4.2245 4.897 5.383 4.6515C5.7945 4.563 6.2155 4.544 6.6305 4.503C8.135 4.5 9.645 4.5 11.1565 4.5Z" fill="white"/>
</g>
<defs>
<clipPath id="clip0_7_8049">
<rect width="16" height="16" fill="white"/>
</clipPath>
</defs>
</svg>
