<svg width="16" height="16" viewBox="0 0 16 16" fill="none" xmlns="http://www.w3.org/2000/svg">
<g clip-path="url(#clip0_7_7908)">
<path d="M8 16C12.4183 16 16 12.4183 16 8C16 3.58172 12.4183 0 8 0C3.58172 0 0 3.58172 0 8C0 12.4183 3.58172 16 8 16Z" fill="#FA5836"/>
<path d="M7.3688 2.25099C7.3148 2.25849 7.1063 2.29749 6.9058 2.32799C5.7868 2.51699 4.7533 3.06499 3.8968 3.92499C3.0368 4.78149 2.5118 5.77299 2.2918 6.95349C2.1918 7.48999 2.1918 8.53899 2.2918 9.07549C2.5118 10.2555 3.0368 11.247 3.8968 12.1035C4.7533 12.9635 5.7443 13.4885 6.9248 13.7085C7.4613 13.8085 8.5103 13.8085 9.0468 13.7085C10.2268 13.4885 11.2188 12.9635 12.0753 12.1035C12.9353 11.247 13.4603 10.256 13.6803 9.07549C13.7803 8.53899 13.7803 7.48999 13.6803 6.95349C13.4603 5.77349 12.9353 4.78149 12.0753 3.92499C11.2378 3.08399 10.2928 2.57099 9.1473 2.33999C8.7923 2.26649 7.6118 2.20849 7.3688 2.25099ZM9.4288 4.29599C9.4748 4.31499 9.4903 4.37249 9.4903 4.52699V4.73549H9.2473C8.9388 4.73549 8.6958 4.85099 8.5953 5.04399C8.5298 5.16749 8.5258 5.31799 8.5258 7.14649C8.5258 8.22649 8.5108 9.13299 8.4953 9.15999C8.4143 9.28349 7.8203 9.31849 7.5538 9.21399L7.4458 9.17149V7.17749C7.4458 5.31749 7.4418 5.16749 7.3763 5.04399C7.2763 4.85099 7.0328 4.73549 6.7243 4.73549H6.4813V4.52699C6.4813 4.39599 6.5008 4.31099 6.5313 4.29949C6.6013 4.26849 9.3553 4.26849 9.4288 4.29549V4.29599ZM7.2143 5.90399V6.37899L7.1023 6.44399C6.9368 6.54099 6.6588 6.82999 6.5473 7.01899C6.47954 7.1429 6.42507 7.27362 6.3848 7.40899L6.3233 7.62899H5.8798C5.3743 7.62899 5.3898 7.64799 5.4978 7.22399C5.6328 6.71049 5.9608 6.18949 6.3578 5.87349C6.5778 5.69599 7.0638 5.42949 7.1603 5.42949C7.2028 5.42949 7.2143 5.52999 7.2143 5.90449V5.90399ZM9.1278 5.56499C9.45741 5.72959 9.74805 5.9627 9.98027 6.24873C10.2125 6.53476 10.3809 6.86709 10.4743 7.22349C10.5823 7.64799 10.5978 7.62849 10.0923 7.62849H9.6488L9.5868 7.40849C9.54665 7.27332 9.49235 7.14276 9.4248 7.01899C9.3128 6.82999 9.0348 6.54099 8.8693 6.44399L8.7573 6.37899V5.90399C8.7573 5.52999 8.7688 5.42949 8.8113 5.42949C8.8383 5.42949 8.9813 5.49149 9.1278 5.56449V5.56499ZM6.3273 7.99149C6.3273 8.17249 6.4468 8.54299 6.5703 8.73599C7.2298 9.78099 8.7418 9.78099 9.4018 8.73599C9.5253 8.54299 9.6448 8.17249 9.6448 7.99099V7.85999H10.5668L10.5473 8.06049C10.4508 8.99799 9.9338 9.75449 9.1238 10.1555C8.7498 10.3405 8.4218 10.418 7.9858 10.418C6.6358 10.418 5.5673 9.43399 5.4243 8.06049L5.4053 7.86049H6.3273V7.99149ZM8.5453 10.7805C8.5953 11.0505 8.8733 11.2165 9.2898 11.2165H9.4903V11.6405H6.4813V11.2275L6.7628 11.2085C6.9443 11.197 7.0908 11.1625 7.1718 11.116C7.2918 11.0465 7.4458 10.815 7.4458 10.707C7.4458 10.6685 7.5693 10.657 7.9818 10.657H8.5218L8.5453 10.7805Z" fill="#FEFFFF"/>
</g>
<defs>
<clipPath id="clip0_7_7908">
<rect width="16" height="16" fill="white"/>
</clipPath>
</defs>
</svg>
