<svg width="16" height="16" viewBox="0 0 16 16" fill="none" xmlns="http://www.w3.org/2000/svg">
<g clip-path="url(#clip0_7_7861)">
<path d="M8 16C12.4183 16 16 12.4183 16 8C16 3.58172 12.4183 0 8 0C3.58172 0 0 3.58172 0 8C0 12.4183 3.58172 16 8 16Z" fill="#443F54"/>
<path opacity="0.7" d="M7.75417 13.354C7.04617 12.923 6.18467 12.4 5.47717 11.969C5.16917 11.7845 4.83117 11.6 4.52317 11.3845C4.40017 11.2925 4.40017 11.2 4.40017 11.1385C4.70767 9.6925 5.04617 8.1235 5.38517 6.7075L5.16917 6.031C5.16917 6.031 4.43117 9.569 4.06167 11.1385C4.00017 11.3535 4.06167 11.477 4.27667 11.6C5.47667 12.3075 7.90767 13.846 7.90767 13.846L7.75417 13.354ZM8.33867 13.354C9.04617 12.923 9.90767 12.4 10.6157 11.969C10.9232 11.7845 11.2617 11.6 11.5692 11.3845C11.6927 11.2925 11.6927 11.2 11.6927 11.1385C11.3847 9.6925 11.0462 8.1235 10.7077 6.7075L10.9542 6.0615C10.9542 6.0615 11.6927 9.569 12.0312 11.1385C12.0927 11.3535 12.0312 11.477 11.8157 11.6C10.6157 12.3075 8.18467 13.846 8.18467 13.846L8.33867 13.354ZM10.6772 6.0925L10.5542 5.9075H5.56917L5.44617 6.0925C5.44617 6.0925 5.53867 6.3385 5.50767 6.246H10.6462C10.5847 6.3075 10.6772 6.0925 10.6772 6.0925Z" fill="#FEFFFE"/>
<path d="M10.8311 5.81499C10.8311 5.81499 9.13855 3.35449 8.40005 2.27749C8.24605 2.09249 8.15405 2.00049 8.06155 2.00049C7.96905 2.00049 7.84655 2.09299 7.72305 2.27749C6.98455 3.32349 5.29255 5.81599 5.29255 5.81599C5.13855 6.03099 5.13855 6.09299 5.26155 6.36949C5.26155 6.36949 6.46155 9.69299 6.95405 11.1695C7.20005 11.8465 7.84605 13.785 7.84605 13.785C7.87705 13.8465 8.00005 13.8775 8.06155 13.8775C8.14206 13.8737 8.21846 13.8409 8.27655 13.785C8.27655 13.785 8.95405 11.8465 9.16905 11.17C9.66155 9.72349 10.8616 6.36999 10.8616 6.36999C10.9846 6.09299 10.9846 6.03149 10.8311 5.81599V5.81499ZM8.06155 12.769C7.27779 10.5346 6.49829 8.29881 5.72305 6.06149C5.72305 6.06149 7.38455 3.63099 8.03105 2.67649C8.67705 3.63099 10.3386 6.06149 10.3386 6.06149C10.3386 6.06149 8.76905 10.6765 8.06155 12.769Z" fill="#FEFFFE"/>
</g>
<defs>
<clipPath id="clip0_7_7861">
<rect width="16" height="16" fill="white"/>
</clipPath>
</defs>
</svg>
