<svg width="16" height="16" viewBox="0 0 16 16" fill="none" xmlns="http://www.w3.org/2000/svg">
<g clip-path="url(#clip0_7_8101)">
<path d="M8 16C12.4183 16 16 12.4183 16 8C16 3.58172 12.4183 0 8 0C3.58172 0 0 3.58172 0 8C0 12.4183 3.58172 16 8 16Z" fill="black"/>
<path d="M5.44305 5.80501L8.00005 13.8335L4.20605 11.4565M5.44305 5.80501L4.20605 11.4565M5.44305 5.80501L8.00005 2.31201V4.76201L4.20605 11.4565M4.20605 11.4565H11.7976M11.7976 11.4565L8.00355 4.76201V2.31201L10.5601 5.80501M11.7976 11.4565L10.5601 5.80501M11.7976 11.4565L8.00355 13.8335L10.5601 5.80501" stroke="white" stroke-width="0.64" stroke-linecap="round" stroke-linejoin="round"/>
</g>
<defs>
<clipPath id="clip0_7_8101">
<rect width="16" height="16" fill="white"/>
</clipPath>
</defs>
</svg>
