<svg width="16" height="16" viewBox="0 0 16 16" fill="none" xmlns="http://www.w3.org/2000/svg">
<g clip-path="url(#clip0_7_7905)">
<path d="M8 16C12.4183 16 16 12.4183 16 8C16 3.58172 12.4183 0 8 0C3.58172 0 0 3.58172 0 8C0 12.4183 3.58172 16 8 16Z" fill="#C9A35E"/>
<path d="M5.01365 9.69C4.99846 9.7214 4.97475 9.7479 4.94522 9.76646C4.91569 9.78503 4.88153 9.79492 4.84665 9.795H2.81015C2.77826 9.79478 2.74698 9.78628 2.71937 9.77032C2.69176 9.75437 2.66877 9.73152 2.65265 9.704C2.63546 9.6762 2.62595 9.64435 2.62507 9.61167C2.62419 9.579 2.63198 9.54668 2.64765 9.518L6.34965 2.845C6.41615 2.7255 6.60715 2.7255 6.67365 2.845L9.55965 8.034C9.57412 8.06304 9.58123 8.09519 9.58036 8.12762C9.57949 8.16006 9.57066 8.19178 9.55465 8.22C9.53937 8.2482 9.51655 8.2716 9.48874 8.28758C9.46092 8.30357 9.42921 8.3115 9.39715 8.3105H8.55315C8.52024 8.31001 8.48802 8.301 8.45963 8.28435C8.43124 8.2677 8.40765 8.24398 8.39115 8.2155L6.51615 4.8055L4.41815 8.683H5.21915C5.25041 8.68319 5.28114 8.6911 5.30862 8.70601C5.33609 8.72093 5.35946 8.74239 5.37665 8.7685C5.39336 8.79552 5.40299 8.82631 5.40465 8.85803C5.40631 8.88976 5.39995 8.92139 5.38615 8.95L5.01415 9.689L5.01365 9.69ZM13.3507 9.518C13.3674 9.54634 13.3758 9.57882 13.3749 9.61172C13.374 9.64462 13.3639 9.6766 13.3457 9.704C13.3304 9.73213 13.3077 9.75547 13.28 9.77145C13.2522 9.78743 13.2206 9.79541 13.1887 9.7945H7.63215C7.58282 9.7945 7.53551 9.7749 7.50063 9.74002C7.46575 9.70514 7.44615 9.65783 7.44615 9.6085V8.87C7.44615 8.765 7.53165 8.684 7.63215 8.684H11.5862L9.49215 4.82L9.09615 5.6115C9.02965 5.7355 8.82465 5.7355 8.76265 5.6115L8.39065 4.8725C8.37884 4.84625 8.37273 4.81779 8.37273 4.789C8.37273 4.76021 8.37884 4.73175 8.39065 4.7055L9.31565 2.8505C9.3318 2.82128 9.35517 2.7967 9.38353 2.7791C9.4119 2.76151 9.44431 2.75149 9.47765 2.75C9.51132 2.75007 9.5444 2.75886 9.57366 2.77551C9.60293 2.79215 9.62739 2.8161 9.64465 2.845L13.3507 9.518ZM10.9422 10.257L11.8622 11.9265C11.8786 11.9547 11.8872 11.9868 11.8872 12.0195C11.8872 12.0522 11.8786 12.0843 11.8622 12.1125C11.8469 12.1406 11.8242 12.164 11.7965 12.18C11.7687 12.1959 11.7371 12.2039 11.7052 12.203H4.29365C4.26066 12.2026 4.22834 12.1936 4.19985 12.177C4.17136 12.1603 4.14769 12.1366 4.13115 12.108C4.11539 12.0793 4.10754 12.0468 4.10842 12.0141C4.1093 11.9813 4.11887 11.9494 4.13615 11.9215L5.61915 9.513L7.09765 6.923C7.13115 6.8615 7.19765 6.823 7.26465 6.828C7.29851 6.82716 7.33189 6.83616 7.36073 6.85391C7.38957 6.87166 7.41265 6.89739 7.42715 6.928L7.79915 7.6675C7.81365 7.69484 7.82081 7.72548 7.81993 7.75641C7.81905 7.78734 7.81017 7.81752 7.79415 7.844L5.91515 11.087H10.0837L9.69715 10.443C9.67891 10.4156 9.66877 10.3836 9.66788 10.3507C9.667 10.3178 9.67541 10.2853 9.69215 10.257C9.70869 10.2284 9.73236 10.2047 9.76085 10.188C9.78933 10.1714 9.82166 10.1624 9.85465 10.162H10.7797C10.8467 10.162 10.9087 10.2 10.9422 10.257Z" fill="white"/>
</g>
<defs>
<clipPath id="clip0_7_7905">
<rect width="16" height="16" fill="white"/>
</clipPath>
</defs>
</svg>
