<svg width="16" height="16" viewBox="0 0 16 16" fill="none" xmlns="http://www.w3.org/2000/svg">
<g clip-path="url(#clip0_7_7926)">
<path d="M8 16C12.4183 16 16 12.4183 16 8C16 3.58172 12.4183 0 8 0C3.58172 0 0 3.58172 0 8C0 12.4183 3.58172 16 8 16Z" fill="#F68922"/>
<path d="M8.36006 5.03899C8.36006 5.03899 6.29656 5.34199 5.99606 7.63549C5.99606 7.63549 5.67706 10.2025 8.30006 10.8955C8.48171 10.9432 8.66876 10.9672 8.85656 10.967H8.98556C9.25256 10.967 9.50856 11.074 9.69756 11.264C9.88656 11.454 9.99256 11.712 9.99256 11.981C9.99436 12.2356 9.89963 12.4815 9.72745 12.669C9.55526 12.8566 9.31841 12.972 9.06456 12.992C7.77506 13.079 6.04456 12.446 4.92156 10.924C4.92156 10.924 2.72206 7.76149 5.11906 4.85549C5.68471 4.16465 6.42226 3.6349 7.25756 3.31949C8.24256 2.95099 9.68556 2.71399 10.9381 3.69749C10.9381 3.69749 12.6146 4.99599 11.7551 7.11599C11.7551 7.11599 11.1531 8.80349 9.09006 8.93349L8.80356 8.91749C8.66785 8.91391 8.53448 8.88122 8.4125 8.82161C8.29052 8.762 8.18278 8.67687 8.09656 8.57199C8.00994 8.46666 7.94673 8.34411 7.91112 8.21247C7.87552 8.08083 7.86834 7.94312 7.89006 7.80849C7.92469 7.58993 8.03438 7.39026 8.20027 7.2438C8.36617 7.09735 8.57789 7.01326 8.79906 7.00599L9.09006 6.98599C9.09006 6.98599 10.0786 6.94299 9.99256 5.77449C9.99256 5.77449 9.90656 4.73599 8.35956 5.03949" fill="white"/>
</g>
<defs>
<clipPath id="clip0_7_7926">
<rect width="16" height="16" fill="white"/>
</clipPath>
</defs>
</svg>
