<svg width="16" height="16" viewBox="0 0 16 16" fill="none" xmlns="http://www.w3.org/2000/svg">
<g clip-path="url(#clip0_7_7903)">
<path d="M8 16C12.4183 16 16 12.4183 16 8C16 3.58172 12.4183 0 8 0C3.58172 0 0 3.58172 0 8C0 12.4183 3.58172 16 8 16Z" fill="#00FFBA"/>
<path d="M5.43555 5.45201C5.29825 5.59251 5.21362 5.77609 5.19595 5.97175C5.17828 6.16741 5.22865 6.36317 5.33855 6.52601C5.41626 6.64296 5.52184 6.73874 5.64579 6.80472C5.76973 6.87071 5.90814 6.90483 6.04855 6.90401C6.33876 6.90407 6.61706 7.01942 6.82223 7.22468C7.02739 7.42994 7.14262 7.70829 7.14255 7.99851C7.14248 8.28872 7.02713 8.56702 6.82188 8.77218C6.61662 8.97735 6.33826 9.09257 6.04805 9.09251C5.44438 9.09273 4.85428 8.9134 4.35281 8.57733C3.85134 8.24125 3.46116 7.76362 3.2319 7.20518C3.00264 6.64674 2.94465 6.03272 3.06532 5.44124C3.18599 4.84975 3.47986 4.30752 3.90955 3.88351C4.44782 3.35109 5.16529 3.03852 5.92173 3.0069C6.67817 2.97528 7.41922 3.22687 8.00005 3.71251C7.6582 3.99831 7.3833 4.35572 7.19477 4.75946C7.00625 5.1632 6.90871 5.60342 6.90905 6.04901C6.90891 6.33812 7.02322 6.61553 7.227 6.82061C7.43077 7.0257 7.70745 7.14179 7.99655 7.14351C7.85284 7.14351 7.71054 7.11519 7.57778 7.06018C7.44502 7.00517 7.32439 6.92454 7.2228 6.8229C7.12121 6.72126 7.04063 6.6006 6.98568 6.46782C6.93073 6.33503 6.90249 6.19271 6.90255 6.04901C6.90339 5.87887 6.85285 5.71245 6.75755 5.57151C6.66446 5.4337 6.53354 5.32571 6.38055 5.26051C6.27524 5.21644 6.16221 5.19376 6.04805 5.19376C5.93389 5.19376 5.82087 5.21644 5.71555 5.26051C5.61039 5.30505 5.51519 5.37015 5.43555 5.45201ZM12.7556 8.76601C12.9881 9.31724 13.0532 9.92474 12.9428 10.5127C12.8323 11.1007 12.5512 11.6432 12.1346 12.0725C11.7127 12.5072 11.1706 12.8061 10.5778 12.9308C9.98497 13.0555 9.36843 13.0004 8.80715 12.7725C8.24586 12.5446 7.76541 12.1543 7.42733 11.6516C7.08926 11.149 6.90896 10.5568 6.90955 9.95101C6.90644 9.80541 6.93243 9.66065 6.98599 9.52522C7.03956 9.3898 7.11963 9.26643 7.2215 9.16236C7.32337 9.05828 7.445 8.9756 7.57925 8.91915C7.7135 8.8627 7.85767 8.83362 8.0033 8.83362C8.14894 8.83362 8.2931 8.8627 8.42735 8.91915C8.5616 8.9756 8.68323 9.05828 8.7851 9.16236C8.88697 9.26643 8.96704 9.3898 9.02061 9.52522C9.07417 9.66065 9.10016 9.80541 9.09705 9.95101C9.09623 10.1194 9.14546 10.2843 9.23849 10.4247C9.33151 10.565 9.46414 10.6746 9.61955 10.7395C9.83455 10.8295 10.0761 10.8285 10.2901 10.737C10.4947 10.6484 10.6569 10.4839 10.7426 10.278C10.828 10.0693 10.8279 9.83526 10.7421 9.62661C10.6564 9.41796 10.4921 9.25142 10.2846 9.16301C10.1794 9.11848 10.0663 9.09569 9.95205 9.09601C9.66184 9.09601 9.38351 8.98072 9.1783 8.77551C8.97309 8.5703 8.8578 8.29197 8.8578 8.00176C8.8578 7.71154 8.97309 7.43322 9.1783 7.228C9.38351 7.02279 9.66184 6.90751 9.95205 6.90751C10.5503 6.90718 11.1353 7.08334 11.6339 7.41392C12.1325 7.74451 12.523 8.21483 12.7556 8.76601Z" fill="white"/>
<path opacity="0.7" d="M7.99742 8.85701C8.60142 8.85701 9.09142 9.34701 9.09142 9.95101C9.09182 10.5578 8.9108 11.1508 8.57162 11.6538C8.23244 12.1569 7.7506 12.5471 7.18798 12.7742C6.62537 13.0014 6.00769 13.0551 5.4143 12.9286C4.8209 12.802 4.2789 12.5009 3.85792 12.064C3.44325 11.6341 3.16423 11.0917 3.05562 10.5044C2.94701 9.91709 3.01363 9.31078 3.24716 8.76104C3.48069 8.2113 3.87082 7.74243 4.36893 7.41284C4.86705 7.08325 5.45114 6.90751 6.04842 6.90751C6.33864 6.90751 6.61696 7.0228 6.82217 7.22801C7.02739 7.43322 7.14267 7.71155 7.14267 8.00176C7.14267 8.29198 7.02739 8.5703 6.82217 8.77552C6.61696 8.98073 6.33864 9.09601 6.04842 9.09601C5.87842 9.09551 5.71242 9.14601 5.57142 9.24101C5.43352 9.33422 5.32552 9.46532 5.26042 9.61851C5.1954 9.77284 5.17714 9.94287 5.20789 10.1075C5.23865 10.2721 5.31707 10.4241 5.43342 10.5445V10.5455C5.57277 10.6902 5.7587 10.781 5.95846 10.8021C6.15822 10.8231 6.359 10.773 6.52542 10.6605C6.64206 10.5825 6.73757 10.4769 6.80344 10.353C6.86931 10.2291 6.90349 10.0908 6.90292 9.95051C6.90292 9.34701 7.39292 8.85701 7.99742 8.85701ZM12.6604 4.65901C12.8983 5.12311 13.013 5.64054 12.9936 6.1617C12.9741 6.68285 12.8211 7.19028 12.5492 7.63533C12.2774 8.08039 11.8958 8.44816 11.441 8.7034C10.9862 8.95865 10.4734 9.0928 9.95192 9.09301C9.66164 9.09301 9.38325 8.9777 9.17799 8.77244C8.97274 8.56718 8.85742 8.28879 8.85742 7.99851C8.85742 7.70823 8.97274 7.42984 9.17799 7.22459C9.38325 7.01933 9.66164 6.90401 9.95192 6.90401C10.1202 6.90417 10.2847 6.85468 10.425 6.76174C10.5653 6.66879 10.675 6.53653 10.7404 6.38151C10.7885 6.2664 10.811 6.14221 10.8064 6.01754C10.8017 5.89287 10.77 5.77071 10.7134 5.65951C10.6587 5.5516 10.5816 5.45659 10.4873 5.38078C10.393 5.30497 10.2836 5.25011 10.1664 5.21983C10.0493 5.18956 9.92702 5.18458 9.80779 5.20522C9.68856 5.22585 9.57509 5.27163 9.47492 5.33951C9.35813 5.41739 9.26247 5.523 9.19651 5.64691C9.13054 5.77081 9.09632 5.90914 9.09692 6.04951C9.1 6.19512 9.07398 6.33987 9.02038 6.47528C8.96678 6.61069 8.88669 6.73404 8.78479 6.83809C8.68289 6.94214 8.56125 7.0248 8.42699 7.08122C8.29273 7.13764 8.14855 7.16668 8.00292 7.16665C7.85728 7.16662 7.71312 7.13751 7.57889 7.08102C7.44465 7.02454 7.32304 6.94183 7.22119 6.83773C7.11934 6.73364 7.03931 6.61025 6.98577 6.47481C6.93223 6.33938 6.90628 6.19461 6.90942 6.04901C6.90907 5.48483 7.06559 4.93166 7.36151 4.45131C7.65743 3.97096 8.08108 3.58235 8.58512 3.3289C9.08917 3.07545 9.65377 2.96714 10.2158 3.01608C10.7779 3.06501 11.3153 3.26927 11.7679 3.60601L11.7699 3.60751C12.1429 3.88559 12.4478 4.24526 12.6604 4.65901Z" fill="white"/>
</g>
<defs>
<clipPath id="clip0_7_7903">
<rect width="16" height="16" fill="white"/>
</clipPath>
</defs>
</svg>
