<svg width="16" height="16" viewBox="0 0 16 16" fill="none" xmlns="http://www.w3.org/2000/svg">
<g clip-path="url(#clip0_7_7917)">
<path d="M8 16C12.4183 16 16 12.4183 16 8C16 3.58172 12.4183 0 8 0C3.58172 0 0 3.58172 0 8C0 12.4183 3.58172 16 8 16Z" fill="#23BEE2"/>
<path d="M9.9395 6.7345L11.559 5.0285C12.256 5.86066 12.6372 6.91199 12.6355 7.9975C12.6355 10.556 10.5605 12.6305 8 12.6305C7.2188 12.6315 6.45014 12.4341 5.766 12.057L9.885 9.934L10.556 9.588L9.9345 9.1585L9.4905 8.8515L10.7855 8.1905L11.4295 7.8615L10.8525 7.4255L9.9395 6.7345ZM6.0605 9.5015L4.5505 11.0915C3.78571 10.2426 3.3631 9.14011 3.3645 7.9975C3.3645 5.4385 5.4395 3.364 8 3.364C8.86739 3.36283 9.71755 3.60613 10.453 4.066L6.115 6.302L5.444 6.6485L6.0655 7.0775L6.5095 7.3845L5.2145 8.046L4.5705 8.3745L5.1475 8.811L6.0605 9.5015ZM4.268 11.39L3.9555 11.719C3.0188 10.7062 2.49897 9.37707 2.5 7.9975C2.5 4.966 4.9675 2.5 8 2.5C9.2465 2.5 10.398 2.917 11.3215 3.6185L10.8705 3.851C10.0279 3.26533 9.02613 2.95192 8 2.953C5.2175 2.953 2.9535 5.216 2.9535 7.9975C2.9535 9.3025 3.4515 10.493 4.2685 11.3895L4.268 11.39ZM11.842 4.73L12.156 4.4C13.0239 5.39742 13.5013 6.67534 13.5 7.9975C13.5 11.0285 11.0325 13.4945 8 13.4945C6.88251 13.4958 5.79142 13.1549 4.8735 12.5175L5.3355 12.279C6.13448 12.7783 7.05787 13.0425 8 13.0415C10.7825 13.0415 13.0465 10.7785 13.0465 7.9975C13.0465 6.7525 12.593 5.6115 11.842 4.7305V4.73ZM5.421 8.45L7.3915 7.4435L6.323 6.7055L12.238 3.6565L9.2615 6.7905L10.579 7.787L8.6085 8.7935L9.677 9.5315L3.762 12.5805L6.7385 9.4465L5.421 8.45Z" fill="white"/>
</g>
<defs>
<clipPath id="clip0_7_7917">
<rect width="16" height="16" fill="white"/>
</clipPath>
</defs>
</svg>
