<svg width="16" height="16" viewBox="0 0 16 16" fill="none" xmlns="http://www.w3.org/2000/svg">
<g clip-path="url(#clip0_7_7972)">
<path d="M8 16C12.4183 16 16 12.4183 16 8C16 3.58172 12.4183 0 8 0C3.58172 0 0 3.58172 0 8C0 12.4183 3.58172 16 8 16Z" fill="#00A5FF"/>
<path fill-rule="evenodd" clip-rule="evenodd" d="M9.04003 6.28701C9.03853 6.73351 9.03553 7.1795 9.03503 7.6255C9.03453 8.36751 9.03353 9.11 9.03703 9.85201C9.03703 9.94201 9.01203 9.9955 8.93353 10.043C8.62853 10.2265 8.32853 10.418 8.00653 10.6195V10.457C8.00653 9.3085 8.00503 8.1595 8.00853 7.011C8.00903 6.9155 7.98353 6.86151 7.89753 6.81501C7.63003 6.67001 7.36853 6.514 7.10453 6.363C7.07553 6.3465 7.04453 6.333 7.00003 6.311V6.46851C7.00003 7.498 6.99803 8.5275 7.00303 9.55651C7.00303 9.66001 6.97003 9.714 6.88303 9.7625C6.62053 9.9075 6.36403 10.0625 6.10453 10.2135C6.06803 10.2345 6.02953 10.253 5.97153 10.2835V10.1235C5.97153 9.0895 5.96903 8.0555 5.97503 7.022C5.97553 6.902 5.93503 6.84201 5.83503 6.78701C5.54303 6.62401 5.25653 6.451 4.95303 6.2735C5.28903 6.08 5.61203 5.89201 5.93853 5.71151C5.96853 5.69501 6.03103 5.7165 6.06853 5.738C6.35303 5.89801 6.63653 6.0595 6.91703 6.226C6.98503 6.266 7.03453 6.271 7.10553 6.2275C7.36453 6.06901 7.63253 5.9235 7.89053 5.7625C7.98353 5.7045 8.05053 5.71401 8.13903 5.76701C8.43753 5.94551 8.74103 6.11701 9.04303 6.29051L9.04003 6.28701ZM9.04303 6.29051C9.06503 6.26751 9.08403 6.238 9.11053 6.2225C9.39203 6.0585 9.67353 5.89351 9.96003 5.73851C9.98775 5.7264 10.0177 5.72027 10.0479 5.72053C10.0782 5.72079 10.108 5.72743 10.1355 5.74C10.4265 5.8965 10.7135 6.0605 10.997 6.2295C11.036 6.2525 11.075 6.3135 11.075 6.357C11.0795 7.43851 11.079 8.5205 11.077 9.60201C11.077 9.637 11.068 9.69201 11.0445 9.70601C10.7205 9.899 10.393 10.0865 10.0455 10.2875V10.123C10.0455 9.08101 10.0445 8.039 10.0475 6.9975C10.0475 6.909 10.0265 6.8555 9.94353 6.81C9.63953 6.64101 9.34053 6.46201 9.04003 6.28701L9.04303 6.29051ZM3.46953 9.394C3.37583 9.39513 3.28283 9.37771 3.19587 9.34277C3.10892 9.30782 3.02974 9.25603 2.96287 9.19037C2.89601 9.12471 2.84278 9.04649 2.80625 8.96019C2.76973 8.87388 2.75062 8.78121 2.75003 8.6875C2.74911 8.5937 2.76679 8.50065 2.80207 8.41372C2.83734 8.3268 2.8895 8.24774 2.95553 8.1811C3.02156 8.11447 3.10014 8.06159 3.18674 8.02553C3.27334 7.98947 3.36623 7.97093 3.46003 7.971C3.55383 7.96961 3.64697 7.98686 3.73404 8.02175C3.82112 8.05664 3.9004 8.10847 3.96729 8.17424C4.03417 8.24001 4.08733 8.31841 4.12368 8.40489C4.16003 8.49136 4.17885 8.5842 4.17903 8.67801C4.18009 8.77178 4.16251 8.86483 4.12731 8.95175C4.09212 9.03867 4.04 9.11774 3.97399 9.18435C3.90798 9.25096 3.82939 9.3038 3.7428 9.33979C3.6562 9.37578 3.56331 9.39421 3.46953 9.394ZM4.42703 11.5375C4.24883 11.539 4.07728 11.4699 3.94987 11.3453C3.82246 11.2207 3.74954 11.0507 3.74703 10.8725C3.7466 10.6943 3.81613 10.5229 3.94067 10.3954C4.06521 10.2679 4.23482 10.1943 4.41303 10.1905C4.77553 10.1825 5.08903 10.4905 5.09303 10.859C5.09437 11.0372 5.02503 11.2087 4.9002 11.3358C4.77537 11.463 4.60522 11.5355 4.42703 11.5375ZM3.88353 5.69951C4.24353 5.70051 4.53253 5.98951 4.53253 6.34701C4.53253 6.71051 4.23653 7.00301 3.87253 6.99901C3.78741 6.99843 3.70326 6.98093 3.62496 6.94753C3.54667 6.91413 3.4758 6.86549 3.41647 6.80444C3.35715 6.7434 3.31056 6.67117 3.27941 6.59195C3.24826 6.51273 3.23318 6.42811 3.23503 6.343C3.23422 6.25785 3.25048 6.1734 3.28284 6.09463C3.31521 6.01586 3.36302 5.94437 3.42347 5.88439C3.48392 5.8244 3.55578 5.77714 3.63479 5.74539C3.71381 5.71363 3.79839 5.69803 3.88353 5.69951ZM12.6445 8.1525C12.4834 8.1525 12.3289 8.0885 12.215 7.97457C12.101 7.86064 12.037 7.70612 12.037 7.545C12.037 7.38389 12.101 7.22937 12.215 7.11544C12.3289 7.00151 12.4834 6.93751 12.6445 6.93751C12.8057 6.93751 12.9602 7.00151 13.0741 7.11544C13.188 7.22937 13.252 7.38389 13.252 7.545C13.252 7.70612 13.188 7.86064 13.0741 7.97457C12.9602 8.0885 12.8057 8.1525 12.6445 8.1525ZM4.77103 4.3085C4.76996 4.23563 4.78351 4.16328 4.81089 4.09573C4.83827 4.02818 4.87891 3.96681 4.93043 3.91525C4.98194 3.86369 5.04327 3.82299 5.1108 3.79555C5.17832 3.76811 5.25066 3.75449 5.32353 3.7555C5.39646 3.75543 5.46868 3.76985 5.53599 3.79792C5.60329 3.826 5.66435 3.86716 5.71562 3.91903C5.76688 3.9709 5.80733 4.03244 5.83461 4.10007C5.86189 4.1677 5.87546 4.24008 5.87453 4.31301C5.8748 4.38587 5.86061 4.45806 5.83279 4.52541C5.80497 4.59275 5.76407 4.65391 5.71245 4.70534C5.66083 4.75677 5.59953 4.79745 5.53209 4.82503C5.46464 4.85261 5.3924 4.86653 5.31953 4.86601C5.24664 4.86635 5.17442 4.85211 5.10713 4.8241C5.03983 4.79609 4.97882 4.7549 4.9277 4.70294C4.87658 4.65098 4.83638 4.58931 4.80948 4.52157C4.78257 4.45382 4.7695 4.38138 4.77103 4.3085ZM12.318 10.455C12.2452 10.4566 12.1728 10.4434 12.1051 10.4164C12.0374 10.3894 11.9759 10.3491 11.9241 10.2978C11.8723 10.2466 11.8314 10.1854 11.8037 10.118C11.776 10.0506 11.7622 9.97836 11.763 9.90551C11.762 9.83265 11.7753 9.7603 11.8023 9.69261C11.8292 9.62493 11.8693 9.56323 11.9202 9.51106C11.9711 9.45889 12.0317 9.41728 12.0987 9.38861C12.1657 9.35995 12.2377 9.34479 12.3105 9.344C12.3834 9.34381 12.4555 9.35798 12.5229 9.3857C12.5902 9.41342 12.6515 9.45415 12.7031 9.50556C12.7547 9.55697 12.7956 9.61805 12.8236 9.6853C12.8515 9.75256 12.866 9.82467 12.866 9.8975C12.8678 9.97041 12.855 10.0429 12.8282 10.1108C12.8014 10.1786 12.7613 10.2404 12.7102 10.2924C12.659 10.3444 12.598 10.3856 12.5306 10.4135C12.4633 10.4415 12.391 10.4556 12.318 10.455ZM7.99303 3.4275C7.99288 3.48255 7.98162 3.537 7.95992 3.58759C7.93822 3.63817 7.90653 3.68386 7.86675 3.72191C7.82698 3.75996 7.77993 3.78959 7.72843 3.80902C7.67693 3.82846 7.62203 3.83729 7.56703 3.835C7.51199 3.834 7.45771 3.82195 7.4074 3.79959C7.3571 3.77723 7.31179 3.745 7.27417 3.70481C7.23654 3.66462 7.20737 3.61729 7.18836 3.56562C7.16936 3.51395 7.16092 3.459 7.16353 3.404C7.16706 3.29516 7.21302 3.19201 7.2916 3.11661C7.37018 3.0412 7.47513 2.99953 7.58403 3.0005C7.63913 3.00101 7.69357 3.01253 7.74415 3.03439C7.79472 3.05625 7.84041 3.08802 7.87853 3.12781C7.91664 3.1676 7.94641 3.21461 7.96607 3.26608C7.98574 3.31755 7.9949 3.37244 7.99303 3.4275ZM10.8785 12.1785C10.8244 12.1788 10.7708 12.1683 10.7208 12.1475C10.6708 12.1268 10.6254 12.0964 10.5873 12.0579C10.5492 12.0194 10.5192 11.9738 10.499 11.9236C10.4787 11.8734 10.4687 11.8196 10.4695 11.7655C10.4692 11.7102 10.4801 11.6554 10.5015 11.6044C10.5228 11.5533 10.5543 11.5071 10.5939 11.4685C10.6335 11.4299 10.6805 11.3997 10.7321 11.3797C10.7837 11.3597 10.8387 11.3503 10.894 11.352C11.124 11.355 11.304 11.537 11.303 11.767C11.303 12.003 11.119 12.1805 10.8785 12.1785ZM8.73853 13C8.68661 13.0011 8.635 12.9917 8.58683 12.9722C8.53867 12.9528 8.49496 12.9237 8.45835 12.8869C8.42174 12.8501 8.393 12.8062 8.37386 12.7579C8.35473 12.7096 8.3456 12.6579 8.34703 12.606C8.34683 12.554 8.357 12.5024 8.37697 12.4544C8.39694 12.4064 8.42629 12.3628 8.46331 12.3262C8.50033 12.2897 8.54427 12.2609 8.59256 12.2415C8.64085 12.2222 8.69252 12.2126 8.74453 12.2135C8.84949 12.2147 8.94978 12.2571 9.02377 12.3315C9.09776 12.406 9.13952 12.5065 9.14003 12.6115C9.13993 12.6636 9.12937 12.7151 9.10899 12.7631C9.08861 12.811 9.05882 12.8544 9.02138 12.8906C8.98395 12.9268 8.93963 12.9552 8.89104 12.974C8.84246 12.9928 8.7906 13.0016 8.73853 13ZM10.0525 4.13851C9.95838 4.13797 9.8683 4.10006 9.8021 4.03311C9.7359 3.96616 9.699 3.87566 9.69953 3.7815C9.70006 3.68735 9.73798 3.59727 9.80493 3.53107C9.87188 3.46487 9.96238 3.42797 10.0565 3.4285C10.2485 3.4295 10.4115 3.594 10.411 3.7855C10.4086 3.8793 10.3699 3.96849 10.303 4.03433C10.2361 4.10016 10.1464 4.1375 10.0525 4.13851ZM6.78353 12.2795C6.78342 12.3204 6.77512 12.3608 6.75912 12.3984C6.74312 12.436 6.71975 12.47 6.69039 12.4985C6.66103 12.5269 6.62627 12.5492 6.58817 12.5639C6.55006 12.5787 6.50939 12.5857 6.46853 12.5845C6.42762 12.5845 6.38714 12.5762 6.34953 12.5601C6.31192 12.544 6.27796 12.5204 6.24969 12.4909C6.22142 12.4613 6.19944 12.4263 6.18506 12.388C6.17068 12.3497 6.16421 12.3089 6.16603 12.268C6.16656 12.2273 6.17511 12.187 6.1912 12.1496C6.2073 12.1121 6.23062 12.0782 6.25983 12.0498C6.28904 12.0214 6.32357 11.999 6.36144 11.9839C6.39931 11.9689 6.43978 11.9614 6.48053 11.962C6.52129 11.9629 6.56147 11.9719 6.59876 11.9883C6.63606 12.0048 6.66975 12.0284 6.69789 12.0579C6.72604 12.0874 6.74809 12.1222 6.76278 12.1602C6.77748 12.1982 6.78453 12.2388 6.78353 12.2795ZM12.115 5.29C12.1165 5.32527 12.1109 5.36047 12.0987 5.39357C12.0864 5.42666 12.0677 5.45698 12.0436 5.48276C12.0195 5.50854 11.9905 5.52927 11.9583 5.54373C11.9261 5.5582 11.8913 5.56611 11.856 5.567C11.785 5.56822 11.7163 5.54131 11.665 5.49215C11.6137 5.44299 11.5839 5.37555 11.582 5.30451C11.5806 5.26927 11.5863 5.23412 11.5987 5.2011C11.611 5.16808 11.6299 5.13788 11.6541 5.11226C11.6784 5.08663 11.7075 5.06611 11.7397 5.0519C11.772 5.03769 11.8068 5.03008 11.842 5.02951C11.9915 5.0245 12.112 5.14001 12.115 5.29051V5.29Z" fill="white"/>
</g>
<defs>
<clipPath id="clip0_7_7972">
<rect width="16" height="16" fill="white"/>
</clipPath>
</defs>
</svg>
