<svg width="16" height="16" viewBox="0 0 16 16" fill="none" xmlns="http://www.w3.org/2000/svg">
<g clip-path="url(#clip0_7_7954)">
<path d="M8 16C12.4183 16 16 12.4183 16 8C16 3.58172 12.4183 0 8 0C3.58172 0 0 3.58172 0 8C0 12.4183 3.58172 16 8 16Z" fill="#044AAC"/>
<path fill-rule="evenodd" clip-rule="evenodd" d="M5.041 8.605L3.732 9.915L3.117 10.53C2.71061 9.74866 2.49894 8.88071 2.5 8C2.5 4.9675 4.9675 2.5 8 2.5C11.0325 2.5 13.5 4.9675 13.5 8C13.5 11.0325 11.0325 13.5 8 13.5C6.827 13.5 5.739 13.1305 4.845 12.5025C4.61945 12.3441 4.40602 12.1691 4.2065 11.979L4.7875 11.3975L8.996 7.189C9.01245 6.98619 9.10457 6.79699 9.25408 6.65897C9.40358 6.52095 9.59953 6.44421 9.803 6.444C10.0034 6.44419 10.1966 6.51868 10.3453 6.65305C10.494 6.78742 10.5876 6.97214 10.608 7.1715L12.545 9.1085C12.6335 8.74564 12.6781 8.37349 12.678 8C12.678 5.42 10.5795 3.322 8 3.322C5.4205 3.322 3.322 5.42 3.322 8C3.322 8.359 3.3625 8.7085 3.4395 9.0445L4.6835 7.8C4.71393 7.60979 4.8111 7.43663 4.95761 7.31156C5.10411 7.18649 5.29037 7.1177 5.483 7.1175C5.67289 7.11768 5.85668 7.18457 6.00227 7.30649C6.14786 7.4284 6.24598 7.59759 6.2795 7.7845L7.071 8.5755L6.4895 9.1565L5.9325 8.5995C5.80093 8.68807 5.64612 8.73579 5.48751 8.73668C5.3289 8.73757 5.17357 8.69208 5.041 8.605ZM9.3955 7.952L5.4365 11.911C6.19741 12.4123 7.08882 12.679 8 12.678C9.8765 12.678 11.4985 11.5675 12.243 9.969L10.2205 7.946C10.0963 8.02139 9.95408 8.06175 9.80883 8.06281C9.66358 8.06386 9.52075 8.02557 9.3955 7.952ZM9.8175 6.894C9.7686 6.89226 9.71984 6.90039 9.67416 6.91792C9.62847 6.93544 9.58678 6.962 9.55159 6.99601C9.5164 7.03001 9.48842 7.07076 9.46934 7.11582C9.45026 7.16089 9.44046 7.20933 9.44053 7.25827C9.44059 7.3072 9.45053 7.35562 9.46973 7.40063C9.48894 7.44564 9.51702 7.48632 9.55231 7.52022C9.58759 7.55413 9.62935 7.58058 9.67509 7.59798C9.72083 7.61538 9.7696 7.62338 9.8185 7.6215C9.91264 7.61788 10.0017 7.57791 10.067 7.50998C10.1323 7.44206 10.1687 7.35147 10.1685 7.25727C10.1684 7.16306 10.1317 7.07258 10.0663 7.00483C10.0008 6.93709 9.91165 6.89736 9.8175 6.894ZM5.4875 7.5575C5.39097 7.5575 5.29838 7.59585 5.23012 7.66411C5.16185 7.73238 5.1235 7.82496 5.1235 7.9215C5.1235 8.01804 5.16185 8.11062 5.23012 8.17889C5.29838 8.24715 5.39097 8.2855 5.4875 8.2855C5.58404 8.2855 5.67663 8.24715 5.74489 8.17889C5.81315 8.11062 5.8515 8.01804 5.8515 7.9215C5.8515 7.82496 5.81315 7.73238 5.74489 7.66411C5.67663 7.59585 5.58404 7.5575 5.4875 7.5575Z" fill="white"/>
</g>
<defs>
<clipPath id="clip0_7_7954">
<rect width="16" height="16" fill="white"/>
</clipPath>
</defs>
</svg>
