<svg width="16" height="16" viewBox="0 0 16 16" fill="none" xmlns="http://www.w3.org/2000/svg">
<g clip-path="url(#clip0_7_8000)">
<path d="M8 16C12.4183 16 16 12.4183 16 8C16 3.58172 12.4183 0 8 0C3.58172 0 0 3.58172 0 8C0 12.4183 3.58172 16 8 16Z" fill="#347FFB"/>
<path fill-rule="evenodd" clip-rule="evenodd" d="M9.85 6.5275L8.4155 10.4025L8.4065 10.426L8.1435 9.8985L7.5935 10.1485L9.036 6.25L9.586 6L9.8495 6.5275H9.85ZM13.44 6.619L12.006 10.5L11.7425 9.971L11.1925 10.221L11.226 10.13L12.6595 6.25L13.2095 6L13.472 6.5275L13.44 6.619ZM10.37 9.975L11.2145 7.6935L10.663 7.9435L10.401 7.415L9.554 9.696L9.8165 10.225L10.37 9.975ZM5.8015 7.725H3.279L3.709 8.125L3.279 8.5315H5.799L6.227 8.125L5.8015 7.725ZM2.93 9.4165H7.0075L6.579 9.82L7.0075 10.2225H2.93L2.5 9.82L2.93 9.4165ZM4.1805 6.0325H8.2555L7.8285 6.4365L8.256 6.839H4.181L3.751 6.436L4.181 6.0325H4.1805Z" fill="white"/>
</g>
<defs>
<clipPath id="clip0_7_8000">
<rect width="16" height="16" fill="white"/>
</clipPath>
</defs>
</svg>
