<svg width="16" height="16" viewBox="0 0 16 16" fill="none" xmlns="http://www.w3.org/2000/svg">
<g clip-path="url(#clip0_7_7914)">
<path d="M8 16C12.4183 16 16 12.4183 16 8C16 3.58172 12.4183 0 8 0C3.58172 0 0 3.58172 0 8C0 12.4183 3.58172 16 8 16Z" fill="#FFAA5C"/>
<path fill-rule="evenodd" clip-rule="evenodd" d="M13 7.3585C12.998 7.378 12.995 7.397 12.995 7.4165C12.9925 8.0265 12.99 8.637 12.989 9.2475L12.987 10.501C12.987 10.541 12.9835 10.581 12.981 10.631C12.959 10.621 12.943 10.6145 12.928 10.606L10.601 9.3085C10.5595 9.2855 10.556 9.265 10.576 9.224C10.9725 8.41 10.974 7.594 10.5835 6.778C10.565 6.739 10.5685 6.7195 10.6085 6.6975L12.9365 5.391C12.956 5.38 12.9785 5.3745 13 5.3665V7.3585ZM8.15 2.5C8.189 2.5235 8.2275 2.5485 8.2675 2.571L12.792 5.1135C12.809 5.123 12.825 5.1335 12.8485 5.1475C12.8275 5.161 12.8135 5.171 12.798 5.1795L10.489 6.469C10.4285 6.5025 10.429 6.502 10.389 6.445C9.877 5.7275 9.175 5.3175 8.283 5.2135C8.25646 5.21019 8.22974 5.20852 8.203 5.2085C8.156 5.2085 8.138 5.1905 8.138 5.141C8.1375 4.6345 8.1345 4.1275 8.133 3.621L8.1315 2.5715C8.1315 2.5475 8.137 2.524 8.14 2.5H8.15ZM7.84 13.5C7.823 13.4875 7.8075 13.4735 7.79 13.4635L3.2315 10.901C3.21 10.889 3.1895 10.876 3.16 10.859C3.18 10.8455 3.193 10.835 3.208 10.8265C3.973 10.399 4.738 9.972 5.503 9.5435C5.549 9.5175 5.5705 9.5275 5.599 9.567C6.077 10.23 6.73 10.622 7.5495 10.7555C7.633 10.769 7.7185 10.7755 7.803 10.7795C7.851 10.7815 7.87 10.7945 7.87 10.8445C7.8695 11.293 7.8715 11.7415 7.873 12.1895L7.8755 13.4625C7.8755 13.475 7.872 13.4875 7.87 13.5H7.84ZM3 10.225C3.0025 10.21 3.0075 10.1945 3.008 10.179L3.01 9.5475L3.0135 8.134L3.02 5.9045L3.0225 5.424C3.0225 5.41 3.0245 5.396 3.026 5.3735C3.048 5.384 3.064 5.3905 3.079 5.399C3.84 5.824 4.6005 6.249 5.3625 6.673C5.407 6.6975 5.413 6.7165 5.391 6.763C4.991 7.5835 4.993 8.405 5.391 9.2265C5.4235 9.2925 5.4245 9.292 5.3595 9.3285C4.5955 9.7585 3.8315 10.1875 3.067 10.616C3.0475 10.627 3.022 10.628 3 10.6335V10.225ZM9.7365 9.76C9.818 9.4735 9.8445 9.185 9.8265 8.892C9.8055 8.533 9.7165 8.192 9.5295 7.879C9.3145 7.518 9.0035 7.2565 8.6245 7.0665C8.5245 7.016 8.5135 7.0415 8.573 6.9165C8.7075 6.635 8.943 6.46 9.233 6.348C9.43494 6.27436 9.64719 6.23285 9.862 6.225C9.8923 6.22627 9.92095 6.23917 9.942 6.261C10.3023 6.63662 10.5362 7.11543 10.611 7.6305C10.8025 8.934 9.953 10.1575 8.634 10.4815C7.1705 10.8415 5.686 9.9405 5.382 8.5095C5.098 7.17 5.956 5.8745 7.236 5.5325C8.1975 5.276 9.0505 5.4805 9.797 6.1175L9.8815 6.1895L9.871 6.2055C9.7975 6.1965 9.7245 6.1855 9.651 6.1785C9.1945 6.1355 8.7455 6.1655 8.31 6.315C7.7755 6.49194 7.32759 6.86431 7.056 7.3575C7.016 7.4285 7.013 7.429 6.936 7.4025C6.83728 7.36786 6.7483 7.31008 6.6765 7.234C6.53422 7.08647 6.42676 6.90896 6.362 6.7145C6.3035 6.5445 6.2605 6.3695 6.2105 6.197C6.2065 6.1835 6.2035 6.1695 6.1915 6.155C6.1845 6.195 6.1765 6.234 6.1705 6.274C6.1645 6.314 6.1595 6.354 6.1555 6.394C6.108 6.841 6.1335 7.281 6.288 7.7075C6.48 8.2395 6.8415 8.6225 7.3695 8.8555C7.4385 8.886 7.4385 8.8865 7.4015 8.9495C7.206 9.2815 6.8995 9.4485 6.521 9.5055C6.345 9.532 6.169 9.5215 5.9895 9.5085C6.006 9.515 6.022 9.5225 6.0385 9.5285C6.9035 9.826 7.8535 9.6925 8.569 8.9355C8.74892 8.74286 8.90627 8.53032 9.038 8.302C9.072 8.243 9.0745 8.2425 9.1295 8.2825C9.364 8.4535 9.5035 8.6875 9.5995 8.95C9.689 9.1915 9.7245 9.4425 9.733 9.698C9.7335 9.7185 9.735 9.739 9.7365 9.7595V9.76ZM12.8705 10.866L8.139 13.4905C8.1365 13.463 8.133 13.446 8.133 13.4295C8.133 12.5645 8.133 11.6995 8.132 10.8345C8.132 10.796 8.1435 10.782 8.185 10.7785C9.105 10.7025 9.8345 10.2995 10.37 9.567C10.4165 9.5025 10.416 9.502 10.485 9.5405L12.8065 10.828C12.8245 10.838 12.8425 10.8495 12.8705 10.866ZM7.8695 2.518C7.871 2.546 7.8725 2.563 7.8725 2.58C7.8725 3.4335 7.8725 4.287 7.8735 5.14C7.8735 5.18 7.8675 5.2 7.8185 5.2035C6.8795 5.2715 6.137 5.678 5.593 6.425C5.55 6.484 5.551 6.4845 5.488 6.4495L3.2275 5.1945C3.201 5.1795 3.1765 5.1615 3.151 5.1445C3.177 5.1265 3.201 5.106 3.229 5.0905L7.784 2.5625C7.8095 2.5485 7.8355 2.536 7.869 2.518H7.8695Z" fill="white"/>
</g>
<defs>
<clipPath id="clip0_7_7914">
<rect width="16" height="16" fill="white"/>
</clipPath>
</defs>
</svg>
