<svg width="16" height="16" viewBox="0 0 16 16" fill="none" xmlns="http://www.w3.org/2000/svg">
<g clip-path="url(#clip0_7_8087)">
<path d="M8 16C12.4183 16 16 12.4183 16 8C16 3.58172 12.4183 0 8 0C3.58172 0 0 3.58172 0 8C0 12.4183 3.58172 16 8 16Z" fill="#C99705"/>
<path fill-rule="evenodd" clip-rule="evenodd" d="M4 12.127L4.0215 12.0395C4.099 11.741 4.302 11.557 4.605 11.4735C4.9125 11.3885 5.206 11.421 5.4725 11.602C5.56 11.661 5.626 11.7365 5.6685 11.831C5.6805 11.8565 5.704 11.8775 5.7225 11.901C5.7425 11.878 5.771 11.858 5.781 11.832C5.8465 11.6575 5.92 11.485 5.9695 11.307C6.2375 10.337 6.4995 9.36649 6.7625 8.39599C6.773 8.35799 6.7795 8.31849 6.789 8.27249C6.719 8.27249 6.654 8.27299 6.5895 8.27249C6.3685 8.26849 6.1465 8.27499 5.9265 8.25799C5.627 8.23499 5.4235 8.05049 5.418 7.76699C5.413 7.51899 5.5595 7.32849 5.84 7.27999C6.036 7.24599 6.242 7.25899 6.4435 7.25549C6.637 7.25249 6.83 7.25549 7.0235 7.25349C7.041 7.25349 7.0705 7.23349 7.075 7.21799C7.124 7.04599 7.1695 6.87299 7.215 6.69949C7.218 6.68949 7.2155 6.67799 7.2155 6.66099C6.9965 6.66099 6.78 6.66749 6.564 6.65899C6.394 6.65199 6.23 6.61349 6.088 6.51549C5.9115 6.39399 5.863 6.22049 5.8915 6.02849C5.9205 5.83449 6.045 5.70449 6.244 5.64999C6.314 5.63099 6.39 5.62299 6.463 5.62249C6.77516 5.6194 7.08735 5.62007 7.3995 5.62449C7.475 5.62599 7.5085 5.60149 7.5385 5.53849C7.6425 5.32199 7.7445 5.10349 7.865 4.89599C8.085 4.51749 8.343 4.16199 8.663 3.85299C9.0845 3.44699 9.581 3.15899 10.176 3.05349C10.571 2.98349 10.969 2.96649 11.357 3.09949C11.59 3.17949 11.763 3.32799 11.872 3.54149C11.9405 3.67649 12.007 3.80999 11.9995 3.96849C11.978 4.41849 11.5955 4.70449 11.249 4.71599C10.983 4.72499 10.754 4.65299 10.577 4.46049C10.4105 4.27949 10.39 4.06899 10.457 3.84449C10.462 3.82799 10.4685 3.81149 10.4745 3.79449L10.461 3.77749C10.427 3.79949 10.3885 3.81749 10.36 3.84449C10.2106 3.98891 10.0841 4.15533 9.985 4.33799C9.775 4.71399 9.6235 5.11199 9.4985 5.51999C9.4945 5.53249 9.4955 5.54649 9.4935 5.56799C9.6015 5.56799 9.708 5.56949 9.8135 5.56799C9.9675 5.56549 10.1205 5.56599 10.267 5.62099C10.4455 5.68799 10.582 5.79749 10.618 5.98499C10.6545 6.17549 10.617 6.32499 10.439 6.47049C10.294 6.58949 10.124 6.61399 9.9465 6.61999C9.7095 6.62799 9.4715 6.62999 9.2345 6.63399C9.203 6.63449 9.178 6.63399 9.169 6.67399C9.1305 6.83749 9.0885 7.00049 9.048 7.16349C9.046 7.17149 9.0485 7.18049 9.0495 7.19449C9.216 7.19449 9.3815 7.18949 9.5465 7.19549C9.724 7.20199 9.888 7.24849 10.0175 7.37649C10.1755 7.53349 10.1975 7.75849 10.0655 7.93499C10.0225 7.99249 9.971 8.04499 9.9245 8.09999C9.8275 8.21399 9.692 8.25349 9.548 8.25899C9.3015 8.26899 9.0545 8.27149 8.808 8.26999C8.741 8.26999 8.7145 8.28999 8.6995 8.34899C8.612 8.69599 8.528 9.04399 8.431 9.38899C8.236 10.0825 8.019 10.769 7.663 11.407C7.49178 11.7173 7.27598 12.0008 7.0225 12.2485C6.651 12.6095 6.211 12.857 5.685 12.9485C5.326 13.0105 4.964 13.032 4.61 12.9245C4.31 12.8335 4.1025 12.647 4.0225 12.3475L4 12.26V12.127Z" fill="white"/>
</g>
<defs>
<clipPath id="clip0_7_8087">
<rect width="16" height="16" fill="white"/>
</clipPath>
</defs>
</svg>
