<svg width="16" height="16" viewBox="0 0 16 16" fill="none" xmlns="http://www.w3.org/2000/svg">
<g clip-path="url(#clip0_7_7748)">
<path d="M8 16C12.4183 16 16 12.4183 16 8C16 3.58172 12.4183 0 8 0C3.58172 0 0 3.58172 0 8C0 12.4183 3.58172 16 8 16Z" fill="#417BA4"/>
<path d="M3.843 5.3165C3.8265 5.4275 3.831 5.5045 3.89 5.563C3.814 5.6955 3.755 5.794 3.6985 5.904C3.7555 5.794 3.814 5.6975 3.89 5.584C4.0595 5.796 4.589 5.796 5.3095 5.563C5.3945 5.542 5.3945 5.7325 5.3945 5.7325C5.3945 5.8385 5.373 5.9865 4.462 6.114C4.2075 6.156 3.847 6.135 3.678 5.944C3.6355 5.881 3.6145 5.796 3.6145 5.69C3.6145 5.669 3.6145 5.648 3.6355 5.605C3.63633 5.60383 3.63716 5.60267 3.638 5.6015C3.64652 5.5658 3.65998 5.53147 3.678 5.4995C3.699 5.436 3.7415 5.3935 3.784 5.33C3.7625 5.3725 3.7205 5.457 3.678 5.4995C3.70051 5.43593 3.73669 5.37807 3.784 5.33L3.843 5.3165ZM3.97 5.044C4.001 4.998 4.035 4.9525 4.0805 4.9065L4.017 4.9915C4.01328 4.99511 4.00961 4.99878 4.006 5.0025C4.0285 4.971 4.053 4.9395 4.0805 4.9065L4.017 4.9915C4.0004 5.00814 3.98471 5.02567 3.97 5.044ZM3.97 5.044C3.9435 5.083 3.919 5.1215 3.89 5.1605C3.88726 5.16326 3.88459 5.16609 3.882 5.169C3.86445 5.1966 3.84728 5.22443 3.8305 5.2525L3.97 5.044ZM4.4205 4.5365C4.484 4.4835 4.547 4.424 4.6105 4.3765C4.5512 4.45201 4.50782 4.53875 4.483 4.6315C4.462 4.6945 4.462 4.758 4.504 4.8005C4.50015 4.80432 4.49632 4.80815 4.4925 4.812C4.6325 4.968 5.0905 4.922 5.6695 4.6735C5.86 4.5885 6.051 4.5035 6.2205 4.3985C6.284 4.377 6.3685 4.483 6.39 4.5035C6.411 4.525 6.432 4.5885 6.39 4.631C6.178 4.758 5.945 4.885 5.6905 4.97C4.9625 5.282 4.377 5.3285 4.216 5.1295L4.2075 5.1395C4.1865 5.076 4.1655 5.0335 4.1865 4.949C4.1865 4.9275 4.1865 4.9065 4.2075 4.885C4.22671 4.86011 4.2476 4.83656 4.27 4.8145C4.24042 4.84354 4.21254 4.87426 4.1865 4.9065C4.1865 4.885 4.2075 4.843 4.2075 4.8215C4.25 4.7365 4.2925 4.6735 4.356 4.5885C4.371 4.5775 4.385 4.566 4.4 4.554C4.464 4.464 4.5585 4.3865 4.6525 4.292C4.8225 4.144 4.8225 4.144 4.907 4.0805C4.92491 4.06206 4.94449 4.04532 4.9655 4.0305C4.95833 4.03649 4.95116 4.04249 4.944 4.0485C5.004 4.0035 5.066 3.959 5.131 3.9155L5.14 3.9105L5.1725 3.8875C5.47637 3.68806 5.79888 3.5186 6.1355 3.3815C6.1905 3.3505 6.2455 3.3235 6.3005 3.2995C6.268 3.3125 6.242 3.324 6.2115 3.337C6.1588 3.3602 6.10545 3.38187 6.0515 3.402C5.9665 3.4235 5.9665 3.4235 5.7965 3.5085C5.7115 3.5505 5.7115 3.5505 5.5635 3.6355C5.5 3.678 5.5 3.678 5.3515 3.7625C5.29088 3.80278 5.2312 3.84446 5.1725 3.8875C6.5595 3.205 6.4625 3.2345 6.365 3.273C6.24412 3.3103 6.12514 3.35352 6.0085 3.4025C5.5175 3.6125 5.0555 3.9105 4.7665 4.187C4.723 4.222 4.7025 4.242 4.6525 4.292C4.6795 4.2665 4.708 4.241 4.7375 4.2155C4.69239 4.25972 4.64983 4.30647 4.61 4.3555C4.5435 4.422 4.477 4.4755 4.4205 4.5365ZM3.217 9.4515C3.222 9.4695 3.2275 9.4865 3.233 9.503C3.24835 9.55873 3.2776 9.60966 3.318 9.651C3.27857 9.5359 3.2414 9.42005 3.2065 9.3035C3.2045 9.441 3.246 9.5615 3.318 9.651C3.2701 9.52063 3.23461 9.38604 3.212 9.249C3.593 9.7785 5.034 9.651 6.877 8.8675C9.229 7.872 11.3685 6.1775 11.6655 5.076C11.729 4.8005 11.6865 4.61 11.538 4.4615C11.644 4.5675 11.75 4.6945 11.856 4.8005C11.983 4.949 12.004 5.1395 11.941 5.3935C11.644 6.516 9.462 8.232 7.0465 9.2485C4.9495 10.1615 3.368 10.202 3.2165 9.452C3.18 9.3285 3.143 9.169 3.106 9.058C3.127 9.1215 3.1485 9.185 3.191 9.249L3.2035 9.2935C3.20228 9.32004 3.20328 9.34663 3.2065 9.373C3.20488 9.3487 3.20455 9.32433 3.2055 9.3C3.20483 9.29783 3.20417 9.29567 3.2035 9.2935L3.217 9.4515ZM6.657 3.1815L6.6865 3.1695C7.322 3 7.7245 3.0845 7.64 3.4445C7.6185 3.572 7.534 3.699 7.407 3.826C7.301 3.8685 7.068 3.826 7.0255 3.7835C7.1315 3.6565 7.195 3.5505 7.216 3.466C7.282 3.186 6.977 3.111 6.48 3.2405L6.458 3.2485L6.657 3.1815ZM6.6185 3.1965L6.7075 3.1695C6.69063 3.17317 6.6738 3.1775 6.657 3.1815L6.6185 3.1965ZM3.106 8.704V8.719C3.046 8.659 3.0235 8.5805 3.021 8.483C3.01561 8.44072 3.01444 8.39801 3.0175 8.3555C3.02 8.39579 3.02133 8.43614 3.0215 8.4765C3.01569 8.43493 3.01435 8.39286 3.0175 8.351C3.0115 8.24 3 8.113 3 8.02C3 8.1475 3.0425 8.232 3.085 8.3165C3.085 8.3805 3.09 8.449 3.095 8.518C3.085 8.449 3.085 8.3805 3.085 8.3165C4.504 9.8205 10.8815 5.923 10.945 4.271C10.966 3.9745 10.7965 3.8685 10.712 3.805L10.8815 3.911L11.093 4.059C11.263 4.2075 11.3265 4.419 11.263 4.6945C10.9875 5.7535 8.911 7.3845 6.644 8.338C4.849 9.1125 3.4625 9.214 3.106 8.704ZM3.0955 7.088L3.127 6.961C3.0845 7.131 3.106 7.279 3.1905 7.3635C3.19 7.36517 3.1895 7.36683 3.189 7.3685C3.2305 7.4185 3.2875 7.4545 3.36 7.4905C3.4235 7.5755 3.3815 7.787 3.3815 7.787C3.36 7.8505 3.339 7.9355 3.2965 7.9145C3.0845 7.8085 3 7.639 3.0215 7.3845C3.00102 7.51095 3.0314 7.64037 3.106 7.7445L3.108 7.7325C3.04884 7.6346 3.02568 7.51914 3.0425 7.406L3.051 7.351C3.04597 7.36893 3.04312 7.38739 3.0425 7.406L3.0845 7.1095L3.127 6.9395V6.8975L3.0955 7.088ZM3.4065 6.568C3.36645 6.6528 3.33673 6.74211 3.318 6.834C3.254 6.749 3.233 6.6435 3.254 6.516C3.254 6.474 3.254 6.4525 3.2755 6.4105C3.31591 6.28702 3.36538 6.16669 3.4235 6.0505C3.40309 6.11338 3.39633 6.17988 3.40366 6.24558C3.41099 6.31128 3.43224 6.37466 3.466 6.4315L3.4525 6.463C3.718 6.811 4.686 6.723 5.9235 6.1985C7.5125 5.4995 8.9745 4.3555 9.1655 3.6355C9.229 3.3605 9.144 3.1905 8.911 3.1055C8.9535 3.0845 8.9535 3.0845 9.0805 3.127C9.1655 3.1485 9.229 3.1695 9.271 3.1695C9.5465 3.2755 9.6525 3.466 9.568 3.7625C9.356 4.5675 7.767 5.8175 6.0295 6.5585C4.6525 7.1305 3.593 7.2365 3.318 6.834L3.4065 6.568ZM6.6755 12.673C6.421 12.6815 6.21 12.655 6.0505 12.5955C5.9235 12.532 5.754 12.4685 5.6485 12.405C5.907 12.512 6.246 12.5385 6.636 12.5C8.8685 12.28 12.7835 9.934 13 8.4015L12.979 8.465C12.9553 8.59093 12.9411 8.71845 12.9365 8.8465C12.9365 8.8675 12.9365 8.8885 12.9155 8.91C12.661 9.8205 10.8605 11.24 8.89 12.087C8.0025 12.4655 7.235 12.6535 6.6765 12.673C6.67617 12.673 6.67583 12.673 6.6755 12.673ZM6.9235 11.802L6.962 11.7485C6.949 11.766 6.937 11.7835 6.9245 11.8015C7.246 11.7115 7.592 11.595 7.9575 11.4515C8.1905 11.388 8.2755 11.5365 8.2755 11.5365C8.2965 11.5575 8.2965 11.6425 8.1695 11.706C7.6375 11.914 7.1475 12.0635 6.717 12.1535C6.71381 12.1597 6.71065 12.1658 6.7075 12.172L6.714 12.154C5.963 12.3115 5.3935 12.289 5.0975 12.087C4.9915 12.002 4.843 11.897 4.7375 11.812C5.0785 12.104 5.8675 12.0975 6.9235 11.802ZM4.271 11.346C4.186 11.24 4.0805 11.134 4.017 11.028C4.102 11.134 4.229 11.282 4.3135 11.388C4.31268 11.377 4.30792 11.3668 4.30011 11.359C4.2923 11.3513 4.28196 11.3467 4.271 11.346ZM7.64 3.021C7.767 3.021 7.9365 3 8.0635 3C8.5085 3 8.7205 3.1695 8.6355 3.5085C8.5295 3.911 7.9575 4.483 7.216 4.991C7.068 5.0545 6.9195 4.864 6.962 4.7795C6.962 4.758 6.983 4.758 6.983 4.758C7.64 4.313 8.127 3.826 8.233 3.466C8.318 3.127 8.0425 2.979 7.555 3.021H7.64ZM10.182 3.5085C10.4365 3.6355 10.542 3.8475 10.4575 4.165C10.2035 5.118 8.339 6.58 6.305 7.4485C5.9235 7.6175 5.5425 7.745 5.2035 7.8505C5.0125 7.872 4.9915 7.6175 5.0765 7.4905C5.0975 7.4485 5.1185 7.4485 5.14 7.427C5.4575 7.342 5.7965 7.2155 6.157 7.067C8.0845 6.241 9.843 4.843 10.0765 3.953C10.161 3.6355 10.034 3.4235 9.7585 3.318C9.8855 3.3815 10.055 3.445 10.182 3.508V3.5085ZM12.3855 5.6055L12.449 5.7115C12.5125 5.881 12.5125 5.881 12.5125 5.9655V5.9865C12.449 5.9655 12.3225 5.7115 12.301 5.6055C12.301 5.4785 12.2795 5.3935 12.216 5.309L12.3855 5.6055ZM12.8305 6.728C12.8515 6.834 12.8515 6.961 12.8095 7.1095C12.555 8.0415 10.966 9.418 9.038 10.414C8.8265 10.4985 8.699 10.35 8.7415 10.202C8.75868 10.1473 8.79678 10.1017 8.8475 10.075C10.7965 9.058 12.4275 7.66 12.6825 6.707C12.7245 6.537 12.7245 6.389 12.6825 6.262C12.746 6.4315 12.8095 6.601 12.8305 6.728ZM12.979 7.618V7.787C12.979 7.872 12.979 7.9355 12.9575 8.0415C12.8095 8.6135 12.11 9.3545 11.157 10.075C11.0085 10.181 10.9235 10.0325 10.945 9.9265C10.9648 9.86167 11.0014 9.80321 11.051 9.757C12.0465 9.016 12.767 8.253 12.9155 7.66C12.9365 7.554 12.9575 7.4485 12.9365 7.3425L12.979 7.6175V7.618ZM4.2075 5.139C4.1865 5.0755 4.1655 5.0335 4.1865 4.949C4.1655 5.0335 4.1865 5.076 4.2075 5.139ZM3.678 5.944C3.636 5.8805 3.6145 5.7955 3.6145 5.6895C3.6145 5.7955 3.6145 5.8595 3.678 5.944ZM3.3175 6.8335C3.254 6.7485 3.233 6.6435 3.254 6.516C3.233 6.6435 3.2535 6.749 3.3175 6.8335ZM11.305 7.575C11.3215 7.62073 11.3263 7.66988 11.3189 7.71793C11.3115 7.76598 11.2921 7.8114 11.2625 7.85C10.3305 8.6975 8.9535 9.545 7.5125 10.159C5.3725 11.049 3.7625 11.1125 3.6145 10.3495C3.593 10.286 3.6145 10.3285 3.6355 10.3075C3.6355 10.3285 3.6355 10.4345 3.7205 10.5615C3.699 10.519 3.678 10.498 3.657 10.4555C3.6355 10.4345 3.6355 10.4135 3.6145 10.392C3.572 10.3285 3.551 10.244 3.5085 10.1805C3.911 10.71 5.394 10.604 7.301 9.778C8.7415 9.1635 10.1185 8.295 11.051 7.469C11.2205 7.384 11.284 7.5115 11.305 7.575ZM5.945 11.451C5.966 11.4935 5.9875 11.5785 5.9025 11.5995C5.14 11.7265 4.589 11.663 4.3345 11.3875C4.25 11.2815 4.123 11.1335 4.038 11.0275C4.271 11.324 4.843 11.409 5.6695 11.2815C5.818 11.2815 5.9235 11.409 5.9445 11.4515L5.945 11.451ZM12.6185 9.905C12.682 9.778 12.746 9.587 12.7885 9.46C12.5335 10.286 10.9025 11.557 9.123 12.32C8.021 12.7855 7.11 12.955 6.623 12.807C6.75 12.849 6.9405 12.892 7.089 12.913C8.445 13.1245 11.877 11.43 12.619 9.905H12.6185ZM11.517 11.43C11.517 11.451 11.4745 11.515 11.39 11.5785C10.9235 11.9595 10.288 12.341 9.6315 12.616C9.0805 12.849 8.593 12.976 8.233 12.9975H7.703C8.127 13.0185 8.7415 12.8705 9.483 12.574C10.2245 12.256 10.945 11.8325 11.4745 11.3875C11.496 11.3875 11.496 11.3665 11.517 11.3665C11.517 11.3665 11.517 11.3875 11.538 11.3875C11.538 11.3875 11.538 11.409 11.517 11.43ZM3.254 6.4315C3.254 6.4105 3.2755 6.368 3.2755 6.3465C3.318 6.2195 3.4025 6.029 3.445 5.9015C3.445 5.9655 3.4235 6.008 3.4025 6.0715C3.339 6.1775 3.2965 6.3045 3.254 6.4315Z" fill="white"/>
</g>
<defs>
<clipPath id="clip0_7_7748">
<rect width="16" height="16" fill="white"/>
</clipPath>
</defs>
</svg>
