<svg width="16" height="16" viewBox="0 0 16 16" fill="none" xmlns="http://www.w3.org/2000/svg">
<g clip-path="url(#clip0_7_7901)">
<path d="M8 16C12.4183 16 16 12.4183 16 8C16 3.58172 12.4183 0 8 0C3.58172 0 0 3.58172 0 8C0 12.4183 3.58172 16 8 16Z" fill="#7C7CFF"/>
<path d="M8.18259 2.6825L8.19859 5.168L7.86659 5.1705L7.85059 2.685L8.18259 2.6825ZM10.5556 9.2675L12.6611 10.511L12.4926 10.797L10.3876 9.5535L10.5556 9.2675ZM5.45559 9.2675L5.62409 9.5535L3.51909 10.797L3.35059 10.511L5.45559 9.2675Z" fill="white"/>
<path d="M10.7831 6.57751L7.99465 4.95251L5.20215 6.57101L7.99415 8.19001L10.7831 6.57751ZM7.99365 5.33651L10.1216 6.57651L7.99415 7.80651L5.86415 6.57151L7.99415 5.33651H7.99365Z" fill="white"/>
<path d="M8.16069 7.9025L5.36719 6.2825L5.37119 9.516L8.16119 11.123V7.9025H8.16069ZM5.70019 6.859L7.82919 8.093V10.5485L5.70269 9.3235L5.70019 6.859Z" fill="white"/>
<path d="M10.6191 9.52249V6.28949L7.8291 7.90199V11.122L10.6191 9.52249ZM10.2866 6.86449V9.32949L8.1606 10.5495V8.09349L10.2866 6.86449Z" fill="white"/>
<path d="M12.7425 5.25L7.996 2.5L3.25 5.25V10.75L7.996 13.5L12.7425 10.75V5.25ZM7.996 2.8835L12.4105 5.4415V10.5585L7.996 13.116L3.581 10.558V5.442L7.996 2.8835Z" fill="white"/>
<path d="M12.5008 5.20699C12.536 5.18658 12.5775 5.17983 12.6174 5.18803C12.6573 5.19624 12.6928 5.21881 12.7171 5.25147C12.7414 5.28413 12.7529 5.3246 12.7493 5.36516C12.7458 5.40573 12.7274 5.44357 12.6978 5.47149L12.6668 5.49449L7.99577 8.19649L3.33977 5.49399C3.30449 5.4736 3.27793 5.44093 3.26518 5.40222C3.25242 5.36351 3.25435 5.32146 3.2706 5.28409C3.28685 5.24671 3.31628 5.21661 3.35329 5.19954C3.39029 5.18246 3.43229 5.1796 3.47127 5.19149L3.50627 5.20699L7.99627 7.81199L12.5008 5.20699Z" fill="white"/>
<path d="M7.99706 7.8385C8.07706 7.8385 8.14455 7.8955 8.15955 7.971L8.16305 8.0045V13.308C8.16295 13.349 8.14765 13.3886 8.12011 13.419C8.09256 13.4494 8.05472 13.4686 8.0139 13.4727C7.97307 13.4769 7.93214 13.4658 7.89902 13.4416C7.8659 13.4173 7.84294 13.3817 7.83455 13.3415L7.83105 13.308V8.005C7.83105 7.9135 7.90556 7.839 7.99706 7.839V7.8385Z" fill="white"/>
</g>
<defs>
<clipPath id="clip0_7_7901">
<rect width="16" height="16" fill="white"/>
</clipPath>
</defs>
</svg>
