<svg width="16" height="16" viewBox="0 0 16 16" fill="none" xmlns="http://www.w3.org/2000/svg">
<g clip-path="url(#clip0_7_7727)">
<path d="M8 16C12.4183 16 16 12.4183 16 8C16 3.58172 12.4183 0 8 0C3.58172 0 0 3.58172 0 8C0 12.4183 3.58172 16 8 16Z" fill="#42C1CA"/>
<path d="M7.96602 6.454C8.15202 5.6725 8.37602 4.97 8.61402 4.5115C8.70152 4.2925 9.05652 3.768 9.44602 3.4215C10.0945 2.844 10.822 2.6975 11.5795 3.173C11.966 3.4155 12.121 3.665 12.053 3.9C12.003 4.075 11.8115 4.215 11.709 4.2005C11.559 4.2155 11.408 4.1855 11.264 4.0795C11.1428 3.98613 11.0493 3.86151 10.9935 3.719C10.8875 3.469 10.7485 3.384 10.578 3.404C10.4545 3.418 10.311 3.497 10.2655 3.55L10.148 3.68C10.0567 3.77727 9.9756 3.88366 9.90602 3.9975C9.66802 4.394 9.44852 5.1205 9.14402 6.626L11.162 6.9215L11.051 7.73L9.00302 7.43L8.91552 7.962L8.89302 8.095C8.88102 8.164 8.86802 8.239 8.85302 8.319L10.921 8.622L10.8025 9.4295L8.68602 9.1195C8.44152 10.1585 8.11952 11.272 7.89202 11.7115C7.80402 11.931 7.44952 12.4545 7.06002 12.8015C6.41152 13.3785 5.68402 13.5255 4.92652 13.05C4.54002 12.8075 4.38502 12.5575 4.45302 12.3225C4.50302 12.1475 4.69452 12.008 4.79702 12.0225C4.94702 12.0075 5.09802 12.0375 5.24202 12.143C5.35302 12.225 5.44502 12.344 5.51252 12.504C5.61852 12.7535 5.75752 12.839 5.92802 12.819C6.05152 12.8045 6.19502 12.7255 6.24052 12.6725C6.69402 12.1675 7.05352 11.1945 7.50802 8.9475L5.49002 8.6515L5.60102 7.843L7.64902 8.143L7.73702 7.6115C7.75647 7.4921 7.7773 7.37292 7.79952 7.254L5.73952 6.9525L5.85752 6.145L7.96602 6.454Z" fill="white"/>
</g>
<defs>
<clipPath id="clip0_7_7727">
<rect width="16" height="16" fill="white"/>
</clipPath>
</defs>
</svg>
