<svg width="16" height="16" viewBox="0 0 16 16" fill="none" xmlns="http://www.w3.org/2000/svg">
<g clip-path="url(#clip0_7_7848)">
<path d="M8 16C12.4183 16 16 12.4183 16 8C16 3.58172 12.4183 0 8 0C3.58172 0 0 3.58172 0 8C0 12.4183 3.58172 16 8 16Z" fill="#00AFEC"/>
<path d="M10.153 5.91402C10.1775 5.87452 10.1995 5.82202 10.222 5.77702C10.7312 4.87534 10.9992 3.85754 11 2.82202C10.2825 2.40802 9.525 2.14702 8.701 2.05652C9.006 3.38752 9.438 4.67652 10.0625 5.89102L10.153 5.91402ZM6.039 5.68652L6.0165 5.68152L5.8415 5.64152V5.63852H5.839L5.9965 4.95202C6.113 4.97702 6.2295 5.00452 6.3455 5.03302H6.348C6.77263 4.07502 7.10367 3.07822 7.3365 2.05652C6.26266 2.1751 5.24091 2.58197 4.3795 3.23402V3.23602C3.65673 3.78334 3.0672 4.48715 2.65511 5.2947C2.24303 6.10225 2.01906 6.9926 2 7.89902V8.01902C2.64045 8.3871 3.34256 8.63549 4.072 8.75202L4.0755 8.74852C4.84098 7.80331 5.49996 6.77661 6.0405 5.68702L6.039 5.68652ZM9.795 6.69902C9.9265 6.76902 9.9755 6.86902 10.038 7.06502C10.1245 7.36102 10.066 7.67252 10.0045 7.96502L10.73 8.13352L10.91 7.35202C11.6425 8.47952 12.455 9.64402 13.4415 10.558C13.2625 10.9645 13.1515 11.1065 12.888 11.4635C11.273 10.9665 9.553 10.703 7.863 10.7195L8.0075 10.142L7.5255 10.0295C7.4505 10.0105 7.374 9.97702 7.329 9.91102C7.2725 9.83602 7.2725 9.73702 7.2915 9.64852L7.593 8.33752C7.749 8.37502 7.912 8.39952 8.058 8.46902C8.12632 8.49645 8.18721 8.53957 8.23577 8.5949C8.28433 8.65023 8.31918 8.71622 8.3375 8.78752C8.377 8.98652 8.2925 9.17752 8.2585 9.36902L8.9075 9.51902L9.4485 7.17502L9.3935 7.15652L9.351 7.14852C9.501 6.99102 9.632 6.85102 9.7675 6.68002L9.795 6.69902ZM4.091 8.90252L4.1065 8.88102C4.2325 8.90902 4.3295 8.89852 4.4585 8.91202C4.92 8.95302 5.368 8.96202 5.8275 8.89702C5.8625 8.89202 5.8985 8.88852 5.934 8.88702L5.8275 9.29602C5.8085 9.37702 5.773 9.46102 5.7035 9.51202C5.66914 9.53481 5.63042 9.55022 5.5898 9.55727C5.54918 9.56433 5.50753 9.56288 5.4675 9.55302C5.3025 9.51952 5.1375 9.47452 4.9705 9.44252C4.92 9.67102 4.8655 9.90002 4.813 10.127L5.921 10.3835C5.876 10.59 5.865 10.646 5.818 10.8505C4.89566 10.977 3.98469 11.1758 3.0935 11.445C2.831 11.0885 2.7185 11.0025 2.5425 10.5955C3.1035 10.0755 3.6085 9.49702 4.091 8.90252ZM6.6635 10.5545L7.108 10.6575L7.093 10.7455L6.6185 10.7795L6.6635 10.5545ZM5.844 8.76502C5.87849 8.76026 5.9132 8.75726 5.948 8.75602V8.75402L6.52 6.27902C6.5425 6.16652 6.5875 6.05402 6.552 5.94152C6.53827 5.90118 6.51542 5.86455 6.48525 5.83446C6.45508 5.80437 6.41838 5.78164 6.378 5.76802L6.3595 5.76202C6.2645 5.73652 6.3375 5.75452 6.241 5.73202C6.2305 5.72952 6.1825 5.74552 6.1715 5.74352C5.63695 6.82039 4.98427 7.83446 4.2255 8.76702C4.351 8.79352 4.3305 8.78602 4.456 8.79902C4.9185 8.84152 5.384 8.83002 5.8435 8.76552L5.844 8.76502Z" fill="white"/>
<path d="M7.11468 5.20851V5.21051C7.20268 4.83901 7.28518 4.46601 7.37518 4.09501L8.11418 4.26501L7.85718 5.38101L8.29968 5.48401C8.34368 5.29851 8.38718 5.11251 8.42968 4.92651L8.49418 4.64751L8.55868 4.36851L9.29718 4.53701C9.28718 4.58701 9.27618 4.63701 9.26518 4.68701C9.19368 5.01051 9.11418 5.33101 9.04268 5.65551L9.89318 5.85351C9.26868 4.63851 8.85518 3.36851 8.55068 2.03751C8.35968 2.01501 8.27918 2.02251 8.08568 2.01901H7.96768C7.75568 2.01901 7.67718 2.01351 7.46918 2.03751C7.23518 3.05901 6.95918 4.13051 6.53418 5.08851L7.11468 5.20851ZM8.09518 6.16301L8.11768 6.16801L8.12018 6.16301H8.09518Z" fill="white"/>
<path d="M8.0975 6.16251L7.7545 7.64951C7.9675 7.69651 8.1895 7.77451 8.4085 7.71301C8.4789 7.69084 8.54276 7.65171 8.59447 7.59904C8.64617 7.54638 8.68413 7.4818 8.705 7.41101C8.746 7.27951 8.7665 7.14451 8.8025 7.01351L9.1645 7.10551C9.1805 7.10801 9.162 7.11751 9.1725 7.10701L9.1815 7.10001C9.3315 6.93901 9.5015 6.76251 9.6365 6.59201C9.41503 6.48124 9.17904 6.4023 8.9355 6.35751L8.0975 6.16251ZM13.4825 5.57801C12.965 4.42101 12.2275 3.55001 11.131 2.91501C11.13 3.95101 10.881 4.87551 10.372 5.77801C10.3411 5.83448 10.3129 5.89238 10.2875 5.95151C10.6305 6.02651 10.8445 6.07251 11.1875 6.14951V6.15301L10.9665 7.14651C11.6975 8.27351 12.513 9.51451 13.4975 10.4295C13.8115 9.71351 13.9825 8.94301 14 8.16101V7.87951C13.9809 7.08557 13.805 6.30325 13.4825 5.57751V5.57801ZM2 8.15001V8.23651C2.0115 9.03601 2.1825 9.69351 2.5025 10.4265C3.03337 9.9368 3.5266 9.4078 3.978 8.84401C3.2505 8.72801 2.6375 8.52001 2 8.15001ZM7.8425 10.85L7.591 11.945H7.5895L6.847 11.775L7.0535 10.8765L6.581 10.91L6.406 11.6715H6.405L5.662 11.501C5.7 11.332 5.737 11.167 5.7785 11.0005C4.894 11.1205 4.021 11.313 3.1685 11.576C3.71602 12.3191 4.4274 12.926 5.24745 13.3497C6.06749 13.7734 6.97413 14.0024 7.897 14.019H8.1425C9.05851 13.9954 9.95705 13.763 10.7697 13.3397C11.5824 12.9163 12.2877 12.3131 12.832 11.576C11.2162 11.0784 9.53314 10.8335 7.8425 10.85Z" fill="white"/>
</g>
<defs>
<clipPath id="clip0_7_7848">
<rect width="16" height="16" fill="white"/>
</clipPath>
</defs>
</svg>
