<svg width="16" height="16" viewBox="0 0 16 16" fill="none" xmlns="http://www.w3.org/2000/svg">
<g clip-path="url(#clip0_7_7899)">
<path d="M8 16C12.4183 16 16 12.4183 16 8C16 3.58172 12.4183 0 8 0C3.58172 0 0 3.58172 0 8C0 12.4183 3.58172 16 8 16Z" fill="#C40E09"/>
<path fill-rule="evenodd" clip-rule="evenodd" d="M11.1 3.57C11.145 3.605 11.1855 3.635 11.223 3.6675C11.322 3.755 11.4215 3.8425 11.518 3.933C11.5945 4.006 11.667 4.084 11.7405 4.1605C11.7465 4.1665 11.7515 4.1805 11.7495 4.1885C11.7045 4.3625 11.6365 4.5265 11.5455 4.6795C11.4655 4.8135 11.3735 4.9365 11.2665 5.047C11.1215 5.197 10.959 5.322 10.781 5.4245C10.7035 5.4695 10.624 5.5095 10.5445 5.5495C10.291 5.678 10.021 5.75 9.74598 5.801C9.55848 5.836 9.36898 5.861 9.18048 5.887C8.93248 5.921 8.68398 5.9485 8.43648 5.9845C8.07148 6.0375 7.71398 6.1205 7.37498 6.278C7.00198 6.4515 6.69148 6.705 6.48048 7.0795C6.33998 7.3295 6.28298 7.602 6.28548 7.891C6.28998 8.4445 6.47948 8.923 6.80648 9.3485C7.00648 9.6085 7.23448 9.8395 7.47448 10.0575C7.64048 10.209 7.80998 10.356 7.97548 10.5075C8.18698 10.7025 8.39898 10.897 8.58048 11.1245C8.67548 11.2445 8.76948 11.3675 8.85098 11.498C8.98998 11.721 9.10048 11.9605 9.17298 12.217C9.21298 12.357 9.23698 12.4995 9.24798 12.6455C9.26389 12.8625 9.24465 13.0806 9.19098 13.2915C9.16948 13.378 9.16848 13.3795 9.08298 13.395C8.96248 13.4175 8.84198 13.4405 8.72098 13.46C8.63248 13.4735 8.54348 13.482 8.45448 13.492C8.42348 13.496 8.39198 13.4975 8.36048 13.5L8.34198 13.4995C8.34248 13.4925 8.34198 13.4855 8.34398 13.4795C8.37098 13.408 8.40098 13.3375 8.42648 13.2655C8.48266 13.1108 8.52058 12.95 8.53948 12.7865C8.57261 12.499 8.51989 12.2081 8.38798 11.9505C8.29616 11.7767 8.17924 11.6173 8.04098 11.4775C7.85298 11.28 7.64598 11.107 7.43848 10.9345C7.09198 10.646 6.75698 10.3445 6.45098 10.0085C6.26482 9.80568 6.09558 9.58796 5.94498 9.3575C5.78022 9.10901 5.65098 8.83874 5.56098 8.5545C5.42344 8.11256 5.41909 7.6399 5.54848 7.1955C5.62148 6.9385 5.71998 6.697 5.87198 6.4805C6.07298 6.194 6.33248 5.9805 6.62998 5.8155C6.92998 5.648 7.24998 5.538 7.57948 5.4555C7.84448 5.3885 8.11298 5.3385 8.38348 5.3055C8.68848 5.2685 8.99348 5.2375 9.29848 5.203C9.54748 5.175 9.79498 5.1405 10.0355 5.0645C10.2545 4.99837 10.4557 4.8835 10.624 4.7285C10.7695 4.5925 10.8775 4.4295 10.955 4.2425C11.0265 4.07 11.0615 3.888 11.087 3.7035C11.0925 3.6625 11.095 3.6205 11.1 3.57ZM7.56998 9.983C7.67948 9.9615 7.78348 9.943 7.88698 9.9205C8.15298 9.8615 8.41548 9.7905 8.66198 9.6645C8.90455 9.54157 9.12024 9.3716 9.29648 9.1645C9.47648 8.9515 9.62398 8.717 9.70098 8.439C9.74926 8.263 9.76619 8.07987 9.75098 7.898C9.7196 7.52782 9.59319 7.172 9.38398 6.865C9.22603 6.63277 9.04512 6.41701 8.84398 6.221C8.80898 6.1855 8.77198 6.151 8.73648 6.116C8.73148 6.111 8.72748 6.105 8.71998 6.096L8.90998 6.0665L9.32148 6.004C9.39348 5.993 9.46548 5.981 9.53748 5.9715C9.54598 5.9705 9.55798 5.98 9.56498 5.9875C9.69298 6.1365 9.82398 6.2825 9.94698 6.436C10.107 6.635 10.242 6.853 10.352 7.088C10.4495 7.2975 10.521 7.5155 10.556 7.7465C10.5805 7.908 10.591 8.071 10.5745 8.234C10.5265 8.6905 10.391 9.113 10.1235 9.482C9.95748 9.7115 9.75298 9.897 9.52248 10.052C9.254 10.2291 8.96198 10.3676 8.65498 10.4635C8.52348 10.5055 8.39048 10.5415 8.25798 10.5785C8.25187 10.5799 8.24554 10.5799 8.23941 10.5786C8.23328 10.5773 8.22751 10.5747 8.22248 10.571C8.00898 10.381 7.79648 10.1895 7.58398 9.9985C7.57998 9.9955 7.57698 9.991 7.57048 9.9835L7.56998 9.983ZM8.62798 5.134L8.30598 5.184L7.94098 5.2405C7.89848 5.2475 7.85548 5.2555 7.81198 5.26C7.79606 5.26117 7.7803 5.25616 7.76798 5.246C7.62746 5.11689 7.49692 4.97733 7.37748 4.8285C7.31248 4.746 7.24648 4.6635 7.18898 4.575C6.99398 4.273 6.84148 3.9505 6.77698 3.588C6.71929 3.2785 6.73609 2.95972 6.82598 2.658C6.83148 2.638 6.83748 2.628 6.86098 2.6235C6.99498 2.6005 7.12748 2.5705 7.26098 2.5485C7.37098 2.531 7.48298 2.522 7.59398 2.509L7.68498 2.5C7.67698 2.518 7.67248 2.53 7.66698 2.5405C7.57136 2.7363 7.50547 2.94527 7.47148 3.1605C7.42622 3.45461 7.47357 3.75551 7.60698 4.0215C7.71748 4.244 7.86848 4.4325 8.03948 4.6065C8.21748 4.7865 8.41048 4.9485 8.60398 5.11C8.61098 5.116 8.61648 5.1225 8.62798 5.134ZM7.04098 10.778L6.82798 10.8005C6.73798 10.8105 6.64798 10.8175 6.55798 10.8315C6.41948 10.853 6.28048 10.874 6.14348 10.9045C5.64198 11.0155 5.25148 11.2815 5.03848 11.793C4.96046 11.9795 4.90231 12.1738 4.86498 12.3725C4.86348 12.3815 4.86048 12.3905 4.85648 12.4065C4.82798 12.3845 4.80148 12.3665 4.77748 12.3455C4.67748 12.2565 4.57798 12.1685 4.48048 12.0775C4.40998 12.0115 4.34348 11.941 4.27348 11.874C4.24998 11.8515 4.24548 11.829 4.25398 11.797C4.34866 11.455 4.53525 11.1454 4.79348 10.902C4.9603 10.7472 5.14693 10.6152 5.34848 10.5095C5.63148 10.3545 5.93398 10.2655 6.24398 10.1985C6.27998 10.191 6.31698 10.187 6.35198 10.1775C6.37398 10.1715 6.38848 10.1775 6.40398 10.192L6.69298 10.4565L7.01348 10.751C7.02305 10.7596 7.03223 10.7686 7.04098 10.778ZM9.20448 8.589C9.17948 8.583 9.15448 8.5775 9.13048 8.57L7.40498 8.0305C7.18348 7.9615 6.96248 7.893 6.74148 7.8235C6.65648 7.797 6.61298 7.7275 6.61948 7.6565C6.62848 7.5515 6.66348 7.4785 6.76198 7.459C6.78915 7.45487 6.81692 7.45727 6.84298 7.466C7.02998 7.5235 7.21648 7.5835 7.40298 7.6415L8.72348 8.0535L9.24998 8.217C9.28936 8.22786 9.32351 8.25253 9.34618 8.2865C9.36886 8.32047 9.37855 8.36147 9.37348 8.402C9.35898 8.5135 9.29248 8.586 9.20448 8.589ZM5.55948 11.837C5.57548 11.841 5.59448 11.8445 5.61298 11.85L8.01548 12.6C8.09798 12.626 8.14698 12.695 8.13948 12.776C8.12998 12.885 8.07298 12.9575 7.98748 12.965C7.96102 12.9663 7.93455 12.9626 7.90948 12.954C7.24698 12.748 6.58498 12.541 5.92298 12.334C5.78498 12.291 5.64698 12.249 5.50948 12.2055C5.43248 12.181 5.38148 12.1155 5.38698 12.0405C5.39498 11.9415 5.43148 11.866 5.51998 11.8435C5.53148 11.84 5.54348 11.8395 5.55948 11.837ZM10.6245 3.955C10.617 3.977 10.607 4.023 10.5855 4.0615C10.5505 4.1245 10.479 4.148 10.4085 4.126L9.24998 3.764C8.83548 3.6345 8.42098 3.505 8.00598 3.3765C7.93548 3.3545 7.88298 3.313 7.87498 3.233C7.86598 3.143 7.90748 3.0225 8.02548 3.009C8.04786 3.00751 8.07031 3.01057 8.09148 3.018L10.4995 3.7695C10.5795 3.7945 10.6245 3.8535 10.6245 3.955ZM7.16698 7.1865C7.17198 7.083 7.21698 7.005 7.29798 6.989C7.32984 6.98336 7.36258 6.98542 7.39348 6.995C7.63648 7.069 7.87848 7.1455 8.12148 7.2215L9.03748 7.5065C9.07814 7.51779 9.11315 7.5438 9.1357 7.57947C9.15825 7.61514 9.16673 7.65793 9.15948 7.6995C9.14098 7.8145 9.07248 7.8845 8.97948 7.8745C8.93198 7.8685 8.88548 7.8495 8.83848 7.835L7.64748 7.463L7.28848 7.351C7.2525 7.34156 7.22082 7.3201 7.19872 7.29017C7.17662 7.26025 7.16542 7.22367 7.16698 7.1865ZM7.00098 8.1315C7.03298 8.14 7.05698 8.1445 7.08048 8.1515L8.59048 8.6235C8.63198 8.6365 8.67398 8.6485 8.71548 8.662C8.80798 8.692 8.85298 8.778 8.82898 8.876C8.81048 8.9535 8.77348 9.013 8.69348 9.0265C8.66732 9.03027 8.64065 9.02805 8.61548 9.02C8.42348 8.9615 8.23198 8.901 8.04048 8.841C7.68398 8.73 7.32798 8.6185 6.97198 8.5085C6.90598 8.488 6.85598 8.4485 6.84498 8.376C6.83248 8.2955 6.85348 8.221 6.91798 8.1695C6.94298 8.15 6.97598 8.1425 7.00098 8.1315ZM5.60948 12.725C5.61648 12.617 5.66348 12.5325 5.76098 12.522C5.78237 12.5199 5.80396 12.5221 5.82448 12.5285C6.37848 12.701 6.93248 12.8735 7.48648 13.047C7.57548 13.075 7.61898 13.163 7.59648 13.257C7.57748 13.337 7.53648 13.393 7.45798 13.411C7.44331 13.4151 7.42782 13.4155 7.41298 13.412L5.85948 12.927C5.81398 12.9125 5.76798 12.899 5.72198 12.884C5.68874 12.8729 5.6599 12.8515 5.63967 12.8229C5.61943 12.7943 5.60886 12.76 5.60948 12.725ZM6.10798 11.365C6.12298 11.369 6.14298 11.3725 6.16248 11.3785L7.80298 11.8905C7.88298 11.9155 7.93298 11.9855 7.92698 12.0635C7.91848 12.1705 7.86348 12.244 7.77948 12.2545C7.75106 12.2568 7.72246 12.2532 7.69548 12.244C7.25298 12.1065 6.81048 11.9675 6.36848 11.829C6.26298 11.7965 6.15698 11.764 6.05198 11.7305C5.97498 11.7055 5.92848 11.642 5.93498 11.563C5.94298 11.46 5.98298 11.393 6.06898 11.3705C6.07998 11.3675 6.09148 11.3675 6.10798 11.3655V11.365ZM9.91898 4.584C9.86498 4.568 9.81248 4.5535 9.75998 4.537C9.24648 4.377 8.73298 4.2155 8.21898 4.055C8.11648 4.0225 8.07498 3.94 8.10298 3.831C8.12048 3.7615 8.15648 3.7115 8.22398 3.696C8.25375 3.68936 8.28472 3.69039 8.31398 3.699C8.76898 3.8395 9.22448 3.982 9.67998 4.124C9.77748 4.154 9.87448 4.185 9.97198 4.2155C10.009 4.22738 10.0406 4.25195 10.0613 4.28488C10.082 4.31782 10.0904 4.35699 10.085 4.3955C10.0765 4.4615 10.058 4.5255 9.99498 4.558C9.97148 4.57 9.94498 4.575 9.91898 4.584ZM10.4105 3.234C10.401 3.3005 10.383 3.373 10.307 3.41C10.2682 3.42727 10.2242 3.42853 10.1845 3.4135L9.00198 3.0435L8.54048 2.8985C8.44348 2.8685 8.40148 2.7845 8.42798 2.681C8.44598 2.6105 8.47998 2.556 8.55048 2.541C8.58142 2.53497 8.61337 2.53669 8.64348 2.546C8.95448 2.642 9.26498 2.74 9.57548 2.837L10.288 3.059C10.3655 3.0835 10.411 3.144 10.4105 3.234Z" fill="white"/>
</g>
<defs>
<clipPath id="clip0_7_7899">
<rect width="16" height="16" fill="white"/>
</clipPath>
</defs>
</svg>
