<svg width="16" height="16" viewBox="0 0 16 16" fill="none" xmlns="http://www.w3.org/2000/svg">
<g clip-path="url(#clip0_7_7795)">
<path d="M8 16C12.4183 16 16 12.4183 16 8C16 3.58172 12.4183 0 8 0C3.58172 0 0 3.58172 0 8C0 12.4183 3.58172 16 8 16Z" fill="#2080A2"/>
<path fill-rule="evenodd" clip-rule="evenodd" d="M7.99 10.1485C7.4175 10.802 7.4035 11.6985 7.9965 12.2955C8.557 11.7555 8.5575 10.749 7.99 10.1485ZM7.9905 4.0525C6.638 5.6165 6.689 7.4655 7.9895 9.002C9.3135 7.434 9.317 5.5945 7.9905 4.0525ZM8.9465 8.565C10.0715 7.415 11.444 7.152 13 7.401C12.4985 8.551 11.791 9.4695 10.541 9.95C10.817 9.7335 11.0685 9.5565 11.296 9.3535C11.676 9.015 11.945 8.605 12.0795 8.1125C12.122 7.957 12.067 7.913 11.924 7.89C11.4005 7.806 10.909 7.916 10.4395 8.13C9.6495 8.49 9.006 9.0445 8.4025 9.647C8.392 9.658 8.3875 9.674 8.3685 9.7085C9.551 9.7535 10.4515 10.2255 10.985 11.316C10.292 11.47 9.658 11.4375 9.07 11.0595C9.513 11.1955 9.955 11.2945 10.44 11.0645C10.38 10.9645 10.345 10.8475 10.265 10.782C10.0465 10.6035 9.8225 10.423 9.575 10.287C9.1925 10.078 8.765 9.98 8.292 9.883C8.9305 11.0015 8.7705 12.017 7.99 13C7.627 12.5425 7.373 12.064 7.3035 11.499C7.2335 10.932 7.393 10.417 7.6665 9.924C7.0615 9.827 5.756 10.5275 5.554 11.0675C6.0225 11.3045 6.4795 11.1965 6.95 11.0215C6.612 11.3695 5.6375 11.512 5.002 11.3025C5.5295 10.2275 6.4255 9.754 7.6345 9.709C7.5455 9.619 7.4795 9.5495 7.4105 9.483C6.9075 8.998 6.373 8.553 5.745 8.229C5.2315 7.964 4.693 7.798 4.1015 7.8865C4.0315 7.897 3.962 7.914 3.864 7.934C4.044 8.859 4.664 9.4325 5.431 9.916C4.625 9.8185 3.265 8.41 3 7.399C4.555 7.147 5.935 7.423 7.055 8.5985C6.1285 6.535 6.6215 4.7085 7.99 3C9.3475 4.695 9.8455 6.5085 8.9465 8.565Z" fill="white"/>
</g>
<defs>
<clipPath id="clip0_7_7795">
<rect width="16" height="16" fill="white"/>
</clipPath>
</defs>
</svg>
