<svg width="16" height="16" viewBox="0 0 16 16" fill="none" xmlns="http://www.w3.org/2000/svg">
<g clip-path="url(#clip0_7_7896)">
<path d="M8 16C12.4183 16 16 12.4183 16 8C16 3.58172 12.4183 0 8 0C3.58172 0 0 3.58172 0 8C0 12.4183 3.58172 16 8 16Z" fill="#2B61D1"/>
<path d="M8.9815 12.931L8 13.5L5.891 12.279L6.8485 11.7245L6.8725 11.7105L6.909 11.7315L8.9815 12.931ZM12.75 5.25V6.3945L10.674 5.193L10.111 4.867L9.548 5.193L6.909 6.7205L6.346 7.0465V7.7205L5.331 7.1325L4.7675 6.8065L4.2045 7.1325L3.25 7.6855V5.25L8 2.5L12.75 5.25Z" fill="white"/>
<path d="M12.75 7.69851V10.754L10.111 12.282L10.1075 12.28L7.4725 10.754V7.69901L10.111 6.17001L12.75 7.69851ZM6.2855 8.98951V10.7465L4.768 11.625L3.25 10.7465V8.98951L4.768 8.11051L6.2855 8.98951Z" fill="white"/>
</g>
<defs>
<clipPath id="clip0_7_7896">
<rect width="16" height="16" fill="white"/>
</clipPath>
</defs>
</svg>
