<svg width="16" height="16" viewBox="0 0 16 16" fill="none" xmlns="http://www.w3.org/2000/svg">
<g clip-path="url(#clip0_7_8100)">
<path d="M8 16C12.4183 16 16 12.4183 16 8C16 3.58172 12.4183 0 8 0C3.58172 0 0 3.58172 0 8C0 12.4183 3.58172 16 8 16Z" fill="#1D9AD7"/>
<path fill-rule="evenodd" clip-rule="evenodd" d="M13.0005 6.10599C12.496 5.57899 11.4595 5.13799 9.52648 4.86749C8.91701 4.78216 8.30505 4.71562 7.69148 4.66799C7.21498 4.63949 6.75248 4.61099 6.30448 4.61099C5.56198 5.72099 4.86148 7.05949 4.24498 8.66799C3.57248 10.433 2.97048 12.17 2.55048 13.75H2.42448C2.46648 12.056 2.74648 10.1345 3.32098 8.14149C3.69948 6.84649 4.14748 5.70699 4.65198 4.71099C2.38198 4.95299 0.756977 5.65049 0.000976562 6.64649C0.645477 5.06649 2.56448 3.72849 5.49248 3.25899C7.04748 0.938493 8.88248 -0.101007 10.4095 0.354993C10.9415 0.511493 11.39 0.852993 11.7545 1.33699C11.712 1.30849 11.67 1.27999 11.6145 1.26599C10.4935 0.810493 8.98048 1.46499 7.50948 3.08799H7.57948C10.8715 3.07399 12.538 4.46899 13.0005 6.10599ZM8.88198 8.24099C9.77848 8.24099 10.507 8.99549 10.507 9.92099C10.507 10.846 9.77848 11.6005 8.88198 11.6005C7.98548 11.6005 7.25698 10.846 7.25698 9.92049C7.25698 8.98149 7.98548 8.24099 8.88198 8.24099Z" fill="white"/>
</g>
<defs>
<clipPath id="clip0_7_8100">
<rect width="16" height="16" fill="white"/>
</clipPath>
</defs>
</svg>
