<svg width="16" height="16" viewBox="0 0 16 16" fill="none" xmlns="http://www.w3.org/2000/svg">
<g clip-path="url(#clip0_7_7893)">
<path d="M8 16C12.4183 16 16 12.4183 16 8C16 3.58172 12.4183 0 8 0C3.58172 0 0 3.58172 0 8C0 12.4183 3.58172 16 8 16Z" fill="#27323A"/>
<path d="M12.3015 3C12.3015 3 13.125 3.732 12.5405 5.2215C12.4294 5.49531 12.2751 5.74953 12.0835 5.9745L10.051 8.3595L8.42 10.4885C8.42 10.4885 6.547 10.1805 5.819 10.936L8.906 11.073C8.906 11.073 8.247 11.7945 5.646 11.278C5.646 11.278 5.681 12.002 6.8605 12.208C6.8605 12.208 5.819 12.5525 5.1945 11.5545C5.1945 11.5545 5.1945 12.2785 5.9225 12.5865C5.9225 12.5865 5.3325 12.7235 4.8465 12.105L4.015 12.997C4.015 12.997 3.8425 13.0315 3.946 12.8605L4.6395 12.0365C4.6395 12.0365 4.7085 11.452 4.2915 11.6575C4.2915 11.6575 4.015 11.76 4.1185 12.0705C4.1185 12.0705 3.7015 11.7285 4.188 11.281L3.25 10.352L4.464 11.0045L3.9435 9.733L4.8095 10.8335C4.8095 10.8335 4.7375 9.5965 5.1205 9.254C5.1205 9.254 5.224 10.457 5.7105 10.56L5.6755 8.051L6.1965 7.604L6.2655 9.183C6.2655 9.183 6.4035 9.354 6.5415 9.149C6.5415 9.149 6.855 8.633 6.855 7.122L7.6865 6.332L7.7905 6.951C7.7905 6.951 7.931 7.1905 8.104 6.985L8.2765 5.7825C8.2765 5.7825 9.3865 4.511 12.3015 3ZM6.7515 9.975C9.6285 7.33 11.1565 4.753 11.1535 4.753C9.7325 5.748 6.7515 9.975 6.7515 9.975Z" fill="white"/>
</g>
<defs>
<clipPath id="clip0_7_7893">
<rect width="16" height="16" fill="white"/>
</clipPath>
</defs>
</svg>
