<svg width="16" height="16" viewBox="0 0 16 16" fill="none" xmlns="http://www.w3.org/2000/svg">
<g clip-path="url(#clip0_7_7892)">
<path d="M8 16C12.4183 16 16 12.4183 16 8C16 3.58172 12.4183 0 8 0C3.58172 0 0 3.58172 0 8C0 12.4183 3.58172 16 8 16Z" fill="#4096D0"/>
<path d="M12.766 5H9.5185L8.5555 7.415H5.5185V6.17151H8.5555L9 5H4.401C4.34406 4.99974 4.28935 5.02207 4.24885 5.06209C4.20836 5.10212 4.1854 5.15657 4.185 5.2135V7.41451H3.445L3 8.5855H4.185V10.784C4.185 10.903 4.283 11 4.404 11H6.6295L7.074 9.8295H5.5185V8.58501H8.037L7.074 11H8.5555L9.5925 8.58501H12.7825C12.9025 8.58501 13 8.489 13 8.3705V5.23051C12.9995 5.16893 12.9745 5.11008 12.9307 5.06686C12.8868 5.02365 12.8276 4.99961 12.766 5ZM11.741 7.23001C11.741 7.33201 11.6575 7.415 11.554 7.415H10.037L10.5555 6.172H11.553C11.6024 6.17147 11.65 6.19054 11.6853 6.22504C11.7206 6.25953 11.7408 6.30663 11.7415 6.356L11.741 7.23001Z" fill="white"/>
</g>
<defs>
<clipPath id="clip0_7_7892">
<rect width="16" height="16" fill="white"/>
</clipPath>
</defs>
</svg>
