<svg width="16" height="16" viewBox="0 0 16 16" fill="none" xmlns="http://www.w3.org/2000/svg">
<g clip-path="url(#clip0_7_7891)">
<path d="M8 16C12.4183 16 16 12.4183 16 8C16 3.58172 12.4183 0 8 0C3.58172 0 0 3.58172 0 8C0 12.4183 3.58172 16 8 16Z" fill="#ED1968"/>
<path d="M6.35042 13.45C5.71161 13.273 5.11597 12.9667 4.60042 12.55C4.09243 12.1587 3.6531 11.6855 3.30042 11.15C2.92435 10.5866 2.65332 9.95987 2.50042 9.29999C2.32538 8.50957 2.32538 7.69042 2.50042 6.89999C2.6496 6.23136 2.90267 5.59024 3.25042 4.99999C3.75953 4.18321 4.48692 3.52508 5.35042 3.09999C5.65366 2.93678 5.97177 2.80284 6.30042 2.69999C6.80042 3.29999 7.30042 3.94999 7.80042 4.59999C7.85042 4.69999 7.95042 4.74999 8.00042 4.84999C7.49889 4.87102 7.00632 4.98992 6.55042 5.19999C6.14739 5.41069 5.79043 5.69967 5.50042 6.04999C5.21508 6.42719 4.99534 6.84977 4.85042 7.29999C4.7169 7.84432 4.73418 8.41475 4.90042 8.94999L7.05042 7.24999C7.55042 7.89999 8.05042 8.49999 8.55042 9.14999C7.85042 9.69999 7.10042 10.25 6.40042 10.85C7.10042 11.75 7.85042 12.7 8.55042 13.65C7.81117 13.7374 7.0618 13.6693 6.35042 13.45ZM11.1154 7.39299C11.0971 7.31114 11.0754 7.23008 11.0504 7.14999C10.9829 7.20299 9.49542 8.33999 8.90042 8.84999C8.40042 8.19999 7.90042 7.59999 7.40042 6.94999C8.10042 6.39999 8.85042 5.84999 9.55042 5.24999C8.85042 4.34999 8.15042 3.44999 7.40042 2.49999C7.40042 2.44999 7.35042 2.44999 7.35042 2.39999H8.05042C9.33298 2.41197 10.571 2.87181 11.5504 3.69999C12.0277 4.09441 12.4336 4.56798 12.7504 5.09999C13.1235 5.67271 13.3628 6.32212 13.4504 6.99999C13.5844 7.7793 13.5674 8.57709 13.4004 9.34999C13.2573 9.99761 12.9852 10.6098 12.6004 11.15C12.2646 11.6686 11.8417 12.1253 11.3504 12.5C10.8719 12.9157 10.309 13.2228 9.70042 13.4C9.25042 12.85 8.85042 12.35 8.45042 11.8C8.30098 11.6289 8.16712 11.4449 8.05042 11.25C8.52353 11.2516 8.99065 11.1442 9.41553 10.936C9.84041 10.7279 10.2116 10.4247 10.5004 10.05C10.7884 9.68159 10.9931 9.25513 11.1004 8.79999C11.1934 8.42049 11.1984 7.95149 11.1154 7.39299ZM8.75392 11.5795C9.09921 12.0511 9.45769 12.513 9.82892 12.9645C10.3038 12.7928 10.7426 12.5342 11.1229 12.202C11.584 11.8495 11.9805 11.4198 12.2949 10.932C12.6502 10.4335 12.9015 9.86862 13.0339 9.27099C13.1909 8.54499 13.2064 7.79549 13.0789 7.04799C12.9971 6.42113 12.7748 5.82085 12.4284 5.29199C12.1328 4.79576 11.7539 4.35415 11.3084 3.98649C10.4085 3.22514 9.27351 2.79743 8.09492 2.77549C8.55842 3.36549 9.02792 3.96699 9.84642 5.01999L10.0664 5.30199L9.79442 5.53449C9.43878 5.83698 9.07566 6.13057 8.70542 6.41499C8.67042 6.44249 8.24542 6.76899 7.92642 7.01599C8.05792 7.18349 8.21042 7.37449 8.44342 7.66599C8.67342 7.95349 8.82592 8.14499 8.95742 8.31249C9.18942 8.12099 9.44242 7.91999 9.74542 7.68499C9.79442 7.64699 10.5934 7.03199 10.8189 6.85499L11.2469 6.51849L11.4084 7.03849C11.5948 7.63774 11.6145 8.2764 11.4654 8.88599C11.346 9.39312 11.1181 9.86835 10.7974 10.279C10.2875 10.9407 9.55517 11.3952 8.73592 11.5585L8.75392 11.5795Z" fill="white"/>
</g>
<defs>
<clipPath id="clip0_7_7891">
<rect width="16" height="16" fill="white"/>
</clipPath>
</defs>
</svg>
