<svg width="16" height="16" viewBox="0 0 16 16" fill="none" xmlns="http://www.w3.org/2000/svg">
<g clip-path="url(#clip0_7_7816)">
<path d="M8 16C12.4183 16 16 12.4183 16 8C16 3.58172 12.4183 0 8 0C3.58172 0 0 3.58172 0 8C0 12.4183 3.58172 16 8 16Z" fill="#2D475B"/>
<path d="M6.43466 6.3425H11.9772V7.5865H6.43466V6.3425ZM11.9772 8.4145H12.0002V11.686C12.0002 11.686 7.67666 14.8185 4.31866 11.41C4.31866 11.41 2.47866 9.544 3.14566 6.826C3.14566 6.826 3.67466 3.4405 7.69966 3.026C7.69966 3.026 10.1832 2.68 11.7932 4.523L10.8272 5.467C10.8272 5.467 8.78016 3.348 6.04366 5.007C6.04366 5.007 3.81266 6.2505 4.73266 9.383C4.73266 9.383 5.74466 12.101 8.91816 11.548C8.91816 11.548 9.99916 11.302 10.5512 10.826V9.6585H6.43516V8.4145H11.9772Z" fill="white"/>
</g>
<defs>
<clipPath id="clip0_7_7816">
<rect width="16" height="16" fill="white"/>
</clipPath>
</defs>
</svg>
