<svg width="16" height="16" viewBox="0 0 16 16" fill="none" xmlns="http://www.w3.org/2000/svg">
<g clip-path="url(#clip0_7_7963)">
<path d="M8 16C12.4183 16 16 12.4183 16 8C16 3.58172 12.4183 0 8 0C3.58172 0 0 3.58172 0 8C0 12.4183 3.58172 16 8 16Z" fill="#1666AF"/>
<path d="M7.8495 5.503V6.533H5.4995C5.1945 6.533 4.819 6.64 4.5395 6.838C4.193 7.084 3.9995 7.4525 3.9995 8.0015C3.9995 8.5505 4.193 8.919 4.5395 9.165C4.819 9.363 5.1945 9.47 5.4995 9.47H6.4995V10.5H5.4995C4.95323 10.4946 4.4212 10.3251 3.9725 10.0135C3.3585 9.5775 3 8.8945 3 8.0015C3 7.1085 3.3585 6.4255 3.9725 5.9895C4.42105 5.67795 4.9529 5.50845 5.499 5.503H7.8495ZM5.3495 8.594V7.564H7.8495V10.5H6.85V8.594H5.3495ZM9.5 6.53V5.5H13V10.5H8.499V6.5335H9.499V9.4695H12V6.5305L9.5 6.53Z" fill="white"/>
</g>
<defs>
<clipPath id="clip0_7_7963">
<rect width="16" height="16" fill="white"/>
</clipPath>
</defs>
</svg>
