<svg width="16" height="16" viewBox="0 0 16 16" fill="none" xmlns="http://www.w3.org/2000/svg">
<g clip-path="url(#clip0_7_8008)">
<path d="M8 16C12.4183 16 16 12.4183 16 8C16 3.58172 12.4183 0 8 0C3.58172 0 0 3.58172 0 8C0 12.4183 3.58172 16 8 16Z" fill="#EFB914"/>
<path fill-rule="evenodd" clip-rule="evenodd" d="M10.5009 4.9275C10.9196 5.25604 11.2681 5.66534 11.5256 6.13113C11.7831 6.59691 11.9444 7.10968 11.9999 7.639L10.5764 7.285C10.4425 6.83767 10.1939 6.43313 9.85532 6.11151C9.51677 5.78989 9.10003 5.56236 8.64642 5.4515C7.21342 5.095 5.76642 5.947 5.41392 7.3545C5.06142 8.762 5.93892 10.192 7.37242 10.5485C7.82552 10.6629 8.30063 10.6571 8.75081 10.5317C9.201 10.4063 9.61069 10.1657 9.93942 9.8335L11.3629 10.187C11.0646 10.6285 10.6809 11.0058 10.2343 11.2965C9.78772 11.5872 9.2874 11.7854 8.76292 11.8795L8.35792 13.5L7.05992 13.1775L7.38192 11.89C7.16158 11.8538 6.94454 11.7997 6.73292 11.7285L6.41142 13.016L5.11342 12.693L5.51842 11.0725C4.32942 10.135 3.73092 8.5745 4.11642 7.032C4.50192 5.4895 5.76492 4.3915 7.25642 4.1205L7.66142 2.5L8.95942 2.8225L8.63742 4.11C8.85775 4.14624 9.07479 4.20025 9.28642 4.2715L9.60792 2.984L10.9059 3.307L10.5009 4.9275Z" fill="white"/>
</g>
<defs>
<clipPath id="clip0_7_8008">
<rect width="16" height="16" fill="white"/>
</clipPath>
</defs>
</svg>
