<svg width="16" height="16" viewBox="0 0 16 16" fill="none" xmlns="http://www.w3.org/2000/svg">
<g clip-path="url(#clip0_7_7694)">
<path d="M8 16C12.4183 16 16 12.4183 16 8C16 3.58172 12.4183 0 8 0C3.58172 0 0 3.58172 0 8C0 12.4183 3.58172 16 8 16Z" fill="#008DDE"/>
<path d="M12.0146 8.66302C12.0635 8.66483 12.1122 8.65678 12.1578 8.63934C12.2035 8.6219 12.2452 8.59544 12.2803 8.56153C12.3155 8.52762 12.3435 8.48696 12.3626 8.44198C12.3818 8.39701 12.3916 8.34864 12.3916 8.29977C12.3916 8.2509 12.3818 8.20253 12.3626 8.15756C12.3435 8.11258 12.3155 8.07193 12.2803 8.03802C12.2452 8.00411 12.2035 7.97764 12.1578 7.9602C12.1122 7.94276 12.0635 7.93471 12.0146 7.93652H11.1846V7.11552H12.9201C12.969 7.11733 13.0177 7.10928 13.0633 7.09184C13.109 7.0744 13.1507 7.04794 13.1858 7.01403C13.221 6.98012 13.249 6.93946 13.2681 6.89448C13.2873 6.84951 13.2971 6.80114 13.2971 6.75227C13.2971 6.7034 13.2873 6.65503 13.2681 6.61006C13.249 6.56508 13.221 6.52443 13.1858 6.49052C13.1507 6.45661 13.109 6.43014 13.0633 6.4127C13.0177 6.39526 12.969 6.38721 12.9201 6.38902H11.1776C11.1424 6.00003 10.9794 5.63366 10.714 5.3471C10.4486 5.06054 10.0958 4.86993 9.71064 4.80502V3.93052C9.71245 3.88168 9.7044 3.83298 9.68696 3.78733C9.66952 3.74168 9.64306 3.70001 9.60915 3.66482C9.57524 3.62963 9.53458 3.60164 9.48961 3.58252C9.44463 3.5634 9.39626 3.55354 9.34739 3.55354C9.29852 3.55354 9.25015 3.5634 9.20518 3.58252C9.1602 3.60164 9.11955 3.62963 9.08564 3.66482C9.05173 3.70001 9.02526 3.74168 9.00782 3.78733C8.99039 3.83298 8.98233 3.88168 8.98414 3.93052V4.78052H8.16314V2.87002C8.16496 2.82118 8.1569 2.77248 8.13946 2.72683C8.12202 2.68118 8.09556 2.63951 8.06165 2.60432C8.02774 2.56913 7.98708 2.54114 7.94211 2.52202C7.89713 2.5029 7.84876 2.49304 7.79989 2.49304C7.75102 2.49304 7.70265 2.5029 7.65768 2.52202C7.6127 2.54114 7.57205 2.56913 7.53814 2.60432C7.50423 2.63951 7.47776 2.68118 7.46032 2.72683C7.44288 2.77248 7.43483 2.82118 7.43664 2.87002V4.78002H6.61514V3.93002C6.61165 3.83601 6.57186 3.74702 6.50412 3.68174C6.43637 3.61647 6.34597 3.58 6.25189 3.58C6.15782 3.58 6.06741 3.61647 5.99967 3.68174C5.93193 3.74702 5.89213 3.83601 5.88864 3.93002V4.80502C5.5035 4.86993 5.15068 5.06054 4.88529 5.3471C4.61989 5.63366 4.45686 6.00003 4.42164 6.38902H2.37014C2.32131 6.38721 2.27261 6.39526 2.22695 6.4127C2.1813 6.43014 2.13963 6.45661 2.10444 6.49052C2.06925 6.52443 2.04126 6.56508 2.02214 6.61006C2.00302 6.65503 1.99316 6.7034 1.99316 6.75227C1.99316 6.80114 2.00302 6.84951 2.02214 6.89448C2.04126 6.93946 2.06925 6.98012 2.10444 7.01403C2.13963 7.04794 2.1813 7.0744 2.22695 7.09184C2.27261 7.10928 2.32131 7.11733 2.37014 7.11552H4.41514V7.93652H3.58514C3.53631 7.93471 3.48761 7.94276 3.44195 7.9602C3.3963 7.97764 3.35463 8.00411 3.31944 8.03802C3.28425 8.07193 3.25626 8.11258 3.23714 8.15756C3.21802 8.20253 3.20816 8.2509 3.20816 8.29977C3.20816 8.34864 3.21802 8.39701 3.23714 8.44198C3.25626 8.48696 3.28425 8.52762 3.31944 8.56153C3.35463 8.59544 3.3963 8.6219 3.44195 8.63934C3.48761 8.65678 3.53631 8.66483 3.58514 8.66302H4.41514V9.48402H2.83364C2.78481 9.48221 2.73611 9.49026 2.69045 9.5077C2.6448 9.52514 2.60313 9.55161 2.56794 9.58552C2.53275 9.61942 2.50476 9.66008 2.48564 9.70506C2.46652 9.75003 2.45666 9.7984 2.45666 9.84727C2.45666 9.89614 2.46652 9.94451 2.48564 9.98948C2.50476 10.0345 2.53275 10.0751 2.56794 10.109C2.60313 10.1429 2.6448 10.1694 2.69045 10.1868C2.73611 10.2043 2.78481 10.2123 2.83364 10.2105H4.42164C4.45686 10.5995 4.61989 10.9659 4.88529 11.2524C5.15068 11.539 5.5035 11.7296 5.88864 11.7945V12.3595C5.88683 12.4084 5.89488 12.4571 5.91232 12.5027C5.92976 12.5484 5.95623 12.59 5.99014 12.6252C6.02405 12.6604 6.0647 12.6884 6.10968 12.7075C6.15465 12.7266 6.20302 12.7365 6.25189 12.7365C6.30076 12.7365 6.34913 12.7266 6.39411 12.7075C6.43908 12.6884 6.47974 12.6604 6.51365 12.6252C6.54756 12.59 6.57402 12.5484 6.59146 12.5027C6.6089 12.4571 6.61695 12.4084 6.61514 12.3595V11.819H7.43614V13.4645C7.43963 13.5585 7.47943 13.6475 7.54717 13.7128C7.61491 13.7781 7.70532 13.8145 7.79939 13.8145C7.89347 13.8145 7.98387 13.7781 8.05162 13.7128C8.11936 13.6475 8.15915 13.5585 8.16264 13.4645V11.819H8.98364V12.669C8.98183 12.7179 8.98988 12.7666 9.00732 12.8122C9.02476 12.8579 9.05123 12.8995 9.08514 12.9347C9.11905 12.9699 9.1597 12.9979 9.20468 13.017C9.24965 13.0361 9.29802 13.046 9.34689 13.046C9.39576 13.046 9.44413 13.0361 9.48911 13.017C9.53408 12.9979 9.57474 12.9699 9.60865 12.9347C9.64256 12.8995 9.66902 12.8579 9.68646 12.8122C9.7039 12.7666 9.71196 12.7179 9.71014 12.669V11.795C10.0953 11.7301 10.4481 11.5395 10.7135 11.2529C10.9789 10.9664 11.1419 10.6 11.1771 10.211H13.5826C13.6315 10.2128 13.6802 10.2048 13.7258 10.1873C13.7715 10.1699 13.8132 10.1434 13.8483 10.1095C13.8835 10.0756 13.9115 10.035 13.9306 9.98998C13.9498 9.94501 13.9596 9.89664 13.9596 9.84777C13.9596 9.7989 13.9498 9.75053 13.9306 9.70556C13.9115 9.66058 13.8835 9.61993 13.8483 9.58602C13.8132 9.55211 13.7715 9.52564 13.7258 9.5082C13.6802 9.49076 13.6315 9.48271 13.5826 9.48452H11.1851V8.66352L12.0146 8.66302ZM10.6046 10.054C10.6044 10.3682 10.4794 10.6695 10.2573 10.8917C10.0351 11.1138 9.73384 11.2388 9.41964 11.239H6.17964C5.86544 11.2388 5.56419 11.1138 5.34201 10.8917C5.11984 10.6695 4.99491 10.3682 4.99464 10.054V6.54502C4.99491 6.23082 5.11984 5.92957 5.34201 5.70739C5.56419 5.48522 5.86544 5.36029 6.17964 5.36002H9.41964C9.73384 5.36029 10.0351 5.48522 10.2573 5.70739C10.4794 5.92957 10.6044 6.23082 10.6046 6.54502V10.054Z" fill="white"/>
<path d="M6.95109 6.21752C6.81076 6.21527 6.67042 6.2201 6.53059 6.23202C6.30959 6.25702 6.14709 6.45702 6.14009 6.67402C6.12909 7.16602 6.13809 7.65902 6.13509 8.15102C6.14209 8.40202 6.11809 8.65602 6.15509 8.90452C6.19059 9.12652 6.40759 9.26952 6.62309 9.26902C7.29309 9.27352 7.96309 9.27052 8.63309 9.27102V9.54852H6.47559L6.19809 10.381H8.34509C8.59609 10.374 8.84959 10.398 9.09859 10.3615C9.32059 10.326 9.46309 10.109 9.46259 9.89352C9.46759 9.01702 9.46359 8.14052 9.46509 7.26352C9.45709 7.02852 9.48559 6.78902 9.43809 6.55702C9.38759 6.32052 9.13409 6.20402 8.91009 6.21852H7.37209C7.23209 6.22102 7.09109 6.21802 6.95059 6.21702L6.95109 6.21752ZM6.96759 7.05102H8.63259V8.43852H6.96759V7.05102Z" fill="white"/>
</g>
<defs>
<clipPath id="clip0_7_7694">
<rect width="16" height="16" fill="white"/>
</clipPath>
</defs>
</svg>
