<svg width="16" height="16" viewBox="0 0 16 16" fill="none" xmlns="http://www.w3.org/2000/svg">
<g clip-path="url(#clip0_7_7889)">
<path d="M8 16C12.4183 16 16 12.4183 16 8C16 3.58172 12.4183 0 8 0C3.58172 0 0 3.58172 0 8C0 12.4183 3.58172 16 8 16Z" fill="#005396"/>
<path d="M6.16387 2.29901C6.68341 2.13167 7.22343 2.03629 7.76887 2.01551C8.51737 1.98151 9.26987 2.10301 9.97737 2.34451C11.1309 2.75167 12.133 3.5008 12.8499 4.49201C13.0149 4.71201 13.1539 4.94851 13.2879 5.18851C13.4434 5.49251 13.5839 5.80551 13.6899 6.13001C13.8299 6.57551 13.9349 7.03701 13.9674 7.50451C13.9844 7.60551 13.9734 7.70851 13.9874 7.80951C13.9924 7.93601 13.9904 8.06251 13.9874 8.19001C13.9734 8.29151 13.9844 8.39451 13.9674 8.49551C13.9374 8.91651 13.8504 9.33251 13.7304 9.73751C13.6292 10.072 13.4987 10.397 13.3404 10.7085C12.7506 11.8667 11.8016 12.8027 10.6354 13.3765C10.3102 13.5387 9.96966 13.6681 9.61887 13.763C9.03137 13.9315 8.41887 14.003 7.80987 13.986C7.70837 13.972 7.60387 13.983 7.50437 13.966C7.04787 13.9345 6.59887 13.835 6.16237 13.699C5.2869 13.4148 4.4883 12.9336 3.82804 12.2923C3.16777 11.651 2.66344 10.8668 2.35387 10C2.15887 9.43251 2.03387 8.83901 2.01887 8.23751C1.99837 7.94901 2.02037 7.65901 2.04387 7.37101C2.08737 6.94551 2.18387 6.52451 2.31487 6.11801C2.71286 4.92565 3.47413 3.88779 4.49187 3.15001C4.71187 2.98501 4.94837 2.84501 5.18837 2.71201C5.50095 2.54634 5.82735 2.40816 6.16387 2.29901ZM7.31887 4.46401V5.86501C7.31587 5.89001 7.33887 5.90401 7.35137 5.92101C7.56637 6.14701 7.78337 6.37101 7.99837 6.59751C7.99681 5.88634 7.99681 5.17518 7.99837 4.46401C7.77237 4.46401 7.54537 4.46251 7.31887 4.46401ZM4.36387 5.18901C4.41537 5.22301 4.45287 5.27251 4.49637 5.31501C4.95937 5.78251 5.42387 6.24851 5.88487 6.71901C6.30737 7.14601 6.73137 7.57151 7.15187 7.99851C6.64237 8.52051 6.12337 9.03351 5.61537 9.55551C5.20887 9.96551 4.80187 10.3755 4.39687 10.785C4.38616 10.7937 4.37515 10.8021 4.36387 10.81C4.96237 10.81 5.56237 10.8115 6.16237 10.807C6.77487 10.166 7.39037 9.52701 8.00137 8.88501C8.61387 9.52551 9.22787 10.166 9.84037 10.807C10.4389 10.8115 11.0374 10.8085 11.6354 10.81C11.5439 10.7365 11.4719 10.645 11.3864 10.565C10.9579 10.132 10.5264 9.69851 10.0989 9.26401C9.68437 8.84151 9.26237 8.42551 8.85087 8.00001C8.95087 7.90001 9.04387 7.79601 9.14687 7.69751C9.93087 6.90751 10.7119 6.11451 11.4954 5.32401C11.5424 5.27901 11.5814 5.22601 11.6354 5.18901C11.0354 5.18901 10.4374 5.18701 9.83887 5.19001C9.22637 5.83051 8.61237 6.47001 7.99987 7.11001C7.38887 6.46801 6.77337 5.82901 6.16087 5.19001C5.56237 5.18851 4.96237 5.18851 4.36387 5.18851V5.18901ZM8.00287 9.39651C8.00287 10.11 8.00437 10.8225 8.00137 11.5365C8.22887 11.5345 8.45637 11.5365 8.68237 11.5365V10.1335C8.68331 10.126 8.68239 10.1184 8.67969 10.1113C8.67698 10.1043 8.67258 10.098 8.66687 10.093C8.55187 9.96801 8.42987 9.85151 8.31637 9.72701C8.21337 9.61451 8.10287 9.51201 8.00287 9.39651Z" fill="white"/>
</g>
<defs>
<clipPath id="clip0_7_7889">
<rect width="16" height="16" fill="white"/>
</clipPath>
</defs>
</svg>
