<svg width="16" height="16" viewBox="0 0 16 16" fill="none" xmlns="http://www.w3.org/2000/svg">
<g clip-path="url(#clip0_7_7882)">
<path d="M8 16C12.4183 16 16 12.4183 16 8C16 3.58172 12.4183 0 8 0C3.58172 0 0 3.58172 0 8C0 12.4183 3.58172 16 8 16Z" fill="#372D2C"/>
<path d="M4.9827 9.24349L5.0332 9.20599H5.0162L4.7832 9.42099C4.83811 9.34978 4.90547 9.28956 4.9827 9.24349Z" fill="black"/>
<path d="M13.4751 6.72C13.4504 6.68159 13.4119 6.65406 13.3676 6.643C13.1948 6.60059 13.0215 6.56059 12.8476 6.523L12.8946 6.291L12.9246 6.145L12.9386 6.071L12.9521 5.991C12.9711 5.87234 12.9578 5.75076 12.9136 5.639C12.8669 5.51986 12.7902 5.4148 12.691 5.33403C12.5917 5.25326 12.4733 5.19951 12.3471 5.178C12.3055 4.92596 12.2481 4.6768 12.1751 4.432L12.1666 4.402L10.9236 2.892L10.8771 2.8785C10.8266 2.865 9.70661 2.534 8.18211 2.5335L8.19911 2.2325C8.33926 2.18639 8.45828 2.09166 8.53467 1.96544C8.61106 1.83921 8.63977 1.68982 8.61561 1.54428C8.59145 1.39873 8.51602 1.26663 8.40295 1.17185C8.28988 1.07707 8.14664 1.02587 7.99911 1.0275C7.85185 1.02625 7.70898 1.07761 7.59624 1.17235C7.4835 1.26709 7.4083 1.39898 7.38417 1.54425C7.36005 1.68953 7.3886 1.83864 7.46467 1.96473C7.54075 2.09082 7.65935 2.1856 7.79911 2.232L7.81661 2.5345C6.28561 2.536 5.15961 2.865 5.11161 2.881L5.06511 2.8945L3.82211 4.4045L3.81411 4.4345C3.74111 4.6795 3.68361 4.928 3.64211 5.1795H3.63811L3.55011 5.2015C3.38576 5.25159 3.2446 5.35853 3.15189 5.50318C3.05918 5.64783 3.02097 5.82076 3.04411 5.991L3.05761 6.0705L3.07161 6.1445L3.10161 6.2905L3.14861 6.5235C2.97611 6.5615 2.80361 6.6005 2.63161 6.6425C2.58724 6.65346 2.54876 6.68102 2.52411 6.7195C2.50687 6.74837 2.49855 6.7817 2.50021 6.81528C2.50186 6.84887 2.5134 6.88121 2.53339 6.90825C2.55337 6.93529 2.58091 6.95582 2.61253 6.96725C2.64416 6.97869 2.67845 6.98051 2.71111 6.9725C2.87911 6.9315 3.04711 6.8925 3.21561 6.856L3.22811 6.92C2.83544 8.16547 2.92575 9.51308 3.48111 10.695C4.23511 12.304 5.97011 14.039 8.00011 14.039C10.0296 14.039 11.7651 12.304 12.5211 10.6925C13.0747 9.50953 13.163 8.16162 12.7686 6.9165L12.7806 6.8575C12.9496 6.8945 13.1186 6.9335 13.2871 6.9745C13.3198 6.98251 13.3541 6.98069 13.3857 6.96925C13.4173 6.95782 13.4448 6.93729 13.4648 6.91025C13.4848 6.88321 13.4964 6.85087 13.498 6.81728C13.4997 6.7837 13.4913 6.75037 13.4741 6.7215L13.4751 6.72ZM7.55611 1.649C7.55649 1.52025 7.60743 1.39679 7.69796 1.30523C7.78849 1.21367 7.91136 1.16134 8.04011 1.1595C8.31011 1.1595 8.31011 2.136 8.04011 2.1385C7.91136 2.13667 7.78849 2.08433 7.69796 1.99278C7.60743 1.90122 7.55649 1.77776 7.55611 1.649ZM7.88011 2.254C7.91961 2.2615 7.95911 2.2655 7.99911 2.2655H8.01811L8.05611 3.3165C8.08068 3.34921 8.09259 3.3897 8.08965 3.4305C8.08671 3.4713 8.06912 3.50966 8.04011 3.5385C8.02423 3.5544 8.00536 3.567 7.9846 3.57558C7.96383 3.58416 7.94158 3.58855 7.91911 3.5885C7.66611 3.5885 7.46261 3.5115 7.46261 3.4185C7.46261 3.3325 7.63361 3.261 7.85761 3.249L7.91911 3.2475H7.93611L7.88011 2.254ZM4.07811 4.6725L4.22361 4.6205L4.47111 4.538L4.79611 4.442C4.91411 4.406 5.04611 4.373 5.18361 4.337L5.62061 4.2385C5.77211 4.2085 5.92861 4.175 6.09061 4.1475C6.25311 4.12 6.41561 4.098 6.58061 4.0705C6.74561 4.043 6.91061 4.0295 7.07261 4.0105C7.23511 3.9905 7.39461 3.9825 7.55111 3.969C7.63361 3.9615 7.71811 3.958 7.79861 3.955H7.80711L7.99961 5.6685L8.19461 3.9405H8.40361C8.52761 3.9405 8.64311 3.935 8.74461 3.9405L9.00861 3.9515L9.23961 3.9595L9.01161 3.9375L8.74761 3.9125C8.64561 3.902 8.53261 3.899 8.40661 3.891C8.27199 3.88104 8.13709 3.87554 8.00211 3.8745H8.00011C7.85811 3.8745 7.70511 3.866 7.54911 3.8715C7.39361 3.877 7.23011 3.8745 7.06511 3.8855L6.56461 3.9185C6.39661 3.932 6.22911 3.946 6.06411 3.968C5.89911 3.99 5.73661 4.0145 5.58261 4.034C5.43411 4.0525 5.28761 4.081 5.14961 4.1055L4.90361 4.086L5.39311 3.418L7.83761 2.885L7.85261 3.15C7.52261 3.176 7.27511 3.2855 7.27511 3.417C7.27511 3.567 7.60011 3.689 8.00111 3.689C8.40211 3.689 8.72711 3.5675 8.72711 3.417C8.72711 3.2855 8.47961 3.176 8.14961 3.15L8.16461 2.886L10.5986 3.4175L11.0886 4.0855L10.4076 4.1405L10.3951 4.139L10.4026 4.141H10.3926L11.6961 4.787C11.6961 4.787 12.2581 6.592 11.4836 8.126C11.3952 8.29936 11.2923 8.46494 11.1761 8.621C11.1761 8.621 9.97311 9.1765 8.12361 9.2745L8.00011 8.766C8.15134 8.77104 8.30198 8.74483 8.44261 8.689L8.82761 8.5625C9.60961 8.3215 10.3926 8.084 11.1761 7.8505L11.2531 7.8285L11.2781 7.757L11.3031 7.6855L11.3221 7.6165L11.3576 7.4815C11.4206 7.2165 11.4656 6.9475 11.4926 6.676L11.5146 6.401L11.5196 6.2635V6.1235L11.5226 5.9805L11.5091 5.8375L11.4871 5.6945C11.4777 5.64803 11.4657 5.60213 11.4511 5.557L11.4291 5.4855L11.4041 5.4L11.3866 5.3975L11.3796 5.3755L11.3546 5.29L11.2561 5.2765C10.4442 5.18181 9.62831 5.12575 8.81111 5.1085L8.72611 5.106L8.69011 5.1775L8.24211 6.0555L8.00011 6.0595L7.73511 6.0645L7.25511 5.2045L7.23011 5.158L7.18011 5.161C6.77361 5.1835 6.36761 5.2165 5.96211 5.26C5.55808 5.30286 5.15554 5.35873 4.75511 5.4275H4.76311H4.75811L4.74111 5.4825C4.73664 5.4967 4.73264 5.51104 4.72911 5.5255C4.73711 5.493 4.74661 5.461 4.75661 5.4275C4.74081 5.4717 4.72244 5.51494 4.70161 5.557C4.69261 5.592 4.68261 5.6265 4.67611 5.6615L4.67111 5.675L4.64111 5.81L4.61911 5.9445L4.60511 6.082C4.60011 6.173 4.59711 6.2665 4.60011 6.357L4.61061 6.632C4.62911 6.907 4.66561 7.181 4.72061 7.4515L4.75061 7.5865L4.78961 7.724L4.80061 7.757L4.83911 7.7705L6.39561 8.282C6.85361 8.431 7.31111 8.5845 7.76761 8.7415C7.80661 8.7495 7.84611 8.755 7.88611 8.758L7.91361 8.7605H7.92161L7.93561 8.7635L7.99311 8.766H8.00161L7.87461 9.2835C7.42069 9.29677 6.96639 9.2804 6.51461 9.2345C5.40361 9.0855 4.67261 8.8195 4.48261 8.744C3.86601 7.47864 3.7222 6.03436 4.07811 4.6725ZM9.97811 5.4375L8.50761 8.21L8.40911 8.395L8.33761 8.4195C8.25199 8.45047 8.16209 8.46801 8.07111 8.4715C7.93164 8.48551 7.7908 8.46861 7.65861 8.422L7.60861 8.403L7.67161 8.2855L9.21161 5.3855L9.28111 5.254C9.53111 5.265 9.78711 5.2845 10.0481 5.3065L9.97811 5.4375ZM10.4301 5.4825L10.5021 5.3465L10.7136 5.366L10.9146 5.388L10.9396 5.3905H10.9556L10.8816 5.5305L9.66161 7.8295L9.56161 8.018L8.98961 8.1995L9.08811 8.013L10.4301 5.4825ZM3.25511 6.1175L3.24711 6.0435L3.24161 5.972C3.23404 5.85903 3.26568 5.74691 3.33117 5.65455C3.39666 5.56219 3.492 5.49524 3.60111 5.465C3.50493 6.283 3.57638 7.11202 3.81111 7.9015L3.78861 7.8945C3.7074 7.8658 3.63364 7.81928 3.57273 7.75838C3.51183 7.69747 3.46532 7.62371 3.43661 7.5425C3.41477 7.47367 3.40101 7.40252 3.39561 7.3305L3.27161 6.2675L3.25511 6.1175ZM4.63211 11.844L4.62461 11.838L4.62811 11.843C4.60022 11.8354 4.57452 11.8214 4.55311 11.802C4.24463 11.4194 3.98248 11.0017 3.77211 10.5575C3.34024 9.6361 3.20737 8.60269 3.39211 7.602L3.39411 7.607C3.43693 7.68861 3.49722 7.75978 3.57068 7.81543C3.64413 7.87109 3.72896 7.90986 3.81911 7.929C3.92561 8.28 4.06361 8.6205 4.23161 8.9465L4.25661 8.9905L4.30311 9.0125C4.47911 9.0845 4.65861 9.1475 4.84111 9.202H4.84561L4.83261 9.206C4.79219 9.2196 4.75233 9.23478 4.71311 9.2515C4.68013 9.26528 4.64745 9.27978 4.61511 9.295L4.40311 9.3965L4.33461 9.4295L4.32611 9.4985C4.26636 10.0215 4.31852 10.5512 4.47911 11.0525C4.55661 11.302 4.66561 11.5405 4.80361 11.7625L4.80611 11.7675L4.81461 11.7895C4.82661 11.845 4.71961 11.867 4.63211 11.844ZM6.52211 12.95C6.13501 12.8084 5.78117 12.5887 5.48261 12.3045C5.31237 12.1381 5.16704 11.9479 5.05111 11.74C4.93595 11.5319 4.84727 11.3101 4.78711 11.08C4.72811 10.8495 4.6921 10.6136 4.67961 10.376C4.6647 10.1676 4.67123 9.95812 4.69911 9.751L4.82811 9.6995C4.96061 9.656 5.09461 9.6175 5.22961 9.5845L5.43611 9.543C5.61461 9.513 5.79411 9.4915 5.97511 9.4795H5.99661L6.00461 9.4805C5.8501 9.9016 5.7722 10.347 5.77461 10.7955C5.77461 11.6905 6.06961 12.452 6.53811 12.9595L6.52211 12.95ZM8.67211 12.3785C8.46511 12.4957 8.23096 12.5564 7.99311 12.5545C7.74529 12.5557 7.50185 12.4891 7.28911 12.362C7.1881 12.2527 7.10201 12.1304 7.03311 11.9985C7.14967 12.1337 7.29348 12.2428 7.45513 12.3187C7.61677 12.3945 7.7926 12.4353 7.97111 12.4385C8.14962 12.4416 8.32679 12.407 8.49102 12.337C8.65524 12.267 8.80283 12.163 8.92411 12.032C8.85565 12.1582 8.77093 12.2744 8.67211 12.3785ZM7.99311 12.1695C7.86437 12.1701 7.73678 12.1453 7.61762 12.0966C7.49846 12.0478 7.39007 11.9761 7.29865 11.8855C7.20722 11.7948 7.13455 11.6871 7.08478 11.5683C7.03502 11.4496 7.00913 11.3222 7.00861 11.1935V11.19C7.00841 10.9963 7.0656 10.807 7.17294 10.6458C7.28029 10.4846 7.43298 10.3588 7.61174 10.2844C7.7905 10.2099 7.98732 10.1901 8.17735 10.2274C8.36738 10.2647 8.5421 10.3574 8.67945 10.4939C8.81681 10.6305 8.91063 10.8046 8.94909 10.9944C8.98755 11.1842 8.96891 11.3811 8.89553 11.5604C8.82215 11.7396 8.69733 11.893 8.5368 12.0013C8.37628 12.1097 8.18726 12.168 7.99361 12.169V12.1695H7.99311ZM9.23711 11C9.18676 10.7025 9.03144 10.4329 8.79935 10.2401C8.56725 10.0473 8.27374 9.94413 7.97206 9.94921C7.67038 9.95429 7.38051 10.0673 7.15504 10.2678C6.92956 10.4683 6.78342 10.743 6.74311 11.042C6.72822 10.9287 6.71904 10.8147 6.71561 10.7005C6.81623 10.4438 6.99224 10.2236 7.22046 10.069C7.44869 9.91428 7.71841 9.83236 7.99411 9.834H7.99911C8.26938 9.83337 8.53374 9.91301 8.75869 10.0628C8.98363 10.2126 9.15902 10.4259 9.26261 10.6755C9.25922 10.7842 9.25071 10.8921 9.23711 11ZM9.45311 12.9655H9.45811L9.44811 12.969C9.92311 12.461 10.2231 11.6945 10.2231 10.7925C10.2258 10.3439 10.1477 9.89846 9.99261 9.4775H9.99961C10.7071 9.5795 11.0756 9.9425 11.0756 9.9425C11.0756 9.9425 11.1506 12.0155 9.45411 12.9655H9.45311ZM12.6846 8.4955V8.6025C12.6846 8.627 12.6826 8.651 12.6821 8.675C12.6804 8.72973 12.6774 8.78442 12.6731 8.839C12.6731 8.856 12.6701 8.8735 12.6686 8.8905C12.6656 8.926 12.6626 8.962 12.6586 8.997C12.6586 9.005 12.6571 9.013 12.6561 9.021C12.6523 9.05538 12.6481 9.08972 12.6436 9.124V9.129L12.6296 9.228V9.2315C12.5503 9.74733 12.3886 10.2471 12.1506 10.7115L12.1336 10.7445C12.1161 10.778 12.0986 10.812 12.0801 10.8455C11.8988 11.1838 11.6862 11.5043 11.4451 11.803C11.4248 11.8224 11.4001 11.8364 11.3731 11.844L11.3761 11.839L11.3686 11.845C11.2821 11.87 11.1716 11.8485 11.1836 11.79L11.1921 11.768L11.1971 11.763C11.3336 11.54 11.4421 11.302 11.5196 11.053C11.6775 10.5522 11.7289 10.0239 11.6706 9.502L11.6626 9.4335L11.5936 9.4005C11.5221 9.3645 11.4536 9.329 11.3821 9.2985L11.1646 9.2105L11.1451 9.2035L11.1501 9.202C11.3316 9.1485 11.5101 9.0845 11.6846 9.0115L11.7311 8.9895L11.7561 8.9455C11.9236 8.6195 12.0611 8.2795 12.1671 7.9295C12.3546 7.891 12.5146 7.771 12.6036 7.602C12.6561 7.883 12.6836 8.1685 12.6861 8.4545C12.6852 8.46815 12.6847 8.48182 12.6846 8.4955Z" fill="white"/>
<path d="M4.82256 5.56749L4.93806 5.42749H4.97656H4.91906C4.86106 5.51249 4.79006 5.59399 4.72656 5.67749C4.76306 5.64049 4.79156 5.60599 4.82256 5.56749Z" fill="black"/>
<path d="M8.47524 3.10498C8.71724 3.16848 8.87674 3.28398 8.87674 3.41848C8.87674 3.55348 8.71474 3.66848 8.47524 3.73198C8.80524 3.70198 9.05274 3.57248 9.05274 3.41848C9.05274 3.26448 8.80524 3.13398 8.47524 3.10498ZM7.67974 4.34098C7.71308 4.34098 7.74508 4.32788 7.76884 4.30449C7.7926 4.28111 7.80621 4.24932 7.80674 4.21598C7.80675 4.19924 7.80344 4.18267 7.79701 4.16722C7.79057 4.15177 7.78113 4.13776 7.76924 4.12598C7.75741 4.11433 7.74332 4.10522 7.72785 4.0992C7.71237 4.09318 7.69583 4.09038 7.67924 4.09098C7.64644 4.09138 7.61513 4.10475 7.59217 4.12818C7.56921 4.15161 7.55647 4.18318 7.55674 4.21598C7.55674 4.28498 7.61174 4.34098 7.67974 4.34098ZM4.35724 4.76198C4.33243 4.76221 4.30824 4.76977 4.28771 4.78369C4.26718 4.79761 4.25121 4.81729 4.24181 4.84025C4.23241 4.86321 4.23 4.88843 4.23488 4.91275C4.23976 4.93708 4.25171 4.95942 4.26924 4.97698C4.29274 5.00048 4.32424 5.01298 4.35724 5.01198C4.38204 5.01175 4.40623 5.0042 4.42676 4.99027C4.4473 4.97635 4.46326 4.95667 4.47266 4.93371C4.48206 4.91075 4.48447 4.88553 4.47959 4.86121C4.47471 4.83688 4.46276 4.81454 4.44524 4.79698C4.43376 4.78541 4.42003 4.77633 4.40488 4.77031C4.38974 4.76428 4.37352 4.76145 4.35724 4.76198ZM4.70374 8.79848C4.72854 8.79825 4.75273 8.7907 4.77326 8.77677C4.7938 8.76285 4.80976 8.74318 4.81916 8.72022C4.82856 8.69726 4.83097 8.67203 4.82609 8.64771C4.82121 8.62338 4.80926 8.60104 4.79174 8.58348C4.78026 8.57191 4.76653 8.56283 4.75138 8.55681C4.73624 8.55079 4.72002 8.54795 4.70374 8.54848C4.67067 8.54874 4.63902 8.562 4.61564 8.58538C4.59225 8.60877 4.579 8.64041 4.57874 8.67348C4.58124 8.74348 4.63624 8.79848 4.70374 8.79848ZM7.73974 9.27698C7.76454 9.27675 7.78873 9.2692 7.80926 9.25527C7.8298 9.24135 7.84576 9.22167 7.85516 9.19871C7.86456 9.17576 7.86697 9.15053 7.86209 9.12621C7.85721 9.10188 7.84526 9.07954 7.82774 9.06198C7.81626 9.05041 7.80253 9.04133 7.78738 9.03531C7.77224 9.02929 7.75602 9.02645 7.73974 9.02698C7.70636 9.02764 7.67457 9.04136 7.65119 9.0652C7.62782 9.08904 7.61473 9.12109 7.61474 9.15448C7.61691 9.18668 7.63085 9.21696 7.6539 9.23955C7.67695 9.26213 7.7075 9.27546 7.73974 9.27698ZM8.42224 4.34348C8.45558 4.34348 8.48758 4.33038 8.51134 4.30699C8.5351 4.28361 8.54871 4.25182 8.54924 4.21848C8.54925 4.20174 8.54594 4.18517 8.53951 4.16972C8.53307 4.15427 8.52363 4.14026 8.51174 4.12848C8.49991 4.11683 8.48582 4.10772 8.47035 4.1017C8.45487 4.09568 8.43833 4.09288 8.42174 4.09348C8.38894 4.09388 8.35763 4.10725 8.33467 4.13068C8.31171 4.15411 8.29897 4.18568 8.29924 4.21848C8.29924 4.28798 8.35424 4.34348 8.42224 4.34348ZM8.36124 9.02998C8.32825 9.0305 8.29675 9.04383 8.27342 9.06716C8.25009 9.09049 8.23675 9.12199 8.23624 9.15498C8.24124 9.22348 8.29474 9.27748 8.36124 9.27998C8.38604 9.27975 8.41023 9.2722 8.43076 9.25827C8.4513 9.24435 8.46726 9.22467 8.47666 9.20171C8.48606 9.17876 8.48847 9.15353 8.48359 9.12921C8.47871 9.10488 8.46676 9.08254 8.44924 9.06498C8.43776 9.05341 8.42403 9.04433 8.40889 9.03831C8.39374 9.03228 8.37752 9.02945 8.36124 9.02998ZM4.97274 9.87148C4.95095 9.8699 4.92916 9.87451 4.90988 9.88477C4.8906 9.89503 4.8746 9.91053 4.86374 9.92948C4.85219 9.94891 4.84585 9.97099 4.84533 9.99359C4.8448 10.0162 4.85011 10.0385 4.86074 10.0585C4.88274 10.0985 4.92374 10.123 4.96774 10.121H4.97274C5.00545 10.1203 5.03661 10.1069 5.05951 10.0835C5.08242 10.0601 5.09524 10.0287 5.09524 9.99598C5.09558 9.96416 5.08378 9.9334 5.06224 9.90998C5.05074 9.89765 5.0368 9.88785 5.0213 9.88122C5.00581 9.87459 4.98959 9.87127 4.97274 9.87148ZM5.72724 9.64598C5.71095 9.64611 5.69485 9.64945 5.67986 9.6558C5.66486 9.66215 5.65127 9.6714 5.63985 9.683C5.62843 9.69461 5.6194 9.70836 5.61329 9.72345C5.60718 9.73855 5.6041 9.7547 5.60424 9.77098C5.60424 9.83998 5.65924 9.89598 5.72724 9.89598C5.76058 9.89598 5.79258 9.88288 5.81634 9.85949C5.8401 9.83611 5.85371 9.80432 5.85424 9.77098C5.85425 9.75424 5.85094 9.73767 5.84451 9.72222C5.83807 9.70677 5.82863 9.69276 5.81674 9.68098C5.80491 9.66933 5.79082 9.66022 5.77535 9.6542C5.75987 9.64818 5.74333 9.64538 5.72674 9.64598H5.72724ZM10.3752 9.64598C10.3588 9.6466 10.3427 9.65045 10.3278 9.65731C10.3128 9.66417 10.2994 9.6739 10.2882 9.68595C10.2771 9.698 10.2684 9.71213 10.2627 9.72753C10.257 9.74294 10.2544 9.75932 10.255 9.77573C10.2556 9.79215 10.2595 9.80828 10.2663 9.8232C10.2732 9.83813 10.2829 9.85156 10.295 9.86273C10.307 9.87389 10.3211 9.88258 10.3365 9.88828C10.3519 9.89399 10.3683 9.8966 10.3847 9.89598C10.4179 9.89465 10.4492 9.88021 10.4717 9.85583C10.4942 9.83145 10.5061 9.79913 10.5047 9.76598C10.5034 9.73283 10.489 9.70156 10.4646 9.67906C10.4402 9.65655 10.4084 9.64465 10.3752 9.64598Z" fill="white"/>
</g>
<defs>
<clipPath id="clip0_7_7882">
<rect width="16" height="16" fill="white"/>
</clipPath>
</defs>
</svg>
