<svg width="16" height="16" viewBox="0 0 16 16" fill="none" xmlns="http://www.w3.org/2000/svg">
<g clip-path="url(#clip0_7_7979)">
<path d="M8 16C12.4183 16 16 12.4183 16 8C16 3.58172 12.4183 0 8 0C3.58172 0 0 3.58172 0 8C0 12.4183 3.58172 16 8 16Z" fill="#DBB358"/>
<path d="M10.6231 5.82998C10.6967 5.82899 10.7677 5.85727 10.8204 5.90861C10.8732 5.95995 10.9034 6.03013 10.9044 6.10373C10.9054 6.17733 10.8771 6.24831 10.8257 6.30105C10.7744 6.3538 10.7042 6.38399 10.6306 6.38498H5.65511V9.61498H10.3461V8.22998H7.19511C7.12279 8.23001 7.05332 8.2018 7.00149 8.15137C6.94966 8.10094 6.91956 8.03227 6.91761 7.95998V7.95248C6.91761 7.80198 7.03761 7.67898 7.18761 7.67498H10.6236C10.7746 7.67498 10.8971 7.79498 10.9011 7.94498V9.89298C10.9011 10.044 10.7811 10.1665 10.6311 10.1705H5.37711C5.30479 10.1705 5.23532 10.1423 5.18349 10.0919C5.13166 10.0414 5.10156 9.97277 5.09961 9.90048V6.10798C5.09961 5.95748 5.21961 5.83448 5.36961 5.83098H10.6231V5.82998Z" fill="white"/>
<path d="M8 2.5C4.9625 2.5 2.5 4.9625 2.5 8C2.5 11.0375 4.9625 13.5 8 13.5C11.0375 13.5 13.5 11.0375 13.5 8C13.5 4.9625 11.0375 2.5 8 2.5ZM8 3.055C10.731 3.055 12.945 5.269 12.945 8C12.945 10.731 10.731 12.945 8 12.945C5.269 12.945 3.055 10.731 3.055 8C3.055 5.269 5.269 3.055 8 3.055Z" fill="white"/>
<path d="M8.80502 4.20098C8.95602 4.20098 9.07852 4.32098 9.08252 4.47098V6.10748C9.08252 6.25848 8.96252 6.38098 8.81252 6.38498H7.19402C7.12179 6.38488 7.05244 6.35661 7.00072 6.3062C6.949 6.25578 6.91897 6.18718 6.91702 6.11498V4.47848C6.91602 4.40488 6.94431 4.3339 6.99564 4.28116C7.04698 4.22841 7.11717 4.19822 7.19077 4.19723C7.26437 4.19624 7.33534 4.22452 7.38809 4.27586C7.44083 4.32719 7.47102 4.39738 7.47202 4.47098V5.82998H8.52752V4.47848C8.52752 4.32748 8.64752 4.20498 8.79752 4.20098H8.80502ZM8.80502 9.61498C8.95602 9.61498 9.07852 9.73498 9.08252 9.88498V11.5215C9.08351 11.5951 9.05523 11.6661 9.00389 11.7188C8.97847 11.7449 8.94816 11.7658 8.91468 11.7802C8.8812 11.7946 8.84521 11.8022 8.80877 11.8027C8.77233 11.8032 8.73614 11.7965 8.70229 11.783C8.66843 11.7696 8.63756 11.7495 8.61145 11.7241C8.5587 11.6728 8.52851 11.6026 8.52752 11.529V10.17H7.47252V11.5215C7.47254 11.5939 7.44427 11.6634 7.39373 11.7153C7.34319 11.7671 7.2744 11.7972 7.20202 11.799H7.19452C7.1222 11.799 7.05273 11.7708 7.0009 11.7204C6.94907 11.6699 6.91897 11.6013 6.91702 11.529V9.89248C6.91702 9.74148 7.03702 9.61898 7.18702 9.61498H8.80502Z" fill="white"/>
</g>
<defs>
<clipPath id="clip0_7_7979">
<rect width="16" height="16" fill="white"/>
</clipPath>
</defs>
</svg>
