<svg width="16" height="16" viewBox="0 0 16 16" fill="none" xmlns="http://www.w3.org/2000/svg">
<g clip-path="url(#clip0_7_8072)">
<path d="M8 16C12.4183 16 16 12.4183 16 8C16 3.58172 12.4183 0 8 0C3.58172 0 0 3.58172 0 8C0 12.4183 3.58172 16 8 16Z" fill="#00A6C4"/>
<path d="M12.3885 5.25L12.4885 5.4155C12.9872 6.25286 13.2503 7.20941 13.25 8.184C13.241 11.118 10.8925 13.5 8.00003 13.5H7.99103C5.09853 13.5 2.74103 11.0995 2.75003 8.1655C2.75003 7.1815 3.02203 6.225 3.52053 5.397L3.61153 5.241L4.09203 5.7285C3.99678 5.86772 3.92061 6.01906 3.86553 6.1785C3.68232 6.68617 3.70723 7.24567 3.93482 7.73505C4.16242 8.22443 4.57425 8.60399 5.08053 8.791C5.37816 8.897 5.69658 8.93141 6.00999 8.89145C6.32341 8.8515 6.623 8.73829 6.88453 8.561L8.00003 9.7015L9.27853 8.4045C9.39653 8.4875 9.53253 8.552 9.67753 8.607C10.7025 8.975 11.8265 8.432 12.189 7.402C12.4065 6.795 12.307 6.1605 11.9895 5.6545L12.3885 5.25ZM4.68153 6.326L6.18653 7.8435C6.00503 7.991 5.77853 8.0735 5.53353 8.0735C4.94453 8.0735 4.46353 7.586 4.46353 6.9885C4.46353 6.74 4.54553 6.51 4.68153 6.326ZM9.93153 7.7515L11.4185 6.2435C11.5365 6.4185 11.5995 6.6295 11.5995 6.8505C11.5995 7.448 11.1195 7.9355 10.5295 7.9355C10.303 7.9355 10.1035 7.871 9.93153 7.7515ZM8.01803 8.892L3.68403 4.477L3.85603 4.2935C4.92603 3.1435 6.38603 2.5 7.95503 2.5H7.96403C9.55103 2.5 11.074 3.19 12.135 4.385L12.2985 4.5695L8.01853 8.892H8.01803ZM4.39103 4.477L8.01803 8.1655L11.6 4.551C10.639 3.576 9.33353 3.015 7.97353 3.015H7.96403C6.61303 3.015 5.35303 3.53 4.39153 4.4775L4.39103 4.477Z" fill="white"/>
</g>
<defs>
<clipPath id="clip0_7_8072">
<rect width="16" height="16" fill="white"/>
</clipPath>
</defs>
</svg>
