<svg width="16" height="16" viewBox="0 0 16 16" fill="none" xmlns="http://www.w3.org/2000/svg">
<g clip-path="url(#clip0_7_8111)">
<path d="M8 16C12.4183 16 16 12.4183 16 8C16 3.58172 12.4183 0 8 0C3.58172 0 0 3.58172 0 8C0 12.4183 3.58172 16 8 16Z" fill="#001D57"/>
<path d="M10.2495 2.64398L10.851 3.24598L9.71253 4.41598C9.95253 4.78098 10.0815 5.21148 10.0815 5.65548C10.0856 6.23967 9.85967 6.80202 9.45253 7.22098C9.15527 7.53499 8.76801 7.74914 8.34403 7.83398V8.85348C8.76592 8.94061 9.15163 9.15324 9.45053 9.46348C9.85887 9.88283 10.0856 10.4462 10.0815 11.0315C10.0854 11.6166 9.85875 12.1798 9.45053 12.599C9.25156 12.8051 9.01308 12.969 8.74934 13.0808C8.4856 13.1927 8.20201 13.2502 7.91553 13.25C7.62895 13.2509 7.34517 13.1936 7.08134 13.0817C6.81751 12.9698 6.5791 12.8056 6.38053 12.599C5.97354 12.179 5.74721 11.6163 5.75003 11.0315C5.75003 10.4415 5.97403 9.88198 6.37903 9.46548C6.67635 9.15166 7.06361 8.93768 7.48753 8.85298V7.83298C7.06564 7.74583 6.67994 7.5332 6.38103 7.22298C5.97373 6.80294 5.74721 6.24006 5.75003 5.65498C5.75003 5.06498 5.97403 4.50548 6.38103 4.08748C6.57995 3.88127 6.81841 3.7173 7.08215 3.60535C7.3459 3.49341 7.62951 3.43581 7.91603 3.43598C8.34603 3.43598 8.75953 3.56698 9.11353 3.81048L10.2495 2.64398ZM7.91603 9.67248C7.74244 9.67109 7.57043 9.70544 7.41069 9.7734C7.25095 9.84135 7.10691 9.94146 6.98753 10.0675C6.7373 10.3258 6.5982 10.6718 6.60003 11.0315C6.60003 11.394 6.73753 11.7325 6.98753 11.995C7.10781 12.1198 7.25202 12.2192 7.41155 12.287C7.57108 12.3549 7.74266 12.3899 7.91603 12.39C8.08953 12.3913 8.26145 12.3569 8.42109 12.289C8.58074 12.221 8.7247 12.1209 8.84403 11.995C9.09413 11.7368 9.23322 11.3909 9.23153 11.0315C9.23153 10.669 9.09403 10.3305 8.84253 10.066C8.7233 9.94041 8.57953 9.84068 8.42015 9.77298C8.26077 9.70529 8.08918 9.67108 7.91603 9.67248ZM8.84253 6.62748C9.09353 6.36894 9.23318 6.02232 9.23153 5.66198C9.23381 5.48367 9.20074 5.30667 9.13423 5.14121C9.06772 4.97575 8.96908 4.82511 8.84403 4.69798C8.72384 4.57314 8.57971 4.47382 8.42026 4.40595C8.26081 4.33808 8.08932 4.30306 7.91603 4.30298C7.74244 4.30159 7.57043 4.33594 7.41069 4.4039C7.25095 4.47185 7.10691 4.57196 6.98753 4.69798C6.7373 4.9563 6.5982 5.30235 6.60003 5.66198C6.60003 6.02448 6.73753 6.36298 6.98753 6.62548C7.10781 6.75034 7.25202 6.84966 7.41155 6.91753C7.57108 6.9854 7.74266 7.02041 7.91603 7.02048C8.27153 7.02048 8.59953 6.88248 8.84253 6.62748Z" fill="white"/>
</g>
<defs>
<clipPath id="clip0_7_8111">
<rect width="16" height="16" fill="white"/>
</clipPath>
</defs>
</svg>
