<svg width="16" height="16" viewBox="0 0 16 16" fill="none" xmlns="http://www.w3.org/2000/svg">
<g clip-path="url(#clip0_7_7959)">
<path d="M8 16C12.4183 16 16 12.4183 16 8C16 3.58172 12.4183 0 8 0C3.58172 0 0 3.58172 0 8C0 12.4183 3.58172 16 8 16Z" fill="#5411B3"/>
<path fill-rule="evenodd" clip-rule="evenodd" d="M8.02651 2.5C8.29151 2.6595 8.55451 2.8225 8.82151 2.978C10.089 3.713 11.3565 4.447 12.6255 5.179C12.709 5.227 12.746 5.2805 12.746 5.383C12.7435 7.129 12.744 8.875 12.75 10.621C12.75 10.735 12.698 10.7825 12.615 10.8305C11.1065 11.7035 9.59901 12.578 8.09151 13.4525C8.06851 13.466 8.04801 13.484 8.02651 13.5H7.97151C7.51651 13.232 7.06151 12.9615 6.60501 12.696C5.52801 12.0705 4.45001 11.446 3.37101 10.8245C3.27951 10.772 3.24951 10.712 3.25001 10.607C3.25501 8.875 3.25601 7.143 3.25251 5.4105C3.25251 5.2865 3.29501 5.224 3.39701 5.1655C4.89151 4.3035 6.38351 3.4385 7.87601 2.5735C7.91051 2.5535 7.94001 2.5245 7.97151 2.5H8.02651ZM9.42951 11.24C9.63601 11.3815 9.83801 11.53 10.046 11.68C10.0575 11.675 10.0745 11.668 10.09 11.6595C10.765 11.269 11.4415 10.8795 12.1145 10.4845C12.1545 10.461 12.1895 10.392 12.1895 10.3445C12.193 8.7815 12.1925 7.219 12.188 5.6565C12.1857 5.6293 12.1776 5.60292 12.1641 5.57918C12.1506 5.55544 12.1322 5.53491 12.11 5.519C11.445 5.128 10.7765 4.744 10.111 4.3545C10.042 4.3145 10.0035 4.3265 9.94501 4.372C9.78351 4.4985 8.19551 5.4685 7.57351 5.842C7.08751 6.133 6.61251 6.44 6.23651 6.877C5.71801 7.4795 5.66951 8.3145 6.12301 8.9695C6.34751 9.2945 6.64701 9.5415 6.96801 9.761C7.22401 9.9355 7.48801 10.0975 7.74801 10.265C7.74101 10.275 7.73701 10.285 7.73001 10.289C7.38701 10.488 7.04501 10.689 6.69801 10.8825C6.66451 10.901 6.59501 10.8825 6.55701 10.8585C6.18836 10.6206 5.85018 10.3385 5.55001 10.0185C4.68501 9.1115 4.50901 7.625 5.14001 6.5405C5.43065 6.04021 5.83486 5.61527 6.32001 5.3C6.95001 4.888 8.70501 3.8465 8.93751 3.704C8.91751 3.678 8.91201 3.664 8.90151 3.6575C8.62551 3.4965 8.35151 3.3325 8.07151 3.179C8.03051 3.1565 7.95601 3.165 7.91151 3.188C7.75751 3.2675 7.61001 3.359 7.46051 3.4465C7.32851 3.5235 7.19701 3.6015 7.04551 3.691L7.76451 4.143C7.39701 4.36 7.04951 4.568 6.69801 4.7695C6.67001 4.7855 6.61001 4.773 6.57951 4.752C6.40543 4.63485 6.23565 4.51144 6.07051 4.382C5.99801 4.3245 5.95001 4.319 5.86901 4.3665C5.21511 4.74888 4.55944 5.12822 3.90201 5.5045C3.82951 5.546 3.80601 5.5945 3.80601 5.6785C3.80851 7.2275 3.80801 8.7765 3.80551 10.325C3.80551 10.408 3.82701 10.457 3.90151 10.5C4.55451 10.874 5.20551 11.252 5.85501 11.6325C5.92701 11.675 5.97501 11.673 6.04751 11.6245C6.51351 11.313 8.64551 9.9765 9.23801 9.608C9.33851 9.5455 9.42301 9.456 9.51401 9.379L9.49901 9.344H7.28601C7.51101 8.953 7.72101 8.584 7.93851 8.2195C7.95851 8.1865 8.03201 8.1725 8.08101 8.1725C9.08451 8.17 10.0885 8.171 11.092 8.171C11.132 8.171 11.172 8.1755 11.2205 8.178C11.223 8.2255 11.234 8.268 11.225 8.305C11.159 8.5795 11.115 8.863 11.015 9.125C10.778 9.748 10.3385 10.227 9.80301 10.596C9.21801 10.9985 7.35551 12.096 7.03951 12.2845C7.05451 12.311 7.05651 12.322 7.06301 12.326C7.25551 12.4395 7.46201 12.5345 7.63751 12.6705C7.89001 12.8655 8.11001 12.8645 8.36251 12.6705C8.54451 12.531 8.75751 12.4325 8.97801 12.303L8.24601 11.8455C8.26601 11.828 8.27751 11.814 8.29201 11.8055C8.62701 11.611 8.96201 11.4155 9.30001 11.2255C9.33201 11.208 9.39701 11.2175 9.42951 11.24ZM10.8765 6.5715C11.049 6.8775 11.1775 7.271 11.1965 7.5745C10.8575 7.5745 10.5305 7.5765 10.203 7.572C10.173 7.5715 10.126 7.537 10.1165 7.508C9.95651 7.014 9.61501 6.663 9.21151 6.368C8.92501 6.1585 8.62001 5.974 8.32351 5.778C8.29851 5.762 8.27401 5.7445 8.23351 5.7165C8.30101 5.676 8.35351 5.6435 8.40751 5.612C8.68351 5.452 8.95751 5.2885 9.23751 5.1345C9.28751 5.1065 9.37751 5.0895 9.41801 5.116C10.003 5.5005 10.5255 5.9495 10.8765 6.5715Z" fill="white"/>
</g>
<defs>
<clipPath id="clip0_7_7959">
<rect width="16" height="16" fill="white"/>
</clipPath>
</defs>
</svg>
