<svg width="16" height="16" viewBox="0 0 16 16" fill="none" xmlns="http://www.w3.org/2000/svg">
<g clip-path="url(#clip0_7_7879)">
<path d="M8 16C12.4183 16 16 12.4183 16 8C16 3.58172 12.4183 0 8 0C3.58172 0 0 3.58172 0 8C0 12.4183 3.58172 16 8 16Z" fill="#FFF300"/>
<path d="M11.3199 4.78401C11.1499 4.40351 10.9924 3.65151 10.5574 3.48401C9.99738 3.26901 9.65188 4.67801 9.56938 5.03401H9.48588C9.34488 4.42401 9.15588 3.55901 8.48588 3.36701C8.17588 4.66951 8.80988 6.07401 9.40288 7.20151C10.0359 6.89851 10.3444 5.95151 10.4029 5.28401H10.4864L11.1534 7.28451C11.6899 7.13051 11.8764 6.59951 12.0699 6.11751C12.4859 5.08351 12.8349 3.81151 12.5699 2.70001C11.7699 2.92701 11.5259 4.07151 11.3199 4.78401ZM3.31788 7.45151C4.03388 7.10951 4.37488 6.02651 4.48488 5.28401H4.56788C4.65288 5.64201 4.87938 6.56501 5.32638 6.62401C5.89638 6.69951 6.19488 5.43551 6.23488 5.03401H6.31838C6.49988 5.66151 6.69138 6.47801 7.31838 6.78451C7.55038 5.81251 7.27338 4.77601 6.91788 3.86701C6.82638 3.63351 6.63888 3.00301 6.31638 3.00301C5.78838 3.00301 5.49138 4.39501 5.40138 4.78401H5.31838L4.65138 2.78351C3.47838 3.34351 2.84138 6.32201 3.31788 7.45151ZM2.06738 8.45151C2.93738 12.2485 6.95288 14.4015 10.5699 12.7975C11.8812 12.2148 12.9346 11.1732 13.5319 9.86851C13.6874 9.53151 13.9929 8.92101 13.8149 8.47851C13.6374 8.03751 11.9174 8.75751 11.4874 8.94601C11.4577 8.95914 11.4318 8.97953 11.412 9.00531C11.3923 9.03109 11.3793 9.06142 11.3744 9.09351C11.3674 9.13929 11.3699 9.18602 11.3818 9.23078C11.3937 9.27554 11.4147 9.31736 11.4435 9.3536C11.4724 9.38985 11.5084 9.41974 11.5493 9.44141C11.5902 9.46308 11.6352 9.47605 11.6814 9.47951L12.4034 9.53551C11.0959 12.0665 7.56038 13.1855 5.06838 11.1635C4.51038 10.711 4.01288 10.1735 3.67788 9.53551C3.51588 9.22701 3.36538 8.83251 3.09038 8.62051C2.82538 8.41751 2.42438 8.34751 2.06738 8.45151Z" fill="white"/>
</g>
<defs>
<clipPath id="clip0_7_7879">
<rect width="16" height="16" fill="white"/>
</clipPath>
</defs>
</svg>
