<svg width="16" height="16" viewBox="0 0 16 16" fill="none" xmlns="http://www.w3.org/2000/svg">
<g clip-path="url(#clip0_7_7877)">
<path d="M8 16C12.4183 16 16 12.4183 16 8C16 3.58172 12.4183 0 8 0C3.58172 0 0 3.58172 0 8C0 12.4183 3.58172 16 8 16Z" fill="#377E96"/>
<path fill-rule="evenodd" clip-rule="evenodd" d="M11.8125 15.035L11.8545 15.004C11.7385 14.7915 11.5505 14.68 11.339 14.6295C11.037 14.5575 10.73 14.491 10.422 14.4695C9.73752 14.42 9.05102 14.4085 8.36602 14.367C7.60302 14.3205 6.84102 14.256 6.07752 14.206C6.01102 14.201 5.91552 14.226 5.87752 14.2735C5.67752 14.5185 5.48402 14.7705 5.30402 15.0305C5.21602 15.158 5.16152 15.308 5.09302 15.4455L5.14552 15.4755C4.84455 15.3606 4.55085 15.2275 4.26602 15.077C4.31802 15.087 4.38602 15.079 4.41152 15.0535C4.72452 14.74 5.02752 14.4165 5.33202 14.0965C5.10452 13.9145 4.88202 13.753 4.67952 13.57C4.49052 13.399 4.41152 13.1725 4.42802 12.913C4.45302 12.5145 4.62752 12.175 4.88402 11.89C5.18752 11.5535 5.52802 11.25 5.85302 10.933C5.89302 10.8945 5.93452 10.859 5.97152 10.825C5.95902 10.803 5.95752 10.7965 5.95402 10.794L5.85902 10.739C4.81502 10.137 4.29452 9.2225 4.28102 8.029C4.26902 7.007 4.70402 6.1795 5.47352 5.526C6.22352 4.8895 7.10702 4.666 8.07652 4.688C8.79402 4.7045 9.46452 4.863 10.089 5.2195C10.124 5.2395 10.212 5.216 10.244 5.1825C10.5395 4.873 10.839 4.5665 11.116 4.24C11.46 3.835 11.751 3.395 11.8715 2.864C11.9655 2.45 11.9255 2.061 11.6255 1.738C11.185 1.2635 10.427 1.3275 10.0405 1.868C9.96452 1.974 9.92052 2.103 9.84602 2.2115C9.81852 2.2515 9.74852 2.263 9.69752 2.288C9.68552 2.243 9.65752 2.1965 9.66402 2.155C9.68102 2.041 9.70302 1.925 9.74052 1.817C9.93052 1.272 10.2835 0.900003 10.8755 0.817003C11.068 0.790003 11.268 0.812503 11.469 0.812503C11.459 0.799003 11.455 0.787503 11.447 0.784003C11.4098 0.763958 11.3719 0.745115 11.3335 0.727503C10.9562 0.555116 10.5664 0.411377 10.1675 0.297503C10.9167 0.50784 11.6309 0.826901 12.2875 1.2445C12.2915 1.288 12.289 1.2995 12.294 1.3055C12.7355 1.85 12.679 2.4275 12.401 3.0155C12.165 3.513 11.821 3.934 11.4495 4.335C11.1095 4.702 10.7675 5.0675 10.425 5.435C10.439 5.444 10.447 5.454 10.455 5.454C10.9785 5.4545 11.502 5.462 12.025 5.451C12.298 5.446 12.5405 5.3555 12.709 5.114C12.741 5.0675 12.828 5.059 12.89 5.033L12.925 5.0815C12.78 5.4995 12.637 5.918 12.484 6.3325C12.471 6.3675 12.394 6.396 12.345 6.398C12.16 6.406 11.975 6.4015 11.79 6.4015H11.125L11.2005 6.5515C11.5605 7.2565 11.656 8.004 11.474 8.7665C11.2055 9.8915 10.4695 10.6185 9.39902 10.9965C8.52502 11.3055 7.62802 11.2945 6.73052 11.08C6.65102 11.061 6.52802 11.045 6.48552 11.0875C6.29252 11.2805 6.08852 11.475 5.94952 11.706C5.66302 12.182 5.82952 12.513 6.37552 12.628L6.39102 12.63C6.92702 12.6715 7.46252 12.7225 7.99902 12.752C8.75802 12.7935 9.51802 12.81 10.2765 12.8555C10.736 12.883 11.1895 12.964 11.6035 13.1835C12.1365 13.465 12.514 13.88 12.6795 14.4865C12.7185 14.459 12.7575 14.4315 12.7965 14.403C12.485 14.6365 12.1565 14.848 11.8115 15.035H11.8125ZM9.38752 15.88C8.90222 15.9649 8.41016 16.0051 7.91752 16C8.40975 15.9952 8.90101 15.9551 9.38752 15.88ZM16 8.025V8C16 7.31 15.9125 6.6405 15.7485 6.002C15.9119 6.66422 15.9963 7.34344 16 8.0255V8.025ZM14.14 2.8725C13.6764 2.31772 13.14 1.82798 12.5455 1.4165C13.154 1.8565 13.6865 2.3415 14.14 2.8725ZM4.15302 15.015C3.75837 14.7982 3.38271 14.5484 3.03002 14.2685C3.38652 14.539 3.77552 14.771 4.15302 15.015ZM1.62903e-05 8.0155C0.0009972 7.58931 0.0339228 7.16378 0.0985163 6.7425C0.0320961 7.1634 -0.000840434 7.5894 1.62903e-05 8.0155ZM1.45802 3.394C1.77182 2.95747 2.12497 2.5506 2.51302 2.1785C2.12162 2.54722 1.76819 2.95476 1.45802 3.394ZM5.56652 0.377003C6.35507 0.133837 7.17485 0.006837 8.00002 3.38834e-06C7.17425 -0.000756851 6.35335 0.126418 5.56652 0.377003ZM9.78302 8.328L9.75302 8.3205C9.73552 8.0785 9.72602 7.8355 9.70002 7.5945C9.64102 7.0365 9.48252 6.5095 9.17502 6.0345C8.72002 5.3305 7.96002 5.0465 7.23102 5.3285C6.63252 5.5595 6.31502 6.0345 6.17202 6.64C6.03602 7.213 6.04702 7.7935 6.11602 8.3715C6.18252 8.9215 6.33952 9.445 6.65602 9.9105C7.06302 10.508 7.63052 10.769 8.33602 10.651C9.00602 10.54 9.42702 10.1065 9.59852 9.462C9.69702 9.094 9.72352 8.707 9.78302 8.328Z" fill="white"/>
</g>
<defs>
<clipPath id="clip0_7_7877">
<rect width="16" height="16" fill="white"/>
</clipPath>
</defs>
</svg>
