<svg width="16" height="16" viewBox="0 0 16 16" fill="none" xmlns="http://www.w3.org/2000/svg">
<g clip-path="url(#clip0_7_7875)">
<path d="M8 16C12.4183 16 16 12.4183 16 8C16 3.58172 12.4183 0 8 0C3.58172 0 0 3.58172 0 8C0 12.4183 3.58172 16 8 16Z" fill="#5942CC"/>
<path d="M10.3535 9.7715C10.4472 9.86526 10.4999 9.99242 10.4999 10.125C10.4999 10.2576 10.4472 10.3847 10.3535 10.4785L8.3535 12.4785C8.30738 12.5263 8.2522 12.5643 8.1912 12.5906C8.1302 12.6168 8.06459 12.6305 7.9982 12.6311C7.93181 12.6317 7.86597 12.6191 7.80452 12.5939C7.74307 12.5688 7.68725 12.5316 7.6403 12.4847C7.59336 12.4378 7.55623 12.3819 7.53109 12.3205C7.50595 12.259 7.4933 12.1932 7.49387 12.1268C7.49445 12.0604 7.50824 11.9948 7.53445 11.9338C7.56065 11.8728 7.59875 11.8176 7.6465 11.7715L9.6465 9.7715C9.74026 9.67776 9.86742 9.62511 10 9.62511C10.1326 9.62511 10.2597 9.67776 10.3535 9.7715ZM7.5 3.625C7.89397 3.625 8.28407 3.7026 8.64805 3.85336C9.01203 4.00413 9.34274 4.2251 9.62132 4.50368C9.8999 4.78226 10.1209 5.11297 10.2716 5.47695C10.4224 5.84093 10.5 6.23103 10.5 6.625C10.5 7.01897 10.4224 7.40907 10.2716 7.77305C10.1209 8.13703 9.8999 8.46774 9.62132 8.74632C9.34274 9.0249 9.01203 9.24587 8.64805 9.39664C8.28407 9.5474 7.89397 9.625 7.5 9.625C6.70435 9.625 5.94129 9.30893 5.37868 8.74632C4.81607 8.18371 4.5 7.42065 4.5 6.625C4.5 5.82935 4.81607 5.06629 5.37868 4.50368C5.94129 3.94107 6.70435 3.625 7.5 3.625ZM7.5 4.625C6.96957 4.625 6.46086 4.83571 6.08579 5.21079C5.71071 5.58586 5.5 6.09457 5.5 6.625C5.5 7.15543 5.71071 7.66414 6.08579 8.03921C6.46086 8.41429 6.96957 8.625 7.5 8.625C8.03043 8.625 8.53914 8.41429 8.91421 8.03921C9.28929 7.66414 9.5 7.15543 9.5 6.625C9.5 6.09457 9.28929 5.58586 8.91421 5.21079C8.53914 4.83571 8.03043 4.625 7.5 4.625ZM11 3.625C11.1326 3.625 11.2598 3.67768 11.3536 3.77145C11.4473 3.86521 11.5 3.99239 11.5 4.125C11.5 4.25761 11.4473 4.38479 11.3536 4.47855C11.2598 4.57232 11.1326 4.625 11 4.625C10.8674 4.625 10.7402 4.57232 10.6464 4.47855C10.5527 4.38479 10.5 4.25761 10.5 4.125C10.5 3.99239 10.5527 3.86521 10.6464 3.77145C10.7402 3.67768 10.8674 3.625 11 3.625Z" fill="black"/>
</g>
<defs>
<clipPath id="clip0_7_7875">
<rect width="16" height="16" fill="white"/>
</clipPath>
</defs>
</svg>
