<svg width="16" height="16" viewBox="0 0 16 16" fill="none" xmlns="http://www.w3.org/2000/svg">
<g clip-path="url(#clip0_7_7874)">
<path d="M8 16C12.4183 16 16 12.4183 16 8C16 3.58172 12.4183 0 8 0C3.58172 0 0 3.58172 0 8C0 12.4183 3.58172 16 8 16Z" fill="#FF0060"/>
<path d="M12.535 6.0235H7.96101C7.60684 6.02295 7.2593 6.11946 6.95614 6.30254C6.65297 6.48562 6.40577 6.74828 6.24138 7.06198C6.077 7.37569 6.00172 7.72844 6.02373 8.08191C6.04573 8.43539 6.16418 8.77608 6.3662 9.06697C6.56822 9.35786 6.84609 9.58783 7.16963 9.7319C7.49316 9.87597 7.84999 9.92863 8.20135 9.88416C8.5527 9.83968 8.88516 9.69978 9.16259 9.47964C9.44003 9.25951 9.65183 8.96755 9.775 8.6355H7.96101C7.89382 8.63557 7.82727 8.62238 7.76518 8.5967C7.7031 8.57102 7.64668 8.53334 7.59917 8.48583C7.55166 8.43832 7.51399 8.38191 7.48831 8.31982C7.46263 8.25773 7.44944 8.19119 7.44951 8.124V8.062C7.44944 7.99481 7.46263 7.92827 7.48831 7.86618C7.51399 7.80409 7.55166 7.74768 7.59917 7.70017C7.64668 7.65266 7.7031 7.61498 7.76518 7.5893C7.82727 7.56362 7.89382 7.55043 7.96101 7.5505H10.9845C11.0065 7.6915 11.017 7.834 11.0155 7.9765C11.0125 8.57998 10.8309 9.16905 10.4935 9.66938C10.156 10.1697 9.67795 10.5589 9.11956 10.7878C8.56116 11.0167 7.94748 11.075 7.35596 10.9555C6.76444 10.8359 6.22158 10.5438 5.7959 10.1161C5.37022 9.68829 5.08079 9.14401 4.96415 8.55191C4.8475 7.95981 4.90886 7.34642 5.14048 6.78916C5.3721 6.23189 5.76361 5.75573 6.26559 5.42075C6.76757 5.08578 7.35752 4.90701 7.96101 4.907L8.0545 4.8915C8.074 4.9005 8.09451 4.9055 8.11651 4.907H10.8295C12.31 4.907 12.9145 4.1165 12.9145 3H7.96101C5.22501 3 3.00501 5.2165 3.00001 7.9535C2.99601 10.6905 5.20901 12.9135 7.94601 12.9225C10.683 12.931 12.9095 10.7215 12.9225 7.9845V6.4185C12.9235 6.36699 12.9142 6.31579 12.8952 6.26791C12.8762 6.22002 12.8478 6.17642 12.8117 6.13963C12.7756 6.10285 12.7326 6.07364 12.685 6.0537C12.6375 6.03376 12.5865 6.02349 12.535 6.0235Z" fill="white"/>
</g>
<defs>
<clipPath id="clip0_7_7874">
<rect width="16" height="16" fill="white"/>
</clipPath>
</defs>
</svg>
