<svg width="16" height="16" viewBox="0 0 16 16" fill="none" xmlns="http://www.w3.org/2000/svg">
<g clip-path="url(#clip0_7_7872)">
<path d="M8 16C12.4183 16 16 12.4183 16 8C16 3.58172 12.4183 0 8 0C3.58172 0 0 3.58172 0 8C0 12.4183 3.58172 16 8 16Z" fill="#7F27FF"/>
<path d="M7.688 6.99998H4.01V10.611C4.006 10.9805 4.154 11.336 4.42 11.597C4.686 11.858 5.0485 12.0035 5.425 12H7.6885L7.688 6.99998ZM7.773 5.11048H8.169C8.561 4.43548 8.92 3.97648 9.2575 3.72848C9.6735 3.42198 10.0995 3.41948 10.4335 3.74748C10.7455 4.05348 10.804 4.43748 10.5985 4.80748C10.5405 4.91048 10.4635 5.01148 10.367 5.11048H11.821C12.1605 5.11048 12.5 5.38948 12.5 5.77698C12.5 6.11048 12.2155 6.44398 11.821 6.44398H8.254V5.55498H7.688V6.44398H4.179C3.84 6.44398 3.5 6.16498 3.5 5.77698C3.5 5.44398 3.7845 5.11048 4.179 5.11048H5.649C5.55702 5.02477 5.47515 4.92881 5.405 4.82448C5.1615 4.45248 5.191 4.05948 5.5085 3.74748C5.8425 3.41948 6.2685 3.42248 6.685 3.72848C7.022 3.97648 7.381 4.43598 7.7735 5.11048H7.773ZM7.1155 5.11048C6.8255 4.64898 6.5665 4.33548 6.3455 4.17298C6.141 4.02298 6.029 4.02198 5.9085 4.13998C5.785 4.26148 5.7775 4.36548 5.881 4.52348C5.999 4.70398 6.2475 4.90748 6.6055 5.11048H7.1155ZM8.8265 5.11048H9.4365C9.778 4.91448 10.0035 4.71648 10.1015 4.54048C10.1865 4.38848 10.1685 4.27298 10.0335 4.14048C9.913 4.02198 9.801 4.02248 9.597 4.17298C9.3755 4.33548 9.1155 4.64898 8.8265 5.11048ZM8.254 6.99948H11.9325V10.611C11.9341 10.7945 11.8986 10.9764 11.8281 11.1458C11.7577 11.3152 11.6537 11.4687 11.5225 11.597C11.2542 11.8592 10.8927 12.0042 10.5175 12H8.254V6.99948Z" fill="white"/>
</g>
<defs>
<clipPath id="clip0_7_7872">
<rect width="16" height="16" fill="white"/>
</clipPath>
</defs>
</svg>
