<svg width="16" height="16" viewBox="0 0 16 16" fill="none" xmlns="http://www.w3.org/2000/svg">
<g clip-path="url(#clip0_7_7871)">
<path d="M8 16C12.4183 16 16 12.4183 16 8C16 3.58172 12.4183 0 8 0C3.58172 0 0 3.58172 0 8C0 12.4183 3.58172 16 8 16Z" fill="#37DCD8"/>
<path d="M7.99505 6.3395L6.60305 4.9375C7.02067 4.25834 7.48759 3.61077 8.00005 3C8.51166 3.60815 8.97791 4.25305 9.39505 4.9295L7.99505 6.3395ZM10.8541 7.7445C11.2471 8.8455 11.8236 9.9465 11.2741 11.0035C10.9244 11.6703 10.3823 12.2165 9.71805 12.571C7.90855 13.531 5.66855 12.826 4.71555 11.0035C4.16055 9.9465 4.80705 8.7585 5.20055 7.658C5.56105 6.8465 5.92555 6.0985 6.33955 5.3795L7.99455 7.0465L9.65905 5.3705C10.0966 6.1275 10.4746 6.906 10.8541 7.7445Z" fill="white"/>
</g>
<defs>
<clipPath id="clip0_7_7871">
<rect width="16" height="16" fill="white"/>
</clipPath>
</defs>
</svg>
