<svg width="16" height="16" viewBox="0 0 16 16" fill="none" xmlns="http://www.w3.org/2000/svg">
<g clip-path="url(#clip0_7_7870)">
<path d="M8 16C12.4183 16 16 12.4183 16 8C16 3.58172 12.4183 0 8 0C3.58172 0 0 3.58172 0 8C0 12.4183 3.58172 16 8 16Z" fill="#00DCFA"/>
<path d="M9.689 2.5C7.754 2.5 6.1105 3.988 5.904 5.9035C3.9875 6.1105 2.5 7.754 2.5 9.6885C2.50053 10.6991 2.9022 11.6682 3.61677 12.3829C4.33134 13.0975 5.30038 13.4993 6.311 13.5C8.246 13.5 9.896 12.012 10.096 10.0965C12.012 9.8895 13.5 8.246 13.5 6.3115C13.4995 5.30088 13.0978 4.33179 12.3832 3.61712C11.6687 2.90246 10.6996 2.50066 9.689 2.5ZM12.607 6.738C12.5119 7.36303 12.2194 7.94129 11.7723 8.38834C11.3253 8.8354 10.747 9.12785 10.122 9.223V6.738H12.607ZM3.393 9.262C3.48688 8.63579 3.77876 8.05608 4.22593 7.60774C4.67309 7.15941 5.25203 6.86601 5.878 6.7705V9.2555H3.393V9.262ZM9.2295 10.122C9.12626 10.8221 8.7746 11.4617 8.23875 11.9239C7.70291 12.3861 7.01866 12.6401 6.311 12.6395C5.60348 12.6401 4.91935 12.3862 4.3836 11.924C3.84785 11.4619 3.49624 10.8225 3.393 10.1225H9.2295V10.122ZM9.262 6.738V9.2555H6.738V6.738H9.262ZM12.607 5.878H6.7705C6.87374 5.17792 7.2254 4.53834 7.76125 4.07612C8.29709 3.6139 8.98134 3.35989 9.689 3.3605C10.3965 3.35989 11.0807 3.61385 11.6164 4.07597C12.1522 4.5381 12.5038 5.17805 12.607 5.878Z" fill="white"/>
</g>
<defs>
<clipPath id="clip0_7_7870">
<rect width="16" height="16" fill="white"/>
</clipPath>
</defs>
</svg>
