<svg width="16" height="16" viewBox="0 0 16 16" fill="none" xmlns="http://www.w3.org/2000/svg">
<g clip-path="url(#clip0_7_7755)">
<path d="M8 16C12.4183 16 16 12.4183 16 8C16 3.58172 12.4183 0 8 0C3.58172 0 0 3.58172 0 8C0 12.4183 3.58172 16 8 16Z" fill="#16B9AD"/>
<path d="M13 6.5965C13 9.3005 10.7565 11.5 8 11.5C5.2435 11.5 3 9.3 3 6.5975C3 6.3985 3.012 6.199 3.037 6.001H3.935C3.905 6.1985 3.89 6.398 3.89 6.5975C3.89 8.82 5.734 10.6285 8.0005 10.6285C10.1635 10.6285 11.9415 8.9825 12.1005 6.901H5.74C5.875 7.873 6.6415 8.645 7.6285 8.8045C8.616 8.9635 9.5935 8.4725 10.0395 7.5945H11.002C10.5645 8.8555 9.357 9.7035 7.999 9.7045C6.251 9.7045 4.8285 8.31 4.8285 6.5965C4.8285 6.3965 4.8485 6.1965 4.887 6H12.963C12.988 6.198 13 6.397 13 6.5965Z" fill="white"/>
</g>
<defs>
<clipPath id="clip0_7_7755">
<rect width="16" height="16" fill="white"/>
</clipPath>
</defs>
</svg>
