<svg width="16" height="16" viewBox="0 0 16 16" fill="none" xmlns="http://www.w3.org/2000/svg">
<g clip-path="url(#clip0_7_7869)">
<path d="M8 16C12.4183 16 16 12.4183 16 8C16 3.58172 12.4183 0 8 0C3.58172 0 0 3.58172 0 8C0 12.4183 3.58172 16 8 16Z" fill="#35A5F3"/>
<path d="M3.50961 3.5135C4.14461 2.85 5.30461 2.8235 5.96011 3.4685C6.64511 4.1385 7.32311 4.8145 7.99411 5.497C8.70811 4.8185 9.37611 4.0945 10.0931 3.419C10.7751 2.803 11.9351 2.8775 12.5406 3.5675C13.1616 4.2185 13.1516 5.354 12.5071 5.986C11.8436 6.6615 11.1716 7.327 10.5021 7.997C11.1861 8.7015 11.8986 9.3785 12.5771 10.092C13.1851 10.7585 13.1271 11.8945 12.4676 12.507C11.8191 13.162 10.6561 13.164 10.0086 12.506C9.33511 11.845 8.67611 11.168 8.00711 10.504C7.29311 11.191 6.61211 11.912 5.89061 12.592C5.19961 13.205 4.03461 13.1135 3.43961 12.41C2.83961 11.7605 2.85461 10.654 3.47961 10.025C4.06702 9.42362 4.66139 8.82908 5.26261 8.2415L6.01611 8.994C5.42811 9.601 4.80961 10.182 4.23061 10.798C3.84011 11.198 4.18411 11.944 4.73261 11.935C5.06511 11.9645 5.29461 11.689 5.51061 11.481C6.08411 10.897 6.66611 10.3235 7.23961 9.7395C5.98961 8.4785 4.71961 7.235 3.47561 5.9685C2.82661 5.3145 2.84711 4.1485 3.51061 3.5135H3.50961ZM4.23611 5.2085C4.89761 5.8985 5.58461 6.564 6.25811 7.2425C6.58311 6.9135 6.91011 6.5865 7.23911 6.261C6.58761 5.6045 5.93861 4.9435 5.27811 4.296C5.06761 4.0685 4.70761 3.984 4.43311 4.147C4.05111 4.332 3.93111 4.9 4.23611 5.2085ZM10.7061 4.3135C9.46311 5.5335 8.24511 6.7795 7.00861 8.0055C7.34211 8.329 7.67461 8.6535 8.00011 8.9855C8.24961 8.7395 8.49761 8.4905 8.74611 8.2415C8.99711 8.492 9.24661 8.744 9.49961 8.993C9.25411 9.243 9.00711 9.491 8.75761 9.738C9.42811 10.4125 10.0856 11.0995 10.7781 11.752C11.1296 12.122 11.8116 11.8975 11.9131 11.41C12.0221 11.065 11.7741 10.7665 11.5401 10.5495C10.4384 9.45305 9.33906 8.35421 8.24211 7.253C8.49328 7.0025 8.74344 6.751 8.99261 6.4985C9.24261 6.7475 9.49211 6.9965 9.74761 7.2415C10.4051 6.56 11.1021 5.9165 11.7496 5.2245C12.0761 4.9075 11.9456 4.3 11.5286 4.1285C11.2486 3.984 10.9076 4.086 10.7061 4.3135Z" fill="white"/>
</g>
<defs>
<clipPath id="clip0_7_7869">
<rect width="16" height="16" fill="white"/>
</clipPath>
</defs>
</svg>
