<svg width="16" height="16" viewBox="0 0 16 16" fill="none" xmlns="http://www.w3.org/2000/svg">
<g clip-path="url(#clip0_7_7867)">
<path d="M8 16C12.4183 16 16 12.4183 16 8C16 3.58172 12.4183 0 8 0C3.58172 0 0 3.58172 0 8C0 12.4183 3.58172 16 8 16Z" fill="#56C9E9"/>
<path d="M11.94 4.7215C11.563 4.5825 10.73 4.7905 10.69 4.85C10.849 4.88 10.8985 4.9 11.1365 4.9395C11.3915 4.986 11.6365 5.0765 11.8605 5.2075C12.0985 5.346 12.1975 5.1575 12.1975 5.1575C12.2375 5.0685 12.1285 4.7905 11.94 4.7215ZM5.16646 3.075C5.10553 2.97886 5.03926 2.88622 4.96796 2.7975C4.77946 2.599 4.41296 2.5 4.21396 2.599C4.10496 2.649 4.05546 2.718 4.14496 2.837C4.25346 2.9445 4.39146 3.017 4.54146 3.0455C4.63046 3.0655 5.02746 3.1545 5.12646 3.174C5.22646 3.174 5.16646 3.075 5.16646 3.075ZM5.56296 4.0765C5.55504 4.05879 5.54077 4.0447 5.52296 4.037C5.27828 4.06781 5.03034 4.01552 4.81896 3.8885C4.77113 3.85473 4.71401 3.8366 4.65546 3.8366C4.59691 3.8366 4.53979 3.85473 4.49196 3.8885C4.36296 3.9975 4.55146 4.1265 4.56146 4.1265C4.64046 4.176 4.72996 4.1565 4.80946 4.176C5.00362 4.23225 5.20296 4.26877 5.40446 4.285C5.57296 4.285 5.61246 4.225 5.56296 4.0765ZM12.1285 3.71C12.1485 3.65 12.1285 3.452 11.771 3.5015C11.4735 3.5515 11.2655 3.6305 11.2755 3.67C11.2855 3.71 11.6125 3.7695 11.682 3.779C11.9595 3.829 12.1185 3.749 12.1285 3.71ZM8.51846 2.0535C8.48371 2.02134 8.43862 2.00265 8.39131 2.00082C8.344 1.99899 8.29759 2.01412 8.26046 2.0435C7.96296 2.232 8.18096 2.8765 8.21046 2.8765C8.24046 2.8765 8.27046 2.6485 8.56796 2.3115C8.58206 2.29143 8.59197 2.26871 8.5971 2.24472C8.60222 2.22073 8.60246 2.19596 8.59779 2.17187C8.59312 2.14779 8.58365 2.12489 8.56993 2.10456C8.55621 2.08422 8.53854 2.06685 8.51796 2.0535H8.51846ZM7.57296 3.969C7.54796 3.944 7.57296 3.944 7.57296 3.969V3.969Z" fill="white"/>
<path d="M7.28881 3.65003C7.10031 3.55103 7.25881 3.06502 7.18981 2.88652C7.1833 2.85901 7.17008 2.83352 7.15133 2.81235C7.13258 2.79118 7.10889 2.77497 7.08236 2.76517C7.05583 2.75537 7.02729 2.75228 6.99928 2.75618C6.97127 2.76008 6.94466 2.77085 6.92182 2.78752C6.89608 2.798 6.87295 2.81399 6.85406 2.83437C6.83517 2.85475 6.82099 2.87903 6.8125 2.90549C6.80402 2.93195 6.80144 2.95995 6.80495 2.98751C6.80846 3.01508 6.81797 3.04154 6.83281 3.06503C6.87281 3.14453 7.11032 3.60053 6.92182 3.68003C6.85232 3.71003 6.70381 3.65003 6.60481 3.59053C6.24781 3.43203 6.18831 2.88652 6.07881 2.81702C6.02818 2.77967 5.96649 2.76036 5.90359 2.76217C5.84069 2.76398 5.78022 2.78682 5.73182 2.82702C5.683 2.85453 5.64596 2.89899 5.62771 2.95197C5.60947 3.00496 5.61128 3.06279 5.63282 3.11453C5.68232 3.20403 5.87081 3.25353 5.91031 3.56103L6.02931 3.65003C6.08931 3.70003 6.14832 3.74953 6.21782 3.79903C6.39632 3.97752 6.35681 4.00752 6.72381 3.94802C6.84281 3.90803 6.82282 3.74953 6.94182 3.71003C7.01581 3.70024 7.09108 3.71043 7.15982 3.73953C7.26932 3.79753 7.36131 3.88302 7.42781 3.98752C7.58631 4.17603 7.65581 4.41402 7.79481 4.62252C7.84281 4.70952 7.90282 4.78953 7.97332 4.86003L8.12181 4.97903C8.33031 5.11803 8.51881 5.10802 8.66731 4.94902C8.70773 4.92012 8.7418 4.88325 8.76742 4.84069C8.79305 4.79812 8.80968 4.75076 8.81631 4.70152C8.89538 4.4625 8.99579 4.23107 9.11632 4.01003C9.11733 4.00912 9.11852 4.00843 9.11981 4.008C9.1211 4.00757 9.12246 4.00741 9.12381 4.00753C9.12427 4.00237 9.12652 3.99754 9.13017 3.99389C9.13383 3.99023 9.13866 3.98798 9.14382 3.98752C9.17134 3.96818 9.20417 3.9578 9.23782 3.9578C9.27146 3.9578 9.30429 3.96818 9.33182 3.98752C9.36181 4.02752 9.30182 4.39402 9.33182 4.43352C9.35181 4.51352 9.50031 4.46352 9.62931 4.45352C9.64152 4.43828 9.65161 4.42147 9.65932 4.40353C9.87732 4.33453 10.0858 4.22552 10.3038 4.16602H10.4228C10.5443 4.14602 10.6678 4.14602 10.7898 4.16602C10.9088 4.16602 10.9483 4.23553 10.9383 4.34453C11.1368 4.33453 11.3353 4.33452 11.5333 4.31452C11.6228 4.30452 11.7618 4.30453 11.7518 4.13603C11.7318 4.03703 11.5733 3.75953 10.8493 3.92803C10.7798 3.94802 10.3833 4.06702 10.2443 3.99752C10.4558 3.86053 10.6743 3.73503 10.8988 3.62053C10.9978 3.54103 11.0773 3.43203 11.0178 3.31303C10.9583 3.19403 10.8393 3.20403 10.7303 3.24353C10.5248 3.30737 10.3378 3.41969 10.1848 3.57103C10.0843 3.67303 9.97481 3.76603 9.85732 3.84853C9.56982 3.98752 9.56981 3.98752 9.50031 3.96753C9.41131 3.92753 9.31181 3.85853 9.38131 3.75953C9.42181 3.69503 9.45181 3.62453 9.47081 3.55103C9.50081 3.42203 9.46082 3.38253 9.37132 3.38253C9.19282 3.39253 9.13332 3.65003 9.10382 3.69003C9.08482 3.72903 9.06132 3.76503 9.03432 3.79903C9.0113 3.82176 8.98237 3.83756 8.9508 3.84463C8.91924 3.85171 8.88633 3.84976 8.85582 3.83903C8.79632 3.82903 8.74681 3.79903 8.79631 3.71953C8.88581 3.58103 9.16332 3.36253 9.24282 3.07503C9.24282 3.07503 9.38132 2.69803 8.99482 2.68853C8.78632 2.67853 8.61781 2.82703 8.55831 3.05503C8.49881 3.29303 8.62781 3.62053 8.55831 3.77903C8.53331 3.84603 8.49981 3.90902 8.45931 3.96753C8.39254 4.0274 8.306 4.06051 8.21631 4.06051C8.12662 4.06051 8.04009 4.0274 7.97332 3.96753C7.93515 3.92303 7.90733 3.87062 7.89185 3.81407C7.87638 3.75753 7.87363 3.69826 7.88382 3.64053C7.91779 3.5098 7.94434 3.37725 7.96331 3.24353C7.97331 3.14453 7.79482 2.96603 7.64582 3.08503C7.57632 3.13503 7.60581 3.21403 7.63581 3.28353C7.68581 3.43203 7.77481 3.85853 7.28881 3.65003ZM7.56682 3.95753C7.55682 3.94753 7.56682 3.94753 7.56682 3.95753V3.95753Z" fill="white"/>
<path d="M7.89355 4.405H8.54855C8.60755 4.392 8.66605 4.438 8.70705 4.529C8.71005 4.579 8.69805 4.628 8.67705 4.653C8.56848 4.60202 8.45 4.5756 8.33005 4.5756C8.21011 4.5756 8.09163 4.60202 7.98305 4.653H7.95305L7.89355 4.405Z" fill="white"/>
<path d="M10.2935 4.13601C10.0409 4.20736 9.7926 4.29351 9.55004 4.39401C9.52844 4.40068 9.50529 4.40042 9.48385 4.39324C9.46241 4.38606 9.44377 4.37234 9.43054 4.35401C9.42073 4.33224 9.41565 4.30863 9.41565 4.28475C9.41565 4.26088 9.42073 4.23727 9.43054 4.2155C9.44045 4.18325 9.44045 4.14876 9.43054 4.1165C9.41032 4.06228 9.37617 4.01434 9.33154 3.9775C9.31219 3.96147 9.28952 3.94992 9.26517 3.94369C9.24082 3.93747 9.21539 3.93672 9.19072 3.9415C9.16604 3.94628 9.14274 3.95648 9.12247 3.97135C9.10221 3.98622 9.0855 4.0054 9.07354 4.02751C8.94044 4.23561 8.84011 4.46293 8.77604 4.7015C8.75226 4.79708 8.70056 4.88342 8.62754 4.94951C8.47854 5.07851 8.34004 5.0885 8.14154 4.9795C8.08631 4.93936 8.03339 4.89613 7.98304 4.85C7.91485 4.77413 7.85501 4.69116 7.80454 4.6025C7.72454 4.4535 7.64554 4.29501 7.56654 4.15601C7.45704 3.97751 7.34804 3.80901 7.15004 3.71951C7.08636 3.69641 7.01722 3.69293 6.95154 3.70951C6.92258 3.71511 6.89516 3.7269 6.87117 3.74408C6.84719 3.76125 6.82719 3.78339 6.81254 3.809C6.78254 3.8585 6.38604 3.86851 6.24754 3.78901C6.17754 3.74901 5.97954 3.55101 5.91004 3.57101C5.85054 3.57101 5.82104 3.531 5.78104 3.5015C5.69217 3.44044 5.59006 3.40139 5.48313 3.38757C5.3762 3.37375 5.26751 3.38555 5.16604 3.422C5.12357 3.43201 5.08497 3.45426 5.05502 3.48598C5.02507 3.51771 5.00508 3.55753 4.99754 3.60051C4.99807 3.64633 5.01264 3.69088 5.03928 3.72817C5.06592 3.76545 5.10336 3.79366 5.14654 3.809C5.24504 3.846 5.34104 3.889 5.43404 3.938C5.48404 3.958 5.56304 3.96801 5.55304 4.05701C5.55222 4.08058 5.5556 4.10412 5.56304 4.12651C5.57304 4.25501 5.48354 4.265 5.39454 4.265C5.26753 4.25489 5.14149 4.235 5.01754 4.20551C4.88042 4.15927 4.73511 4.14241 4.59104 4.15601C4.55104 4.20601 4.50204 4.176 4.45204 4.186C4.27354 4.216 4.13504 4.34451 4.14504 4.49301C4.15504 4.66201 4.29354 4.7015 4.43254 4.731C4.76954 4.811 5.10704 4.781 5.44404 4.791C5.85054 4.791 6.07904 4.989 6.13804 5.396C6.17804 5.693 7.07054 13.508 7.08054 13.6765C7.08136 13.7109 7.09344 13.7441 7.11493 13.7711C7.13642 13.798 7.16614 13.8171 7.19954 13.8255C7.53654 13.928 7.88854 13.9755 8.24054 13.9645C8.63604 13.9745 9.03054 13.9245 9.41054 13.8155C9.47054 13.7955 9.52004 13.7755 9.52004 13.6965C9.53004 13.4885 10.095 6.02051 10.095 5.90151C10.0891 5.55417 10.201 5.21508 10.4125 4.9395C10.581 4.741 10.7695 4.56251 10.938 4.36451C10.988 4.08651 10.6305 4.08651 10.2935 4.13601Z" fill="white"/>
</g>
<defs>
<clipPath id="clip0_7_7867">
<rect width="16" height="16" fill="white"/>
</clipPath>
</defs>
</svg>
