<svg width="16" height="16" viewBox="0 0 16 16" fill="none" xmlns="http://www.w3.org/2000/svg">
<g clip-path="url(#clip0_7_7865)">
<path d="M8 16C12.4183 16 16 12.4183 16 8C16 3.58172 12.4183 0 8 0C3.58172 0 0 3.58172 0 8C0 12.4183 3.58172 16 8 16Z" fill="#117FC0"/>
<path d="M13.2483 5.16599L9.02081 12.136H6.49981L8.43731 8.93749H6.51181L4.26681 12.6395C5.33698 13.5094 6.67603 13.9808 8.05517 13.973C9.43431 13.9652 10.7679 13.4787 11.8282 12.5968C12.8885 11.7148 13.6096 10.492 13.8683 9.13731C14.1271 7.78264 13.9074 6.38016 13.2468 5.16949L13.2483 5.16599ZM9.55731 3.91499L7.72231 6.93499H9.65031L11.7873 3.41049C10.7171 2.54055 9.37809 2.06921 7.99895 2.077C6.61981 2.08479 5.28617 2.57124 4.2259 3.45323C3.16563 4.33521 2.44452 5.558 2.18578 6.91268C1.92704 8.26735 2.14673 9.66983 2.80731 10.8805L7.03331 3.91549H9.55681L9.55731 3.91499Z" fill="white"/>
</g>
<defs>
<clipPath id="clip0_7_7865">
<rect width="16" height="16" fill="white"/>
</clipPath>
</defs>
</svg>
