<svg width="16" height="16" viewBox="0 0 16 16" fill="none" xmlns="http://www.w3.org/2000/svg">
<g clip-path="url(#clip0_7_7864)">
<path d="M8 16C12.4183 16 16 12.4183 16 8C16 3.58172 12.4183 0 8 0C3.58172 0 0 3.58172 0 8C0 12.4183 3.58172 16 8 16Z" fill="black"/>
<path d="M11.6325 6.175L10.9835 5.016L12.241 5.0165C12.2593 5.01745 12.2771 5.02275 12.2929 5.03197C12.3088 5.04119 12.3221 5.05406 12.332 5.0695L12.577 5.4745L13 6.175H11.6325ZM9.3065 13.195C9.2765 13.25 9.2365 13.25 9.2235 13.25H8.71L7.938 13.2495L9.9355 9.6435C9.95163 9.61418 9.95991 9.58119 9.95952 9.54773C9.95913 9.51426 9.95009 9.48147 9.93328 9.45253C9.91648 9.4236 9.89247 9.3995 9.86359 9.38259C9.83472 9.36567 9.80196 9.35651 9.7685 9.356L6.3635 9.3605L5.6865 8.1815H10.649L10.657 8.1805C10.6765 8.17952 10.6957 8.17547 10.714 8.1685L10.7265 8.1635C10.7652 8.14671 10.7972 8.1175 10.8175 8.0805L11.635 6.561H12.985L9.3065 13.195ZM7.6055 13.058L7.444 12.791C7.2375 12.4485 6.973 12.0095 6.943 11.961C6.933 11.945 6.928 11.9055 6.9495 11.867L8.1215 9.744L9.442 9.7425L7.6055 13.058ZM5.354 10.8015L4.6975 9.63L5.359 8.3835L6.0225 9.538L5.354 10.8015ZM4.473 10.984H3.758C3.73991 10.9828 3.72235 10.9774 3.70673 10.9682C3.6911 10.959 3.67784 10.9462 3.668 10.931L3.4545 10.5775L3 9.825H4.367L5.016 10.984H4.473ZM6.693 2.8055C6.723 2.75 6.763 2.75 6.7755 2.75H8.0665L6.0635 6.356L6.0595 6.366C6.05384 6.37788 6.04932 6.39027 6.046 6.403L6.042 6.4205C6.04082 6.42761 6.04015 6.43479 6.04 6.442L6.039 6.452C6.039 6.454 6.039 6.4565 6.04 6.4585C6.03992 6.46555 6.04059 6.47259 6.042 6.4795C6.04249 6.48557 6.04349 6.4916 6.045 6.4975L6.05 6.5155C6.05417 6.52702 6.05919 6.53822 6.065 6.549C6.07108 6.55999 6.07865 6.57009 6.0875 6.579C6.09533 6.58834 6.10422 6.59673 6.114 6.604C6.119 6.6085 6.125 6.6125 6.1305 6.616L6.1365 6.6205C6.1385 6.622 6.141 6.622 6.1435 6.6235C6.1535 6.6285 6.1635 6.633 6.1745 6.636L6.186 6.6395C6.20022 6.64312 6.21483 6.64497 6.2295 6.645H6.3165L9.6355 6.6405C9.7235 6.794 9.8875 7.083 10.027 7.3285L10.293 7.796H5.353L5.347 7.797C5.31282 7.79744 5.27939 7.80705 5.2502 7.82481C5.221 7.84258 5.1971 7.86785 5.181 7.898L4.363 9.44H3.015C3.604 8.376 6.6535 2.8755 6.693 2.8055ZM8.3965 2.9465L8.5165 3.145C8.727 3.4945 9.0245 3.9875 9.0565 4.039C9.0665 4.055 9.0705 4.0945 9.0495 4.133L7.878 6.255L6.558 6.2565L8.3965 2.9465ZM10.645 5.1975L11.3015 6.37L10.632 7.614L10.36 7.1355C10.176 6.812 10.042 6.576 9.9665 6.4445C10.11 6.182 10.487 5.487 10.645 5.1975Z" fill="white"/>
</g>
<defs>
<clipPath id="clip0_7_7864">
<rect width="16" height="16" fill="white"/>
</clipPath>
</defs>
</svg>
