<svg width="16" height="16" viewBox="0 0 16 16" fill="none" xmlns="http://www.w3.org/2000/svg">
<g clip-path="url(#clip0_7_7863)">
<path d="M8 16C12.4183 16 16 12.4183 16 8C16 3.58172 12.4183 0 8 0C3.58172 0 0 3.58172 0 8C0 12.4183 3.58172 16 8 16Z" fill="#D59143"/>
<path d="M3.98672 8.22651C3.72772 8.43251 3.49672 8.79852 3.50822 9.35802C3.51672 9.74502 3.72472 10.01 3.98672 10.19V10.881C3.98672 11.313 4.19672 11.7175 4.55072 11.965L6.97722 13.6245V5.14502L3.98672 6.02002V8.22651ZM4.63822 8.02252C5.14172 8.39102 5.14172 10.5805 5.14172 10.5805C5.14172 10.5805 4.57222 10.5255 4.10172 10.2625C4.48972 10.393 4.80122 10.364 4.93672 10.379L4.94572 10.3795H4.94772L4.95472 10.3805L4.97372 10.382L4.98022 10.383H4.98672C4.98672 10.383 5.06672 8.47202 4.48822 8.13702C4.39422 8.10452 4.22822 8.12352 4.04522 8.18202C4.27822 8.02502 4.52172 7.97202 4.63822 8.02252ZM7.18672 11.4745H8.81822V13.6275H7.18722V11.475L7.18672 11.4745ZM6.81672 4.98452L3.98672 5.79552V2.76002C3.98665 2.70959 4.00153 2.66027 4.02948 2.61829C4.05743 2.57632 4.0972 2.54358 4.14376 2.52421C4.19032 2.50483 4.24158 2.4997 4.29106 2.50946C4.34053 2.51921 4.386 2.54342 4.42172 2.57902L6.96172 5.12902L6.81672 4.98452ZM7.18672 8.02002H8.81822V11.267H7.18722L7.18672 8.02002ZM9.18322 4.98502L9.07822 5.09002L11.5782 2.58002C11.6139 2.54431 11.6593 2.51997 11.7087 2.51008C11.7582 2.5002 11.8095 2.50521 11.8561 2.52448C11.9028 2.54374 11.9426 2.57641 11.9707 2.61834C11.9987 2.66026 12.0137 2.70957 12.0137 2.76002V5.79502L9.18372 4.98502H9.18322ZM7.18722 5.14552H8.81822V7.81052H7.18722V5.14552ZM12.0137 8.22651V6.02002L9.02822 5.14702V13.6275L11.4497 11.965C11.6239 11.843 11.766 11.6808 11.8642 11.4922C11.9624 11.3036 12.0137 11.0941 12.0137 10.8815V10.19C12.2757 10.01 12.4837 9.74502 12.4922 9.35802C12.5042 8.79852 12.2727 8.43251 12.0137 8.22651ZM11.0337 10.4135H11.0402L11.0462 10.413L11.0547 10.412H11.0567L11.0742 10.4105H11.0752L11.0832 10.4095L11.1577 10.401H11.1612C11.3242 10.38 11.5242 10.382 11.8312 10.286L11.8992 10.2635C11.4282 10.5265 10.8592 10.5815 10.8592 10.5815C10.8592 10.5815 10.8592 8.39252 11.3627 8.02402C11.4792 7.97302 11.7227 8.02602 11.9552 8.18402C11.7722 8.12552 11.6067 8.10652 11.5122 8.13902C10.9337 8.47352 11.0332 10.414 11.0332 10.414L11.0337 10.4135Z" fill="white"/>
</g>
<defs>
<clipPath id="clip0_7_7863">
<rect width="16" height="16" fill="white"/>
</clipPath>
</defs>
</svg>
