<svg width="16" height="16" viewBox="0 0 16 16" fill="none" xmlns="http://www.w3.org/2000/svg">
<g clip-path="url(#clip0_7_7862)">
<path d="M8 16C12.4183 16 16 12.4183 16 8C16 3.58172 12.4183 0 8 0C3.58172 0 0 3.58172 0 8C0 12.4183 3.58172 16 8 16Z" fill="#8834FF"/>
<path d="M3.5 10.615C3.5955 10.615 3.696 10.62 3.7915 10.615C3.973 10.6015 4.155 10.565 4.3325 10.52C4.68255 10.4244 5.01019 10.2604 5.2965 10.0375C5.3785 9.974 5.46 9.906 5.5375 9.833C5.701 9.6695 5.8425 9.483 5.956 9.283C6.056 9.1055 6.1285 8.9145 6.1835 8.719C6.188 8.7055 6.188 8.687 6.1925 8.6735H5.4785C5.33012 8.67284 5.18226 8.65607 5.0375 8.6235C5.02444 8.61819 5.01058 8.61515 4.9965 8.6145C4.98955 8.61097 4.98328 8.60623 4.978 8.6005C5.019 8.51 5.0555 8.4235 5.092 8.3325L5.3695 7.691C5.37837 7.66037 5.39204 7.63134 5.41 7.605C5.42982 7.58666 5.45601 7.57679 5.483 7.5775C5.706 7.573 5.924 7.5775 6.147 7.5775H6.206C6.197 7.541 6.197 7.514 6.188 7.4825C6.10745 7.17483 5.96505 6.88681 5.7695 6.636C5.67333 6.51354 5.56839 6.39824 5.4555 6.291C5.3143 6.15816 5.15708 6.04344 4.9875 5.9495C4.81078 5.85011 4.62492 5.7679 4.4325 5.704C4.27223 5.65378 4.10797 5.61731 3.9415 5.595C3.8095 5.581 3.682 5.5765 3.5505 5.5675C3.5185 5.5675 3.4865 5.563 3.455 5.5585C3.4485 5.55655 3.44258 5.55302 3.43778 5.54822C3.43298 5.54342 3.42945 5.5375 3.4275 5.531C3.382 5.4265 3.3365 5.3265 3.291 5.222C3.236 5.099 3.186 4.9765 3.132 4.858C3.091 4.758 3.0455 4.663 3 4.558L3.0955 4.5305C3.2955 4.5035 3.5005 4.4945 3.705 4.5035C4.03059 4.51441 4.35393 4.5617 4.669 4.6445C4.869 4.699 5.069 4.767 5.26 4.849C5.5285 4.9625 5.783 5.104 6.02 5.272C6.124 5.349 6.2285 5.431 6.329 5.513C6.374 5.5495 6.4195 5.5905 6.465 5.631C6.6925 5.8495 6.8925 6.0995 7.061 6.368C7.229 6.636 7.352 6.927 7.434 7.232C7.461 7.332 7.479 7.437 7.502 7.537C7.50463 7.54467 7.50953 7.55136 7.51605 7.55618C7.52257 7.561 7.5304 7.56373 7.5385 7.564H8.4615C8.48 7.491 8.4935 7.4185 8.507 7.3455C8.562 7.132 8.6345 6.927 8.7255 6.7315C8.798 6.568 8.889 6.409 8.9935 6.2635C9.089 6.1315 9.189 5.9995 9.2985 5.877C9.37891 5.78197 9.46543 5.69228 9.5575 5.6085C9.74875 5.43488 9.95582 5.27954 10.176 5.1445C10.4035 5.0035 10.64 4.8895 10.89 4.799C11.063 4.74 11.2355 4.6855 11.4085 4.64C11.54 4.608 11.6675 4.585 11.804 4.567C11.913 4.549 12.027 4.54 12.1405 4.5305C12.2135 4.526 12.2815 4.5215 12.3545 4.5215C12.4635 4.5215 12.568 4.517 12.6725 4.5215C12.7775 4.5265 12.882 4.549 12.9865 4.567C12.991 4.567 12.991 4.572 13 4.5805L12.9225 4.7625C12.841 4.9535 12.759 5.1445 12.6725 5.34C12.6395 5.40862 12.6091 5.47851 12.5815 5.5495C12.5635 5.5945 12.518 5.5765 12.4865 5.5855C12.459 5.5905 12.4365 5.5905 12.409 5.5855C11.9442 5.59002 11.4861 5.69725 11.0675 5.8995C10.8717 5.99514 10.6884 6.11436 10.5215 6.2545C10.4535 6.3135 10.3765 6.3725 10.3125 6.4405C10.1485 6.6045 10.0075 6.7905 9.894 6.9955C9.80278 7.16465 9.72971 7.34297 9.676 7.5275C9.671 7.541 9.671 7.5595 9.6665 7.573H9.7165C9.953 7.573 10.194 7.568 10.4305 7.573C10.5715 7.573 10.7125 7.5955 10.849 7.641C10.854 7.646 10.858 7.646 10.8625 7.6505L10.731 7.9505C10.64 8.164 10.5445 8.378 10.4535 8.596C10.426 8.66 10.408 8.6735 10.335 8.6735H9.671C9.6895 8.737 9.703 8.7915 9.721 8.8465C9.785 9.0375 9.876 9.219 9.9895 9.3875C10.058 9.4875 10.1305 9.5785 10.208 9.6695C10.253 9.724 10.303 9.7785 10.353 9.824C10.5215 9.9875 10.713 10.129 10.917 10.2425C11.09 10.3425 11.2765 10.4245 11.4675 10.4875C11.6495 10.5515 11.8405 10.5925 12.036 10.6105L12.395 10.638C12.4405 10.643 12.486 10.643 12.5315 10.647C12.5405 10.652 12.55 10.656 12.5545 10.6655C12.6315 10.847 12.709 11.029 12.791 11.211L12.986 11.6565C12.9225 11.6705 12.8635 11.684 12.8 11.6885C12.645 11.6975 12.486 11.7065 12.3315 11.7065C12.1905 11.7065 12.0495 11.693 11.913 11.675C11.7239 11.6483 11.5358 11.6149 11.349 11.575C11.1251 11.52 10.9061 11.447 10.694 11.3565C10.4415 11.2484 10.2008 11.1143 9.976 10.9565C9.85882 10.8696 9.74362 10.7801 9.6305 10.688C9.55635 10.6276 9.48636 10.5623 9.421 10.4925C9.13377 10.2003 8.8972 9.86238 8.721 9.4925C8.61797 9.27342 8.54159 9.04277 8.4935 8.8055C8.4845 8.7825 8.48 8.7555 8.475 8.7325C8.475 8.6875 8.4525 8.678 8.4115 8.678H7.493C7.44727 8.92492 7.37398 9.16592 7.2745 9.3965C7.19384 9.59219 7.09172 9.77833 6.97 9.9515C6.87482 10.0853 6.77302 10.2143 6.665 10.338C6.58722 10.4324 6.50213 10.5205 6.4105 10.6015C6.2695 10.7245 6.1195 10.838 5.9695 10.9515C5.7891 11.0797 5.59729 11.191 5.3965 11.284C5.0227 11.4617 4.62393 11.5813 4.214 11.6385C4.073 11.661 3.932 11.675 3.7915 11.6885C3.71123 11.693 3.63077 11.693 3.5505 11.6885C3.432 11.6885 3.314 11.6835 3.2005 11.6795C3.159 11.6745 3.118 11.6705 3.0775 11.661C3.0545 11.6565 3.0455 11.6475 3.059 11.6205C3.15 11.411 3.2455 11.202 3.3365 10.9925C3.3915 10.8655 3.4415 10.7475 3.5 10.6155V10.615Z" fill="white"/>
</g>
<defs>
<clipPath id="clip0_7_7862">
<rect width="16" height="16" fill="white"/>
</clipPath>
</defs>
</svg>
