<svg width="16" height="16" viewBox="0 0 16 16" fill="none" xmlns="http://www.w3.org/2000/svg">
<g clip-path="url(#clip0_7_7860)">
<path d="M8 16C12.4183 16 16 12.4183 16 8C16 3.58172 12.4183 0 8 0C3.58172 0 0 3.58172 0 8C0 12.4183 3.58172 16 8 16Z" fill="#1591CA"/>
<path d="M8.28643 7.63601C8.28643 7.63601 8.94993 6.16101 7.64893 4.73601C7.64893 4.73601 6.90893 3.78601 5.37893 3.86101L5.68443 3.74101C5.73543 3.72101 5.78893 3.70701 5.84293 3.70001L6.14393 3.66101L8.26093 3.33601C8.26093 3.33601 9.00943 3.18901 9.57693 3.35101C9.73843 3.39751 9.88543 3.48501 10.0019 3.60401C10.3149 3.92101 10.9434 4.75951 10.5319 6.08601C10.5319 6.08601 10.1234 7.56101 8.59293 7.91101C8.59293 7.91101 8.20993 8.01101 8.28643 7.63601ZM8.19193 8.45801C8.19193 8.45801 9.14843 9.76951 11.0629 9.40001C11.0629 9.40001 12.2739 9.26051 12.9884 7.93151L12.9374 8.25101C12.9289 8.30401 12.9139 8.35601 12.8924 8.40551L12.7734 8.67901L11.9794 10.629C11.9794 10.629 11.7269 11.3345 11.2954 11.7305C11.1716 11.8433 11.0207 11.9224 10.8574 11.96C10.4199 12.0615 9.36343 12.164 8.40843 11.141C8.40843 11.141 7.32193 10.045 7.79493 8.57601C7.79493 8.57501 7.90193 8.20251 8.19193 8.45801ZM7.49943 7.98451C7.49943 7.98451 5.86443 8.15651 5.25193 9.97201C5.25193 9.97201 4.77993 11.074 5.60893 12.337L5.35043 12.137C5.30746 12.1038 5.26883 12.0653 5.23543 12.0225L5.05043 11.7865L3.70843 10.15C3.70843 10.15 3.20493 9.58651 3.06643 9.02501C3.02643 8.86401 3.03043 8.69501 3.07743 8.53601C3.20193 8.11251 3.63043 7.16101 5.00893 6.85001C5.00893 6.85001 6.51743 6.46151 7.58993 7.58801C7.59093 7.58801 7.86943 7.86301 7.49943 7.98451Z" fill="white"/>
<path opacity="0.5" d="M8.553 8.07952C8.553 8.07952 10.183 7.86752 10.748 6.03702C10.748 6.03702 11.1915 4.92352 10.3295 3.68152L10.5935 3.87502C10.637 3.90752 10.677 3.94502 10.7115 3.98652L10.902 4.21752L12.287 5.82052C12.287 5.82052 12.804 6.37052 12.958 6.92952C13.0015 7.08952 13.0015 7.25752 12.958 7.41752C12.8445 7.84402 12.441 8.80652 11.0705 9.15152C11.0705 9.15152 9.5725 9.57652 8.4715 8.47852C8.4725 8.47852 8.1865 8.21052 8.553 8.07952ZM7.734 8.38152C7.734 8.38152 7.0335 9.83952 8.2975 11.296C8.2975 11.296 9.012 12.2635 10.545 12.226L10.236 12.3385C10.1845 12.3571 10.1309 12.3694 10.0765 12.375L9.775 12.407L7.65 12.68C7.65 12.68 6.8985 12.8085 6.335 12.6325C6.17519 12.5821 6.03106 12.4913 5.9165 12.369C5.6115 12.044 5.005 11.191 5.4505 9.87552C5.4505 9.87552 5.8955 8.41052 7.435 8.09852C7.435 8.10002 7.8215 8.00852 7.734 8.38152ZM7.7885 7.61302C7.7885 7.61302 6.8125 6.31502 4.904 6.71302C4.904 6.71302 3.695 6.86902 3 8.20802L3.046 7.88752C3.05386 7.83427 3.0683 7.78221 3.089 7.73252L3.204 7.45752L3.969 5.49552C3.969 5.49552 4.2115 4.78652 4.637 4.38452C4.75974 4.27014 4.90991 4.18937 5.073 4.15002C5.509 4.04152 6.564 3.92502 7.533 4.93452C7.533 4.93452 8.6355 6.01502 8.184 7.49052C8.184 7.48952 8.082 7.86452 7.7885 7.61302Z" fill="white"/>
</g>
<defs>
<clipPath id="clip0_7_7860">
<rect width="16" height="16" fill="white"/>
</clipPath>
</defs>
</svg>
