<svg width="16" height="16" viewBox="0 0 16 16" fill="none" xmlns="http://www.w3.org/2000/svg">
<g clip-path="url(#clip0_7_7859)">
<path d="M8 16C12.4183 16 16 12.4183 16 8C16 3.58172 12.4183 0 8 0C3.58172 0 0 3.58172 0 8C0 12.4183 3.58172 16 8 16Z" fill="#56428E"/>
<path d="M5.375 3.75H7.552C7.29 4.165 7.1295 4.6235 7.1395 5.12C7.787 5.1265 8.4365 5.1265 9.0845 5.12C9.093 4.6265 8.9605 4.155 8.677 3.75H10.869C10.718 4.0665 10.4615 4.36 10.486 4.7315C10.476 6.3935 10.4895 8.0565 10.4845 9.7185C10.6995 9.7185 10.917 9.7185 11.1345 9.72C11.293 9.405 11.434 9.0835 11.5465 8.75C12.1975 8.7665 12.852 8.7315 13.5 8.8185C12.859 9.3715 12.524 10.1585 12.1065 10.875C10.4495 10.8785 8.793 10.87 7.1345 10.88C7.0565 11.485 7.4295 11.9015 7.8615 12.25H5.063C5.3065 11.9285 5.797 11.7215 5.7455 11.25C5.762 9.6435 5.7455 8.035 5.7505 6.4265H7.1705V7.4165H9.0545V6.2815H5.121L4.1435 8C4.4685 8.5735 4.7945 9.146 5.1225 9.7185H5.6065V10.875H4.127C3.587 9.915 3.027 8.9665 2.5 8V7.9985C3.0285 7.0335 3.59 6.085 4.127 5.125C4.679 5.125 5.2305 5.125 5.782 5.12C5.78935 4.63242 5.64714 4.1543 5.3745 3.75H5.375ZM7.171 8.5835V9.7185H9.0545V8.5835H7.171ZM10.6285 5.125H12.1035C12.5075 5.775 12.7855 6.525 13.3685 7.045C13.3805 7.0835 13.402 7.162 13.4135 7.2C12.7905 7.282 12.1595 7.2185 11.5315 7.25C11.4515 6.9035 11.2945 6.585 11.1205 6.28L10.6285 6.2815V5.125ZM9.106 11.02C9.5415 11.0215 9.979 11.02 10.415 11.0185C10.405 11.575 10.7945 11.92 11.177 12.25H8.3585C8.72 11.907 9.1425 11.5815 9.106 11.02Z" fill="white"/>
</g>
<defs>
<clipPath id="clip0_7_7859">
<rect width="16" height="16" fill="white"/>
</clipPath>
</defs>
</svg>
