<svg width="16" height="16" viewBox="0 0 16 16" fill="none" xmlns="http://www.w3.org/2000/svg">
<g clip-path="url(#clip0_7_7858)">
<path d="M8 16C12.4183 16 16 12.4183 16 8C16 3.58172 12.4183 0 8 0C3.58172 0 0 3.58172 0 8C0 12.4183 3.58172 16 8 16Z" fill="#2A3069"/>
<path d="M9.17303 5.26652C9.17303 3.50652 8.31952 2.01352 7.67952 1.53352C7.67952 1.53352 7.62603 1.48002 7.62603 1.58652C7.57303 4.94652 5.86603 5.85352 4.95953 7.13352C2.77303 9.96002 4.79953 13.1065 6.87953 13.6935C8.05303 14.0135 6.61302 13.1065 6.45302 11.24C6.18602 8.89352 9.17303 7.18652 9.17303 5.26652Z" fill="white"/>
<path d="M10.2929 6.44C10.1859 6.8665 9.75939 7.7735 9.17289 8.6265C7.19939 11.4535 8.31939 12.84 8.95939 13.5865C9.33289 14.0135 8.95939 13.5865 9.86589 13.16C9.91939 13.1065 11.6794 12.2 11.8394 10.12C12.0529 8.0935 10.7729 6.8135 10.2929 6.44Z" fill="white"/>
</g>
<defs>
<clipPath id="clip0_7_7858">
<rect width="16" height="16" fill="white"/>
</clipPath>
</defs>
</svg>
