<svg width="16" height="16" viewBox="0 0 16 16" fill="none" xmlns="http://www.w3.org/2000/svg">
<g clip-path="url(#clip0_7_7841)">
<path d="M8 16C12.4183 16 16 12.4183 16 8C16 3.58172 12.4183 0 8 0C3.58172 0 0 3.58172 0 8C0 12.4183 3.58172 16 8 16Z" fill="#CFA967"/>
<path d="M8.01 8.4725V12.469L10.9835 11.668L11.682 3.973H8.01V7.239L8.162 6.7655H8.56L8.01 8.4725ZM4.318 12.2345L3.5 3.25H12.5L11.682 12.2345L7.99 13.25L4.318 12.2345ZM6.8995 8.838V8.4675L5.665 7.9755L6.9 7.4805V7.1095L5.1365 7.826V8.122L6.8995 8.838ZM10.866 8.122L9.1025 8.838V8.4675L10.3375 7.974L9.1025 7.4805V7.1095L10.866 7.826V8.122ZM8.01 8.4725V7.239L7.3515 9.2925H7.7455L8.01 8.4725Z" fill="white"/>
</g>
<defs>
<clipPath id="clip0_7_7841">
<rect width="16" height="16" fill="white"/>
</clipPath>
</defs>
</svg>
