<svg width="16" height="16" viewBox="0 0 16 16" fill="none" xmlns="http://www.w3.org/2000/svg">
<g clip-path="url(#clip0_7_7728)">
<path d="M8 16C12.4183 16 16 12.4183 16 8C16 3.58172 12.4183 0 8 0C3.58172 0 0 3.58172 0 8C0 12.4183 3.58172 16 8 16Z" fill="#005FFA"/>
<path fill-rule="evenodd" clip-rule="evenodd" d="M10.3466 7.299C10.1252 7.19842 9.88483 7.14642 9.64164 7.1465H7.18314C6.95638 7.1465 6.73891 7.05642 6.57856 6.89607C6.41822 6.73573 6.32814 6.51826 6.32814 6.2915V3.3465H4.61914V7.1465C4.61914 7.60002 4.7993 8.03496 5.11999 8.35565C5.44068 8.67634 5.87562 8.8565 6.32914 8.8565H8.78714C9.0139 8.8565 9.23137 8.94658 9.39172 9.10692C9.55206 9.26726 9.64214 9.48474 9.64214 9.7115V12.6565H11.3516V8.8565C11.3516 8.52774 11.2568 8.20595 11.0786 7.92971C10.9003 7.65347 10.6462 7.43448 10.3466 7.299ZM4.67764 9.9015V12.7735H6.38764V11.611C6.38751 11.1576 6.20729 10.7227 5.88662 10.4022C5.56594 10.0816 5.13107 9.9015 4.67764 9.9015ZM9.93964 3.4645H9.58264V4.627C9.58264 5.08052 9.7628 5.51546 10.0835 5.83615C10.4042 6.15684 10.8391 6.337 11.2926 6.337V3.464L9.93964 3.4645Z" fill="white"/>
</g>
<defs>
<clipPath id="clip0_7_7728">
<rect width="16" height="16" fill="white"/>
</clipPath>
</defs>
</svg>
