<svg width="16" height="16" viewBox="0 0 16 16" fill="none" xmlns="http://www.w3.org/2000/svg">
<g clip-path="url(#clip0_7_8074)">
<path d="M8 16C12.4183 16 16 12.4183 16 8C16 3.58172 12.4183 0 8 0C3.58172 0 0 3.58172 0 8C0 12.4183 3.58172 16 8 16Z" fill="#292929"/>
<path fill-rule="evenodd" clip-rule="evenodd" d="M7.5035 9.32852C7.5035 9.09852 7.5045 8.86902 7.503 8.63952C7.5025 8.57552 7.521 8.52652 7.5805 8.50052C7.6355 8.47652 7.693 8.49352 7.741 8.54952C7.884 8.71652 8.026 8.88452 8.1685 9.05252C8.2185 9.11102 8.269 9.16902 8.3175 9.22952C8.3289 9.2438 8.33554 9.26128 8.3365 9.27952C8.3375 9.52202 8.338 9.76452 8.337 10.0065C8.33832 10.1132 8.29937 10.2165 8.22791 10.2957C8.15646 10.375 8.05776 10.4243 7.9515 10.434C7.84532 10.4408 7.7405 10.4072 7.65813 10.3398C7.57576 10.2725 7.52194 10.1764 7.5075 10.071C7.503 10.0435 7.5035 10.015 7.5035 9.98702V9.32852ZM7.505 4.82352C7.5045 4.81352 7.5035 4.80402 7.5035 4.79402V3.42802C7.504 3.21802 7.648 3.04102 7.843 3.00652C7.90314 2.99533 7.96501 2.99756 8.02419 3.01305C8.08337 3.02853 8.1384 3.05689 8.18535 3.09611C8.2323 3.13532 8.27002 3.18442 8.2958 3.23989C8.32158 3.29537 8.3348 3.35585 8.3345 3.41702C8.3395 3.88252 8.3365 4.34852 8.3375 4.81402L8.335 4.83802C8.238 4.67202 8.104 4.58902 7.921 4.58952C7.74 4.58952 7.605 4.66952 7.505 4.82352ZM7.5035 11.13C7.6055 11.285 7.7415 11.364 7.924 11.3635C8.106 11.363 8.2385 11.28 8.3375 11.126V12.283C8.337 12.3965 8.3405 12.511 8.3305 12.623C8.32082 12.7299 8.27008 12.8288 8.18895 12.899C8.10783 12.9692 8.00264 13.0053 7.8955 12.9995C7.78981 12.9924 7.69073 12.9456 7.61819 12.8684C7.54564 12.7912 7.50502 12.6894 7.5045 12.5835C7.502 12.137 7.5035 11.6905 7.5035 11.2435V11.13ZM8.3375 6.71702V7.54752C8.3375 7.62652 8.3125 7.66952 8.2525 7.69352C8.22146 7.7063 8.18711 7.70863 8.15463 7.70015C8.12216 7.69167 8.09333 7.67285 8.0725 7.64652L7.7105 7.22252C7.648 7.14952 7.5855 7.07702 7.524 7.00252C7.51221 6.98839 7.50521 6.97088 7.504 6.95252C7.503 6.59552 7.5025 6.23802 7.504 5.88102C7.50334 5.77558 7.54236 5.67375 7.61332 5.59576C7.68427 5.51776 7.78197 5.46931 7.887 5.46002C8.0845 5.43802 8.2805 5.58502 8.3265 5.79202C8.334 5.82652 8.3365 5.86252 8.3365 5.89802C8.3375 6.17102 8.3375 6.44402 8.3375 6.71702ZM9.203 5.02852V3.91852C9.204 3.71752 9.3185 3.55352 9.4965 3.49752C9.7665 3.41202 10.0365 3.61602 10.038 3.91002C10.0395 4.18702 10.038 4.46402 10.038 4.74052V6.13802C10.038 6.34452 9.914 6.51152 9.7245 6.56302C9.478 6.62952 9.2265 6.44802 9.206 6.18852C9.20417 6.16306 9.20334 6.13755 9.2035 6.11202L9.203 5.02852ZM6.681 10.38V11.6625C6.68287 11.7627 6.64904 11.8604 6.58557 11.9379C6.5221 12.0155 6.43311 12.068 6.3345 12.086C6.0945 12.132 5.855 11.937 5.848 11.6875C5.846 11.616 5.8475 11.5445 5.8475 11.473V9.09652C5.8475 8.89702 5.9755 8.72852 6.1615 8.68052C6.22315 8.66497 6.28755 8.66372 6.34976 8.67687C6.41197 8.69003 6.47035 8.71723 6.52044 8.75641C6.57052 8.79559 6.61098 8.8457 6.63872 8.90292C6.66646 8.96013 6.68075 9.02294 6.6805 9.08652C6.682 9.51752 6.6805 9.94902 6.6805 10.38H6.681ZM6.681 5.65702V7.40652C6.68288 7.50355 6.6513 7.59827 6.59157 7.67476C6.53184 7.75124 6.44759 7.80483 6.353 7.82652C6.2924 7.83942 6.2297 7.83869 6.16942 7.82437C6.10914 7.81006 6.0528 7.78253 6.00447 7.74377C5.95613 7.70501 5.91702 7.65599 5.88996 7.60026C5.8629 7.54452 5.84857 7.48347 5.848 7.42152C5.8455 7.16852 5.8475 6.91602 5.847 6.66302V3.91002C5.847 3.70402 5.981 3.53202 6.1735 3.48852C6.2347 3.47509 6.29814 3.4756 6.35911 3.49003C6.42009 3.50445 6.47703 3.53241 6.52573 3.57184C6.57442 3.61126 6.61362 3.66115 6.64041 3.71779C6.66721 3.77442 6.68091 3.83637 6.6805 3.89902C6.682 4.34852 6.6805 4.79752 6.6805 5.24702L6.681 5.65702ZM9.203 9.75002V7.85002C9.203 7.66052 9.284 7.52002 9.453 7.44102C9.724 7.31552 10.028 7.51602 10.038 7.82252V11.6465C10.038 11.8555 9.9185 12.0215 9.73 12.0755C9.483 12.1465 9.227 11.9655 9.206 11.705C9.20411 11.6784 9.20327 11.6517 9.2035 11.625V9.74902L9.203 9.75002ZM11.75 7.81702V10.787C11.7524 10.886 11.7203 10.9827 11.659 11.0605C11.5978 11.1383 11.5113 11.1922 11.4145 11.213C11.1685 11.2665 10.9235 11.07 10.9165 10.8135V4.85352C10.9165 4.66102 11.013 4.50752 11.176 4.43952C11.451 4.32452 11.7495 4.53152 11.7495 4.83852V7.81652L11.75 7.81702ZM5.0835 7.81252V10.787C5.0835 10.997 4.9535 11.1655 4.7575 11.212C4.5075 11.272 4.257 11.075 4.25 10.8125V4.84402C4.25 4.63952 4.3725 4.47352 4.56 4.42152C4.62151 4.40535 4.68591 4.40347 4.74826 4.41602C4.81061 4.42856 4.86926 4.4552 4.91974 4.4939C4.97021 4.5326 5.01116 4.58233 5.03946 4.63929C5.06776 4.69625 5.08265 4.75892 5.083 4.82252C5.0855 5.15002 5.0835 5.47802 5.0835 5.80602V7.81202V7.81252Z" fill="white"/>
</g>
<defs>
<clipPath id="clip0_7_8074">
<rect width="16" height="16" fill="white"/>
</clipPath>
</defs>
</svg>
