<svg width="16" height="16" viewBox="0 0 16 16" fill="none" xmlns="http://www.w3.org/2000/svg">
<g clip-path="url(#clip0_7_7856)">
<path d="M8 16C12.4183 16 16 12.4183 16 8C16 3.58172 12.4183 0 8 0C3.58172 0 0 3.58172 0 8C0 12.4183 3.58172 16 8 16Z" fill="#292A2E"/>
<path d="M11.085 5.25C10.415 5.25 9.6835 5.5835 8.911 6.241C8.58346 6.5237 8.27558 6.8284 7.9895 7.153L7.9905 7.154L7.9915 7.153C7.9915 7.153 8.3675 7.55 8.7805 7.9745C9.06176 7.64529 9.3671 7.33744 9.694 7.0535C10.381 6.469 10.83 6.3465 11.0855 6.3465C12.049 6.3465 12.833 7.0885 12.833 8C12.833 8.907 12.0485 9.648 11.084 9.654C11.04 9.654 10.984 9.649 10.914 9.634C11.195 9.7515 11.497 9.8365 11.785 9.8365C13.5515 9.8365 13.8965 8.718 13.92 8.6385C13.9725 8.4335 14 8.22 14 8.0005C14 6.4835 12.6925 5.25 11.085 5.25ZM4.915 10.75C5.585 10.75 6.3165 10.4165 7.089 9.759C7.41654 9.4763 7.72442 9.1716 8.0105 8.847L8.0095 8.846C8.00919 8.84635 8.00885 8.84669 8.0085 8.847C8.0085 8.847 7.6325 8.45 7.2195 8.0255C6.93824 8.35471 6.6329 8.66256 6.306 8.9465C5.619 9.531 5.17 9.6535 4.9145 9.6535C3.951 9.6535 3.167 8.9115 3.167 8C3.167 7.093 3.9515 6.352 4.916 6.346C4.96 6.346 5.016 6.351 5.086 6.366C4.805 6.2485 4.503 6.1635 4.215 6.1635C2.4485 6.1635 2.1035 7.282 2.08 7.3615C2.0275 7.5665 2 7.78 2 7.9995C2 9.5165 3.3075 10.75 4.915 10.75Z" fill="white"/>
<path d="M11.7816 9.8085C10.8771 9.787 9.93707 9.095 9.74557 8.923C9.25007 8.478 8.10657 7.2745 8.01707 7.18C7.17907 6.269 6.04307 5.25 4.91457 5.25H4.91207C3.54007 5.2565 2.38707 6.1585 2.08057 7.362C2.10407 7.2825 2.55457 6.1425 4.21407 6.182C5.11857 6.204 6.06307 6.9055 6.25457 7.077C6.75007 7.522 7.89407 8.726 7.98307 8.8205C8.82107 9.731 9.95707 10.75 11.0856 10.75H11.0881C12.4601 10.7435 13.6131 9.8415 13.9196 8.638C13.8966 8.7175 13.4411 9.848 11.7816 9.8085Z" fill="white"/>
</g>
<defs>
<clipPath id="clip0_7_7856">
<rect width="16" height="16" fill="white"/>
</clipPath>
</defs>
</svg>
