<svg width="16" height="16" viewBox="0 0 16 16" fill="none" xmlns="http://www.w3.org/2000/svg">
<g clip-path="url(#clip0_7_8109)">
<path d="M8 16C12.4183 16 16 12.4183 16 8C16 3.58172 12.4183 0 8 0C3.58172 0 0 3.58172 0 8C0 12.4183 3.58172 16 8 16Z" fill="#1FC5C9"/>
<path fill-rule="evenodd" clip-rule="evenodd" d="M5.648 11.236L6.73 10.154C7.20751 10.4361 7.76526 10.5513 8.31546 10.4817C8.86567 10.412 9.37709 10.1614 9.76925 9.76925C10.1614 9.37709 10.412 8.86567 10.4817 8.31546C10.5513 7.76526 10.4361 7.20751 10.154 6.73L11.236 5.648C11.7969 6.41851 12.0642 7.36397 11.9899 8.31409C11.9155 9.26421 11.5044 10.1566 10.8305 10.8305C10.1566 11.5044 9.26421 11.9155 8.31409 11.9899C7.36397 12.0642 6.41851 11.7969 5.648 11.236ZM4.764 10.352C4.20313 9.58149 3.9358 8.63603 4.01015 7.68591C4.0845 6.73579 4.49564 5.84343 5.16953 5.16953C5.84343 4.49564 6.73579 4.0845 7.68591 4.01015C8.63603 3.9358 9.58149 4.20313 10.352 4.764L9.27 5.846C8.79249 5.56394 8.23474 5.44866 7.68454 5.51831C7.13433 5.58797 6.62291 5.83859 6.23075 6.23075C5.83859 6.62291 5.58797 7.13433 5.51831 7.68454C5.44866 8.23474 5.56394 8.79249 5.846 9.27L4.764 10.352ZM12 5C11.7348 5 11.4804 4.89464 11.2929 4.70711C11.1054 4.51957 11 4.26522 11 4C11 3.73478 11.1054 3.48043 11.2929 3.29289C11.4804 3.10536 11.7348 3 12 3C12.2652 3 12.5196 3.10536 12.7071 3.29289C12.8946 3.48043 13 3.73478 13 4C13 4.26522 12.8946 4.51957 12.7071 4.70711C12.5196 4.89464 12.2652 5 12 5ZM4 13C3.73478 13 3.48043 12.8946 3.29289 12.7071C3.10536 12.5196 3 12.2652 3 12C3 11.7348 3.10536 11.4804 3.29289 11.2929C3.48043 11.1054 3.73478 11 4 11C4.26522 11 4.51957 11.1054 4.70711 11.2929C4.89464 11.4804 5 11.7348 5 12C5 12.2652 4.89464 12.5196 4.70711 12.7071C4.51957 12.8946 4.26522 13 4 13Z" fill="white"/>
</g>
<defs>
<clipPath id="clip0_7_8109">
<rect width="16" height="16" fill="white"/>
</clipPath>
</defs>
</svg>
