<svg width="16" height="16" viewBox="0 0 16 16" fill="none" xmlns="http://www.w3.org/2000/svg">
<g clip-path="url(#clip0_7_7973)">
<path d="M8 16C12.4183 16 16 12.4183 16 8C16 3.58172 12.4183 0 8 0C3.58172 0 0 3.58172 0 8C0 12.4183 3.58172 16 8 16Z" fill="#F9C011"/>
<path d="M7.406 3C8.165 3.4435 8.879 3.957 9.631 4.4125L6.859 9.248C6.491 8.6025 6.146 7.944 5.7825 7.295C6.306 5.8575 6.904 4.445 7.406 3ZM5 13C6.5695 10.1455 8.2 7.3225 9.752 4.4605C10.167 5.189 10.5825 5.917 11 6.6455C9.797 8.7615 8.585 10.8725 7.3915 12.993C6.594 12.993 5.7975 12.983 5 13ZM7.541 12.9885C8.206 11.851 8.8325 10.6935 9.506 9.561C9.9075 10.0745 10.315 10.585 10.7135 11.101C9.65979 11.7365 8.60227 12.3657 7.541 12.9885Z" fill="white"/>
</g>
<defs>
<clipPath id="clip0_7_7973">
<rect width="16" height="16" fill="white"/>
</clipPath>
</defs>
</svg>
