<svg width="16" height="16" viewBox="0 0 16 16" fill="none" xmlns="http://www.w3.org/2000/svg">
<g clip-path="url(#clip0_7_7773)">
<path d="M8 16C12.4183 16 16 12.4183 16 8C16 3.58172 12.4183 0 8 0C3.58172 0 0 3.58172 0 8C0 12.4183 3.58172 16 8 16Z" fill="#98C23A"/>
<path d="M7.895 2C4.6395 2 2 4.6395 2 7.895C2 11.1505 4.6395 13.79 7.895 13.79C11.1505 13.79 13.79 11.1505 13.79 7.895C13.7845 4.6415 11.1485 2.0055 7.895 2ZM7.895 13C5.079 13 2.796 10.7175 2.795 7.9015C2.794 5.0855 5.0755 2.8015 7.8915 2.8C10.7075 2.798 12.992 5.079 12.995 7.895C12.992 10.7105 10.7105 12.992 7.895 12.995V13ZM5.29 7.37H4.34V5.29C4.34 4.9 4.525 4.705 4.895 4.705H6.955C7.03441 4.69154 7.1159 4.69747 7.19253 4.72228C7.26917 4.74708 7.33867 4.79004 7.39513 4.84748C7.45159 4.90492 7.49334 4.97516 7.51682 5.0522C7.5403 5.12925 7.54483 5.21083 7.53 5.29V7.37H6.59V5.52H5.29V7.37ZM6.59 7.98H7.54V10.48C7.5539 10.5588 7.54869 10.6398 7.52479 10.7162C7.5009 10.7925 7.45902 10.8621 7.40269 10.9189C7.34635 10.9757 7.27719 11.0182 7.20103 11.0428C7.12487 11.0673 7.04392 11.0732 6.965 11.06H4.895C4.81699 11.0692 4.73789 11.06 4.66413 11.0329C4.59037 11.0059 4.52402 10.9619 4.47045 10.9044C4.41688 10.8469 4.37761 10.7777 4.35582 10.7022C4.33402 10.6267 4.33031 10.5472 4.345 10.47V7.97H6.595L6.59 7.98ZM10.49 8.015H11.45V10.515C11.4641 10.5943 11.4589 10.6758 11.4348 10.7527C11.4106 10.8295 11.3683 10.8994 11.3113 10.9563C11.2544 11.0133 11.1845 11.0556 11.1077 11.0798C11.0308 11.1039 10.9493 11.1091 10.87 11.095H8.785C8.70645 11.1073 8.62609 11.1007 8.5506 11.0758C8.47511 11.0508 8.40666 11.0082 8.35093 10.9515C8.2952 10.8948 8.25379 10.8256 8.23015 10.7497C8.20651 10.6738 8.20132 10.5933 8.215 10.515V5.335C8.19968 5.25486 8.2042 5.17218 8.22818 5.09418C8.25215 5.01619 8.29485 4.94525 8.35255 4.88755C8.41025 4.82985 8.48119 4.78715 8.55918 4.76318C8.63718 4.7392 8.71986 4.73468 8.8 4.75H10.85C10.9312 4.73177 11.0157 4.7341 11.0958 4.75677C11.1758 4.77945 11.249 4.82176 11.3086 4.87986C11.3682 4.93796 11.4123 5.01001 11.437 5.08949C11.4617 5.16897 11.4662 5.25336 11.45 5.335V6.835H10.45V5.565H9.2V8.015H10.49Z" fill="white"/>
</g>
<defs>
<clipPath id="clip0_7_7773">
<rect width="16" height="16" fill="white"/>
</clipPath>
</defs>
</svg>
