<svg width="16" height="16" viewBox="0 0 16 16" fill="none" xmlns="http://www.w3.org/2000/svg">
<g clip-path="url(#clip0_7_7716)">
<path d="M8 16C12.4183 16 16 12.4183 16 8C16 3.58172 12.4183 0 8 0C3.58172 0 0 3.58172 0 8C0 12.4183 3.58172 16 8 16Z" fill="#DF1A14"/>
<path d="M7.42987 5.76351C7.58337 5.71501 7.75787 5.80151 7.82137 5.95251C7.97487 6.30351 8.11237 6.66501 8.27137 7.01551C8.36637 7.22601 8.68987 7.25301 8.81637 7.05901C9.02837 6.70801 9.19787 6.33551 9.40437 5.97901C9.57387 5.75801 9.88087 5.86601 10.1139 5.84451C10.3574 5.82851 10.5374 6.13601 10.3994 6.34651C9.73237 7.59301 9.06037 8.83451 8.39337 10.0815C8.28187 10.308 7.91687 10.308 7.81637 10.0705C7.66787 9.70901 7.55137 9.33101 7.40837 8.96951C7.32337 8.73201 6.95837 8.69451 6.83687 8.92101C6.63037 9.29351 6.45037 9.68201 6.24387 10.049C6.14337 10.216 5.93137 10.189 5.76737 10.189C5.60837 10.1785 5.41787 10.227 5.29637 10.092C5.24315 10.0369 5.20959 9.96578 5.20091 9.88966C5.19223 9.81354 5.20892 9.73668 5.24837 9.67101C5.87337 8.48901 6.50837 7.30201 7.13337 6.10901C7.20737 5.97401 7.27087 5.80601 7.42987 5.76351ZM5.24837 5.85551C5.43355 5.84471 5.6192 5.84471 5.80437 5.85551C6.01087 5.87701 6.14337 6.14151 6.04287 6.33051C5.42287 7.50151 4.79837 8.66701 4.17937 9.83301C4.10487 9.96301 4.04687 10.1355 3.88787 10.178C3.70287 10.2055 3.51237 10.1895 3.32687 10.1895C3.09937 10.2 2.90887 9.90301 3.04637 9.70351C3.69237 8.49451 4.33787 7.28001 4.98387 6.06601C5.03687 5.96351 5.12687 5.86101 5.24887 5.85551H5.24837ZM11.8184 5.86601C12.0194 5.80651 12.2314 5.85001 12.4379 5.83351C12.5964 5.83901 12.7979 5.80651 12.9144 5.94701C13.0574 6.09301 13.0144 6.36801 12.8344 6.46001C12.4694 6.69201 12.1094 6.94001 11.7394 7.16701C11.5059 7.32851 11.1619 7.05351 11.2624 6.78351C11.3524 6.56751 11.4794 6.36851 11.5804 6.15751C11.6384 6.04951 11.6914 5.90951 11.8184 5.86601ZM10.0659 9.09351C10.1719 9.02851 10.3044 9.05051 10.4049 9.10451C10.6854 9.24451 10.9659 9.39601 11.2519 9.53101C11.3739 9.58501 11.5009 9.68751 11.5059 9.83301C11.5274 10.0275 11.3629 10.216 11.1724 10.2C10.7649 10.2 10.3574 10.205 9.95487 10.2C9.75387 10.2 9.59487 9.96251 9.66887 9.76851C9.72187 9.62801 9.80137 9.50351 9.86487 9.36851C9.91237 9.26651 9.95987 9.14201 10.0659 9.09351Z" fill="white"/>
</g>
<defs>
<clipPath id="clip0_7_7716">
<rect width="16" height="16" fill="white"/>
</clipPath>
</defs>
</svg>
