<svg width="16" height="16" viewBox="0 0 16 16" fill="none" xmlns="http://www.w3.org/2000/svg">
<g clip-path="url(#clip0_7_7855)">
<path d="M8 16C12.4183 16 16 12.4183 16 8C16 3.58172 12.4183 0 8 0C3.58172 0 0 3.58172 0 8C0 12.4183 3.58172 16 8 16Z" fill="#B2A3F6"/>
<path d="M6.72252 6.14348C6.34252 6.14348 6.03502 5.84298 6.03502 5.47248C6.03502 5.10198 6.34252 4.80098 6.72252 4.80098C7.10202 4.80098 7.41002 5.10148 7.41002 5.47248C7.41002 5.84348 7.10202 6.14348 6.72252 6.14348ZM8.68602 5.37648C8.30652 5.37648 7.99852 5.07598 7.99852 4.70548C7.99852 4.33448 8.30652 4.03398 8.68602 4.03398C9.06602 4.03398 9.37352 4.33448 9.37352 4.70548C9.37352 5.07598 9.06602 5.37648 8.68602 5.37648ZM9.47252 9.97898C9.09252 9.97898 8.78502 9.67898 8.78502 9.30798C8.78502 8.93698 9.09252 8.63648 9.47252 8.63648C9.85202 8.63648 10.16 8.93698 10.16 9.30798C10.16 9.67898 9.85202 9.97898 9.47252 9.97898ZM2.89252 9.01998C2.84153 9.02064 2.7909 9.01124 2.74354 8.99232C2.69618 8.9734 2.65302 8.94533 2.61652 8.90971C2.58002 8.87409 2.5509 8.83162 2.53082 8.78474C2.51075 8.73786 2.50011 8.68748 2.49952 8.63648C2.49952 8.42498 2.67552 8.25298 2.89202 8.25298C3.10852 8.25298 3.28502 8.42498 3.28502 8.63648C3.28444 8.68748 3.2738 8.73786 3.25373 8.78474C3.23365 8.83162 3.20453 8.87409 3.16803 8.90971C3.13153 8.94533 3.08836 8.9734 3.041 8.99232C2.99364 9.01124 2.94352 9.02064 2.89252 9.01998ZM3.97252 11.514C3.93424 11.5144 3.89625 11.5074 3.8607 11.4931C3.82516 11.4789 3.79276 11.4578 3.76537 11.4311C3.73798 11.4043 3.71612 11.3725 3.70105 11.3373C3.68597 11.3021 3.67798 11.2643 3.67752 11.226C3.67752 11.067 3.80952 10.9385 3.97252 10.9385C4.13552 10.9385 4.26752 11.067 4.26752 11.226C4.26707 11.2643 4.25907 11.3021 4.244 11.3373C4.22893 11.3725 4.20707 11.4043 4.17968 11.4311C4.15228 11.4578 4.11989 11.4789 4.08435 11.4931C4.0488 11.5074 4.0108 11.5144 3.97252 11.514ZM7.11502 13.4315C6.95202 13.4315 6.82002 13.3025 6.82002 13.1435C6.82002 12.9845 6.95202 12.856 7.11502 12.856C7.27802 12.856 7.41002 12.9845 7.41002 13.1435C7.41002 13.3025 7.27802 13.4315 7.11502 13.4315ZM12.2225 11.7055C12.0595 11.7055 11.9275 11.5765 11.9275 11.4175C11.9275 11.2585 12.0595 11.1295 12.2225 11.1295C12.385 11.1295 12.5175 11.2585 12.5175 11.4175C12.5175 11.5765 12.385 11.7055 12.2225 11.7055ZM9.07952 11.1305C9.04124 11.1309 9.00324 11.1239 8.9677 11.1096C8.93216 11.0954 8.89976 11.0743 8.87237 11.0476C8.84498 11.0208 8.82312 10.989 8.80805 10.9538C8.79297 10.9186 8.78498 10.8808 8.78452 10.8425C8.78452 10.6835 8.91702 10.555 9.07952 10.555C9.24202 10.555 9.37452 10.6835 9.37452 10.8425C9.37407 10.8808 9.36607 10.9186 9.351 10.9538C9.33593 10.989 9.31407 11.0208 9.28668 11.0476C9.25928 11.0743 9.22689 11.0954 9.19135 11.1096C9.1558 11.1239 9.1178 11.1309 9.07952 11.1305ZM10.8475 9.78798C10.6845 9.78798 10.5525 9.65898 10.5525 9.49998C10.5525 9.34098 10.6845 9.21248 10.8475 9.21248C11.01 9.21248 11.1425 9.34098 11.1425 9.49998C11.1425 9.65898 11.01 9.78798 10.8475 9.78798ZM8.78502 13.4315C8.56802 13.4315 8.39202 13.2595 8.39202 13.048C8.39202 12.8365 8.56802 12.6645 8.78502 12.6645C9.00152 12.6645 9.17752 12.836 9.17752 13.048C9.17752 13.26 9.00152 13.4315 8.78502 13.4315ZM10.5525 8.63648C10.5016 8.63708 10.451 8.62763 10.4037 8.60868C10.3564 8.58973 10.3133 8.56164 10.2768 8.52603C10.2404 8.49042 10.2113 8.44798 10.1913 8.40113C10.1712 8.35428 10.1606 8.30394 10.16 8.25298C10.16 8.04148 10.3355 7.86948 10.5525 7.86948C10.7695 7.86948 10.945 8.04148 10.945 8.25298C10.9444 8.30394 10.9338 8.35428 10.9138 8.40113C10.8937 8.44798 10.8647 8.49042 10.8282 8.52603C10.7918 8.56164 10.7487 8.58973 10.7014 8.60868C10.654 8.62763 10.6035 8.63708 10.5525 8.63648ZM11.1425 12.4725C11.0915 12.4731 11.0409 12.4637 10.9935 12.4448C10.9462 12.4259 10.903 12.3978 10.8665 12.3622C10.83 12.3266 10.8009 12.2841 10.7808 12.2372C10.7607 12.1904 10.7501 12.14 10.7495 12.089C10.7495 11.877 10.9255 11.7055 11.142 11.7055C11.359 11.7055 11.535 11.877 11.535 12.089C11.5344 12.14 11.5238 12.1904 11.5037 12.2372C11.4837 12.2841 11.4545 12.3266 11.418 12.3622C11.3815 12.3978 11.3384 12.4259 11.291 12.4448C11.2436 12.4637 11.1935 12.4731 11.1425 12.4725ZM3.38202 10.555C3.11102 10.555 2.89102 10.34 2.89102 10.0755C2.89102 9.81098 3.11102 9.59648 3.38202 9.59648C3.65302 9.59648 3.87302 9.81148 3.87302 10.0755C3.87302 10.3395 3.65302 10.555 3.38202 10.555ZM8.09702 12.4725C7.71702 12.4725 7.40952 12.172 7.40952 11.801C7.40952 11.43 7.71702 11.1295 8.09702 11.1295C8.47652 11.1295 8.78452 11.4305 8.78452 11.801C8.78452 12.1715 8.47652 12.4725 8.09702 12.4725ZM4.36452 9.21248C3.98452 9.21248 3.67702 8.91148 3.67702 8.54098C3.67702 8.17048 3.98452 7.86948 4.36452 7.86948C4.74452 7.86948 5.05202 8.16998 5.05202 8.54098C5.05202 8.91198 4.74402 9.21248 4.36452 9.21248ZM8.09702 10.746C7.82552 10.746 7.60552 10.5315 7.60552 10.267C7.60552 10.0025 7.82552 9.78798 8.09702 9.78798C8.36802 9.78798 8.58802 10.0025 8.58802 10.267C8.58802 10.5315 8.36802 10.746 8.09702 10.746ZM5.73952 6.52798C5.57652 6.52798 5.44452 6.39898 5.44452 6.23998C5.44452 6.08098 5.57652 5.95198 5.73952 5.95198C5.90252 5.95198 6.03452 6.08098 6.03452 6.23998C6.03452 6.39898 5.90252 6.52798 5.73952 6.52798ZM7.60552 7.67798C7.28052 7.67798 7.01652 7.42048 7.01652 7.10298C7.01652 6.78498 7.28052 6.52698 7.60552 6.52698C7.93052 6.52698 8.19452 6.78498 8.19452 7.10248C8.19452 7.42048 7.93102 7.67848 7.60552 7.67848V7.67798ZM8.98052 8.25298C8.92957 8.25358 8.879 8.24413 8.8317 8.22518C8.78439 8.20623 8.74129 8.17814 8.70484 8.14253C8.66839 8.10692 8.63932 8.06448 8.61927 8.01763C8.59923 7.97078 8.58861 7.92044 8.58802 7.86948C8.58802 7.65798 8.76352 7.48598 8.98052 7.48598C9.19752 7.48598 9.37302 7.65798 9.37302 7.86948C9.37244 7.92044 9.36182 7.97078 9.34177 8.01763C9.32173 8.06448 9.29265 8.10692 9.25621 8.14253C9.21976 8.17814 9.17665 8.20623 9.12935 8.22518C9.08205 8.24413 9.03148 8.25358 8.98052 8.25298ZM9.66802 3.45898C9.50502 3.45898 9.37302 3.33048 9.37302 3.17148C9.37302 3.01248 9.50502 2.88348 9.66802 2.88348C9.83102 2.88348 9.96302 3.01248 9.96302 3.17148C9.96302 3.33048 9.83102 3.45898 9.66802 3.45898ZM8.29302 3.45848C8.22929 3.45928 8.16602 3.4475 8.10684 3.42382C8.04767 3.40015 7.99373 3.36504 7.94813 3.32051C7.90253 3.27597 7.86616 3.22289 7.84109 3.16429C7.81601 3.10569 7.80274 3.04272 7.80202 2.97898C7.80281 2.91529 7.81613 2.85238 7.84123 2.79383C7.86633 2.73529 7.90271 2.68226 7.94831 2.63778C7.9939 2.5933 8.04781 2.55824 8.10696 2.5346C8.16611 2.51095 8.22933 2.49919 8.29302 2.49998C8.35676 2.49912 8.42004 2.51084 8.47924 2.53445C8.53844 2.55806 8.59241 2.59312 8.63806 2.6376C8.68371 2.68209 8.72014 2.73514 8.74527 2.79372C8.7704 2.85229 8.78374 2.91525 8.78452 2.97898C8.78381 3.04276 8.77052 3.10577 8.74541 3.1644C8.72031 3.22304 8.68389 3.27615 8.63824 3.32069C8.59258 3.36523 8.53859 3.40032 8.47935 3.42397C8.42012 3.44761 8.3568 3.45934 8.29302 3.45848ZM8.58802 6.52698C8.37102 6.52698 8.19552 6.35548 8.19552 6.14348C8.19552 5.93148 8.37102 5.75998 8.58802 5.75998C8.80502 5.75998 8.98052 5.93198 8.98052 6.14348C8.98052 6.35498 8.80502 6.52698 8.58802 6.52698ZM4.85552 10.747C4.53052 10.747 4.26652 10.4895 4.26652 10.1715C4.26652 9.85348 4.53052 9.59598 4.85552 9.59598C5.18052 9.59598 5.44452 9.85348 5.44452 10.171C5.44452 10.4895 5.18102 10.747 4.85552 10.747ZM10.552 11.322C10.227 11.322 9.96302 11.064 9.96302 10.746C9.96302 10.4285 10.2265 10.171 10.552 10.171C10.8775 10.171 11.141 10.4285 11.141 10.746C11.141 11.064 10.877 11.322 10.552 11.322ZM9.76702 12.6645C9.44152 12.6645 9.17752 12.4065 9.17752 12.089C9.17752 11.771 9.44152 11.513 9.76652 11.513C10.0915 11.513 10.3555 11.771 10.3555 12.089C10.3555 12.4065 10.092 12.664 9.76652 12.664L9.76702 12.6645ZM5.15052 12.6645C4.77052 12.6645 4.46302 12.364 4.46302 11.993C4.46302 11.622 4.77102 11.322 5.15052 11.322C5.53002 11.322 5.83802 11.622 5.83802 11.993C5.83802 12.364 5.53002 12.6645 5.15052 12.6645ZM3.08802 7.67848C2.76302 7.67848 2.49902 7.42048 2.49902 7.10248C2.49902 6.78498 2.76252 6.52748 3.08802 6.52748C3.41352 6.52748 3.67702 6.78498 3.67702 7.10248C3.67702 7.42048 3.41302 7.67848 3.08802 7.67848Z" fill="white"/>
<path opacity="0.5" d="M6.03466 8.63646C5.60066 8.63646 5.24866 8.29346 5.24866 7.86946C5.24866 7.44596 5.60066 7.10246 6.03516 7.10246C6.46966 7.10246 6.82116 7.44596 6.82116 7.86946C6.82116 8.29346 6.46916 8.63646 6.03516 8.63646H6.03466ZM10.1597 7.48646C9.72566 7.48646 9.37366 7.14296 9.37366 6.71896C9.37366 6.29546 9.72566 5.95196 10.1602 5.95196C10.5942 5.95196 10.9462 6.29546 10.9462 6.71896C10.9462 7.14296 10.5942 7.48596 10.1602 7.48596L10.1597 7.48646ZM12.3202 10.747C11.9952 10.747 11.7312 10.4895 11.7312 10.1715C11.7312 9.85346 11.9952 9.59596 12.3202 9.59596C12.6452 9.59596 12.9092 9.85346 12.9092 10.171C12.9092 10.4895 12.6457 10.747 12.3202 10.747ZM12.9102 8.44546C12.8337 8.44632 12.7577 8.4321 12.6867 8.40362C12.6157 8.37514 12.551 8.33295 12.4964 8.27946C12.4417 8.22597 12.398 8.16223 12.368 8.09189C12.3379 8.02154 12.322 7.94596 12.3212 7.86946C12.3212 7.55196 12.5847 7.29446 12.9102 7.29446C13.2352 7.29446 13.4987 7.55196 13.4987 7.86946C13.4987 8.18746 13.2352 8.44546 12.9102 8.44546ZM10.6512 5.76046C10.5874 5.76126 10.5241 5.74946 10.4649 5.72575C10.4057 5.70205 10.3517 5.6669 10.3061 5.62231C10.2605 5.57772 10.2241 5.52458 10.1991 5.46592C10.174 5.40726 10.1608 5.34424 10.1602 5.28046C10.1609 5.21677 10.1743 5.15386 10.1994 5.09531C10.2245 5.03677 10.2608 4.98374 10.3064 4.93926C10.352 4.89478 10.4059 4.85972 10.4651 4.83608C10.5242 4.81243 10.5875 4.80067 10.6512 4.80146C10.7149 4.80067 10.7782 4.81245 10.8373 4.83612C10.8965 4.8598 10.9504 4.89491 10.996 4.93944C11.0416 4.98397 11.078 5.03706 11.1031 5.09566C11.1282 5.15426 11.1414 5.21723 11.1422 5.28096C11.1414 5.34466 11.1281 5.40757 11.103 5.46611C11.0779 5.52466 11.0415 5.57768 10.9959 5.62216C10.9503 5.66664 10.8964 5.70171 10.8372 5.72535C10.7781 5.74899 10.7148 5.76126 10.6512 5.76046ZM10.7487 4.22596C10.5322 4.22596 10.3562 4.05446 10.3562 3.84246C10.3562 3.63046 10.5322 3.45896 10.7487 3.45896C10.9657 3.45896 11.1417 3.63096 11.1417 3.84246C11.1417 4.05396 10.9657 4.22596 10.7487 4.22596ZM11.6327 4.60946C11.4697 4.60946 11.3377 4.48046 11.3377 4.32196C11.3377 4.16346 11.4697 4.03396 11.6327 4.03396C11.7957 4.03396 11.9277 4.16296 11.9277 4.32196C11.9277 4.48096 11.7957 4.60946 11.6327 4.60946ZM13.2047 6.91146C13.0422 6.91146 12.9097 6.78246 12.9097 6.62346C12.9097 6.46446 13.0422 6.33546 13.2047 6.33546C13.3672 6.33546 13.4997 6.46446 13.4997 6.62346C13.4997 6.78246 13.3677 6.91146 13.2047 6.91146ZM4.75766 4.41796C4.59466 4.41796 4.46266 4.28946 4.46266 4.13046C4.46266 3.97146 4.59466 3.84246 4.75766 3.84246C4.92066 3.84246 5.05266 3.97146 5.05266 4.13046C5.05266 4.28946 4.92066 4.41796 4.75766 4.41796ZM4.36516 6.91146C4.20216 6.91146 4.07016 6.78246 4.07016 6.62346C4.07016 6.46446 4.20216 6.33546 4.36516 6.33546C4.52816 6.33546 4.66016 6.46446 4.66016 6.62346C4.66016 6.78246 4.52816 6.91146 4.36516 6.91146ZM5.15116 7.29496C4.98816 7.29496 4.85616 7.16596 4.85616 7.00696C4.85616 6.84796 4.98816 6.71896 5.15116 6.71896C5.31416 6.71896 5.44616 6.84796 5.44616 7.00696C5.44616 7.16596 5.31416 7.29496 5.15116 7.29496ZM6.13266 3.64996C5.96966 3.64996 5.83766 3.52096 5.83766 3.36196C5.83766 3.20296 5.96966 3.07446 6.13266 3.07446C6.29566 3.07446 6.42766 3.20296 6.42766 3.36196C6.42766 3.52096 6.29566 3.64996 6.13266 3.64996ZM13.2047 9.40446C13.0422 9.40446 12.9097 9.27546 12.9097 9.11646C12.9097 8.95746 13.0422 8.82896 13.2047 8.82896C13.3672 8.82896 13.4997 8.95746 13.4997 9.11646C13.4997 9.27546 13.3677 9.40446 13.2047 9.40446ZM12.2227 6.33546C11.8427 6.33546 11.5352 6.03546 11.5352 5.66446C11.5352 5.29346 11.8427 4.99296 12.2227 4.99296C12.6022 4.99296 12.9102 5.29346 12.9102 5.66446C12.9102 6.03496 12.6022 6.33546 12.2227 6.33546ZM11.6327 7.86946C11.569 7.87026 11.5057 7.85849 11.4466 7.83485C11.3874 7.81121 11.3335 7.77614 11.2879 7.73166C11.2423 7.68718 11.206 7.63416 11.1809 7.57561C11.1558 7.51707 11.1424 7.45416 11.1417 7.39046C11.1417 7.12546 11.3617 6.91146 11.6327 6.91146C11.6963 6.91067 11.7596 6.92243 11.8187 6.94607C11.8779 6.96972 11.9318 7.00478 11.9774 7.04926C12.023 7.09374 12.0594 7.14677 12.0845 7.20531C12.1096 7.26386 12.1229 7.32677 12.1237 7.39046C12.1229 7.45416 12.1096 7.51707 12.0845 7.57561C12.0594 7.63416 12.023 7.68718 11.9774 7.73166C11.9318 7.77614 11.8779 7.81121 11.8187 7.83485C11.7596 7.85849 11.6963 7.87026 11.6327 7.86946ZM4.95466 5.75996C4.89096 5.76076 4.82774 5.74899 4.76859 5.72535C4.70945 5.70171 4.65554 5.66664 4.60994 5.62216C4.56435 5.57768 4.52796 5.52466 4.50286 5.46611C4.47776 5.40757 4.46444 5.34466 4.46366 5.28096C4.46366 5.01596 4.68366 4.80146 4.95466 4.80146C5.22566 4.80146 5.44616 5.01646 5.44616 5.28096C5.44537 5.3447 5.43204 5.40765 5.4069 5.46623C5.38177 5.52481 5.34534 5.57786 5.29969 5.62234C5.25405 5.66683 5.20008 5.70188 5.14087 5.7255C5.08167 5.74911 5.01839 5.76082 4.95466 5.75996ZM7.11466 4.41746C7.05096 4.41826 6.98774 4.40649 6.92859 4.38285C6.86945 4.35921 6.81554 4.32414 6.76994 4.27966C6.72435 4.23518 6.68796 4.18216 6.66286 4.12361C6.63776 4.06507 6.62444 4.00216 6.62366 3.93846C6.62366 3.67346 6.84366 3.45896 7.11516 3.45896C7.38666 3.45896 7.60616 3.67396 7.60616 3.93846C7.60537 4.00216 7.59205 4.06507 7.56695 4.12361C7.54185 4.18216 7.50547 4.23518 7.45987 4.27966C7.41428 4.32414 7.36037 4.35921 7.30122 4.38285C7.24207 4.40649 7.17885 4.41826 7.11516 4.41746H7.11466ZM5.83866 4.60946C5.62166 4.60946 5.44616 4.43796 5.44616 4.22596C5.44616 4.01396 5.62166 3.84246 5.83866 3.84246C6.05566 3.84246 6.23116 4.01446 6.23116 4.22596C6.23116 4.43746 6.05566 4.60946 5.83866 4.60946ZM3.67766 6.14346C3.6267 6.14406 3.57613 6.13461 3.52883 6.11566C3.48153 6.09671 3.43842 6.06862 3.40197 6.03301C3.36553 5.9974 3.33645 5.95496 3.31641 5.90811C3.29636 5.86126 3.28574 5.81092 3.28516 5.75996C3.28516 5.54846 3.46066 5.37646 3.67766 5.37646C3.89466 5.37646 4.07016 5.54846 4.07016 5.75996C4.06957 5.81092 4.05895 5.86126 4.03891 5.90811C4.01886 5.95496 3.98979 5.9974 3.95334 6.03301C3.91689 6.06862 3.87379 6.09671 3.82648 6.11566C3.77918 6.13461 3.72861 6.14406 3.67766 6.14346ZM11.9277 9.21246C11.8767 9.21306 11.8261 9.20361 11.7788 9.18466C11.7315 9.16571 11.6884 9.13762 11.652 9.10201C11.6155 9.0664 11.5864 9.02395 11.5664 8.97711C11.5464 8.93026 11.5357 8.87992 11.5352 8.82896C11.5352 8.61696 11.7107 8.44546 11.9277 8.44546C12.1447 8.44546 12.3202 8.61696 12.3202 8.82896C12.3196 8.87992 12.3089 8.93026 12.2889 8.97711C12.2689 9.02395 12.2398 9.0664 12.2033 9.10201C12.1669 9.13762 12.1238 9.16571 12.0765 9.18466C12.0292 9.20361 11.9786 9.21306 11.9277 9.21246ZM7.70466 9.40446C7.32466 9.40446 7.01716 9.10396 7.01716 8.73296C7.01716 8.36196 7.32516 8.06196 7.70466 8.06196C8.08466 8.06196 8.39216 8.36196 8.39216 8.73296C8.39216 9.10396 8.08466 9.40446 7.70466 9.40446ZM6.42766 9.78796C6.3767 9.78856 6.32613 9.77911 6.27883 9.76016C6.23153 9.74121 6.18842 9.71312 6.15197 9.67751C6.11553 9.6419 6.08645 9.59946 6.06641 9.55261C6.04636 9.50576 6.03574 9.45542 6.03516 9.40446C6.03516 9.19246 6.21066 9.02096 6.42766 9.02096C6.64466 9.02096 6.82016 9.19246 6.82016 9.40446C6.81957 9.45542 6.80895 9.50576 6.78891 9.55261C6.76886 9.59946 6.73979 9.6419 6.70334 9.67751C6.66689 9.71312 6.62379 9.74121 6.57648 9.76016C6.52918 9.77911 6.47861 9.78856 6.42766 9.78796ZM6.62366 11.322C6.29866 11.322 6.03516 11.064 6.03516 10.746C6.03516 10.4285 6.29866 10.171 6.62366 10.171C6.94866 10.171 7.21266 10.4285 7.21266 10.746C7.21266 11.064 6.94916 11.322 6.62366 11.322ZM6.62366 12.472C6.52084 12.4732 6.42174 12.4335 6.34815 12.3617C6.27455 12.2899 6.23247 12.1918 6.23116 12.089C6.23116 11.877 6.40716 11.7055 6.62366 11.7055C6.84016 11.7055 7.01666 11.877 7.01666 12.089C7.01607 12.14 7.00543 12.1903 6.98536 12.2372C6.96528 12.2841 6.93616 12.3266 6.89966 12.3622C6.86316 12.3978 6.82 12.4259 6.77264 12.4448C6.72528 12.4637 6.67465 12.4726 6.62366 12.472Z" fill="white"/>
</g>
<defs>
<clipPath id="clip0_7_7855">
<rect width="16" height="16" fill="white"/>
</clipPath>
</defs>
</svg>
