<svg width="16" height="16" viewBox="0 0 16 16" fill="none" xmlns="http://www.w3.org/2000/svg">
<g clip-path="url(#clip0_7_7854)">
<path d="M8 16C12.4183 16 16 12.4183 16 8C16 3.58172 12.4183 0 8 0C3.58172 0 0 3.58172 0 8C0 12.4183 3.58172 16 8 16Z" fill="#57BEEA"/>
<path d="M3.513 9.5045C3.32271 9.52668 3.12987 9.50829 2.9472 9.45053C2.76453 9.39277 2.59617 9.29696 2.45321 9.16941C2.31026 9.04186 2.19596 8.88546 2.11784 8.71052C2.03972 8.53559 1.99956 8.34608 2 8.1545C1.99919 7.79693 2.13964 7.45351 2.39079 7.19899C2.64194 6.94447 2.98346 6.79945 3.341 6.7955C3.821 4.5905 5.776 2.94 8.114 2.94C8.5505 2.94 8.974 2.9975 9.3765 3.105C9.4996 2.91898 9.66687 2.76636 9.86336 2.66079C10.0599 2.55521 10.2794 2.49997 10.5025 2.5C10.8621 2.50093 11.2065 2.64461 11.4601 2.89946C11.7138 3.15431 11.8558 3.49945 11.855 3.859C11.855 4.0935 11.796 4.314 11.692 4.506C12.5348 5.415 13.0021 6.60941 13 7.849C13.0011 8.49827 12.8734 9.1413 12.6241 9.74082C12.3749 10.3403 12.0091 10.8844 11.548 11.3415C11.711 11.5655 11.807 11.842 11.807 12.141C11.8074 12.3191 11.7727 12.4955 11.7049 12.6601C11.6372 12.8248 11.5376 12.9745 11.412 13.1007C11.2863 13.2269 11.1371 13.3271 10.9727 13.3956C10.8083 13.4641 10.6321 13.4996 10.454 13.5C10.1817 13.4997 9.91587 13.4172 9.69117 13.2635C9.46647 13.1097 9.29338 12.8917 9.1945 12.638C8.84009 12.7181 8.47785 12.7583 8.1145 12.758C5.994 12.758 4.189 11.401 3.513 9.5045ZM3.758 9.452C4.408 11.236 6.113 12.5095 8.114 12.5095C8.4615 12.5095 8.8 12.471 9.1255 12.3985C9.08709 12.2023 9.09255 11.9999 9.1415 11.8061C9.19045 11.6122 9.28167 11.4315 9.40864 11.277C9.5356 11.1225 9.69516 10.9981 9.87589 10.9125C10.0566 10.8269 10.254 10.7823 10.454 10.782C10.814 10.782 11.142 10.9235 11.384 11.154C11.8187 10.7205 12.1634 10.2053 12.3982 9.63814C12.6331 9.07094 12.7535 8.4629 12.7525 7.849C12.7525 6.644 12.2975 5.546 11.55 4.719C11.302 5.024 10.925 5.2185 10.5025 5.2185C10.3244 5.21811 10.1481 5.18263 9.9837 5.11409C9.8193 5.04555 9.67001 4.94529 9.54437 4.81904C9.41872 4.69279 9.31918 4.54303 9.25143 4.3783C9.18368 4.21358 9.14904 4.03711 9.1495 3.859C9.1495 3.672 9.1875 3.4935 9.2555 3.331C8.88239 3.23636 8.49893 3.18866 8.114 3.189C5.906 3.189 4.058 4.7395 3.5905 6.8165C3.90375 6.87337 4.18705 7.03854 4.39087 7.28311C4.59468 7.52769 4.70605 7.83613 4.7055 8.1545C4.70596 8.44346 4.61429 8.72505 4.44382 8.95838C4.27335 9.1917 4.03344 9.36461 3.758 9.452ZM8.114 9.21C7.93573 9.20954 7.7593 9.17397 7.59478 9.10533C7.43025 9.03668 7.28086 8.9363 7.15513 8.80992C7.0294 8.68354 6.92979 8.53364 6.862 8.36876C6.7942 8.20388 6.75954 8.02727 6.76 7.849C6.76 7.0975 7.366 6.4885 8.114 6.4885C8.862 6.4885 9.4685 7.0975 9.4685 7.849C9.46896 8.02731 9.43429 8.20397 9.36646 8.36888C9.29864 8.53378 9.19898 8.68371 9.0732 8.8101C8.94742 8.93649 8.79797 9.03686 8.63338 9.10547C8.4688 9.17409 8.29232 9.20961 8.114 9.21Z" fill="white"/>
</g>
<defs>
<clipPath id="clip0_7_7854">
<rect width="16" height="16" fill="white"/>
</clipPath>
</defs>
</svg>
