<svg width="16" height="16" viewBox="0 0 16 16" fill="none" xmlns="http://www.w3.org/2000/svg">
<g clip-path="url(#clip0_7_7992)">
<path d="M8 16C12.4183 16 16 12.4183 16 8C16 3.58172 12.4183 0 8 0C3.58172 0 0 3.58172 0 8C0 12.4183 3.58172 16 8 16Z" fill="#0CAFA5"/>
<path d="M4.20676 5.95952C4.19026 5.94952 4.17676 5.95752 4.17676 5.97702V7.12802C4.17729 7.13851 4.18029 7.14873 4.1855 7.15784C4.19071 7.16696 4.19799 7.17473 4.20676 7.18052L5.66176 8.02152C5.67052 8.0273 5.67781 8.03507 5.68302 8.04419C5.68823 8.05331 5.69122 8.06353 5.69176 8.07402V12.239C5.69244 12.2496 5.69561 12.2598 5.70099 12.269C5.70638 12.2781 5.71383 12.2858 5.72276 12.2915L6.71926 12.8665C6.73576 12.8765 6.74926 12.8685 6.74926 12.849V7.46402C6.7488 7.45344 6.74584 7.44312 6.74063 7.43391C6.73541 7.4247 6.72809 7.41685 6.71926 7.41102L4.20676 5.95952ZM11.7938 5.95952C11.8103 5.94952 11.8238 5.95752 11.8238 5.97702V7.12802C11.8232 7.13851 11.8202 7.14873 11.815 7.15784C11.8098 7.16696 11.8025 7.17473 11.7938 7.18052L10.3388 8.02052C10.3299 8.02635 10.3226 8.0342 10.3174 8.04341C10.3122 8.05262 10.3092 8.06294 10.3088 8.07352V12.2385C10.3082 12.2491 10.3052 12.2595 10.2999 12.2687C10.2946 12.2779 10.2872 12.2857 10.2783 12.2915L9.28176 12.8665C9.26476 12.8765 9.25126 12.8685 9.25126 12.849V7.46402C9.25176 7.45345 9.25473 7.44315 9.25994 7.43394C9.26515 7.42474 9.27245 7.41688 9.28126 7.41102L11.7938 5.95952Z" fill="white"/>
<path d="M11.9903 3.75153C11.9903 3.73253 11.9768 3.72453 11.9603 3.73403L8.03027 6.00703C8.02095 6.01169 8.01068 6.01412 8.00027 6.01412C7.98985 6.01412 7.97958 6.01169 7.97027 6.00703L4.04027 3.73403C4.02327 3.72403 4.00977 3.73253 4.00977 3.75153V4.90253C4.0103 4.91302 4.01329 4.92323 4.01851 4.93235C4.02372 4.94147 4.031 4.94924 4.03977 4.95503L7.44177 6.92202C7.4505 6.92784 7.45777 6.93561 7.46297 6.94473C7.46818 6.95384 7.47119 6.96404 7.47177 6.97453V14.117C7.47228 14.1276 7.47531 14.138 7.48062 14.1472C7.48592 14.1564 7.49334 14.1642 7.50227 14.17L7.96977 14.44C7.97925 14.4447 7.98969 14.4471 8.00027 14.4471C8.01084 14.4471 8.02128 14.4447 8.03077 14.44L8.49827 14.17C8.5071 14.1642 8.51442 14.1563 8.51964 14.1471C8.52485 14.1379 8.52781 14.1276 8.52827 14.117V6.97502C8.5289 6.9645 8.53198 6.95427 8.53728 6.94515C8.54258 6.93604 8.54993 6.92829 8.55877 6.92253L11.9603 4.95503C11.9691 4.94919 11.9764 4.94134 11.9816 4.93213C11.9869 4.92292 11.9898 4.9126 11.9903 4.90203V3.75203V3.75153ZM8.01827 6.65953C8.01427 6.65953 8.01277 6.65652 8.01477 6.65302C8.01677 6.64952 8.01977 6.64952 8.02177 6.65302C8.02377 6.65652 8.02177 6.65953 8.01827 6.65953Z" fill="white"/>
<path d="M7.50618 3.60101C7.49656 3.60314 7.48793 3.60844 7.48167 3.61605C7.47541 3.62367 7.4719 3.63316 7.47168 3.64301V5.07952C7.47231 5.09004 7.4754 5.10027 7.48069 5.10939C7.48599 5.11851 7.49335 5.12625 7.50218 5.13201L7.96968 5.40201C7.98868 5.41201 8.01118 5.41201 8.03068 5.40201L8.49818 5.13201C8.50692 5.1262 8.51418 5.11843 8.51939 5.10931C8.52459 5.1002 8.52761 5.09 8.52818 5.07952V3.64251C8.52808 3.63271 8.52466 3.62322 8.51849 3.6156C8.51232 3.60797 8.50375 3.60266 8.49418 3.60051L8.03418 3.51601C8.01148 3.51257 7.98838 3.51257 7.96568 3.51601L7.50618 3.60101Z" fill="white"/>
</g>
<defs>
<clipPath id="clip0_7_7992">
<rect width="16" height="16" fill="white"/>
</clipPath>
</defs>
</svg>
