<svg width="16" height="16" viewBox="0 0 16 16" fill="none" xmlns="http://www.w3.org/2000/svg">
<g clip-path="url(#clip0_7_7852)">
<path d="M8 16C12.4183 16 16 12.4183 16 8C16 3.58172 12.4183 0 8 0C3.58172 0 0 3.58172 0 8C0 12.4183 3.58172 16 8 16Z" fill="#1C1C1C"/>
<path d="M12.25 5.5V10.5L8 13L3.75 10.5V5.5L8 3L12.25 5.5ZM7.866 8.2035L7.471 8.437L8.209 8.868L8.6015 8.6365L9.651 9.254L8.0855 10.174L4.838 8.281L4.8245 9.2025L8.0875 11.0975L11.2225 9.254L9.3855 8.173L9.7555 7.9545L9.0175 7.5235L8.65 7.7405L8.135 7.4375L8.5855 7.171L7.8475 6.7395L7.399 7.0045L6.522 6.4885L8.087 5.568L10.251 6.8325L11.044 6.3635L8.0855 4.6445L4.9505 6.4885L6.615 7.468L6.301 7.653L7.039 8.0845L7.3505 7.9005L7.866 8.2035Z" fill="white"/>
</g>
<defs>
<clipPath id="clip0_7_7852">
<rect width="16" height="16" fill="white"/>
</clipPath>
</defs>
</svg>
