<svg width="16" height="16" viewBox="0 0 16 16" fill="none" xmlns="http://www.w3.org/2000/svg">
<g clip-path="url(#clip0_7_7824)">
<path d="M8 16C12.4183 16 16 12.4183 16 8C16 3.58172 12.4183 0 8 0C3.58172 0 0 3.58172 0 8C0 12.4183 3.58172 16 8 16Z" fill="#00D4D5"/>
<path d="M8.25977 2.5V5.2285L10.6288 3.866L8.25977 2.5Z" fill="white"/>
<path opacity="0.9" d="M10.6289 3.86603V6.59453L12.9974 5.22853L10.6289 3.86603Z" fill="white"/>
<path opacity="0.8" d="M8.25977 5.22852V7.95702L10.6288 6.59452L8.25977 5.22852ZM10.6288 6.59452V9.32302L12.9973 7.95702L10.6288 6.59452Z" fill="white"/>
<path opacity="0.8" d="M8.25977 7.95697V10.6855L10.6288 9.32297L8.25977 7.95697Z" fill="white"/>
<path d="M10.6289 9.323V12.0515L12.9974 10.6855L10.6289 9.323Z" fill="white"/>
<path opacity="0.4" d="M2.13672 5.13647V7.86497L4.50572 6.49897L2.13672 5.13647Z" fill="white"/>
<path opacity="0.2" d="M5.125 6.151V8.8795L7.49 7.517L5.125 6.151Z" fill="white"/>
<path opacity="0.3" d="M3.36914 7.87653V10.605L5.73764 9.23903L3.36914 7.87653Z" fill="white"/>
<path opacity="0.9" d="M4.92969 9.93549V12.664L7.29469 11.298L4.92969 9.93549Z" fill="white"/>
<path opacity="0.7" d="M8.24023 11.11V13.839L10.6052 12.4725L8.24023 11.11Z" fill="white"/>
<path opacity="0.9" d="M5.51953 4.80353V7.53253L7.88453 6.17003L5.51953 4.80353Z" fill="white"/>
<path opacity="0.8" d="M8.25962 2.5V5.2285L5.89062 3.866L8.25962 2.5Z" fill="white"/>
<path opacity="0.6" d="M5.51989 3.65997V6.38797L3.15039 5.02197L5.51989 3.65997Z" fill="white"/>
<path opacity="0.6" d="M7.88853 5.01001V7.73901L5.51953 6.37251L7.88853 5.01001Z" fill="white"/>
<path opacity="0.95" d="M5.11412 6.151V8.8795L2.74512 7.517L5.11412 6.151Z" fill="white"/>
<path opacity="0.6" d="M8.25953 7.95697V10.6855L5.89453 9.32297L8.25953 7.95697Z" fill="white"/>
<path opacity="0.55" d="M3.369 8.59253V11.321L1 9.95453L3.369 8.59253Z" fill="white"/>
<path d="M12.9974 5.22852V7.95702L10.6289 6.59452L12.9974 5.22852Z" fill="white"/>
<path opacity="0.95" d="M10.6288 6.59497V9.32297L8.25977 7.95697L10.6288 6.59497Z" fill="white"/>
<path opacity="0.9" d="M12.9974 7.95697V10.6855L10.6289 9.32297L12.9974 7.95697Z" fill="white"/>
<path opacity="0.7" d="M10.6288 9.323V12.0515L8.25977 10.6855L10.6288 9.323Z" fill="white"/>
<path opacity="0.4" d="M7.73471 10.46V13.1885L5.36621 11.826L7.73471 10.46Z" fill="white"/>
<path d="M10.6288 3.86603V6.59453L8.25977 5.22853L10.6288 3.86603Z" fill="white"/>
</g>
<defs>
<clipPath id="clip0_7_7824">
<rect width="16" height="16" fill="white"/>
</clipPath>
</defs>
</svg>
