<svg width="16" height="16" viewBox="0 0 16 16" fill="none" xmlns="http://www.w3.org/2000/svg">
<g clip-path="url(#clip0_7_7937)">
<path d="M8 16C12.4183 16 16 12.4183 16 8C16 3.58172 12.4183 0 8 0C3.58172 0 0 3.58172 0 8C0 12.4183 3.58172 16 8 16Z" fill="#55DDFF"/>
<path d="M5.9146 5.06C5.91782 4.11197 6.27437 3.1992 6.9146 2.5C7.0896 2.325 7.1096 2.29 7.1096 2.15C7.1096 2.01 7.1096 2 7.0046 2C6.8748 2.01437 6.74615 2.03776 6.6196 2.07C5.12724 2.42254 3.82443 3.32861 2.9746 4.605C2.56429 5.21026 2.2756 5.88954 2.1246 6.605C1.99941 7.26397 1.9691 7.93745 2.0346 8.605C2.2183 10.0863 2.96268 11.4408 4.1146 12.39C4.7296 12.89 5.4196 13.29 5.4196 13.11C5.37924 13.0325 5.32501 12.963 5.2596 12.905C4.9502 12.564 4.71881 12.1597 4.58151 11.7201C4.44422 11.2806 4.40432 10.8165 4.4646 10.36C4.50907 9.79281 4.68606 9.24397 4.98132 8.75765C5.27659 8.27134 5.68188 7.86112 6.1646 7.56C6.28655 7.47313 6.4153 7.39621 6.5496 7.33C6.6246 7.33 6.5796 7.18 6.3946 6.83C6.07807 6.29401 5.91223 5.68247 5.9146 5.06ZM13.6696 6.62C13.4928 5.75873 13.1288 4.94685 12.6035 4.24181C12.0782 3.53676 11.4043 2.95579 10.6296 2.54C10.3496 2.385 10.2096 2.35 10.2096 2.445C10.236 2.52495 10.2767 2.59948 10.3296 2.665C10.6395 3.10527 10.8134 3.62683 10.8296 4.165C10.8611 4.44559 10.8328 4.72966 10.7466 4.99854C10.6605 5.26742 10.5183 5.515 10.3296 5.725C10.2327 5.82775 10.0994 5.88844 9.95822 5.89404C9.81708 5.89965 9.67936 5.84974 9.5746 5.755C9.3746 5.61 9.3746 5.51 9.4996 5.325C9.76447 4.93545 9.89604 4.47058 9.8746 4C9.89402 3.81081 9.87088 3.61967 9.80685 3.44058C9.74283 3.2615 9.63956 3.099 9.5046 2.965C9.38181 2.83768 9.2264 2.74656 9.05533 2.70158C8.88426 2.65661 8.70412 2.65952 8.5346 2.71C8.29217 2.80767 8.07766 2.96378 7.91016 3.16443C7.74267 3.36507 7.62739 3.60402 7.5746 3.86C7.45994 4.23 7.39273 4.61307 7.3746 5C7.37829 5.5925 7.52404 6.17547 7.7996 6.7C7.99185 7.00149 8.22967 7.27136 8.5046 7.5C8.5596 7.536 8.6081 7.58 8.6496 7.63C8.60127 7.66974 8.54502 7.69872 8.4846 7.715C8.09817 7.89786 7.75223 8.15618 7.46715 8.47475C7.18206 8.79333 6.96359 9.16572 6.8246 9.57C6.64158 10.0393 6.5598 10.5419 6.5846 11.045C6.57449 11.2821 6.6137 11.5188 6.69977 11.74C6.78583 11.9612 6.91687 12.1621 7.0846 12.33C7.27441 12.4943 7.49901 12.6134 7.74151 12.6784C7.984 12.7433 8.23807 12.7524 8.4846 12.705C9.14508 12.6556 9.76274 12.3593 10.2146 11.875C10.4196 11.655 10.4596 11.63 10.4996 11.68C10.5396 11.73 10.5296 11.76 10.4546 11.885C9.97981 12.6959 9.21787 13.2991 8.3196 13.575C8.1446 13.62 8.0696 13.655 8.0696 13.695C8.0696 13.825 9.1646 13.645 9.8296 13.41C10.6778 13.1001 11.4459 12.6042 12.0775 11.9588C12.7091 11.3134 13.1881 10.5347 13.4796 9.68C13.6952 9.08475 13.7887 8.45218 13.7546 7.82C13.7774 7.41801 13.7488 7.01476 13.6696 6.62Z" fill="white"/>
</g>
<defs>
<clipPath id="clip0_7_7937">
<rect width="16" height="16" fill="white"/>
</clipPath>
</defs>
</svg>
