<svg width="16" height="16" viewBox="0 0 16 16" fill="none" xmlns="http://www.w3.org/2000/svg">
<g clip-path="url(#clip0_7_7851)">
<path d="M8 16C12.4183 16 16 12.4183 16 8C16 3.58172 12.4183 0 8 0C3.58172 0 0 3.58172 0 8C0 12.4183 3.58172 16 8 16Z" fill="#102044"/>
<path d="M12.124 9.675C12.349 9.7615 12.498 9.9755 12.5 10.215C12.5001 10.3153 12.474 10.414 12.4241 10.5011C12.3743 10.5882 12.3026 10.6607 12.216 10.7115C12.1291 10.7625 12.0306 10.7903 11.9298 10.792C11.8291 10.7938 11.7296 10.7695 11.641 10.7215L8.62601 12.3665C8.63346 12.446 8.6244 12.5262 8.59939 12.6021C8.57438 12.6779 8.53396 12.7478 8.48068 12.8072C8.42739 12.8667 8.36238 12.9146 8.28973 12.9477C8.21708 12.9809 8.13836 12.9987 8.05851 13C7.90476 13.0038 7.75581 12.9463 7.64441 12.8403C7.53302 12.7342 7.46831 12.5883 7.46451 12.4345L5.99451 11.593H5.96101V11.5755L4.41201 10.69C4.31529 10.7567 4.20051 10.7923 4.08301 10.792C3.94313 10.7927 3.8077 10.7429 3.70167 10.6517C3.59563 10.5604 3.52615 10.4339 3.50601 10.2955C3.48669 10.1572 3.5182 10.0165 3.5947 9.89965C3.6712 9.78278 3.7875 9.69763 3.92201 9.66V6.352C3.80884 6.32025 3.70802 6.25477 3.63299 6.16428C3.55796 6.0738 3.51227 5.9626 3.50201 5.8455C3.48201 5.6065 3.61251 5.38 3.83101 5.2765C3.9376 5.22589 4.057 5.20869 4.17354 5.22716C4.29007 5.24563 4.3983 5.29891 4.48401 5.38L7.46901 3.67C7.45598 3.58707 7.46112 3.5023 7.48405 3.42154C7.50699 3.34079 7.54718 3.26598 7.60185 3.20227C7.65652 3.13857 7.72437 3.08749 7.80071 3.05257C7.87705 3.01764 7.96006 2.99971 8.04401 3C8.1304 2.99986 8.21573 3.01902 8.29376 3.05608C8.3718 3.09314 8.44057 3.14716 8.49505 3.2142C8.54954 3.28124 8.58836 3.3596 8.60868 3.44356C8.629 3.52753 8.63031 3.61497 8.61251 3.6995L11.5265 5.3685C11.633 5.2725 11.7715 5.2195 11.916 5.22C11.9948 5.19056 12.0791 5.17872 12.163 5.18531C12.2469 5.19191 12.3283 5.21677 12.4015 5.25818C12.4747 5.29958 12.538 5.3565 12.5869 5.42496C12.6358 5.49342 12.6691 5.57175 12.6845 5.65445C12.7 5.73716 12.6971 5.82223 12.6761 5.90371C12.6551 5.98518 12.6166 6.06108 12.5632 6.12607C12.5098 6.19107 12.4428 6.24358 12.3669 6.27994C12.291 6.31629 12.2081 6.3356 12.124 6.3365V9.675ZM10.065 8.3725V11.214L11.401 10.4855C11.3594 10.4058 11.3368 10.3176 11.3352 10.2277C11.3335 10.1378 11.3527 10.0487 11.3914 9.96755C11.43 9.88638 11.487 9.8153 11.5578 9.75993C11.6287 9.70456 11.7114 9.66641 11.7995 9.6485V6.3635C11.6682 6.33754 11.5499 6.26694 11.4647 6.16368C11.3795 6.06043 11.3326 5.93088 11.332 5.797C11.332 5.744 11.3395 5.691 11.354 5.6395L10.0875 4.9135V7.5555H10.0855L10.0805 7.7285L10.009 7.762L9.55251 8.035L9.98901 8.295L10.0585 8.328L10.0605 8.359L10.063 8.3725H10.065ZM8.04501 4.1545C7.87901 4.1545 7.72101 4.0845 7.61051 3.961L6.28551 4.7205V7.5265L6.82951 7.8505L7.51651 7.4465C7.50234 7.37219 7.5048 7.29565 7.52371 7.2224C7.54261 7.14915 7.57751 7.08099 7.62588 7.02282C7.67425 6.96465 7.7349 6.91791 7.80348 6.88595C7.87206 6.854 7.94686 6.83762 8.02251 6.838C8.09634 6.83784 8.16933 6.85362 8.23649 6.88427C8.30365 6.91493 8.36339 6.95973 8.41163 7.01562C8.45987 7.0715 8.49547 7.13715 8.51599 7.20806C8.5365 7.27898 8.54146 7.35349 8.53051 7.4265L9.24001 7.8485L9.76601 7.5335V4.729L8.45901 3.9805C8.40504 4.03555 8.34062 4.07925 8.26953 4.10905C8.19843 4.13884 8.1221 4.15413 8.04501 4.154V4.1545ZM8.38501 8.3655L8.92651 8.0395L8.38251 7.715C8.28801 7.80682 8.16204 7.85913 8.03029 7.86127C7.89854 7.86341 7.77094 7.81521 7.67351 7.7265L7.13851 8.037L7.67101 8.3545C7.76865 8.26427 7.89728 8.21507 8.03021 8.21712C8.16315 8.21917 8.2902 8.2723 8.38501 8.3655ZM4.62101 10.439L5.96101 11.207V8.461L5.96351 8.3725L5.98601 8.35L6.09801 8.2835L6.51401 8.0395L6.13801 7.8175L5.96351 7.7285V7.622H5.96151V4.9045L4.64751 5.6575C4.72501 5.9575 4.54751 6.2645 4.24751 6.35V9.662C4.40601 9.708 4.53751 9.8195 4.60901 9.9675C4.68051 10.116 4.68501 10.2875 4.62101 10.439ZM8.04501 11.8355C8.22751 11.8355 8.39901 11.9205 8.50801 12.0665L9.74301 11.3915V8.5235L9.24001 8.2235L8.53001 8.65C8.53501 8.675 8.53701 8.7 8.53701 8.725C8.53701 9.0075 8.30701 9.236 8.02201 9.236C7.94715 9.23605 7.87319 9.21969 7.80533 9.18808C7.73747 9.15647 7.67735 9.11037 7.62922 9.05304C7.58108 8.99571 7.54609 8.92852 7.52671 8.85621C7.50732 8.7839 7.50401 8.70823 7.51701 8.6345L6.82051 8.2215L6.28351 8.5345V11.3915L7.54601 12.115C7.65101 11.941 7.84051 11.835 8.04501 11.8355Z" fill="white"/>
</g>
<defs>
<clipPath id="clip0_7_7851">
<rect width="16" height="16" fill="white"/>
</clipPath>
</defs>
</svg>
