<svg width="16" height="16" viewBox="0 0 16 16" fill="none" xmlns="http://www.w3.org/2000/svg">
<g clip-path="url(#clip0_7_7849)">
<path d="M8 16C12.4183 16 16 12.4183 16 8C16 3.58172 12.4183 0 8 0C3.58172 0 0 3.58172 0 8C0 12.4183 3.58172 16 8 16Z" fill="#0050DB"/>
<path d="M8 13C7.67562 12.9998 7.35721 12.9126 7.078 12.7475L4.425 11.1875C4.1425 11.0195 3.90863 10.7807 3.74644 10.4948C3.58424 10.2089 3.49931 9.88571 3.5 9.557V6.442C3.50007 6.11358 3.58534 5.7908 3.74747 5.50518C3.9096 5.21957 4.14305 4.9809 4.425 4.8125L7.078 3.2525C7.35875 3.08753 7.67838 3.00038 8.004 3C8.3265 3 8.644 3.087 8.922 3.2525L11.575 4.813C11.8574 4.98096 12.0911 5.21953 12.2533 5.50524C12.4155 5.79095 12.5005 6.11396 12.5 6.4425V9.5575C12.5 9.886 12.4148 10.2089 12.2527 10.4946C12.0905 10.7803 11.857 11.0191 11.575 11.1875L8.922 12.7475C8.642 12.9125 8.324 13 8 13ZM6.474 9.7855L5.9825 10.2855C6.1092 10.4168 6.26128 10.5209 6.4295 10.5916C6.59772 10.6623 6.77856 10.6979 6.961 10.6965C7.726 10.6955 8.347 10.0645 8.348 9.285V8.859C8.558 8.9825 8.7965 9.0475 9.039 9.047C9.22187 9.05044 9.40349 9.01616 9.57253 8.94631C9.74157 8.87645 9.8944 8.77253 10.0215 8.641L9.5305 8.141C9.4005 8.274 9.2235 8.349 9.039 8.349C8.85418 8.34702 8.67768 8.27187 8.54816 8.14001C8.41865 8.00815 8.34667 7.83033 8.348 7.6455V5.2975H7.657V9.2895C7.657 9.679 7.347 9.9945 6.9645 9.9945C6.87293 9.99422 6.78233 9.97558 6.69809 9.93968C6.61384 9.90378 6.53764 9.85136 6.474 9.7855Z" fill="white"/>
</g>
<defs>
<clipPath id="clip0_7_7849">
<rect width="16" height="16" fill="white"/>
</clipPath>
</defs>
</svg>
