<svg width="16" height="16" viewBox="0 0 16 16" fill="none" xmlns="http://www.w3.org/2000/svg">
<g clip-path="url(#clip0_7_7722)">
<path d="M8 16C12.4183 16 16 12.4183 16 8C16 3.58172 12.4183 0 8 0C3.58172 0 0 3.58172 0 8C0 12.4183 3.58172 16 8 16Z" fill="#0093DD"/>
<path fill-rule="evenodd" clip-rule="evenodd" d="M6.77 7.99998L9.357 10.665L10.9895 8.98348C11.057 8.91306 11.138 8.85703 11.2277 8.81874C11.3174 8.78046 11.414 8.76073 11.5115 8.76073C11.609 8.76073 11.7056 8.78046 11.7953 8.81874C11.885 8.85703 11.966 8.91306 12.0335 8.98348C12.1724 9.12817 12.2499 9.32094 12.2499 9.52148C12.2499 9.72202 12.1724 9.91479 12.0335 10.0595L9.879 12.2795C9.81115 12.3493 9.73 12.4048 9.64034 12.4426C9.55068 12.4805 9.45434 12.5 9.357 12.5C9.25967 12.5 9.16332 12.4805 9.07366 12.4426C8.984 12.4048 8.90285 12.3493 8.835 12.2795L5.727 9.07648V10.9805C5.727 11.3985 5.394 11.7415 4.9885 11.7415C4.5805 11.7415 4.25 11.4005 4.25 10.9805V5.01998C4.25 4.59998 4.5805 4.25898 4.9885 4.25898C5.396 4.25898 5.727 4.59998 5.727 5.01998V6.92398L8.835 3.72098C8.90285 3.65119 8.984 3.59571 9.07366 3.55783C9.16332 3.51995 9.25967 3.50043 9.357 3.50043C9.45434 3.50043 9.55068 3.51995 9.64034 3.55783C9.73 3.59571 9.81115 3.65119 9.879 3.72098L12.034 5.94098C12.1729 6.08567 12.2504 6.27844 12.2504 6.47898C12.2504 6.67952 12.1729 6.87229 12.034 7.01698C11.9665 7.08756 11.8854 7.14373 11.7956 7.1821C11.7058 7.22048 11.6092 7.24026 11.5115 7.24026C11.4138 7.24026 11.3172 7.22048 11.2274 7.1821C11.1376 7.14373 11.0565 7.08756 10.989 7.01698L9.357 5.33498L6.77 7.99998ZM9.358 7.23848C9.766 7.23848 10.097 7.57948 10.097 7.99998C10.097 8.42048 9.766 8.76148 9.358 8.76148C8.95 8.76148 8.619 8.42048 8.619 7.99998C8.619 7.57948 8.95 7.23848 9.358 7.23848Z" fill="white"/>
</g>
<defs>
<clipPath id="clip0_7_7722">
<rect width="16" height="16" fill="white"/>
</clipPath>
</defs>
</svg>
