<svg width="16" height="16" viewBox="0 0 16 16" fill="none" xmlns="http://www.w3.org/2000/svg">
<g clip-path="url(#clip0_7_7846)">
<path d="M8 16C12.4183 16 16 12.4183 16 8C16 3.58172 12.4183 0 8 0C3.58172 0 0 3.58172 0 8C0 12.4183 3.58172 16 8 16Z" fill="#005FFF"/>
<path fill-rule="evenodd" clip-rule="evenodd" d="M6.8505 9.0035V6.595H7.413C7.5345 6.595 7.633 6.692 7.633 6.8115V7.0195C7.633 7.2455 7.829 7.4395 8.0575 7.4395C8.286 7.4395 8.4595 7.2455 8.4595 7.0195V6.8195C8.4595 6.6955 8.561 6.5945 8.687 6.5945H9.3135V7.2035C9.3135 7.3275 9.2115 7.4285 9.086 7.4285H8.8735C8.76449 7.42797 8.65971 7.47066 8.58211 7.54723C8.50451 7.62379 8.46042 7.72799 8.4595 7.837C8.4595 8.0625 8.6715 8.2455 8.9 8.2455H9.0875C9.2125 8.2455 9.3135 8.3455 9.3135 8.4685V9.0035H9.818C9.993 9.0035 10.1345 9.1425 10.1345 9.3135V9.497C10.1345 9.668 9.9925 9.807 9.818 9.807H9.63C9.58885 9.80746 9.54802 9.79981 9.50984 9.78447C9.47165 9.76913 9.43687 9.74642 9.40747 9.71763C9.37807 9.68884 9.35464 9.65453 9.33852 9.61667C9.32239 9.57881 9.31389 9.53815 9.3135 9.497V9.084H8.685C8.56 9.084 8.4595 8.984 8.4595 8.861V8.655C8.45742 8.54436 8.41227 8.4389 8.33366 8.36103C8.25504 8.28316 8.14915 8.23902 8.0385 8.238C7.81 8.238 7.6325 8.438 7.6325 8.6755V8.8625C7.6325 8.985 7.5325 9.084 7.4085 9.084H6.8505V9.497C6.8505 9.668 6.709 9.807 6.534 9.807H6.3465C6.30535 9.80746 6.26452 9.79981 6.22634 9.78447C6.18815 9.76913 6.15337 9.74642 6.12397 9.71763C6.09457 9.68884 6.07114 9.65453 6.05502 9.61667C6.03889 9.57881 6.03039 9.53815 6.03 9.497V9.3135C6.03 9.1425 6.1715 9.0035 6.3465 9.0035H6.8505ZM9.818 6.5145H9.313V6.0215C9.313 5.8505 9.455 5.7115 9.63 5.7115H9.818C9.993 5.7115 10.1345 5.8505 10.1345 6.0215V6.205C10.1345 6.376 9.9925 6.5145 9.818 6.5145ZM6.8505 6.5145H6.3465C6.3054 6.51496 6.2646 6.50732 6.22645 6.49202C6.1883 6.47672 6.15353 6.45405 6.12414 6.4253C6.09475 6.39656 6.07131 6.36232 6.05516 6.32452C6.03901 6.28672 6.03046 6.2461 6.03 6.205V6.0215C6.03 5.8505 6.1715 5.7115 6.3465 5.7115H6.534C6.709 5.7115 6.8505 5.8505 6.8505 6.0215V6.5145ZM7.988 5.792C7.94685 5.79246 7.90602 5.78481 7.86784 5.76947C7.82965 5.75414 7.79487 5.73142 7.76547 5.70263C7.73607 5.67384 7.71264 5.63953 7.69652 5.60167C7.68039 5.56381 7.67189 5.52315 7.6715 5.482V5.2985C7.6715 5.1275 7.8135 4.989 7.988 4.989H8.176C8.351 4.989 8.4925 5.1275 8.4925 5.299V5.4825C8.49204 5.5236 8.48349 5.56422 8.46734 5.60202C8.45119 5.63982 8.42775 5.67406 8.39836 5.70281C8.36897 5.73155 8.3342 5.75421 8.29605 5.76952C8.2579 5.78482 8.2171 5.79246 8.176 5.792H7.988ZM7.988 10.69C7.94685 10.6905 7.90602 10.6828 7.86784 10.6675C7.82965 10.6521 7.79487 10.6294 7.76547 10.6006C7.73607 10.5718 7.71264 10.5375 7.69652 10.4997C7.68039 10.4618 7.67189 10.4211 7.6715 10.38V10.1965C7.6715 10.0255 7.8135 9.8865 7.988 9.8865H8.176C8.351 9.8865 8.4925 10.0255 8.4925 10.1965V10.3805C8.49204 10.4216 8.48349 10.4622 8.46734 10.5C8.45119 10.5378 8.42775 10.5721 8.39836 10.6008C8.36897 10.6295 8.3342 10.6522 8.29605 10.6675C8.2579 10.6828 8.2171 10.6905 8.176 10.69H7.988ZM10.451 8.2005C10.4099 8.20096 10.3691 8.19332 10.331 8.17802C10.2928 8.16271 10.258 8.14005 10.2286 8.11131C10.1993 8.08256 10.1758 8.04832 10.1597 8.01052C10.1435 7.97272 10.135 7.9321 10.1345 7.891V7.7075C10.1345 7.5365 10.276 7.3975 10.451 7.3975H10.6385C10.8135 7.3975 10.955 7.5365 10.955 7.7075V7.891C10.955 8.062 10.8135 8.201 10.6385 8.201L10.451 8.2005ZM5.4435 8.2005C5.4024 8.20096 5.3616 8.19332 5.32345 8.17802C5.2853 8.16271 5.25054 8.14005 5.22114 8.11131C5.19175 8.08256 5.16831 8.04832 5.15216 8.01052C5.13601 7.97272 5.12746 7.9321 5.127 7.891V7.7075C5.127 7.5365 5.2685 7.3975 5.4435 7.3975H5.631C5.806 7.3975 5.948 7.5365 5.948 7.7075V7.891C5.948 8.062 5.806 8.201 5.631 8.201L5.4435 8.2005ZM9.3265 10.711C9.39655 10.6825 9.47496 10.6825 9.54501 10.711C9.61506 10.7395 9.67122 10.7942 9.7015 10.8635C9.71586 10.8977 9.72324 10.9345 9.7232 10.9716C9.72316 11.0087 9.7157 11.0454 9.70125 11.0796C9.68681 11.1138 9.66569 11.1448 9.63911 11.1707C9.61253 11.1966 9.58105 11.2169 9.5465 11.2305C9.47651 11.259 9.39815 11.2591 9.32811 11.2307C9.25807 11.2023 9.20188 11.1477 9.1715 11.0785C9.15713 11.0442 9.14974 11.0075 9.14978 10.9703C9.14982 10.9332 9.15727 10.8964 9.17171 10.8622C9.18615 10.8279 9.20728 10.7969 9.23386 10.771C9.26044 10.745 9.29193 10.7246 9.3265 10.711ZM6.7 4.4485C6.76999 4.41998 6.84835 4.4199 6.91839 4.44829C6.98843 4.47668 7.04462 4.53129 7.075 4.6005C7.08929 4.63473 7.09661 4.67147 7.09654 4.70857C7.09646 4.74566 7.08899 4.78237 7.07456 4.81654C7.06012 4.85072 7.03902 4.88167 7.01248 4.90759C6.98594 4.93351 6.9545 4.95388 6.92 4.9675C6.84995 4.99618 6.77147 4.99633 6.70131 4.96793C6.63115 4.93953 6.57487 4.88483 6.5445 4.8155C6.53021 4.78127 6.52289 4.74453 6.52296 4.70743C6.52304 4.67034 6.53051 4.63363 6.54494 4.59946C6.55938 4.56528 6.58048 4.53433 6.60702 4.50841C6.63356 4.48249 6.6655 4.46212 6.7 4.4485ZM10.977 6.6625C10.9626 6.62821 10.9553 6.5914 10.9554 6.55422C10.9554 6.51705 10.9629 6.48026 10.9774 6.44602C10.9919 6.41179 11.0131 6.38079 11.0397 6.35486C11.0663 6.32892 11.0979 6.30857 11.1325 6.295C11.2025 6.26648 11.2808 6.2664 11.3509 6.29479C11.4209 6.32318 11.4771 6.37779 11.5075 6.447C11.5219 6.48126 11.5293 6.51804 11.5292 6.5552C11.5292 6.59235 11.5217 6.62912 11.5073 6.66335C11.4929 6.69758 11.4717 6.72858 11.4451 6.75454C11.4186 6.78049 11.3871 6.80088 11.3525 6.8145C11.2825 6.84302 11.2042 6.8431 11.1341 6.81471C11.0641 6.78632 11.0074 6.73171 10.977 6.6625ZM4.656 9.2315C4.64172 9.19724 4.63442 9.16047 4.63453 9.12335C4.63464 9.08623 4.64216 9.04951 4.65664 9.01533C4.67112 8.98115 4.69228 8.9502 4.71887 8.92431C4.74546 8.89841 4.77695 8.87807 4.8115 8.8645C4.88153 8.83569 4.96007 8.83547 5.03026 8.86388C5.10046 8.8923 5.15673 8.94709 5.187 9.0165C5.20129 9.05073 5.20862 9.08747 5.20854 9.12457C5.20846 9.16166 5.20099 9.19837 5.18656 9.23254C5.17212 9.26672 5.15102 9.29767 5.12448 9.32359C5.09794 9.34951 5.0665 9.36988 5.032 9.3835C4.96189 9.41233 4.88329 9.41257 4.81301 9.38416C4.74273 9.35575 4.68637 9.30095 4.656 9.2315ZM4.656 6.447C4.68637 6.37767 4.74265 6.32297 4.81281 6.29457C4.88297 6.26617 4.96145 6.26632 5.0315 6.295C5.06611 6.30857 5.09766 6.32892 5.12429 6.35486C5.15093 6.38079 5.17211 6.41179 5.18659 6.44602C5.20108 6.48026 5.20858 6.51705 5.20865 6.55422C5.20872 6.5914 5.20136 6.62821 5.187 6.6625C5.15662 6.73171 5.10043 6.78632 5.03039 6.81471C4.96035 6.8431 4.88199 6.84302 4.812 6.8145C4.77735 6.80098 4.74575 6.78066 4.71906 6.75475C4.69237 6.72883 4.67114 6.69785 4.6566 6.6636C4.64207 6.62936 4.63453 6.59256 4.63442 6.55536C4.63432 6.51817 4.64166 6.48132 4.656 6.447ZM9.2445 4.9675C9.21 4.95388 9.17856 4.93351 9.15202 4.90759C9.12548 4.88167 9.10438 4.85072 9.08994 4.81654C9.07551 4.78237 9.06804 4.74566 9.06796 4.70857C9.06788 4.67147 9.07521 4.63473 9.0895 4.6005C9.11988 4.53129 9.17607 4.47668 9.24611 4.44829C9.31615 4.4199 9.39451 4.41998 9.4645 4.4485C9.499 4.46212 9.53044 4.48249 9.55698 4.50841C9.58352 4.53433 9.60462 4.56528 9.61906 4.59946C9.63349 4.63363 9.64096 4.67034 9.64104 4.70743C9.64111 4.74453 9.63379 4.78127 9.6195 4.8155C9.58913 4.88471 9.53293 4.93932 9.46289 4.96771C9.39285 4.9961 9.31449 4.99602 9.2445 4.9675ZM10.977 9.0165C11.0073 8.94721 11.0635 8.89251 11.1335 8.86411C11.2036 8.8357 11.282 8.83584 11.352 8.8645C11.3866 8.87803 11.4181 8.89832 11.4448 8.9242C11.4714 8.95008 11.4926 8.98102 11.5072 9.0152C11.5217 9.04938 11.5293 9.08612 11.5294 9.12327C11.5295 9.16041 11.5223 9.19721 11.508 9.2315C11.4776 9.3007 11.4214 9.35532 11.3514 9.38371C11.2813 9.4121 11.203 9.41202 11.133 9.3835C11.0984 9.36997 11.0669 9.34968 11.0402 9.3238C11.0136 9.29792 10.9924 9.26698 10.9778 9.2328C10.9633 9.19862 10.9557 9.16188 10.9556 9.12473C10.9555 9.08759 10.9627 9.05079 10.977 9.0165ZM6.5355 11.3105C6.50095 11.2969 6.46947 11.2766 6.44289 11.2507C6.41631 11.2248 6.39519 11.1938 6.38074 11.1596C6.3663 11.1254 6.35884 11.0887 6.3588 11.0516C6.35876 11.0145 6.36614 10.9777 6.3805 10.9435C6.41087 10.8743 6.46707 10.8197 6.53711 10.7913C6.60715 10.7629 6.68551 10.763 6.7555 10.7915C6.79 10.8051 6.82144 10.8255 6.84798 10.8514C6.87452 10.8773 6.89562 10.9083 6.91006 10.9425C6.92449 10.9766 6.93196 11.0133 6.93204 11.0504C6.93212 11.0875 6.92479 11.1243 6.9105 11.1585C6.88013 11.2277 6.82393 11.2823 6.75389 11.3107C6.68385 11.3391 6.60549 11.339 6.5355 11.3105ZM10.757 10.4955C10.7881 10.4654 10.8297 10.4486 10.873 10.4486C10.9163 10.4486 10.9579 10.4654 10.989 10.4955C11.0535 10.5585 11.0535 10.6605 10.989 10.723C10.9245 10.7855 10.8215 10.7855 10.757 10.723C10.7418 10.7083 10.7297 10.6906 10.7214 10.6711C10.7132 10.6516 10.7089 10.6307 10.7089 10.6095C10.7089 10.5883 10.7132 10.5674 10.7214 10.5479C10.7297 10.5284 10.7418 10.5107 10.757 10.496V10.4955ZM5.175 4.956C5.239 4.8935 5.343 4.8935 5.407 4.956C5.471 5.0185 5.471 5.121 5.407 5.1835C5.37587 5.21356 5.33428 5.23036 5.291 5.23036C5.24772 5.23036 5.20613 5.21356 5.175 5.1835C5.15979 5.16877 5.14769 5.15113 5.13943 5.13163C5.13117 5.11213 5.12692 5.09118 5.12692 5.07C5.12692 5.04882 5.13117 5.02787 5.13943 5.00837C5.14769 4.98887 5.15979 4.97123 5.175 4.9565V4.956ZM10.757 5.1835C10.7418 5.16877 10.7297 5.15113 10.7214 5.13163C10.7132 5.11213 10.7089 5.09118 10.7089 5.07C10.7089 5.04882 10.7132 5.02787 10.7214 5.00837C10.7297 4.98887 10.7418 4.97123 10.757 4.9565C10.8215 4.8935 10.925 4.8935 10.989 4.9565C11.053 5.0195 11.0535 5.1205 10.989 5.1835C10.9579 5.21356 10.9163 5.23036 10.873 5.23036C10.8297 5.23036 10.7881 5.21356 10.757 5.1835ZM5.175 10.723C5.15979 10.7083 5.14769 10.6906 5.13943 10.6711C5.13117 10.6516 5.12692 10.6307 5.12692 10.6095C5.12692 10.5883 5.13117 10.5674 5.13943 10.5479C5.14769 10.5284 5.15979 10.5107 5.175 10.496C5.20613 10.4659 5.24772 10.4491 5.291 10.4491C5.33428 10.4491 5.37587 10.4659 5.407 10.496C5.471 10.5585 5.471 10.6605 5.407 10.723C5.343 10.7855 5.239 10.7855 5.175 10.723ZM11.94 7.7995C11.94 7.7105 12.014 7.6385 12.1045 7.6385C12.195 7.6385 12.2685 7.7105 12.2685 7.7995C12.2678 7.84242 12.2502 7.88334 12.2195 7.91332C12.1888 7.9433 12.1474 7.9599 12.1045 7.9595C12.0616 7.9599 12.0202 7.9433 11.9895 7.91332C11.9588 7.88334 11.9412 7.84242 11.9405 7.7995H11.94ZM3.9775 7.7995C3.9775 7.7105 4.051 7.6385 4.142 7.6385C4.232 7.6385 4.306 7.7105 4.306 7.7995C4.30534 7.84242 4.28772 7.88334 4.257 7.91332C4.22627 7.9433 4.18493 7.9599 4.142 7.9595C4.09899 7.96003 4.05752 7.94349 4.02668 7.9135C3.99584 7.88351 3.97816 7.84251 3.9775 7.7995ZM8.0825 4.106C8.06112 4.10633 8.03988 4.10244 8.02001 4.09454C8.00013 4.08665 7.98201 4.07491 7.96668 4.06C7.95135 4.04509 7.93912 4.0273 7.93068 4.00765C7.92224 3.988 7.91776 3.96688 7.9175 3.9455C7.9175 3.8565 7.9915 3.7845 8.0825 3.7845C8.1725 3.7845 8.2465 3.8565 8.2465 3.9455C8.24584 3.98851 8.22816 4.02951 8.19732 4.0595C8.16648 4.08949 8.12501 4.10603 8.082 4.1055L8.0825 4.106ZM8.0825 11.894C8.06116 11.8943 8.03996 11.8905 8.02012 11.8826C8.00028 11.8747 7.98218 11.863 7.96686 11.8482C7.95154 11.8333 7.93929 11.8156 7.93082 11.796C7.92235 11.7764 7.91783 11.7553 7.9175 11.734C7.9175 11.645 7.9915 11.573 8.0825 11.573C8.1725 11.573 8.2465 11.645 8.2465 11.7335C8.24624 11.7548 8.24178 11.7759 8.23337 11.7955C8.22496 11.8152 8.21277 11.8329 8.19749 11.8478C8.18222 11.8627 8.16416 11.8745 8.14434 11.8824C8.12452 11.8903 8.10334 11.8943 8.082 11.894H8.0825ZM13.1715 7.799C13.1715 7.7105 13.2455 7.639 13.336 7.639C13.426 7.639 13.5 7.7105 13.5 7.799C13.4998 7.82034 13.4954 7.84143 13.4871 7.86107C13.4787 7.88071 13.4666 7.89852 13.4513 7.91347C13.4361 7.92842 13.4181 7.94022 13.3983 7.94821C13.3785 7.95619 13.3573 7.9602 13.336 7.96C13.3147 7.96026 13.2935 7.95632 13.2737 7.9484C13.2538 7.94048 13.2358 7.92873 13.2205 7.91382C13.2052 7.89892 13.193 7.88115 13.1846 7.86154C13.1762 7.84192 13.1718 7.82084 13.1715 7.7995V7.799ZM2.623 7.719C2.691 7.719 2.7465 7.773 2.7465 7.839C2.7465 7.905 2.6915 7.96 2.623 7.96C2.555 7.96 2.5 7.906 2.5 7.8395C2.5 7.773 2.555 7.719 2.623 7.719ZM7.836 2.6605C7.836 2.572 7.9095 2.5 8 2.5C8.0905 2.5 8.164 2.572 8.164 2.6605C8.164 2.749 8.0905 2.821 8 2.821C7.9095 2.821 7.836 2.7485 7.836 2.6605ZM12.6985 9.713C12.7248 9.65373 12.7733 9.60711 12.8336 9.5831C12.8938 9.55909 12.9611 9.55959 13.021 9.5845C13.0506 9.59639 13.0774 9.61405 13.1001 9.63645C13.1228 9.65884 13.1407 9.68553 13.153 9.71494C13.1652 9.74435 13.1715 9.77591 13.1714 9.80777C13.1713 9.83963 13.1649 9.87115 13.1525 9.9005C13.1264 9.96007 13.0778 10.0069 13.0173 10.0309C12.9568 10.0549 12.8893 10.054 12.8295 10.0285C12.8 10.0166 12.7732 9.99897 12.7506 9.9766C12.728 9.95423 12.7101 9.92758 12.6979 9.89821C12.6857 9.86884 12.6794 9.83734 12.6796 9.80554C12.6797 9.77374 12.6861 9.74228 12.6985 9.713ZM10.0335 12.308C10.0534 12.316 10.0714 12.328 10.0866 12.3431C10.1018 12.3582 10.1138 12.3762 10.122 12.396C10.1302 12.4154 10.1343 12.4363 10.1342 12.4573C10.1341 12.4783 10.1298 12.4992 10.1215 12.5185C10.1084 12.5478 10.087 12.5727 10.06 12.5901C10.033 12.6075 10.0015 12.6166 9.96935 12.6164C9.93722 12.6162 9.90585 12.6066 9.87907 12.5889C9.85228 12.5711 9.83124 12.546 9.8185 12.5165C9.81026 12.4971 9.80602 12.4763 9.80602 12.4552C9.80602 12.4342 9.81026 12.4134 9.8185 12.394C9.82701 12.3743 9.83935 12.3566 9.8548 12.3417C9.87026 12.3269 9.88851 12.3152 9.9085 12.3075C9.94875 12.2918 9.9935 12.2922 10.0335 12.3085V12.308ZM3.221 5.6445C3.261 5.6615 3.2925 5.6925 3.309 5.732C3.31723 5.75147 3.32143 5.77241 3.32134 5.79355C3.32125 5.81469 3.31689 5.83559 3.3085 5.855C3.29538 5.88432 3.274 5.90919 3.24698 5.92657C3.21997 5.94396 3.18847 5.9531 3.15635 5.95289C3.12422 5.95268 3.09285 5.94312 3.06607 5.92538C3.03928 5.90764 3.01824 5.88249 3.0055 5.853C2.99727 5.83353 2.99307 5.81259 2.99316 5.79145C2.99325 5.77031 2.99761 5.74941 3.006 5.73C3.01449 5.71046 3.02677 5.69279 3.04213 5.67803C3.05749 5.66327 3.07563 5.6517 3.0955 5.644C3.13583 5.62795 3.1808 5.62813 3.221 5.6445ZM2.763 9.7695C2.78496 9.72004 2.82541 9.68115 2.87568 9.66115C2.92596 9.64115 2.98207 9.64164 3.032 9.6625C3.05662 9.67236 3.07903 9.68704 3.0979 9.70568C3.11676 9.72432 3.13171 9.74655 3.14187 9.77105C3.15203 9.79556 3.15718 9.82184 3.15703 9.84836C3.15688 9.87489 3.15143 9.90111 3.141 9.9255C3.11895 9.97486 3.07846 10.0136 3.02819 10.0335C2.97793 10.0534 2.92186 10.0529 2.872 10.032C2.84738 10.0221 2.82497 10.0075 2.8061 9.98882C2.78724 9.97018 2.77229 9.94795 2.76213 9.92345C2.75197 9.89894 2.74682 9.87266 2.74697 9.84614C2.74712 9.81961 2.75257 9.79389 2.763 9.7695ZM9.9315 3.126C9.90683 3.11619 9.88438 3.10154 9.86546 3.08292C9.84653 3.0643 9.83153 3.04208 9.82133 3.01758C9.81112 2.99307 9.80593 2.96677 9.80604 2.94022C9.80616 2.91367 9.81158 2.88742 9.822 2.863C9.84396 2.81354 9.88441 2.77465 9.93468 2.75465C9.98496 2.73465 10.0411 2.73514 10.091 2.756C10.1156 2.76586 10.138 2.78054 10.1569 2.79918C10.1758 2.81782 10.1907 2.84005 10.2009 2.86455C10.211 2.88905 10.2162 2.91534 10.216 2.94186C10.2159 2.96839 10.2104 2.99461 10.2 3.019C10.178 3.06833 10.1377 3.10713 10.0875 3.12712C10.0374 3.14711 9.98137 3.14671 9.9315 3.126ZM13.002 5.5595C13.0324 5.54735 13.0663 5.54753 13.0965 5.56C13.1186 5.56911 13.1375 5.58461 13.1507 5.60453C13.1639 5.62444 13.1709 5.64785 13.1708 5.67176C13.1706 5.69566 13.1633 5.71898 13.1498 5.73871C13.1363 5.75844 13.1172 5.77369 13.095 5.7825C13.0649 5.79455 13.0313 5.7944 13.0014 5.78207C12.9714 5.76975 12.9474 5.74622 12.9345 5.7165C12.9283 5.70186 12.9251 5.6861 12.9252 5.6702C12.9253 5.65429 12.9286 5.63857 12.935 5.624C12.9414 5.60936 12.9506 5.59613 12.9621 5.58506C12.9736 5.57399 12.9871 5.5653 13.002 5.5595ZM5.7935 2.975C5.80657 2.94534 5.83077 2.92201 5.86089 2.91003C5.89101 2.89806 5.92463 2.89841 5.9545 2.911C5.9768 2.91992 5.9959 2.93536 6.0093 2.95529C6.0227 2.97523 6.02979 2.99874 6.02962 3.02276C6.02946 3.04678 6.02206 3.0702 6.0084 3.08995C5.99473 3.10971 5.97542 3.12488 5.953 3.1335C5.9228 3.14557 5.88908 3.14539 5.859 3.133C5.84424 3.12703 5.83082 3.11818 5.81952 3.10697C5.80822 3.09577 5.79926 3.08242 5.79316 3.06772C5.78707 3.05301 5.78396 3.03724 5.78401 3.02132C5.78407 3.00541 5.7873 2.98966 5.7935 2.975ZM5.825 12.456C5.841 12.456 5.857 12.4595 5.8725 12.466C5.88724 12.4719 5.90065 12.4807 5.91195 12.4919C5.92324 12.503 5.9322 12.5163 5.9383 12.531C5.9444 12.5457 5.94752 12.5614 5.94746 12.5773C5.94741 12.5932 5.94419 12.6089 5.938 12.6235C5.92483 12.6531 5.90062 12.6763 5.87053 12.6883C5.84045 12.7002 5.80688 12.7 5.777 12.6875C5.76226 12.6816 5.74885 12.6728 5.73753 12.6616C5.72622 12.6505 5.71723 12.6372 5.71109 12.6225C5.70495 12.6079 5.70178 12.5922 5.70177 12.5763C5.70175 12.5604 5.70489 12.5447 5.711 12.53C5.72068 12.5079 5.73664 12.4891 5.75691 12.4759C5.77717 12.4628 5.80084 12.4558 5.825 12.456ZM11.646 11.606C11.6148 11.6362 11.5731 11.6531 11.5297 11.6531C11.4864 11.6531 11.4447 11.6362 11.4135 11.606C11.3983 11.5913 11.3862 11.5736 11.3779 11.5541C11.3697 11.5346 11.3654 11.5137 11.3654 11.4925C11.3654 11.4713 11.3697 11.4504 11.3779 11.4309C11.3862 11.4114 11.3983 11.3937 11.4135 11.379C11.4446 11.3486 11.4865 11.3317 11.53 11.332C11.5733 11.3318 11.615 11.3487 11.646 11.379C11.6613 11.3937 11.6734 11.4114 11.6818 11.431C11.6901 11.4505 11.6943 11.4715 11.6943 11.4928C11.6943 11.514 11.6901 11.535 11.6818 11.5545C11.6734 11.5741 11.6613 11.5913 11.646 11.606ZM3.9675 4.0165C4.01422 3.97126 4.07671 3.94596 4.14175 3.94596C4.20679 3.94596 4.26928 3.97126 4.316 4.0165C4.33875 4.03863 4.35684 4.0651 4.36919 4.09434C4.38154 4.12359 4.38791 4.15501 4.38791 4.18675C4.38791 4.21849 4.38154 4.24991 4.36919 4.27916C4.35684 4.3084 4.33875 4.33487 4.316 4.357C4.26952 4.40271 4.20694 4.42833 4.14175 4.42833C4.07656 4.42833 4.01398 4.40271 3.9675 4.357C3.94475 4.33487 3.92666 4.3084 3.91431 4.27916C3.90196 4.24991 3.89559 4.21849 3.89559 4.18675C3.89559 4.15501 3.90196 4.12359 3.91431 4.09434C3.92666 4.0651 3.94475 4.03863 3.9675 4.0165ZM11.73 4.0615C11.7532 4.03866 11.7844 4.02586 11.817 4.02586C11.8496 4.02586 11.8808 4.03866 11.904 4.0615C11.9153 4.07258 11.9243 4.0858 11.9304 4.1004C11.9366 4.115 11.9397 4.13067 11.9397 4.1465C11.9397 4.16233 11.9366 4.178 11.9304 4.1926C11.9243 4.2072 11.9153 4.22042 11.904 4.2315C11.8807 4.2541 11.8495 4.26674 11.817 4.26674C11.7845 4.26674 11.7533 4.2541 11.73 4.2315C11.7186 4.22049 11.7095 4.20729 11.7033 4.19268C11.697 4.17808 11.6938 4.16237 11.6938 4.1465C11.6938 4.13063 11.697 4.11492 11.7033 4.10032C11.7095 4.08571 11.7186 4.07251 11.73 4.0615ZM4.0135 11.3675C4.0367 11.3447 4.06795 11.3319 4.1005 11.3319C4.13305 11.3319 4.1643 11.3447 4.1875 11.3675C4.19887 11.3785 4.20791 11.3918 4.21408 11.4064C4.22025 11.421 4.22343 11.4366 4.22343 11.4525C4.22343 11.4684 4.22025 11.484 4.21408 11.4986C4.20791 11.5132 4.19887 11.5265 4.1875 11.5375C4.16418 11.5601 4.13298 11.5727 4.1005 11.5727C4.06802 11.5727 4.03682 11.5601 4.0135 11.5375C4.00213 11.5265 3.99309 11.5132 3.98692 11.4986C3.98075 11.484 3.97757 11.4684 3.97757 11.4525C3.97757 11.4366 3.98075 11.421 3.98692 11.4064C3.99309 11.3918 4.00213 11.3785 4.0135 11.3675ZM8.041 13.5C7.98725 13.5005 7.93547 13.4797 7.89704 13.4421C7.85861 13.4045 7.83666 13.3533 7.836 13.2995C7.836 13.1885 7.9275 13.0985 8.041 13.0985C8.1545 13.0985 8.246 13.1885 8.246 13.2995C8.24534 13.3533 8.22339 13.4045 8.18496 13.4421C8.14653 13.4797 8.09475 13.5005 8.041 13.5Z" fill="white"/>
</g>
<defs>
<clipPath id="clip0_7_7846">
<rect width="16" height="16" fill="white"/>
</clipPath>
</defs>
</svg>
