<svg width="16" height="16" viewBox="0 0 16 16" fill="none" xmlns="http://www.w3.org/2000/svg">
<g clip-path="url(#clip0_7_7820)">
<path d="M8 16C12.4183 16 16 12.4183 16 8C16 3.58172 12.4183 0 8 0C3.58172 0 0 3.58172 0 8C0 12.4183 3.58172 16 8 16Z" fill="#EA0017"/>
<path d="M10.3587 7.70598C10.3742 7.70598 10.4117 7.72198 10.4437 7.74098C10.5317 7.79448 10.5772 7.90198 10.5687 8.03098C10.5637 8.11898 10.5422 8.17898 10.4537 8.35898C10.3937 8.48098 10.2807 8.68548 10.2037 8.81398C10.0707 9.03298 10.0072 9.14798 10.0072 9.16548C10.0072 9.17048 10.0972 9.08948 10.2072 8.98548C10.4132 8.79148 10.5577 8.69948 10.6232 8.72048C10.7117 8.74898 10.7382 8.91648 10.6797 9.08448C10.6462 9.18448 10.5562 9.36648 10.4662 9.51998C10.4142 9.60498 10.4097 9.62198 10.4972 9.57198L10.5702 9.52898C10.7522 9.41948 10.8687 9.40748 10.9322 9.49398C11.0022 9.58898 10.9902 9.87848 10.9037 10.129C10.8842 10.1855 10.8737 10.2365 10.8787 10.242C10.8842 10.247 10.9387 10.2295 10.9987 10.203C11.0607 10.175 11.1527 10.143 11.2057 10.131C11.3837 10.0885 11.4597 10.1645 11.4932 10.4165C11.5232 10.6355 11.4402 10.8175 11.2882 10.872C11.2622 10.881 11.2582 10.877 11.2672 10.844C11.2742 10.821 11.2832 10.7805 11.2902 10.752C11.2992 10.706 11.2972 10.7045 11.2652 10.722C11.2142 10.7485 11.1562 10.8545 11.1352 10.9605C11.0717 11.2745 10.9922 11.4295 10.7837 11.6415C10.5542 11.8745 10.3162 12.0315 9.9457 12.1975C9.7727 12.275 9.5292 12.4285 9.2697 12.6245L9.1937 12.6825L9.0437 12.545L8.9687 12.479C8.8182 12.352 8.6672 12.253 8.5462 12.204C8.51006 12.1902 8.47422 12.1757 8.4387 12.1605C8.4352 12.157 8.4652 12.118 8.5057 12.072C8.54516 12.0264 8.57569 11.9738 8.5957 11.917C8.6207 11.8195 8.6342 11.797 8.6892 11.765C8.7527 11.73 8.8552 11.758 9.0987 11.88C9.2062 11.9325 9.2977 11.977 9.3067 11.977C9.3262 11.977 9.3227 11.9255 9.2977 11.8605C9.2787 11.8075 9.2857 11.7755 9.3667 11.532C9.4742 11.211 9.5027 11.0945 9.4817 11.073C9.4552 11.0465 9.4337 11.089 9.3102 11.403C9.2452 11.5675 9.1887 11.707 9.1852 11.7105C9.1797 11.7155 9.1407 11.7015 9.0967 11.6805C9.0242 11.645 9.0172 11.6345 9.0262 11.5955C9.0772 11.3905 9.1072 10.9285 9.0757 10.8155C9.0527 10.736 9.0277 10.7695 9.0067 10.909C8.9607 11.2055 8.9097 11.4405 8.8887 11.4615C8.8687 11.481 8.8567 11.4755 8.8177 11.4295L8.7722 11.373V9.71498L9.1637 9.20998L9.2442 9.10598C9.8707 8.29748 10.0502 8.06448 10.1892 7.88648C10.2667 7.78748 10.3427 7.70648 10.3587 7.70648V7.70598ZM6.9227 10.216C7.0902 10.0565 7.1277 10.0425 7.1857 10.124C7.2297 10.184 7.2542 10.325 7.2542 10.5175V10.676L7.3357 10.7625L7.3687 10.8005C7.4012 10.8405 7.4307 10.8855 7.4412 10.9105C7.4677 10.976 7.4787 11.2265 7.4572 11.3115C7.4502 11.3395 7.4677 11.3925 7.5157 11.4845C7.8422 12.1095 7.9092 12.245 7.9007 12.2555L7.8897 12.2575L7.8697 12.256C7.85063 12.2526 7.83189 12.2476 7.8137 12.241C7.7377 12.217 7.6477 12.213 7.3287 12.222C7.1362 12.227 7.0212 12.1955 7.0107 12.134C7.0057 12.109 7.0777 11.994 7.2297 11.784C7.2757 11.721 7.2807 11.684 7.2547 11.6415C7.2422 11.6205 7.1802 11.613 6.9547 11.6065C6.5767 11.594 6.5647 11.5725 6.8307 11.3715C6.9422 11.2865 7.0727 11.1525 7.0882 11.1065C7.0937 11.089 7.0847 11.0555 7.0692 11.031L7.0392 10.985L6.8242 10.9975L6.7657 11.0005C6.5287 11.0105 6.4857 10.9765 6.5657 10.865C6.5857 10.8385 6.5957 10.812 6.5892 10.805C6.5842 10.8 6.4792 10.7945 6.3612 10.7945C6.1582 10.7945 5.9747 10.7715 5.9432 10.743C5.9362 10.736 6.0227 10.701 6.1372 10.6655C6.3332 10.6055 6.5962 10.4855 6.7162 10.4005C6.78734 10.3414 6.85622 10.2802 6.9227 10.216ZM7.5762 8.69598C7.5842 8.70098 7.6037 8.85848 7.6247 9.04748C7.6447 9.23598 7.6602 9.40898 7.6602 9.42998C7.6602 9.45298 7.6672 9.47098 7.6762 9.47098C7.6847 9.47098 7.7377 9.39998 7.7942 9.31198C7.8527 9.22548 7.9042 9.15298 7.9092 9.15298C7.9232 9.15298 7.9322 9.21998 7.9792 9.72148C8.0027 9.95248 8.0257 10.1415 8.0307 10.1415C8.0357 10.1415 8.0642 10.0425 8.0907 9.92098C8.1192 9.79897 8.1472 9.69998 8.1542 9.69998C8.1647 9.69998 8.6502 11.105 8.6487 11.133C8.6487 11.172 8.6062 11.126 8.4367 10.9075C8.3342 10.773 8.2372 10.6495 8.2217 10.6285L8.1897 10.5915L8.1422 10.6445L8.1222 10.667C8.0768 10.718 8.03096 10.7687 7.9847 10.819L7.8737 10.941L7.8647 10.881L7.8632 10.866C7.8552 10.801 7.8327 10.566 7.8102 10.3125C7.7872 10.032 7.7627 9.79548 7.7552 9.78648C7.7502 9.77798 7.6832 9.82748 7.6052 9.89798C7.5277 9.96848 7.4572 10.03 7.4467 10.032C7.4362 10.0355 7.4342 10.011 7.4397 9.96998C7.4522 9.87998 7.5722 8.74748 7.5722 8.71348C7.5722 8.69948 7.5757 8.69248 7.5807 8.69598H7.5762ZM5.3112 7.72198C5.4382 7.70598 5.7012 7.71998 5.8232 7.75348C5.9572 7.78698 6.1072 7.85098 6.2272 7.91948C6.3457 7.98998 6.6367 8.27098 6.6807 8.35948C6.7157 8.42948 6.7337 8.43848 6.5202 8.27598C6.35163 8.15101 6.16475 8.05285 5.9662 7.98498C5.8672 7.95398 5.8112 7.94598 5.6587 7.94498L5.5867 7.94448C5.3642 7.94448 5.3257 7.94948 5.1982 7.99198C4.3917 8.26548 3.9842 9.29098 4.4062 9.98448C4.5312 10.1925 4.7327 10.378 5.0042 10.5345C5.1577 10.6245 5.1457 10.6395 4.9567 10.5915C4.78856 10.5496 4.63181 10.4709 4.49778 10.3611C4.36376 10.2513 4.2558 10.1131 4.1817 9.95648C4.0847 9.75848 4.0427 9.57498 4.0302 9.31198C4.0127 8.88698 4.1237 8.54948 4.3882 8.22848C4.5982 7.97248 4.9707 7.76948 5.3112 7.72198ZM4.6617 9.09698C4.6882 9.01548 4.6917 9.02098 4.7592 9.20798C4.89365 9.56247 5.09765 9.88649 5.3592 10.161C5.4207 10.226 5.4717 10.2845 5.4717 10.291C5.4717 10.3195 5.3327 10.2845 5.2002 10.2245C4.8792 10.0745 4.6902 9.76198 4.6497 9.30448C4.6427 9.20948 4.6447 9.14648 4.6617 9.09698ZM6.1427 6.46198C6.3647 6.42848 6.3757 6.43198 6.2307 6.49898C6.1582 6.53248 6.0877 6.56398 6.0757 6.57298L6.0617 6.58148C6.0217 6.61048 6.0952 6.62148 6.3492 6.62948C6.6722 6.63848 6.6742 6.63998 6.6472 6.74598C6.6367 6.78848 6.6332 6.78848 6.4372 6.78848C6.3244 6.78996 6.21183 6.79881 6.1002 6.81498C5.9627 6.83998 5.7632 6.92248 5.7632 6.95598C5.7632 6.96498 5.8462 6.98248 5.9482 6.99498C6.2627 7.03198 6.5682 7.11498 6.7797 7.22098C6.8627 7.26498 6.9067 7.32098 7.0727 7.60898C7.5192 8.37998 7.5862 8.48948 7.7467 8.70298C7.9517 8.97498 8.1717 9.22198 8.4117 9.44948L8.6307 9.65598V9.94248C8.6287 10.0465 8.6222 10.1265 8.6132 10.1325C8.5957 10.143 8.6062 10.161 8.3662 9.75298C8.19124 9.45579 8.00219 9.16712 7.7997 8.88798C7.74803 8.8181 7.69964 8.74585 7.6547 8.67148C7.6497 8.65548 7.6337 8.64148 7.6212 8.63948C7.6092 8.63948 7.5512 8.58298 7.4927 8.51448C7.3267 8.31998 6.9527 7.98298 6.6982 7.80148C6.5522 7.69548 6.3597 7.56498 6.3492 7.56498C6.3457 7.56498 6.2837 7.53298 6.2112 7.49248C6.0511 7.40755 5.88336 7.33791 5.7102 7.28448C5.5882 7.25098 5.3452 7.24198 5.1897 7.26298C4.96542 7.30296 4.74984 7.38181 4.5527 7.49598C4.50367 7.52761 4.45293 7.55648 4.4007 7.58248C4.3882 7.58248 4.2332 7.69348 4.1132 7.79098C4.0582 7.83498 4.0142 7.85948 4.0107 7.84898C4.0017 7.82398 4.1502 7.61798 4.2792 7.47148C4.45386 7.28767 4.64724 7.12261 4.8562 6.97898C5.2212 6.73548 5.7562 6.51998 6.1427 6.46198ZM4.9372 8.66248C4.8722 8.48448 4.8737 8.46998 4.9567 8.51748C5.01504 8.55377 5.07208 8.59213 5.1277 8.63248C5.46919 8.88641 5.7446 9.21876 5.9307 9.60148C6.0067 9.76198 6.0597 9.91198 6.0472 9.92448L6.0377 9.92648L6.0212 9.92148C5.9362 9.88648 5.6712 9.67148 5.4717 9.47098C5.2197 9.21498 5.0432 8.95198 4.9372 8.66248ZM5.5247 8.18598C5.5247 8.16498 5.7137 8.21448 5.8247 8.26548C6.0562 8.36948 6.2257 8.57048 6.2997 8.82148C6.3492 8.99098 6.3632 9.11948 6.3457 9.25198C6.3312 9.36998 6.3332 9.37398 6.2222 9.12498C6.08929 8.849 5.91343 8.59585 5.7012 8.37498C5.64036 8.31388 5.5815 8.25084 5.5247 8.18598ZM8.4192 5.23898C8.5057 5.21398 8.5042 5.21398 8.5322 5.25648C8.5797 5.33048 8.6662 5.61848 8.7032 5.82848C8.7262 5.96598 8.7422 6.15498 8.7492 6.38048L8.7592 6.72298L8.6732 6.71098L8.6537 6.70798C8.5317 6.68798 8.4322 6.65048 7.7712 6.37348C7.4147 6.22348 7.1202 6.10548 7.1147 6.11048C7.1062 6.11948 7.2827 6.46698 7.4007 6.67348C7.6157 7.04798 8.0147 7.25098 8.4757 7.22098C8.6077 7.21198 8.6557 7.21548 8.6957 7.23498C8.7912 7.28598 8.8532 7.37448 8.9112 7.54698C8.9837 7.75898 9.1162 8.01698 9.2292 8.16498C9.2767 8.22848 9.3142 8.28148 9.3142 8.28148C9.3122 8.28298 9.2557 8.27248 9.1867 8.25998C8.8777 8.19648 8.3432 7.97248 8.1987 7.84548C8.0327 7.69898 8.1842 7.93348 8.3607 8.09448C8.5757 8.29198 8.8867 8.46298 9.2412 8.58148C9.3472 8.61648 9.4372 8.64848 9.4392 8.64998C9.4587 8.66798 8.9377 9.27648 8.9062 9.27648C8.8742 9.27648 8.6942 9.16898 8.5197 9.04748C8.3272 8.91298 7.8912 8.48448 7.7362 8.27948C7.29026 7.68111 6.96427 7.00214 6.7762 6.27998L6.7212 6.07898L6.7902 6.00848L6.8347 5.96648C7.0972 5.73648 7.7612 5.43148 8.4192 5.23898ZM11.1242 4.64248C11.1629 4.64626 11.2004 4.65819 11.2342 4.67748C11.2623 4.69722 11.2866 4.72177 11.3062 4.74998C11.3222 4.77298 11.5092 5.47498 11.7212 6.30648C12.1447 7.96348 12.1412 7.94098 12.0457 8.04148C12.0157 8.07105 11.9804 8.09479 11.9417 8.11148C11.8602 8.13848 10.6017 8.41148 10.5952 8.40498C10.6021 8.36796 10.6145 8.33221 10.6322 8.29898C10.7222 8.09398 10.7272 7.90398 10.6422 7.76798C10.5842 7.67298 10.4342 7.58298 10.3372 7.58298C10.2807 7.58298 10.2632 7.59998 9.9632 7.98798C9.7902 8.21298 9.6422 8.38898 9.6352 8.38198C9.6277 8.37498 9.4672 7.68698 9.2752 6.85548C9.0277 5.78248 8.9307 5.32698 8.9397 5.29048C8.95803 5.22272 9.00077 5.16413 9.0597 5.12598C9.1357 5.08548 11.0557 4.63548 11.1247 4.64248H11.1242ZM11.4157 6.64548C11.4122 6.63848 11.3487 6.68948 11.2742 6.76048C11.2002 6.82898 11.0487 6.97048 10.9392 7.07448L10.7377 7.26298L10.3057 7.12348C10.1586 7.07287 10.0096 7.02768 9.8592 6.98798C9.8522 6.98948 10.0177 7.14648 10.2297 7.33548C10.4432 7.52448 10.6747 7.73248 10.7467 7.79948C10.8192 7.86448 10.8842 7.91248 10.8917 7.90548C10.9107 7.88598 11.4207 6.65948 11.4157 6.64548ZM10.3587 7.19598C10.4802 7.23648 10.6162 7.27348 10.6602 7.28098L10.7397 7.29098L10.7982 7.55448C10.8297 7.69898 10.8527 7.82098 10.8472 7.82448C10.8437 7.82798 10.8017 7.79248 10.7557 7.74648C10.6346 7.63163 10.5115 7.51878 10.3867 7.40798C10.2884 7.32115 10.1925 7.23162 10.0992 7.13948C10.0887 7.11298 10.1307 7.12198 10.3587 7.19598ZM6.0452 4.99548C6.3417 4.92148 6.4597 4.90348 6.4597 4.93348C6.4597 4.94248 6.4172 4.95998 6.3677 4.97048C6.2232 5.00598 5.8507 5.13648 5.6657 5.21798C5.4642 5.30598 5.2067 5.45598 5.1097 5.54048L5.0392 5.60048L5.1007 5.61498L5.1767 5.63298C5.4287 5.69998 5.8917 5.87448 6.1117 5.98898C6.2727 6.07198 6.4772 6.21148 6.4772 6.23948C6.4772 6.24648 6.4242 6.25898 6.3592 6.26598C6.0892 6.29248 5.6462 6.40198 5.3302 6.51848C4.9437 6.66348 4.4532 6.92598 4.1532 7.15198C3.9572 7.29998 3.9572 7.29998 4.0262 7.20148C4.1092 7.08148 4.3612 6.81998 4.5147 6.69648C4.8467 6.43348 5.2827 6.24298 5.7447 6.15998L5.8157 6.14798L5.6907 6.08948L5.6282 6.06298C5.3547 5.95398 4.7812 5.81298 4.4392 5.77348C4.39489 5.76923 4.35115 5.76034 4.3087 5.74698C4.2627 5.72248 4.8607 5.40148 5.2157 5.26198C5.48652 5.15636 5.76353 5.06736 6.0452 4.99548ZM10.2802 5.32698C10.1482 5.71698 9.8302 6.70198 9.8302 6.72298C9.8302 6.73898 9.8232 6.75648 9.8127 6.76198C9.7562 6.79698 9.8217 6.82698 10.2347 6.96298C10.4762 7.04098 10.6862 7.10598 10.7022 7.10598C10.7372 7.10598 11.3922 6.49348 11.3922 6.46198C11.3922 6.44948 11.1662 6.20448 10.8927 5.91848C10.7116 5.73116 10.5327 5.54165 10.3562 5.34998C10.3192 5.30248 10.2927 5.29348 10.2802 5.32698ZM7.9262 6.80098C7.9087 6.75098 7.9087 6.75098 7.9652 6.76198C7.9952 6.76898 8.0652 6.79548 8.1187 6.82198C8.2472 6.88348 8.2527 6.91198 8.1362 6.91198C8.0267 6.91198 7.9492 6.87148 7.9262 6.80098ZM10.3052 5.42248C10.3137 5.43148 10.3617 5.61998 10.4112 5.84248L10.5027 6.24848L10.4532 6.29598C10.3847 6.36298 9.8602 6.75498 9.8532 6.74598C9.8482 6.74248 9.8602 6.70898 9.8797 6.66998C9.9147 6.60148 10.2627 5.55148 10.2802 5.45798C10.2872 5.42948 10.2982 5.41348 10.3052 5.42248ZM6.4172 5.14748L6.4032 5.27398L6.3977 5.32448C6.3872 5.43048 6.3937 5.45598 6.4242 5.45598C6.4442 5.45598 6.4562 5.49298 6.4702 5.59698C6.5002 5.79848 6.5072 5.99798 6.4862 6.00698C6.4757 6.00848 6.4012 5.97148 6.3187 5.92348C6.12605 5.80916 5.92418 5.71115 5.7152 5.63048C5.6392 5.60248 5.5772 5.57448 5.5772 5.56898C5.5772 5.53198 5.7942 5.36598 5.9252 5.30248C6.0927 5.22148 6.3027 5.14898 6.3732 5.14748H6.4172ZM9.1162 4.29998C9.7337 4.18348 9.8627 4.17298 9.9722 4.22948C10.0092 4.24898 10.0572 4.28798 10.0762 4.31598C10.1202 4.37598 10.2367 4.61798 10.2367 4.64598C10.2367 4.65848 10.1377 4.68098 9.9862 4.70598C8.8762 4.88098 7.9657 5.14348 7.2722 5.49098C7.10376 5.57079 6.94307 5.66603 6.7922 5.77548C6.6737 5.86548 6.6862 5.89048 6.6437 5.48948C6.6137 5.21798 6.6137 5.20198 6.6437 5.12248C6.6722 5.04848 6.6877 5.03398 6.7922 4.98148C7.03789 4.86869 7.28942 4.76905 7.5457 4.68298C8.0167 4.53298 8.4882 4.41798 9.1162 4.29998ZM7.4222 3.10848C7.4322 3.10848 7.4642 3.15848 7.4962 3.21648C7.6462 3.48998 7.9497 4.33548 7.9127 4.37248C7.88818 4.38681 7.86092 4.39584 7.8327 4.39898L7.7712 4.40948L7.7112 4.28048L7.6812 4.21598C7.5012 3.84098 7.1782 3.32998 7.1397 3.36648C7.1347 3.37148 7.1467 3.42298 7.1662 3.48148C7.2562 3.73898 7.3777 4.31598 7.3777 4.47998C7.3777 4.52948 7.3692 4.54498 7.3337 4.56148C7.3121 4.57245 7.28875 4.57956 7.2647 4.58248C7.2547 4.58248 7.1962 4.51898 7.1397 4.44148C7.0832 4.36348 7.0302 4.30548 7.0232 4.31248C7.0182 4.32148 7.0002 4.40948 6.9842 4.50998C6.9577 4.69198 6.9312 4.75498 6.9032 4.70998C6.8962 4.69698 6.8802 4.51898 6.8682 4.31248C6.86217 4.17106 6.85216 4.02983 6.8382 3.88898C6.8327 3.86248 6.8362 3.84148 6.8447 3.84148C6.8537 3.84148 6.9227 3.89948 6.9967 3.97148C7.0707 4.04248 7.1342 4.09698 7.1377 4.08998C7.1522 4.06348 6.9612 3.49348 6.8412 3.20398C6.8312 3.17948 6.8482 3.17048 6.9492 3.15498C7.0707 3.13348 7.3902 3.10298 7.4222 3.10848ZM5.9677 3.48648C6.1092 3.39648 6.2292 3.36648 6.3082 3.39848C6.3322 3.40698 6.3382 3.42348 6.3387 3.54498V3.65748C6.33739 3.78172 6.33323 3.90592 6.3262 4.02998L6.3137 4.15498L5.9857 4.14648L5.8517 4.14448C5.57872 4.14048 5.30654 4.17499 5.0432 4.24698C4.9317 4.27548 4.8297 4.30198 4.8172 4.30348C4.8047 4.30698 4.7922 4.29648 4.7892 4.28248C4.7782 4.21898 5.1842 3.92948 5.6392 3.67548C5.7757 3.59748 5.9237 3.51298 5.9677 3.48648ZM7.7427 3.09998L7.8492 3.27998L7.8842 3.33998C8.0637 3.65598 8.3132 4.18498 8.3132 4.25398C8.3132 4.28398 8.1947 4.31398 8.1737 4.28948C8.15562 4.25921 8.14023 4.22742 8.1277 4.19448C7.99714 3.9016 7.85367 3.61465 7.6977 3.33448C7.65354 3.26063 7.61169 3.18542 7.5722 3.10898C7.5722 3.10398 7.6107 3.09998 7.6567 3.09998H7.7432H7.7427ZM8.0962 3.11748C8.1612 3.11748 8.3612 3.12998 8.5392 3.14398C8.7157 3.15848 8.8792 3.17398 8.9042 3.17948L8.9927 3.19698C9.0477 3.20948 9.0897 3.27698 9.2132 3.54148C9.2942 3.71948 9.4142 4.03548 9.4022 4.04398C9.18909 4.07717 8.97671 4.11484 8.7652 4.15698C8.5352 4.20498 8.4897 4.20498 8.4897 4.15348C8.4897 4.11648 8.2107 3.54348 8.0947 3.34198C7.9532 3.09998 7.9532 3.11748 8.0962 3.11748Z" fill="white"/>
<path d="M8.39235 5.33603C8.43635 5.44353 8.45935 5.55853 8.48235 5.80003C8.50535 6.05803 8.54735 6.41453 8.57235 6.56253C8.58285 6.63853 8.61285 6.65453 8.61285 6.58553C8.61285 6.56053 8.60035 6.46353 8.58635 6.36853C8.56626 6.20881 8.54859 6.04879 8.53335 5.88853C8.52239 5.75971 8.50705 5.6313 8.48735 5.50353C8.46485 5.39603 8.42385 5.30603 8.39935 5.30603C8.38685 5.30603 8.38535 5.31853 8.39235 5.33603ZM8.77185 7.40103C8.77185 7.47853 9.01885 8.04653 9.09985 8.15453C9.15485 8.23003 9.14035 8.16153 9.07685 8.04653C8.98487 7.88073 8.90629 7.70785 8.84185 7.52953C8.80185 7.41653 8.77185 7.36203 8.77185 7.40103Z" fill="white"/>
<path d="M6.68408 2.65501C8.0784 2.31476 9.55069 2.53941 10.7801 3.28001C11.5601 3.74401 12.2751 4.47451 12.7181 5.26151C13.1981 6.11051 13.4331 6.98901 13.4331 7.93151C13.4346 8.57201 13.3516 9.08751 13.1556 9.67501C12.9695 10.2232 12.6998 10.7392 12.3561 11.205C12.0727 11.5677 11.7527 11.9001 11.4011 12.197C10.5311 12.901 9.52358 13.3035 8.37508 13.4005C7.15208 13.5065 5.80008 13.127 4.79408 12.3965C3.61008 11.5385 2.82658 10.2945 2.57908 8.88451C2.31308 7.36701 2.72608 5.76951 3.69808 4.56101C3.84808 4.37401 4.19058 4.01901 4.40058 3.83401C5.03058 3.27801 5.84758 2.85601 6.68408 2.65501ZM8.29558 2.93751C7.75984 2.90412 7.22218 2.95473 6.70208 3.08751C6.07908 3.24951 5.36208 3.59901 4.90708 3.96251L4.72208 4.10901C4.49608 4.28401 4.00358 4.82401 3.81808 5.10101C3.21808 5.99601 2.93058 6.92751 2.93058 7.96851C2.93058 8.80501 3.10008 9.50551 3.49008 10.2685C3.96318 11.1945 4.71503 11.9486 5.63958 12.4245C6.23958 12.7335 6.91008 12.9275 7.55458 12.9785C8.66258 13.067 9.70008 12.8095 10.6796 12.204C11.1316 11.925 11.7101 11.3905 11.9996 10.9865C12.5396 10.229 12.8381 9.51101 12.9646 8.65651C13.0106 8.35151 13.0126 7.51851 12.9666 7.24851C12.8081 6.28701 12.4091 5.39751 11.8426 4.74101C11.7876 4.67751 11.7191 4.59601 11.6906 4.56251C11.5165 4.37084 11.3271 4.19374 11.1241 4.03301C10.6041 3.63451 10.2066 3.41551 9.61008 3.20001C9.20608 3.05551 8.81108 2.97601 8.29558 2.93751Z" fill="white"/>
</g>
<defs>
<clipPath id="clip0_7_7820">
<rect width="16" height="16" fill="white"/>
</clipPath>
</defs>
</svg>
