<svg width="16" height="16" viewBox="0 0 16 16" fill="none" xmlns="http://www.w3.org/2000/svg">
<g clip-path="url(#clip0_7_7840)">
<path d="M8 16C12.4183 16 16 12.4183 16 8C16 3.58167 12.4183 0 8 0C3.58167 0 0 3.58167 0 8C0 12.4183 3.58167 16 8 16Z" fill="#2B6680"/>
<path d="M2.50001 8C2.4972 9.45869 3.07397 10.8587 4.10344 11.8922C5.1329 12.9256 6.53074 13.5078 7.98943 13.5106C9.44812 13.5134 10.8482 12.9366 11.8816 11.9071C12.915 10.8777 13.4972 9.47985 13.5 8.02116V7.979C13.4981 7.55567 13.4476 7.13396 13.3495 6.72216C13.3329 6.64548 13.3011 6.5729 13.256 6.50866C13.211 6.44441 13.1535 6.3898 13.0871 6.34802C13.0207 6.30624 12.9466 6.27812 12.8692 6.26532C12.7918 6.25252 12.7126 6.25529 12.6363 6.27347C12.5599 6.29165 12.488 6.32488 12.4247 6.3712C12.3613 6.41752 12.3079 6.47601 12.2674 6.54325C12.227 6.61048 12.2003 6.68511 12.1891 6.76276C12.1778 6.84042 12.1822 6.91954 12.2018 6.99549C12.4211 7.91109 12.3353 8.87323 11.9577 9.73565C11.5801 10.5981 10.9312 11.3136 10.1097 11.7735C9.28817 12.2334 8.33897 12.4125 7.40636 12.2835C6.47376 12.1546 5.60875 11.7247 4.94284 11.0592C4.27693 10.3936 3.84652 9.52887 3.71705 8.59634C3.58758 7.66381 3.76612 6.71451 4.22554 5.89273C4.68496 5.07096 5.40013 4.42166 6.26233 4.04353C7.12453 3.66541 8.08662 3.57913 9.00234 3.79783C9.15327 3.83062 9.31104 3.80292 9.44177 3.72068C9.5725 3.63844 9.66577 3.50822 9.70155 3.35797C9.73733 3.20773 9.71277 3.04944 9.63315 2.9171C9.55352 2.78476 9.42518 2.68892 9.27568 2.65016C8.46758 2.45735 7.6263 2.45013 6.81501 2.62904C6.00372 2.80796 5.24351 3.16837 4.59147 3.68319C3.93943 4.19802 3.41251 4.85389 3.05027 5.60155C2.68804 6.3492 2.49991 7.16921 2.50001 8Z" fill="white"/>
<path d="M10.7801 3.97702C10.7721 3.98452 10.767 3.99336 10.7595 4.00136C10.6254 4.14351 10.5431 4.32669 10.5258 4.52136V4.61486C10.5258 4.63652 10.5211 4.65736 10.5188 4.67886C10.4958 4.91168 10.421 5.13642 10.2999 5.33664C10.1789 5.53687 10.0147 5.70753 9.81926 5.83616C9.62383 5.96479 9.40213 6.04814 9.17036 6.08013C8.9386 6.11211 8.70261 6.09192 8.47965 6.02102C8.15401 5.94165 7.81375 5.94441 7.48944 6.02907C7.16514 6.11372 6.86694 6.27762 6.62165 6.50602C6.60165 6.52469 6.57965 6.54052 6.55998 6.56019C6.17831 6.94184 5.96388 7.45947 5.96387 7.99922C5.96385 8.53896 6.17825 9.05661 6.5599 9.43827C6.94154 9.81994 7.45918 10.0344 7.99892 10.0344C8.53867 10.0344 9.05631 9.82 9.43798 9.43836C9.52215 9.35302 9.59848 9.26002 9.66598 9.16086C9.83029 8.92562 9.94297 8.65829 9.99663 8.37642C10.0503 8.09454 10.0437 7.80451 9.97731 7.52536C9.96596 7.48879 9.95595 7.45182 9.94731 7.41452C9.94731 7.40902 9.94398 7.40386 9.94265 7.39819C9.89199 7.17869 9.88912 6.95086 9.93423 6.73016C9.97935 6.50945 10.0714 6.30102 10.2041 6.11901C10.3368 5.93699 10.5072 5.78564 10.7035 5.67522C10.8999 5.5648 11.1177 5.49789 11.3421 5.47902C11.3538 5.47902 11.3651 5.47569 11.3768 5.47536C11.41 5.47536 11.4431 5.47152 11.4763 5.47152H11.4843C11.6875 5.45282 11.8777 5.36333 12.0216 5.21869C12.0558 5.18336 12.087 5.14519 12.115 5.10469C12.2414 4.92547 12.2961 4.70536 12.2682 4.48781C12.2403 4.27025 12.1318 4.07106 11.9643 3.92955C11.7967 3.78803 11.5822 3.71447 11.363 3.72338C11.1439 3.73229 10.936 3.82303 10.7805 3.97769" fill="white"/>
</g>
<defs>
<clipPath id="clip0_7_7840">
<rect width="16" height="16" fill="white"/>
</clipPath>
</defs>
</svg>
