<svg width="16" height="16" viewBox="0 0 16 16" fill="none" xmlns="http://www.w3.org/2000/svg">
<g clip-path="url(#clip0_7_7782)">
<path d="M8 16C12.4183 16 16 12.4183 16 8C16 3.58172 12.4183 0 8 0C3.58172 0 0 3.58172 0 8C0 12.4183 3.58172 16 8 16Z" fill="#31CB9E"/>
<path d="M7.46358 8.08102L11.3236 10.2925C11.3547 10.3112 11.3901 10.3212 11.4264 10.3216C11.4626 10.322 11.4983 10.3127 11.5298 10.2948C11.5612 10.2768 11.5874 10.2508 11.6054 10.2193C11.6235 10.1879 11.6329 10.1523 11.6326 10.116V6.04302C11.6331 6.00672 11.6238 5.97096 11.6057 5.93947C11.5877 5.90798 11.5615 5.88193 11.5299 5.86404C11.4983 5.84615 11.4625 5.83708 11.4262 5.83778C11.3899 5.83848 11.3545 5.84893 11.3236 5.86802L7.46358 8.08102ZM11.2421 4.88952L8.60308 2.94852C8.57577 2.92753 8.54371 2.91358 8.50974 2.9079C8.47576 2.90222 8.44091 2.90499 8.40825 2.91596C8.3756 2.92692 8.34614 2.94576 8.32248 2.97079C8.29882 2.99583 8.28169 3.0263 8.27258 3.05952L7.30908 7.38302L11.2191 5.22152C11.2487 5.20612 11.2739 5.18335 11.2922 5.15542C11.3105 5.12748 11.3214 5.0953 11.3237 5.06197C11.326 5.02865 11.3197 4.99528 11.3054 4.96509C11.2911 4.93489 11.2693 4.90887 11.2421 4.88952ZM8.60008 13.212L11.2421 11.271C11.2698 11.2515 11.292 11.2253 11.3066 11.1947C11.3212 11.1642 11.3277 11.1304 11.3255 11.0966C11.3233 11.0628 11.3125 11.0302 11.294 11.0018C11.2755 10.9734 11.2501 10.9502 11.2201 10.9345L7.30908 8.77302L8.27258 13.0965C8.28056 13.1301 8.29677 13.1613 8.31975 13.1871C8.34273 13.2129 8.37177 13.2325 8.40424 13.2443C8.43672 13.2561 8.47161 13.2597 8.5058 13.2547C8.53998 13.2496 8.57238 13.2362 8.60008 13.2155" fill="white"/>
<path d="M6.46006 8.00104L7.46356 3.30654C7.47129 3.26762 7.4672 3.22727 7.45182 3.19068C7.43644 3.15409 7.41048 3.12294 7.37726 3.10122C7.34404 3.0795 7.30508 3.06822 7.2654 3.06881C7.22572 3.0694 7.18712 3.08185 7.15456 3.10454L4.58356 5.07604C4.51839 5.12601 4.46565 5.19037 4.42948 5.2641C4.39331 5.33783 4.37469 5.41892 4.37506 5.50104V10.504C4.37256 10.6725 4.45006 10.832 4.58356 10.9345L7.14206 12.9005C7.17465 12.9233 7.21331 12.9358 7.25306 12.9364C7.2928 12.9369 7.33181 12.9256 7.36506 12.9038C7.39831 12.882 7.42427 12.8508 7.4396 12.8141C7.45492 12.7774 7.45892 12.737 7.45106 12.698L6.45956 8.00104H6.46006Z" fill="white"/>
</g>
<defs>
<clipPath id="clip0_7_7782">
<rect width="16" height="16" fill="white"/>
</clipPath>
</defs>
</svg>
