<svg width="16" height="16" viewBox="0 0 16 16" fill="none" xmlns="http://www.w3.org/2000/svg">
<g clip-path="url(#clip0_7_7839)">
<path d="M8 16C12.4183 16 16 12.4183 16 8C16 3.58172 12.4183 0 8 0C3.58172 0 0 3.58172 0 8C0 12.4183 3.58172 16 8 16Z" fill="#00AEEF"/>
<path d="M7.88 7.353C7.999 7.3325 8.104 7.288 8.196 7.2205C8.288 7.153 8.375 7.039 8.4565 6.883L10.269 3.3895C10.34 3.2725 10.427 3.1795 10.527 3.1065C10.6297 3.03543 10.7521 2.9982 10.877 3H12.0265L9.7695 7.109C9.6695 7.278 9.556 7.4155 9.4295 7.522C9.30311 7.6271 9.15903 7.70887 9.004 7.7635C9.246 7.826 9.4485 7.9275 9.614 8.07C9.777 8.21 9.9325 8.408 10.077 8.6625L12.25 13H10.985C10.7295 13 10.524 12.8625 10.369 12.59L8.588 8.9145C8.496 8.7505 8.396 8.634 8.288 8.5635C8.1805 8.4935 8.0435 8.452 7.8805 8.4415V10.3065H6.886V8.4335H6.155V13H4.75V3H6.155V7.369H6.886V5.208H7.8805L7.88 7.353Z" fill="white"/>
</g>
<defs>
<clipPath id="clip0_7_7839">
<rect width="16" height="16" fill="white"/>
</clipPath>
</defs>
</svg>
