<svg width="16" height="16" viewBox="0 0 16 16" fill="none" xmlns="http://www.w3.org/2000/svg">
<g clip-path="url(#clip0_7_7838)">
<path d="M8 16C12.4183 16 16 12.4183 16 8C16 3.58172 12.4183 0 8 0C3.58172 0 0 3.58172 0 8C0 12.4183 3.58172 16 8 16Z" fill="black"/>
<path d="M12.9235 4.72401C12.7435 4.58801 12.528 4.40251 12.1355 4.35601C11.7675 4.30951 11.3925 4.54501 11.139 4.70101C10.8855 4.85651 10.4065 5.31451 10.2085 5.45351C10.0105 5.59301 9.5035 5.72251 8.6875 6.19001C7.8715 6.65751 4.67 8.62001 4.67 8.62001L5.5035 8.63001L1.7885 10.4575H2.1595L1.625 10.8455C1.625 10.8455 2.097 10.965 2.493 10.726V10.8355C2.493 10.8355 6.9165 9.17051 7.771 9.60201L7.25 9.74751C7.295 9.74751 8.135 9.80101 8.135 9.80101C8.135 9.80101 8.163 10.3015 8.67 10.623C9.177 10.9415 9.1875 11.1175 9.1875 11.1175C9.1875 11.1175 8.9235 11.22 8.9235 11.3495C8.9235 11.3495 9.3125 11.2365 9.6735 11.2465C10.0345 11.2565 10.3505 11.3495 10.3505 11.3495C10.3505 11.3495 10.323 11.21 9.972 11.1175C9.618 11.021 9.2745 10.6595 9.104 10.4605C9.0005 10.336 8.93265 10.1858 8.90765 10.0259C8.88265 9.86589 8.90143 9.70215 8.962 9.55201C9.0835 9.25051 9.507 9.08451 10.382 8.65351C11.413 8.14251 11.6495 7.76451 11.795 7.46951C11.941 7.17451 12.156 6.58751 12.278 6.31201C12.4305 5.95701 12.618 5.76801 12.7745 5.65551C12.927 5.54251 13.625 5.29401 13.625 5.29401C13.625 5.29401 13.0935 4.85301 12.9235 4.72401Z" fill="white"/>
</g>
<defs>
<clipPath id="clip0_7_7838">
<rect width="16" height="16" fill="white"/>
</clipPath>
</defs>
</svg>
