<svg width="16" height="16" viewBox="0 0 16 16" fill="none" xmlns="http://www.w3.org/2000/svg">
<g clip-path="url(#clip0_7_7835)">
<path d="M8 16C12.4183 16 16 12.4183 16 8C16 3.58172 12.4183 0 8 0C3.58172 0 0 3.58172 0 8C0 12.4183 3.58172 16 8 16Z" fill="#006149"/>
<path d="M12.0883 8.592L11.6898 8.4925L11.8108 8.0075L13.0533 8.318L12.7433 9.5605L12.2578 9.4395L12.3653 9.0085L7.92927 11.755L3.00977 9.297V7.421L8.12177 4.224L12.8093 6.5105V7.2825L7.92977 10.314L4.30627 8.5175L4.52827 8.0695L7.90277 9.7425L12.3093 7.0045V6.823L8.15177 4.795L3.51027 7.698V8.988L7.90377 11.183L12.0883 8.592Z" fill="white"/>
</g>
<defs>
<clipPath id="clip0_7_7835">
<rect width="16" height="16" fill="white"/>
</clipPath>
</defs>
</svg>
