<svg width="16" height="16" viewBox="0 0 16 16" fill="none" xmlns="http://www.w3.org/2000/svg">
<g clip-path="url(#clip0_7_7833)">
<path d="M8 16C12.4183 16 16 12.4183 16 8C16 3.58172 12.4183 0 8 0C3.58172 0 0 3.58172 0 8C0 12.4183 3.58172 16 8 16Z" fill="#0FA9C9"/>
<path d="M8.5735 10.223L5.8485 13L5.0715 12.1475L6.96 10.2225L5 8.226L5.8365 7.373L8.5735 10.223ZM10.1635 8.6275L11 7.7745L9.04 5.777L10.9285 3.8525L10.1515 3L7.4145 5.777L10.1635 8.6275ZM6.1835 7.044L8.9325 9.894L9.769 9.0415L7.02 6.24L6.1835 7.044Z" fill="white"/>
</g>
<defs>
<clipPath id="clip0_7_7833">
<rect width="16" height="16" fill="white"/>
</clipPath>
</defs>
</svg>
