<svg width="16" height="16" viewBox="0 0 16 16" fill="none" xmlns="http://www.w3.org/2000/svg">
<g clip-path="url(#clip0_7_7832)">
<path d="M8 16C12.4183 16 16 12.4183 16 8C16 3.58172 12.4183 0 8 0C3.58172 0 0 3.58172 0 8C0 12.4183 3.58172 16 8 16Z" fill="#11021E"/>
<path d="M5.4645 7.18299H5.4695L5.546 7.21199L5.6275 7.24049L5.704 7.26949L5.7855 7.30299L5.862 7.33199L5.9435 7.35549L6.0205 7.38449L6.097 7.41799L6.2505 7.47549L6.332 7.49949L6.4085 7.53299L6.49 7.56199L6.567 7.59049L6.6485 7.61949L6.725 7.64799L6.8065 7.67699L6.883 7.70549L6.9645 7.73449L7.0415 7.76799L7.123 7.79199V6.67499H5.354L5.2775 6.71349L5.0955 6.80949L4.9085 6.90499L4.7265 7.00099L4.544 7.09699L4.357 7.19299L4.1705 7.28849L3.988 7.38449L3.806 7.48049L3.619 7.57599L3.437 7.67199L3.269 7.76299L3.25 10.51L3.437 10.6395L3.619 10.769L3.806 10.8935L4.1705 11.1525L4.357 11.2815L4.4385 11.344L4.544 11.2145L4.7265 10.9745L4.7405 10.951L4.7265 10.9365L4.544 10.807L4.357 10.673L4.1705 10.5435L3.988 10.414L3.806 10.285L3.7535 10.251L3.7675 8.03199L3.806 8.01299L3.988 7.92199L4.1705 7.82599L4.357 7.73949L4.544 7.64399L4.7265 7.55249L4.9085 7.46149L5.0955 7.37049L5.2775 7.27949L5.4645 7.18299Z" fill="white"/>
<path d="M8.63777 12.4265L8.47927 12.489L8.30677 12.556L8.13427 12.628L7.96177 12.695L7.88527 12.7285L7.79427 12.681L7.62127 12.5945L7.45377 12.508L7.28127 12.422L7.10877 12.3355L6.93627 12.2495L6.76377 12.163L6.59077 12.072L6.41827 11.9905L6.25077 11.8995L6.07827 11.813L5.91027 11.732L5.73777 11.6405L5.71877 11.631V9.39298H5.22027V11.938L5.91027 12.283L6.07827 12.369L6.25077 12.4605L6.41827 12.542L6.59077 12.633L6.76377 12.719L6.93627 12.8005L7.10877 12.8915L7.45377 13.064L7.62127 13.1505L7.86127 13.2705L7.96177 13.227L8.13427 13.16L8.30677 13.093L8.47927 13.021L8.65177 12.949L8.82477 12.887L8.65177 12.4555L8.63777 12.4265ZM11.7003 9.30648L11.7103 10.3655L11.6623 10.3995L11.3698 10.6055L11.0823 10.8165L10.7898 11.0225L10.4973 11.2335L10.2003 11.4345L9.91277 11.6455L9.62027 11.8565L9.44777 11.981L9.32777 11.885L9.04027 11.665L8.74777 11.4395L8.45527 11.219L8.16777 10.994L8.11527 10.96V9.81998L8.16777 9.77198L8.45527 9.46498L8.74777 9.16298L9.04027 8.85648L9.32777 8.55448L9.61077 8.25748H6.12627L6.41827 8.56398L6.70627 8.86598L7.00327 9.16798L7.29577 9.47448L7.58327 9.77648L7.62127 9.81998V11.2L7.87577 11.3965L8.16777 11.617L8.45527 11.8425L8.74777 12.0625L9.04027 12.288L9.32777 12.5085L9.43777 12.595L9.62027 12.461L9.91277 12.2545L10.2003 12.044L10.4973 11.8375L10.7898 11.6315L11.0823 11.4255L11.3698 11.2145L11.6623 11.0085L11.9543 10.8025L12.1943 10.625L12.2418 9.32598L11.9543 9.31648L11.7003 9.30648ZM3.72477 6.85698H3.75827L3.76327 5.44798L3.95477 5.32798L4.18477 5.18948L4.41977 5.05048L4.64477 4.90148L4.87977 4.76248L5.10977 4.61898L5.33977 4.47998L5.56977 4.34098L5.79977 4.19698L6.03477 4.05798L6.03977 4.05298L6.26027 4.18298L6.49527 4.31198L6.95527 4.58048L7.18527 4.70998L7.42027 4.83948L7.64527 4.97348L7.87077 5.09848L7.88077 5.07898L8.11077 4.66698L7.88077 4.53248L7.64577 4.40298L7.42027 4.27398L7.18527 4.14398L6.95527 4.00548L6.72527 3.87598L6.49527 3.74648L6.26027 3.61698L6.03527 3.48748L6.02527 3.48248L5.80027 3.61748L5.57027 3.76098L5.34027 3.89998L5.11027 4.04348L4.88027 4.18248L4.64527 4.32148L4.41977 4.46548L4.18477 4.60448L3.95477 4.74848L3.72477 4.89198L3.49477 5.03098L3.26977 5.16998L3.25977 6.85248H3.49477L3.72477 6.85698Z" fill="white"/>
<path d="M12.7351 5.563L12.6201 5.472L12.4961 5.3715L12.3761 5.2755L12.2561 5.1795L12.1361 5.0795L12.0161 4.988L11.8921 4.892L11.7721 4.7915L11.6471 4.6955L11.5611 4.6235L11.5276 4.662L11.4076 4.8105L11.2831 4.964L11.2546 5.007L11.2831 5.0405L11.4081 5.1415L11.5281 5.237L11.6476 5.3425L11.7721 5.4435L11.8921 5.5435L12.0166 5.6495L12.1366 5.75L12.1941 5.798L12.1991 8.065L12.1366 8.1035L12.0166 8.185L11.8916 8.257L11.7721 8.3385L11.6471 8.41L11.5276 8.4915L11.4076 8.5635L11.2831 8.645L11.1631 8.717L11.0431 8.7985L10.9236 8.8705L10.8036 8.952L10.6791 9.0235L10.5591 9.105L10.4396 9.177L10.3196 9.2585L10.1951 9.3305L10.3201 9.522L10.4401 9.7185L10.4636 9.752L10.5596 9.69L10.6796 9.613L10.8041 9.5415L10.9241 9.4645L11.0436 9.388L11.1636 9.3115L11.2836 9.2395L11.4076 9.1625L11.5276 9.091L11.6476 9.014L11.7721 8.9375L11.8921 8.8605L12.0166 8.789L12.1366 8.712L12.2566 8.6405L12.3761 8.5635L12.4961 8.487L12.6206 8.41L12.7406 8.3385L12.7351 5.563ZM8.78606 6.915V7.8975L8.82455 7.8825L8.98255 7.816L9.14556 7.7535L9.30356 7.6865L9.46656 7.624L9.62956 7.557L9.78756 7.49L9.95055 7.4275L10.1136 7.3605L10.2721 7.298L10.4346 7.231L10.5931 7.169V4.197L10.4111 4.087L10.2241 3.9815L10.0416 3.8715L9.85505 3.761L9.66806 3.6555L9.48105 3.5455L9.29905 3.435L9.11655 3.33L8.92955 3.2195L8.74305 3.1095L8.55605 3.0035L8.37355 2.8935L8.19155 2.7835L8.00456 2.6775L7.90905 2.625L7.81805 2.668L7.63105 2.7735L7.44855 2.8695L7.26655 2.97L7.07956 3.0755L6.89255 3.1715L6.70605 3.272L6.89255 3.382L7.07956 3.4875L7.19455 3.555L7.26655 3.5215L7.44855 3.4205L7.63105 3.325L7.81805 3.229L7.89455 3.1905L8.00456 3.253L8.19155 3.363L8.55605 3.574L8.92955 3.7945L9.11655 3.8995L9.48105 4.1205L9.66806 4.2255L10.0416 4.4465L10.0991 4.475V6.6655H8.79055" fill="white"/>
<path d="M8.78575 7.89753L10.5928 7.16903L8.78075 6.66553M7.12275 7.89753V6.68453L5.46875 7.17853L7.12275 7.89253" fill="white"/>
</g>
<defs>
<clipPath id="clip0_7_7832">
<rect width="16" height="16" fill="white"/>
</clipPath>
</defs>
</svg>
