<svg width="16" height="16" viewBox="0 0 16 16" fill="none" xmlns="http://www.w3.org/2000/svg">
<g clip-path="url(#clip0_7_7933)">
<path d="M8 16C12.4183 16 16 12.4183 16 8C16 3.58172 12.4183 0 8 0C3.58172 0 0 3.58172 0 8C0 12.4183 3.58172 16 8 16Z" fill="#48BEFF"/>
<path d="M11.0977 13.1195L2.90572 7.372C2.62658 7.17612 2.39871 6.91589 2.2414 6.61333C2.08408 6.31077 2.00195 5.97477 2.00195 5.63375C2.00195 5.29273 2.08408 4.95673 2.2414 4.65417C2.39871 4.35161 2.62658 4.09138 2.90572 3.8955L4.89072 2.5L13.0837 8.247C13.3629 8.44288 13.5907 8.70311 13.7481 9.00567C13.9054 9.30823 13.9875 9.64423 13.9875 9.98525C13.9875 10.3263 13.9054 10.6623 13.7481 10.9648C13.5907 11.2674 13.3629 11.5276 13.0837 11.7235L11.0977 13.1195ZM4.88872 3.4315L3.34222 4.5135C3.16233 4.63929 3.01544 4.80662 2.91401 5.00129C2.81259 5.19597 2.75963 5.41224 2.75963 5.63175C2.75963 5.85126 2.81259 6.06753 2.91401 6.26221C3.01544 6.45688 3.16233 6.62421 3.34222 6.75L11.0992 12.1885L12.6462 11.1065C12.8261 10.9807 12.973 10.8134 13.0744 10.6187C13.1759 10.424 13.2288 10.2078 13.2288 9.98825C13.2288 9.76874 13.1759 9.55247 13.0744 9.35779C12.973 9.16312 12.8261 8.99579 12.6462 8.87L4.88872 3.4315Z" fill="white"/>
<path d="M4.88175 12.1885L3.33675 11.105C3.15685 10.9792 3.00996 10.8119 2.90854 10.6172C2.80711 10.4225 2.75415 10.2063 2.75415 9.98676C2.75415 9.76725 2.80711 9.55098 2.90854 9.3563C3.00996 9.16163 3.15685 8.9943 3.33675 8.86851L7.33675 6.07701L6.67675 5.61301L2.90475 8.24701C2.6256 8.44289 2.39773 8.70311 2.24042 9.00568C2.08311 9.30824 2.00098 9.64424 2.00098 9.98526C2.00098 10.3263 2.08311 10.6623 2.24042 10.9648C2.39773 11.2674 2.6256 11.5276 2.90475 11.7235L4.88325 13.113L7.33175 11.3985L6.67475 10.9355L4.88175 12.1885ZM13.0852 3.89851L11.1052 2.51001L8.65525 4.22451L9.31225 4.68701L11.1022 3.43451L12.6472 4.51801C12.8271 4.6438 12.974 4.81113 13.0755 5.0058C13.1769 5.20048 13.2298 5.41675 13.2298 5.63626C13.2298 5.85577 13.1769 6.07204 13.0755 6.26672C12.974 6.46139 12.8271 6.62872 12.6472 6.75451L8.64725 9.54551L9.30475 10.0085L13.0817 7.37001C13.3609 7.17413 13.5888 6.9139 13.7461 6.61134C13.9034 6.30878 13.9855 5.97278 13.9855 5.63176C13.9855 5.29074 13.9034 4.95474 13.7461 4.65218C13.5888 4.34962 13.3609 4.08939 13.0817 3.89351L13.0852 3.89851Z" fill="white"/>
<path d="M3.37305 7.91452L6.48805 5.73352L6.92205 6.35352L3.80655 8.53452L3.37305 7.91452ZM12.248 7.03552L10.7305 8.09802L11.1645 8.71852L12.7355 7.61652C12.5685 7.42552 12.407 7.23052 12.245 7.03502L12.248 7.03552Z" fill="white"/>
</g>
<defs>
<clipPath id="clip0_7_7933">
<rect width="16" height="16" fill="white"/>
</clipPath>
</defs>
</svg>
