<svg width="16" height="16" viewBox="0 0 16 16" fill="none" xmlns="http://www.w3.org/2000/svg">
<g clip-path="url(#clip0_7_7752)">
<path d="M8 16C12.4183 16 16 12.4183 16 8C16 3.58172 12.4183 0 8 0C3.58172 0 0 3.58172 0 8C0 12.4183 3.58172 16 8 16Z" fill="#0D4EA0"/>
<path d="M7.12457 12.479C7.11757 12.486 7.10357 12.493 7.09657 12.5H6.32057C6.30657 12.5 6.29957 12.493 6.29257 12.486L4.00507 9.902C4.00174 9.89559 4 9.88847 4 9.88125C4 9.87403 4.00174 9.86691 4.00507 9.8605L6.85407 4.943C6.86807 4.9225 6.90257 4.9225 6.91657 4.943L7.71357 6.322C7.72057 6.329 7.72057 6.343 7.71357 6.357L5.78657 9.6795C5.77957 9.693 5.78657 9.707 5.79357 9.721L6.94407 11.0165C6.95176 11.0239 6.96153 11.0288 6.97207 11.0305H8.33057C8.36557 11.0305 8.37907 11.0655 8.35807 11.086L7.12457 12.479ZM7.96957 3.021C7.98407 2.993 8.01857 2.993 8.02557 3.021L11.9971 9.846C12.0041 9.8605 11.9971 9.8745 11.9901 9.888L9.70307 12.472C9.69538 12.4794 9.68561 12.4843 9.67507 12.486H7.81757C7.78257 12.486 7.76907 12.451 7.79007 12.4305L9.03057 11.0235L10.1951 9.714C10.2091 9.7 10.2091 9.686 10.2021 9.6725L7.99757 5.8695L7.16607 4.4345C7.15907 4.428 7.15907 4.414 7.16607 4.3995L7.96957 3.021Z" fill="white"/>
</g>
<defs>
<clipPath id="clip0_7_7752">
<rect width="16" height="16" fill="white"/>
</clipPath>
</defs>
</svg>
