<svg width="16" height="16" viewBox="0 0 16 16" fill="none" xmlns="http://www.w3.org/2000/svg">
<g clip-path="url(#clip0_7_7823)">
<path d="M8 16C12.4183 16 16 12.4183 16 8C16 3.58172 12.4183 0 8 0C3.58172 0 0 3.58172 0 8C0 12.4183 3.58172 16 8 16Z" fill="#F55749"/>
<path d="M7.9065 3.024C7.93492 3.0081 7.96694 2.99976 7.9995 2.99976C8.03206 2.99976 8.06408 3.0081 8.0925 3.024L12.205 5.333C12.2331 5.34851 12.2565 5.37124 12.2729 5.39884C12.2892 5.42644 12.2979 5.45792 12.298 5.49C12.298 5.555 12.263 5.615 12.2055 5.647L8.628 7.664C8.50183 7.52058 8.32996 7.42519 8.1415 7.394V6.2975C8.529 6.233 8.8245 5.905 8.8245 5.5085C8.8245 5.066 8.4565 4.707 8.002 4.707C7.5475 4.707 7.1795 5.066 7.1795 5.5085C7.1795 5.9025 7.472 6.2295 7.8565 6.2965V7.3955C7.67062 7.42748 7.50126 7.52204 7.3765 7.6635L3.7995 5.655C3.77131 5.63962 3.74778 5.61695 3.73137 5.58935C3.71496 5.56176 3.70628 5.53025 3.70623 5.49815C3.70618 5.46604 3.71476 5.43451 3.73108 5.40686C3.74741 5.37921 3.77086 5.35647 3.799 5.341L7.907 3.0255M12.217 5.934C12.2453 5.91793 12.2774 5.90945 12.3099 5.90936C12.3425 5.90927 12.3746 5.91759 12.403 5.9335C12.4311 5.94902 12.4546 5.97174 12.471 5.99933C12.4874 6.02692 12.4962 6.05839 12.4965 6.0905L12.5 10.5735C12.5 10.6385 12.465 10.698 12.407 10.7305L8.4245 12.9755C8.301 13.0455 8.146 12.958 8.146 12.8185L8.1425 8.972C8.3355 8.94 8.5105 8.8415 8.636 8.6945L9.631 9.252C9.60357 9.35432 9.59728 9.46116 9.6125 9.566C9.6755 10.0045 10.092 10.3095 10.5415 10.248C10.9915 10.186 11.3045 9.7805 11.2415 9.342C11.1785 8.9035 10.7615 8.5985 10.312 8.6605C10.2003 8.67544 10.0928 8.7132 9.99632 8.77144C9.89981 8.82967 9.81631 8.90713 9.751 8.999L8.776 8.4525C8.846 8.267 8.841 8.0625 8.7635 7.88L12.2175 5.933M3.504 6.09C3.504 5.984 3.593 5.9085 3.69 5.9085C3.7225 5.9085 3.755 5.917 3.783 5.9335L7.2405 7.8825C7.164 8.0645 7.16 8.2675 7.229 8.4525L6.2545 8.999C6.18917 8.90715 6.10567 8.82971 6.00916 8.77148C5.91266 8.71325 5.80521 8.67547 5.6935 8.6605C5.2435 8.5985 4.828 8.904 4.7645 9.342C4.701 9.78 5.0145 10.1855 5.4645 10.2475C5.9145 10.3095 6.3295 10.004 6.3935 9.566C6.40879 9.461 6.40249 9.35398 6.375 9.2515L7.3695 8.694C7.494 8.84 7.667 8.938 7.858 8.971L7.855 12.8185C7.855 12.958 7.7 13.045 7.576 12.975L3.593 10.73C3.56491 10.7145 3.54148 10.6918 3.52513 10.6642C3.50878 10.6366 3.5001 10.6051 3.5 10.573L3.504 6.09Z" fill="white"/>
</g>
<defs>
<clipPath id="clip0_7_7823">
<rect width="16" height="16" fill="white"/>
</clipPath>
</defs>
</svg>
