<svg width="16" height="16" viewBox="0 0 16 16" fill="none" xmlns="http://www.w3.org/2000/svg">
<g clip-path="url(#clip0_7_7912)">
<path d="M8 16C12.4183 16 16 12.4183 16 8C16 3.58172 12.4183 0 8 0C3.58172 0 0 3.58172 0 8C0 12.4183 3.58172 16 8 16Z" fill="#5592D7"/>
<path d="M10.1233 6.33351V12.82L4.64526 9.66651C3.02526 8.71801 3.12826 8.12801 3.12826 6.84651L8.75976 10.1025V7.12801L10.1228 6.33301L10.1233 6.33351Z" fill="white"/>
<path opacity="0.6" d="M8.76041 10.1025L3.12891 6.84603L8.60591 3.69253C10.2259 2.76903 10.6889 3.15403 11.8204 3.79503L6.18891 7.05153L8.76041 8.53853V10.1025Z" fill="white"/>
<path opacity="0.2" d="M6.18898 7.05154L11.8205 3.79504V10.1025C11.8205 11.9745 11.255 12.1795 10.1235 12.8205V6.33354L7.52548 7.82004L6.18848 7.05104L6.18898 7.05154Z" fill="white"/>
</g>
<defs>
<clipPath id="clip0_7_7912">
<rect width="16" height="16" fill="white"/>
</clipPath>
</defs>
</svg>
