<svg width="16" height="16" viewBox="0 0 16 16" fill="none" xmlns="http://www.w3.org/2000/svg">
<g clip-path="url(#clip0_7_7822)">
<path d="M8 16C12.4183 16 16 12.4183 16 8C16 3.58172 12.4183 0 8 0C3.58172 0 0 3.58172 0 8C0 12.4183 3.58172 16 8 16Z" fill="#FF2D55"/>
<path d="M6.39651 5.767L2.87401 9.994C2.62577 9.35856 2.49891 8.6822 2.50001 8C2.50001 4.9615 4.96151 2.5 8.00001 2.5C11.039 2.5 13.5 4.9615 13.5 8C13.5 9.68 12.7465 11.1845 11.5585 12.1935H4.44151C4.12996 11.9265 3.84786 11.627 3.60001 11.3H9.88101V8.9185L11.8635 11.3H12.4L9.87851 8.275L9.18251 9.111L6.39651 5.767ZM9.87901 4.7C9.52075 4.70966 9.18042 4.85877 8.93044 5.11558C8.68047 5.37238 8.54059 5.71662 8.54059 6.075C8.54059 6.43338 8.68047 6.77762 8.93044 7.03442C9.18042 7.29123 9.52075 7.44034 9.87901 7.45C10.2373 7.44034 10.5776 7.29123 10.8276 7.03442C11.0775 6.77762 11.2174 6.43338 11.2174 6.075C11.2174 5.71662 11.0775 5.37238 10.8276 5.11558C10.5776 4.85877 10.2373 4.70966 9.87901 4.7ZM6.39751 3.7045C6.30563 3.70202 6.21419 3.71798 6.12858 3.75143C6.04297 3.78488 5.96493 3.83514 5.89907 3.89925C5.83321 3.96336 5.78087 4.04001 5.74512 4.12469C5.70938 4.20936 5.69096 4.30034 5.69096 4.39225C5.69096 4.48416 5.70938 4.57514 5.74512 4.65981C5.78087 4.74449 5.83321 4.82114 5.89907 4.88525C5.96493 4.94936 6.04297 4.99962 6.12858 5.03307C6.21419 5.06652 6.30563 5.08248 6.39751 5.08C6.5767 5.07517 6.74693 5.00059 6.87196 4.87214C6.997 4.74369 7.06696 4.57151 7.06696 4.39225C7.06696 4.21299 6.997 4.04081 6.87196 3.91236C6.74693 3.78391 6.5767 3.70933 6.39751 3.7045ZM4.99451 12.606H11.006C10.1124 13.1902 9.06766 13.5009 8.00001 13.5C6.93252 13.5008 5.888 13.1901 4.99451 12.606ZM8.91601 9.433L7.70301 10.8875H3.31951C3.14436 10.6037 2.99525 10.3047 2.87401 9.994H6.39701V6.41L8.91601 9.433Z" fill="#16141A"/>
</g>
<defs>
<clipPath id="clip0_7_7822">
<rect width="16" height="16" fill="white"/>
</clipPath>
</defs>
</svg>
