<svg width="16" height="16" viewBox="0 0 16 16" fill="none" xmlns="http://www.w3.org/2000/svg">
<g clip-path="url(#clip0_7_7821)">
<path d="M8 16C12.4183 16 16 12.4183 16 8C16 3.58172 12.4183 0 8 0C3.58172 0 0 3.58172 0 8C0 12.4183 3.58172 16 8 16Z" fill="#6F41D8"/>
<path d="M10.546 6.3465C10.3615 6.239 10.122 6.239 9.91903 6.3465L8.47953 7.1735L7.50203 7.7125L6.06253 8.539C5.87803 8.647 5.63853 8.647 5.43553 8.539L4.29153 7.892C4.10703 7.7845 3.97803 7.587 3.97803 7.371V6.095C3.97803 5.8795 4.08853 5.682 4.29153 5.574L5.41653 4.945C5.60153 4.837 5.84153 4.837 6.04453 4.945L7.16953 5.574C7.35453 5.682 7.48353 5.8795 7.48353 6.095V6.922L8.46103 6.3645V5.538C8.46211 5.43065 8.43338 5.32511 8.37803 5.23312C8.32268 5.14114 8.24288 5.06632 8.14753 5.017L6.06253 3.831C5.87803 3.723 5.63853 3.723 5.43553 3.831L3.31353 5.017C3.21818 5.06632 3.13838 5.14114 3.08303 5.23312C3.02768 5.32511 2.99895 5.43065 3.00003 5.538V7.928C3.00003 8.144 3.11053 8.3415 3.31353 8.4495L5.43553 9.6355C5.62003 9.743 5.86003 9.743 6.06253 9.6355L7.50203 8.8265L8.47953 8.2695L9.91903 7.461C10.1035 7.353 10.343 7.353 10.546 7.461L11.6715 8.09C11.8565 8.1975 11.985 8.395 11.985 8.611V9.887C11.985 10.1025 11.875 10.3 11.6715 10.408L10.5465 11.055C10.3615 11.163 10.1215 11.163 9.91903 11.055L8.79353 10.426C8.60853 10.318 8.47953 10.1205 8.47953 9.905V9.078L7.50203 9.6355V10.462C7.50203 10.6775 7.61253 10.8755 7.81553 10.983L9.93753 12.169C10.122 12.277 10.3615 12.277 10.5645 12.169L12.6865 10.983C12.871 10.8755 13 10.678 13 10.462V8.072C13.0011 7.96465 12.9724 7.85911 12.917 7.76713C12.8617 7.67514 12.7819 7.60032 12.6865 7.551L10.5465 6.3465H10.546Z" fill="white"/>
</g>
<defs>
<clipPath id="clip0_7_7821">
<rect width="16" height="16" fill="white"/>
</clipPath>
</defs>
</svg>
