<svg width="16" height="16" viewBox="0 0 16 16" fill="none" xmlns="http://www.w3.org/2000/svg">
<g clip-path="url(#clip0_7_7725)">
<path d="M8 16C12.4183 16 16 12.4183 16 8C16 3.58172 12.4183 0 8 0C3.58172 0 0 3.58172 0 8C0 12.4183 3.58172 16 8 16Z" fill="#2D4692"/>
<path d="M11.994 7.3085C11.994 6.9095 11.889 6.596 11.668 6.3605C11.441 6.1185 11.195 5.9945 10.9305 5.9945H8.884V4.909H11.738C11.738 4.909 11.9715 4.824 11.9715 4.4445C11.9715 4.0655 11.738 4 11.738 4H4.2335C4.2335 4 4 4.0655 4 4.445C4 4.824 4.2335 4.909 4.2335 4.909H7.126V5.994H5.079C4.815 5.994 4.569 6.119 4.3415 6.3605C4.1265 6.596 4.0155 6.91 4.0155 7.3085L4.0095 10.5975C4.0095 10.5975 4.0035 11.2645 4.415 11.624C4.765 11.9315 5.294 11.879 5.294 11.879H6.136C6.2345 11.879 6.431 11.722 6.431 11.454C6.431 11.0025 6.087 10.957 6.087 10.957H5.362C4.845 10.957 4.864 10.4535 4.864 10.4535V7.4985C4.864 7.106 5.0605 6.9095 5.4415 6.9095H7.126V12.193C7.126 12.193 7.1505 12.5 7.4515 12.5H7.777V6.91H8.232V12.5H8.558C8.859 12.5 8.8835 12.193 8.8835 12.193V6.9095H10.568C10.955 6.9095 11.146 7.106 11.146 7.498V10.4535C11.146 10.4535 11.164 10.957 10.648 10.957H9.9225C9.9225 10.957 9.5785 11.0025 9.5785 11.454C9.5785 11.722 9.775 11.879 9.8735 11.879H10.7155C10.7155 11.879 11.238 11.9315 11.5945 11.624C12.006 11.264 12 10.5975 12 10.5975L11.994 7.3085ZM8.2385 6.0135H7.7775V4.9085H8.2385V6.0135Z" fill="white"/>
</g>
<defs>
<clipPath id="clip0_7_7725">
<rect width="16" height="16" fill="white"/>
</clipPath>
</defs>
</svg>
