<svg width="16" height="16" viewBox="0 0 16 16" fill="none" xmlns="http://www.w3.org/2000/svg">
<g clip-path="url(#clip0_7_7842)">
<path d="M8 16C12.4183 16 16 12.4183 16 8C16 3.58172 12.4183 0 8 0C3.58172 0 0 3.58172 0 8C0 12.4183 3.58172 16 8 16Z" fill="#033B4A"/>
<path d="M7.76577 3.53199C8.04427 3.45049 8.33977 3.53349 8.58027 3.67899C9.65281 4.2933 10.7302 4.89915 11.8123 5.49649C12.2288 5.71699 12.5058 6.16949 12.4998 6.63649C12.4988 8.18349 12.4948 9.73149 12.4973 11.2785C12.5143 11.386 12.4413 11.5085 12.3193 11.4975C11.8388 11.5005 11.3583 11.4985 10.8778 11.498C10.7728 11.5135 10.6718 11.4255 10.6828 11.319C10.6368 10.0015 10.6543 8.68249 10.6678 7.36399C10.6678 7.19899 10.6358 7.02499 10.5293 6.89149C10.4213 6.74999 10.2508 6.67749 10.0983 6.59349C9.84827 6.46249 9.61277 6.30399 9.35377 6.18949C9.25577 6.15049 9.12827 6.10849 9.03577 6.18299C8.93327 6.27949 8.93427 6.43199 8.92377 6.56199C8.90485 7.20849 8.90302 7.85538 8.91827 8.50199C8.91777 8.65499 8.92277 8.83299 8.80577 8.95199C8.68627 9.06899 8.50577 9.07099 8.34877 9.07349C8.06477 9.07049 7.78077 9.08099 7.49777 9.06699C7.37777 9.05399 7.23377 9.04699 7.15577 8.94199C7.08577 8.83849 7.08877 8.70799 7.08277 8.58899C7.08127 7.90949 7.08977 7.22949 7.08277 6.55049C7.07577 6.43049 7.07777 6.29549 6.99277 6.20049C6.91127 6.11649 6.78127 6.14399 6.68327 6.17949C6.47077 6.26249 6.28027 6.38949 6.07877 6.49449C5.87727 6.61049 5.66077 6.70949 5.48777 6.86749C5.37527 6.96999 5.34527 7.12599 5.34177 7.26999C5.33927 8.60499 5.34327 9.93899 5.33177 11.274C5.34327 11.375 5.28327 11.498 5.16527 11.496C4.67027 11.502 4.17527 11.4985 3.68027 11.4975C3.58127 11.507 3.49027 11.42 3.50027 11.3215C3.52027 9.69899 3.50777 8.07599 3.50927 6.45299C3.50462 6.28328 3.54681 6.11557 3.63122 5.96827C3.71564 5.82097 3.839 5.69978 3.98777 5.61799C5.11527 4.98599 6.24477 4.35799 7.36777 3.71849C7.49477 3.64649 7.62277 3.57099 7.76577 3.53199Z" fill="white"/>
</g>
<defs>
<clipPath id="clip0_7_7842">
<rect width="16" height="16" fill="white"/>
</clipPath>
</defs>
</svg>
