<svg width="16" height="16" viewBox="0 0 16 16" fill="none" xmlns="http://www.w3.org/2000/svg">
<g clip-path="url(#clip0_7_7962)">
<path d="M8 16C12.4183 16 16 12.4183 16 8C16 3.58172 12.4183 0 8 0C3.58172 0 0 3.58172 0 8C0 12.4183 3.58172 16 8 16Z" fill="#01A64F"/>
<path d="M10.3315 3.996C10.9395 4.646 11.25 5.462 11.25 6.416C11.25 7.3845 10.9395 8.201 10.331 8.851C9.8445 9.3625 9.2635 9.6665 8.588 9.7775V10.3445H9.966V10.967H8.574V11.299H9.966V11.8795H8.588V13H7.412V11.88H6.047V11.299H7.4255V10.967H6.0475V10.3445H7.4125V9.7635C6.75 9.653 6.169 9.3485 5.6825 8.837C5.061 8.187 4.75 7.3705 4.75 6.4025C4.75 5.4205 5.0475 4.6045 5.669 3.968C6.29 3.318 7.061 3 8.007 3C8.9395 3 9.7095 3.318 10.3315 3.996ZM9.061 7.689C9.3175 7.357 9.453 6.928 9.453 6.4025C9.453 5.891 9.318 5.4625 9.034 5.13C8.764 4.7845 8.4125 4.6185 8.007 4.6185C7.588 4.6185 7.237 4.7845 6.9665 5.1165C6.6955 5.4485 6.5605 5.863 6.5605 6.389C6.5605 6.928 6.696 7.357 6.9665 7.689C7.237 8.021 7.588 8.187 8.0065 8.187C8.4395 8.187 8.804 8.021 9.061 7.689Z" fill="white"/>
</g>
<defs>
<clipPath id="clip0_7_7962">
<rect width="16" height="16" fill="white"/>
</clipPath>
</defs>
</svg>
