<svg width="16" height="16" viewBox="0 0 16 16" fill="none" xmlns="http://www.w3.org/2000/svg">
<g clip-path="url(#clip0_7_7817)">
<path d="M8 16C12.4183 16 16 12.4183 16 8C16 3.58172 12.4183 0 8 0C3.58172 0 0 3.58172 0 8C0 12.4183 3.58172 16 8 16Z" fill="#1E252C"/>
<path d="M7.11 7.79449C6.91016 7.79449 6.7185 7.71511 6.5772 7.5738C6.43589 7.43249 6.3565 7.24083 6.3565 7.04099C6.3565 6.84115 6.43589 6.6495 6.5772 6.50819C6.7185 6.36688 6.91016 6.28749 7.11 6.28749C7.30984 6.28749 7.5015 6.36688 7.64281 6.50819C7.78411 6.6495 7.8635 6.84115 7.8635 7.04099C7.8635 7.24083 7.78411 7.43249 7.64281 7.5738C7.5015 7.71511 7.30984 7.79449 7.11 7.79449ZM8.959 7.79449C8.75916 7.79449 8.5675 7.71511 8.4262 7.5738C8.28489 7.43249 8.2055 7.24083 8.2055 7.04099C8.2055 6.84115 8.28489 6.6495 8.4262 6.50819C8.5675 6.36688 8.75916 6.28749 8.959 6.28749C9.15884 6.28749 9.3505 6.36688 9.49181 6.50819C9.63311 6.6495 9.7125 6.84115 9.7125 7.04099C9.7125 7.24083 9.63311 7.43249 9.49181 7.5738C9.3505 7.71511 9.15884 7.79449 8.959 7.79449ZM7.1095 9.64399C6.90966 9.64399 6.718 9.56461 6.57669 9.4233C6.43539 9.28199 6.356 9.09033 6.356 8.89049C6.356 8.69065 6.43539 8.499 6.57669 8.35769C6.718 8.21638 6.90966 8.13699 7.1095 8.13699C7.30934 8.13699 7.501 8.21638 7.6423 8.35769C7.78361 8.499 7.863 8.69065 7.863 8.89049C7.863 9.09033 7.78361 9.28199 7.6423 9.4233C7.501 9.56461 7.30934 9.64399 7.1095 9.64399ZM8.959 9.64399C8.75916 9.64399 8.5675 9.56461 8.4262 9.4233C8.28489 9.28199 8.2055 9.09033 8.2055 8.89049C8.2055 8.69065 8.28489 8.499 8.4262 8.35769C8.5675 8.21638 8.75916 8.13699 8.959 8.13699C9.15884 8.13699 9.3505 8.21638 9.49181 8.35769C9.63311 8.499 9.7125 8.69065 9.7125 8.89049C9.7125 9.09033 9.63311 9.28199 9.49181 9.4233C9.3505 9.56461 9.15884 9.64399 8.959 9.64399ZM10.808 7.58899C10.736 7.58899 10.6648 7.57482 10.5983 7.54728C10.5318 7.51974 10.4714 7.47938 10.4205 7.42849C10.3696 7.3776 10.3293 7.31719 10.3017 7.2507C10.2742 7.18422 10.26 7.11296 10.26 7.04099C10.26 6.96903 10.2742 6.89777 10.3017 6.83128C10.3293 6.7648 10.3696 6.70439 10.4205 6.6535C10.4714 6.60261 10.5318 6.56225 10.5983 6.53471C10.6648 6.50717 10.736 6.49299 10.808 6.49299C10.9533 6.49299 11.0927 6.55073 11.1955 6.6535C11.2983 6.75627 11.356 6.89566 11.356 7.04099C11.356 7.18633 11.2983 7.32572 11.1955 7.42849C11.0927 7.53126 10.9533 7.58899 10.808 7.58899ZM10.808 9.43849C10.6627 9.43849 10.5233 9.38076 10.4205 9.27799C10.3177 9.17522 10.26 9.03583 10.26 8.89049C10.26 8.74516 10.3177 8.60577 10.4205 8.503C10.5233 8.40023 10.6627 8.34249 10.808 8.34249C10.9533 8.34249 11.0927 8.40023 11.1955 8.503C11.2983 8.60577 11.356 8.74516 11.356 8.89049C11.356 9.03583 11.2983 9.17522 11.1955 9.27799C11.0927 9.38076 10.9533 9.43849 10.808 9.43849ZM5.192 7.58899C5.04666 7.58899 4.90728 7.53126 4.80451 7.42849C4.70174 7.32572 4.644 7.18633 4.644 7.04099C4.644 6.89566 4.70174 6.75627 4.80451 6.6535C4.90728 6.55073 5.04666 6.49299 5.192 6.49299C5.33734 6.49299 5.47672 6.55073 5.57949 6.6535C5.68226 6.75627 5.74 6.89566 5.74 7.04099C5.74 7.18633 5.68226 7.32572 5.57949 7.42849C5.47672 7.53126 5.33734 7.58899 5.192 7.58899ZM5.192 9.43849C5.04666 9.43849 4.90728 9.38076 4.80451 9.27799C4.70174 9.17522 4.644 9.03583 4.644 8.89049C4.644 8.74516 4.70174 8.60577 4.80451 8.503C4.90728 8.40023 5.04666 8.34249 5.192 8.34249C5.33734 8.34249 5.47672 8.40023 5.57949 8.503C5.68226 8.60577 5.74 8.74516 5.74 8.89049C5.74 9.03583 5.68226 9.17522 5.57949 9.27799C5.47672 9.38076 5.33734 9.43849 5.192 9.43849ZM7.1095 11.2875C7.03618 11.2897 6.96315 11.2772 6.89476 11.2507C6.82637 11.2241 6.764 11.1841 6.71135 11.133C6.6587 11.082 6.61684 11.0208 6.58826 10.9533C6.55968 10.8857 6.54495 10.8131 6.54495 10.7397C6.54495 10.6664 6.55968 10.5938 6.58826 10.5262C6.61684 10.4587 6.6587 10.3975 6.71135 10.3464C6.764 10.2954 6.82637 10.2554 6.89476 10.2288C6.96315 10.2023 7.03618 10.1898 7.1095 10.192C7.25191 10.1963 7.38704 10.2559 7.48625 10.3581C7.58546 10.4604 7.64095 10.5973 7.64095 10.7397C7.64095 10.8822 7.58546 11.0191 7.48625 11.1213C7.38704 11.2236 7.25191 11.2832 7.1095 11.2875ZM8.959 11.2875C8.88568 11.2897 8.81265 11.2772 8.74426 11.2507C8.67587 11.2241 8.6135 11.1841 8.56085 11.133C8.5082 11.082 8.46634 11.0208 8.43776 10.9533C8.40918 10.8857 8.39445 10.8131 8.39445 10.7397C8.39445 10.6664 8.40918 10.5938 8.43776 10.5262C8.46634 10.4587 8.5082 10.3975 8.56085 10.3464C8.6135 10.2954 8.67587 10.2554 8.74426 10.2288C8.81265 10.2023 8.88568 10.1898 8.959 10.192C9.10141 10.1963 9.23654 10.2559 9.33575 10.3581C9.43496 10.4604 9.49045 10.5973 9.49045 10.7397C9.49045 10.8822 9.43496 11.0191 9.33575 11.1213C9.23654 11.2236 9.10141 11.2832 8.959 11.2875ZM7.1095 5.73999C7.03618 5.74221 6.96315 5.72968 6.89476 5.70315C6.82637 5.67662 6.764 5.63663 6.71135 5.58555C6.6587 5.53446 6.61684 5.47333 6.58826 5.40577C6.55968 5.33821 6.54495 5.2656 6.54495 5.19224C6.54495 5.11889 6.55968 5.04628 6.58826 4.97872C6.61684 4.91116 6.6587 4.85002 6.71135 4.79894C6.764 4.74786 6.82637 4.70787 6.89476 4.68134C6.96315 4.65481 7.03618 4.64228 7.1095 4.64449C7.25191 4.6488 7.38704 4.70839 7.48625 4.81065C7.58546 4.9129 7.64095 5.04977 7.64095 5.19224C7.64095 5.33472 7.58546 5.47159 7.48625 5.57384C7.38704 5.6761 7.25191 5.73569 7.1095 5.73999ZM8.959 5.73999C8.88568 5.74221 8.81265 5.72968 8.74426 5.70315C8.67587 5.67662 8.6135 5.63663 8.56085 5.58555C8.5082 5.53446 8.46634 5.47333 8.43776 5.40577C8.40918 5.33821 8.39445 5.2656 8.39445 5.19224C8.39445 5.11889 8.40918 5.04628 8.43776 4.97872C8.46634 4.91116 8.5082 4.85002 8.56085 4.79894C8.6135 4.74786 8.67587 4.70787 8.74426 4.68134C8.81265 4.65481 8.88568 4.64228 8.959 4.64449C9.10141 4.6488 9.23654 4.70839 9.33575 4.81065C9.43496 4.9129 9.49045 5.04977 9.49045 5.19224C9.49045 5.33472 9.43496 5.47159 9.33575 5.57384C9.23654 5.6761 9.10141 5.73569 8.959 5.73999ZM7.1095 3.68499C7.06345 3.68675 7.01753 3.67921 6.97447 3.6628C6.93141 3.64639 6.8921 3.62147 6.8589 3.58951C6.8257 3.55756 6.79929 3.51923 6.78125 3.47683C6.76321 3.43443 6.75392 3.38882 6.75392 3.34274C6.75392 3.29667 6.76321 3.25106 6.78125 3.20866C6.79929 3.16626 6.8257 3.12793 6.8589 3.09598C6.8921 3.06402 6.93141 3.0391 6.97447 3.02269C7.01753 3.00628 7.06345 2.99873 7.1095 3.00049C7.20034 3.00049 7.28745 3.03658 7.35168 3.10081C7.41592 3.16504 7.452 3.25216 7.452 3.34299C7.452 3.43383 7.41592 3.52095 7.35168 3.58518C7.28745 3.64941 7.20034 3.68499 7.1095 3.68499ZM8.959 3.68499C8.91295 3.68675 8.86703 3.67921 8.82397 3.6628C8.78091 3.64639 8.7416 3.62147 8.7084 3.58951C8.6752 3.55756 8.64879 3.51923 8.63075 3.47683C8.61271 3.43443 8.60342 3.38882 8.60342 3.34274C8.60342 3.29667 8.61271 3.25106 8.63075 3.20866C8.64879 3.16626 8.6752 3.12793 8.7084 3.09598C8.7416 3.06402 8.78091 3.0391 8.82397 3.02269C8.86703 3.00628 8.91295 2.99873 8.959 3.00049C9.04984 3.00049 9.13695 3.03658 9.20118 3.10081C9.26542 3.16504 9.3015 3.25216 9.3015 3.34299C9.3015 3.43383 9.26542 3.52095 9.20118 3.58518C9.13695 3.64941 9.04984 3.68499 8.959 3.68499ZM12.6575 7.38399C12.5667 7.38399 12.4795 7.34791 12.4153 7.28368C12.3511 7.21945 12.315 7.13233 12.315 7.04149C12.315 6.95066 12.3511 6.86354 12.4153 6.79931C12.4795 6.73508 12.5667 6.69899 12.6575 6.69899C12.7483 6.69899 12.8355 6.73508 12.8997 6.79931C12.9639 6.86354 13 6.95066 13 7.04149C13 7.13233 12.9639 7.21945 12.8997 7.28368C12.8355 7.34791 12.7483 7.38399 12.6575 7.38399ZM12.6575 9.23349C12.5667 9.23349 12.4795 9.19741 12.4153 9.13318C12.3511 9.06895 12.315 8.98183 12.315 8.89099C12.315 8.80016 12.3511 8.71304 12.4153 8.64881C12.4795 8.58458 12.5667 8.54849 12.6575 8.54849C12.7483 8.54849 12.8355 8.58458 12.8997 8.64881C12.9639 8.71304 13 8.80016 13 8.89099C13 8.98183 12.9639 9.06895 12.8997 9.13318C12.8355 9.19741 12.7483 9.23349 12.6575 9.23349ZM3.3425 7.38399C3.25166 7.38399 3.16455 7.34791 3.10032 7.28368C3.03608 7.21945 3 7.13233 3 7.04149C3 6.95066 3.03608 6.86354 3.10032 6.79931C3.16455 6.73508 3.25166 6.69899 3.3425 6.69899C3.43334 6.69899 3.52045 6.73508 3.58468 6.79931C3.64892 6.86354 3.685 6.95066 3.685 7.04149C3.685 7.13233 3.64892 7.21945 3.58468 7.28368C3.52045 7.34791 3.43334 7.38399 3.3425 7.38399ZM3.3425 9.23349C3.25166 9.23349 3.16455 9.19741 3.10032 9.13318C3.03608 9.06895 3 8.98183 3 8.89099C3 8.80016 3.03608 8.71304 3.10032 8.64881C3.16455 8.58458 3.25166 8.54849 3.3425 8.54849C3.43334 8.54849 3.52045 8.58458 3.58468 8.64881C3.64892 8.71304 3.685 8.80016 3.685 8.89099C3.685 8.98183 3.64892 9.06895 3.58468 9.13318C3.52045 9.19741 3.43334 9.23349 3.3425 9.23349ZM7.1095 13C7.01866 13 6.93155 12.9639 6.86732 12.8997C6.80308 12.8354 6.767 12.7483 6.767 12.6575C6.767 12.5667 6.80308 12.4795 6.86732 12.4153C6.93155 12.3511 7.01866 12.315 7.1095 12.315C7.20034 12.315 7.28745 12.3511 7.35168 12.4153C7.41592 12.4795 7.452 12.5667 7.452 12.6575C7.452 12.7483 7.41592 12.8354 7.35168 12.8997C7.28745 12.9639 7.20034 13 7.1095 13ZM8.959 13C8.86816 13 8.78105 12.9639 8.71682 12.8997C8.65258 12.8354 8.6165 12.7483 8.6165 12.6575C8.6165 12.5667 8.65258 12.4795 8.71682 12.4153C8.78105 12.3511 8.86816 12.315 8.959 12.315C9.04984 12.315 9.13695 12.3511 9.20118 12.4153C9.26542 12.4795 9.3015 12.5667 9.3015 12.6575C9.3015 12.7483 9.26542 12.8354 9.20118 12.8997C9.13695 12.9639 9.04984 13 8.959 13Z" fill="white"/>
</g>
<defs>
<clipPath id="clip0_7_7817">
<rect width="16" height="16" fill="white"/>
</clipPath>
</defs>
</svg>
