<svg width="16" height="16" viewBox="0 0 16 16" fill="none" xmlns="http://www.w3.org/2000/svg">
<g clip-path="url(#clip0_7_7815)">
<path d="M8 16C12.4183 16 16 12.4183 16 8C16 3.58172 12.4183 0 8 0C3.58172 0 0 3.58172 0 8C0 12.4183 3.58172 16 8 16Z" fill="#00B0FF"/>
<path d="M12 6.0305V10.488L10.732 11.228V8.253L8 9.888L5.268 8.2515V11.228L4 10.488V6.03L8 8.4325L12 6.0305ZM8.015 11.589L9.185 10.8895L10.34 11.589L8.015 13L5.691 11.589L6.846 10.8895L8.015 11.589ZM10.325 4.411L9.1695 5.1105L8 4.411L6.8305 5.1105L5.6755 4.411L8 3L10.325 4.411Z" fill="white"/>
</g>
<defs>
<clipPath id="clip0_7_7815">
<rect width="16" height="16" fill="white"/>
</clipPath>
</defs>
</svg>
