<svg width="16" height="16" viewBox="0 0 16 16" fill="none" xmlns="http://www.w3.org/2000/svg">
<g clip-path="url(#clip0_7_7843)">
<path d="M8 16C12.4183 16 16 12.4183 16 8C16 3.58172 12.4183 0 8 0C3.58172 0 0 3.58172 0 8C0 12.4183 3.58172 16 8 16Z" fill="black"/>
<path d="M4.33594 11.0035L7.81394 13.1915H8.23494L11.6569 11.0035L11.1239 10.583L8.01044 12.5745L4.78494 10.583L4.33594 11.0035ZM6.01894 5.927L7.98244 2.9535L10.0019 5.955L10.4789 5.534L8.23494 2.1685C8.23494 2.1685 8.03844 1.916 7.72994 2.1685L5.42994 5.6185L6.01894 5.927Z" fill="white" fill-opacity="0.703"/>
<path d="M8.03876 11.9295C8.15076 11.5365 8.29127 11.172 8.40377 10.7795C8.90877 9.20853 9.41326 7.60953 9.91826 6.03903C9.94626 5.95503 9.97426 5.84253 10.0023 5.75903C10.0583 5.59003 10.1423 5.50603 10.3108 5.50603C10.3839 5.5041 10.4553 5.52854 10.512 5.5749C10.5686 5.62125 10.6067 5.68643 10.6193 5.75853C10.7593 6.31953 10.8718 6.90853 11.0118 7.46953C11.2643 8.53553 11.4888 9.62953 11.7413 10.695C11.7973 10.9475 11.7133 11.116 11.5168 11.172C11.3203 11.228 11.1803 11.088 11.1243 10.8355C10.8438 9.62953 10.5633 8.42303 10.3108 7.18903C10.3108 7.13303 10.2828 7.10503 10.2548 7.02053C10.2315 7.09727 10.2033 7.17243 10.1703 7.24553C9.63776 8.87203 9.13277 10.499 8.59977 12.1255C8.51577 12.434 8.40326 12.7145 8.31926 13.023C8.26326 13.2195 8.15076 13.3035 7.98276 13.3035C7.81426 13.3035 7.70227 13.2195 7.64627 13.0235C7.02926 11.088 6.41177 9.15253 5.82276 7.21703C5.79476 7.16103 5.79477 7.13303 5.76677 7.02053C5.71673 7.27431 5.66072 7.52688 5.59877 7.77803C5.37376 8.78803 5.14976 9.82553 4.92526 10.8355C4.86926 11.1155 4.64526 11.256 4.42026 11.1155C4.28026 11.0315 4.25226 10.8915 4.28026 10.723C4.58876 9.32053 4.92527 7.91803 5.23377 6.51603C5.28977 6.29103 5.34627 6.06703 5.37377 5.84253C5.43027 5.61853 5.54226 5.50603 5.71077 5.50603C5.87927 5.50603 5.99077 5.61853 6.04727 5.84253C6.69227 7.86253 7.33726 9.91003 7.95476 11.9295H8.03876Z" fill="white"/>
</g>
<defs>
<clipPath id="clip0_7_7843">
<rect width="16" height="16" fill="white"/>
</clipPath>
</defs>
</svg>
