<svg width="16" height="16" viewBox="0 0 16 16" fill="none" xmlns="http://www.w3.org/2000/svg">
<g clip-path="url(#clip0_1227_6803)">
<path d="M8 16C12.4334 16 16 12.4334 16 8C16 3.56664 12.4334 0 8 0C3.56664 0 0 3.56664 0 8C0 12.4334 3.56664 16 8 16Z" fill="#141921"/>
<path fill-rule="evenodd" clip-rule="evenodd" d="M8.11111 4.5C7.21233 4.5 6.35036 4.85704 5.71481 5.49258C5.07927 6.12812 4.72223 6.9901 4.72223 7.88889C4.72223 8.39705 4.83635 8.89342 5.05045 9.34383L5.12689 9.50465L4.68214 11.3179L6.49536 10.8731L6.65618 10.9496C7.10657 11.1637 7.60294 11.2778 8.11111 11.2778C9.00992 11.2778 9.87189 10.9207 10.5074 10.2852C11.143 9.64968 11.5 8.78769 11.5 7.88889C11.5 6.9901 11.143 6.12812 10.5074 5.49259C9.87189 4.85705 9.00992 4.5 8.11111 4.5ZM5.00771 4.78548C5.83079 3.9624 6.94712 3.5 8.11111 3.5C9.27513 3.5 10.3915 3.9624 11.2145 4.78547C12.0376 5.60855 12.5 6.72489 12.5 7.88889C12.5 9.05289 12.0376 10.1692 11.2145 10.9923C10.3915 11.8154 9.27513 12.2778 8.11111 12.2778C7.5151 12.2778 6.93157 12.1565 6.39353 11.9277L3.31787 12.6821L4.07228 9.60647C3.84348 9.06844 3.72223 8.48492 3.72223 7.88889C3.72223 6.72488 4.18463 5.60855 5.00771 4.78548Z" fill="white"/>
</g>
<defs>
<clipPath id="clip0_1227_6803">
<rect width="16" height="16" fill="white"/>
</clipPath>
</defs>
</svg>
