<svg width="16" height="16" viewBox="0 0 16 16" fill="none" xmlns="http://www.w3.org/2000/svg">
<g clip-path="url(#clip0_7_7775)">
<path d="M8 16C12.4183 16 16 12.4183 16 8C16 3.58172 12.4183 0 8 0C3.58172 0 0 3.58172 0 8C0 12.4183 3.58172 16 8 16Z" fill="#DA1157"/>
<path d="M10.4921 9.58399C10.8934 9.58399 11.2782 9.42459 11.562 9.14085C11.8457 8.85711 12.0051 8.47227 12.0051 8.071C12.0051 7.66972 11.8457 7.28488 11.562 7.00114C11.2782 6.7174 10.8934 6.558 10.4921 6.558C10.0909 6.558 9.70603 6.7174 9.42229 7.00114C9.13855 7.28488 8.97914 7.66972 8.97914 8.071C8.97914 8.47227 9.13855 8.85711 9.42229 9.14085C9.70603 9.42459 10.0909 9.58399 10.4921 9.58399ZM10.4921 4.5815C11.0683 4.58115 11.6356 4.72347 12.1434 4.99574C12.6512 5.26801 13.0837 5.66176 13.4022 6.14186C13.7208 6.62196 13.9156 7.17346 13.9691 7.74715C14.0227 8.32083 13.9333 8.89885 13.7091 9.42961C13.4849 9.96037 13.1328 10.4274 12.6841 10.7889C12.2355 11.1505 11.7044 11.3953 11.1381 11.5016C10.5718 11.6079 9.98798 11.5723 9.43878 11.3981C8.88958 11.2238 8.39207 10.9163 7.99064 10.503C8.62523 9.85261 8.98004 8.97968 8.97914 8.071C8.98009 7.1623 8.62527 6.28935 7.99064 5.63899C8.31537 5.30397 8.70417 5.0377 9.13392 4.85603C9.56367 4.67435 10.0256 4.58099 10.4921 4.5815ZM5.48964 9.58399C5.89091 9.58399 6.27575 9.42459 6.55949 9.14085C6.84324 8.85711 7.00264 8.47227 7.00264 8.071C7.00264 7.66972 6.84324 7.28488 6.55949 7.00114C6.27575 6.7174 5.89091 6.558 5.48964 6.558C5.08837 6.558 4.70353 6.7174 4.41979 7.00114C4.13604 7.28488 3.97664 7.66972 3.97664 8.071C3.97664 8.47227 4.13604 8.85711 4.41979 9.14085C4.70353 9.42459 5.08837 9.58399 5.48964 9.58399ZM7.99064 5.63899C7.35623 6.28946 7.00211 7.16239 7.00314 8.071C7.00314 9.01699 7.37964 9.8745 7.99064 10.503C7.50665 11.0011 6.88554 11.3435 6.20585 11.4864C5.52616 11.6292 4.81931 11.566 4.17574 11.3049C3.53217 11.0437 2.98116 10.5965 2.59322 10.0204C2.20528 9.44428 1.99805 8.76553 1.99805 8.071C1.99805 7.37646 2.20528 6.69771 2.59322 6.12162C2.98116 5.54552 3.53217 5.09828 4.17574 4.83712C4.81931 4.57596 5.52616 4.51276 6.20585 4.65561C6.88554 4.79846 7.50665 5.14086 7.99064 5.63899ZM7.00264 8.071C7.00264 9.01699 7.37964 9.87499 7.99114 10.5035C8.62559 9.85306 8.98023 8.97962 8.97914 8.071C8.98023 7.16237 8.62559 6.28993 7.99114 5.6395C7.35651 6.28985 7.00169 7.1623 7.00264 8.071Z" fill="white"/>
</g>
<defs>
<clipPath id="clip0_7_7775">
<rect width="16" height="16" fill="white"/>
</clipPath>
</defs>
</svg>
