<svg width="16" height="16" viewBox="0 0 16 16" fill="none" xmlns="http://www.w3.org/2000/svg">
<g clip-path="url(#clip0_7_7814)">
<path d="M8 16C12.4183 16 16 12.4183 16 8C16 3.58172 12.4183 0 8 0C3.58172 0 0 3.58172 0 8C0 12.4183 3.58172 16 8 16Z" fill="#242424"/>
<path d="M11.1283 3.385C11.1283 3.7355 10.8433 4.02 10.4913 4.02C10.4078 4.02013 10.3251 4.00381 10.2479 3.97197C10.1707 3.94013 10.1005 3.89339 10.0413 3.83443C9.98217 3.77546 9.93521 3.70542 9.90313 3.62831C9.87104 3.5512 9.85446 3.46852 9.85433 3.385C9.85433 3.034 10.1393 2.75 10.4913 2.75C10.8433 2.75 11.1283 3.034 11.1283 3.385ZM10.6693 5.597C10.3713 5.597 10.1293 5.356 10.1293 5.059C10.1293 4.762 10.3713 4.5215 10.6693 4.5215C10.9673 4.5215 11.2088 4.762 11.2088 5.059C11.2088 5.356 10.9673 5.597 10.6688 5.597H10.6693ZM10.5018 6.9235C10.442 6.92363 10.3827 6.91196 10.3274 6.88915C10.2721 6.86635 10.2218 6.83285 10.1794 6.79059C10.1371 6.74832 10.1035 6.69812 10.0806 6.64285C10.0576 6.58758 10.0458 6.52834 10.0458 6.4685C10.0459 6.40871 10.0577 6.34951 10.0807 6.2943C10.1037 6.23909 10.1373 6.18895 10.1796 6.14674C10.222 6.10452 10.2722 6.07108 10.3275 6.0483C10.3828 6.02552 10.442 6.01387 10.5018 6.014C10.5617 6.01387 10.6209 6.02554 10.6763 6.04835C10.7316 6.07115 10.7819 6.10465 10.8242 6.14691C10.8666 6.18918 10.9002 6.23938 10.9231 6.29465C10.946 6.34992 10.9578 6.40916 10.9578 6.469C10.9578 6.52879 10.9459 6.58799 10.923 6.6432C10.9 6.69841 10.8664 6.74855 10.824 6.79076C10.7817 6.83297 10.7314 6.86642 10.6761 6.8892C10.6209 6.91198 10.5616 6.92363 10.5018 6.9235ZM10.4748 7.6095C10.4748 7.71293 10.4337 7.81213 10.3606 7.88527C10.2875 7.95841 10.1883 7.9995 10.0848 7.9995C9.9814 7.9995 9.8822 7.95841 9.80906 7.88527C9.73592 7.81213 9.69483 7.71293 9.69483 7.6095C9.69483 7.50607 9.73592 7.40687 9.80906 7.33373C9.8822 7.26059 9.9814 7.2195 10.0848 7.2195C10.1883 7.2195 10.2875 7.26059 10.3606 7.33373C10.4337 7.40687 10.4748 7.50607 10.4748 7.6095ZM9.85783 8.4715C9.85783 8.6565 9.70783 8.805 9.52333 8.805C9.45729 8.8048 9.3928 8.78503 9.33799 8.74819C9.28319 8.71135 9.24053 8.65909 9.21542 8.59801C9.19031 8.53693 9.18387 8.46978 9.19691 8.40504C9.20995 8.34031 9.24189 8.28089 9.28869 8.2343C9.33549 8.18771 9.39505 8.15604 9.45984 8.14329C9.52464 8.13054 9.59176 8.13728 9.65272 8.16267C9.71369 8.18805 9.76576 8.23094 9.80235 8.28591C9.83895 8.34088 9.85793 8.40546 9.85783 8.4715ZM9.18283 9.083C9.18283 9.15912 9.15259 9.23212 9.09877 9.28594C9.04495 9.33976 8.97195 9.37 8.89583 9.37C8.81971 9.37 8.74671 9.33976 8.69289 9.28594C8.63907 9.23212 8.60883 9.15912 8.60883 9.083C8.60883 9.00688 8.63907 8.93388 8.69289 8.88006C8.74671 8.82624 8.81971 8.796 8.89583 8.796C8.97195 8.796 9.04495 8.82624 9.09877 8.88006C9.15259 8.93388 9.18283 9.00688 9.18283 9.083ZM12.6198 5.3785C12.5828 5.51364 12.4949 5.62919 12.3745 5.70091C12.2542 5.77264 12.1107 5.79497 11.9742 5.76321C11.8378 5.73145 11.7189 5.64808 11.6426 5.53059C11.5662 5.41309 11.5384 5.2706 11.5648 5.133C11.5974 4.9931 11.6842 4.87186 11.8061 4.79595C11.9281 4.72005 12.0752 4.69569 12.2151 4.72825C12.355 4.76081 12.4762 4.8476 12.5521 4.96955C12.628 5.09149 12.6524 5.2386 12.6198 5.3785ZM12.3608 6.78C12.3332 6.89842 12.2596 7.001 12.1563 7.06519C12.0531 7.12937 11.9285 7.1499 11.8101 7.12225C11.6917 7.0946 11.5891 7.02104 11.5249 6.91776C11.4607 6.81447 11.4402 6.68992 11.4678 6.5715C11.4955 6.45308 11.569 6.3505 11.6723 6.28631C11.7756 6.22213 11.9002 6.2016 12.0186 6.22925C12.137 6.2569 12.2396 6.33046 12.3038 6.43374C12.368 6.53703 12.3885 6.66158 12.3608 6.78ZM11.8788 7.8985C11.8555 7.99862 11.7933 8.08537 11.706 8.13966C11.6187 8.19395 11.5134 8.21134 11.4133 8.188C11.3132 8.16466 11.2265 8.10251 11.1722 8.01521C11.1179 7.92791 11.1005 7.82262 11.1238 7.7225C11.1508 7.62627 11.2139 7.54416 11.2999 7.49327C11.3859 7.44238 11.4882 7.42663 11.5855 7.44932C11.6829 7.47201 11.7677 7.53138 11.8223 7.61506C11.877 7.69873 11.8972 7.80027 11.8788 7.8985ZM11.2578 8.75C11.2345 8.83187 11.1806 8.90164 11.1073 8.94486C11.034 8.98808 10.9468 9.00143 10.8639 8.98215C10.781 8.96287 10.7087 8.91243 10.6619 8.84129C10.6152 8.77015 10.5976 8.68375 10.6128 8.6C10.6227 8.5577 10.6408 8.51776 10.6662 8.48247C10.6915 8.44719 10.7236 8.41724 10.7605 8.39434C10.7974 8.37145 10.8385 8.35606 10.8813 8.34905C10.9242 8.34204 10.968 8.34355 11.0103 8.3535C11.0526 8.36322 11.0926 8.3812 11.128 8.40641C11.1633 8.43161 11.1934 8.46355 11.2164 8.50038C11.2394 8.53721 11.2549 8.57822 11.262 8.62106C11.2691 8.66389 11.2677 8.70771 11.2578 8.75ZM10.5793 9.3445C10.5708 9.38088 10.5552 9.41522 10.5334 9.44556C10.5116 9.4759 10.484 9.50164 10.4522 9.52133C10.4205 9.54102 10.3852 9.55426 10.3483 9.56029C10.3114 9.56632 10.2737 9.56504 10.2373 9.5565C10.201 9.54796 10.1666 9.53235 10.1363 9.51054C10.1059 9.48873 10.0802 9.46116 10.0605 9.42941C10.0408 9.39765 10.0276 9.36232 10.0215 9.32545C10.0155 9.28858 10.0168 9.25088 10.0253 9.2145C10.0426 9.14104 10.0883 9.07743 10.1524 9.03767C10.2166 8.99791 10.2939 8.98526 10.3673 9.0025C10.4408 9.01974 10.5044 9.06546 10.5442 9.12959C10.5839 9.19373 10.5966 9.27103 10.5793 9.3445ZM9.90183 9.72C9.88352 9.77921 9.84345 9.82928 9.78969 9.86012C9.73593 9.89096 9.67249 9.90028 9.61213 9.88621C9.55177 9.87213 9.49899 9.83571 9.46442 9.78427C9.42985 9.73283 9.41606 9.6702 9.42583 9.609C9.44414 9.54979 9.48421 9.49972 9.53797 9.46888C9.59173 9.43804 9.65517 9.42872 9.71553 9.44279C9.77589 9.45687 9.82867 9.49329 9.86324 9.54473C9.89781 9.59617 9.9116 9.6588 9.90183 9.72ZM13.4538 7.292C13.4004 7.4019 13.3055 7.48611 13.19 7.52613C13.0745 7.56616 12.9478 7.55874 12.8378 7.5055C12.7833 7.47937 12.7344 7.4427 12.6941 7.39762C12.6538 7.35253 12.6228 7.29991 12.6029 7.24279C12.583 7.18567 12.5746 7.12518 12.5782 7.06481C12.5818 7.00443 12.5973 6.94536 12.6238 6.891C12.6773 6.78123 12.7721 6.69712 12.8875 6.6571C13.0028 6.61709 13.1294 6.62442 13.2393 6.6775C13.2938 6.70374 13.3425 6.74046 13.3828 6.78555C13.423 6.83064 13.454 6.88322 13.4739 6.94029C13.4939 6.99736 13.5023 7.0578 13.4989 7.11815C13.4954 7.1785 13.4801 7.23757 13.4538 7.292ZM12.9733 8.3995C12.9255 8.48866 12.8451 8.55592 12.7489 8.58724C12.6527 8.61856 12.5481 8.61153 12.457 8.5676C12.3659 8.52368 12.2952 8.44626 12.2598 8.35149C12.2243 8.25673 12.2269 8.15195 12.2668 8.059C12.3125 7.96571 12.3932 7.89425 12.4914 7.86016C12.5895 7.82608 12.6971 7.83213 12.7908 7.877C12.8372 7.89919 12.8788 7.93033 12.9131 7.96865C12.9475 8.00697 12.9739 8.0517 12.9908 8.10027C13.0078 8.14883 13.015 8.20028 13.012 8.25163C13.009 8.30299 12.9958 8.35324 12.9733 8.3995ZM12.3693 9.2395C12.3299 9.32021 12.2601 9.38202 12.1752 9.41143C12.0903 9.44085 11.9973 9.43548 11.9163 9.3965C11.8763 9.37726 11.8406 9.35032 11.811 9.31722C11.7815 9.28412 11.7587 9.24551 11.7442 9.20361C11.7296 9.16171 11.7234 9.11733 11.726 9.07304C11.7286 9.02875 11.7399 8.98541 11.7593 8.9455C11.8007 8.86852 11.8701 8.81048 11.9533 8.78349C12.0364 8.75649 12.1267 8.76263 12.2054 8.80062C12.2841 8.83861 12.345 8.90552 12.3756 8.98738C12.4061 9.06925 12.4039 9.15925 12.3693 9.2395ZM11.6963 9.8335C11.6621 9.90334 11.6016 9.95682 11.5281 9.9823C11.4546 10.0078 11.374 10.0032 11.3038 9.9695C11.2681 9.95335 11.236 9.9302 11.2093 9.90143C11.1827 9.87266 11.1621 9.83884 11.1488 9.80198C11.1354 9.76511 11.1296 9.72595 11.1316 9.68679C11.1337 9.64764 11.1435 9.60929 11.1606 9.57401C11.1777 9.53873 11.2017 9.50724 11.2312 9.48139C11.2607 9.45554 11.2951 9.43586 11.3323 9.4235C11.3695 9.41115 11.4088 9.40638 11.4479 9.40947C11.487 9.41256 11.525 9.42345 11.5598 9.4415C11.5945 9.45827 11.6256 9.48172 11.6512 9.5105C11.6769 9.53928 11.6966 9.57283 11.7093 9.60923C11.7219 9.64563 11.7273 9.68417 11.7251 9.72265C11.7229 9.76113 11.7131 9.7988 11.6963 9.8335ZM11.0188 10.1995C10.9881 10.2565 10.9366 10.2994 10.875 10.3194C10.8134 10.3393 10.7464 10.3347 10.6881 10.3066C10.6298 10.2784 10.5846 10.2288 10.5619 10.1682C10.5393 10.1076 10.5408 10.0405 10.5663 9.981C10.5983 9.92615 10.6497 9.88538 10.7104 9.86681C10.7711 9.84825 10.8365 9.85327 10.8937 9.88086C10.9508 9.90846 10.9955 9.9566 11.0187 10.0157C11.0419 10.0747 11.0419 10.1404 11.0188 10.1995ZM10.3823 10.384C10.3575 10.4348 10.3136 10.4737 10.2602 10.4923C10.2068 10.5108 10.1483 10.5075 10.0973 10.483C10.0722 10.4708 10.0497 10.4537 10.0311 10.4328C10.0126 10.4119 9.9983 10.3876 9.98916 10.3611C9.98001 10.3347 9.97616 10.3068 9.97782 10.2789C9.97948 10.251 9.98662 10.2236 9.99883 10.1985C10.011 10.1734 10.0281 10.1509 10.049 10.1323C10.0699 10.1137 10.0943 10.0995 10.1207 10.0903C10.1471 10.0812 10.1751 10.0773 10.203 10.079C10.2309 10.0806 10.2582 10.0878 10.2833 10.1C10.3085 10.1121 10.331 10.1291 10.3496 10.1499C10.3682 10.1708 10.3825 10.1951 10.3917 10.2215C10.4009 10.2479 10.4048 10.2758 10.4032 10.3037C10.4016 10.3316 10.3945 10.3589 10.3823 10.384ZM10.9003 12.812C10.8279 12.7706 10.7643 12.7153 10.7134 12.6492C10.6624 12.5832 10.6249 12.5077 10.6032 12.4271C10.5814 12.3466 10.5758 12.2625 10.5866 12.1798C10.5975 12.097 10.6246 12.0172 10.6663 11.945C10.7511 11.7991 10.8902 11.6926 11.0532 11.649C11.2163 11.6053 11.39 11.628 11.5363 11.712C11.8413 11.887 11.9463 12.2755 11.7708 12.579C11.6861 12.725 11.547 12.8316 11.384 12.8752C11.2209 12.9189 11.0467 12.8962 10.9003 12.812ZM9.40533 12.046C9.34398 12.011 9.29016 11.9641 9.24698 11.9082C9.20379 11.8523 9.17208 11.7884 9.15368 11.7202C9.13528 11.652 9.13055 11.5808 9.13975 11.5107C9.14896 11.4407 9.17193 11.3731 9.20733 11.312C9.27905 11.1884 9.3968 11.0983 9.53482 11.0612C9.67283 11.0242 9.81989 11.0434 9.94383 11.1145C10.2018 11.2625 10.2903 11.5915 10.1418 11.8485C10.0702 11.9722 9.95245 12.0624 9.8144 12.0995C9.67634 12.1365 9.52924 12.1173 9.40533 12.046ZM8.30433 11.126C8.25241 11.0963 8.20687 11.0566 8.17033 11.0093C8.13379 10.9619 8.10697 10.9078 8.0914 10.8501C8.07584 10.7923 8.07184 10.7321 8.07963 10.6727C8.08743 10.6134 8.10687 10.5563 8.13683 10.5045C8.19756 10.4 8.2972 10.3238 8.41395 10.2926C8.53071 10.2614 8.65507 10.2777 8.75983 10.338C8.8116 10.3677 8.85701 10.4072 8.89346 10.4545C8.92991 10.5017 8.95668 10.5556 8.97224 10.6132C8.9878 10.6708 8.99184 10.7309 8.98413 10.7901C8.97643 10.8493 8.95712 10.9063 8.92733 10.958C8.86695 11.0628 8.76741 11.1394 8.6506 11.1709C8.53378 11.2024 8.40924 11.1863 8.30433 11.126ZM7.55383 10.139C7.50964 10.1134 7.47092 10.0794 7.43988 10.0389C7.40884 9.99832 7.38609 9.95206 7.37293 9.90273C7.35977 9.8534 7.35645 9.80196 7.36317 9.75135C7.36988 9.70073 7.3865 9.65194 7.41208 9.60775C7.43765 9.56356 7.47168 9.52484 7.51222 9.4938C7.55276 9.46276 7.59902 9.44001 7.64835 9.42685C7.69768 9.41369 7.74912 9.41037 7.79973 9.41709C7.85035 9.4238 7.89914 9.44042 7.94333 9.466C8.12933 9.573 8.19333 9.8105 8.08583 9.996C8.03416 10.0854 7.94913 10.1507 7.8494 10.1775C7.74966 10.2043 7.64337 10.1905 7.55383 10.139ZM7.11233 9.176C7.07428 9.15423 7.04091 9.12516 7.01413 9.09046C6.98734 9.05576 6.96767 9.01611 6.95624 8.97379C6.94482 8.93147 6.94186 8.88731 6.94753 8.84385C6.95321 8.80038 6.96741 8.75846 6.98933 8.7205C7.03387 8.64371 7.10702 8.5877 7.19277 8.56474C7.27852 8.54178 7.36988 8.55374 7.44683 8.598C7.60683 8.69 7.66183 8.894 7.56983 9.053C7.52547 9.12998 7.45235 9.18618 7.36655 9.20925C7.28076 9.23231 7.18931 9.22035 7.11233 9.176ZM6.91783 8.2875C6.88517 8.26875 6.85653 8.24373 6.83357 8.21388C6.8106 8.18403 6.79376 8.14994 6.784 8.11356C6.77424 8.07719 6.77177 8.03924 6.77672 8.00191C6.78166 7.96457 6.79394 7.92858 6.81283 7.896C6.85108 7.8303 6.91376 7.7824 6.98719 7.76273C7.06063 7.74306 7.13886 7.75322 7.20483 7.791C7.23743 7.80984 7.266 7.83493 7.28891 7.86481C7.31182 7.8947 7.32861 7.9288 7.33834 7.96518C7.34807 8.00156 7.35053 8.03949 7.3456 8.07683C7.34066 8.11416 7.32842 8.15015 7.30958 8.18275C7.29074 8.21535 7.26565 8.24392 7.23577 8.26683C7.20588 8.28974 7.17178 8.30653 7.1354 8.31626C7.09902 8.32599 7.06108 8.32845 7.02375 8.32352C6.98642 8.31858 6.95043 8.30634 6.91783 8.2875ZM8.79283 13.2505C8.72181 13.2506 8.65146 13.2368 8.5858 13.2097C8.52014 13.1826 8.46046 13.1429 8.41017 13.0927C8.35988 13.0426 8.31997 12.983 8.29271 12.9174C8.26546 12.8518 8.2514 12.7815 8.25133 12.7105C8.2514 12.6395 8.26546 12.5692 8.29272 12.5037C8.31998 12.4381 8.3599 12.3786 8.4102 12.3285C8.46049 12.2783 8.52018 12.2386 8.58584 12.2116C8.65149 12.1846 8.72183 12.1708 8.79283 12.171C9.09183 12.171 9.33433 12.4125 9.33433 12.711C9.33433 13.009 9.09183 13.2505 8.79283 13.2505ZM7.33383 12.1815C7.28988 12.1406 7.25445 12.0914 7.22957 12.0367C7.20469 11.982 7.19085 11.923 7.18886 11.863C7.18686 11.8029 7.19674 11.7431 7.21793 11.6869C7.23912 11.6307 7.2712 11.5793 7.31233 11.5355C7.39571 11.447 7.51073 11.3951 7.63225 11.3912C7.75377 11.3873 7.8719 11.4316 7.96083 11.5145C8.14583 11.687 8.15483 11.976 7.98183 12.1605C7.89847 12.2488 7.78356 12.3006 7.66216 12.3046C7.54076 12.3085 7.42273 12.2643 7.33383 12.1815ZM6.60133 11.2075C6.56422 11.1728 6.53433 11.1311 6.51336 11.0849C6.49239 11.0386 6.48076 10.9887 6.47913 10.9379C6.47751 10.8871 6.48592 10.8365 6.50388 10.789C6.52185 10.7415 6.54902 10.698 6.58383 10.661C6.65422 10.5861 6.75141 10.5422 6.85411 10.5388C6.95682 10.5355 7.05668 10.5729 7.13183 10.643C7.16909 10.6776 7.19913 10.7192 7.22022 10.7655C7.24131 10.8117 7.25303 10.8617 7.2547 10.9125C7.25637 10.9633 7.24797 11.0139 7.22997 11.0615C7.21197 11.109 7.18473 11.1525 7.14983 11.1895C7.07935 11.2644 6.98208 11.3083 6.87929 11.3117C6.77651 11.3151 6.67657 11.2776 6.60133 11.2075ZM6.17183 10.2455C6.14009 10.2159 6.11452 10.1804 6.09657 10.1409C6.07863 10.1014 6.06868 10.0587 6.06728 10.0154C6.06589 9.97201 6.07308 9.92881 6.08845 9.88824C6.10382 9.84768 6.12706 9.81055 6.15683 9.779C6.21696 9.7151 6.29994 9.6776 6.38763 9.67469C6.47533 9.67179 6.56061 9.70372 6.62483 9.7635C6.65656 9.79312 6.68213 9.8287 6.70009 9.86822C6.71804 9.90774 6.72803 9.9504 6.72947 9.99378C6.7309 10.0372 6.72377 10.0804 6.70848 10.121C6.69318 10.1616 6.67002 10.1988 6.64033 10.2305C6.58012 10.2945 6.497 10.332 6.40918 10.3348C6.32136 10.3376 6.23601 10.3055 6.17183 10.2455ZM5.99383 9.3635C5.96664 9.33808 5.94473 9.30755 5.92936 9.27365C5.91398 9.23975 5.90545 9.20315 5.90424 9.16595C5.90303 9.12874 5.90918 9.09167 5.92232 9.05684C5.93546 9.02202 5.95534 8.99013 5.98083 8.963C6.03245 8.90789 6.10382 8.87551 6.17929 8.87298C6.25475 8.87045 6.32814 8.89797 6.38333 8.9495C6.49833 9.0565 6.50333 9.236 6.39633 9.3505C6.34465 9.40554 6.27323 9.43782 6.19777 9.44026C6.12231 9.4427 6.04896 9.41509 5.99383 9.3635ZM6.00583 8.5905C5.98238 8.56873 5.96348 8.54254 5.9502 8.51343C5.93692 8.48432 5.92954 8.45287 5.92847 8.42089C5.9274 8.38892 5.93267 8.35705 5.94397 8.32712C5.95528 8.29718 5.97239 8.26979 5.99433 8.2465C6.03877 8.19936 6.10006 8.17174 6.16481 8.16968C6.22956 8.16762 6.29249 8.19128 6.33983 8.2355C6.38106 8.28106 6.40362 8.34048 6.40303 8.40193C6.40243 8.46337 6.37872 8.52234 6.33661 8.56709C6.29451 8.61185 6.23709 8.63911 6.1758 8.64345C6.1145 8.64778 6.05382 8.62888 6.00583 8.5905ZM6.34333 12.8705C6.30933 12.8206 6.28551 12.7645 6.27324 12.7053C6.26097 12.6462 6.26049 12.5852 6.27182 12.5259C6.28316 12.4666 6.30608 12.4101 6.33929 12.3597C6.37249 12.3092 6.41533 12.2659 6.46533 12.232C6.5665 12.1633 6.69078 12.1375 6.81094 12.1603C6.9311 12.183 7.03732 12.2525 7.10633 12.3535C7.14038 12.4033 7.16424 12.4594 7.17654 12.5185C7.18884 12.5776 7.18934 12.6386 7.178 12.6979C7.16666 12.7572 7.14371 12.8136 7.11048 12.864C7.07724 12.9144 7.03437 12.9577 6.98433 12.9915C6.88318 13.0601 6.75898 13.0859 6.63886 13.0633C6.51875 13.0406 6.4125 12.9713 6.34333 12.8705ZM5.62033 11.9025C5.59128 11.8601 5.57091 11.8123 5.56039 11.762C5.54986 11.7116 5.5494 11.6597 5.55902 11.6092C5.56864 11.5587 5.58815 11.5106 5.61644 11.4677C5.64472 11.4247 5.68122 11.3878 5.72383 11.359C5.80987 11.3007 5.91546 11.2789 6.01756 11.2982C6.11967 11.3175 6.20999 11.3764 6.26883 11.462C6.29788 11.5044 6.31825 11.5522 6.32877 11.6025C6.3393 11.6529 6.33976 11.7048 6.33014 11.7553C6.32052 11.8058 6.30101 11.8539 6.27272 11.8968C6.24444 11.9398 6.20794 11.9767 6.16533 12.0055C6.07933 12.0639 5.9737 12.0859 5.87156 12.0665C5.76942 12.0472 5.67908 11.9883 5.62033 11.9025ZM5.19133 10.961C5.16633 10.9244 5.14881 10.8831 5.13978 10.8397C5.13075 10.7963 5.13038 10.7515 5.13869 10.7079C5.14701 10.6643 5.16385 10.6228 5.18824 10.5858C5.21263 10.5487 5.24409 10.5169 5.28083 10.492C5.35518 10.4416 5.44644 10.4227 5.53468 10.4394C5.62293 10.4561 5.70099 10.507 5.75183 10.581C5.77696 10.6177 5.79457 10.659 5.80365 10.7026C5.81273 10.7461 5.8131 10.7911 5.80473 10.8347C5.79637 10.8784 5.77943 10.92 5.75491 10.9572C5.73038 10.9943 5.69874 11.0262 5.66183 11.051C5.5874 11.1011 5.49617 11.1198 5.40804 11.1029C5.3199 11.0861 5.24201 11.0351 5.19133 10.961ZM5.01133 10.084C4.98962 10.0522 4.9744 10.0164 4.96655 9.97865C4.9587 9.94093 4.95836 9.90203 4.96556 9.86417C4.97276 9.82632 4.98735 9.79026 5.0085 9.75806C5.02965 9.72586 5.05695 9.69814 5.08883 9.6765C5.1534 9.63271 5.23268 9.61628 5.30933 9.63081C5.38598 9.64533 5.45376 9.68963 5.49783 9.754C5.51964 9.78582 5.53494 9.82164 5.54283 9.85941C5.55072 9.89717 5.55104 9.93612 5.54379 9.97401C5.53654 10.0119 5.52185 10.048 5.50057 10.0802C5.4793 10.1123 5.45185 10.14 5.41983 10.1615C5.3553 10.2051 5.27614 10.2215 5.19961 10.207C5.12308 10.1924 5.05539 10.1482 5.01133 10.084ZM5.03133 9.316C5.01275 9.28884 4.99972 9.25827 4.99299 9.22606C4.98625 9.19385 4.98594 9.16063 4.99207 9.12829C4.9982 9.09596 5.01066 9.06516 5.02872 9.03765C5.04678 9.01015 5.0701 8.98648 5.09733 8.968C5.15247 8.93054 5.22021 8.91645 5.28571 8.92882C5.35122 8.94119 5.40915 8.97901 5.44683 9.034C5.47975 9.0891 5.49035 9.15471 5.47647 9.21737C5.46258 9.28004 5.42526 9.33503 5.37215 9.37107C5.31905 9.40712 5.25416 9.42149 5.1908 9.41125C5.12744 9.40102 5.07038 9.36694 5.03133 9.316ZM5.18833 8.6745C5.17171 8.65135 5.15989 8.62511 5.15357 8.59732C5.14725 8.56953 5.14655 8.54076 5.15153 8.5127C5.1565 8.48464 5.16705 8.45786 5.18253 8.43394C5.19802 8.41001 5.21814 8.38944 5.24171 8.37341C5.26528 8.35739 5.29181 8.34625 5.31976 8.34064C5.3477 8.33504 5.37648 8.33508 5.4044 8.34077C5.43233 8.34647 5.45883 8.35769 5.48234 8.37379C5.50586 8.38989 5.52592 8.41053 5.54133 8.4345C5.57144 8.48133 5.58207 8.53807 5.57095 8.59262C5.55982 8.64718 5.52783 8.69522 5.48179 8.72653C5.43575 8.75783 5.3793 8.76991 5.32448 8.76019C5.26966 8.75047 5.2208 8.71972 5.18833 8.6745ZM2.81833 7.9035C2.96467 7.81933 3.1384 7.7966 3.30146 7.84027C3.46453 7.88394 3.60364 7.99046 3.68833 8.1365C3.73005 8.20873 3.7571 8.28848 3.76794 8.37118C3.77878 8.45389 3.7732 8.53792 3.7515 8.61846C3.72981 8.699 3.69244 8.77447 3.64153 8.84054C3.59062 8.90661 3.52718 8.96199 3.45483 9.0035C3.14983 9.1785 2.76083 9.074 2.58533 8.771C2.54351 8.69878 2.51637 8.61901 2.50545 8.53628C2.49453 8.45354 2.50005 8.36947 2.5217 8.28887C2.54335 8.20827 2.58069 8.13274 2.6316 8.06661C2.6825 8.00048 2.74596 7.94505 2.81833 7.9035ZM4.23333 6.9985C4.35716 6.927 4.50429 6.90754 4.64246 6.94438C4.78062 6.98121 4.89853 7.07134 4.97033 7.195C5.11883 7.4525 5.03033 7.781 4.77233 7.9295C4.64842 8.00053 4.50145 8.01968 4.36348 7.98278C4.22551 7.94587 4.10773 7.8559 4.03583 7.7325C4.00039 7.67135 3.97739 7.6038 3.96814 7.53373C3.95889 7.46366 3.96358 7.39246 3.98193 7.3242C4.00028 7.25595 4.03194 7.192 4.07508 7.13602C4.11823 7.08004 4.172 7.03363 4.23333 6.9985ZM5.58383 6.51C5.68862 6.44987 5.81293 6.43363 5.92965 6.46482C6.04637 6.49602 6.14601 6.57211 6.20683 6.6765C6.23668 6.72827 6.25604 6.78542 6.2638 6.84467C6.27156 6.90393 6.26758 6.96413 6.25207 7.02184C6.23656 7.07956 6.20984 7.13365 6.17342 7.18103C6.137 7.22842 6.09161 7.26816 6.03983 7.298C5.93498 7.35809 5.81062 7.37425 5.69389 7.34296C5.57717 7.31167 5.47757 7.23547 5.41683 7.131C5.38692 7.07928 5.36752 7.02217 5.35973 6.96294C5.35194 6.90371 5.35592 6.84353 5.37143 6.78584C5.38694 6.72815 5.41369 6.67408 5.45014 6.62675C5.48659 6.57942 5.53202 6.53974 5.58383 6.51ZM6.81733 6.357C6.90681 6.3055 7.01306 6.29158 7.11278 6.31829C7.21251 6.345 7.29757 6.41017 7.34933 6.4995C7.37485 6.54364 7.39141 6.59238 7.39806 6.64293C7.40471 6.69348 7.40132 6.74484 7.38808 6.79408C7.37484 6.84331 7.35202 6.88945 7.32091 6.92985C7.28981 6.97025 7.25104 7.00411 7.20683 7.0295C7.16248 7.05516 7.11351 7.07182 7.06272 7.07855C7.01192 7.08527 6.9603 7.08192 6.9108 7.06869C6.86131 7.05545 6.8149 7.0326 6.77424 7.00142C6.73358 6.97025 6.69946 6.93137 6.67383 6.887C6.64835 6.8428 6.63185 6.79401 6.62527 6.74342C6.6187 6.69283 6.62218 6.64144 6.63551 6.5922C6.64884 6.54296 6.67177 6.49683 6.70297 6.45647C6.73417 6.41611 6.77303 6.3823 6.81733 6.357ZM7.87433 6.459C7.9512 6.41476 8.04248 6.40282 8.12815 6.42578C8.21382 6.44874 8.28689 6.50474 8.33133 6.5815C8.37005 6.65802 8.37795 6.74646 8.35341 6.82863C8.32887 6.9108 8.27375 6.98042 8.19941 7.02317C8.12507 7.06592 8.03717 7.07853 7.95381 7.0584C7.87045 7.03828 7.79798 6.98695 7.75133 6.915C7.72934 6.87701 7.71507 6.83506 7.70935 6.79154C7.70363 6.74802 7.70657 6.7038 7.718 6.66142C7.72943 6.61904 7.74913 6.57934 7.77596 6.5446C7.80279 6.50986 7.83622 6.48077 7.87433 6.459ZM8.74333 6.736C8.80938 6.6982 8.88768 6.68802 8.9612 6.70769C9.03471 6.72735 9.09748 6.77527 9.13583 6.841C9.15479 6.87356 9.16712 6.90956 9.1721 6.94691C9.17708 6.98426 9.17462 7.02222 9.16486 7.05862C9.1551 7.09501 9.13823 7.12911 9.11523 7.15896C9.09222 7.1888 9.06354 7.2138 9.03083 7.2325C8.99823 7.25138 8.96223 7.26365 8.92489 7.26861C8.88754 7.27358 8.84959 7.27114 8.81319 7.26144C8.77679 7.25173 8.74265 7.23495 8.71274 7.21206C8.68282 7.18916 8.65771 7.1606 8.63883 7.128C8.61995 7.0954 8.60768 7.0594 8.60272 7.02206C8.59775 6.98471 8.60019 6.94676 8.60989 6.91036C8.6196 6.87396 8.63638 6.83982 8.65927 6.80991C8.68217 6.77999 8.71073 6.75488 8.74333 6.736ZM3.80683 5.62C3.94421 5.57856 4.09242 5.5933 4.21895 5.66097C4.34549 5.72864 4.44002 5.84373 4.48183 5.981C4.51463 6.11578 4.49451 6.25801 4.4256 6.3784C4.3567 6.49879 4.24425 6.58818 4.11143 6.62816C3.9786 6.66815 3.8355 6.65568 3.71158 6.59333C3.58767 6.53098 3.49238 6.42349 3.44533 6.293C3.42464 6.22508 3.4176 6.15374 3.42459 6.08308C3.43158 6.01242 3.45248 5.94385 3.48608 5.8813C3.51968 5.81875 3.56531 5.76346 3.62036 5.71862C3.67541 5.67377 3.73878 5.64026 3.80683 5.62ZM5.15383 5.1435C5.26818 5.11387 5.38956 5.12962 5.49256 5.18745C5.59556 5.24528 5.67221 5.34071 5.70644 5.45376C5.74068 5.56682 5.72987 5.68874 5.67626 5.794C5.62265 5.89926 5.5304 5.97971 5.41883 6.0185C5.36138 6.0359 5.30106 6.04181 5.24132 6.0359C5.18158 6.02999 5.12359 6.01237 5.07066 5.98405C4.96377 5.92685 4.88397 5.82953 4.84883 5.7135C4.81369 5.59747 4.82608 5.47223 4.88328 5.36533C4.94048 5.25844 5.0378 5.17864 5.15383 5.1435ZM6.36683 5C6.46496 4.97036 6.57084 4.98092 6.66119 5.02935C6.75154 5.07778 6.81894 5.16012 6.84858 5.25825C6.87822 5.35638 6.86766 5.46226 6.81923 5.55261C6.7708 5.64296 6.68846 5.71036 6.59033 5.74C6.54174 5.75467 6.49074 5.75964 6.44023 5.7546C6.38972 5.74956 6.3407 5.73463 6.29597 5.71065C6.25123 5.68667 6.21166 5.65411 6.17951 5.61484C6.14736 5.57556 6.12325 5.53034 6.10858 5.48175C6.0939 5.43316 6.08894 5.38216 6.09398 5.33165C6.09902 5.28114 6.11395 5.23212 6.13793 5.18739C6.16191 5.14266 6.19447 5.10308 6.23374 5.07093C6.27302 5.03878 6.31824 5.01468 6.36683 5ZM7.41683 5.1115C7.5007 5.08617 7.59121 5.0952 7.66842 5.1366C7.74564 5.178 7.80325 5.24838 7.82858 5.33225C7.85391 5.41612 7.84488 5.50663 7.80348 5.58384C7.76208 5.66106 7.6917 5.71867 7.60783 5.744C7.52382 5.76923 7.43324 5.76014 7.35593 5.71872C7.27861 5.67729 7.22086 5.60692 7.19533 5.523C7.1828 5.48141 7.17861 5.43775 7.183 5.39453C7.18738 5.35131 7.20025 5.30938 7.22088 5.27115C7.24151 5.23292 7.26948 5.19914 7.30319 5.17174C7.3369 5.14434 7.37569 5.12387 7.41733 5.1115H7.41683ZM8.27183 5.4C8.34248 5.38263 8.4171 5.39303 8.48031 5.42907C8.54351 5.46511 8.59047 5.52403 8.61151 5.59367C8.63255 5.66332 8.62605 5.73839 8.59336 5.80339C8.56067 5.86838 8.50428 5.91836 8.43583 5.943C8.40018 5.95377 8.36275 5.95741 8.32569 5.95371C8.28863 5.95002 8.25266 5.93906 8.21983 5.92146C8.18701 5.90387 8.15797 5.87998 8.13438 5.85116C8.11078 5.82234 8.0931 5.78915 8.08233 5.7535C8.07156 5.71785 8.06792 5.68042 8.07162 5.64336C8.07531 5.6063 8.08627 5.57033 8.10387 5.5375C8.12146 5.50468 8.14535 5.47564 8.17417 5.45205C8.20299 5.42845 8.23618 5.41077 8.27183 5.4ZM8.93683 5.7975C8.96743 5.78821 8.99956 5.78504 9.03138 5.78816C9.0632 5.79129 9.0941 5.80065 9.12231 5.81572C9.15051 5.83078 9.17548 5.85126 9.19577 5.87597C9.21606 5.90068 9.23129 5.92915 9.24058 5.95975C9.24987 5.99035 9.25304 6.02248 9.24992 6.0543C9.24679 6.08613 9.23743 6.11702 9.22236 6.14523C9.2073 6.17343 9.18682 6.1984 9.16211 6.21869C9.1374 6.23898 9.10893 6.25421 9.07833 6.2635C9.01653 6.28226 8.94982 6.27571 8.89285 6.24528C8.83589 6.21486 8.79334 6.16305 8.77458 6.10125C8.75582 6.03945 8.76237 5.97274 8.7928 5.91577C8.82322 5.85881 8.87503 5.81626 8.93683 5.7975ZM5.05183 3.944C5.11219 3.93936 5.17288 3.94669 5.23041 3.96555C5.28793 3.98442 5.34117 4.01446 5.38706 4.05394C5.43296 4.09342 5.47061 4.14158 5.49785 4.19564C5.5251 4.24971 5.5414 4.30862 5.54583 4.369C5.55471 4.491 5.51477 4.61153 5.43479 4.70408C5.3548 4.79663 5.24133 4.85362 5.11933 4.8625C4.99733 4.87138 4.8768 4.83144 4.78425 4.75146C4.6917 4.67147 4.63471 4.558 4.62583 4.436C4.62147 4.37568 4.62905 4.31509 4.64814 4.2577C4.66722 4.20031 4.69744 4.14725 4.73705 4.10156C4.77667 4.05586 4.8249 4.01842 4.879 3.99138C4.9331 3.96435 4.9915 3.94825 5.05183 3.944ZM6.25533 3.805C6.35579 3.8027 6.45328 3.83912 6.52763 3.90671C6.60199 3.9743 6.6475 4.06789 6.65476 4.16811C6.66202 4.26833 6.63047 4.36751 6.56663 4.44511C6.5028 4.52271 6.41157 4.5728 6.31183 4.585C6.25918 4.59144 6.20577 4.58712 6.15485 4.57229C6.10392 4.55746 6.05654 4.53244 6.01557 4.49875C5.97461 4.46505 5.94092 4.42338 5.91655 4.37627C5.89218 4.32916 5.87764 4.27758 5.87381 4.22468C5.86998 4.17178 5.87694 4.11865 5.89426 4.06852C5.91159 4.01839 5.93892 3.9723 5.9746 3.93305C6.01028 3.8938 6.05356 3.86221 6.10182 3.8402C6.15007 3.81819 6.2023 3.80621 6.25533 3.805ZM7.28733 3.907C7.37358 3.90592 7.45699 3.93781 7.52052 3.99616C7.58405 4.0545 7.62292 4.1349 7.62917 4.22093C7.63542 4.30696 7.6086 4.39213 7.55417 4.45905C7.49975 4.52597 7.42183 4.56959 7.33633 4.581C7.24828 4.58514 7.1621 4.55472 7.09616 4.49623C7.03022 4.43773 6.98973 4.35579 6.98334 4.26788C6.97695 4.17997 7.00516 4.09303 7.06194 4.02562C7.11873 3.9582 7.19961 3.91564 7.28733 3.907ZM8.13883 4.191C8.21462 4.1885 8.28844 4.21543 8.34482 4.26615C8.40119 4.31687 8.43575 4.38744 8.44124 4.46307C8.44674 4.53871 8.42275 4.61353 8.37429 4.67187C8.32584 4.7302 8.25669 4.76752 8.18133 4.776C8.14206 4.78042 8.1023 4.77686 8.06444 4.76554C8.02657 4.75422 7.99139 4.73537 7.96099 4.71012C7.93059 4.68487 7.9056 4.65374 7.88752 4.6186C7.86944 4.58345 7.85865 4.54502 7.85579 4.50561C7.85292 4.46619 7.85805 4.4266 7.87086 4.38922C7.88367 4.35183 7.90389 4.31742 7.93032 4.28804C7.95675 4.25866 7.98885 4.23492 8.02468 4.21825C8.0605 4.20157 8.09933 4.1923 8.13883 4.191Z" fill="white"/>
</g>
<defs>
<clipPath id="clip0_7_7814">
<rect width="16" height="16" fill="white"/>
</clipPath>
</defs>
</svg>
