<svg width="16" height="16" viewBox="0 0 16 16" fill="none" xmlns="http://www.w3.org/2000/svg">
<g clip-path="url(#clip0_7_7813)">
<path d="M8 16C12.4183 16 16 12.4183 16 8C16 3.58172 12.4183 0 8 0C3.58172 0 0 3.58172 0 8C0 12.4183 3.58172 16 8 16Z" fill="#00316D"/>
<path d="M9.07791 9.94348C9.07141 9.93148 9.07041 9.92648 9.06791 9.92498C8.75791 9.77848 8.44791 9.63148 8.13691 9.48698C8.12041 9.47898 8.08691 9.48098 8.07641 9.49248C7.94141 9.63748 7.80941 9.78598 7.67541 9.93448C7.77241 10.006 8.99691 10.0065 9.07791 9.94348ZM6.24091 6.36198L6.20991 6.29698C6.18391 6.31548 6.14991 6.32898 6.13291 6.35398C5.84648 6.78013 5.56181 7.20747 5.27891 7.63598C5.26141 7.66298 5.26241 7.70248 5.25391 7.73598C5.28891 7.72898 5.32791 7.73048 5.35641 7.71298C5.5993 7.56691 5.83999 7.41722 6.07841 7.26398C6.12032 7.23443 6.14917 7.18982 6.15891 7.13948C6.19091 6.88948 6.21291 6.63798 6.24091 6.36198ZM12.2394 9.98698H12.6524C12.7319 9.98698 12.7624 9.95698 12.7119 9.88048C12.4494 9.47948 12.1879 9.07798 11.9244 8.67848C11.9104 8.65648 11.8784 8.64698 11.8544 8.63198C11.8419 8.65698 11.8204 8.68198 11.8179 8.70848C11.7874 9.09948 11.7599 9.49048 11.7299 9.88148C11.7244 9.95598 11.7504 9.98948 11.8264 9.98798C11.9639 9.98498 12.1014 9.98698 12.2394 9.98698ZM3.37241 9.95698C3.43541 9.97198 3.46641 9.98598 3.49691 9.98648C3.94341 9.98748 4.38991 9.98648 4.83591 9.98748C4.92241 9.98748 4.94441 9.95698 4.90791 9.87348C4.76784 9.55581 4.63083 9.23679 4.49691 8.91648C4.45791 8.82298 4.42191 8.82748 4.36041 8.89348C4.12241 9.15048 3.88241 9.40498 3.64341 9.66048C3.55991 9.75048 3.47841 9.84048 3.37241 9.95698ZM9.96991 7.65048C9.99891 7.70698 10.0084 7.73148 10.0229 7.75248L10.6269 8.62948C10.8764 8.99198 11.1254 9.35448 11.3769 9.71548C11.3939 9.74048 11.4269 9.75398 11.4519 9.77248C11.4649 9.74248 11.4859 9.71398 11.4899 9.68298C11.4999 9.59798 11.5019 9.51298 11.5074 9.42798C11.5344 9.04048 11.5644 8.65348 11.5874 8.26648C11.5974 8.10148 11.5259 8.01648 11.3694 7.97748C10.9519 7.87298 10.5344 7.76798 10.1164 7.66448C10.0789 7.65548 10.0394 7.65698 9.96991 7.65048ZM9.86391 5.08298L9.82591 5.08948C9.82091 5.16598 9.81341 5.24298 9.81091 5.32048L9.75541 7.20598C9.75291 7.27498 9.77341 7.31098 9.84491 7.32798C10.2779 7.43298 10.7099 7.54348 11.1429 7.64998C11.1804 7.65898 11.2219 7.65048 11.2614 7.64998C11.2514 7.61148 11.2494 7.56798 11.2309 7.53398C10.7994 6.74898 10.3669 5.96398 9.93341 5.17998C9.91441 5.14548 9.88741 5.11498 9.86391 5.08298ZM7.92141 8.93648C7.93341 8.86998 7.94491 8.82998 7.94641 8.78998C7.95291 8.58048 7.95341 8.37098 7.96291 8.16148C7.97188 8.00186 7.92445 7.84416 7.82891 7.71598C7.43192 7.16514 7.03609 6.61347 6.64141 6.06098C6.62341 6.03598 6.61591 6.00348 6.60341 5.97448L6.55641 6.00248C6.54491 6.04448 6.52691 6.08598 6.52241 6.12848C6.48741 6.46848 6.45741 6.80848 6.41991 7.14748C6.4142 7.18315 6.41698 7.21966 6.42801 7.25406C6.43904 7.28846 6.45802 7.31978 6.48341 7.34548C6.93091 7.84398 7.37541 8.34548 7.82191 8.84548C7.84591 8.87248 7.87491 8.89448 7.92141 8.93648ZM8.20991 8.83198L8.23991 8.85198C8.26741 8.83048 8.29991 8.81348 8.32191 8.78698C8.70208 8.32541 9.08092 7.86274 9.45841 7.39898C9.48156 7.36958 9.49517 7.33382 9.49741 7.29648C9.51541 6.67898 9.53091 6.06148 9.54491 5.44398C9.54591 5.40998 9.52641 5.37548 9.51591 5.34148C9.48841 5.36798 9.44991 5.38948 9.43441 5.42148C9.08441 6.16248 8.74991 6.91098 8.38291 7.64248C8.18891 8.02948 8.21991 8.42898 8.20991 8.83248M6.45841 9.98748C6.69891 9.98748 6.93991 9.99098 7.18041 9.98448C7.23531 9.98187 7.28745 9.9597 7.32741 9.92198C7.49491 9.74648 7.65191 9.56048 7.81891 9.38448C7.88141 9.31948 7.86741 9.27948 7.81441 9.22148C7.53224 8.91543 7.25256 8.60709 6.97541 8.29648C6.90841 8.22148 6.86991 8.22198 6.80991 8.30398C6.42941 8.82448 6.04491 9.34148 5.66241 9.86098C5.64341 9.88698 5.63641 9.92148 5.62341 9.95198C5.65691 9.96398 5.69041 9.98548 5.72441 9.98548C5.96941 9.98848 6.21341 9.98748 6.45841 9.98748ZM6.70741 8.00448C6.57441 7.84998 6.44391 7.70448 6.32041 7.55198C6.26841 7.48848 6.22841 7.48198 6.15841 7.52548C5.74041 7.78848 5.31791 8.04448 4.90091 8.30898C4.82541 8.35698 4.76591 8.43148 4.70191 8.49698C4.64241 8.55798 4.65041 8.62498 4.68291 8.69998C4.84541 9.07148 5.00391 9.44448 5.16441 9.81698C5.22541 9.95698 5.24841 9.95948 5.34191 9.83448C5.58941 9.50448 5.83591 9.17298 6.08241 8.84248L6.70741 8.00448ZM9.60491 7.61048C9.57241 7.66298 9.55691 7.69498 9.53491 7.72098C9.13891 8.20398 8.74241 8.68698 8.34341 9.16798C8.27841 9.24648 8.31191 9.27748 8.38541 9.31098C8.84391 9.52098 9.30041 9.73448 9.75991 9.94348C9.81876 9.96998 9.88238 9.98427 9.94691 9.98548C10.3249 9.98898 10.7034 9.98798 11.0819 9.98598C11.1169 9.98598 11.1524 9.96998 11.1879 9.96098C11.1754 9.92398 11.1699 9.88148 11.1479 9.84998C10.7991 9.3406 10.4493 8.83194 10.0984 8.32398C9.94341 8.09898 9.78741 7.87398 9.60491 7.61048ZM7.99641 10.499C6.27541 10.499 4.55441 10.4985 2.83341 10.5C2.69941 10.5 2.57841 10.485 2.52041 10.341C2.46541 10.2045 2.52941 10.1035 2.61891 10.008C3.13291 9.45898 3.65391 8.91598 4.15391 8.35498C4.34491 8.14098 4.49241 7.88648 4.65391 7.64598C5.17141 6.87198 5.68491 6.09498 6.20491 5.32298C6.25591 5.24748 6.33391 5.17098 6.41591 5.14098C6.52891 5.09898 6.62541 5.16398 6.69741 5.26698C7.11591 5.86498 7.53741 6.46098 7.95791 7.05798C8.04441 7.17998 8.07541 7.17598 8.13941 7.03698L9.43641 4.21198C9.48741 4.10098 9.55491 4.00648 9.68641 4.00048C9.82391 3.99398 9.90741 4.07748 9.97191 4.19548C10.6229 5.37648 11.2589 6.56748 11.9354 7.73348C12.3444 8.43848 12.8179 9.10398 13.2624 9.78748C13.3174 9.87148 13.3729 9.95498 13.4269 10.04C13.4919 10.1425 13.5304 10.255 13.4694 10.3685C13.4094 10.4785 13.2984 10.4995 13.1819 10.4995C11.4534 10.4985 9.72491 10.499 7.99641 10.499Z" fill="white"/>
</g>
<defs>
<clipPath id="clip0_7_7813">
<rect width="16" height="16" fill="white"/>
</clipPath>
</defs>
</svg>
