<svg width="16" height="16" viewBox="0 0 16 16" fill="none" xmlns="http://www.w3.org/2000/svg">
<g clip-path="url(#clip0_7_7812)">
<path d="M8 16C12.4183 16 16 12.4183 16 8C16 3.58172 12.4183 0 8 0C3.58172 0 0 3.58172 0 8C0 12.4183 3.58172 16 8 16Z" fill="#1AAB9B"/>
<path d="M3.779 10.578V6.55548L6.8295 8.85148V10.578H7.6085V8.68998C7.60844 8.61955 7.59202 8.55009 7.56052 8.4871C7.52902 8.4241 7.48331 8.36929 7.427 8.32698L3.7275 5.54248C3.66005 5.49181 3.57983 5.46091 3.49581 5.45324C3.4118 5.44557 3.32731 5.46143 3.2518 5.49906C3.17629 5.53668 3.11274 5.59458 3.06827 5.66627C3.0238 5.73796 3.00016 5.82062 3 5.90498V10.578H3.779ZM12.216 10.578V6.55548L9.1655 8.85148V10.578H8.3865V8.68998C8.3865 8.54698 8.4535 8.41248 8.5675 8.32698L12.2675 5.54248C12.335 5.49178 12.4153 5.46088 12.4993 5.45323C12.5834 5.44558 12.6679 5.46149 12.7434 5.49917C12.8189 5.53686 12.8825 5.59483 12.9269 5.66659C12.9714 5.73836 12.9949 5.82107 12.995 5.90548V10.5785L12.216 10.578Z" fill="white"/>
</g>
<defs>
<clipPath id="clip0_7_7812">
<rect width="16" height="16" fill="white"/>
</clipPath>
</defs>
</svg>
