<svg width="16" height="16" viewBox="0 0 16 16" fill="none" xmlns="http://www.w3.org/2000/svg">
<g clip-path="url(#clip0_7_8112)">
<path d="M8 16C12.4183 16 16 12.4183 16 8C16 3.58172 12.4183 0 8 0C3.58172 0 0 3.58172 0 8C0 12.4183 3.58172 16 8 16Z" fill="#0B1529"/>
<path fill-rule="evenodd" clip-rule="evenodd" d="M4.3135 10.062L6.9495 11.608V12.4725L3.5 10.4425V5.1475L8 2.5L12.5 5.1475V10.4425L9.0505 12.4725V11.6075L11.686 10.062L11.006 9.669L11.095 9.5145L11.7665 9.9025V5.9765L8.3565 7.9975V13.7775L8 14L7.643 13.7775V7.9975L4.2335 5.9765V9.902L4.9045 9.5145L4.9935 9.6695L4.3135 10.062ZM7.901 3.407L4.59 5.3495L8 7.371L11.41 5.3495L8.0795 3.3955V4.1975H7.901V3.407ZM7.901 4.703H8.0795V5.5315H7.901V4.703ZM7.901 6.037H8.0795V6.8655L7.99 6.906L7.901 6.866V6.037ZM10.681 9.262L10.592 9.417L9.874 9.002L9.9635 8.8475L10.681 9.262ZM9.5485 8.595L9.459 8.75L8.7415 8.335L8.7515 8.238L8.8305 8.181L9.5485 8.595ZM5.3185 9.262L6.036 8.8475L6.1255 9.0025L5.408 9.4165L5.3185 9.262ZM6.4515 8.595L7.169 8.181L7.249 8.238L7.258 8.3355L6.5405 8.7495L6.4515 8.595Z" fill="white"/>
</g>
<defs>
<clipPath id="clip0_7_8112">
<rect width="16" height="16" fill="white"/>
</clipPath>
</defs>
</svg>
