<svg width="16" height="16" viewBox="0 0 16 16" fill="none" xmlns="http://www.w3.org/2000/svg">
<g clip-path="url(#clip0_7_7811)">
<path d="M8 16C12.4183 16 16 12.4183 16 8C16 3.58172 12.4183 0 8 0C3.58172 0 0 3.58172 0 8C0 12.4183 3.58172 16 8 16Z" fill="#00ADEF"/>
<path fill-rule="evenodd" clip-rule="evenodd" d="M7.4315 13.493C4.66 13.2025 2.5 10.854 2.5 8C2.5 5.146 4.66 2.7975 7.4315 2.507V4.192C6.52229 4.33214 5.69331 4.79322 5.09467 5.49174C4.49603 6.19026 4.1673 7.08005 4.168 8C4.1673 8.91995 4.49603 9.80974 5.09467 10.5083C5.69331 11.2068 6.52229 11.6679 7.4315 11.808V13.493ZM8.519 2.5C11.134 2.7395 13.2205 4.8085 13.493 7.4185H11.8115C11.6864 6.59552 11.2979 5.83526 10.7043 5.25166C10.1107 4.66807 9.34399 4.29259 8.519 4.1815V2.5ZM13.5 8.5085C13.259 11.1535 11.158 13.2585 8.519 13.5V11.8185C9.35651 11.7058 10.1337 11.3206 10.7306 10.7224C11.3275 10.1242 11.711 9.34625 11.822 8.5085H13.5Z" fill="white"/>
</g>
<defs>
<clipPath id="clip0_7_7811">
<rect width="16" height="16" fill="white"/>
</clipPath>
</defs>
</svg>
