<svg width="16" height="16" viewBox="0 0 16 16" fill="none" xmlns="http://www.w3.org/2000/svg">
<g clip-path="url(#clip0_7_8051)">
<path d="M8 16C12.4183 16 16 12.4183 16 8C16 3.58172 12.4183 0 8 0C3.58172 0 0 3.58172 0 8C0 12.4183 3.58172 16 8 16Z" fill="#7F368A"/>
<path d="M12.7849 10.658C12.8174 10.7895 12.6864 10.855 12.5879 10.8225H10.9489C10.8504 10.8225 10.7849 10.7895 10.7189 10.7565C10.6209 10.7235 10.5554 10.5925 10.5224 10.461V10.428L8.98144 4.74502C8.94894 4.74502 8.85044 4.84352 8.81744 4.84352C8.78494 4.87602 8.71894 4.90902 8.68644 4.87602C8.62094 4.84352 8.58794 4.74502 8.62094 4.67902C8.68594 4.51502 8.85044 4.41602 9.01444 4.38352C9.21094 4.35052 9.37494 4.35052 9.57144 4.35052H10.7849C10.8829 4.35052 10.9814 4.35052 11.0799 4.38352C11.1784 4.44902 11.2109 4.58052 11.2439 4.67902C11.3089 4.90902 11.3419 5.13902 11.4079 5.36902L12.1944 8.32603L12.4894 9.50852C12.5879 9.87002 12.7194 10.2645 12.7844 10.6585L12.7849 10.658ZM8.98144 10.658C9.01444 10.7895 8.88294 10.855 8.78494 10.8225H7.14544C7.04694 10.8225 6.98144 10.7895 6.91544 10.7565C6.81744 10.7235 6.75194 10.5925 6.71894 10.461V10.428L5.17844 4.74502C5.14544 4.74502 5.04694 4.84352 5.01444 4.84352C4.98144 4.87602 4.91594 4.90902 4.88294 4.87602C4.81794 4.84352 4.78494 4.74502 4.81794 4.67902C4.88294 4.51502 5.04694 4.41602 5.21094 4.38352C5.40794 4.35052 5.57144 4.35052 5.76844 4.35052H6.98144C7.07994 4.35052 7.17844 4.35052 7.27644 4.38352C7.37494 4.44902 7.40794 4.58052 7.44044 4.67902C7.50594 4.90902 7.53894 5.13902 7.60444 5.36902L8.39144 8.32603L8.68644 9.50852C8.78494 9.87002 8.91594 10.264 8.98144 10.658ZM5.96494 9.40952L5.57144 10.658C5.5533 10.7229 5.51486 10.7802 5.46177 10.8216C5.40868 10.8629 5.34373 10.8862 5.27644 10.888H3.53894C3.45194 10.8878 3.36859 10.853 3.30712 10.7915C3.24565 10.7299 3.21107 10.6465 3.21094 10.5595V10.4935L4.58794 5.30302C4.62094 5.23702 4.68644 5.17153 4.75194 5.17153C4.85044 5.17153 4.91594 5.23702 4.91594 5.30302L5.96494 9.40952ZM9.83394 9.31102L9.60444 10.001C9.57144 10.0665 9.53894 10.0995 9.47344 10.0995C9.40794 10.0995 9.37494 10.0665 9.34194 10.001L8.19444 5.99252L8.42444 5.17153C8.42444 5.10553 8.48944 5.07302 8.55544 5.07302C8.62044 5.07302 8.68644 5.10553 8.68644 5.17153L9.83394 9.31102Z" fill="white"/>
</g>
<defs>
<clipPath id="clip0_7_8051">
<rect width="16" height="16" fill="white"/>
</clipPath>
</defs>
</svg>
