<svg width="16" height="16" viewBox="0 0 16 16" fill="none" xmlns="http://www.w3.org/2000/svg">
<g clip-path="url(#clip0_7_7810)">
<path d="M8 16C12.4183 16 16 12.4183 16 8C16 3.58172 12.4183 0 8 0C3.58172 0 0 3.58172 0 8C0 12.4183 3.58172 16 8 16Z" fill="#DEC799"/>
<path d="M11.765 6.707L11.0525 3.5L9.654 5.707C8.56679 5.44448 7.43271 5.44448 6.3455 5.707L4.951 3.5L4.236 6.707C3.4685 7.321 3 8.1235 3 9.0045C3 10.9345 5.238 12.499 7.9985 12.499C10.759 12.499 12.997 10.934 12.997 9.0045C12.9965 8.1235 12.532 7.321 11.7645 6.707H11.765ZM5.221 8.175H4.888L5.7015 7.237H6.2935L5.221 8.175ZM7.973 10.467L6.59 8.031L6.9315 7.836L7.24 8.3785H8.7505L9.0725 7.8335L9.4105 8.0345L7.973 10.467ZM10.7795 8.175L9.7065 7.237H10.3025L11.115 8.175H10.7795ZM7.9795 9.6825L7.463 8.7725H8.517L7.9795 9.6825Z" fill="white"/>
</g>
<defs>
<clipPath id="clip0_7_7810">
<rect width="16" height="16" fill="white"/>
</clipPath>
</defs>
</svg>
