<svg width="16" height="16" viewBox="0 0 16 16" fill="none" xmlns="http://www.w3.org/2000/svg">
<g clip-path="url(#clip0_7_7809)">
<path d="M8 16C12.4183 16 16 12.4183 16 8C16 3.58172 12.4183 0 8 0C3.58172 0 0 3.58172 0 8C0 12.4183 3.58172 16 8 16Z" fill="#47B95C"/>
<path d="M8 3C5.24 3 3 5.24 3 8C3 8.0665 3.0065 8.13 3.01 8.1965H5.3565L6.49 6.2465L8 8.41L9.5065 6.2465L10.64 8.1965H12.9865C12.99 8.13 12.9965 8.0665 12.9965 8C13 5.24 10.76 3 8 3ZM11.4465 7.5935C11.2435 5.87 9.7765 4.53 8 4.53C6.2235 4.53 4.7565 5.8735 4.5535 7.5935H3.9465C4.15 5.5365 5.89 3.9265 8 3.9265C10.11 3.9265 11.8465 5.5365 12.0535 7.5935H11.4465Z" fill="white"/>
<path d="M9.46332 7.36652L7.99982 9.46652L6.53632 7.36652L5.70332 8.80002H3.06982C3.45332 11.18 5.50982 13 7.99982 13C10.4898 13 12.5463 11.18 12.9298 8.79652H10.2963L9.46332 7.36652ZM11.1733 9.40002H11.8198C11.2463 10.9565 9.75332 12.0735 7.99982 12.0735C6.24632 12.0735 4.75332 10.9565 4.17982 9.40002H4.82632C5.36632 10.6165 6.58332 11.47 7.99982 11.47C9.41632 11.47 10.6333 10.6165 11.1733 9.40002Z" fill="white"/>
</g>
<defs>
<clipPath id="clip0_7_7809">
<rect width="16" height="16" fill="white"/>
</clipPath>
</defs>
</svg>
