<svg width="16" height="16" viewBox="0 0 16 16" fill="none" xmlns="http://www.w3.org/2000/svg">
<g clip-path="url(#clip0_7_7830)">
<path d="M8 16C12.4183 16 16 12.4183 16 8C16 3.58172 12.4183 0 8 0C3.58172 0 0 3.58172 0 8C0 12.4183 3.58172 16 8 16Z" fill="#104FCA"/>
<path d="M3.5 4.784L5.617 8.3355V12C4.448 12 3.5 11.082 3.5 9.9495V4.784Z" fill="white" fill-opacity="0.5"/>
<path d="M10.3823 8.33154L12.4983 4.78204H12.4993V9.95004C12.4998 11.082 11.5518 12 10.3823 12V8.33154Z" fill="white" fill-opacity="0.6"/>
<path d="M7.9985 8.229L6.94 10.005C6.7205 9.95 6.4845 9.737 6.232 9.3665L3.5 4.784C4.5125 4.2175 5.8075 4.554 6.392 5.534L7.9985 8.229Z" fill="white" fill-opacity="0.8"/>
<path d="M9.60794 5.53002C10.1924 4.54902 11.4874 4.21302 12.4999 4.77952L9.76794 9.36202C9.57062 9.64806 9.30641 9.88158 8.99828 10.0423C8.69015 10.203 8.34744 10.2859 7.99994 10.284C7.67086 10.2847 7.34596 10.2103 7.04994 10.0665L6.93994 10.005L9.60794 5.53002Z" fill="white"/>
</g>
<defs>
<clipPath id="clip0_7_7830">
<rect width="16" height="16" fill="white"/>
</clipPath>
</defs>
</svg>
