<svg width="16" height="16" viewBox="0 0 16 16" fill="none" xmlns="http://www.w3.org/2000/svg">
<g clip-path="url(#clip0_7_7807)">
<path d="M8 16C12.4183 16 16 12.4183 16 8C16 3.58172 12.4183 0 8 0C3.58172 0 0 3.58172 0 8C0 12.4183 3.58172 16 8 16Z" fill="white"/>
<path d="M9.325 0.113C8.88723 0.0386267 8.44404 0.000829489 8 0C3.58 0 0 3.58 0 8C0 9.697 0.5335 11.265 1.43 12.5655C1.98 11.7575 3.2485 11.2 4.719 11.2C5.729 11.2 6.6425 11.4665 7.297 11.895L9.325 0.113ZM13.576 2.2705C14.9575 5.3255 13.7455 6.9575 13.7455 6.9575C12.808 4.1375 10.093 3.7255 10.093 3.7255C10.093 3.7255 8.307 13.3495 8.307 13.4705C8.307 14.513 7.2 15.394 5.697 15.6605C6.44402 15.8853 7.21989 15.9997 8 16C12.42 16 16 12.42 16 8C16 5.7535 15.0705 3.725 13.576 2.2705Z" fill="#FBBF02"/>
</g>
<defs>
<clipPath id="clip0_7_7807">
<rect width="16" height="16" fill="white"/>
</clipPath>
</defs>
</svg>
