<svg width="16" height="16" viewBox="0 0 16 16" fill="none" xmlns="http://www.w3.org/2000/svg">
<g clip-path="url(#clip0_7_7805)">
<path d="M8 16C12.4183 16 16 12.4183 16 8C16 3.58172 12.4183 0 8 0C3.58172 0 0 3.58172 0 8C0 12.4183 3.58172 16 8 16Z" fill="#FFAA05"/>
<path fill-rule="evenodd" clip-rule="evenodd" d="M8.4055 5.7835V6.715H9.5125L9.0125 7.289H8.269V8.0105H9.0425L8.6635 8.5845H8.269V10.0565L7.6325 10.9245V8.5845H6.7525L7.238 8.0105H7.6325V7.289H6.389L6.889 6.715H7.6325V5.75C7.266 5.3535 6.7605 5.155 6.116 5.155C4.88 5.155 3.902 6.4725 3.902 7.7825C3.902 8.6555 4.102 9.3965 4.501 10.005L3.811 10.807C3.2705 10.006 3 9.091 3 8.062C3 5.8025 4.945 4.5 6.3205 4.5C7.1625 4.5 7.8075 4.853 8.2555 5.5585C9.1125 4.9705 9.989 4.6765 10.885 4.6765C12.257 4.6765 13 6.3515 13 7.9515C13 10.0805 11.567 10.9025 11.044 10.9985C11.0248 11.002 11.005 11.0001 10.9868 10.9928C10.9687 10.9856 10.953 10.9733 10.9415 10.9575C10.9338 10.9469 10.9284 10.9348 10.9255 10.922C10.9226 10.9092 10.9223 10.8959 10.9247 10.883C10.9271 10.8701 10.9321 10.8579 10.9393 10.8469C10.9466 10.836 10.956 10.8267 10.967 10.8195C11.7765 10.2755 12.181 9.442 12.181 8.3195C12.181 5.869 10.9225 5.302 9.9975 5.302C9.43073 5.30043 8.8764 5.46809 8.4055 5.7835Z" fill="white"/>
</g>
<defs>
<clipPath id="clip0_7_7805">
<rect width="16" height="16" fill="white"/>
</clipPath>
</defs>
</svg>
