<svg width="16" height="16" viewBox="0 0 16 16" fill="none" xmlns="http://www.w3.org/2000/svg">
<g clip-path="url(#clip0_7_7804)">
<path d="M8 16C12.4183 16 16 12.4183 16 8C16 3.58172 12.4183 0 8 0C3.58172 0 0 3.58172 0 8C0 12.4183 3.58172 16 8 16Z" fill="#4A90E2"/>
<path d="M12.475 5.5C12.046 5.5 11.6835 5.8465 11.6835 6.2915C11.6835 6.9185 11.5845 7.083 10.8915 7.083H10.8255C10.6315 7.09935 10.4508 7.18819 10.3194 7.33182C10.188 7.47546 10.1156 7.66333 10.1165 7.858V7.875C10.1165 8.485 10.0015 8.6335 9.325 8.6335C9.292 8.6335 9.259 8.6335 9.2425 8.65C8.8465 8.6995 8.5335 9.029 8.5335 9.425C8.5335 9.854 8.8795 10.2165 9.325 10.2165C9.7375 10.2165 10.0835 9.8865 10.1 9.491V9.425C10.1 8.8645 10.2815 8.65 10.875 8.6335H10.8915C11.304 8.6335 11.6505 8.3035 11.6665 7.8915V7.8415C11.6665 7.2645 11.848 7.05 12.4585 7.05C12.887 7.05 13.25 6.704 13.25 6.2585C13.25 5.8465 12.9035 5.5 12.475 5.5ZM7.824 7.083C8.01633 7.10033 8.19587 7.18678 8.32935 7.32634C8.46284 7.46589 8.54123 7.64909 8.55 7.842C8.55 8.287 8.2035 8.6335 7.758 8.6335C7.313 8.6335 6.9665 8.2705 6.9665 7.842C6.9665 7.281 6.785 7.067 6.175 7.067C5.565 7.067 5.3835 7.281 5.3835 7.8585V7.908C5.367 8.3035 5.0205 8.633 4.6085 8.633C4.1635 8.633 3.8165 8.2705 3.8165 7.842C3.8165 7.4295 4.13 7.0995 4.526 7.067H4.592C5.2845 7.067 5.3835 6.9185 5.3835 6.292C5.39079 6.08695 5.47737 5.89273 5.62501 5.75025C5.77265 5.60776 5.96982 5.52814 6.175 5.52814C6.38018 5.52814 6.57735 5.60776 6.72499 5.75025C6.87263 5.89273 6.95921 6.08695 6.9665 6.292C6.9665 6.9185 7.0655 7.083 7.758 7.083H7.824ZM3.0415 10.2165C2.83158 10.2165 2.63026 10.1331 2.48182 9.98468C2.33339 9.83624 2.25 9.63492 2.25 9.425C2.25 9.21508 2.33339 9.01376 2.48182 8.86532C2.63026 8.71689 2.83158 8.6335 3.0415 8.6335C3.25142 8.6335 3.45274 8.71689 3.60118 8.86532C3.74961 9.01376 3.833 9.21508 3.833 9.425C3.833 9.63492 3.74961 9.83624 3.60118 9.98468C3.45274 10.1331 3.25142 10.2165 3.0415 10.2165Z" fill="white"/>
</g>
<defs>
<clipPath id="clip0_7_7804">
<rect width="16" height="16" fill="white"/>
</clipPath>
</defs>
</svg>
