<svg width="16" height="16" viewBox="0 0 16 16" fill="none" xmlns="http://www.w3.org/2000/svg">
<g clip-path="url(#clip0_7_7802)">
<path d="M8 16C12.4183 16 16 12.4183 16 8C16 3.58172 12.4183 0 8 0C3.58172 0 0 3.58172 0 8C0 12.4183 3.58172 16 8 16Z" fill="#222222"/>
<path fill-rule="evenodd" clip-rule="evenodd" d="M6.365 9.3275L7.938 12.5185L8.746 10.132L6.3655 9.3275M3.4885 7.943L5.8705 8.7515L6.6795 6.3665L3.4885 7.943ZM6.504 8.955C6.5415 8.975 6.557 8.987 6.5745 8.993C7.3425 9.254 8.1095 9.517 8.8795 9.7715C8.942 9.7915 9.031 9.7745 9.0925 9.7445C9.973 9.315 10.851 8.8805 11.729 8.447C11.979 8.3235 12.228 8.1985 12.5005 8.0625C12.4405 8.0395 12.4095 8.0265 12.377 8.0155C11.6335 7.763 10.89 7.509 10.144 7.2635C10.0652 7.24028 9.98076 7.24559 9.9055 7.2785C8.9695 7.7335 8.037 8.196 7.104 8.6565C6.9095 8.7525 6.716 8.8495 6.504 8.955ZM9.7535 6.9225C9.1885 5.7755 8.6305 4.6455 8.0585 3.485L6.3185 8.6185L9.7535 6.9225ZM2.5 8.001C3.047 7.7305 3.563 7.4735 4.08 7.2185C4.959 6.785 5.838 6.351 6.7185 5.9205C6.76211 5.90138 6.80101 5.87294 6.83245 5.83718C6.8639 5.80142 6.88712 5.7592 6.9005 5.7135C7.2445 4.687 7.5935 3.6625 7.9415 2.6375C7.9545 2.5995 7.97 2.5625 7.994 2.5C8.029 2.568 8.055 2.616 8.079 2.6645C8.7515 4.0295 9.423 5.3945 10.101 6.7565C10.134 6.8225 10.221 6.8775 10.2955 6.903C11.3135 7.254 12.3335 7.599 13.353 7.9455C13.3915 7.9585 13.4295 7.9725 13.5 7.9975C13.406 8.045 13.3365 8.0815 13.2665 8.116C11.9525 8.7645 10.639 9.4145 9.323 10.0585C9.26364 10.0845 9.21077 10.1233 9.16815 10.1722C9.12554 10.221 9.09424 10.2787 9.0765 10.341C8.737 11.358 8.389 12.372 8.0435 13.387C8.034 13.415 8.0225 13.442 8 13.5C7.9115 13.3225 7.835 13.171 7.76 13.019C7.148 11.778 6.5355 10.537 5.927 9.294C5.90629 9.24569 5.87523 9.20251 5.83601 9.16752C5.79678 9.13253 5.75035 9.10658 5.7 9.0915C4.679 8.75 3.66 8.4015 2.6405 8.055C2.603 8.042 2.5665 8.0265 2.5 8.001Z" fill="white"/>
</g>
<defs>
<clipPath id="clip0_7_7802">
<rect width="16" height="16" fill="white"/>
</clipPath>
</defs>
</svg>
