<svg width="16" height="16" viewBox="0 0 16 16" fill="none" xmlns="http://www.w3.org/2000/svg">
<g clip-path="url(#clip0_7_8084)">
<path d="M8 16C12.4183 16 16 12.4183 16 8C16 3.58172 12.4183 0 8 0C3.58172 0 0 3.58172 0 8C0 12.4183 3.58172 16 8 16Z" fill="#36A9CF"/>
<path fill-rule="evenodd" clip-rule="evenodd" d="M13.1551 9.23752C13.2431 9.27602 13.2756 9.39552 13.2281 9.50452C13.214 9.54064 13.1906 9.57243 13.1603 9.59672C13.1301 9.62102 13.094 9.63698 13.0556 9.64302L11.9431 11.6945C11.953 11.7403 11.9507 11.7879 11.9365 11.8325C11.9222 11.8772 11.8966 11.9173 11.8621 11.949C11.8346 11.9777 11.8012 12.0001 11.7641 12.0145C11.7271 12.029 11.6873 12.0351 11.6476 12.0325L9.47814 13.3315C9.46127 13.3743 9.43345 13.4119 9.39747 13.4405C9.36148 13.4691 9.31861 13.4877 9.27314 13.4945C9.16614 13.515 9.06414 13.476 9.01514 13.4035L6.46614 13.225C6.43444 13.2492 6.39774 13.266 6.35872 13.2741C6.3197 13.2822 6.27935 13.2815 6.24064 13.272C6.11464 13.2445 6.02764 13.144 6.03264 13.0405L4.06314 11.6195C4.022 11.6269 3.97969 11.6244 3.93971 11.6122C3.89972 11.6 3.8632 11.5786 3.83314 11.5495C3.74714 11.4715 3.71614 11.358 3.74914 11.272L2.93914 9.39352C2.85064 9.37602 2.77414 9.28902 2.75414 9.17402C2.73764 9.07052 2.77164 8.97302 2.83514 8.92102L2.95464 6.07752C2.92774 6.04085 2.91045 5.99803 2.90433 5.95297C2.89822 5.9079 2.90348 5.86203 2.91964 5.81952C2.95964 5.70302 3.05614 5.62952 3.15114 5.63452L5.27714 3.40702C5.25864 3.30202 5.33864 3.19052 5.46414 3.15102C5.50308 3.13774 5.54457 3.13367 5.58534 3.13914C5.62612 3.1446 5.66507 3.15945 5.69914 3.18252L8.75814 2.62652C8.79764 2.53652 8.90964 2.48352 9.03064 2.50502C9.14064 2.52402 9.22314 2.59952 9.24264 2.68652L10.6556 3.49252C10.6948 3.48 10.7362 3.47611 10.7771 3.48112C10.8179 3.48612 10.8571 3.4999 10.8921 3.52152C10.9307 3.54395 10.9636 3.57489 10.9884 3.61197C11.0132 3.64906 11.0292 3.69131 11.0351 3.73552L11.6431 4.14452C11.6824 4.13388 11.7235 4.13241 11.7634 4.14021C11.8033 4.14801 11.8408 4.16488 11.8731 4.18952C11.9871 4.27152 12.0281 4.41452 11.9631 4.50952L11.9591 4.51452L12.8506 6.25452C12.9356 6.24302 13.0226 6.30902 13.0536 6.41352C13.0876 6.52802 13.0406 6.64452 12.9496 6.67352C12.8581 6.70352 12.7566 6.63452 12.7231 6.52052L12.7171 6.49552L10.8826 5.51302C10.8534 5.5541 10.8137 5.58657 10.7676 5.60702V10.504C10.8276 10.5304 10.8764 10.5768 10.906 10.6353C10.9355 10.6937 10.9439 10.7606 10.9296 10.8245L11.6746 11.5835C11.7128 11.5673 11.7545 11.5615 11.7956 11.5665L12.9206 9.57852C12.9012 9.54653 12.8901 9.51021 12.8883 9.47285C12.8864 9.43548 12.894 9.39825 12.9101 9.36452C12.9576 9.25552 13.0676 9.19902 13.1551 9.23752ZM13.1571 9.47502C13.1761 9.43102 13.1626 9.38352 13.1276 9.36802C13.0926 9.35302 13.0486 9.37552 13.0296 9.41902C13.0106 9.46252 13.0236 9.51002 13.0591 9.52602C13.0941 9.54102 13.1376 9.51852 13.1571 9.47502ZM11.8246 11.871C11.8646 11.831 11.8716 11.772 11.8401 11.739C11.8086 11.706 11.7506 11.7115 11.7101 11.751C11.6701 11.791 11.6631 11.8505 11.6946 11.8835C11.7261 11.9165 11.7846 11.911 11.8246 11.871ZM11.5101 11.746L11.5156 11.734L10.8011 11.007C10.7584 11.0337 10.709 11.0479 10.6586 11.048C10.6061 11.0479 10.5547 11.0328 10.5105 11.0044C10.4663 10.9761 10.4312 10.9357 10.4091 10.888H9.45014C9.42534 10.9401 9.38522 10.9834 9.33514 11.012L9.42864 12.3655C9.46564 12.3815 9.49864 12.4045 9.52364 12.433L11.5101 11.746ZM9.42614 13.139L11.1596 12.101L9.57964 12.647C9.56918 12.6865 9.54955 12.723 9.52236 12.7535C9.49517 12.784 9.46118 12.8076 9.42314 12.8225L9.37514 13.1045C9.39367 13.1136 9.41084 13.1252 9.42614 13.139ZM9.26364 13.408C9.31864 13.398 9.35614 13.353 9.34814 13.307C9.34014 13.262 9.28814 13.233 9.23314 13.244C9.17864 13.254 9.14064 13.299 9.14864 13.3445C9.15714 13.39 9.20864 13.4185 9.26364 13.408ZM9.01164 13.209C9.04483 13.1543 9.09669 13.1135 9.15764 13.094L9.20314 12.8265C9.16261 12.8114 9.12615 12.7871 9.09664 12.7555L7.10764 13.0765L9.01164 13.209ZM7.15114 11.041L6.50414 12.9495L9.01214 12.5445L7.23764 11.0045C7.21109 11.0215 7.18184 11.0339 7.15114 11.041ZM6.31864 12.8185L6.93564 10.999C6.89499 10.9708 6.86255 10.9323 6.84164 10.8875H5.71364C5.7067 10.9014 5.69885 10.9147 5.69014 10.9275L6.31864 12.8185ZM6.24214 13.186C6.29714 13.198 6.34914 13.171 6.35814 13.126C6.36814 13.081 6.33164 13.0345 6.27664 13.022C6.22164 13.0105 6.16964 13.037 6.16014 13.082C6.15064 13.128 6.18714 13.174 6.24214 13.186ZM4.19864 11.48L6.10114 12.853L5.50014 11.045C5.4568 11.0507 5.41274 11.0459 5.37161 11.0311C5.33048 11.0163 5.29347 10.992 5.26364 10.96L4.20214 11.4225C4.20366 11.4417 4.20215 11.4611 4.19864 11.48ZM4.02064 11.181C4.04769 11.1929 4.07293 11.2086 4.09564 11.2275L5.18714 10.7525C5.1893 10.6985 5.20663 10.6462 5.23714 10.6015L3.54914 8.85702L4.02064 11.181ZM4.00914 11.4855C4.03914 11.4515 4.02914 11.3925 3.98764 11.3545C3.94564 11.317 3.88764 11.314 3.85764 11.3485C3.82764 11.3835 3.83664 11.4425 3.87864 11.48C3.92064 11.5175 3.97964 11.52 4.00914 11.4855ZM3.11414 9.31902L3.69514 10.6655L3.30564 8.74652L3.15214 9.07352C3.1646 9.11467 3.16766 9.1581 3.16108 9.20059C3.1545 9.24308 3.13846 9.28356 3.11414 9.31902ZM3.10014 7.14902L3.03014 8.82502L3.16914 8.53002C3.14619 8.48648 3.13517 8.43764 3.13718 8.38847C3.1392 8.33929 3.1542 8.29153 3.18064 8.25002L3.10014 7.14902ZM3.00014 5.82352C2.98114 5.87752 3.00164 5.93352 3.04414 5.94902C3.08714 5.96402 3.13614 5.93302 3.15464 5.87902C3.17314 5.82502 3.15364 5.76902 3.11064 5.75352C3.06764 5.73852 3.01914 5.76952 3.00014 5.82352ZM3.42214 8.40002C3.42214 8.34302 3.38064 8.29702 3.33064 8.29702C3.28014 8.29702 3.23864 8.34302 3.23864 8.40002C3.23864 8.45752 3.28014 8.50352 3.33064 8.50352C3.38064 8.50352 3.42214 8.45752 3.42214 8.40002ZM3.30714 5.95702C3.29306 5.99948 3.26965 6.03826 3.23864 6.07052L3.38364 8.06552L4.27364 5.25102L3.32114 5.89752C3.31834 5.91774 3.31365 5.93766 3.30714 5.95702ZM4.82014 4.16452L3.60314 5.43952L4.22664 5.01652C4.23501 4.95958 4.25967 4.90627 4.29764 4.86302C4.33673 4.81656 4.38963 4.7838 4.44864 4.76952L4.82014 4.16452ZM5.44714 3.56102L4.65364 4.85202C4.67281 4.88769 4.68115 4.92818 4.67764 4.96852L5.26514 5.14902C5.29582 5.11612 5.33416 5.09132 5.37674 5.07682C5.41932 5.06231 5.46483 5.05855 5.50921 5.06588C5.5536 5.0732 5.59548 5.09138 5.63115 5.11879C5.66681 5.14621 5.69515 5.18201 5.71364 5.22302H6.69714C6.71538 5.18382 6.7425 5.1494 6.77634 5.1225C6.81019 5.0956 6.84984 5.07694 6.89214 5.06802L7.42664 3.93102C7.39783 3.89309 7.37892 3.84858 7.37164 3.80152L5.73764 3.43952C5.70061 3.49335 5.64626 3.53287 5.58364 3.55152C5.53957 3.56562 5.49279 3.56854 5.44714 3.56102ZM5.47614 3.23452C5.42264 3.25102 5.39014 3.30052 5.40314 3.34452C5.41664 3.38902 5.47064 3.41102 5.52364 3.39452C5.57714 3.37802 5.61014 3.32852 5.59664 3.28452C5.58364 3.24002 5.53014 3.21752 5.47614 3.23452ZM8.60014 2.85252L6.13414 3.30152L7.42414 3.58702C7.45893 3.53947 7.50812 3.50441 7.56441 3.48703C7.6207 3.46964 7.6811 3.47087 7.73664 3.49052L8.60014 2.85252ZM8.90264 2.90102L7.98314 3.58102L10.5056 3.65102L10.5111 3.63202L9.17414 2.87002C9.1437 2.89232 9.10896 2.90806 9.07213 2.91623C9.03529 2.92441 8.99715 2.92485 8.96014 2.91752C8.94046 2.91398 8.9212 2.90845 8.90264 2.90102ZM9.02164 2.59152C8.96664 2.58152 8.91514 2.61052 8.90764 2.65652C8.90014 2.70152 8.93764 2.74652 8.99314 2.75652C9.04814 2.76652 9.09914 2.73752 9.10714 2.69152C9.11514 2.64652 9.07664 2.60152 9.02164 2.59152ZM10.6381 3.95402C10.604 3.93293 10.5743 3.90542 10.5506 3.87302L7.91914 3.80002C7.91713 3.81565 7.91361 3.83106 7.90864 3.84602L8.97064 5.07052C9.032 5.05718 9.09607 5.06506 9.15237 5.09285C9.20868 5.12064 9.2539 5.1667 9.28064 5.22352H10.4091C10.4367 5.16485 10.4837 5.11751 10.5421 5.08952L10.6381 3.95402ZM10.6581 5.23302C10.5976 5.23302 10.5481 5.28402 10.5481 5.34652C10.5481 5.40902 10.5976 5.45952 10.6581 5.45952C10.7196 5.45952 10.7696 5.40902 10.7696 5.34652C10.7696 5.28402 10.7191 5.23302 10.6581 5.23302ZM10.7076 3.63302C10.6801 3.68102 10.7006 3.74602 10.7536 3.77702C10.8061 3.80902 10.8716 3.79552 10.8986 3.74702C10.9266 3.69902 10.9061 3.63452 10.8531 3.60302C10.8001 3.57152 10.7351 3.58502 10.7076 3.63302ZM12.6651 6.29202L10.8516 3.99852L10.7601 5.08302C10.8087 5.10288 10.8508 5.13583 10.8817 5.17821C10.9126 5.22059 10.9311 5.27073 10.9351 5.32302L12.6651 6.29202ZM11.5186 4.29352L11.1116 4.02052L12.4251 5.73052L11.7861 4.58702C11.7327 4.58287 11.6815 4.56401 11.6381 4.53252C11.5531 4.47202 11.5081 4.37752 11.5181 4.29352H11.5186ZM11.7086 4.26502C11.6826 4.30302 11.6986 4.36002 11.7446 4.39302C11.7901 4.42552 11.8486 4.42152 11.8746 4.38302C11.9006 4.34552 11.8846 4.28802 11.8391 4.25552C11.7926 4.22302 11.7346 4.22702 11.7091 4.26552L11.7086 4.26502ZM8.92364 5.34652C8.92364 5.40752 8.97114 5.45702 9.03164 5.45702C9.06064 5.45662 9.08831 5.44479 9.10863 5.4241C9.12895 5.4034 9.14027 5.37552 9.14014 5.34652C9.14041 5.31743 9.12914 5.28942 9.10881 5.26862C9.08847 5.24781 9.06073 5.23591 9.03164 5.23552C9.00255 5.23591 8.97481 5.24781 8.95447 5.26862C8.93414 5.28942 8.92337 5.31743 8.92364 5.34652ZM8.98314 7.73302C8.96843 7.73315 8.95389 7.73617 8.94035 7.74192C8.92682 7.74767 8.91454 7.75603 8.90424 7.76653C8.89393 7.77702 8.88579 7.78944 8.88028 7.80308C8.87477 7.81672 8.87201 7.83131 8.87214 7.84602C8.87214 7.90852 8.92214 7.95952 8.98314 7.95952C8.99785 7.95932 9.01237 7.95623 9.02589 7.95042C9.0394 7.94461 9.05164 7.93619 9.0619 7.92565C9.07216 7.91512 9.08025 7.90266 9.08569 7.88899C9.09114 7.87533 9.09384 7.86073 9.09364 7.84602C9.09384 7.83133 9.09113 7.81675 9.08568 7.80312C9.08023 7.78948 9.07214 7.77706 9.06187 7.76656C9.0516 7.75606 9.03936 7.74769 9.02585 7.74193C9.01234 7.73618 8.99782 7.73315 8.98314 7.73302ZM7.53464 3.72102C7.53464 3.78352 7.58414 3.83402 7.64514 3.83402C7.65985 3.83389 7.67439 3.83086 7.68792 3.82511C7.70146 3.81936 7.71374 3.811 7.72404 3.80051C7.73435 3.79001 7.74249 3.77759 7.748 3.76395C7.75351 3.75032 7.75627 3.73572 7.75614 3.72102C7.75614 3.65852 7.70614 3.60752 7.64514 3.60752C7.63043 3.60771 7.61591 3.6108 7.60239 3.61661C7.58888 3.62242 7.57664 3.63084 7.56638 3.64138C7.55612 3.65192 7.54803 3.66438 7.54259 3.67804C7.53714 3.69171 7.53444 3.70631 7.53464 3.72102ZM7.61564 4.03952L7.10864 5.11702C7.16532 5.15868 7.20452 5.21989 7.21866 5.2888C7.23279 5.35771 7.22085 5.42941 7.18514 5.49002L8.87514 7.58502C8.89066 7.57859 8.90672 7.57357 8.92314 7.57002V5.60702C8.88606 5.59087 8.85287 5.56696 8.82581 5.5369C8.79875 5.50684 8.77845 5.47133 8.76627 5.43276C8.75409 5.39419 8.75032 5.35346 8.75522 5.31331C8.76011 5.27316 8.77355 5.23453 8.79464 5.20002L7.76464 4.01302C7.7184 4.03553 7.6668 4.04471 7.61564 4.03952ZM6.83564 5.34652C6.83564 5.40902 6.88564 5.45952 6.94664 5.45952C7.00714 5.45952 7.05714 5.40902 7.05714 5.34652C7.05714 5.28402 7.00714 5.23302 6.94664 5.23302C6.91689 5.23341 6.88851 5.24558 6.8677 5.26685C6.8469 5.28812 6.83537 5.31677 6.83564 5.34652ZM5.35564 5.34652C5.35564 5.40752 5.40364 5.45702 5.46364 5.45702C5.52364 5.45702 5.57214 5.40752 5.57214 5.34652C5.57214 5.28502 5.52364 5.23552 5.46364 5.23552C5.40364 5.23552 5.35564 5.28552 5.35564 5.34652ZM5.46364 10.6515C5.449 10.6517 5.43454 10.6548 5.42108 10.6606C5.40763 10.6664 5.39545 10.6747 5.38523 10.6852C5.37502 10.6957 5.36697 10.7081 5.36155 10.7217C5.35613 10.7353 5.35344 10.7499 5.35364 10.7645C5.35364 10.827 5.40264 10.8775 5.46364 10.8775C5.47835 10.8774 5.49289 10.8744 5.50643 10.8686C5.51996 10.8629 5.53224 10.8545 5.54254 10.844C5.55285 10.8335 5.56099 10.8211 5.5665 10.8075C5.57201 10.7938 5.57477 10.7792 5.57464 10.7645C5.57484 10.7498 5.57212 10.7352 5.56663 10.7215C5.56115 10.7078 5.55301 10.6954 5.54269 10.6849C5.53237 10.6744 5.52007 10.666 5.5065 10.6603C5.49294 10.6546 5.47837 10.6516 5.46364 10.6515ZM4.36564 4.92152C4.32914 4.96452 4.32614 5.02402 4.36064 5.05452C4.39414 5.08452 4.45164 5.07552 4.48864 5.03202C4.52564 4.98952 4.52814 4.93002 4.49414 4.89952C4.46014 4.86852 4.40314 4.87852 4.36564 4.92152ZM3.55314 8.25102C3.58117 8.29564 3.59591 8.34732 3.59564 8.40002C3.59564 8.45502 3.58064 8.50602 3.55464 8.54752L5.35564 10.4085V5.60702C5.30674 5.58547 5.26495 5.5505 5.23512 5.50616C5.2053 5.46182 5.18866 5.40993 5.18714 5.35652L4.57614 5.16902C4.55716 5.18624 4.53597 5.20087 4.51314 5.21252L3.55314 8.25102ZM9.20014 10.481C9.31964 10.481 9.42114 10.5585 9.46014 10.666H10.3991C10.412 10.6302 10.432 10.5973 10.4579 10.5695C10.4839 10.5416 10.5153 10.5193 10.5501 10.504V5.60702C10.5153 5.59173 10.4839 5.56947 10.4579 5.54161C10.4319 5.51375 10.4119 5.48088 10.3991 5.44502H9.29114C9.27818 5.4808 9.25812 5.51359 9.23218 5.54143C9.20623 5.56927 9.17492 5.59158 9.14014 5.60702V7.61202C9.17746 7.63852 9.20785 7.67362 9.22874 7.71435C9.24963 7.75508 9.2604 7.80024 9.26014 7.84602C9.26094 7.92033 9.23222 7.99192 9.18029 8.04507C9.12835 8.09822 9.05745 8.12859 8.98314 8.12952C8.94633 8.12913 8.90995 8.12148 8.8761 8.10701C8.84224 8.09255 8.81157 8.07155 8.78585 8.04521C8.76012 8.01888 8.73983 7.98773 8.72616 7.95355C8.71248 7.91937 8.70568 7.88283 8.70614 7.84602C8.70614 7.81102 8.71214 7.77752 8.72414 7.74602L7.01014 5.62202C6.9439 5.63725 6.87437 5.62765 6.81474 5.59502C6.75511 5.5624 6.70953 5.50902 6.68664 5.44502H5.72364C5.71062 5.48084 5.69049 5.51367 5.66445 5.54151C5.63842 5.56935 5.60702 5.59163 5.57214 5.60702V10.504C5.64214 10.534 5.69664 10.593 5.72364 10.666H6.83114C6.84416 10.6302 6.86429 10.5974 6.89033 10.5695C6.91636 10.5417 6.94776 10.5194 6.98264 10.504V8.46902C6.94186 8.44342 6.90826 8.40786 6.88499 8.36571C6.86172 8.32355 6.84956 8.27617 6.84964 8.22802C6.84918 8.19116 6.856 8.15458 6.8697 8.12037C6.88341 8.08615 6.90374 8.05498 6.92952 8.02865C6.9553 8.00231 6.98603 7.98132 7.01994 7.96688C7.05386 7.95244 7.09028 7.94484 7.12714 7.94452C7.17259 7.94467 7.21732 7.95589 7.25746 7.9772C7.29761 7.99851 7.33196 8.02927 7.35756 8.06683C7.38316 8.10439 7.39923 8.14761 7.40438 8.19277C7.40953 8.23792 7.40362 8.28366 7.38714 8.32602L9.12864 10.491C9.15197 10.4848 9.17599 10.4814 9.20014 10.481ZM9.32014 12.5045C9.26014 12.5045 9.21014 12.5495 9.21014 12.6055C9.21014 12.6615 9.26014 12.706 9.32014 12.706C9.38164 12.706 9.43164 12.661 9.43164 12.606C9.43164 12.551 9.38164 12.5045 9.32064 12.5045H9.32014ZM9.08964 10.7645C9.08964 10.827 9.13914 10.8775 9.19964 10.8775C9.21439 10.8775 9.22898 10.8745 9.24258 10.8688C9.25618 10.863 9.26851 10.8547 9.27887 10.8442C9.28923 10.8337 9.29741 10.8212 9.30295 10.8076C9.30849 10.7939 9.31127 10.7793 9.31114 10.7645C9.31127 10.7498 9.30851 10.7352 9.303 10.7216C9.29749 10.7079 9.28935 10.6955 9.27904 10.685C9.26874 10.6745 9.25646 10.6662 9.24293 10.6604C9.22939 10.6547 9.21485 10.6516 9.20014 10.6515C9.17052 10.6519 9.14227 10.664 9.12156 10.6852C9.10085 10.7064 9.08937 10.7349 9.08964 10.7645ZM7.01614 8.22802C7.01614 8.29052 7.06614 8.34102 7.12714 8.34102C7.18814 8.34102 7.23764 8.29052 7.23764 8.22802C7.23764 8.16502 7.18814 8.11502 7.12714 8.11502C7.06614 8.11502 7.01614 8.16502 7.01614 8.22802ZM7.09114 10.6515C7.07643 10.6516 7.06189 10.6547 7.04835 10.6604C7.03482 10.6662 7.02254 10.6745 7.01224 10.685C7.00193 10.6955 6.99379 10.7079 6.98828 10.7216C6.98277 10.7352 6.98001 10.7498 6.98014 10.7645C6.98014 10.827 7.03014 10.8775 7.09114 10.8775C7.15214 10.8775 7.20164 10.827 7.20164 10.7645C7.20184 10.7498 7.19913 10.7353 7.19368 10.7216C7.18823 10.708 7.18014 10.6956 7.16987 10.6851C7.1596 10.6746 7.14736 10.6662 7.13385 10.6604C7.12034 10.6547 7.10582 10.6516 7.09114 10.6515ZM7.19914 10.504C7.25884 10.5302 7.30766 10.5762 7.33736 10.6342C7.36706 10.6923 7.37581 10.7588 7.36214 10.8225L9.15864 12.381C9.17499 12.3715 9.19224 12.3636 9.21014 12.3575L9.11814 11.0355C9.06114 11.0168 9.01156 10.9805 8.97652 10.9318C8.94148 10.8831 8.92279 10.8245 8.92314 10.7645C8.92314 10.7145 8.93564 10.668 8.95814 10.628L7.23664 8.48802C7.22451 8.49335 7.21197 8.49769 7.19914 8.50102V10.504ZM10.7691 10.764C10.7693 10.7494 10.7665 10.7348 10.761 10.7213C10.7556 10.7077 10.7475 10.6953 10.7372 10.6849C10.7269 10.6744 10.7147 10.6661 10.7012 10.6604C10.6878 10.6547 10.6733 10.6516 10.6586 10.6515C10.6439 10.6516 10.6294 10.6547 10.6159 10.6604C10.6023 10.6662 10.59 10.6745 10.5797 10.685C10.5694 10.6955 10.5613 10.7079 10.5558 10.7216C10.5503 10.7352 10.5475 10.7498 10.5476 10.7645C10.5476 10.827 10.5976 10.8775 10.6586 10.8775C10.7196 10.8775 10.7696 10.827 10.7696 10.7645L10.7691 10.764ZM2.91414 9.25352C2.95914 9.24602 2.98764 9.19402 2.97814 9.13802C2.96814 9.08152 2.92464 9.04202 2.88014 9.05002C2.83514 9.05752 2.80714 9.11002 2.81664 9.16602C2.82564 9.22252 2.86964 9.26202 2.91414 9.25352ZM12.9001 6.39652C12.8641 6.40802 12.8451 6.45502 12.8586 6.50052C12.8721 6.54602 12.9126 6.57352 12.9486 6.56202C12.9856 6.55052 13.0036 6.50352 12.9906 6.45802C12.9776 6.41202 12.9366 6.38502 12.9006 6.39652H12.9001Z" fill="white"/>
</g>
<defs>
<clipPath id="clip0_7_8084">
<rect width="16" height="16" fill="white"/>
</clipPath>
</defs>
</svg>
