<svg width="16" height="16" viewBox="0 0 16 16" fill="none" xmlns="http://www.w3.org/2000/svg">
<g clip-path="url(#clip0_7_7799)">
<path d="M8 16C12.4183 16 16 12.4183 16 8C16 3.58172 12.4183 0 8 0C3.58172 0 0 3.58172 0 8C0 12.4183 3.58172 16 8 16Z" fill="#622FBA"/>
<path fill-rule="evenodd" clip-rule="evenodd" d="M9.293 8.68802C9.2495 8.70152 9.2075 8.71802 9.1665 8.73702L7.3285 6.82652C7.40126 6.70042 7.44423 6.55935 7.45411 6.4141C7.464 6.26885 7.44055 6.12326 7.38555 5.98846C7.33055 5.85366 7.24546 5.73322 7.13678 5.63635C7.0281 5.53947 6.89871 5.46873 6.7585 5.42952V4.09302L6.2665 3.81802L7.403 3.16052C7.58444 3.05553 7.79037 3.00024 8 3.00024C8.20963 3.00024 8.41556 3.05553 8.597 3.16052L10.8565 4.46852L9.9635 4.98502C9.81802 4.92048 9.65873 4.89329 9.50008 4.90594C9.34143 4.91859 9.18845 4.97066 9.05503 5.05743C8.92162 5.14421 8.81199 5.26294 8.7361 5.40283C8.66022 5.54273 8.62048 5.69937 8.6205 5.85852C8.62056 6.06241 8.68587 6.26094 8.80687 6.42504C8.92788 6.58914 9.09823 6.71021 9.293 6.77052V8.68802ZM9.862 8.68802V6.77002C9.99862 6.72765 10.124 6.65513 10.2288 6.55782C10.3337 6.46051 10.4153 6.34089 10.4677 6.20779C10.5201 6.0747 10.542 5.93153 10.5316 5.78886C10.5213 5.64619 10.479 5.50767 10.408 5.38352L11.423 4.79652L11.908 5.07652C12.0881 5.18073 12.2376 5.33049 12.3415 5.51075C12.4454 5.69102 12.5001 5.89545 12.5 6.10352V9.89652C12.5 10.3195 12.2745 10.7105 11.9075 10.923L9.8625 12.107V10.511C10.0567 10.4502 10.2264 10.329 10.3469 10.165C10.4674 10.001 10.5324 9.80284 10.5323 9.59934C10.5323 9.39584 10.4672 9.19767 10.3466 9.03374C10.226 8.86981 10.0562 8.74868 9.862 8.68802ZM8.7485 9.12252C8.67705 9.24664 8.63443 9.38525 8.6238 9.52807C8.61317 9.6709 8.63479 9.81428 8.68708 9.94762C8.73937 10.081 8.82097 10.2008 8.92586 10.2983C9.03074 10.3959 9.15622 10.4686 9.293 10.511V12.4365L8.597 12.8395C8.41556 12.9445 8.20963 12.9998 8 12.9998C7.79037 12.9998 7.58444 12.9445 7.403 12.8395L4.97 11.4315L5.884 10.7175C6.05642 10.8622 6.27441 10.9414 6.4995 10.941C6.62506 10.9412 6.74943 10.9167 6.8655 10.8688C6.98157 10.8209 7.08705 10.7506 7.17593 10.6619C7.26481 10.5732 7.33534 10.4678 7.38348 10.3519C7.43162 10.2359 7.45643 10.1116 7.4565 9.98602C7.4563 9.7776 7.38793 9.57497 7.26181 9.40904C7.13569 9.24311 6.95876 9.123 6.758 9.06702V7.26802C6.8105 7.25352 6.8615 7.23452 6.91 7.21152L8.7485 9.12252ZM6.1895 9.08302C5.95981 9.16146 5.7686 9.32441 5.65474 9.53877C5.54087 9.75312 5.5129 10.0028 5.5765 10.237L4.441 11.125L4.0925 10.9235C3.91231 10.8194 3.76271 10.6696 3.6587 10.4894C3.5547 10.3091 3.49997 10.1046 3.5 9.89652V6.10352C3.5 5.68052 3.7255 5.28952 4.0925 5.07702L5.695 4.14902L6.19 4.42552V5.44552C6.00179 5.51008 5.83844 5.63181 5.72278 5.79372C5.60711 5.95562 5.54491 6.14961 5.54485 6.34859C5.5448 6.54757 5.6069 6.74159 5.72247 6.90356C5.83804 7.06553 6.00132 7.18736 6.1895 7.25202V9.08302ZM6.5 6.76152C6.44452 6.76352 6.38922 6.75432 6.33737 6.73448C6.28552 6.71465 6.2382 6.68458 6.19823 6.64606C6.15825 6.60754 6.12644 6.56137 6.10469 6.5103C6.08294 6.45923 6.0717 6.4043 6.07163 6.34879C6.07157 6.29328 6.08268 6.23832 6.1043 6.1872C6.12593 6.13607 6.15763 6.08982 6.19751 6.05121C6.23739 6.0126 6.28464 5.98241 6.33644 5.96245C6.38823 5.94249 6.44352 5.93316 6.499 5.93502C6.60612 5.93861 6.70766 5.98366 6.78221 6.06066C6.85676 6.13767 6.8985 6.24061 6.89863 6.34779C6.89876 6.45497 6.85727 6.55801 6.7829 6.63519C6.70854 6.71237 6.60711 6.75767 6.5 6.76152ZM6.5 10.399C6.44452 10.401 6.38922 10.3918 6.33737 10.372C6.28552 10.3521 6.2382 10.3221 6.19823 10.2836C6.15825 10.245 6.12644 10.1989 6.10469 10.1478C6.08294 10.0967 6.0717 10.0418 6.07163 9.98629C6.07157 9.93078 6.08268 9.87582 6.1043 9.8247C6.12593 9.77357 6.15763 9.72732 6.19751 9.68871C6.23739 9.6501 6.28464 9.61991 6.33644 9.59995C6.38823 9.57999 6.44352 9.57066 6.499 9.57252C6.60612 9.57611 6.70766 9.62116 6.78221 9.69816C6.85676 9.77517 6.8985 9.87811 6.89863 9.98529C6.89876 10.0925 6.85727 10.1955 6.7829 10.2727C6.70854 10.3499 6.60711 10.3952 6.5 10.399ZM9.5775 6.27152C9.52203 6.27352 9.46672 6.26432 9.41487 6.24448C9.36302 6.22465 9.3157 6.19458 9.27573 6.15606C9.23575 6.11754 9.20394 6.07137 9.18219 6.0203C9.16044 5.96923 9.1492 5.9143 9.14913 5.85879C9.14907 5.80328 9.16018 5.74832 9.1818 5.69719C9.20343 5.64607 9.23513 5.59982 9.27501 5.56121C9.31489 5.5226 9.36214 5.49241 9.41394 5.47245C9.46573 5.45249 9.52102 5.44316 9.5765 5.44502C9.68362 5.44861 9.78516 5.49366 9.85971 5.57066C9.93426 5.64767 9.976 5.75061 9.97613 5.85779C9.97626 5.96497 9.93477 6.06801 9.8604 6.14519C9.78604 6.22237 9.68461 6.26767 9.5775 6.27152ZM9.5775 10.0125C9.46783 10.0127 9.3626 9.96921 9.28496 9.89176C9.20732 9.81431 9.16363 9.70919 9.1635 9.59952C9.16337 9.48985 9.20681 9.38462 9.28426 9.30698C9.36171 9.22934 9.46683 9.18565 9.5765 9.18552C9.68617 9.18539 9.79139 9.22883 9.86903 9.30628C9.94667 9.38373 9.99037 9.48885 9.9905 9.59852C9.99063 9.70819 9.9472 9.81342 9.86974 9.89106C9.79229 9.9687 9.68717 10.0124 9.5775 10.0125Z" fill="white"/>
</g>
<defs>
<clipPath id="clip0_7_7799">
<rect width="16" height="16" fill="white"/>
</clipPath>
</defs>
</svg>
