<svg width="16" height="16" viewBox="0 0 16 16" fill="none" xmlns="http://www.w3.org/2000/svg">
<g clip-path="url(#clip0_7_7798)">
<path d="M8 16C12.4183 16 16 12.4183 16 8C16 3.58172 12.4183 0 8 0C3.58172 0 0 3.58172 0 8C0 12.4183 3.58172 16 8 16Z" fill="#50479E"/>
<path d="M10.18 6.83002V9.22202L8.0265 10.4055V8.01452L10.1795 6.83102L10.18 6.83002ZM12.75 6.21702V9.78252C12.75 10.036 12.68 10.284 12.5485 10.4995C12.4185 10.7145 12.23 10.897 11.9965 11.0255L10.3905 11.908V9.55502L10.5935 9.44352V6.60402L12.5605 5.52252C12.6825 5.73252 12.75 5.97002 12.75 6.21752V6.21702ZM4.0035 11.0255C3.78456 10.9059 3.59961 10.7327 3.466 10.522C3.32543 10.3011 3.25052 10.0448 3.25 9.78302V7.50002L5.462 9.22752V9.32352L5.4655 9.42252L5.6375 9.52402L7.8455 10.738L8.0275 10.838V13C7.75498 13.0055 7.48576 12.9396 7.2465 12.809L4.0035 11.025V11.0255ZM3.9115 5.03002L6.25 3.75002L7.84 5.29002L5.462 6.60152V6.80152L3.255 8.01352L3.25 6.21652C3.25 5.96302 3.32 5.71402 3.4525 5.49852C3.5685 5.30852 3.7255 5.14852 3.9115 5.02952V5.03002ZM11.9965 4.97452C12.2307 5.10244 12.4257 5.29171 12.5605 5.52202L10.5935 6.60352V6.58552L10.3905 6.47402L8.2235 5.28302L10.3905 4.09152L11.9965 4.97452ZM3.255 8.01452L5.462 6.80152V9.22752L3.255 8.01452ZM8.0275 5.19002V3.00002C8.28147 3.00387 8.53067 3.06961 8.7535 3.19152L10.3905 4.09152L8.2235 5.28252L8.0275 5.19002ZM7.8455 5.29002L5.6415 4.07902L7.3425 3.14352C7.55713 3.04475 7.79128 2.9957 8.0275 3.00002V5.19002L7.8455 5.29002ZM8.0415 10.8455L8.2235 10.7455L10.3645 11.9225L8.7535 12.8085C8.53061 12.9302 8.28142 12.9963 8.0275 13V10.838L8.0415 10.8455ZM10.3905 9.55452V11.908L10.3645 11.9225L8.2235 10.7455L10.3905 9.55452Z" fill="white"/>
</g>
<defs>
<clipPath id="clip0_7_7798">
<rect width="16" height="16" fill="white"/>
</clipPath>
</defs>
</svg>
