<svg width="16" height="16" viewBox="0 0 16 16" fill="none" xmlns="http://www.w3.org/2000/svg">
<g clip-path="url(#clip0_7_7796)">
<path d="M8 16C12.4183 16 16 12.4183 16 8C16 3.58172 12.4183 0 8 0C3.58172 0 0 3.58172 0 8C0 12.4183 3.58172 16 8 16Z" fill="#58BF00"/>
<path d="M12.5 11.29L9.005 9.661V6.051L12.5 4.8115V11.29ZM7.4115 13L4 11.4105V4.979L7.4115 6.569V13ZM12.4165 4.5785L12.36 4.5985L9.005 5.789L8.921 5.819L7.4995 6.323L4.1345 4.755L8.921 3.057L8.963 3.042L9.0515 3.0105L9.0825 3L12.4475 4.568L12.4165 4.5785Z" fill="white"/>
</g>
<defs>
<clipPath id="clip0_7_7796">
<rect width="16" height="16" fill="white"/>
</clipPath>
</defs>
</svg>
