<svg width="16" height="16" viewBox="0 0 16 16" fill="none" xmlns="http://www.w3.org/2000/svg">
<g clip-path="url(#clip0_7_7931)">
<path d="M8 16C12.4183 16 16 12.4183 16 8C16 3.58172 12.4183 0 8 0C3.58172 0 0 3.58172 0 8C0 12.4183 3.58172 16 8 16Z" fill="#B3BA00"/>
<path d="M6.565 5.332L6.5 5.3715L9.5 10V5.3675L8.002 4.5L6.565 5.332ZM6.5 10.5825L8.068 11.5L9.5 10.664L6.5 6V10.5825ZM5 6.178V9.822L6 10.5V5.5L5 6.178ZM10 10.5L11 9.8065V6.1935L10 5.5V10.5Z" fill="white"/>
<path d="M8 2C4.6875 2 2 4.6875 2 8C2 11.3125 4.6875 14 8 14C11.3125 14 14 11.3125 14 8C14 4.6875 11.3125 2 8 2ZM7.975 11.81L4.737 9.89V6.056L7.9755 4.141L11.2135 6.056V9.8905L7.9755 11.8095L7.975 11.81Z" fill="white"/>
</g>
<defs>
<clipPath id="clip0_7_7931">
<rect width="16" height="16" fill="white"/>
</clipPath>
</defs>
</svg>
