<svg width="16" height="16" viewBox="0 0 16 16" fill="none" xmlns="http://www.w3.org/2000/svg">
<g clip-path="url(#clip0_7_7794)">
<path d="M8 16C12.4183 16 16 12.4183 16 8C16 3.58172 12.4183 0 8 0C3.58172 0 0 3.58172 0 8C0 12.4183 3.58172 16 8 16Z" fill="#1A4199"/>
<path opacity="0.7" d="M5.338 3.5625L10.704 6.658V9.8175L2.5 5.0795L5.1325 3.5625C5.16442 3.54407 5.20064 3.53436 5.2375 3.53436C5.27436 3.53436 5.31058 3.54407 5.3425 3.5625" fill="white"/>
<path opacity="0.9" d="M10.7042 3.5L7.9707 5.08L10.7042 6.658V3.5Z" fill="white"/>
<path d="M10.7041 3.5L13.3361 5.018C13.3692 5.03592 13.3969 5.06241 13.4162 5.09469C13.4356 5.12697 13.4459 5.16386 13.4461 5.2015V11.396L10.7041 9.8175V3.5Z" fill="white"/>
<path opacity="0.9" d="M13.4404 11.396L10.8084 12.9125C10.7762 12.93 10.7401 12.9392 10.7034 12.9392C10.6667 12.9392 10.6307 12.93 10.5984 12.9125L5.23242 9.8175V6.6535L13.4404 11.396Z" fill="white"/>
<path opacity="0.6" d="M2.5 5.08002V11.2735C2.50012 11.3112 2.5104 11.3482 2.52975 11.3806C2.54911 11.413 2.57683 11.4396 2.61 11.4575L5.2425 12.9755V6.65352L2.5 5.08002Z" fill="white"/>
<path opacity="0.7" d="M5.23828 12.975L7.97078 11.396L5.23828 9.8175V12.975Z" fill="white"/>
</g>
<defs>
<clipPath id="clip0_7_7794">
<rect width="16" height="16" fill="white"/>
</clipPath>
</defs>
</svg>
