<svg width="16" height="16" viewBox="0 0 16 16" fill="none" xmlns="http://www.w3.org/2000/svg">
<g clip-path="url(#clip0_7_7873)">
<path d="M8 16C12.4183 16 16 12.4183 16 8C16 3.58172 12.4183 0 8 0C3.58172 0 0 3.58172 0 8C0 12.4183 3.58172 16 8 16Z" fill="#F80000"/>
<path d="M10.25 8.421L6.902 13L7.0255 9.2795H6.25L6.567 6.0135L10.109 5.5255L8.946 8.488L10.25 8.421ZM7.501 11.67V10.795C7.501 10.73 7.446 10.677 7.378 10.677C7.31 10.677 7.2545 10.7295 7.2545 10.7945V11.67C7.2545 11.735 7.3095 11.788 7.378 11.788C7.4465 11.788 7.501 11.735 7.501 11.67ZM6.585 9.027H7.29L7.2575 10.3735C7.257 10.409 7.271 10.4435 7.297 10.4685C7.323 10.4935 7.3585 10.5085 7.3955 10.5085H7.4015C7.43672 10.5092 7.47081 10.4961 7.4965 10.472C7.52219 10.4479 7.53744 10.4147 7.539 10.3795L7.5715 8.791H6.8665L7.103 6.1815C7.1055 6.1515 7.095 6.1215 7.0735 6.099C7.052 6.0765 7.022 6.064 6.99 6.064H6.97C6.94229 6.06344 6.91537 6.07322 6.89448 6.09143C6.87359 6.10964 6.86023 6.13497 6.857 6.1625L6.585 9.027ZM6.585 5.727L7.889 4.65C7.959 3.5725 7.254 3.404 7.254 3.404L7.36 3C8.523 3.3365 8.347 4.616 8.347 4.616L10.0385 5.323L6.585 5.727Z" fill="white"/>
</g>
<defs>
<clipPath id="clip0_7_7873">
<rect width="16" height="16" fill="white"/>
</clipPath>
</defs>
</svg>
