<svg width="16" height="16" viewBox="0 0 16 16" fill="none" xmlns="http://www.w3.org/2000/svg">
<g clip-path="url(#clip0_7_7789)">
<path d="M8 16C12.4183 16 16 12.4183 16 8C16 3.58172 12.4183 0 8 0C3.58172 0 0 3.58172 0 8C0 12.4183 3.58172 16 8 16Z" fill="#23336F"/>
<path d="M8.24272 9.72998C8.24272 9.72998 9.69922 10.0885 10.8527 9.18198C12.0062 8.27598 11.9702 6.90948 11.9702 6.90948C11.9702 6.90948 10.6652 6.50298 9.47922 7.36748C8.29372 8.23148 8.24272 9.72998 8.24272 9.72998ZM8.23822 10.4135C8.23822 10.4135 8.47622 11.4385 9.40872 11.8735C10.3412 12.3085 11.1857 11.853 11.1857 11.853C11.1857 11.853 11.0272 10.907 10.1092 10.438C9.19122 9.96998 8.23822 10.4135 8.23822 10.4135ZM10.4327 9.96998C10.4327 9.96998 10.9362 10.5295 11.6707 10.479C12.4057 10.428 12.7757 9.85048 12.7757 9.85048C12.7757 9.85048 12.3487 9.31348 11.6132 9.33748C10.8782 9.36198 10.4327 9.96998 10.4327 9.96998ZM9.69622 6.43648C9.69622 6.43648 8.92022 5.15348 7.46322 4.97848C6.00672 4.80348 5.06622 5.79548 5.06622 5.79548C5.06622 5.79548 5.70172 7.00548 7.15122 7.23298C8.60072 7.46048 9.69622 6.43648 9.69622 6.43648ZM10.1827 5.95648C10.1827 5.95648 10.7397 5.06398 10.3877 4.09648C10.0352 3.12998 9.11522 2.85498 9.11522 2.85498C9.11522 2.85498 8.56022 3.63648 8.87772 4.61598C9.19472 5.59598 10.1822 5.95698 10.1822 5.95698L10.1827 5.95648ZM8.31772 4.71898C8.31772 4.71898 8.35722 3.96698 7.80172 3.48298C7.24622 2.99998 6.57522 3.14598 6.57522 3.14598C6.57522 3.14598 6.49772 3.82798 7.03522 4.33098C7.57322 4.83498 8.31772 4.71898 8.31772 4.71898ZM7.01122 8.19998C7.01122 8.19998 5.72722 8.97598 5.55272 10.433C5.37772 11.8895 6.36922 12.83 6.36922 12.83C6.36922 12.83 7.57922 12.1955 7.80672 10.745C8.03422 9.29448 7.01122 8.19998 7.01122 8.19998ZM6.53022 7.71298C6.53022 7.71298 5.63672 7.15598 4.67022 7.50798C3.70372 7.86048 3.42822 8.77948 3.42822 8.77948C3.42822 8.77948 4.21022 9.33448 5.18922 9.01748C6.16922 8.70048 6.53022 7.71298 6.53022 7.71298ZM5.29322 9.57848C5.29322 9.57848 4.54122 9.53848 4.05822 10.094C3.57422 10.65 3.71972 11.3205 3.71972 11.3205C3.71972 11.3205 4.40172 11.398 4.90522 10.8605C5.40872 10.3225 5.29322 9.57848 5.29322 9.57848Z" fill="white"/>
</g>
<defs>
<clipPath id="clip0_7_7789">
<rect width="16" height="16" fill="white"/>
</clipPath>
</defs>
</svg>
