<svg width="16" height="16" viewBox="0 0 16 16" fill="none" xmlns="http://www.w3.org/2000/svg">
<g clip-path="url(#clip0_7_7876)">
<path d="M8 16C12.4183 16 16 12.4183 16 8C16 3.58172 12.4183 0 8 0C3.58172 0 0 3.58172 0 8C0 12.4183 3.58172 16 8 16Z" fill="#F28F01"/>
<path fill-rule="evenodd" clip-rule="evenodd" d="M9.0755 6.8595L8.105 4.9515C8.307 4.5115 8.408 4.2615 8.408 4.204C8.408 3.9975 8.272 3.8465 8.0005 3.75H10.9745C10.608 3.915 10.282 4.3275 9.997 4.988L9.0755 6.8595ZM7.6175 9.8235L7.165 10.7435H9.8335C11.042 10.7435 11.85 10.517 12.2575 10.0635L10.8315 12.25H3.539C4.3265 12.0985 5.121 11.15 5.922 9.403C6.192 8.866 6.4395 8.37 6.6655 7.916L7.6175 9.8235ZM2.5 10.125C3.0905 9.7745 5.25 6.039 5.25 4.988C5.25 4.7405 5.1005 4.5065 4.802 4.2865H7.124L9.1405 8.2475L11.0965 4.2865H13.5C12.4815 4.5545 10.465 9.3595 10.465 9.9185C10.465 10.0285 10.485 10.0975 10.526 10.125H8.4075L6.5945 6.494L4.802 10.125H2.5Z" fill="white"/>
</g>
<defs>
<clipPath id="clip0_7_7876">
<rect width="16" height="16" fill="white"/>
</clipPath>
</defs>
</svg>
