<svg width="16" height="16" viewBox="0 0 16 16" fill="none" xmlns="http://www.w3.org/2000/svg">
<g clip-path="url(#clip0_7_7787)">
<path d="M8 16C12.4183 16 16 12.4183 16 8C16 3.58172 12.4183 0 8 0C3.58172 0 0 3.58172 0 8C0 12.4183 3.58172 16 8 16Z" fill="#2AB0FD"/>
<path fill-rule="evenodd" clip-rule="evenodd" d="M12.7574 7.40198C12.8399 7.40098 12.8924 7.41198 12.9254 7.44198C12.9604 7.47398 12.9744 7.52598 12.9819 7.60748C13.2149 10.297 11.1809 12.728 8.48291 12.9775C5.70091 13.235 3.28591 11.2275 3.02191 8.43748C2.76491 5.72798 4.79941 3.26998 7.51491 3.02298C9.05291 2.88298 10.3809 3.36598 11.4989 4.43098C11.5104 4.44198 11.5079 4.48798 11.4949 4.50098C11.2439 4.75676 10.9905 5.01027 10.7349 5.26148C10.7204 5.27548 10.6684 5.27348 10.6524 5.25898C9.49891 4.20198 8.16241 3.88898 6.70091 4.42148C5.22291 4.95998 4.37741 6.07498 4.20991 7.64498C3.98491 9.76948 5.58841 11.642 7.72741 11.8035C9.66641 11.9495 11.4234 10.577 11.7449 8.66098C11.7479 8.64198 11.7049 8.59448 11.6829 8.59448C10.4854 8.59098 9.28791 8.59198 8.09091 8.58748C8.05991 8.58748 8.00241 8.52998 8.00141 8.49848C7.99513 8.16385 7.99513 7.82912 8.00141 7.49448C8.00191 7.46448 8.05541 7.41048 8.08491 7.40998C8.88291 7.40548 11.9979 7.41248 12.7569 7.40148L12.7574 7.40198Z" fill="white"/>
</g>
<defs>
<clipPath id="clip0_7_7787">
<rect width="16" height="16" fill="white"/>
</clipPath>
</defs>
</svg>
