<svg width="16" height="16" viewBox="0 0 16 16" fill="none" xmlns="http://www.w3.org/2000/svg">
<g clip-path="url(#clip0_7_8093)">
<path d="M8 16C12.4183 16 16 12.4183 16 8C16 3.58172 12.4183 0 8 0C3.58172 0 0 3.58172 0 8C0 12.4183 3.58172 16 8 16Z" fill="#186C9D"/>
<path d="M9.6305 11.75L9.631 11.749C9.70809 11.7505 9.78505 11.7421 9.86 11.724C10.298 11.6215 10.6685 11.239 10.7565 10.826L12.5 4.278L11.114 4.271L9.971 8.555L6.881 4.2565L6.879 4.2585L6.8805 4.2535L6.37 4.25V4.2505C6.29279 4.24931 6.21572 4.25754 6.1405 4.275C5.703 4.378 5.3325 4.7605 5.244 5.173L3.5 11.7225L4.8865 11.7285L6.029 7.4445L9.119 11.7435H9.1205L9.6305 11.75ZM6.334 6.303L6.5755 5.398L9.666 9.6975L9.4245 10.6025L6.3345 6.3025L6.334 6.303Z" fill="white"/>
</g>
<defs>
<clipPath id="clip0_7_8093">
<rect width="16" height="16" fill="white"/>
</clipPath>
</defs>
</svg>
