<svg width="16" height="16" viewBox="0 0 16 16" fill="none" xmlns="http://www.w3.org/2000/svg">
<g clip-path="url(#clip0_7_7785)">
<path d="M8 16C12.4183 16 16 12.4183 16 8C16 3.58172 12.4183 0 8 0C3.58172 0 0 3.58172 0 8C0 12.4183 3.58172 16 8 16Z" fill="#050708"/>
<path d="M7.92701 2.507C7.98173 2.49637 8.0381 2.49776 8.09223 2.51105C8.14635 2.52435 8.19695 2.54923 8.24052 2.584L12.5915 5.8165C12.6915 5.8915 12.754 6.0165 12.749 6.1435V9.8555C12.7509 9.92225 12.736 9.9884 12.7058 10.0479C12.6756 10.1075 12.631 10.1586 12.576 10.1965L8.24052 13.4175C8.16916 13.4731 8.08072 13.5023 7.99028 13.5C7.89983 13.4977 7.81298 13.4641 7.74451 13.405C6.30451 12.335 4.86502 11.265 3.42501 10.196C3.3706 10.1576 3.32627 10.1067 3.29579 10.0475C3.26532 9.98827 3.24962 9.92258 3.25002 9.856V6.146C3.24945 6.07955 3.26492 6.01394 3.29513 5.95475C3.32533 5.89556 3.36938 5.84453 3.42352 5.806L7.74402 2.596C7.79743 2.55276 7.86003 2.52232 7.92701 2.507ZM7.87502 12.514C7.87252 12.572 7.87152 12.6305 7.87102 12.6885L7.87201 13.037C7.94701 13.038 8.02202 13.0385 8.09701 13.037V12.525C8.02321 12.5181 7.94914 12.5144 7.87502 12.514ZM6.89401 12.0555C6.98401 12.213 7.06952 12.373 7.16152 12.529C7.23652 12.529 7.31151 12.529 7.38752 12.524C7.32752 12.358 7.22401 12.2135 7.14651 12.056C7.06235 12.0548 6.97818 12.0543 6.89401 12.0555ZM8.38351 12.295C8.38213 12.3713 8.38263 12.4477 8.38502 12.524H8.59502C8.60452 12.4495 8.60502 12.375 8.60352 12.3C8.53027 12.2956 8.45688 12.2939 8.38351 12.295ZM8.14601 11.0665C7.83101 11.0685 7.51551 11.0645 7.20002 11.069C7.19902 11.1407 7.19902 11.2123 7.20002 11.284C7.47901 11.2905 7.75851 11.2855 8.03801 11.287V11.8015C7.98001 11.802 7.92302 11.8 7.86601 11.806C7.84951 11.874 7.85802 11.9445 7.85702 12.014C7.95801 12.017 8.05901 12.0165 8.16001 12.0145C8.19051 11.98 8.22201 11.9465 8.25351 11.9125C8.25351 11.6675 8.25302 11.4225 8.25402 11.1775C8.21813 11.1404 8.18213 11.1034 8.14601 11.0665ZM9.81801 11.3545C9.74651 11.3195 9.67051 11.2005 9.58701 11.272C9.33851 11.4375 9.08251 11.592 8.83701 11.762C8.83801 11.833 8.83851 11.904 8.84351 11.9745C9.07351 11.9765 9.30302 11.9775 9.53252 11.974C9.53351 11.899 9.53351 11.824 9.53301 11.749C9.47669 11.7477 9.42035 11.747 9.36402 11.747L9.25802 11.748C9.44052 11.619 9.63151 11.5035 9.81801 11.381V11.3545ZM6.09951 11.48C6.09802 11.555 6.09802 11.63 6.09951 11.706C6.39752 11.7075 6.69601 11.709 6.99451 11.705V11.4805C6.69601 11.477 6.39752 11.4785 6.09951 11.48ZM5.68502 11.1505C5.68402 11.2255 5.68352 11.301 5.68502 11.3765C5.75852 11.3775 5.83252 11.3775 5.90652 11.3765C5.90752 11.3015 5.90752 11.2265 5.90652 11.1515C5.83269 11.1499 5.75885 11.1495 5.68502 11.1505ZM10.092 10.343C10.089 10.466 10.09 10.589 10.0905 10.712C10.2105 10.897 10.328 11.0835 10.4495 11.2675C10.5505 11.1125 10.6495 10.9545 10.752 10.8C10.771 10.766 10.8015 10.733 10.799 10.691C10.8015 10.5785 10.8 10.466 10.797 10.3535C10.704 10.505 10.6045 10.652 10.512 10.8035C10.491 10.8325 10.4755 10.8695 10.442 10.8845C10.321 10.7065 10.2095 10.5225 10.092 10.343ZM9.37452 10.0665C9.23401 10.067 9.09351 10.0655 8.95252 10.068C8.87036 10.3751 8.78469 10.6813 8.69552 10.9865L8.91252 10.988L9.10652 10.2775L9.22452 10.2835C9.28752 10.518 9.35452 10.751 9.41602 10.986C9.48802 10.9875 9.56102 10.9875 9.63302 10.9875L9.37452 10.0665ZM4.80201 10.5855V10.8075C4.99751 10.811 5.19352 10.816 5.38902 10.806C5.39852 10.7325 5.39402 10.658 5.39252 10.5835C5.19552 10.5825 4.99851 10.579 4.80201 10.5855ZM6.57351 10.0575C6.30201 10.226 6.03502 10.402 5.76752 10.577C5.76652 10.649 5.76652 10.721 5.76852 10.793C6.19002 10.7975 6.61152 10.7955 7.03302 10.794C7.03502 10.718 7.03501 10.642 7.03351 10.566C6.74851 10.562 6.46452 10.568 6.18002 10.5625C6.37652 10.443 6.56651 10.314 6.76101 10.191C6.69901 10.1455 6.63601 10.102 6.57351 10.0575ZM7.41152 9.891C7.40852 10.172 7.41152 10.4535 7.41002 10.7345L7.47752 10.747C7.53052 10.742 7.58352 10.7395 7.63652 10.737C7.63502 10.455 7.63701 10.173 7.63502 9.891C7.56052 9.89017 7.48601 9.89017 7.41152 9.891ZM8.21252 10.0985C8.13502 10.109 8.05651 10.1135 7.97801 10.1135C8.06651 10.2685 8.15402 10.425 8.24052 10.582L8.46052 10.5805C8.41302 10.4055 8.30452 10.2525 8.21252 10.0985ZM11.077 10.207C11.0755 10.281 11.0755 10.355 11.077 10.429C11.1535 10.4325 11.2305 10.4325 11.307 10.4305V10.206C11.2304 10.2043 11.1537 10.2046 11.077 10.207ZM5.79802 9.309C5.67552 9.49 5.56452 9.679 5.44102 9.8585C5.32552 9.6765 5.20852 9.495 5.09152 9.3135C5.08876 9.43798 5.08826 9.5625 5.09001 9.687C5.21151 9.864 5.32401 10.047 5.44001 10.227C5.56551 10.0475 5.67752 9.8585 5.80001 9.6765C5.79902 9.554 5.80052 9.4315 5.79802 9.309ZM6.37301 9.5465C6.36801 9.624 6.36852 9.7015 6.37152 9.779C6.44552 9.78 6.51952 9.7795 6.59302 9.779C6.59473 9.70334 6.59473 9.62765 6.59302 9.552C6.51981 9.54675 6.44639 9.54492 6.37301 9.5465ZM9.43102 8.9345L9.31902 9.0395C9.31902 9.1395 9.31852 9.239 9.32052 9.3385C9.39201 9.3385 9.46402 9.3385 9.53552 9.3375C9.53702 9.276 9.53752 9.2145 9.53702 9.1525L10.039 9.153C10.0365 9.3555 10.038 9.5575 10.0385 9.7595C10.111 9.7615 10.1835 9.762 10.2565 9.7615V9.04L10.148 8.935C9.90902 8.9345 9.67002 8.9365 9.43102 8.9345ZM3.69151 8.791L3.58552 8.8965L3.58452 9.387L3.58752 9.632C3.60602 9.6765 3.64751 9.715 3.68851 9.739C3.93351 9.746 4.17902 9.739 4.42452 9.742H4.52702L4.63001 9.7415C4.63051 9.6705 4.63051 9.5995 4.62901 9.5285C4.35301 9.5255 4.07651 9.528 3.80001 9.527C3.79801 9.355 3.80002 9.1835 3.79852 9.0115L3.97352 9.009C3.97416 8.93683 3.97399 8.86466 3.97302 8.7925C3.87919 8.79092 3.78535 8.79009 3.69151 8.791ZM8.65951 8.981C8.39352 9.161 8.11951 9.3275 7.85301 9.5075C7.85401 9.5805 7.85401 9.653 7.86451 9.725C8.28451 9.725 8.70501 9.727 9.12501 9.7245C9.12705 9.64584 9.12705 9.56715 9.12501 9.4885C8.84501 9.485 8.56401 9.4905 8.28301 9.4855C8.47051 9.359 8.66602 9.2445 8.85002 9.113C8.78552 9.07 8.72301 9.025 8.66001 8.9805L8.65951 8.981ZM11.654 8.946C11.3865 9.1175 11.119 9.2885 10.854 9.464C10.853 9.537 10.853 9.6105 10.854 9.684C11.274 9.6855 11.6935 9.6855 12.113 9.684C12.114 9.608 12.114 9.531 12.113 9.455C11.8305 9.453 11.548 9.4565 11.266 9.4535L11.8425 9.08C11.7805 9.035 11.7175 8.989 11.654 8.946ZM6.67902 7.9545L6.56802 7.955C6.56652 8.3825 6.56652 8.8095 6.56802 9.2365C6.64302 9.2385 6.71802 9.2385 6.79252 9.238C6.80152 8.953 6.77902 8.667 6.80652 8.384C6.95852 8.6445 7.12502 8.897 7.28402 9.154L7.36052 9.1525C7.34852 9.036 7.39401 8.902 7.31751 8.802C7.14101 8.52 6.96252 8.2395 6.78902 7.9555C6.71535 7.95412 6.64168 7.95412 6.56802 7.9555L6.67902 7.9545ZM10.7705 8.4165C10.6975 8.405 10.623 8.41 10.549 8.4115C10.5466 8.67582 10.5466 8.94017 10.549 9.2045C10.6235 9.206 10.698 9.2065 10.7725 9.2045C10.7735 8.942 10.7775 8.679 10.7705 8.4165ZM5.81552 8.714C5.55802 8.722 5.29851 8.6995 5.04151 8.728C5.04101 8.8025 5.04102 8.8765 5.04252 8.951C5.36702 8.9535 5.69051 8.951 6.01551 8.952V8.723C5.94908 8.71609 5.8823 8.71308 5.81552 8.714ZM12.2795 7.703C12.0362 7.69841 11.7928 7.69808 11.5495 7.702L11.451 7.804C11.451 7.901 11.451 7.999 11.452 8.096C11.5235 8.0965 11.595 8.096 11.6665 8.095L11.668 7.9175C11.838 7.919 12.008 7.9155 12.178 7.92L12.1775 8.874L12.385 8.8745C12.3815 8.8055 12.4 8.7375 12.396 8.6685C12.3985 8.5835 12.3945 8.499 12.397 8.4145C12.3955 8.2385 12.397 8.062 12.397 7.886C12.41 7.804 12.341 7.741 12.2795 7.703ZM8.51002 8.5665V8.794C8.58252 8.795 8.65452 8.795 8.72652 8.794C8.72752 8.718 8.72752 8.642 8.72652 8.567C8.65435 8.56628 8.58218 8.56611 8.51002 8.5665ZM7.55101 8.1195C7.54902 8.3055 7.54952 8.492 7.55052 8.678C7.62551 8.68 7.70052 8.68 7.77602 8.679C7.77652 8.492 7.77702 8.3055 7.77602 8.119C7.70102 8.1175 7.62601 8.118 7.55101 8.1195ZM9.62651 8.379C9.62401 8.454 9.62402 8.529 9.62552 8.604C9.81902 8.6265 10.0145 8.609 10.209 8.615C10.248 8.611 10.2995 8.6285 10.3215 8.584C10.3266 8.51523 10.3238 8.44611 10.313 8.378C10.084 8.378 9.85552 8.376 9.62651 8.379ZM8.91102 8.369C8.91002 8.445 8.91002 8.521 8.91102 8.5965C8.98452 8.597 9.05801 8.5975 9.13201 8.597C9.13339 8.521 9.13339 8.44499 9.13201 8.369C9.05835 8.36831 8.98468 8.36831 8.91102 8.369ZM4.84652 7.711H4.62051L4.62002 8.435H4.84701L4.84652 7.711ZM5.66402 7.4235L5.45451 7.4245C5.36651 7.731 5.28102 8.0385 5.19452 8.3455L5.41152 8.3465C5.46902 8.11 5.54452 7.8785 5.59752 7.6415L5.71751 7.6325C5.79101 7.8685 5.84652 8.1095 5.91852 8.3465L6.12852 8.346C6.04852 8.0375 5.95852 7.732 5.87352 7.425C5.73352 7.423 5.59452 7.424 5.45451 7.425L5.66402 7.4235ZM8.32752 7.3565H7.47002C7.46929 7.42949 7.46929 7.5025 7.47002 7.5755C7.74852 7.583 8.02852 7.562 8.30602 7.5875V8.092L8.12802 8.094V8.314C8.22301 8.315 8.31752 8.315 8.41202 8.315L8.52202 8.195V7.554C8.53552 7.4495 8.43201 7.34 8.32752 7.3565ZM3.91102 7.913C3.90852 7.9865 3.90851 8.06 3.90901 8.1335C3.98401 8.135 4.05901 8.1345 4.13351 8.1335V7.9185C4.05946 7.91361 3.98523 7.91177 3.91102 7.913ZM9.08851 6.9905C9.04801 7.044 8.96951 7.084 8.97951 7.162C8.97851 7.3685 8.97851 7.575 8.97951 7.782C8.97001 7.859 9.04701 7.8995 9.08701 7.9525C9.40151 7.9515 9.71602 7.9535 10.03 7.9515C10.032 7.8785 10.032 7.805 10.0315 7.7315C9.75201 7.7285 9.47301 7.7315 9.19402 7.7295V7.212L9.37402 7.2105C9.37531 7.13766 9.37498 7.06481 9.37301 6.992C9.27802 6.99 9.18351 6.991 9.08851 6.9905ZM6.81452 7.3565H6.26801C6.26501 7.4335 6.26552 7.5105 6.26852 7.5875H6.81452C6.81602 7.5105 6.81602 7.43349 6.81452 7.3565ZM10.773 7.093C10.772 7.168 10.7725 7.244 10.773 7.319C11.098 7.3235 11.423 7.3205 11.748 7.3205C11.749 7.2445 11.749 7.168 11.7485 7.0915C11.4235 7.0915 11.098 7.0885 10.773 7.093ZM10.038 7.093C10.037 7.168 10.037 7.243 10.038 7.318C10.115 7.321 10.192 7.321 10.269 7.318C10.27 7.243 10.2705 7.168 10.269 7.093C10.192 7.09012 10.115 7.09012 10.038 7.093ZM3.58552 6.6225C3.58402 6.6985 3.58402 6.775 3.58552 6.851C3.81952 6.8535 4.05402 6.851 4.28852 6.852C4.19852 6.9155 4.10502 6.973 4.01252 7.032C4.07452 7.077 4.12951 7.1385 4.20201 7.1655C4.37351 7.062 4.54052 6.9505 4.70702 6.839L4.70651 6.623C4.33251 6.6195 3.95902 6.6205 3.58552 6.6225ZM5.69452 6.4365C5.51502 6.5595 5.32851 6.672 5.15351 6.8015C5.32701 6.9275 5.50951 7.0395 5.68551 7.161C5.80751 7.161 5.92952 7.162 6.05152 7.1595C5.87052 7.042 5.69152 6.92 5.50952 6.8035C5.68652 6.677 5.87452 6.5665 6.05052 6.4385C5.93152 6.4365 5.81352 6.4385 5.69452 6.4365ZM6.78152 6.843C6.78152 6.918 6.78152 6.9935 6.78252 7.0695C7.10452 7.0695 7.42601 7.07 7.74852 7.069C7.75852 6.994 7.75951 6.919 7.75151 6.844C7.42851 6.841 7.10502 6.8445 6.78152 6.843ZM7.96251 6.844V7.067C8.04001 7.068 8.11752 7.068 8.19552 7.066V6.845C8.11787 6.84246 8.04018 6.84213 7.96251 6.844ZM8.51002 6.1735V6.8985H8.72702C8.72702 6.657 8.72852 6.4155 8.72702 6.174C8.65468 6.17335 8.58235 6.17285 8.51002 6.1735ZM11.2605 6.5915C11.259 6.667 11.2595 6.743 11.2605 6.8185C11.3355 6.8205 11.4105 6.8205 11.4845 6.8185C11.4867 6.74268 11.4869 6.66682 11.485 6.591C11.41 6.5895 11.335 6.5905 11.2605 6.5915ZM10.621 5.7015C10.481 5.6785 10.3395 5.7005 10.199 5.7015C10.1135 6.0075 10.0295 6.3135 9.94052 6.6175C10.013 6.618 10.0855 6.6185 10.158 6.618C10.219 6.381 10.29 6.147 10.3485 5.9095L10.4675 5.908C10.5385 6.1435 10.5975 6.3825 10.666 6.618H10.882L10.621 5.7015ZM9.27152 6.2405C9.2706 6.31616 9.2706 6.39183 9.27152 6.4675H9.49002C9.49102 6.3925 9.49102 6.317 9.49052 6.2415C9.41753 6.23965 9.34451 6.23932 9.27152 6.2405ZM12.041 5.984C11.9575 5.984 11.874 5.984 11.791 5.9855L12.057 6.4555C12.1325 6.4555 12.209 6.4555 12.2845 6.4525C12.223 6.2865 12.1235 6.1395 12.041 5.984ZM7.82351 5.298C7.82001 5.58 7.82252 5.863 7.82202 6.145C7.65152 6.141 7.48101 6.155 7.31151 6.1355C7.31254 6.07883 7.3122 6.02215 7.31051 5.9655H7.10452C7.10452 6.0645 7.09552 6.1645 7.10802 6.263C7.13702 6.297 7.17051 6.327 7.20301 6.359C7.44901 6.3575 7.69501 6.36 7.94151 6.3575C7.97401 6.3245 8.00702 6.292 8.04052 6.26C8.03802 5.939 8.04201 5.618 8.03851 5.2975C7.96685 5.2964 7.89518 5.2969 7.82351 5.298ZM6.12502 5.827C6.12002 6.004 6.12251 6.1805 6.12301 6.357H6.34302C6.34302 6.1805 6.34402 6.004 6.34202 5.828C6.26952 5.827 6.19702 5.8265 6.12502 5.827ZM11.2605 5.519C11.2583 5.76116 11.2583 6.00333 11.2605 6.2455C11.335 6.2465 11.4095 6.247 11.484 6.2455C11.4865 6.0035 11.4865 5.761 11.484 5.519C11.4095 5.51721 11.335 5.51721 11.2605 5.519ZM4.18451 5.818C4.18352 5.893 4.18352 5.9695 4.18451 6.0455C4.50901 6.0475 4.83302 6.048 5.15752 6.0455C5.15928 5.96967 5.15928 5.89382 5.15752 5.818C4.83319 5.81552 4.50884 5.81552 4.18451 5.818ZM5.53101 5.818H5.31002V6.046C5.38402 6.0465 5.45752 6.047 5.53152 6.046C5.53313 5.97 5.53313 5.89399 5.53152 5.818H5.53101ZM7.13601 4.977C7.01551 5.1595 6.89951 5.346 6.78001 5.5295C6.66002 5.3485 6.54502 5.1635 6.42652 4.981C6.42602 5.104 6.41701 5.228 6.42951 5.351C6.46651 5.4125 6.50452 5.474 6.54352 5.535L6.77902 5.8985C6.89702 5.713 7.02402 5.532 7.13402 5.341C7.14402 5.22 7.13601 5.098 7.13601 4.977ZM8.49252 4.43C8.49002 4.857 8.49102 5.284 8.49202 5.711C8.56702 5.7125 8.64201 5.7125 8.71701 5.711L8.71851 4.853C8.88351 5.107 9.03752 5.369 9.20451 5.622L9.28851 5.637C9.29051 5.5435 9.29001 5.45 9.29001 5.357C9.09351 5.0495 8.90351 4.738 8.70851 4.4295C8.63652 4.42828 8.56451 4.42845 8.49252 4.43ZM5.78852 4.6755C5.72818 4.67475 5.66785 4.67475 5.60751 4.6755C5.60651 4.7505 5.60702 4.826 5.60852 4.9015C5.68902 4.9025 5.77002 4.9015 5.85102 4.906C5.69102 5.001 5.53652 5.1045 5.37852 5.202C5.43652 5.2505 5.49101 5.3085 5.56202 5.336C5.80351 5.197 6.03201 5.036 6.27051 4.8905C6.27151 4.8195 6.27152 4.748 6.27102 4.677C6.11038 4.6663 5.94922 4.6658 5.78852 4.6755ZM10.2385 5.0105L9.70501 5.0115V5.232C10.061 5.233 10.416 5.2325 10.7715 5.232V5.012C10.4165 5.01 10.0605 5.01 9.70501 5.012L10.2385 5.0105ZM7.51201 4.76C7.51051 4.8355 7.51051 4.911 7.51201 4.9865C7.58601 4.9885 7.66002 4.9885 7.73401 4.9865C7.73552 4.9105 7.73552 4.8355 7.73401 4.76C7.66003 4.75793 7.586 4.75793 7.51201 4.76ZM9.38401 4.6035L9.38452 4.8245C9.46102 4.826 9.53752 4.826 9.61402 4.824V4.604C9.53736 4.6019 9.46067 4.60173 9.38401 4.6035ZM7.04401 3.6825L6.92902 3.685C6.93402 4.016 6.91401 4.3485 6.93901 4.679C7.01251 4.679 7.08601 4.679 7.15951 4.6775C7.16301 4.3465 7.16151 4.0155 7.16051 3.684C7.08319 3.68185 7.00582 3.68218 6.92851 3.685L7.04401 3.6825ZM7.89502 4.1525C7.81202 4.1525 7.72902 4.1525 7.64602 4.154C7.73202 4.312 7.81902 4.469 7.90951 4.624C7.98552 4.624 8.06202 4.624 8.13802 4.6205C8.07402 4.4555 7.97402 4.3095 7.89502 4.1525ZM8.89251 4.041C8.89151 4.117 8.89151 4.1935 8.89251 4.2695C9.09801 4.273 9.30351 4.272 9.50901 4.2695C9.50996 4.19317 9.50996 4.11683 9.50901 4.0405C9.30352 4.0386 9.09801 4.03877 8.89251 4.041ZM7.64152 3.289C7.57452 3.28 7.53552 3.349 7.49752 3.3925C7.48401 3.4875 7.49402 3.585 7.49352 3.681H7.70651L7.70801 3.501H8.21102C8.22602 3.6795 8.21052 3.8585 8.21052 4.0375L8.22702 4.1045C8.29452 4.1095 8.36302 4.106 8.43102 4.105C8.43002 3.8655 8.43002 3.626 8.43102 3.3865L8.36402 3.32L8.32702 3.2915C8.09902 3.2855 7.86952 3.2905 7.64152 3.289Z" fill="white"/>
</g>
<defs>
<clipPath id="clip0_7_7785">
<rect width="16" height="16" fill="white"/>
</clipPath>
</defs>
</svg>
