<svg width="16" height="16" viewBox="0 0 16 16" fill="none" xmlns="http://www.w3.org/2000/svg">
<g clip-path="url(#clip0_7_7985)">
<path d="M8 16C12.4183 16 16 12.4183 16 8C16 3.58172 12.4183 0 8 0C3.58172 0 0 3.58172 0 8C0 12.4183 3.58172 16 8 16Z" fill="#F5D100"/>
<path d="M7.986 2C4.686 2 2 4.686 2 7.986C2 11.286 4.686 13.977 7.991 13.977C11.2955 13.977 13.9815 11.291 13.9815 7.986C13.9815 4.6815 11.2905 2 7.986 2ZM7.986 13.515C4.94 13.515 2.457 11.037 2.457 7.986C2.462 4.94 4.94 2.4615 7.986 2.4615C11.0325 2.4615 13.5155 4.94 13.5155 7.991C13.5155 11.037 11.037 13.515 7.986 13.515Z" fill="white"/>
<path d="M4.88672 5.32801L5.32672 4.88751L7.67072 7.23101L7.23022 7.67101L4.88672 5.32801ZM8.29572 8.73851L8.73622 8.29801L11.0797 10.6415L10.6392 11.0815L8.29572 8.73851ZM7.54822 7.98751L7.98822 7.54751L8.43222 7.99051L7.99222 8.43151L7.54822 7.98751ZM8.30222 7.25001L10.6457 4.90701L11.0857 5.34751L8.74272 7.69101L8.30222 7.25001ZM4.90372 10.644L7.24672 8.30101L7.68722 8.74101L5.34422 11.0845L4.90372 10.644Z" fill="white"/>
</g>
<defs>
<clipPath id="clip0_7_7985">
<rect width="16" height="16" fill="white"/>
</clipPath>
</defs>
</svg>
