<svg width="16" height="16" viewBox="0 0 16 16" fill="none" xmlns="http://www.w3.org/2000/svg">
<g clip-path="url(#clip0_7_7868)">
<path d="M8 16C12.4183 16 16 12.4183 16 8C16 3.58172 12.4183 0 8 0C3.58172 0 0 3.58172 0 8C0 12.4183 3.58172 16 8 16Z" fill="#EEC315"/>
<path d="M9.495 4.0925C9.49507 4.04755 9.48627 4.00302 9.46911 3.96147C9.45195 3.91992 9.42677 3.88216 9.39501 3.85035C9.36324 3.81854 9.32552 3.7933 9.28399 3.77608C9.24247 3.75886 9.19795 3.75 9.153 3.75H6.566L6.57 3.755H4.0735C3.7565 3.755 3.5 4.012 3.5 4.329V11.671C3.5 11.988 3.7565 12.245 4.0735 12.245H5.001C5.318 12.245 5.5745 11.988 5.5745 11.671V6.309C5.5745 5.801 6.1855 5.5435 6.5485 5.8985L8.536 7.8415C8.8655 8.1635 9.3985 7.9815 9.495 7.5665C9.505 7.5235 9.51 7.4785 9.51 7.431L9.495 4.0925Z" fill="white"/>
<path d="M11.9827 3.755H10.9427C10.6577 3.755 10.4257 3.987 10.4257 4.273V9.82401C10.4257 10.2825 9.87423 10.515 9.54673 10.194L7.36923 8.06551C7.04123 7.74551 6.49023 7.9775 6.49023 8.436V9.618C6.49023 9.636 6.49123 9.654 6.49273 9.672L6.49023 9.66951V11.7815C6.49023 12.0405 6.69973 12.25 6.95823 12.25H9.82823L9.82123 12.245H11.9827C12.2687 12.245 12.5002 12.013 12.5002 11.727V4.273C12.5002 3.987 12.2687 3.755 11.9827 3.755Z" fill="white"/>
</g>
<defs>
<clipPath id="clip0_7_7868">
<rect width="16" height="16" fill="white"/>
</clipPath>
</defs>
</svg>
