<svg width="16" height="16" viewBox="0 0 16 16" fill="none" xmlns="http://www.w3.org/2000/svg">
<g clip-path="url(#clip0_7_8103)">
<path d="M8 16C12.4183 16 16 12.4183 16 8C16 3.58172 12.4183 0 8 0C3.58172 0 0 3.58172 0 8C0 12.4183 3.58172 16 8 16Z" fill="#82BD39"/>
<path d="M7.2015 9.68L8 10.732V13L5 11.6685V5.8095C5 5.723 5.0385 5.6405 5.106 5.583L5.4475 5.2905C5.4804 5.26205 5.51878 5.24065 5.56028 5.22762C5.60177 5.21459 5.6455 5.21022 5.68876 5.21476C5.73201 5.21931 5.77388 5.23268 5.81176 5.25405C5.84964 5.27542 5.88274 5.30433 5.909 5.339L8.6415 8.921L10.151 9.844V4.904L8.817 4.2385L8.752 7.3365L8.046 6.4L8.014 3L11 4.3895V10.2215L10.3215 10.7805L8.1845 9.587L5.8125 6.4755L5.78 11.2025L7.1925 11.926L7.2015 9.68Z" fill="white"/>
</g>
<defs>
<clipPath id="clip0_7_8103">
<rect width="16" height="16" fill="white"/>
</clipPath>
</defs>
</svg>
