<svg width="16" height="16" viewBox="0 0 16 16" fill="none" xmlns="http://www.w3.org/2000/svg">
<g clip-path="url(#clip0_7_7850)">
<path d="M8 16C12.4183 16 16 12.4183 16 8C16 3.58172 12.4183 0 8 0C3.58172 0 0 3.58172 0 8C0 12.4183 3.58172 16 8 16Z" fill="#4099CD"/>
<path fill-rule="evenodd" clip-rule="evenodd" d="M1.00293 11.88C1.30543 10.998 1.88843 10.043 2.70043 9.10001C2.55596 8.90798 2.48547 8.67036 2.50185 8.43062C2.51824 8.19088 2.6204 7.96506 2.78965 7.79448C2.95889 7.6239 3.18391 7.51996 3.42351 7.5017C3.66311 7.48343 3.90128 7.55205 4.09443 7.695C4.73931 7.12713 5.42517 6.60755 6.14643 6.1405C9.61343 3.889 13.2774 3.1705 15.0644 4.2415C15.5793 5.2071 15.8893 6.26858 15.9749 7.3595C15.3979 9.2485 13.4919 11.5055 10.7759 13.2695C8.90243 14.486 6.97093 15.2555 5.30943 15.536C3.47831 14.8795 1.94795 13.5803 1.00293 11.88ZM2.87793 9.28251C1.70593 10.6365 1.23643 12.0295 1.80443 12.9045C2.66243 14.226 5.56443 13.8645 8.28493 12.098C11.0059 10.331 12.5159 7.827 11.6579 6.5055C10.7994 5.184 7.89793 5.5455 5.17693 7.312C4.87543 7.508 4.58843 7.713 4.31843 7.9245C4.45691 8.12125 4.51982 8.36132 4.49562 8.60069C4.47141 8.84007 4.36172 9.06269 4.18665 9.22773C4.01159 9.39277 3.78289 9.48915 3.54251 9.49922C3.30212 9.50928 3.06617 9.43234 2.87793 9.28251Z" fill="white"/>
</g>
<defs>
<clipPath id="clip0_7_7850">
<rect width="16" height="16" fill="white"/>
</clipPath>
</defs>
</svg>
