<svg width="16" height="16" viewBox="0 0 16 16" fill="none" xmlns="http://www.w3.org/2000/svg">
<g clip-path="url(#clip0_7_8058)">
<path d="M8 16C12.4183 16 16 12.4183 16 8C16 3.58172 12.4183 0 8 0C3.58172 0 0 3.58172 0 8C0 12.4183 3.58172 16 8 16Z" fill="#008FBB"/>
<path fill-rule="evenodd" clip-rule="evenodd" d="M13.041 8.4165C12.7875 8.4165 12.582 8.23 12.582 8V7.583H10.276C10.0225 7.583 9.817 7.3965 9.817 7.1665C9.817 6.9365 10.0225 6.75 10.276 6.75H13.041C13.2945 6.75 13.5 6.9365 13.5 7.1665V8C13.5 8.23 13.295 8.4165 13.041 8.4165ZM10.7665 8.4165H11.684C11.9375 8.4165 12.143 8.603 12.143 8.833C12.143 9.063 11.938 9.25 11.684 9.25H10.276C10.2029 9.2502 10.1306 9.23414 10.0645 9.203L7.3885 7.583H6.6175C6.364 7.583 6.1585 7.3965 6.1585 7.1665C6.1585 6.9365 6.3635 6.75 6.6175 6.75H7.535C7.634 6.75 7.7255 6.7785 7.8005 6.827L10.4165 8.417L10.7665 8.4165ZM7.535 8.4165C7.7885 8.4165 7.994 8.603 7.994 8.833C7.994 9.063 7.7885 9.25 7.535 9.25H6.6175C6.54439 9.25018 6.47215 9.23413 6.406 9.203L3.73 7.583H2.959C2.7055 7.583 2.5 7.3965 2.5 7.1665C2.5 6.9365 2.705 6.75 2.959 6.75H3.8765C3.97056 6.74966 4.06272 6.77639 4.142 6.827L6.758 8.417L7.535 8.4165ZM2.959 8.4165H3.8765C4.13 8.4165 4.3355 8.603 4.3355 8.8335C4.3355 9.0635 4.13 9.25 3.8765 9.25H2.959C2.7055 9.25 2.5 9.0635 2.5 8.8335C2.5 8.6035 2.705 8.4165 2.959 8.4165Z" fill="white"/>
</g>
<defs>
<clipPath id="clip0_7_8058">
<rect width="16" height="16" fill="white"/>
</clipPath>
</defs>
</svg>
