<svg width="16" height="16" viewBox="0 0 16 16" fill="none" xmlns="http://www.w3.org/2000/svg">
<g clip-path="url(#clip0_7_7784)">
<path d="M8 16C12.4183 16 16 12.4183 16 8C16 3.58172 12.4183 0 8 0C3.58172 0 0 3.58172 0 8C0 12.4183 3.58172 16 8 16Z" fill="#164B79"/>
<path d="M7.04466 9.334L6.73316 9.999H6.04216L7.91866 6L9.17016 8.6665H8.46266L7.90266 7.509L7.34166 8.686L7.04466 9.334ZM9.77166 9.984L11.2367 8.009L9.76116 6.019H10.5687L11.6392 7.474L11.2497 8.009L11.6392 8.544L10.5692 9.999H9.08766L8.77465 9.334H9.46565L9.77166 9.984ZM12.0347 8.0005L11.6392 7.457L12.7097 6.002H13.4997L12.0347 8.0005ZM12.0347 8.0005L13.4997 9.9995H12.7097L11.6397 8.5445L12.0347 8.0005ZM5.71066 6.5795C5.89023 6.76904 6.0306 6.99219 6.1237 7.23613C6.2168 7.48008 6.26079 7.74001 6.25316 8.001C6.26001 8.52649 6.06596 9.03477 5.71066 9.422C5.34966 9.8265 4.90316 10 4.37666 10C4.12621 10.0025 3.87805 9.95232 3.64824 9.85275C3.41843 9.75318 3.21211 9.60642 3.04266 9.422C2.68155 9.03835 2.48642 8.5277 2.49966 8.001C2.49161 7.58862 2.61238 7.184 2.84516 6.8435L3.30516 7.3335C3.16115 7.59046 3.10118 7.88604 3.13363 8.1788C3.16609 8.47156 3.28936 8.74683 3.48616 8.966C3.59768 9.0923 3.7346 9.19365 3.88795 9.26344C4.04131 9.33322 4.20767 9.36988 4.37616 9.371C4.71216 9.371 5.03316 9.2245 5.26616 8.966C5.38567 8.83954 5.47911 8.69078 5.54114 8.5282C5.60317 8.36563 5.63256 8.19243 5.62766 8.0185C5.62882 7.66853 5.49979 7.33062 5.26566 7.0705C5.1536 6.94625 5.01612 6.84757 4.86256 6.78114C4.70899 6.71471 4.54294 6.68209 4.37566 6.6855C4.15459 6.67943 3.93687 6.74044 3.75116 6.8605L3.29116 6.3705C3.60007 6.12625 3.98389 5.99624 4.37766 6.0025C4.62807 5.99803 4.87654 6.0472 5.10638 6.14673C5.33621 6.24625 5.54208 6.39381 5.71016 6.5795H5.71066Z" fill="white"/>
</g>
<defs>
<clipPath id="clip0_7_7784">
<rect width="16" height="16" fill="white"/>
</clipPath>
</defs>
</svg>
