<svg width="16" height="16" viewBox="0 0 16 16" fill="none" xmlns="http://www.w3.org/2000/svg">
<g clip-path="url(#clip0_7_7781)">
<path d="M8 16C12.4183 16 16 12.4183 16 8C16 3.58172 12.4183 0 8 0C3.58172 0 0 3.58172 0 8C0 12.4183 3.58172 16 8 16Z" fill="black"/>
<path d="M13.9928 7.33451V7.36651C13.2993 7.80051 12.6008 8.22952 11.9043 8.66252C11.8911 8.67207 11.8807 8.68503 11.8743 8.70001C12.0603 8.75001 12.2528 8.78751 12.4293 8.86851C12.5923 8.94101 12.7593 9.03551 12.8513 9.19402C12.9393 9.35501 12.9613 9.54401 12.9123 9.72051C12.8858 9.85251 12.8303 9.97651 12.7803 10.102C12.5713 10.603 12.3613 11.1025 12.1538 11.6055C12.1437 11.6304 12.1302 11.6538 12.1138 11.675C12.0453 11.6735 11.9798 11.6485 11.9128 11.633C11.5748 11.5495 11.2348 11.4675 10.8968 11.383C10.7868 11.352 10.6738 11.334 10.5653 11.298C10.5683 11.2295 10.6073 11.171 10.6303 11.1095L11.0943 9.99901C11.1293 9.92201 11.1498 9.82601 11.0998 9.75102C11.0373 9.64402 10.9118 9.60351 10.8008 9.57301C10.3928 9.46801 9.98179 9.37101 9.57279 9.26951C9.51429 9.25701 9.45729 9.23051 9.39579 9.23851C9.35979 9.30151 9.33879 9.37252 9.30979 9.44052C9.13579 9.84852 8.96879 10.259 8.79579 10.667C8.77079 10.724 8.75579 10.787 8.71779 10.837C8.64979 10.837 8.58579 10.8105 8.52029 10.795C8.17079 10.709 7.82129 10.621 7.47029 10.536C7.37179 10.5095 7.26879 10.493 7.17129 10.4595C7.17248 10.4318 7.17858 10.4046 7.18929 10.379L8.95579 6.14401C8.96189 6.12982 8.97153 6.11743 8.98379 6.10801C9.04529 6.11201 9.10379 6.13701 9.16379 6.15101C9.46129 6.22201 9.75929 6.29851 10.0573 6.37101C10.2118 6.41101 10.3703 6.44201 10.5238 6.48801C10.5318 6.51701 10.5178 6.54651 10.5068 6.57401C10.3868 6.84701 10.2768 7.12401 10.1603 7.39701L9.79979 8.26301C9.75929 8.36451 9.70629 8.46201 9.67829 8.56902C9.73029 8.55102 9.77479 8.52051 9.82029 8.48951L12.1733 7.01451C12.2163 6.98751 12.2553 6.95151 12.3043 6.93901C12.3763 6.93351 12.4443 6.96101 12.5128 6.97651C12.7528 7.02801 12.9888 7.09651 13.2268 7.15152C13.4848 7.20901 13.7378 7.28001 13.9928 7.33451ZM8.44079 6.48501C8.45329 6.73701 8.35729 6.97651 8.25879 7.20201C7.99279 7.84101 7.72379 8.47852 7.45929 9.11752C7.36329 9.34302 7.27979 9.57852 7.13229 9.77751C7.02729 9.92552 6.88129 10.0395 6.71229 10.1045C6.49926 10.1711 6.27367 10.1874 6.05329 10.152C5.67329 10.1045 5.30329 10.002 4.93129 9.91252C4.42629 9.78602 3.91779 9.66351 3.41279 9.53651C3.07729 9.45601 2.73879 9.36951 2.42679 9.21652C2.29216 9.15124 2.17777 9.05067 2.09579 8.92551C2.03247 8.82222 2.00456 8.7011 2.01629 8.58051C2.04279 8.35901 2.12479 8.14851 2.21379 7.94551L3.02879 5.98801C3.09379 5.83801 3.15079 5.68301 3.23429 5.54151C3.30572 5.41064 3.40064 5.29403 3.51429 5.19752C3.64829 5.09552 3.80579 5.03001 3.97229 5.00651C4.09479 4.99551 4.21729 5.00151 4.33979 5.00401C4.71861 5.06001 5.09378 5.13848 5.46329 5.23901C5.98129 5.36401 6.49779 5.49551 7.01529 5.62051C7.25329 5.67901 7.49029 5.73901 7.72279 5.81851C7.87829 5.87551 8.03729 5.93351 8.17379 6.03251C8.32879 6.13301 8.42779 6.30051 8.44079 6.48501ZM6.63079 6.93051C6.64079 6.85701 6.58829 6.79401 6.52679 6.76201C6.40179 6.69401 6.25929 6.66901 6.12329 6.63401C5.76229 6.54401 5.40129 6.45501 5.03829 6.36701C4.93542 6.33687 4.82713 6.33003 4.72129 6.34701C4.59879 6.38201 4.53729 6.50601 4.49579 6.61451C4.29079 7.10201 4.09079 7.59051 3.88479 8.07651C3.86229 8.13351 3.83979 8.19051 3.83479 8.25151C3.83479 8.32151 3.88329 8.38251 3.94279 8.41151C4.03229 8.45751 4.12979 8.48302 4.22429 8.50802L5.35179 8.78501C5.48279 8.81551 5.62029 8.84901 5.75429 8.82001C5.86679 8.78351 5.92429 8.66801 5.96579 8.56651L6.51829 7.24101C6.56179 7.14102 6.61729 7.04202 6.63129 6.93102L6.63079 6.93051Z" fill="white"/>
</g>
<defs>
<clipPath id="clip0_7_7781">
<rect width="16" height="16" fill="white"/>
</clipPath>
</defs>
</svg>
