<svg width="16" height="16" viewBox="0 0 16 16" fill="none" xmlns="http://www.w3.org/2000/svg">
<g clip-path="url(#clip0_7_7778)">
<path d="M8 16C12.4183 16 16 12.4183 16 8C16 3.58172 12.4183 0 8 0C3.58172 0 0 3.58172 0 8C0 12.4183 3.58172 16 8 16Z" fill="#101010"/>
<path d="M8.0285 8.888L7.0135 6.089H6.15V9.7505H6.7725V7.171L7.7145 9.7505H8.3265L9.2675 7.171V9.7505H9.9055V6.089H9.043L8.0285 8.888ZM3.8355 6C2.7115 6 2 6.8475 2 7.9225C2 8.997 2.7115 9.8425 3.8355 9.8425C4.9595 9.8425 5.6725 9.003 5.6725 7.9225C5.6725 6.8415 4.9615 6 3.8355 6ZM3.8355 9.1915C3.119 9.1915 2.6905 8.6525 2.6905 7.925C2.6905 7.197 3.119 6.6545 3.8355 6.6545C4.552 6.6545 4.982 7.1985 4.982 7.9225C4.982 8.646 4.553 9.1915 3.8355 9.1915ZM12.069 8.418H13.12C13.058 8.952 12.67 9.203 12.173 9.203C11.4615 9.203 11.065 8.6795 11.065 7.926C11.065 7.2195 11.4145 6.6395 12.158 6.6395C12.644 6.6395 13.037 6.8875 13.079 7.304H13.774C13.68 6.467 13.0415 6.001 12.179 6.001C10.9545 6.001 10.384 6.943 10.384 7.947C10.384 9.0255 11.044 9.841 12.069 9.841C12.67 9.841 13.006 9.563 13.141 9.328V9.7465H13.774V7.7885H12.069V8.418Z" fill="white"/>
</g>
<defs>
<clipPath id="clip0_7_7778">
<rect width="16" height="16" fill="white"/>
</clipPath>
</defs>
</svg>
