<svg width="16" height="16" viewBox="0 0 16 16" fill="none" xmlns="http://www.w3.org/2000/svg">
<g clip-path="url(#clip0_7_7765)">
<path d="M8 16C12.4183 16 16 12.4183 16 8C16 3.58172 12.4183 0 8 0C3.58172 0 0 3.58172 0 8C0 12.4183 3.58172 16 8 16Z" fill="#1C347A"/>
<path d="M5.0325 3.444C4.3954 3.85984 3.85214 4.40412 3.4375 5.042V3.444H5.0325ZM12.5345 4.999C12.1234 4.37947 11.5902 3.85034 10.9675 3.444H12.5345V4.999ZM10.9905 12.541C11.6034 12.1366 12.1285 11.6128 12.5345 11.001V12.541H10.9905ZM3.4375 10.958C3.84708 11.5881 4.38223 12.127 5.0095 12.541H3.4375V10.958ZM13 8C13 10.757 10.757 13 8 13C5.243 13 3 10.757 3 8C3 5.243 5.243 3 8 3C10.757 3 13 5.243 13 8ZM8 11.646C10.01 11.646 11.646 10.0105 11.646 8C11.646 5.99 10.0105 4.354 8 4.354C5.99 4.354 4.354 5.9895 4.354 8C4.354 10.01 5.9895 11.646 8 11.646Z" fill="white"/>
</g>
<defs>
<clipPath id="clip0_7_7765">
<rect width="16" height="16" fill="white"/>
</clipPath>
</defs>
</svg>
