<svg width="16" height="16" viewBox="0 0 16 16" fill="none" xmlns="http://www.w3.org/2000/svg">
<g clip-path="url(#clip0_7_7776)">
<path d="M8 16C12.4183 16 16 12.4183 16 8C16 3.58172 12.4183 0 8 0C3.58172 0 0 3.58172 0 8C0 12.4183 3.58172 16 8 16Z" fill="#00AEE9"/>
<path d="M10.5715 3.5C9.5095 3.5 8.643 4.369 8.615 5.4345V7.593C8.419 7.593 8.2235 7.621 8 7.621C7.7765 7.621 7.5805 7.621 7.385 7.649V5.434C7.385 4.369 6.4905 3.5 5.4005 3.528C4.3665 3.528 3.528 4.397 3.5 5.4345V10.593C3.528 11.658 4.3945 12.5275 5.4845 12.4995C6.5465 12.4715 7.385 11.6305 7.385 10.593V8.434C7.5805 8.434 7.7765 8.406 8 8.406C8.2235 8.406 8.419 8.406 8.615 8.378V10.565C8.643 11.63 9.5095 12.4995 10.5995 12.4715C11.6615 12.4435 12.5 11.602 12.5 10.565V5.4345C12.5 4.3695 11.6335 3.5 10.5715 3.5ZM5.4565 4.285C5.6077 4.28352 5.75767 4.31227 5.89761 4.36956C6.03755 4.42685 6.16462 4.51152 6.27138 4.6186C6.37814 4.72569 6.46242 4.85302 6.51929 4.99313C6.57615 5.13324 6.60444 5.2833 6.6025 5.4345V7.7055C6.03519 7.79531 5.48127 7.95537 4.9535 8.182C4.73 8.294 4.506 8.406 4.3105 8.5745V5.4345C4.3105 4.8175 4.8135 4.285 5.4565 4.285ZM6.6025 10.593C6.60444 10.7442 6.57615 10.8943 6.51929 11.0344C6.46242 11.1745 6.37814 11.3018 6.27138 11.4089C6.16462 11.516 6.03755 11.6007 5.89761 11.6579C5.75767 11.7152 5.6077 11.744 5.4565 11.7425C5.30526 11.744 5.15524 11.7152 5.01527 11.6579C4.8753 11.6006 4.7482 11.5159 4.64144 11.4087C4.53467 11.3016 4.4504 11.1742 4.39357 11.034C4.33674 10.8939 4.30849 10.7437 4.3105 10.5925V10.0885C4.3105 9.64 4.674 9.191 5.289 8.9385C5.708 8.7425 6.1555 8.6305 6.6305 8.5465L6.6025 10.593ZM10.5715 11.7425C10.4203 11.744 10.2702 11.7152 10.1303 11.6579C9.9903 11.6006 9.8632 11.5159 9.75644 11.4087C9.64967 11.3016 9.5654 11.1742 9.50857 11.034C9.45174 10.8939 9.42349 10.7437 9.4255 10.5925V8.3225C9.99283 8.23254 10.5468 8.0723 11.0745 7.8455C11.298 7.7335 11.5215 7.621 11.7175 7.453V10.593C11.7166 10.897 11.5957 11.1883 11.381 11.4036C11.1664 11.6188 10.8755 11.7407 10.5715 11.7425ZM10.739 7.1165C10.32 7.313 9.8725 7.425 9.3975 7.509V5.434C9.39563 5.28285 9.42397 5.13284 9.48086 4.99279C9.53775 4.85274 9.62205 4.72546 9.7288 4.61843C9.83555 4.5114 9.9626 4.42677 10.1025 4.36951C10.2424 4.31226 10.3923 4.28352 10.5435 4.285C10.6947 4.28352 10.8447 4.31227 10.9846 4.36956C11.1245 4.42685 11.2516 4.51152 11.3584 4.6186C11.4651 4.72569 11.5494 4.85302 11.6063 4.99313C11.6631 5.13324 11.6914 5.2833 11.6895 5.4345V5.9395C11.7175 6.4155 11.3535 6.836 10.739 7.1165Z" fill="white"/>
</g>
<defs>
<clipPath id="clip0_7_7776">
<rect width="16" height="16" fill="white"/>
</clipPath>
</defs>
</svg>
