<svg width="16" height="16" viewBox="0 0 16 16" fill="none" xmlns="http://www.w3.org/2000/svg">
<g clip-path="url(#clip0_7_7827)">
<path d="M8 16C12.4183 16 16 12.4183 16 8C16 3.58172 12.4183 0 8 0C3.58172 0 0 3.58172 0 8C0 12.4183 3.58172 16 8 16Z" fill="black"/>
<path fill-rule="evenodd" clip-rule="evenodd" d="M7.9715 13.1555C10.8415 13.1555 13.0155 11.2325 13.4665 8.71649H11.018C10.652 10.0525 9.516 11.0305 8.0005 11.0305C6.496 11.0305 5.3455 10.0455 4.964 8.71649H2.5C2.9345 11.2415 5.09 13.1555 7.9715 13.1555Z" fill="white"/>
<path d="M7.98567 5.027C8.68348 5.027 9.24917 4.46131 9.24917 3.7635C9.24917 3.06569 8.68348 2.5 7.98567 2.5C7.28786 2.5 6.72217 3.06569 6.72217 3.7635C6.72217 4.46131 7.28786 5.027 7.98567 5.027Z" fill="white"/>
<path fill-rule="evenodd" clip-rule="evenodd" d="M4.82764 8.71653V8.69153C4.82764 6.89503 6.11464 5.42853 7.97014 5.42853C9.82614 5.42853 11.1401 6.92003 11.1431 8.71653H4.82764Z" fill="white"/>
</g>
<defs>
<clipPath id="clip0_7_7827">
<rect width="16" height="16" fill="white"/>
</clipPath>
</defs>
</svg>
