<svg width="16" height="16" viewBox="0 0 16 16" fill="none" xmlns="http://www.w3.org/2000/svg">
<g clip-path="url(#clip0_7_7774)">
<path d="M8 16C12.4183 16 16 12.4183 16 8C16 3.58172 12.4183 0 8 0C3.58172 0 0 3.58172 0 8C0 12.4183 3.58172 16 8 16Z" fill="#32A4BE"/>
<path fill-rule="evenodd" clip-rule="evenodd" d="M12.5 12.1085L4.9885 4.76052C5.82046 3.94892 6.93774 3.4963 8.1 3.50002C10.53 3.50002 12.5 5.42702 12.5 7.80452V12.1085ZM3.5 3.89152L11.0115 11.2395C10.1795 12.0511 9.06226 12.5037 7.9 12.5C5.47 12.5 3.5 10.573 3.5 8.19552V3.89152Z" fill="white"/>
</g>
<defs>
<clipPath id="clip0_7_7774">
<rect width="16" height="16" fill="white"/>
</clipPath>
</defs>
</svg>
