<svg width="16" height="16" viewBox="0 0 16 16" fill="none" xmlns="http://www.w3.org/2000/svg">
<g clip-path="url(#clip0_7_7772)">
<path d="M8 16C12.4183 16 16 12.4183 16 8C16 3.58172 12.4183 0 8 0C3.58172 0 0 3.58172 0 8C0 12.4183 3.58172 16 8 16Z" fill="#25AAE1"/>
<path fill-rule="evenodd" clip-rule="evenodd" d="M8.17296 12.4965C7.35296 12.5055 6.66445 12.3575 6.01546 12.035C5.97546 12.015 5.94545 12.014 5.90545 12.0365C5.51126 12.2593 5.07849 12.4055 4.62996 12.4675C4.43796 12.4925 4.24396 12.5195 4.05096 12.48C3.93211 12.4567 3.82161 12.4022 3.73077 12.3221C3.63993 12.242 3.57203 12.1391 3.53402 12.0241C3.49601 11.9092 3.48926 11.7861 3.51447 11.6677C3.53967 11.5492 3.59592 11.4396 3.67745 11.35C3.90658 11.0897 4.07861 10.7843 4.18245 10.4535C4.18856 10.437 4.19052 10.4193 4.18817 10.4018C4.18581 10.3844 4.17922 10.3678 4.16896 10.3535C3.815 9.79166 3.59642 9.15527 3.53045 8.49451C3.38345 7.03351 3.83795 5.78201 4.88545 4.75601C5.54469 4.10301 6.39782 3.68127 7.31695 3.55401C8.58545 3.36851 9.74146 3.66151 10.757 4.44801C11.663 5.15001 12.227 6.07451 12.4235 7.20351C12.6725 8.63251 12.312 9.90551 11.3535 10.9935C10.645 11.7975 9.74496 12.275 8.68596 12.4445C8.48495 12.477 8.28096 12.486 8.17296 12.4965ZM4.95796 11.3025C4.99046 11.2935 5.00945 11.2885 5.02795 11.2825C5.31234 11.1865 5.58092 11.0488 5.82495 10.874C6.00095 10.75 6.17446 10.744 6.35996 10.85C6.75796 11.078 7.18446 11.22 7.64196 11.2685C8.38546 11.348 9.08696 11.2065 9.71446 10.8035C10.7995 10.1075 11.3395 9.10551 11.281 7.80801C11.2435 6.97701 10.918 6.25951 10.3285 5.67501C9.61796 4.97101 8.75346 4.65001 7.75196 4.71901C7.07696 4.76601 6.46696 4.99801 5.94746 5.43151C4.94096 6.27151 4.55245 7.34851 4.77545 8.64001C4.84845 9.06501 5.01795 9.45501 5.25695 9.81501C5.30256 9.87934 5.3338 9.95274 5.34855 10.0302C5.36331 10.1077 5.36123 10.1874 5.34246 10.264C5.2853 10.5126 5.20495 10.7554 5.10245 10.989C5.05795 11.0905 5.00946 11.19 4.95796 11.3025ZM8.00346 6.09651L8.28846 6.67501C8.38845 6.88001 8.49146 7.08501 8.58846 7.29201C8.61346 7.34601 8.64696 7.36501 8.70296 7.37251C9.12296 7.43101 9.54246 7.49251 9.96196 7.55301C9.97646 7.55551 9.99095 7.55951 10.009 7.56301C9.93146 7.64301 9.85946 7.72101 9.78396 7.79451C9.54696 8.02601 9.30946 8.25651 9.07046 8.48551C9.02896 8.52551 9.01246 8.56301 9.02346 8.62451C9.09846 9.04601 9.16846 9.46851 9.23946 9.89101C9.24096 9.90151 9.24096 9.91251 9.24246 9.93301C9.21946 9.92401 9.20195 9.91851 9.18596 9.91001C8.81496 9.71451 8.44346 9.51951 8.07396 9.32101C8.02396 9.29401 7.98496 9.29151 7.93296 9.31951C7.56096 9.51801 7.18746 9.71351 6.81396 9.90951C6.79895 9.91801 6.78296 9.92451 6.75396 9.93851C6.77246 9.82501 6.78846 9.72351 6.80596 9.62251C6.86496 9.28151 6.92345 8.94001 6.98595 8.59951C6.99496 8.54951 6.96696 8.52601 6.93896 8.49851C6.64124 8.20588 6.34291 7.91388 6.04396 7.62251C6.02696 7.60551 6.00295 7.59601 5.98195 7.58301L5.99745 7.55901L6.45546 7.49301C6.74345 7.45201 7.03095 7.41001 7.31945 7.37051C7.36545 7.36401 7.38645 7.33951 7.40545 7.30051C7.59396 6.91601 7.78446 6.53251 7.97396 6.14851C7.98096 6.13501 7.98846 6.12251 8.00346 6.09651Z" fill="white"/>
</g>
<defs>
<clipPath id="clip0_7_7772">
<rect width="16" height="16" fill="white"/>
</clipPath>
</defs>
</svg>
