<svg width="16" height="16" viewBox="0 0 16 16" fill="none" xmlns="http://www.w3.org/2000/svg">
<g clip-path="url(#clip0_7_7770)">
<path d="M8 16C12.4183 16 16 12.4183 16 8C16 3.58172 12.4183 0 8 0C3.58172 0 0 3.58172 0 8C0 12.4183 3.58172 16 8 16Z" fill="#34445B"/>
<path d="M7.96866 5.11101L8.97366 3.54301C9.23153 3.58484 9.49559 3.52563 9.71092 3.37771C9.92624 3.22978 10.0762 3.00453 10.1297 2.74882C10.1832 2.49311 10.136 2.22664 9.99794 2.00484C9.85992 1.78304 9.64169 1.623 9.38866 1.55801C9.18711 1.51628 8.97764 1.5368 8.78802 1.61686C8.5984 1.69693 8.43761 1.83275 8.32696 2.00631C8.21632 2.17987 8.16106 2.38296 8.1685 2.58865C8.17595 2.79434 8.24576 2.99291 8.36866 3.15801L7.12166 5.10351C6.60126 5.1547 6.09604 5.30794 5.63488 5.55447C5.17373 5.80099 4.76567 6.13598 4.43404 6.54029C4.1024 6.94459 3.85369 7.41028 3.70212 7.91075C3.55054 8.41122 3.49908 8.93665 3.55066 9.45701C3.65468 10.5077 4.17165 11.474 4.98791 12.1436C5.80418 12.8133 6.85294 13.1314 7.90366 13.028C8.95441 12.9241 9.92089 12.4072 10.5906 11.5909C11.2604 10.7746 11.5785 9.72581 11.4752 8.67501C11.3854 7.7699 10.9886 6.92275 10.3507 6.27439C9.71278 5.62603 8.8722 5.21549 7.96866 5.11101ZM7.51116 11.172C7.23378 11.1723 6.95907 11.1178 6.70274 11.0118C6.44641 10.9058 6.21351 10.7503 6.01734 10.5542C5.82118 10.3581 5.66561 10.1252 5.55954 9.8689C5.45346 9.6126 5.39897 9.3379 5.39916 9.06051C5.3989 8.78309 5.45335 8.50834 5.55939 8.25198C5.66544 7.99562 5.821 7.76269 6.01717 7.56652C6.21334 7.37035 6.44627 7.21479 6.70262 7.10875C6.95898 7.0027 7.23374 6.94825 7.51116 6.94851C7.9402 6.94841 8.35908 7.0791 8.71194 7.32315C9.0648 7.56721 9.33488 7.91303 9.48616 8.31451C9.28772 8.05896 8.99596 7.89262 8.67496 7.85202C8.35396 7.81143 8.02998 7.8999 7.77416 8.09801C7.51849 8.29638 7.35206 8.58815 7.31147 8.90919C7.27087 9.23023 7.35942 9.55425 7.55766 9.81001C7.67153 9.95651 7.81731 10.0751 7.9839 10.1568C8.15049 10.2385 8.33351 10.2811 8.51906 10.2815C8.7046 10.2818 8.88778 10.2398 9.05467 10.1587C9.22156 10.0777 9.36776 9.95959 9.48216 9.81351C9.33027 10.2132 9.06037 10.5572 8.70832 10.7999C8.35628 11.0425 7.93873 11.1723 7.51116 11.172Z" fill="white"/>
<path d="M7.96866 5.11101L8.97366 3.54301C9.23153 3.58484 9.49559 3.52563 9.71092 3.37771C9.92624 3.22978 10.0762 3.00453 10.1297 2.74882C10.1832 2.49311 10.136 2.22664 9.99794 2.00484C9.85992 1.78304 9.64169 1.623 9.38866 1.55801C9.18711 1.51628 8.97764 1.5368 8.78802 1.61686C8.5984 1.69693 8.43761 1.83275 8.32696 2.00631C8.21632 2.17987 8.16106 2.38296 8.1685 2.58865C8.17595 2.79434 8.24576 2.99291 8.36866 3.15801L7.12166 5.10351C6.60126 5.1547 6.09604 5.30794 5.63488 5.55447C5.17373 5.80099 4.76567 6.13598 4.43404 6.54029C4.1024 6.94459 3.85369 7.41028 3.70212 7.91075C3.55054 8.41122 3.49908 8.93665 3.55066 9.45701C3.65468 10.5077 4.17165 11.474 4.98791 12.1436C5.80418 12.8133 6.85294 13.1314 7.90366 13.028C8.95441 12.9241 9.92089 12.4072 10.5906 11.5909C11.2604 10.7746 11.5785 9.72581 11.4752 8.67501C11.3854 7.7699 10.9886 6.92275 10.3507 6.27439C9.71278 5.62603 8.8722 5.21549 7.96866 5.11101ZM7.51116 11.172C7.23378 11.1723 6.95907 11.1178 6.70274 11.0118C6.44641 10.9058 6.21351 10.7503 6.01734 10.5542C5.82118 10.3581 5.66561 10.1252 5.55954 9.8689C5.45346 9.6126 5.39897 9.3379 5.39916 9.06051C5.3989 8.78309 5.45335 8.50834 5.55939 8.25198C5.66544 7.99562 5.821 7.76269 6.01717 7.56652C6.21334 7.37035 6.44627 7.21479 6.70262 7.10875C6.95898 7.0027 7.23374 6.94825 7.51116 6.94851C7.9402 6.94841 8.35908 7.0791 8.71194 7.32315C9.0648 7.56721 9.33488 7.91303 9.48616 8.31451C9.28772 8.05896 8.99596 7.89262 8.67496 7.85202C8.35396 7.81143 8.02998 7.8999 7.77416 8.09801C7.51849 8.29638 7.35206 8.58815 7.31147 8.90919C7.27087 9.23023 7.35942 9.55425 7.55766 9.81001C7.67153 9.95651 7.81731 10.0751 7.9839 10.1568C8.15049 10.2385 8.33351 10.2811 8.51906 10.2815C8.7046 10.2818 8.88778 10.2398 9.05467 10.1587C9.22156 10.0777 9.36776 9.95959 9.48216 9.81351C9.33027 10.2132 9.06037 10.5572 8.70832 10.7999C8.35628 11.0425 7.93873 11.1723 7.51116 11.172Z" fill="white"/>
</g>
<defs>
<clipPath id="clip0_7_7770">
<rect width="16" height="16" fill="white"/>
</clipPath>
</defs>
</svg>
