<svg width="16" height="16" viewBox="0 0 16 16" fill="none" xmlns="http://www.w3.org/2000/svg">
<g clip-path="url(#clip0_7_7767)">
<path d="M8 16C12.4183 16 16 12.4183 16 8C16 3.58172 12.4183 0 8 0C3.58172 0 0 3.58172 0 8C0 12.4183 3.58172 16 8 16Z" fill="#4392CD"/>
<path fill-rule="evenodd" clip-rule="evenodd" d="M8.429 12.75H7.571C6.927 12.75 6.7445 12.153 6.7445 11.697C6.7445 11.241 6.777 11.0345 6.777 10.8285C6.777 10.5035 6.613 9.69201 6.3155 9.35201C5.736 8.68951 5.371 8.09601 5.371 7.23501C4.867 6.97451 3.976 6.73551 3.633 6.34501C3.29 5.95451 3 5.40001 3 4.60701C3 4.40451 3.043 4.11851 3.129 3.74951C3.3265 4.36651 3.6305 4.78951 4.041 5.01951C4.6415 5.35651 5.3185 5.60601 5.897 5.60601H10.103C10.6815 5.60601 11.358 5.35601 11.959 5.01951C12.369 4.78951 12.6735 4.36651 12.871 3.74951C12.957 4.11851 13 4.40451 13 4.60701C13 5.39951 12.71 5.95351 12.367 6.34401C12.024 6.73451 11.133 6.97401 10.629 7.23401C10.629 8.09551 10.264 8.68901 9.6845 9.35151C9.387 9.69151 9.223 10.503 9.223 10.828C9.223 11.034 9.2555 11.2405 9.2555 11.6965C9.2555 12.1525 9.073 12.75 8.429 12.75Z" fill="white"/>
</g>
<defs>
<clipPath id="clip0_7_7767">
<rect width="16" height="16" fill="white"/>
</clipPath>
</defs>
</svg>
