<svg width="16" height="16" viewBox="0 0 16 16" fill="none" xmlns="http://www.w3.org/2000/svg">
<g clip-path="url(#clip0_7_7764)">
<path d="M8 16C12.4183 16 16 12.4183 16 8C16 3.58172 12.4183 0 8 0C3.58172 0 0 3.58172 0 8C0 12.4183 3.58172 16 8 16Z" fill="#5F45BA"/>
<path d="M5.22179 4.58C5.16632 4.67351 5.08436 4.74846 4.98629 4.79537C4.88821 4.84228 4.77842 4.85905 4.67081 4.84354C4.56321 4.82804 4.46262 4.78096 4.38177 4.70827C4.30093 4.63558 4.24347 4.54054 4.21665 4.43518C4.18984 4.32982 4.19488 4.21887 4.23115 4.11638C4.26741 4.01389 4.33326 3.92445 4.42036 3.8594C4.50747 3.79434 4.61192 3.75659 4.72049 3.75091C4.82906 3.74523 4.93687 3.77189 5.03029 3.8275C5.29079 3.9825 5.37679 4.319 5.22179 4.58ZM3.34679 4.336C3.30759 4.40217 3.24965 4.45522 3.18029 4.48842C3.11093 4.52163 3.03327 4.53351 2.95715 4.52255C2.88104 4.51159 2.80989 4.47828 2.75271 4.42685C2.69554 4.37543 2.65491 4.30819 2.63598 4.23365C2.61705 4.15912 2.62066 4.08064 2.64637 4.00816C2.67207 3.93569 2.7187 3.87247 2.78036 3.82651C2.84202 3.78056 2.91593 3.75393 2.99273 3.75002C3.06953 3.7461 3.14577 3.76506 3.21179 3.8045C3.39579 3.9145 3.45679 4.152 3.34679 4.336ZM8.56629 12.286C9.12629 12.2199 9.66768 12.0436 10.1593 11.7674C10.6508 11.4911 11.0829 11.1203 11.4306 10.6764C11.7782 10.2324 12.0346 9.72405 12.185 9.18057C12.3353 8.63709 12.3766 8.06924 12.3065 7.50972C12.2364 6.9502 12.0563 6.41008 11.7766 5.92046C11.4969 5.43085 11.123 5.00143 10.6766 4.65693C10.2302 4.31243 9.72 4.05967 9.17546 3.9132C8.63093 3.76673 8.06279 3.72945 7.50379 3.8035C7.14431 3.83712 6.79207 3.92548 6.45929 4.0655C6.07179 4.2555 5.82179 4.572 5.82179 4.9955C5.82179 5.5455 6.26779 5.9925 6.81879 5.9925C6.91079 5.9925 7.22929 5.8915 7.30529 5.8655C7.66419 5.74027 8.04851 5.70582 8.42396 5.76523C8.79941 5.82464 9.15432 5.97607 9.45702 6.20599C9.75973 6.43591 10.0008 6.73719 10.1588 7.08294C10.3167 7.42869 10.3866 7.80816 10.3623 8.1875C10.332 8.66978 10.1508 9.13031 9.84441 9.50397C9.538 9.87763 9.12186 10.1455 8.65487 10.2697C8.18787 10.3938 7.69365 10.368 7.24212 10.1959C6.7906 10.0238 6.40462 9.71404 6.13879 9.3105C5.67879 8.708 5.78479 7.7455 5.78429 7.733C5.7753 7.49459 5.68123 7.26727 5.51913 7.0922C5.35702 6.91714 5.13759 6.80592 4.90056 6.77866C4.66354 6.7514 4.42458 6.80992 4.22697 6.94362C4.02936 7.07731 3.88616 7.27735 3.82329 7.5075C3.80079 7.591 3.78929 7.83551 3.79279 7.868C3.76757 8.48589 3.87675 9.10188 4.11279 9.67346C4.34883 10.245 4.70611 10.7586 5.15996 11.1786C5.6138 11.5987 6.1534 11.9152 6.74151 12.1064C7.32961 12.2976 7.9522 12.3589 8.56629 12.286ZM4.65029 6.105C4.57839 6.22606 4.47221 6.32308 4.34517 6.38381C4.21814 6.44453 4.07596 6.46622 3.9366 6.44615C3.79723 6.42607 3.66695 6.36512 3.56223 6.27102C3.4575 6.17691 3.38302 6.05386 3.34822 5.91743C3.31341 5.781 3.31983 5.63731 3.36668 5.50454C3.41352 5.37176 3.49868 5.25585 3.61139 5.17146C3.7241 5.08708 3.8593 5.038 3.9999 5.03045C4.1405 5.02289 4.28018 5.05719 4.40129 5.129C4.73929 5.33 4.85029 5.767 4.64979 6.105" fill="white"/>
</g>
<defs>
<clipPath id="clip0_7_7764">
<rect width="16" height="16" fill="white"/>
</clipPath>
</defs>
</svg>
