<svg width="16" height="16" viewBox="0 0 16 16" fill="none" xmlns="http://www.w3.org/2000/svg">
<g clip-path="url(#clip0_7_7761)">
<path d="M8 16C12.4183 16 16 12.4183 16 8C16 3.58172 12.4183 0 8 0C3.58172 0 0 3.58172 0 8C0 12.4183 3.58172 16 8 16Z" fill="#2261F6"/>
<path d="M7.99951 13.25C8.43664 13.25 8.79101 12.9044 8.79101 12.478C8.79101 12.0516 8.43664 11.706 7.99951 11.706C7.56237 11.706 7.20801 12.0516 7.20801 12.478C7.20801 12.9044 7.56237 13.25 7.99951 13.25Z" fill="white"/>
<path d="M7.99951 4.294C8.43664 4.294 8.79101 3.94836 8.79101 3.522C8.79101 3.09564 8.43664 2.75 7.99951 2.75C7.56237 2.75 7.20801 3.09564 7.20801 3.522C7.20801 3.94836 7.56237 4.294 7.99951 4.294Z" fill="white"/>
<path d="M7.99971 6.40449C8.34958 6.40449 8.63321 6.12803 8.63321 5.78699C8.63321 5.44596 8.34958 5.16949 7.99971 5.16949C7.64984 5.16949 7.36621 5.44596 7.36621 5.78699C7.36621 6.12803 7.64984 6.40449 7.99971 6.40449Z" fill="white"/>
<path d="M5.78291 5.27199C6.13279 5.27199 6.41641 4.99552 6.41641 4.65449C6.41641 4.31345 6.13279 4.03699 5.78291 4.03699C5.43304 4.03699 5.14941 4.31345 5.14941 4.65449C5.14941 4.99552 5.43304 5.27199 5.78291 5.27199Z" fill="white"/>
<path d="M5.78291 12.0145C6.13279 12.0145 6.41641 11.738 6.41641 11.397C6.41641 11.0559 6.13279 10.7795 5.78291 10.7795C5.43304 10.7795 5.14941 11.0559 5.14941 11.397C5.14941 11.738 5.43304 12.0145 5.78291 12.0145Z" fill="white"/>
<path d="M9.97823 7.56251C10.3281 7.56251 10.6117 7.28605 10.6117 6.94501C10.6117 6.60398 10.3281 6.32751 9.97823 6.32751C9.62835 6.32751 9.34473 6.60398 9.34473 6.94501C9.34473 7.28605 9.62835 7.56251 9.97823 7.56251Z" fill="white"/>
<path d="M9.97823 9.6985C10.3281 9.6985 10.6117 9.42204 10.6117 9.081C10.6117 8.73996 10.3281 8.4635 9.97823 8.4635C9.62835 8.4635 9.34473 8.73996 9.34473 9.081C9.34473 9.42204 9.62835 9.6985 9.97823 9.6985Z" fill="white"/>
<path d="M7.99971 10.831C8.34958 10.831 8.63321 10.5545 8.63321 10.2135C8.63321 9.87247 8.34958 9.59601 7.99971 9.59601C7.64984 9.59601 7.36621 9.87247 7.36621 10.2135C7.36621 10.5545 7.64984 10.831 7.99971 10.831Z" fill="white"/>
<path d="M7.99955 8.5C8.27652 8.5 8.50105 8.27614 8.50105 8C8.50105 7.72386 8.27652 7.5 7.99955 7.5C7.72258 7.5 7.49805 7.72386 7.49805 8C7.49805 8.27614 7.72258 8.5 7.99955 8.5Z" fill="white"/>
<path d="M5.78275 9.60651C6.05972 9.60651 6.28425 9.38265 6.28425 9.10651C6.28425 8.83036 6.05972 8.60651 5.78275 8.60651C5.50578 8.60651 5.28125 8.83036 5.28125 9.10651C5.28125 9.38265 5.50578 9.60651 5.78275 9.60651Z" fill="white"/>
<path d="M5.78275 7.44501C6.05972 7.44501 6.28425 7.22115 6.28425 6.94501C6.28425 6.66887 6.05972 6.44501 5.78275 6.44501C5.50578 6.44501 5.28125 6.66887 5.28125 6.94501C5.28125 7.22115 5.50578 7.44501 5.78275 7.44501Z" fill="white"/>
<path d="M3.61914 6.28699C3.89528 6.28699 4.11914 6.06313 4.11914 5.78699C4.11914 5.51084 3.89528 5.28699 3.61914 5.28699C3.343 5.28699 3.11914 5.51084 3.11914 5.78699C3.11914 6.06313 3.343 6.28699 3.61914 6.28699Z" fill="white"/>
<path d="M3.61914 8.5C3.89528 8.5 4.11914 8.27614 4.11914 8C4.11914 7.72386 3.89528 7.5 3.61914 7.5C3.343 7.5 3.11914 7.72386 3.11914 8C3.11914 8.27614 3.343 8.5 3.61914 8.5Z" fill="white"/>
<path d="M3.61914 10.713C3.89528 10.713 4.11914 10.4892 4.11914 10.213C4.11914 9.93687 3.89528 9.71301 3.61914 9.71301C3.343 9.71301 3.11914 9.93687 3.11914 10.213C3.11914 10.4892 3.343 10.713 3.61914 10.713Z" fill="white"/>
<path d="M9.979 5.42651C10.4161 5.42651 10.7705 5.08087 10.7705 4.65451C10.7705 4.22814 10.4161 3.88251 9.979 3.88251C9.54187 3.88251 9.1875 4.22814 9.1875 4.65451C9.1875 5.08087 9.54187 5.42651 9.979 5.42651Z" fill="white"/>
<path d="M9.979 12.1435C10.4161 12.1435 10.7705 11.7979 10.7705 11.3715C10.7705 10.9451 10.4161 10.5995 9.979 10.5995C9.54187 10.5995 9.1875 10.9451 9.1875 11.3715C9.1875 11.7979 9.54187 12.1435 9.979 12.1435Z" fill="white"/>
<path d="M11.9585 6.55853C12.3956 6.55853 12.75 6.21289 12.75 5.78653C12.75 5.36016 12.3956 5.01453 11.9585 5.01453C11.5214 5.01453 11.167 5.36016 11.167 5.78653C11.167 6.21289 11.5214 6.55853 11.9585 6.55853Z" fill="white"/>
<path d="M11.9585 10.9855C12.3956 10.9855 12.75 10.6399 12.75 10.2135C12.75 9.78716 12.3956 9.44153 11.9585 9.44153C11.5214 9.44153 11.167 9.78716 11.167 10.2135C11.167 10.6399 11.5214 10.9855 11.9585 10.9855Z" fill="white"/>
<path d="M11.9585 8.77203C12.3956 8.77203 12.75 8.42639 12.75 8.00003C12.75 7.57366 12.3956 7.22803 11.9585 7.22803C11.5214 7.22803 11.167 7.57366 11.167 8.00003C11.167 8.42639 11.5214 8.77203 11.9585 8.77203Z" fill="white"/>
</g>
<defs>
<clipPath id="clip0_7_7761">
<rect width="16" height="16" fill="white"/>
</clipPath>
</defs>
</svg>
