<svg width="16" height="16" viewBox="0 0 16 16" fill="none" xmlns="http://www.w3.org/2000/svg">
<g clip-path="url(#clip0_7_7758)">
<path d="M8 16C12.4183 16 16 12.4183 16 8C16 3.58172 12.4183 0 8 0C3.58172 0 0 3.58172 0 8C0 12.4183 3.58172 16 8 16Z" fill="#65CB8D"/>
<path d="M9.227 9.24351H6.7545V6.75651H9.227V9.24351ZM12.957 5.08151C12.8525 4.4807 12.5332 3.93836 12.0585 3.55551C11.6163 3.19585 11.0635 2.99981 10.4935 3.00051C8.815 3.00051 7.135 2.99901 5.4565 3.00151C4.5805 3.01151 3.7525 3.51901 3.3265 4.28201C3.0895 4.69201 3.0005 5.15201 3 5.62101C3.001 7.15201 2.9995 8.68401 3.0005 10.2145C2.9975 10.5705 3.013 10.913 3.124 11.2545C3.3715 12.0455 4.039 12.6865 4.8355 12.9095C4.5945 12.717 4.488 12.4495 4.4095 12.16C4.2475 11.525 4.235 10.865 4.261 10.215C4.2585 8.68351 4.262 7.15201 4.259 5.62101C4.2615 5.35751 4.281 5.11001 4.4155 4.87701C4.623 4.50501 5.0275 4.25601 5.4565 4.26201C7.0515 4.26051 8.649 4.26201 10.244 4.26101C10.485 4.26151 10.704 4.24351 10.934 4.33101C11.1255 4.39762 11.2968 4.51204 11.4316 4.66342C11.5665 4.81481 11.6604 4.99813 11.7045 5.19601C11.752 5.42751 11.7395 5.68451 11.74 5.92101V10.4145C11.74 10.635 11.7155 10.851 11.621 11.0525C11.4255 11.462 11.0025 11.746 10.5445 11.7375C9.2815 11.7395 8.0175 11.7375 6.7545 11.7385C6.7525 11.3265 6.753 10.914 6.7545 10.502C7.785 10.502 8.8155 10.5005 9.846 10.503C10.068 10.515 10.3235 10.4025 10.426 10.198C10.4835 10.093 10.493 9.98201 10.4955 9.86551C10.4945 8.61701 10.495 7.36901 10.495 6.12001C10.502 6.00906 10.4769 5.89845 10.4226 5.80143C10.3683 5.70441 10.2872 5.6251 10.189 5.57301C10.0185 5.47301 9.8355 5.49901 9.646 5.49551C8.466 5.49851 7.2845 5.49401 6.105 5.49801C5.7675 5.48951 5.4865 5.78351 5.497 6.12001C5.492 7.91401 5.497 9.71801 5.4945 11.513C5.504 11.8695 5.4925 12.2075 5.699 12.516C5.8555 12.771 6.12 12.9005 6.405 12.957C6.7415 13.0115 7.0635 12.9985 7.402 12.999C8.432 12.999 9.4625 12.9985 10.4935 13C11.006 13.0045 11.5055 12.838 11.926 12.548C12.3775 12.215 12.7275 11.7555 12.8885 11.2145C13 10.8485 12.998 10.493 13 10.1145V5.82101C12.998 5.57551 12.995 5.32451 12.9575 5.08101" fill="white"/>
</g>
<defs>
<clipPath id="clip0_7_7758">
<rect width="16" height="16" fill="white"/>
</clipPath>
</defs>
</svg>
