<svg width="16" height="16" viewBox="0 0 16 16" fill="none" xmlns="http://www.w3.org/2000/svg">
<g clip-path="url(#clip0_7_8039)">
<path d="M8 16C12.4183 16 16 12.4183 16 8C16 3.58172 12.4183 0 8 0C3.58172 0 0 3.58172 0 8C0 12.4183 3.58172 16 8 16Z" fill="#F7931E"/>
<path d="M8 2C4.6865 2 2 4.6865 2 8C2 11.3135 4.6865 14 8 14C11.3135 14 14 11.3135 14 8C14 6.4087 13.3679 4.88258 12.2426 3.75736C11.1174 2.63214 9.5913 2 8 2ZM11 4.9065C11.2984 4.9065 11.5845 5.02503 11.7955 5.236C12.0065 5.44698 12.125 5.73313 12.125 6.0315V7.7185C12.125 8.01687 12.0065 8.30302 11.7955 8.514C11.5845 8.72497 11.2984 8.8435 11 8.8435H9.607L9.517 9.2655C9.50474 9.31721 9.47594 9.3635 9.43497 9.39735C9.39399 9.43119 9.34309 9.45073 9.29 9.453H9.0085C8.98522 9.45399 8.96204 9.44943 8.94087 9.43969C8.9197 9.42996 8.90114 9.41533 8.88674 9.39702C8.87233 9.37871 8.86248 9.35723 8.85801 9.33436C8.85353 9.3115 8.85456 9.28789 8.861 9.2655L8.951 8.844H8.2945L8.2045 9.2655C8.19224 9.31721 8.16344 9.3635 8.12247 9.39735C8.08149 9.43119 8.03059 9.45073 7.9775 9.453H7.696C7.67272 9.45399 7.64954 9.44943 7.62837 9.43969C7.6072 9.42996 7.58864 9.41533 7.57424 9.39702C7.55983 9.37871 7.54998 9.35723 7.54551 9.33436C7.54103 9.3115 7.54206 9.28789 7.5485 9.2655L7.6385 8.844H6.935L6.317 11.75H4.817L5.913 6.5935H7.413L7.174 7.7185H10.0625C10.373 7.7185 10.625 7.467 10.625 7.1565V6.5935C10.625 6.2835 10.373 6.0315 10.0625 6.0315H3.875L4.8125 4.9065H8.4755L8.565 4.4845C8.57726 4.43279 8.60606 4.3865 8.64703 4.35265C8.688 4.31881 8.73891 4.29927 8.792 4.297H9.0735C9.09678 4.29601 9.11996 4.30057 9.14113 4.31031C9.1623 4.32004 9.18086 4.33467 9.19526 4.35298C9.20967 4.37129 9.21952 4.39277 9.22399 4.41564C9.22847 4.4385 9.22744 4.46211 9.221 4.4845L9.1315 4.9065H9.788L9.8775 4.4845C9.88976 4.43279 9.91856 4.3865 9.95953 4.35265C10.0005 4.31881 10.0514 4.29927 10.1045 4.297H10.386C10.4093 4.29601 10.4325 4.30057 10.4536 4.31031C10.4748 4.32004 10.4934 4.33467 10.5078 4.35298C10.5222 4.37129 10.532 4.39277 10.5365 4.41564C10.541 4.4385 10.5399 4.46211 10.5335 4.4845L10.444 4.9065H11Z" fill="white"/>
</g>
<defs>
<clipPath id="clip0_7_8039">
<rect width="16" height="16" fill="white"/>
</clipPath>
</defs>
</svg>
