<svg width="16" height="16" viewBox="0 0 16 16" fill="none" xmlns="http://www.w3.org/2000/svg">
<g clip-path="url(#clip0_7_8018)">
<path d="M8 16C12.4183 16 16 12.4183 16 8C16 3.58172 12.4183 0 8 0C3.58172 0 0 3.58172 0 8C0 12.4183 3.58172 16 8 16Z" fill="#00ACFF"/>
<path fill-rule="evenodd" clip-rule="evenodd" d="M7.5399 10.078C7.57097 10.0651 7.60429 10.0585 7.63794 10.0585C7.67159 10.0586 7.70489 10.0653 7.73594 10.0782C7.76699 10.0912 7.79516 10.1102 7.81884 10.1341C7.84252 10.158 7.86123 10.1863 7.8739 10.2175C7.89979 10.2804 7.89976 10.351 7.87381 10.4138C7.84786 10.4767 7.7981 10.5267 7.7354 10.553L6.0324 11.26L5.8064 12.5H4.6344L4.7629 11.787L4.0719 12.0735C4.04082 12.0864 4.0075 12.093 3.97385 12.093C3.94021 12.093 3.9069 12.0863 3.87585 12.0733C3.84481 12.0603 3.81663 12.0414 3.79295 12.0174C3.76928 11.9935 3.75056 11.9652 3.7379 11.934C3.71216 11.8712 3.71227 11.8008 3.73821 11.738C3.76415 11.6753 3.81381 11.6253 3.8764 11.599L4.8714 11.186L4.9464 10.7665L3.6029 11.324C3.57185 11.3368 3.53857 11.3434 3.50498 11.3433C3.47139 11.3433 3.43814 11.3365 3.40716 11.3236C3.37617 11.3106 3.34804 11.2917 3.3244 11.2678C3.30076 11.2439 3.28207 11.2156 3.2694 11.1845C3.2435 11.1216 3.24354 11.0511 3.26948 10.9882C3.29543 10.9254 3.34519 10.8753 3.4079 10.849L5.0544 10.1655L6.2534 3.50502H9.6399C11.7134 3.43352 12.7499 4.12602 12.7499 5.58252C12.7499 7.43002 11.3989 8.85902 9.1074 8.85902H6.4699L6.3284 9.63702L7.0719 9.32852C7.10294 9.3157 7.13622 9.30913 7.16981 9.30921C7.2034 9.30929 7.23665 9.316 7.26764 9.32896C7.29863 9.34192 7.32675 9.36088 7.35039 9.38475C7.37403 9.40861 7.39272 9.43691 7.4054 9.46802C7.43113 9.53084 7.43102 9.60128 7.40508 9.66402C7.37914 9.72676 7.32948 9.77671 7.2669 9.80302L6.2184 10.2385L6.1419 10.6585L7.5399 10.078ZM7.2549 4.55452L6.6689 7.76702H9.2779C10.8839 7.76702 11.4929 6.67452 11.4929 5.88202C11.4929 5.09002 11.1099 4.55452 9.8319 4.55452H7.2549Z" fill="white"/>
</g>
<defs>
<clipPath id="clip0_7_8018">
<rect width="16" height="16" fill="white"/>
</clipPath>
</defs>
</svg>
