<svg width="16" height="16" viewBox="0 0 16 16" fill="none" xmlns="http://www.w3.org/2000/svg">
<g clip-path="url(#clip0_7_7953)">
<path d="M8 16C12.4183 16 16 12.4183 16 8C16 3.58172 12.4183 0 8 0C3.58172 0 0 3.58172 0 8C0 12.4183 3.58172 16 8 16Z" fill="#E4CE4D"/>
<path d="M9.3011 3.45598C10.1701 4.06948 11.0751 4.13798 12.2326 4.35098C13.2856 4.54648 13.5091 5.62198 13.0281 6.99098C12.999 6.94177 12.969 6.89309 12.9381 6.84498L13.0281 6.99098C13.7616 8.23698 13.7561 9.58648 12.1686 10.277C9.3421 11.507 9.1736 13.9295 6.5021 12.6255C6.12338 12.439 5.78326 12.1826 5.4996 11.87L5.3956 11.7515L5.2991 11.735C3.5061 11.4175 2.3291 10.4455 3.4181 7.96548C4.3816 5.77398 3.5211 3.61748 6.4761 3.71348H6.4771C7.2911 2.94998 8.2296 2.70148 9.3006 3.45598H9.3011ZM6.5476 5.67198C5.3086 6.56148 4.9006 8.21798 5.7256 9.50448C5.92049 9.81005 6.17393 10.074 6.47131 10.2812C6.76869 10.4884 7.10413 10.6346 7.4583 10.7115C7.81247 10.7885 8.17836 10.7945 8.53489 10.7294C8.89141 10.6642 9.23152 10.5292 9.5356 10.332C10.8146 9.50198 10.9896 7.89198 10.3576 6.49848C9.7101 5.06998 7.9326 4.67748 6.5476 5.67198Z" fill="white"/>
</g>
<defs>
<clipPath id="clip0_7_7953">
<rect width="16" height="16" fill="white"/>
</clipPath>
</defs>
</svg>
