<svg width="16" height="16" viewBox="0 0 16 16" fill="none" xmlns="http://www.w3.org/2000/svg">
<g clip-path="url(#clip0_7_7757)">
<path d="M8 16C12.4183 16 16 12.4183 16 8C16 3.58172 12.4183 0 8 0C3.58172 0 0 3.58172 0 8C0 12.4183 3.58172 16 8 16Z" fill="#302C2C"/>
<path d="M13.4554 7.848C13.428 7.79248 13.3917 7.74181 13.3479 7.698C12.3969 6.621 10.4614 4.5 10.4614 4.5L8.00294 7.189L5.51294 4.5255C5.51294 4.5255 3.55494 6.665 2.59544 7.7535C2.47044 7.8765 2.47044 8.0985 2.58244 8.2295C3.08094 8.7975 5.52944 11.4975 5.52944 11.4975L7.99944 8.7905L10.4524 11.5L13.4109 8.227C13.4109 8.227 13.4734 8.162 13.4869 8.1185C13.5159 8.0285 13.4949 7.9305 13.4554 7.848ZM3.95944 8.1475C3.87944 8.053 3.90644 7.9045 3.98094 7.815C4.29394 7.4585 5.54644 6.115 5.54644 6.115L7.29144 7.9675L5.54344 9.8795C5.54344 9.8795 4.47344 8.7375 3.95944 8.1475ZM11.9534 8.2105C11.9166 8.27366 11.8737 8.3331 11.8254 8.388L10.4704 9.8605L8.72044 8L10.4424 6.1125C10.4424 6.1125 11.4344 7.14 11.8889 7.6925C11.9274 7.7405 11.9729 7.786 11.9924 7.847C12.0339 7.9665 12.0074 8.0995 11.9529 8.21" fill="white"/>
</g>
<defs>
<clipPath id="clip0_7_7757">
<rect width="16" height="16" fill="white"/>
</clipPath>
</defs>
</svg>
