<svg width="16" height="16" viewBox="0 0 16 16" fill="none" xmlns="http://www.w3.org/2000/svg">
<g clip-path="url(#clip0_7_7756)">
<path d="M8 16C12.4183 16 16 12.4183 16 8C16 3.58172 12.4183 0 8 0C3.58172 0 0 3.58172 0 8C0 12.4183 3.58172 16 8 16Z" fill="#663300"/>
<path d="M5.84375 5.0315L6.46875 3.5L10.7498 3.5155C11.3748 3.5625 12.1248 3.5625 12.5468 4.094C13.0468 4.672 12.9373 5.5 12.6873 6.156C12.4463 6.86198 12.0281 7.49426 11.4727 7.99224C10.9172 8.49022 10.2432 8.83723 9.51525 9C8.48425 9.1565 7.43725 9.1095 6.39025 9.1095C6.59875 8.601 6.80725 8.0905 7.01525 7.578C7.87475 7.578 8.74975 7.625 9.62475 7.4845C10.4218 7.2815 11.1562 6.4845 11.0312 5.6095C10.9528 5.2345 10.5313 5.0625 10.1713 5.0625C8.73425 5 7.29625 5.0625 5.85925 5.031L5.84375 5.0315Z" fill="white"/>
<path d="M4 5.453H9.078L8.4065 7.1875H3.312L4 5.4685V5.453ZM4.8125 7.578H6.578L4.735 12.2655H3L4.828 7.578H4.8125Z" fill="white"/>
</g>
<defs>
<clipPath id="clip0_7_7756">
<rect width="16" height="16" fill="white"/>
</clipPath>
</defs>
</svg>
