<svg width="16" height="16" viewBox="0 0 16 16" fill="none" xmlns="http://www.w3.org/2000/svg">
<g clip-path="url(#clip0_7_7753)">
<path d="M8 16C12.4183 16 16 12.4183 16 8C16 3.58172 12.4183 0 8 0C3.58172 0 0 3.58172 0 8C0 12.4183 3.58172 16 8 16Z" fill="#ED79AA"/>
<path opacity="0.5" fill-rule="evenodd" clip-rule="evenodd" d="M11.726 4.4645L10.791 5.406C10.4541 5.0653 10.053 4.79487 9.61076 4.61042C9.16856 4.42597 8.69414 4.33116 8.21501 4.3315C6.25751 4.3315 4.66001 5.8865 4.57601 7.8365H4.57201V11.3975C3.71959 10.4717 3.24754 9.25849 3.25001 8C3.25001 5.2385 5.47301 3 8.21501 3C8.86804 2.99954 9.51467 3.12875 10.1174 3.38015C10.7201 3.63155 11.2669 4.00013 11.726 4.4645ZM11.726 11.5355C10.8184 12.4538 9.58695 12.9796 8.29601 13V11.668C9.23551 11.6477 10.1303 11.2627 10.791 10.5945L11.726 11.5355Z" fill="white"/>
<path fill-rule="evenodd" clip-rule="evenodd" d="M5.84082 12.392V7.837H5.84432C5.91432 6.5345 6.98532 5.5 8.29632 5.5C9.65232 5.5 10.7518 6.607 10.7518 7.973C10.7518 9.3385 9.65232 10.4455 8.29682 10.4455C7.86009 10.4462 7.43124 10.3293 7.05532 10.107V12.8625C6.63142 12.7604 6.22299 12.6019 5.84082 12.392ZM8.29632 9.223C8.45992 9.22248 8.62182 9.18972 8.77277 9.12662C8.92371 9.06351 9.06074 8.97128 9.17603 8.8552C9.29132 8.73912 9.38261 8.60146 9.44469 8.45009C9.50677 8.29872 9.53841 8.1366 9.53782 7.973C9.53782 7.2825 8.98182 6.723 8.29632 6.723C8.13276 6.72359 7.97091 6.75639 7.82003 6.81953C7.66914 6.88267 7.53217 6.9749 7.41693 7.09098C7.3017 7.20705 7.21045 7.34469 7.1484 7.49602C7.08636 7.64736 7.05473 7.80944 7.05532 7.973C7.05532 8.663 7.61082 9.223 8.29632 9.223Z" fill="white"/>
</g>
<defs>
<clipPath id="clip0_7_7753">
<rect width="16" height="16" fill="white"/>
</clipPath>
</defs>
</svg>
