<svg width="16" height="16" viewBox="0 0 16 16" fill="none" xmlns="http://www.w3.org/2000/svg">
<g clip-path="url(#clip0_7_8089)">
<path d="M8 16C12.4183 16 16 12.4183 16 8C16 3.58172 12.4183 0 8 0C3.58172 0 0 3.58172 0 8C0 12.4183 3.58172 16 8 16Z" fill="#96B73D"/>
<path d="M5.79679 8.05253C5.83979 8.18153 5.90329 8.30253 5.98529 8.41153L4.73879 7.15253C4.6089 7.02152 4.53602 6.84451 4.53602 6.66003C4.53602 6.47555 4.6089 6.29853 4.73879 6.16753L6.31129 4.59403C6.34379 4.57003 6.37479 4.54403 6.40479 4.51703L6.45029 4.47703L7.72379 3.20253C7.78784 3.13821 7.86398 3.0872 7.94783 3.05244C8.03168 3.01768 8.12158 2.99986 8.21235 3C8.30312 3.00014 8.39296 3.01824 8.47671 3.05326C8.56045 3.08827 8.63644 3.13951 8.70029 3.20403L12.8718 7.40553C12.9669 7.54063 13.0114 7.70487 12.9976 7.86949C12.9838 8.03412 12.9125 8.18864 12.7963 8.30603C12.6815 8.42175 12.5305 8.49457 12.3685 8.51232C12.2065 8.53006 12.0434 8.49166 11.9063 8.40353L8.22129 4.68353L8.21729 4.67853L8.20529 4.66553L6.23379 6.63753L6.20379 6.66253C6.20265 6.66388 6.20148 6.66522 6.20029 6.66653L8.14829 8.63003C8.23406 8.7167 8.29568 8.82429 8.32704 8.94212C8.35841 9.05995 8.35842 9.18393 8.32709 9.30178C8.29576 9.41962 8.23417 9.52722 8.14843 9.61392C8.06269 9.70062 7.95578 9.76339 7.83829 9.79603C7.72085 9.82767 7.59712 9.82764 7.4797 9.79593C7.36227 9.76423 7.25534 9.70198 7.16979 9.61553L6.17179 8.61053C6.15729 8.59753 6.14279 8.58053 6.12479 8.56253L6.07879 8.51653C6.04534 8.47888 6.01412 8.43932 5.98529 8.39803L6.00779 8.42453L5.99279 8.40503C5.90903 8.29876 5.84286 8.17975 5.79679 8.05253ZM9.86979 9.33903L7.91929 7.37453C7.7894 7.24352 7.71652 7.06651 7.71652 6.88203C7.71652 6.69755 7.7894 6.52053 7.91929 6.38953C7.98347 6.32514 8.05975 6.27408 8.14375 6.23931C8.22775 6.20454 8.31779 6.18673 8.40871 6.18691C8.49962 6.1871 8.58959 6.20528 8.67345 6.24039C8.7573 6.27551 8.83338 6.32688 8.89729 6.39153L9.89579 7.39653C9.90979 7.40903 9.92429 7.42653 9.94279 7.44403L9.98829 7.49003C10.0143 7.51903 10.0383 7.55003 10.0603 7.58153L10.0713 7.59503C10.0572 7.57498 10.0429 7.55515 10.0283 7.53553L11.3333 8.84903C11.4634 8.98014 11.5363 9.15734 11.5363 9.34203C11.5363 9.52671 11.4634 9.70392 11.3333 9.83503L9.75979 11.409C9.72685 11.4326 9.69514 11.4578 9.66479 11.4845L8.35279 12.7965C8.28883 12.861 8.21273 12.9122 8.12889 12.9471C8.04505 12.9821 7.95512 13.0001 7.86429 13.0001C7.77346 13.0001 7.68353 12.9821 7.59969 12.9471C7.51584 12.9122 7.43975 12.861 7.37579 12.7965L3.13729 8.52303C3.03402 8.38291 2.98632 8.20949 3.0034 8.03626C3.02048 7.86304 3.10114 7.70228 3.22979 7.58503C3.35803 7.46839 3.52541 7.40417 3.69876 7.40509C3.87212 7.40602 4.0388 7.47202 4.16579 7.59003L7.85779 11.3175L7.87029 11.3325L9.83779 9.36553L9.86679 9.34203C9.86778 9.34102 9.86878 9.34002 9.86979 9.33903Z" fill="white"/>
</g>
<defs>
<clipPath id="clip0_7_8089">
<rect width="16" height="16" fill="white"/>
</clipPath>
</defs>
</svg>
