<svg width="16" height="16" viewBox="0 0 16 16" fill="none" xmlns="http://www.w3.org/2000/svg">
<g clip-path="url(#clip0_7_7697)">
<path d="M8 16C12.4183 16 16 12.4183 16 8C16 3.58172 12.4183 0 8 0C3.58172 0 0 3.58172 0 8C0 12.4183 3.58172 16 8 16Z" fill="#5E4778"/>
<path fill-rule="evenodd" clip-rule="evenodd" d="M5.25 6.1205H8.3265V6.748H5.25V6.1205ZM11.25 6.4155C11.25 7.9025 10.195 8.863 8.736 8.863H6.715V12H5.915V8.1535H8.6275C9.715 8.1535 10.425 7.5075 10.425 6.4155C10.425 5.3365 9.715 4.709 8.64 4.709H7.796L5.7745 4.7155V4H8.7295C10.1945 4 11.25 4.9285 11.25 6.4155Z" fill="white" stroke="white"/>
</g>
<defs>
<clipPath id="clip0_7_7697">
<rect width="16" height="16" fill="white"/>
</clipPath>
</defs>
</svg>
