<svg width="16" height="16" viewBox="0 0 16 16" fill="none" xmlns="http://www.w3.org/2000/svg">
<g clip-path="url(#clip0_7_7751)">
<path d="M8 16C12.4183 16 16 12.4183 16 8C16 3.58172 12.4183 0 8 0C3.58172 0 0 3.58172 0 8C0 12.4183 3.58172 16 8 16Z" fill="#00BFFF"/>
<path d="M4.205 10.451H4.156V12.5H3V5.5625H4.13V5.8825H4.1745C4.569 5.5045 5.0715 5.494 5.3535 5.494C6.5355 5.494 7.3105 6.6205 7.3105 8.125V8.32C7.3105 9.8855 6.4135 10.8185 5.3335 10.8185C4.828 10.82 4.4535 10.7045 4.205 10.451ZM6.237 8.413V8.0715C6.237 7.0915 5.8635 6.436 5.198 6.436C4.479 6.436 4.0935 7.198 4.0935 8.0715V8.4115C4.0935 9.244 4.473 9.8815 5.218 9.8815C5.8045 9.8795 6.237 9.4225 6.237 8.413ZM7.87 3.5H9.0275V10.788H7.87V3.5ZM12.3345 6.7045C11.6855 6.7045 11.041 7.2195 11.041 7.8705V10.7925H9.89V5.6115H10.9565V5.93H11C11.259 5.657 11.8925 5.529 12.4135 5.5365C12.4655 5.5365 12.4225 5.538 12.473 5.538L12.479 6.7045H12.3345ZM11.8485 9.5475H13V10.788H11.8485V9.5475Z" fill="white"/>
</g>
<defs>
<clipPath id="clip0_7_7751">
<rect width="16" height="16" fill="white"/>
</clipPath>
</defs>
</svg>
