<svg width="16" height="16" viewBox="0 0 16 16" fill="none" xmlns="http://www.w3.org/2000/svg">
<g clip-path="url(#clip0_7_7750)">
<path d="M8 16C12.4183 16 16 12.4183 16 8C16 3.58172 12.4183 0 8 0C3.58172 0 0 3.58172 0 8C0 12.4183 3.58172 16 8 16Z" fill="#444FA1"/>
<path d="M2.5 12L8 2.5L13.5 12H2.5ZM5.936 7.162C6.5785 6.733 7.2675 6.5165 8 6.5165C8.7325 6.5165 9.4215 6.733 10.064 7.162L8 3.597L5.936 7.162ZM4.9605 8.847L3.462 11.4355H12.538L11.0395 8.8475C10.1345 9.842 9.118 10.347 8 10.347C6.882 10.347 5.8655 9.842 4.9605 8.847ZM8 9.7825C8.969 9.7825 9.8555 9.3375 10.669 8.4325C9.8555 7.526 8.969 7.0815 8 7.0815C7.031 7.0815 6.1445 7.5265 5.331 8.432C6.1445 9.338 7.031 9.7825 8 9.7825ZM8 9.541C7.42 9.541 6.9495 9.0535 6.9495 8.452C6.9495 7.851 7.4195 7.3635 8 7.3635C8.5805 7.3635 9.0505 7.851 9.0505 8.452C9.0505 9.0535 8.5805 9.541 8 9.541ZM8 8.976C8.2795 8.976 8.506 8.7415 8.506 8.452C8.506 8.1625 8.2795 7.928 8 7.928C7.7205 7.928 7.494 8.163 7.494 8.452C7.494 8.742 7.7205 8.976 8 8.976Z" fill="white"/>
</g>
<defs>
<clipPath id="clip0_7_7750">
<rect width="16" height="16" fill="white"/>
</clipPath>
</defs>
</svg>
