<svg width="16" height="16" viewBox="0 0 16 16" fill="none" xmlns="http://www.w3.org/2000/svg">
<g clip-path="url(#clip0_7_7793)">
<path d="M8 16C12.4183 16 16 12.4183 16 8C16 3.58172 12.4183 0 8 0C3.58172 0 0 3.58172 0 8C0 12.4183 3.58172 16 8 16Z" fill="#DCD6CC"/>
<path d="M12.379 3.86601C11.9771 3.47004 11.4352 3.24868 10.871 3.25001C10.2985 3.25001 9.7655 3.47001 9.363 3.86601L4.435 8.71901C4.41015 8.74394 4.39084 8.77385 4.37835 8.80676C4.36586 8.83968 4.36045 8.87486 4.3625 8.91001V11.408L3 12.75H3.7515L4.7605 11.7565H7.2825C7.3179 11.7569 7.35299 11.7498 7.38553 11.7359C7.41807 11.722 7.44735 11.7014 7.4715 11.6755L12.3745 6.84651L12.3795 6.84151C12.5757 6.64822 12.7315 6.41792 12.8381 6.16396C12.9446 5.90999 12.9996 5.6374 13 5.36201C13.0014 5.084 12.9471 4.80853 12.8405 4.55179C12.7338 4.29505 12.5769 4.06223 12.379 3.86701V3.86601ZM9.513 4.43001L9.7215 4.22501C10.0277 3.9232 10.441 3.75494 10.871 3.75701C11.3025 3.75701 11.71 3.92401 12.0205 4.22501C12.0255 4.23001 12.0305 4.23901 12.04 4.24401C12.3355 4.54501 12.4955 4.93651 12.4955 5.35701C12.4955 5.78201 12.3255 6.18301 12.0205 6.48901L11.807 6.69901H9.901L11.1525 5.46651C11.2003 5.41979 11.2281 5.35628 11.2299 5.28943C11.2316 5.22259 11.2073 5.15769 11.162 5.10851C11.157 5.10351 11.157 5.09851 11.152 5.09401C11.1018 5.04591 11.035 5.01905 10.9655 5.01905C10.896 5.01905 10.8292 5.04591 10.779 5.09401L9.518 6.33601V4.42951L9.513 4.43001ZM5.275 11.2505L6.303 10.2375H8.209L7.181 11.2505H5.275ZM8.267 8.29851L9.4845 7.09951H11.3905L10.173 8.29851H8.267ZM9.756 8.70951L8.621 9.82701H6.715L7.85 8.70951H9.756ZM7.8795 6.03951L9.1015 4.83551V6.73651L7.8795 7.94501V6.03951ZM6.3275 7.56751L7.4625 6.45001V8.35101L6.3275 9.46851V7.56751ZM4.8725 9.00051L5.915 7.97851V9.87951L4.8725 10.9015V9.00051Z" fill="white"/>
</g>
<defs>
<clipPath id="clip0_7_7793">
<rect width="16" height="16" fill="white"/>
</clipPath>
</defs>
</svg>
