<svg width="16" height="16" viewBox="0 0 16 16" fill="none" xmlns="http://www.w3.org/2000/svg">
<g clip-path="url(#clip0_7_8055)">
<path d="M8 16C12.4183 16 16 12.4183 16 8C16 3.58172 12.4183 0 8 0C3.58172 0 0 3.58172 0 8C0 12.4183 3.58172 16 8 16Z" fill="#2C3E50"/>
<path d="M12.818 11.34V10.84C12.818 10.741 12.7515 10.675 12.6505 10.675H12.318V10.173C12.318 10.0735 12.2515 10.006 12.1525 10.006H11.8195V6.33352H12.1505C12.25 6.33352 12.318 6.26752 12.318 6.16652V5.66652H12.6505C12.6897 5.66817 12.7281 5.65546 12.7586 5.63079C12.789 5.60612 12.8095 5.57118 12.816 5.53252C12.833 5.44952 12.7995 5.38352 12.7335 5.34852L8.0745 3.01252C8.02621 2.99599 7.97379 2.99599 7.9255 3.01252L3.0995 5.34852C3.06782 5.36577 3.04259 5.39284 3.02762 5.42567C3.01265 5.45849 3.00875 5.49529 3.0165 5.53052C3.0165 5.61552 3.083 5.66652 3.1655 5.66652H3.6655V6.16652C3.6655 6.26552 3.732 6.33152 3.831 6.33152H4.164V10.006H3.833C3.733 10.006 3.6655 10.072 3.6655 10.171V10.673H3.333C3.233 10.673 3.167 10.739 3.167 10.8385V11.34C3.068 11.34 3 11.4065 3 11.5075C3 11.6085 3.066 11.6745 3.1655 11.6745H12.818C12.917 11.6745 12.985 11.6085 12.985 11.5095C12.985 11.4095 12.919 11.34 12.82 11.34H12.818ZM3.9965 5.99902V5.66652H11.9835V5.99902H3.9965ZM10.818 6.33402V10.006H10.154V6.33352H10.818V6.33402ZM9.154 6.33402V10.006H8.4885V6.33352H9.1535L9.154 6.33402ZM7.49 6.33402V10.006H6.826V6.33352H7.49V6.33402ZM5.826 6.33402V10.006H5.1625V6.33352H5.826V6.33402ZM11.9835 10.673H3.9985V10.3385H11.985V10.673H11.9835Z" fill="white"/>
</g>
<defs>
<clipPath id="clip0_7_8055">
<rect width="16" height="16" fill="white"/>
</clipPath>
</defs>
</svg>
