<svg width="16" height="16" viewBox="0 0 16 16" fill="none" xmlns="http://www.w3.org/2000/svg">
<g clip-path="url(#clip0_7_7749)">
<path d="M8 16C12.4183 16 16 12.4183 16 8C16 3.58172 12.4183 0 8 0C3.58172 0 0 3.58172 0 8C0 12.4183 3.58172 16 8 16Z" fill="#4C5A95"/>
<path d="M13.5 5.6315L13.478 5.278L13.369 5.5745L12.756 6.0895L12.054 6.194L11.844 5.9995L12.4595 5.183L13.0895 5L12.4075 5.014L11.416 5.705L10.4865 5.641L9.1815 5L8.4105 5.1495L6.005 7.0725L4.846 7.431L4.369 7.8965L3.516 7.908L3.0935 8.663L2.5 8.827L3.061 8.9005L3.5825 8.224L4.3885 8.3855L4.3735 9.1095L3.971 10.1515L3.741 11.1155L3.4935 11.5L4.1215 11.367L4.05 10.973L4.584 9.914L5.612 9.5155L6.01 8.8815L6.6825 8.4115L8.0175 8.599L9.362 8.0315L9.1345 8.929L8.5365 8.981L8.366 9.717L8.8775 9.3895L9.7255 9.036L10.388 8.0365L10.43 7.564L10.786 7.9175L11.8215 8.542L12.41 8.2735L12.3755 6.954L12.2045 6.4435L12.9735 6.256L13.5 5.6315Z" fill="white"/>
</g>
<defs>
<clipPath id="clip0_7_7749">
<rect width="16" height="16" fill="white"/>
</clipPath>
</defs>
</svg>
