<svg width="16" height="16" viewBox="0 0 16 16" fill="none" xmlns="http://www.w3.org/2000/svg">
<g clip-path="url(#clip0_7_7763)">
<path d="M8 16C12.4183 16 16 12.4183 16 8C16 3.58172 12.4183 0 8 0C3.58172 0 0 3.58172 0 8C0 12.4183 3.58172 16 8 16Z" fill="#105B2F"/>
<path fill-rule="evenodd" clip-rule="evenodd" d="M6.0165 9.09001L5.8215 10.0835L5.4665 11.909C5.4565 11.964 5.4425 12.001 5.3725 12C4.9315 11.9935 4.4905 11.99 4.0495 11.985C4.039 11.985 4.028 11.978 4 11.9675L4.995 6.99751H4.1565C4.1585 6.96051 4.1575 6.93851 4.1615 6.91751C4.213 6.64901 4.2685 6.38101 4.315 6.11151C4.328 6.03651 4.3615 6.01751 4.4315 6.01801C4.6365 6.02001 4.8415 6.01251 5.0455 6.01951C5.143 6.02251 5.1805 5.99451 5.1995 5.89851C5.3135 5.30451 5.4355 4.71251 5.5525 4.11951C5.5665 4.04901 5.582 4.00051 5.674 4.00051C6.678 4.00351 7.6825 3.99401 8.6865 4.00701C9.2725 4.01451 9.86 4.04451 10.4365 4.16301C10.635 4.20401 10.8365 4.25701 11.0205 4.33901C11.5495 4.57401 11.868 4.98101 11.9565 5.54451C12.094 6.42001 11.9085 7.22451 11.3465 7.92551C10.9315 8.44151 10.3625 8.73101 9.727 8.90701C9.223 9.04651 8.706 9.09001 8.185 9.09101C7.5075 9.09251 6.83 9.09101 6.1525 9.09051L6.0165 9.09001ZM6.294 7.72101H6.4355C7.152 7.72101 7.8685 7.72251 8.5855 7.72001C8.738 7.72001 8.8925 7.71351 9.044 7.69501C9.6225 7.62601 10.062 7.34851 10.343 6.84501C10.4636 6.62666 10.5041 6.37305 10.4575 6.12801C10.3985 5.77951 10.1905 5.55201 9.837 5.48801C9.5782 5.43869 9.31586 5.41027 9.0525 5.40301C8.3165 5.38951 7.5805 5.39501 6.844 5.39301C6.8175 5.39301 6.791 5.39701 6.7555 5.40001L6.6335 6.02401H8.6785L8.4905 6.99301H6.439L6.294 7.72101Z" fill="white"/>
</g>
<defs>
<clipPath id="clip0_7_7763">
<rect width="16" height="16" fill="white"/>
</clipPath>
</defs>
</svg>
