<svg width="16" height="16" viewBox="0 0 16 16" fill="none" xmlns="http://www.w3.org/2000/svg">
<g clip-path="url(#clip0_7_7747)">
<path d="M8 16C12.4183 16 16 12.4183 16 8C16 3.58172 12.4183 0 8 0C3.58172 0 0 3.58172 0 8C0 12.4183 3.58172 16 8 16Z" fill="#05BCA9"/>
<path fill-rule="evenodd" clip-rule="evenodd" d="M13.9978 7.97699C14.0029 7.99985 14 8.02375 13.9896 8.04475C13.9792 8.06574 13.962 8.08258 13.9408 8.09249L13.9028 8.11049L12.7498 9.26649L13.1968 10.939C13.2039 10.9653 13.2002 10.9933 13.1866 11.017C13.173 11.0406 13.1506 11.0578 13.1243 11.065L11.5198 11.4955L11.0773 13.1505C11.0704 13.1767 11.0533 13.1991 11.0299 13.2128C11.0065 13.2265 10.9786 13.2303 10.9523 13.2235L9.25731 12.7685L8.05831 13.97C8.04883 13.9796 8.03754 13.9872 8.02509 13.9924C8.01265 13.9976 7.9993 14.0002 7.98581 14.0002C7.97233 14.0002 7.95898 13.9976 7.94654 13.9924C7.93409 13.9872 7.9228 13.9796 7.91331 13.97L6.72881 12.7825L5.08781 13.2235C5.07485 13.227 5.06132 13.2278 5.04801 13.2261C5.0347 13.2243 5.02187 13.2199 5.01026 13.2132C4.99865 13.2065 4.98848 13.1975 4.98034 13.1868C4.97219 13.1761 4.96624 13.164 4.96281 13.151L4.51981 11.496L2.91581 11.065C2.90276 11.0615 2.89052 11.0555 2.8798 11.0473C2.86909 11.039 2.8601 11.0288 2.85336 11.0171C2.84663 11.0054 2.84227 10.9924 2.84054 10.979C2.83882 10.9656 2.83976 10.952 2.84331 10.939L3.27581 9.32049L2.03081 8.07199C2.0117 8.0527 2.00098 8.02664 2.00098 7.99949C2.00098 7.97233 2.0117 7.94628 2.03081 7.92699L3.24131 6.71249L2.80881 5.09449C2.80179 5.0681 2.80554 5.04 2.81923 5.01637C2.83292 4.99275 2.85543 4.97552 2.88181 4.96849L4.55931 4.51749L4.99631 2.88249C5.00335 2.8561 5.02057 2.83359 5.0442 2.8199C5.06783 2.80621 5.09593 2.80247 5.12231 2.80949L6.70931 3.23599L7.91331 2.02899C7.93285 2.01034 7.95881 1.99994 7.98581 1.99994C8.01282 1.99994 8.03878 2.01034 8.05831 2.02899L9.27681 3.24999L10.9178 2.80899C10.9308 2.80552 10.9444 2.80465 10.9578 2.80645C10.9712 2.80824 10.9841 2.81265 10.9957 2.81944C11.0074 2.82622 11.0176 2.83523 11.0257 2.84597C11.0339 2.8567 11.0399 2.86894 11.0433 2.88199L11.0548 2.92499C11.0573 2.93145 11.0592 2.93815 11.0603 2.94499L11.4803 4.51699L13.1583 4.96799C13.2133 4.98299 13.2453 5.03899 13.2308 5.09399L12.7838 6.76599L13.9123 7.89749C13.9329 7.90043 13.9521 7.90956 13.9674 7.92367C13.9826 7.93778 13.9933 7.9562 13.9978 7.97649V7.97699ZM12.6883 9.03699L13.3613 8.36299L12.6028 8.71649L12.6883 9.03749V9.03699ZM12.9338 10.7505L12.5823 9.43449L11.8838 10.1345V10.135L12.9338 10.7505ZM11.8288 10.3405L11.5813 11.2665L12.8338 10.93L11.8288 10.3405ZM10.9298 12.9085L11.2913 11.557L10.3043 11.822L10.9298 12.9085ZM9.67781 12.346L9.42431 12.6005L10.4188 12.8675L9.67781 12.346ZM8.08831 13.649L9.02831 12.7065L8.08831 12.454V13.649ZM7.88331 12.4725L6.95781 12.721L7.88281 13.649L7.88331 12.4725ZM5.28881 12.9565L6.56181 12.615L5.87981 11.931L5.28881 12.9565ZM4.74881 11.557L5.03131 12.614L5.11631 11.656L4.74881 11.557ZM3.20381 10.9295L4.45881 11.2665L4.20881 10.333L3.20381 10.9295ZM4.10731 10.1545L3.44331 9.48849L3.10631 10.7485L4.10731 10.1545ZM2.36731 8.11949L3.33731 9.09149L3.59681 8.11949H2.36731ZM3.40731 7.33199L3.30281 6.94199L2.48581 7.76099L3.40731 7.33199ZM3.07131 5.28099L3.40881 6.54449L4.08381 5.86799L3.07131 5.28099ZM4.24031 5.71099L4.49831 4.74699L3.17331 5.10299L4.23381 5.71749L4.24031 5.71099ZM5.12631 3.19099L4.78831 4.45599L5.71181 4.20799L5.12631 3.19099ZM6.29731 3.64899L6.54181 3.40399L5.58381 3.14649L6.29731 3.64899ZM7.88331 2.34999L6.93831 3.29749L7.88331 3.55149V2.34999ZM8.08831 3.56999L9.04831 3.31199L8.08831 2.34999V3.56999ZM10.7863 3.05799L9.44431 3.41799L10.1633 4.13949L10.7863 3.05799ZM10.9378 4.37199L11.2518 4.45599L11.0103 3.55249L10.9378 4.37199ZM12.8628 5.10199L11.5418 4.74699L11.7968 5.70299L12.8623 5.10149L12.8628 5.10199ZM11.9003 5.88049L12.6163 6.59799L12.9698 5.27649L11.9003 5.88049ZM13.6213 7.89599L12.7228 6.99549L12.4818 7.89599H13.6213ZM12.4383 8.10149L12.5483 8.51399L13.4338 8.10149H12.4388H12.4383ZM12.2833 8.63749L12.3598 8.60249L12.3263 8.47749L12.2833 8.63749ZM12.2143 8.89649L11.9893 9.73699L12.5208 9.20449L12.4138 8.80349L12.2143 8.89649ZM11.5938 10.425L10.4523 11.569L11.3523 11.3275L11.5938 10.425ZM10.1603 11.5715L11.6998 10.028L11.9718 9.00949L9.38031 10.217L10.1603 11.5715ZM10.1163 11.9065L9.82531 12.198L10.5973 12.7415L10.1163 11.9065ZM9.57081 12.019L9.65481 12.078L9.76631 11.966L9.57081 12.019ZM9.31231 12.088L8.41631 12.329L9.19581 12.5385L9.50781 12.2255L9.31231 12.088ZM7.62381 12.329L6.18031 11.941L6.79031 12.553L7.62381 12.329ZM5.34531 11.395L5.33531 11.5015L5.49381 11.544L5.34531 11.395ZM5.15581 11.205L4.47131 10.52L4.68731 11.3285L5.13481 11.4485L5.15581 11.206V11.205ZM4.07531 9.83149L3.71331 8.47749L3.50431 9.25899L4.07531 9.83149ZM3.56281 7.91399L3.46081 7.53349L2.64431 7.91349H3.56281V7.91399ZM3.79481 7.37749L3.64981 7.44549L3.71331 7.68349L3.79481 7.37749ZM3.86431 7.11899L4.13431 6.10799L3.47031 6.77399L3.59581 7.24399L3.86431 7.11899ZM4.53031 5.41999L5.45981 4.48849L4.72681 4.68549L4.53031 5.41999ZM5.87231 4.07499L6.15031 3.79649L5.41231 3.27699L5.87231 4.07499ZM6.45231 4.00899L6.32081 3.91649L6.14581 4.09149L6.45231 4.00899ZM6.71081 3.93949L7.62381 3.69449L6.77081 3.46549L6.46781 3.76849L6.71081 3.93949ZM8.41581 3.69449L9.80081 4.06649L9.21581 3.47999L8.41581 3.69449ZM10.7043 4.68149L10.7183 4.52549L10.4868 4.46349L10.7043 4.68149ZM10.8933 4.87149L11.5343 5.51399L11.3128 4.68549L10.9193 4.57949L10.8933 4.87149ZM11.9303 6.20149L12.3263 7.68349L12.5553 6.82799L11.9303 6.20199V6.20149ZM9.04331 9.63199L9.27731 10.0385L12.0413 8.75099L12.2148 8.10199H10.6073L10.5258 9.01899C10.5239 9.04053 10.5152 9.06091 10.5009 9.0772C10.4867 9.0935 10.4677 9.10487 10.4466 9.1097C10.4255 9.11453 10.4034 9.11256 10.3835 9.10408C10.3636 9.0956 10.3469 9.08104 10.3358 9.06249L9.83681 8.21749L9.04331 9.63199ZM8.65131 10.3305L9.09081 10.1255L8.92631 9.84049L8.65131 10.3305ZM6.90831 10.1455L9.35181 11.8655L9.99331 11.693L9.19331 10.3045L8.44931 10.6515C8.42956 10.6608 8.40734 10.6636 8.3859 10.6594C8.36445 10.6552 8.34491 10.6443 8.33012 10.6282C8.31532 10.6121 8.30605 10.5917 8.30366 10.57C8.30127 10.5483 8.30588 10.5264 8.31681 10.5075L8.78331 9.67599L7.16831 9.69399L6.90831 10.1455ZM6.80531 10.324L6.02031 11.686L8.02031 12.223L9.09331 11.9345L6.80531 10.324ZM6.92981 9.69649L6.28131 9.70399L6.73981 10.0265L6.92981 9.69649ZM5.63481 8.11949L5.36881 11.1285L5.83581 11.596L6.63681 10.205L5.90281 9.68899C5.8851 9.67642 5.87181 9.65858 5.86485 9.63801C5.85788 9.61745 5.85759 9.5952 5.86403 9.57446C5.87046 9.55372 5.88328 9.53554 5.90067 9.52253C5.91805 9.50951 5.9391 9.50232 5.96081 9.50199L6.95281 9.49049L6.14281 8.11949H5.63531H5.63481ZM5.42981 8.11949H3.82981L4.36481 10.122L5.17981 10.9385L5.42981 8.11949ZM6.02081 7.91399L5.70131 7.37299L5.65331 7.91399H6.02081ZM6.74581 6.00299L4.03781 7.26499L3.86431 7.91399H5.44781L5.52531 7.03699C5.52755 7.01562 5.53642 6.99549 5.55066 6.97942C5.56491 6.96334 5.58383 6.95212 5.60477 6.94732C5.62571 6.94253 5.64762 6.9444 5.66744 6.95268C5.68726 6.96096 5.704 6.97523 5.71531 6.99349L6.21681 7.84199L7.00031 6.44549L6.74531 6.00299H6.74581ZM6.64281 5.82449L5.82781 4.40999L4.42431 5.81749L4.10681 7.00599L6.64281 5.82449ZM9.14631 5.90549L6.67131 4.16299L6.02331 4.33749L6.82931 5.73749L7.62931 5.36449C7.64907 5.35516 7.67129 5.35238 7.69273 5.35657C7.71417 5.36076 7.73372 5.37169 7.74851 5.38777C7.76331 5.40384 7.77257 5.42423 7.77497 5.44594C7.77736 5.46766 7.77275 5.48957 7.76181 5.50849L7.29381 6.34249L8.90481 6.32449L9.14631 5.90549ZM9.24931 5.72649L10.0448 4.34499L8.01981 3.80099L6.92981 4.09399L9.24931 5.72649ZM9.14331 6.32149L9.72831 6.31549L9.31481 6.02399L9.14331 6.32199V6.32149ZM10.4013 8.10199H10.0063L10.3498 8.68299L10.4013 8.10199ZM7.11731 6.23699L7.42731 5.68549L6.93231 5.91599L7.11731 6.23749V6.23699ZM8.89881 9.47049L9.71581 8.01349L8.84331 6.53649L8.84081 6.53099L7.17731 6.54949L6.33731 8.04649L7.18981 9.48799L8.88881 9.46899C8.89231 9.46899 8.89531 9.46999 8.89881 9.47049ZM10.8698 5.13849L10.6253 7.89649H12.1713L11.6403 5.91149L10.8698 5.13849ZM10.4198 7.89649L10.6808 4.94849L10.2073 4.47399L9.41731 5.84499L10.1073 6.32999C10.1252 6.34248 10.1387 6.36035 10.1458 6.38101C10.1529 6.40167 10.1533 6.42406 10.1468 6.44493C10.1404 6.4658 10.1274 6.48408 10.1099 6.49712C10.0924 6.51017 10.0712 6.5173 10.0493 6.51749L9.07681 6.52799L9.88531 7.89649H10.4193H10.4198ZM10.7363 4.31799L10.8163 3.41649L10.3563 4.21549L10.7363 4.31799ZM5.31731 11.71L5.23481 12.639L5.70981 11.815L5.31731 11.71Z" fill="white"/>
</g>
<defs>
<clipPath id="clip0_7_7747">
<rect width="16" height="16" fill="white"/>
</clipPath>
</defs>
</svg>
