<svg width="16" height="16" viewBox="0 0 16 16" fill="none" xmlns="http://www.w3.org/2000/svg">
<g clip-path="url(#clip0_7_7746)">
<path d="M8 16C12.4183 16 16 12.4183 16 8C16 3.58172 12.4183 0 8 0C3.58172 0 0 3.58172 0 8C0 12.4183 3.58172 16 8 16Z" fill="#3CB054"/>
<path fill-rule="evenodd" clip-rule="evenodd" d="M4.5 3.75C10.5465 3.9735 12.878 7.603 11.7075 10.8415C11.376 11.743 11.0235 12.2365 10.2825 12.75C10.3125 12.62 10.3435 12.49 10.3675 12.3565C10.8055 9.83 9.975 6.7895 5.9115 5.11C9.1445 7.034 10.449 10.4575 8.9415 12.6675C6.375 13.071 4.5 10.8795 4.5 8.3545V3.75Z" fill="white"/>
</g>
<defs>
<clipPath id="clip0_7_7746">
<rect width="16" height="16" fill="white"/>
</clipPath>
</defs>
</svg>
