<svg width="16" height="16" viewBox="0 0 16 16" fill="none" xmlns="http://www.w3.org/2000/svg">
<g clip-path="url(#clip0_7_7744)">
<path d="M8 16C12.4183 16 16 12.4183 16 8C16 3.58172 12.4183 0 8 0C3.58172 0 0 3.58172 0 8C0 12.4183 3.58172 16 8 16Z" fill="#348F8D"/>
<path d="M11.656 3.52198C11.7754 3.64591 11.8422 3.81134 11.8422 3.98348C11.8422 4.15561 11.7754 4.32104 11.656 4.44498L10.091 6.04948C10.0413 6.10028 9.98347 6.14252 9.91998 6.17448C9.8051 6.23929 9.67195 6.2641 9.54144 6.24501C9.41093 6.22591 9.29046 6.16399 9.19898 6.06898L7.63998 4.47198L4.63748 7.55148L5.36248 8.29298C5.46651 8.40236 5.52424 8.54772 5.52359 8.69868C5.52294 8.84964 5.46396 8.9945 5.35898 9.10298C5.30774 9.15597 5.24642 9.19818 5.17862 9.22711C5.11082 9.25604 5.03792 9.27111 4.96421 9.27144C4.8905 9.27176 4.81747 9.25734 4.74942 9.22901C4.68137 9.20068 4.61968 9.15901 4.56798 9.10648L3.41498 7.92998C3.30915 7.82052 3.25 7.67423 3.25 7.52198C3.25 7.36973 3.30915 7.22344 3.41498 7.11398L3.42298 7.10648C3.42544 7.1041 3.42777 7.1016 3.42998 7.09898L7.24198 3.18898L7.24298 3.18848L7.25548 3.17548C7.35062 3.07661 7.47805 3.01512 7.61465 3.00219C7.75125 2.98925 7.88797 3.02572 7.99998 3.10498C8.03597 3.12948 8.06998 3.15698 8.09998 3.18848L9.59198 4.71498L10.7555 3.52198C10.814 3.46165 10.884 3.41368 10.9614 3.38093C11.0388 3.34817 11.1219 3.33129 11.206 3.33129C11.29 3.33129 11.3732 3.34817 11.4506 3.38093C11.528 3.41368 11.5975 3.46165 11.656 3.52198ZM12.585 8.07298C12.6912 8.18171 12.7507 8.32764 12.7508 8.47963C12.7509 8.63161 12.6915 8.77762 12.5855 8.88648L12.5775 8.89398C12.5748 8.89634 12.5723 8.89884 12.57 8.90148L8.74298 12.825C8.68481 12.8853 8.61415 12.9321 8.53596 12.9622C8.45778 12.9922 8.37395 13.0048 8.29038 12.9991C8.2068 12.9933 8.1255 12.9693 8.05219 12.9288C7.97887 12.8883 7.91531 12.8322 7.86598 12.7645L6.40747 11.2725L5.25098 12.4615C5.08998 12.6275 4.85498 12.693 4.63448 12.6325C4.41398 12.572 4.24148 12.396 4.18248 12.17C4.12398 11.9445 4.18748 11.7035 4.34998 11.539L5.91448 9.93498C6.00348 9.84198 6.11798 9.77898 6.24298 9.75398C6.44498 9.70898 6.65597 9.77198 6.80247 9.92198L8.36548 11.521L11.3625 8.44898L10.6375 7.70748C10.5334 7.5981 10.4757 7.45273 10.4764 7.30177C10.477 7.15082 10.536 7.00596 10.641 6.89748C10.6922 6.84448 10.7535 6.80228 10.8213 6.77335C10.8891 6.74442 10.962 6.72934 11.0357 6.72902C11.1094 6.72869 11.1825 6.74312 11.2505 6.77145C11.3186 6.79978 11.3803 6.84144 11.432 6.89398L12.5685 8.05648L12.5695 8.05748L12.571 8.05848L12.585 8.07298Z" fill="white"/>
</g>
<defs>
<clipPath id="clip0_7_7744">
<rect width="16" height="16" fill="white"/>
</clipPath>
</defs>
</svg>
