<svg width="16" height="16" viewBox="0 0 16 16" fill="none" xmlns="http://www.w3.org/2000/svg">
<g clip-path="url(#clip0_7_7741)">
<path d="M8 16C12.4183 16 16 12.4183 16 8C16 3.58172 12.4183 0 8 0C3.58172 0 0 3.58172 0 8C0 12.4183 3.58172 16 8 16Z" fill="#152743"/>
<path d="M8.02408 4.15802C7.36608 4.15802 6.83258 3.79152 6.83258 3.33902C6.83258 2.88652 7.36608 2.52002 8.02408 2.52002C8.68208 2.52002 9.21508 2.88652 9.21508 3.33902C9.21508 3.79152 8.68208 4.15802 8.02408 4.15802ZM7.40758 13.3V4.55202H10.0636C10.1621 4.55202 10.2316 4.62552 10.2316 4.72402V9.57802C10.2316 9.67602 10.1616 9.76002 10.0636 9.76002H8.59958V13.3C8.59958 13.3985 8.52458 13.488 8.42608 13.488H7.59208C7.54324 13.4861 7.49696 13.4657 7.46267 13.4308C7.42839 13.396 7.40869 13.3489 7.40758 13.3ZM6.95958 9.75952H5.95458C5.90599 9.75904 5.85945 9.73986 5.82463 9.70597C5.78981 9.67208 5.76938 9.62608 5.76758 9.57752V4.72402C5.76758 4.62552 5.85608 4.55202 5.95408 4.55202H6.95958V9.76002V9.75952Z" fill="white"/>
</g>
<defs>
<clipPath id="clip0_7_7741">
<rect width="16" height="16" fill="white"/>
</clipPath>
</defs>
</svg>
