<svg width="16" height="16" viewBox="0 0 16 16" fill="none" xmlns="http://www.w3.org/2000/svg">
<g clip-path="url(#clip0_7_7762)">
<path d="M8 16C12.4183 16 16 12.4183 16 8C16 3.58172 12.4183 0 8 0C3.58172 0 0 3.58172 0 8C0 12.4183 3.58172 16 8 16Z" fill="#3A8CBD"/>
<path d="M6.7351 9.02254H7.5741C7.81383 9.02331 8.05073 8.9707 8.2676 8.86854C8.4726 8.76704 8.6556 8.62654 8.8061 8.45454C8.9556 8.27654 9.0711 8.07304 9.1481 7.85404C9.23104 7.6321 9.27305 7.39696 9.2721 7.16004C9.27343 6.92885 9.22749 6.69983 9.1371 6.48704C9.05038 6.27146 8.928 6.07201 8.7751 5.89704C8.62101 5.72178 8.43462 5.57782 8.2261 5.47304C8.01227 5.36251 7.7748 5.30554 7.5341 5.30704H5.3291V10.6585H6.7371L6.7351 9.02254ZM6.7351 6.59954H7.4486C7.54777 6.60605 7.64057 6.65066 7.7076 6.72404C7.7906 6.80654 7.8426 6.95204 7.8426 7.17954C7.8426 7.40704 7.7911 7.54204 7.7176 7.61554C7.6561 7.68804 7.5731 7.73954 7.4801 7.73954H6.7351V6.59954Z" fill="white"/>
<path d="M3.51172 4.01501V11.959C3.51172 12.244 3.74222 12.474 4.02672 12.474H11.9707C12.2552 12.474 12.4857 12.244 12.4857 11.959V4.01501C12.4858 3.94734 12.4725 3.88032 12.4467 3.81778C12.4208 3.75524 12.3829 3.6984 12.3351 3.65053C12.2872 3.60265 12.2304 3.56467 12.1679 3.53876C12.1054 3.51285 12.0384 3.49951 11.9707 3.49951H4.02672C3.95909 3.49951 3.89212 3.51283 3.82964 3.53871C3.76715 3.56459 3.71038 3.60253 3.66256 3.65035C3.61474 3.69817 3.5768 3.75495 3.55092 3.81743C3.52504 3.87991 3.51172 3.94738 3.51172 4.01501ZM10.9132 11.417H5.07322C5.00555 11.4171 4.93852 11.4038 4.87598 11.378C4.81344 11.3521 4.75661 11.3142 4.70874 11.2663C4.66086 11.2185 4.62288 11.1617 4.59697 11.0992C4.57106 11.0367 4.55772 10.9697 4.55772 10.902V5.06201C4.55765 4.9943 4.57094 4.92723 4.59683 4.86466C4.62271 4.80209 4.66068 4.74523 4.70856 4.69735C4.75644 4.64947 4.81329 4.6115 4.87587 4.58562C4.93844 4.55973 5.0055 4.54645 5.07322 4.54651H10.9132C11.1982 4.54651 11.4282 4.77701 11.4282 5.06151V10.9015C11.4282 11.1865 11.1982 11.417 10.9132 11.417Z" fill="white"/>
<path d="M7.36719 9.65454H10.6707V10.6695H7.36719V9.65454Z" fill="white"/>
</g>
<defs>
<clipPath id="clip0_7_7762">
<rect width="16" height="16" fill="white"/>
</clipPath>
</defs>
</svg>
