<svg width="16" height="16" viewBox="0 0 16 16" fill="none" xmlns="http://www.w3.org/2000/svg">
<g clip-path="url(#clip0_7_7739)">
<path d="M8 16C12.4183 16 16 12.4183 16 8C16 3.58172 12.4183 0 8 0C3.58172 0 0 3.58172 0 8C0 12.4183 3.58172 16 8 16Z" fill="#1061E3"/>
<path fill-rule="evenodd" clip-rule="evenodd" d="M12.1406 10.4335C12.1826 10.864 12.0481 11.289 11.6316 11.565C11.4321 11.6975 11.2096 11.75 10.9706 11.75C8.99061 11.749 7.01061 11.7495 5.03061 11.749C4.98726 11.749 4.94391 11.7478 4.90061 11.7455C4.46661 11.722 4.05661 11.4075 3.91661 10.997C3.85461 10.8155 3.84511 10.6295 3.85261 10.4335H5.05761C5.17361 10.433 5.25061 10.3485 5.22461 10.243C5.21101 10.2021 5.18707 10.1654 5.15511 10.1365C4.66361 9.64548 4.17061 9.15648 3.67811 8.66648L3.22711 8.21748C3.05761 8.04998 2.97611 7.84748 3.00611 7.61148C3.02111 7.49548 3.05861 7.38148 3.09611 7.26948C3.30658 6.63507 3.64087 6.04874 4.07961 5.54448C4.70109 4.82125 5.51171 4.2854 6.42061 3.99698C7.0123 3.80331 7.63508 3.72241 8.25661 3.75848C9.72461 3.84648 10.9471 4.44348 11.9161 5.54398C12.4119 6.10676 12.7727 6.77522 12.9711 7.49848C13.0461 7.76798 12.9751 8.01048 12.7756 8.20898C12.4006 8.58298 12.0226 8.95398 11.6461 9.32648C11.3696 9.59998 11.0936 9.87448 10.8176 10.149C10.7266 10.239 10.7356 10.359 10.8396 10.4125C10.8696 10.4275 10.9071 10.4325 10.9411 10.4325C11.3211 10.434 11.7016 10.4335 12.0821 10.4335H12.1406ZM4.22111 10.7035C4.22661 10.8645 4.26961 11.0075 4.36361 11.1325C4.51961 11.3405 4.73011 11.4385 4.99111 11.438H11.0051C11.0286 11.438 11.0521 11.437 11.0751 11.4355C11.1859 11.4312 11.2941 11.4015 11.3915 11.3486C11.4889 11.2957 11.5728 11.2211 11.6366 11.1305C11.7296 11.0055 11.7731 10.8625 11.7756 10.704L4.22111 10.7035ZM9.35511 6.82998C9.36961 6.83948 9.38011 6.84498 9.38861 6.85148C9.88261 7.21948 10.1956 7.70148 10.3146 8.30498C10.3796 8.63298 10.3706 8.95998 10.2936 9.28548C10.2234 9.58116 10.096 9.86025 9.91861 10.107C9.90191 10.1279 9.89017 10.1524 9.88429 10.1786C9.8784 10.2047 9.87851 10.2319 9.88461 10.258C9.91911 10.394 10.0736 10.438 10.1756 10.3385C10.3256 10.193 10.4721 10.0445 10.6206 9.89748C11.2186 9.30248 11.8166 8.70798 12.4151 8.11398C12.5451 7.98498 12.6021 7.83098 12.5701 7.65098C12.5556 7.57298 12.5276 7.49698 12.5011 7.42198C12.3069 6.85847 12.0217 6.33063 11.6566 5.85948C11.3773 5.4979 11.0453 5.18035 10.6716 4.91748C10.6526 4.90379 10.6394 4.88345 10.6346 4.86048C10.6291 4.80744 10.6113 4.75643 10.5825 4.71154C10.5537 4.66665 10.5148 4.62913 10.4689 4.602C10.423 4.57487 10.3714 4.55888 10.3182 4.55532C10.265 4.55175 10.2117 4.56071 10.1626 4.58148C10.1422 4.58954 10.1196 4.58972 10.0991 4.58198C9.57206 4.33111 9.00173 4.18377 8.41911 4.14798C7.95602 4.11318 7.49037 4.1394 7.03411 4.22598C6.65289 4.29861 6.28277 4.42064 5.93311 4.58898C5.91978 4.59656 5.9047 4.60055 5.88936 4.60055C5.87402 4.60055 5.85895 4.59656 5.84561 4.58898C5.79558 4.56434 5.74016 4.55265 5.68444 4.555C5.62872 4.55735 5.57448 4.57366 5.52671 4.60242C5.47893 4.63119 5.43914 4.6715 5.41099 4.71964C5.38285 4.76779 5.36724 4.82223 5.36561 4.87798C5.36561 4.90798 5.35461 4.92548 5.33161 4.94348C5.17861 5.06498 5.01961 5.18048 4.87661 5.31298C4.20461 5.93548 3.74761 6.69498 3.45411 7.55648C3.38011 7.77448 3.42911 7.96148 3.59161 8.12298L5.37161 9.89248C5.52061 10.041 5.66911 10.1895 5.81961 10.337C5.90611 10.422 6.03661 10.407 6.09311 10.3065C6.13161 10.237 6.12211 10.1685 6.07661 10.1045C5.83737 9.77332 5.69036 9.38457 5.65061 8.97798C5.61577 8.6437 5.65504 8.30586 5.76561 7.98848C5.79061 7.91598 5.82161 7.84498 5.85111 7.76998L6.55711 8.18498C6.41057 8.53942 6.40006 8.93548 6.52758 9.2972C6.6551 9.65891 6.91169 9.96081 7.24811 10.145C7.56573 10.3189 7.93388 10.3772 8.28971 10.3099C8.64553 10.2426 8.96696 10.0539 9.19911 9.77598C9.42911 9.50248 9.55111 9.18498 9.55811 8.82748C9.56811 8.29448 9.34761 7.86948 8.93311 7.53848L9.35511 6.82998ZM11.6876 8.34998C11.6746 8.26698 11.6626 8.19048 11.6496 8.11398C11.6015 7.83161 11.5189 7.55622 11.4036 7.29398C11.3911 7.26398 11.3881 7.24098 11.4031 7.20998C11.4228 7.16838 11.4337 7.12312 11.435 7.0771C11.4363 7.03107 11.428 6.98528 11.4106 6.94263C11.3933 6.89998 11.3673 6.86141 11.3342 6.82936C11.3011 6.79732 11.2618 6.7725 11.2186 6.75648C11.1763 6.74049 11.1312 6.73315 11.086 6.7349C11.0407 6.73664 10.9963 6.74744 10.9553 6.76664C10.9144 6.78585 10.8777 6.81307 10.8474 6.84671C10.8171 6.88035 10.7939 6.91971 10.7791 6.96248C10.7644 7.00524 10.7586 7.05056 10.7621 7.09564C10.7657 7.14072 10.7784 7.1846 10.7996 7.22454C10.8208 7.26449 10.85 7.29965 10.8853 7.32785C10.9207 7.35606 10.9615 7.37669 11.0051 7.38848C11.0288 7.39299 11.0508 7.40376 11.069 7.41968C11.0871 7.43559 11.1006 7.45607 11.1081 7.47898C11.2601 7.85148 11.3446 8.23748 11.3566 8.63898C11.3576 8.66293 11.3498 8.68641 11.3346 8.70498C11.1061 8.93498 10.8756 9.16298 10.6461 9.39148C10.6381 9.39898 10.6286 9.40498 10.6251 9.40848C10.8441 8.32348 10.5776 7.38298 9.70611 6.67498C8.80061 5.93998 7.79161 5.88348 6.73211 6.36148L6.40861 5.80298C6.52411 5.75148 6.63511 5.69798 6.74861 5.65098C7.04095 5.53426 7.34802 5.45854 7.66111 5.42598C7.70161 5.42148 7.73111 5.42798 7.76261 5.45998C7.79357 5.49188 7.83066 5.5172 7.87165 5.53441C7.91264 5.55162 7.95669 5.56037 8.00114 5.56014C8.0456 5.5599 8.08955 5.55069 8.13036 5.53305C8.17116 5.51541 8.20799 5.4897 8.23861 5.45748C8.24917 5.44516 8.26271 5.43575 8.27794 5.43015C8.29317 5.42455 8.30958 5.42294 8.32561 5.42548C9.09211 5.50848 9.75711 5.80948 10.3181 6.33598C10.3631 6.37848 10.4056 6.42298 10.4491 6.46698C10.5266 6.54498 10.6121 6.54698 10.6911 6.47098L11.2166 5.96248L11.2656 5.91598C11.3286 5.99598 11.3921 6.07298 11.4511 6.15298C11.7926 6.61461 12.0545 7.13004 12.2261 7.67798C12.2381 7.71021 12.2401 7.74528 12.232 7.77869C12.2239 7.81209 12.206 7.84232 12.1806 7.86548L11.7186 8.32498C11.7106 8.33248 11.7011 8.33848 11.6876 8.34998ZM11.0546 5.69498L10.6056 6.12948C10.5921 6.11798 10.5796 6.10748 10.5681 6.09648C10.1007 5.64668 9.52209 5.32917 8.89161 5.17648C8.71511 5.13348 8.53261 5.11348 8.35311 5.08448C8.32161 5.07948 8.30011 5.07298 8.28061 5.04298C8.24969 4.99599 8.20756 4.95744 8.15802 4.9308C8.10848 4.90415 8.05309 4.89025 7.99684 4.89035C7.94059 4.89045 7.88525 4.90454 7.83581 4.93136C7.78636 4.95818 7.74437 4.99688 7.71361 5.04398C7.69862 5.06417 7.67641 5.07778 7.65161 5.08198C6.49461 5.20898 5.58661 5.75098 4.92161 6.69798C4.91417 6.7096 4.90418 6.71938 4.89239 6.72657C4.88061 6.73375 4.86735 6.73817 4.85361 6.73948C4.62061 6.77748 4.50211 7.00448 4.59861 7.21948C4.60619 7.23876 4.60619 7.2602 4.59861 7.27948C4.4587 7.59833 4.36525 7.93559 4.32111 8.28098C4.31811 8.30248 4.31361 8.32348 4.30861 8.35298L4.26561 8.31298C4.12261 8.17048 3.98061 8.02648 3.83561 7.88598C3.76861 7.82098 3.74661 7.75198 3.77811 7.66098C4.11461 6.69598 4.64961 5.86998 5.48311 5.25348C5.49261 5.24648 5.50261 5.24048 5.51161 5.23298C5.54161 5.20648 5.56911 5.19898 5.61361 5.21098C5.65843 5.22349 5.70536 5.22652 5.75142 5.21988C5.79748 5.21325 5.84164 5.19709 5.88111 5.17244C5.92058 5.14779 5.95448 5.11519 5.98065 5.07672C6.00682 5.03824 6.02468 4.99474 6.03311 4.94898C6.03563 4.93919 6.04006 4.92999 6.04616 4.92193C6.05225 4.91386 6.05988 4.90708 6.06861 4.90198C6.28454 4.79548 6.50983 4.70912 6.74161 4.64398C7.28911 4.48848 7.84811 4.44798 8.41311 4.48848C8.93354 4.5215 9.44316 4.65175 9.91561 4.87248C9.94561 4.88648 9.96061 4.90248 9.96561 4.93748C9.97284 4.98805 9.99155 5.0363 10.0203 5.07853C10.049 5.12076 10.0871 5.15586 10.1314 5.18115C10.1758 5.20643 10.2254 5.22123 10.2764 5.2244C10.3274 5.22758 10.3784 5.21906 10.4256 5.19948C10.4416 5.19348 10.4671 5.19298 10.4796 5.20148C10.6841 5.34248 10.8721 5.50248 11.0456 5.67898C11.0491 5.68248 11.0506 5.68748 11.0546 5.69498ZM9.22261 8.78498C9.22611 9.45048 8.67761 9.99898 8.00461 10.003C7.68106 10.0039 7.37029 9.87676 7.14019 9.64929C6.9101 9.42181 6.77939 9.11252 6.77661 8.78898C6.77361 8.12248 7.32111 7.57548 7.99561 7.57198C8.31909 7.57012 8.63007 7.6968 8.86016 7.92418C9.09026 8.15155 9.22063 8.4615 9.22261 8.78498ZM5.37361 9.41698L5.05761 9.09948C4.92761 8.96948 4.79661 8.84148 4.66761 8.71048C4.65085 8.69344 4.64089 8.67085 4.63961 8.64698C4.65156 8.23348 4.74112 7.8259 4.90361 7.44548C4.90777 7.43314 4.91524 7.42219 4.9252 7.41381C4.93517 7.40543 4.94725 7.39996 4.96011 7.39798C5.18461 7.34548 5.28911 7.14948 5.20961 6.93548C5.20461 6.92048 5.20461 6.89798 5.21211 6.88548C5.45781 6.52205 5.77325 6.21103 6.14011 5.97048C6.14161 5.96948 6.14311 5.96948 6.15011 5.96748L6.28261 6.19348L6.56061 6.67348C6.61661 6.77148 6.68961 6.79298 6.78611 6.73448C7.03833 6.58153 7.31783 6.47897 7.60911 6.43248C8.10991 6.34775 8.62467 6.4272 9.07661 6.65898C9.08111 6.66148 9.08461 6.66498 9.09361 6.67198L8.67411 7.37548C7.88161 7.07798 7.22661 7.25548 6.69761 7.91398L5.99411 7.50048C6.05711 7.41598 6.11711 7.33448 6.17861 7.25448C6.20361 7.22148 6.23261 7.19148 6.26061 7.16048C6.30361 7.11248 6.30361 7.08548 6.25961 7.04048C6.2209 7.00119 6.1819 6.96219 6.14261 6.92348C6.08961 6.87148 6.06361 6.87148 6.01361 6.92548C5.80028 7.1538 5.62898 7.41803 5.50761 7.70598C5.33556 8.10937 5.26715 8.54939 5.30861 8.98598C5.32161 9.12598 5.35011 9.26448 5.37361 9.41698ZM7.99761 5.41198C7.94799 5.41095 7.90069 5.39075 7.86564 5.3556C7.83059 5.32046 7.81051 5.27311 7.80961 5.22348C7.81127 5.17389 7.83191 5.12684 7.86727 5.09204C7.90263 5.05724 7.95001 5.03735 7.99961 5.03648C8.04923 5.03764 8.09648 5.05797 8.13144 5.0932C8.1664 5.12844 8.18635 5.17585 8.18711 5.22548C8.18607 5.27518 8.1657 5.32252 8.13031 5.35744C8.09493 5.39235 8.04732 5.4116 7.99761 5.41198ZM5.69761 4.70498C5.72231 4.70431 5.7469 4.70856 5.76994 4.71748C5.79298 4.7264 5.81403 4.73981 5.83184 4.75693C5.84966 4.77405 5.8639 4.79454 5.87373 4.81721C5.88356 4.83988 5.88879 4.86427 5.88911 4.88898C5.88911 4.9391 5.8692 4.98718 5.83376 5.02262C5.79831 5.05807 5.75024 5.07798 5.70011 5.07798C5.64999 5.07798 5.60191 5.05807 5.56647 5.02262C5.53102 4.98718 5.51111 4.9391 5.51111 4.88898C5.51164 4.83991 5.53154 4.79304 5.56647 4.75857C5.6014 4.72411 5.64854 4.70484 5.69761 4.70498ZM11.0981 7.25498C11.0505 7.253 11.0054 7.23279 10.9722 7.19853C10.939 7.16427 10.9203 7.11858 10.9198 7.07089C10.9194 7.0232 10.9373 6.97717 10.9698 6.94229C11.0023 6.90741 11.047 6.88636 11.0946 6.88348C11.119 6.88325 11.1432 6.88783 11.1658 6.89695C11.1885 6.90607 11.2091 6.91956 11.2265 6.93665C11.2439 6.95373 11.2578 6.97408 11.2673 6.99653C11.2769 7.01898 11.2819 7.04309 11.2821 7.06748C11.2823 7.09187 11.2778 7.11607 11.2686 7.1387C11.2595 7.16132 11.246 7.18193 11.2289 7.19934C11.2119 7.21675 11.1915 7.23062 11.1691 7.24017C11.1466 7.24972 11.1225 7.25475 11.0981 7.25498ZM10.2966 4.70498C10.4031 4.70498 10.4841 4.78498 10.4836 4.89098C10.4835 4.93992 10.464 4.98682 10.4295 5.02147C10.3949 5.05612 10.348 5.07572 10.2991 5.07598C10.2745 5.07638 10.25 5.0719 10.2271 5.0628C10.2042 5.05371 10.1833 5.04018 10.1656 5.02298C10.148 5.00579 10.1339 4.98528 10.1242 4.96262C10.1145 4.93997 10.1094 4.91562 10.1091 4.89098C10.1088 4.86631 10.1134 4.84182 10.1227 4.81898C10.132 4.79613 10.1458 4.77539 10.1633 4.75799C10.1808 4.74059 10.2016 4.72689 10.2245 4.71769C10.2474 4.7085 10.2719 4.70451 10.2966 4.70498ZM5.08761 7.06898C5.08775 7.09361 5.08296 7.11802 5.07354 7.14078C5.06411 7.16354 5.05024 7.18419 5.03273 7.20152C5.01522 7.21884 4.99442 7.23249 4.97156 7.24167C4.9487 7.25086 4.92424 7.25538 4.89961 7.25498C4.87494 7.25532 4.85046 7.25069 4.82761 7.24138C4.80476 7.23206 4.78402 7.21825 4.76662 7.20076C4.74922 7.18326 4.73552 7.16245 4.72633 7.13955C4.71713 7.11666 4.71264 7.09215 4.71311 7.06748C4.71338 7.0185 4.73305 6.97163 4.76783 6.93713C4.8026 6.90264 4.84963 6.88335 4.89861 6.88348C4.92327 6.88301 4.94776 6.88747 4.97068 6.89658C4.99359 6.9057 5.01445 6.91929 5.03205 6.93656C5.04965 6.95383 5.06362 6.97444 5.07316 6.99717C5.08271 7.01991 5.08762 7.04432 5.08761 7.06898Z" fill="white"/>
</g>
<defs>
<clipPath id="clip0_7_7739">
<rect width="16" height="16" fill="white"/>
</clipPath>
</defs>
</svg>
