<svg width="16" height="16" viewBox="0 0 16 16" fill="none" xmlns="http://www.w3.org/2000/svg">
<g clip-path="url(#clip0_7_7837)">
<path d="M8 16C12.4183 16 16 12.4183 16 8C16 3.58172 12.4183 0 8 0C3.58172 0 0 3.58172 0 8C0 12.4183 3.58172 16 8 16Z" fill="#22B573"/>
<path d="M7.61 13.402C8.0485 13.427 8.569 13.401 8.943 13.3345C9.7545 13.1945 10.587 12.832 11.27 12.321C11.5765 12.0905 12.102 11.565 12.33 11.261C12.844 10.575 13.1825 9.8075 13.3575 8.926C13.422 8.5925 13.4305 7.4425 13.3725 7.101C13.051 5.2935 11.9475 3.822 10.33 3.0455C10.2874 3.0251 10.2445 3.0051 10.2015 2.9855L10.4115 3.7315C10.5315 4.146 10.7765 5.019 10.9605 5.667C11.448 7.381 11.4425 7.352 11.46 7.787C11.4685 8.0145 11.463 8.2685 11.4425 8.4235C11.235 9.9795 10 11.2115 8.4375 11.422C8.1195 11.4655 7.5825 11.4455 7.282 11.381C7.171 11.3545 7.0745 11.34 7.0655 11.346C7.057 11.3575 7.5385 13.095 7.6145 13.3285C7.6305 13.3765 7.636 13.3955 7.6095 13.402H7.61ZM5.82 12.9655C5.81654 12.963 5.8132 12.9603 5.81 12.9575C5.7925 12.9375 5.6585 12.511 5.515 12.006C5.3725 11.501 5.1065 10.566 4.9285 9.933C4.7475 9.2995 4.5835 8.6805 4.5605 8.5605C4.514 8.298 4.508 7.6845 4.552 7.422C4.60698 7.09882 4.7052 6.7845 4.844 6.4875C5.3315 5.4655 6.19 4.791 7.3225 4.543C7.629 4.476 8.3385 4.476 8.648 4.543C8.7735 4.5725 8.888 4.584 8.8995 4.5695C8.911 4.5575 8.791 4.0935 8.6335 3.5385C8.53611 3.20584 8.4441 2.87163 8.3575 2.536C8.25084 2.53469 8.14417 2.53419 8.0375 2.5345C7.387 2.5315 7.2205 2.549 6.718 2.6655C5.632 2.9195 4.581 3.568 3.854 4.4235C2.648 5.8425 2.2425 7.7785 2.7795 9.5385C2.975 10.187 3.2175 10.663 3.6235 11.2145C4.1916 11.9786 4.9485 12.582 5.82 12.9655ZM7.1065 13.918C6.949 13.895 6.797 13.8685 6.771 13.857C6.67834 13.8296 6.58479 13.8052 6.4905 13.784C5.562 13.559 4.5755 13.0075 3.8365 12.3005C3.273 11.7605 2.7095 10.943 2.473 10.327C2.441 10.248 2.403 10.1545 2.388 10.1225C2.3095 9.956 2.1695 9.4685 2.0905 9.0745C2.0055 8.663 2 8.5895 2 7.991C2 7.6235 2.015 7.273 2.032 7.1735C2.0525 7.0775 2.0905 6.864 2.1225 6.7035C2.152 6.54 2.1955 6.3765 2.216 6.3385C2.22972 6.31701 2.2397 6.29334 2.2455 6.2685C2.2305 6.2685 2.365 5.8335 2.3885 5.8015C2.4 5.7865 2.435 5.708 2.464 5.6265C2.514 5.489 2.6775 5.1565 2.739 5.0565C2.756 5.0335 2.832 4.905 2.911 4.7735C2.9925 4.6395 3.0715 4.5135 3.086 4.4965C3.1035 4.476 3.2 4.3535 3.2995 4.225C4.1695 3.118 5.492 2.318 6.8845 2.0585C7.2965 1.9795 8.7005 1.9825 9.118 2.0615C9.787 2.1865 10.4995 2.464 11.1035 2.832C11.3955 3.013 11.416 3.025 11.746 3.2875C12.026 3.5095 12.4905 3.9765 12.692 4.2395C12.771 4.3445 12.87 4.47 12.911 4.5195C12.952 4.5725 12.987 4.622 12.987 4.6335C12.987 4.6485 13.019 4.698 13.057 4.7475C13.095 4.7975 13.1855 4.9575 13.2615 5.1005C13.3345 5.2465 13.4075 5.378 13.419 5.3925C13.4305 5.41 13.486 5.53 13.539 5.664C13.933 6.66 14.07 7.609 13.962 8.634C13.918 9.074 13.7195 9.854 13.568 10.187C13.5385 10.257 13.5125 10.321 13.5125 10.33C13.5125 10.356 13.2615 10.8585 13.1855 10.984C12.5695 12.006 11.6965 12.829 10.7095 13.3195C10.54 13.4045 10.3795 13.483 10.3505 13.498C10.1545 13.6 9.5095 13.7955 9.0305 13.895C8.733 13.956 7.486 13.971 7.1065 13.918ZM8.4175 9.743C9.051 9.5825 9.6 9.0425 9.7575 8.4265C9.816 8.1955 9.819 7.749 9.7605 7.524C9.518 6.5665 8.5225 5.956 7.5855 6.1925C7.2 6.289 6.9955 6.4025 6.724 6.6745C6.336 7.063 6.175 7.448 6.178 7.991C6.181 8.8175 6.718 9.5155 7.524 9.731C7.7665 9.796 8.187 9.801 8.4175 9.743Z" fill="#FEFFFF"/>
</g>
<defs>
<clipPath id="clip0_7_7837">
<rect width="16" height="16" fill="white"/>
</clipPath>
</defs>
</svg>
