<svg width="16" height="16" viewBox="0 0 16 16" fill="none" xmlns="http://www.w3.org/2000/svg">
<g clip-path="url(#clip0_7_7991)">
<path d="M8 16C12.4183 16 16 12.4183 16 8C16 3.58172 12.4183 0 8 0C3.58172 0 0 3.58172 0 8C0 12.4183 3.58172 16 8 16Z" fill="#333333"/>
<path d="M5.596 4H9.478C10.552 4.0635 11.7335 4.505 12.208 5.53C12.8015 6.8355 12.5065 8.6715 11.1695 9.4165C9.9365 10.1215 8.4615 9.8435 7.1075 9.9015C7.071 10.5685 7.2575 11.3445 6.7925 11.9085C6.6055 12.1785 5.748 12.5 5.748 12.5C5.748 12.5 5.669 11.7755 5.64 10.145C5.6215 9.695 5.695 9.19 6.0815 8.8975C6.534 8.5085 7.1755 8.63 7.725 8.61C8.555 8.588 9.427 8.715 10.215 8.395C11.371 7.9225 11.413 5.993 10.248 5.5065C9.0585 5.0455 7.745 5.465 6.523 5.21C5.968 5.0545 5.7185 4.508 5.596 4ZM3.5 6.215C4.515 6.2335 5.532 6.1795 6.545 6.2405C7.2815 6.297 7.765 6.964 7.842 7.646C6.82 7.641 5.7955 7.6785 4.773 7.6335C4.145 7.597 3.6815 7.087 3.5 6.5245V6.215Z" fill="white"/>
</g>
<defs>
<clipPath id="clip0_7_7991">
<rect width="16" height="16" fill="white"/>
</clipPath>
</defs>
</svg>
