<svg width="16" height="16" viewBox="0 0 16 16" fill="none" xmlns="http://www.w3.org/2000/svg">
<g clip-path="url(#clip0_7_7737)">
<path d="M8 16C12.4183 16 16 12.4183 16 8C16 3.58172 12.4183 0 8 0C3.58172 0 0 3.58172 0 8C0 12.4183 3.58172 16 8 16Z" fill="#1347E8"/>
<path d="M8 2.5C4.9625 2.5 2.5 4.9625 2.5 8C2.5 11.0375 4.9625 13.5 8 13.5C11.0375 13.5 13.5 11.0375 13.5 8C13.5 4.9625 11.0375 2.5 8 2.5ZM13.22 7.775L12.775 7.7795L12.773 7.593L13.2185 7.589L13.22 7.775ZM13.106 6.8135L12.6645 6.875L12.639 6.69L13.08 6.629L13.106 6.814V6.8135ZM12.726 5.6425L12.803 5.8125L12.3975 5.9965L12.3205 5.827L12.726 5.6425ZM12.17 4.795L12.293 4.935L11.958 5.229L11.8355 5.089L12.17 4.795ZM11.5175 4.0985L11.6585 4.2205L11.368 4.5575L11.2265 4.436L11.5175 4.0985ZM10.74 3.469L10.896 3.5705L10.6535 3.944L10.4975 3.843L10.74 3.469ZM9.855 3.0325L10.0355 3.08L9.9225 3.5105L9.742 3.463L9.8555 3.033L9.855 3.0325ZM8.8825 2.7935L9.068 2.8085L9.031 3.2525L8.8455 3.237L8.8825 2.7935ZM7.8755 2.676H8.0615V3.1215H7.8755V2.676ZM7.0485 2.7935L7.0855 3.237L6.8995 3.253L6.8625 2.809L7.0485 2.7935ZM6.0755 3.0325L6.1885 3.463L6.0085 3.5105L5.895 3.0805L6.075 3.0325H6.0755ZM5.191 3.469L5.4335 3.843L5.277 3.944L5.0345 3.5705L5.191 3.469ZM4.4135 4.099L4.704 4.436L4.563 4.5575L4.2725 4.2205L4.4135 4.0985V4.099ZM3.7615 4.794L4.0965 5.088L3.973 5.228L3.6385 4.9345L3.7615 4.794ZM3.206 5.642L3.611 5.8265L3.5345 5.9965L3.129 5.8115L3.206 5.642ZM2.8515 6.6285L3.293 6.6895L3.267 6.8745L2.826 6.813L2.8515 6.628V6.6285ZM2.7135 7.5885L3.1585 7.5925L3.157 7.779L2.712 7.7745L2.7135 7.5885ZM2.7545 8.6345L3.1975 8.5895L3.216 8.7745L2.773 8.8195L2.7545 8.6345ZM2.956 9.5815L3.39 9.4805L3.4325 9.662L2.9985 9.763L2.956 9.5815ZM3.4415 10.713L3.3495 10.551L3.736 10.33L3.8285 10.492L3.4415 10.713ZM4.0725 11.5065L3.937 11.3785L4.2435 11.055L4.3785 11.183L4.0725 11.5065ZM4.785 12.14L4.6335 12.032L4.892 11.669L5.0435 11.7775L4.785 12.14ZM5.617 12.6955L5.452 12.609L5.659 12.215L5.824 12.3015L5.617 12.6955ZM6.5375 13.0495L6.3535 13.0185L6.427 12.5795L6.611 12.6105L6.5375 13.0495ZM7.342 13.2005L7.3385 12.755L7.525 12.753L7.5285 13.1985L7.342 13.2005ZM3.37 8C3.37 5.447 5.447 3.37 8 3.37C10.553 3.37 12.63 5.447 12.63 8C12.63 10.553 10.553 12.63 8 12.63C5.447 12.63 3.37 10.553 3.37 8ZM8.363 13.2405L8.357 13.241L8.3165 12.798L8.502 12.781L8.508 12.78L8.5485 13.2235L8.363 13.2405ZM9.3555 13.0315L9.278 12.593L9.4615 12.5605L9.539 12.9995L9.3555 13.0315ZM10.3025 12.7045L10.15 12.286L10.325 12.2225L10.4775 12.641L10.3025 12.7045ZM11.143 12.1895L10.868 11.8395L11.014 11.7235L11.2895 12.0735L11.143 12.1895ZM11.86 11.491L11.54 11.182L11.669 11.0475L11.989 11.3575L11.86 11.491ZM12.446 10.7385L12.086 10.476L12.196 10.3255L12.556 10.5875L12.446 10.7385ZM12.922 9.8435L12.501 9.6965L12.5625 9.5205L12.983 9.6675L12.922 9.8435ZM13.1845 8.8285L12.7395 8.8085L12.748 8.622L13.193 8.6425L13.1845 8.8285ZM9.768 10.366C9.8425 10.446 9.844 10.568 9.7705 10.641C9.697 10.7135 9.5755 10.71 9.496 10.634L9.357 10.4945L9.041 10.174C8.83594 10.2718 8.60996 10.3176 8.383 10.3075H7.514C6.727 10.3365 6 9.9435 6.059 8.6655C6.061 8.612 6.0555 7.924 6.0555 7.8695L6.057 7.3535C6.0555 6.0785 6.367 5.5005 7.226 5.296C7.3235 5.2725 7.855 5.261 7.9565 5.261H8.002C8.104 5.261 8.573 5.2725 8.6705 5.296C9.5295 5.5005 9.841 6.0785 9.8395 7.3535L9.841 7.87C9.841 7.9245 9.8355 8.612 9.838 8.666C9.87 9.356 9.672 9.656 9.3595 9.953L9.6295 10.2255L9.768 10.366ZM8.4385 9.902C8.538 9.902 8.6365 9.888 8.7315 9.86L8.5535 9.68L8.4145 9.539C8.3395 9.459 8.338 9.3375 8.4115 9.265C8.485 9.192 8.6065 9.1955 8.686 9.271L8.8245 9.411L9.074 9.664C9.08683 9.65234 9.09917 9.64017 9.111 9.6275C9.344 9.3835 9.455 9.1795 9.4325 8.6845C9.431 8.6495 9.4305 8.649 9.434 8.028L9.435 7.8695L9.4345 7.5205C9.434 7.3075 9.4335 7.3825 9.4335 7.353C9.434 6.788 9.37 6.297 9.2325 6.0755C9.151 5.9435 9.01 5.7955 8.5835 5.6925C8.39023 5.67664 8.19642 5.66814 8.0025 5.667H7.9565C7.828 5.667 7.398 5.68 7.314 5.6925C6.887 5.7955 6.746 5.9435 6.6645 6.0755C6.527 6.297 6.463 6.788 6.464 7.353C6.464 7.383 6.4635 7.3075 6.463 7.5205C6.46286 7.68967 6.46286 7.85883 6.463 8.028C6.4665 8.649 6.4665 8.65 6.4645 8.6845C6.442 9.1795 6.5535 9.3835 6.7865 9.6275C7.003 9.8545 7.2715 9.9025 7.4585 9.9025L7.499 9.9015L7.5065 9.901H8.398C8.4115 9.902 8.425 9.902 8.4385 9.902Z" fill="white"/>
</g>
<defs>
<clipPath id="clip0_7_7737">
<rect width="16" height="16" fill="white"/>
</clipPath>
</defs>
</svg>
