<svg width="16" height="16" viewBox="0 0 16 16" fill="none" xmlns="http://www.w3.org/2000/svg">
<g clip-path="url(#clip0_7_7723)">
<path d="M8 16C12.4183 16 16 12.4183 16 8C16 3.58172 12.4183 0 8 0C3.58172 0 0 3.58172 0 8C0 12.4183 3.58172 16 8 16Z" fill="#FF8C00"/>
<path d="M11.295 9.7225C11.3205 9.923 11.2635 10.0005 11.2 10.0005C11.1365 10.0005 11.0475 9.923 10.9525 9.768C10.8575 9.613 10.819 9.438 10.87 9.348C10.9015 9.2895 10.9715 9.2635 11.054 9.296C11.219 9.361 11.2825 9.6125 11.295 9.7225ZM10.4065 10.1625C10.603 10.3305 10.6605 10.524 10.5585 10.6665C10.5265 10.7039 10.4865 10.7337 10.4416 10.7538C10.3966 10.7738 10.3477 10.7837 10.2985 10.7825C10.1889 10.7836 10.0827 10.7444 10 10.6725C9.8225 10.5175 9.7715 10.259 9.8855 10.117C9.90983 10.0869 9.94097 10.063 9.97635 10.0472C10.0117 10.0315 10.0503 10.0244 10.089 10.0265C10.1905 10.0265 10.305 10.0715 10.4065 10.162V10.1625ZM3.5 7.447C3.5 4.9905 5.455 3 7.867 3C10.2795 3 12.2345 4.991 12.2345 7.447C12.2346 8.24869 12.0222 9.03607 11.619 9.729C11.606 9.7485 11.574 9.742 11.568 9.716C11.416 8.6235 10.762 8.0225 9.81 7.8415C9.727 7.8285 9.7145 7.7765 9.8225 7.764C10.1145 7.738 10.527 7.7445 10.7425 7.7835C10.7557 7.66964 10.7622 7.55511 10.762 7.4405C10.762 5.818 9.467 4.4995 7.8735 4.4995C6.2805 4.4995 4.9855 5.818 4.9855 7.4405C4.9855 9.0635 6.2805 10.382 7.8735 10.382H8.007C7.96167 10.1195 7.94241 9.85325 7.9495 9.587C7.956 9.406 7.9945 9.38 8.0705 9.522C8.4705 10.227 9.0415 10.8605 10.159 11.112C11.073 11.3195 11.987 11.5585 12.971 12.832C13.0595 12.942 12.9265 13.058 12.825 12.9675C11.822 12.0625 10.908 11.765 10.0765 11.765C9.143 11.772 8.5085 11.895 7.867 11.895C5.455 11.895 3.5 9.903 3.5 7.4465V7.447Z" fill="white"/>
</g>
<defs>
<clipPath id="clip0_7_7723">
<rect width="16" height="16" fill="white"/>
</clipPath>
</defs>
</svg>
