<svg width="16" height="16" viewBox="0 0 16 16" fill="none" xmlns="http://www.w3.org/2000/svg">
<g clip-path="url(#clip0_7_7736)">
<path d="M8 16C12.4183 16 16 12.4183 16 8C16 3.58172 12.4183 0 8 0C3.58172 0 0 3.58172 0 8C0 12.4183 3.58172 16 8 16Z" fill="#610089"/>
<path fill-rule="evenodd" clip-rule="evenodd" d="M8.24505 2.50148C10.8101 2.63948 12.8861 4.41948 13.3956 6.93548C13.4626 7.26748 13.4806 7.61098 13.4991 7.95048C13.5156 8.25048 13.3201 8.45298 13.0496 8.45248C12.7846 8.45248 12.6111 8.26048 12.6046 7.96248C12.5561 5.76898 11.0746 3.95998 8.93555 3.50248C8.61555 3.43448 8.28156 3.43348 7.95456 3.39648C7.70555 3.36848 7.54056 3.17698 7.54755 2.93398C7.55455 2.69348 7.73455 2.51448 7.98555 2.50198C8.07205 2.49798 8.15855 2.50148 8.24505 2.50148ZM7.76605 13.5C5.30455 13.426 3.09055 11.56 2.62355 9.14398C2.55255 8.77398 2.52555 8.39448 2.50105 8.01798C2.48605 7.78798 2.63255 7.62298 2.84605 7.56798C3.02305 7.52198 3.22905 7.59748 3.31905 7.76598C3.36405 7.85148 3.38555 7.95948 3.38755 8.05798C3.42405 10.16 4.84555 11.969 6.88555 12.472C7.25355 12.563 7.64155 12.5775 8.02155 12.618C8.23855 12.6405 8.41255 12.788 8.44155 12.9995C8.46905 13.1995 8.34305 13.423 8.15155 13.4705C8.02805 13.501 7.89455 13.4915 7.76605 13.5ZM7.99205 5.99848C9.08055 5.99498 9.99455 6.88748 10.0021 7.96098C10.0046 8.33098 9.66556 8.56398 9.35206 8.40448C9.18205 8.31848 9.10906 8.17448 9.10206 7.98298C9.09682 7.72384 9.00034 7.47485 8.82958 7.27985C8.65882 7.08486 8.42474 6.95636 8.16855 6.91698C7.59256 6.81898 7.03255 7.20998 6.92055 7.78848C6.80605 8.37948 7.17605 8.95498 7.75205 9.07948C7.83105 9.09648 7.91206 9.10598 7.99205 9.11048C8.26006 9.12448 8.44805 9.30898 8.44605 9.56048C8.44406 9.81548 8.24255 10.0045 7.96955 10.007C7.11156 10.0145 6.30255 9.38848 6.06855 8.53648C5.71905 7.26398 6.67506 6.00248 7.99205 5.99848ZM11.7696 7.87698C11.7596 7.96198 11.7631 8.06848 11.7321 8.16348C11.6671 8.36548 11.4521 8.48248 11.2421 8.44848C11.0236 8.41248 10.8681 8.23348 10.8656 7.98848C10.8621 7.61548 10.8016 7.25348 10.6486 6.91498C10.1421 5.79748 9.27556 5.19798 8.04656 5.13998C7.74606 5.12498 7.54656 4.94898 7.54855 4.67998C7.55105 4.41098 7.75206 4.23548 8.05705 4.23648C9.89206 4.23998 11.4956 5.65998 11.7281 7.48848C11.7441 7.61198 11.7546 7.73548 11.7696 7.87698ZM4.23905 8.10748C4.21355 7.90398 4.26555 7.70348 4.49805 7.59648C4.80405 7.45498 5.12455 7.67398 5.13055 8.03348C5.13655 8.37798 5.19555 8.70948 5.31955 9.03048C5.52129 9.56152 5.87681 10.0203 6.34067 10.3483C6.80452 10.6762 7.35563 10.8584 7.92355 10.8715C8.31155 10.8815 8.53705 11.1625 8.41355 11.4815C8.34455 11.6615 8.19255 11.766 7.98455 11.764C6.88355 11.754 5.95505 11.3415 5.21255 10.533C4.60096 9.87182 4.25439 9.00801 4.23905 8.10748ZM10.0061 9.51748C9.98755 9.74098 9.91106 9.88248 9.74305 9.96098C9.57606 10.039 9.40655 10.027 9.27305 9.90348C9.03114 9.67923 8.79749 9.44625 8.57256 9.20498C8.41755 9.03898 8.43256 8.77748 8.58456 8.61398C8.73956 8.44748 9.01655 8.41298 9.18605 8.56848C9.43705 8.79748 9.67455 9.04248 9.90605 9.29198C9.96705 9.35798 9.98405 9.46498 10.0061 9.51748Z" fill="white"/>
</g>
<defs>
<clipPath id="clip0_7_7736">
<rect width="16" height="16" fill="white"/>
</clipPath>
</defs>
</svg>
