<svg width="16" height="16" viewBox="0 0 16 16" fill="none" xmlns="http://www.w3.org/2000/svg">
<g clip-path="url(#clip0_7_7779)">
<path d="M8 16C12.4183 16 16 12.4183 16 8C16 3.58172 12.4183 0 8 0C3.58172 0 0 3.58172 0 8C0 12.4183 3.58172 16 8 16Z" fill="black"/>
<path d="M5.27783 3.37203L7.89083 6.49753L9.64383 5.44453C9.64383 5.44453 7.52683 2.55653 6.96483 2.76003C6.40448 2.96927 5.84212 3.17361 5.27783 3.37203ZM9.70983 5.44453C9.70983 5.44453 10.1073 4.73103 10.3058 3.77953C10.3058 3.77953 12.2903 4.59453 11.5293 6.63353L9.70983 5.44453Z" fill="white"/>
<path d="M11.5299 6.63349L11.6949 8.77349L12.4559 8.67199C12.4559 8.67199 12.6544 8.60399 12.6209 8.23049C12.5879 7.82249 12.5219 6.97299 12.5219 6.97299C12.5219 6.97299 12.5549 6.76949 12.0919 6.70149C11.5294 6.59949 11.5299 6.63349 11.5299 6.63349ZM11.6949 8.77349L10.1734 10.031L10.8684 11.424C10.8684 11.424 11.0334 11.9675 11.5299 11.356C11.9929 10.7445 12.1914 10.6425 12.1579 10.269C12.1249 9.89499 12.0259 9.01099 11.6949 8.77349ZM10.1399 10.031L8.05643 9.07949L6.23693 12.851C6.23693 12.851 6.10493 13.1225 6.56793 13.1565C7.03093 13.2245 7.79193 13.3945 8.18893 12.9865C8.58593 12.613 10.1399 10.031 10.1399 10.031ZM8.05643 9.04549L7.85793 6.53149L3.35943 6.83749C3.35943 6.83749 3.09443 6.87149 3.12793 7.38099C3.16093 8.06049 3.22693 8.80799 3.22693 8.80799C3.22693 8.80799 3.19393 9.11349 3.78943 9.14799C4.38443 9.18149 7.99043 9.18149 8.05643 9.04549Z" fill="white"/>
</g>
<defs>
<clipPath id="clip0_7_7779">
<rect width="16" height="16" fill="white"/>
</clipPath>
</defs>
</svg>
