<svg width="16" height="16" viewBox="0 0 16 16" fill="none" xmlns="http://www.w3.org/2000/svg">
<g clip-path="url(#clip0_7_7866)">
<path d="M8 16C12.4183 16 16 12.4183 16 8C16 3.58172 12.4183 0 8 0C3.58172 0 0 3.58172 0 8C0 12.4183 3.58172 16 8 16Z" fill="#252525"/>
<path d="M12.814 10.6045C12.864 10.6056 12.9116 10.6263 12.9465 10.6623C12.9813 10.6982 13.0005 10.7464 13 10.7965V11.75H9.8605L9.8485 10.92C9.84868 10.8929 9.85471 10.8662 9.86619 10.8417C9.87767 10.8172 9.89432 10.7955 9.915 10.778C9.9274 10.762 9.94148 10.7475 9.957 10.7345C11.3405 9.7695 11.872 7.932 11.228 6.3425C10.5835 4.753 8.942 3.8535 7.3045 4.1925C5.6675 4.531 4.489 6.0145 4.4885 7.7375C4.4875 8.915 5.0485 10.0175 5.989 10.685C6.00948 10.6965 6.02616 10.7137 6.037 10.7345C6.07116 10.7505 6.10007 10.7758 6.12035 10.8076C6.14063 10.8394 6.15143 10.8763 6.1515 10.914L6.1395 11.744H3V10.79C3 10.684 3.0835 10.598 3.186 10.598C3.2885 10.598 3.372 10.684 3.372 10.79V11.366H5.773L5.779 11.007H5.773C4.3925 10.006 3.8 8.198 4.308 6.538C4.8175 4.878 6.31 3.75 7.9975 3.75C9.685 3.75 11.1775 4.878 11.686 6.538C12.1945 8.198 11.602 10.006 10.221 11.007L10.2275 11.372H12.6285V10.7965C12.628 10.7464 12.6472 10.6982 12.682 10.6623C12.7169 10.6263 12.764 10.6056 12.814 10.6045ZM10.335 8.0165C10.749 8.543 10.875 9.0135 10.695 9.323C10.557 9.5645 10.263 9.6945 9.8365 9.6945C9.56868 9.68797 9.30268 9.64851 9.0445 9.577C8.8105 10.3945 8.432 10.921 8 10.921C7.568 10.921 7.19 10.3945 6.9615 9.577C6.70332 9.64851 6.43732 9.68797 6.1695 9.6945C5.743 9.6945 5.449 9.5645 5.311 9.323C5.089 8.939 5.341 8.3385 5.917 7.7255C5.8299 7.63503 5.74778 7.53989 5.671 7.4405C5.257 6.914 5.131 6.4495 5.311 6.1275C5.449 5.886 5.743 5.756 6.1695 5.756C6.43734 5.76269 6.70334 5.80232 6.9615 5.874C7.1955 5.0565 7.574 4.53 8.006 4.53C8.438 4.53 8.816 5.0565 9.0445 5.88C9.30268 5.80849 9.56868 5.76903 9.8365 5.7625C10.263 5.7625 10.557 5.8925 10.695 6.134C10.875 6.456 10.749 6.9205 10.335 7.447C10.2582 7.54633 10.176 7.64146 10.089 7.732C10.176 7.822 10.258 7.917 10.335 8.0165ZM9.8425 5.9915C9.59339 5.99934 9.34591 6.03455 9.1045 6.0965C9.169 6.3905 9.2145 6.6885 9.2425 6.9885C9.4795 7.1635 9.706 7.354 9.921 7.5585C10.005 7.4715 10.083 7.3785 10.155 7.292C10.497 6.852 10.623 6.4745 10.497 6.2455C10.383 6.035 10.077 5.9915 9.8425 5.9915ZM8.5225 8.6605C8.6965 8.5555 8.8645 8.444 9.0205 8.3325C9.0385 8.134 9.0445 7.936 9.0445 7.7255C9.0445 7.515 9.0325 7.3105 9.0205 7.1185C8.85846 7.00491 8.69217 6.8975 8.522 6.7965C8.3506 6.69887 8.17654 6.606 8 6.518C7.821 6.601 7.647 6.694 7.478 6.7965C7.298 6.9015 7.1355 7.007 6.9795 7.1185C6.9615 7.3105 6.9555 7.515 6.9555 7.7255C6.9555 7.9355 6.9675 8.1405 6.9795 8.3325C7.30384 8.56019 7.64498 8.76294 8 8.939C8.179 8.856 8.3535 8.763 8.5225 8.6605ZM8.9965 8.642C8.8765 8.716 8.7625 8.7905 8.6425 8.865C8.5225 8.939 8.4025 9.0075 8.2825 9.069C8.4795 9.158 8.682 9.2345 8.8885 9.2985C8.9305 9.094 8.9665 8.877 8.9965 8.642ZM7.73 9.069L7.37 8.865C7.25 8.7905 7.13 8.716 7.0155 8.642C7.037 8.863 7.073 9.082 7.1235 9.2985C7.3295 9.2335 7.532 9.157 7.73 9.069ZM6.7455 8.1525C6.73833 8.01027 6.73433 7.8679 6.7335 7.7255C6.7335 7.577 6.7395 7.4405 6.7455 7.298C6.571 7.43 6.4045 7.5725 6.2475 7.7255C6.4055 7.877 6.572 8.02 6.7455 8.1525ZM7.0155 6.8215C7.1283 6.74228 7.2444 6.66788 7.3635 6.5985C7.49 6.524 7.61 6.456 7.73 6.394C7.5325 6.305 7.33 6.229 7.1235 6.165C7.0815 6.369 7.0455 6.586 7.0155 6.8215ZM8.276 6.394C8.396 6.456 8.516 6.524 8.636 6.5985C8.756 6.6725 8.876 6.747 8.9905 6.8215C8.96923 6.6005 8.93315 6.38117 8.8825 6.165C8.6765 6.23 8.474 6.306 8.276 6.394ZM9.2665 7.304C9.2725 7.447 9.2785 7.583 9.2785 7.7315C9.2785 7.88 9.2725 8.0225 9.2665 8.159C9.4405 8.0165 9.6085 7.874 9.7585 7.7315C9.60419 7.57837 9.43982 7.43572 9.2665 7.3045V7.304ZM8.006 4.7655C7.7 4.7655 7.388 5.199 7.1835 5.9355C7.4645 6.024 7.739 6.1315 8.006 6.257C8.27266 6.13169 8.54745 6.02444 8.8285 5.936C8.624 5.199 8.306 4.7655 8.006 4.7655ZM5.515 6.2455C5.383 6.4745 5.509 6.8585 5.857 7.2855C5.929 7.378 6.007 7.4645 6.091 7.5575C6.305 7.3525 6.531 7.1625 6.7695 6.9885C6.797 6.6885 6.843 6.3905 6.9075 6.097C6.6665 6.032 6.4185 5.997 6.1695 5.9915C5.935 5.9915 5.635 6.035 5.515 6.2455ZM6.1695 9.4655C6.419 9.4605 6.667 9.423 6.9075 9.3535C6.84315 9.05963 6.79706 8.76206 6.7695 8.4625C6.528 8.2905 6.2995 8.1 6.085 7.8925C5.569 8.444 5.365 8.939 5.515 9.2115C5.629 9.422 5.935 9.4655 6.1695 9.4655ZM8.006 10.6915C8.306 10.6915 8.624 10.258 8.8285 9.5215C8.54742 9.43273 8.27264 9.32515 8.006 9.1995C7.73926 9.32492 7.46449 9.43249 7.1835 9.5215C7.388 10.258 7.706 10.6915 8.006 10.6915ZM10.497 9.2115C10.623 8.9885 10.497 8.605 10.155 8.165C10.0804 8.07339 10.0024 7.98466 9.921 7.899C9.707 8.104 9.481 8.294 9.2425 8.469C9.21503 8.76874 9.16894 9.06648 9.1045 9.3605C9.3455 9.425 9.5935 9.4605 9.8425 9.4655C10.077 9.4655 10.377 9.422 10.497 9.2115ZM8.006 6.8215C8.491 6.8215 8.885 7.225 8.8885 7.7255C8.8885 8.224 8.497 8.6285 8.014 8.6295C7.531 8.6305 7.138 8.228 7.1355 7.7295C7.1335 7.231 7.523 6.8245 8.006 6.8215ZM8.006 8.4005C8.363 8.3975 8.6515 8.1 8.6545 7.7315C8.6545 7.362 8.3645 7.063 8.006 7.063C7.6475 7.063 7.3575 7.362 7.3575 7.7315C7.3575 8.101 7.648 8.4005 8.006 8.4005Z" fill="white"/>
</g>
<defs>
<clipPath id="clip0_7_7866">
<rect width="16" height="16" fill="white"/>
</clipPath>
</defs>
</svg>
