<svg width="16" height="16" viewBox="0 0 16 16" fill="none" xmlns="http://www.w3.org/2000/svg">
<g clip-path="url(#clip0_7_7734)">
<path d="M8 16C12.4183 16 16 12.4183 16 8C16 3.58172 12.4183 0 8 0C3.58172 0 0 3.58172 0 8C0 12.4183 3.58172 16 8 16Z" fill="#454545"/>
<path fill-rule="evenodd" clip-rule="evenodd" d="M5.75 8C5.75 6.7595 6.7595 5.75 8 5.75C9.2405 5.75 10.25 6.7595 10.25 8C10.25 8.3265 10.1785 8.636 10.053 8.9165L8.568 7.4315L7.432 8.568L8.917 10.053C8.62872 10.1828 8.31616 10.25 8 10.25C7.40347 10.2493 6.83155 10.0121 6.40974 9.59026C5.98793 9.16845 5.75066 8.59653 5.75 8ZM11.6565 8C11.6571 7.29378 11.4521 6.60264 11.0665 6.011L12.5 4.577L11.423 3.5L9.989 4.934C9.416 4.5615 8.734 4.3435 8 4.3435C7.266 4.3435 6.584 4.5615 6.011 4.9335L4.577 3.5L3.5 4.577L4.934 6.011C4.5615 6.584 4.3435 7.266 4.3435 8C4.3435 8.734 4.562 9.416 4.934 9.989L3.5 11.423L4.577 12.5L6.011 11.066C6.584 11.4385 7.266 11.6565 8 11.6565C8.734 11.6565 9.416 11.4385 9.989 11.066L11.423 12.5L12.5 11.423L11.066 9.989C11.4518 9.39742 11.657 8.70628 11.6565 8Z" fill="white"/>
</g>
<defs>
<clipPath id="clip0_7_7734">
<rect width="16" height="16" fill="white"/>
</clipPath>
</defs>
</svg>
