<svg width="16" height="16" viewBox="0 0 16 16" fill="none" xmlns="http://www.w3.org/2000/svg">
<g clip-path="url(#clip0_7_7733)">
<path d="M8 16C12.4183 16 16 12.4183 16 8C16 3.58172 12.4183 0 8 0C3.58172 0 0 3.58172 0 8C0 12.4183 3.58172 16 8 16Z" fill="#2E9AD0"/>
<path d="M12.6565 11.818L11.67 10.94L9.67401 12.4375C9.69782 12.4898 9.7101 12.5466 9.71001 12.604C9.71081 12.7081 9.6703 12.8082 9.59738 12.8824C9.52446 12.9567 9.42507 12.9989 9.32101 13C9.22962 12.9995 9.1413 12.967 9.07135 12.9082C9.0014 12.8494 8.95423 12.7679 8.93801 12.678H6.78301C6.7668 12.7679 6.7197 12.8492 6.64986 12.908C6.58001 12.9668 6.49181 12.9994 6.40051 13C6.29636 12.9991 6.19685 12.9569 6.12381 12.8826C6.05078 12.8083 6.01021 12.7081 6.01101 12.604C6.0109 12.5469 6.023 12.4905 6.04651 12.4385L4.27351 11.1185C4.20285 11.1826 4.11088 11.218 4.01551 11.218C3.91136 11.2171 3.81185 11.1749 3.73881 11.1006C3.66578 11.0263 3.62521 10.9261 3.62601 10.822C3.62601 10.672 3.70801 10.5415 3.82901 10.474L3.17751 8.394C3.12299 8.39881 3.06807 8.39217 3.01626 8.37452C2.96445 8.35687 2.91691 8.32859 2.87666 8.2915C2.83642 8.25441 2.80436 8.20932 2.78255 8.15913C2.76074 8.10893 2.74966 8.05473 2.75001 8C2.74968 7.94423 2.76122 7.88902 2.78388 7.83806C2.80653 7.78709 2.83977 7.74153 2.88139 7.70441C2.92301 7.66728 2.97205 7.63944 3.02527 7.62273C3.07848 7.60602 3.13464 7.60083 3.19001 7.6075L3.83051 5.527C3.76827 5.4925 3.71645 5.4419 3.68048 5.3805C3.6445 5.3191 3.62569 5.24916 3.62601 5.178C3.62601 4.9595 3.80051 4.782 4.01551 4.782C4.11651 4.782 4.20851 4.821 4.27751 4.885L6.06401 3.595C6.02925 3.53444 6.01098 3.46583 6.01101 3.396C6.01101 3.1775 6.18551 3 6.40051 3C6.59051 3 6.74901 3.1385 6.78301 3.322H8.93801C8.95423 3.23206 9.0014 3.15064 9.07135 3.09183C9.1413 3.03302 9.22962 3.00053 9.32101 3C9.53601 3 9.71001 3.1775 9.71001 3.396C9.71016 3.46229 9.69384 3.52758 9.66251 3.586L11.4375 4.891C11.5094 4.82109 11.6057 4.78198 11.706 4.782C11.921 4.782 12.095 4.9595 12.095 5.178C12.0953 5.24374 12.0793 5.30852 12.0484 5.36655C12.0175 5.42457 11.9727 5.47404 11.918 5.5105L12.556 7.605C12.6098 7.60132 12.6637 7.60885 12.7144 7.62713C12.7651 7.64541 12.8114 7.67403 12.8504 7.71118C12.8895 7.74833 12.9203 7.79319 12.9411 7.84291C12.9618 7.89263 12.972 7.94613 12.971 8C12.9714 8.05263 12.9613 8.1048 12.9411 8.15343C12.921 8.20206 12.8913 8.24614 12.8538 8.28308C12.8163 8.32001 12.7718 8.34904 12.7229 8.36844C12.6739 8.38783 12.6216 8.39721 12.569 8.396L11.8205 10.811L12.779 11.664C12.885 11.5679 13.023 11.5148 13.166 11.515C13.4885 11.515 13.75 11.781 13.75 12.109C13.75 12.437 13.4885 12.703 13.166 12.703C13.0887 12.7023 13.0122 12.6865 12.941 12.6563C12.8698 12.6261 12.8052 12.5821 12.751 12.527C12.6968 12.4718 12.6539 12.4065 12.6249 12.3348C12.5959 12.2631 12.5813 12.1863 12.582 12.109C12.582 12.003 12.6085 11.904 12.6565 11.818ZM9.35401 12.2095L10.0975 10.535C10.0364 10.4846 9.99187 10.417 9.96951 10.341L8.24451 10.592C8.23226 10.6653 8.19969 10.7338 8.15051 10.7895L9.17401 12.237C9.23092 12.2135 9.29267 12.204 9.35401 12.2095ZM9.55051 12.2845L11.485 10.833L10.651 10.47C10.608 10.527 10.55 10.5709 10.4836 10.5969C10.4171 10.6229 10.3448 10.6301 10.2745 10.6175L9.53801 12.2755C9.54223 12.2783 9.5464 12.2816 9.55051 12.2845ZM9.01801 12.355L7.98801 10.899C7.9055 10.9281 7.81551 10.9281 7.73301 10.899L6.70301 12.355C6.73283 12.3923 6.7557 12.4346 6.77051 12.48H8.95051C8.96532 12.4346 8.98818 12.3923 9.01801 12.355ZM12.382 8.34C12.3239 8.30437 12.2759 8.25437 12.2427 8.19482C12.2095 8.13527 12.1922 8.06817 12.1925 8C12.1925 7.86 12.2635 7.7375 12.371 7.667L11.768 5.687L11.633 7.624C11.788 7.676 11.9005 7.8245 11.9005 8C11.9009 8.08225 11.8756 8.16257 11.8282 8.22978C11.7808 8.297 11.7136 8.34776 11.636 8.375L11.769 10.318L12.382 8.34ZM11.255 7.7015L10.463 6.149C10.3985 6.17034 10.3295 6.17414 10.263 6.16L9.56701 7.6935C9.61189 7.73095 9.64797 7.77783 9.67269 7.8308C9.6974 7.88378 9.71014 7.94155 9.71001 8C9.71012 8.0594 9.69692 8.11808 9.6714 8.17172C9.64588 8.22536 9.60867 8.27261 9.56251 8.31L10.28 9.837C10.3315 9.82848 10.3843 9.83052 10.435 9.843L11.2445 8.288C11.2056 8.25081 11.1746 8.20611 11.1535 8.15661C11.1323 8.1071 11.1215 8.05383 11.1215 8C11.1215 7.881 11.1735 7.774 11.255 7.7015ZM11.442 8.39C11.4329 8.38833 11.4239 8.38633 11.415 8.384L10.6065 9.936C10.6539 9.98032 10.6898 10.0356 10.711 10.0969C10.7321 10.1583 10.738 10.2239 10.728 10.288L11.598 10.667L11.442 8.39ZM11.439 7.611L11.582 5.554C11.5067 5.52809 11.4411 5.47976 11.394 5.4155L10.725 5.695C10.7367 5.75652 10.734 5.81992 10.7171 5.88021C10.7002 5.94051 10.6695 5.99606 10.6275 6.0425L11.4295 7.6125C11.4327 7.61196 11.4358 7.61146 11.439 7.611ZM9.38501 8.391C9.32919 8.40033 9.272 8.39726 9.21751 8.382L8.15601 10.267C8.18777 10.3045 8.21235 10.3476 8.22851 10.394L9.96251 10.142C9.98251 10.0515 10.0325 9.972 10.1015 9.917L9.38501 8.39V8.391ZM9.39001 7.6105L10.0885 6.072C10.0175 6.00963 9.97108 5.92401 9.95751 5.8305L8.22001 5.578C8.20089 5.62466 8.17306 5.66725 8.13801 5.7035L9.20751 7.621C9.26676 7.60276 9.32906 7.59916 9.39001 7.6105ZM9.04901 8.2835C9.01163 8.24637 8.982 8.2022 8.96183 8.15353C8.94166 8.10486 8.93136 8.05268 8.93151 8C8.93151 7.893 8.97351 7.7955 9.04151 7.7245L7.97151 5.8055C7.91186 5.82357 7.8487 5.82683 7.78751 5.815L6.68401 7.7285C6.75236 7.80237 6.79023 7.89936 6.79001 8C6.79032 8.10445 6.74955 8.20484 6.67651 8.2795L7.76051 10.142C7.83812 10.1212 7.92031 10.1252 7.99551 10.1535L9.04901 8.2835ZM3.36051 8.326L3.98151 10.309L4.12801 8.387C4.04047 8.367 3.96236 8.31776 3.90655 8.24741C3.85074 8.17706 3.82057 8.0898 3.82101 8C3.82055 7.90905 3.85149 7.82073 3.9086 7.74995C3.96572 7.67917 4.04551 7.63026 4.13451 7.6115L3.98301 5.6945L3.37151 7.682C3.4206 7.71918 3.46038 7.76726 3.48771 7.82245C3.51505 7.87763 3.52918 7.93842 3.52901 8C3.52901 8.135 3.46201 8.255 3.36051 8.326ZM5.30451 9.839C5.36221 9.82769 5.42173 9.82974 5.47851 9.845L6.16351 8.3145C6.11583 8.27714 6.07731 8.22939 6.05089 8.17489C6.02446 8.12039 6.01082 8.06057 6.01101 8C6.01101 7.876 6.06701 7.7655 6.15451 7.693L5.45851 6.16C5.41045 6.17014 5.36089 6.17099 5.31251 6.1625L4.47301 7.708C4.51314 7.74531 4.54513 7.7905 4.56698 7.84075C4.58884 7.89099 4.60008 7.94521 4.60001 8C4.60017 8.05328 4.58963 8.10604 4.56901 8.15517C4.5484 8.2043 4.51813 8.24879 4.48001 8.286L5.30451 9.839ZM5.46651 10.614C5.39525 10.6307 5.3207 10.6268 5.25161 10.6026C5.18253 10.5784 5.12178 10.535 5.07651 10.4775L4.40151 10.7715C4.40917 10.833 4.40267 10.8954 4.38251 10.954L6.17001 12.285C6.17524 12.281 6.18058 12.2772 6.18601 12.2735L5.46601 10.6135L5.46651 10.614ZM4.99501 10.2975C4.98257 10.2289 4.98835 10.1583 5.01178 10.0927C5.03521 10.027 5.07546 9.96869 5.12851 9.9235L4.32201 8.406L4.16551 10.456C4.23113 10.4841 4.28783 10.5296 4.32951 10.5875L4.99501 10.2975ZM5.76001 10.148L7.49251 10.395C7.51264 10.336 7.54638 10.2825 7.59101 10.239L6.50901 8.3805C6.45518 8.39644 6.39852 8.40036 6.34301 8.392L5.64801 9.9425C5.70524 9.99811 5.74429 10.0698 5.76001 10.148ZM5.75001 10.3465C5.72915 10.4136 5.69085 10.474 5.63901 10.5215L6.37051 12.209C6.43072 12.2045 6.49115 12.2141 6.54701 12.237L7.57101 10.7895C7.52199 10.734 7.48943 10.666 7.47701 10.593L5.75001 10.3465ZM4.99851 5.6855L4.33301 5.4075C4.29127 5.46746 4.2336 5.51457 4.16651 5.5435L4.32651 7.569L5.13451 6.081C5.07746 6.03423 5.03453 5.97253 5.01052 5.90278C4.9865 5.83303 4.98234 5.75748 4.99851 5.6855ZM5.47351 5.388L6.16101 3.768L4.38451 5.051C4.40286 5.10619 4.409 5.1647 4.40251 5.2225L5.08751 5.509C5.13432 5.45505 5.1952 5.41517 5.26336 5.3938C5.33152 5.37244 5.40427 5.37043 5.47351 5.388ZM5.76451 5.8245C5.75218 5.92023 5.70544 6.0082 5.63301 6.072L6.33101 7.6105C6.39407 7.59886 6.45903 7.60316 6.52001 7.623L7.61101 5.73C7.56259 5.68857 7.52486 5.63609 7.50101 5.577L5.76451 5.8245ZM5.64451 5.4835C5.68651 5.5235 5.71951 5.573 5.74101 5.628L7.47351 5.381C7.48146 5.3086 7.50913 5.23976 7.55351 5.182L6.55851 3.758C6.49748 3.78573 6.43023 3.79694 6.36351 3.7905L5.64501 5.4835H5.64451ZM10.306 5.378C10.3687 5.37219 10.432 5.38177 10.4902 5.40591C10.5484 5.43004 10.5998 5.468 10.64 5.5165L11.32 5.2325C11.3123 5.1743 11.3172 5.11511 11.3345 5.059L9.57001 3.762L10.306 5.378ZM9.97801 5.633C10.0061 5.55718 10.0567 5.49175 10.123 5.4455L9.36801 3.789C9.29813 3.7975 9.22725 3.78679 9.16301 3.758L8.16801 5.182C8.21224 5.24022 8.23988 5.30933 8.24801 5.382L9.97801 5.6335V5.633ZM9.01001 3.635C8.9842 3.60014 8.96427 3.5613 8.95101 3.52H6.77001C6.75659 3.56133 6.73649 3.60018 6.71051 3.635L7.70751 5.0615C7.75563 5.04058 7.80754 5.02978 7.86001 5.02978C7.91248 5.02978 7.96439 5.04058 8.01251 5.0615L9.01001 3.635Z" fill="white"/>
</g>
<defs>
<clipPath id="clip0_7_7733">
<rect width="16" height="16" fill="white"/>
</clipPath>
</defs>
</svg>
