<svg width="16" height="16" viewBox="0 0 16 16" fill="none" xmlns="http://www.w3.org/2000/svg">
<g clip-path="url(#clip0_7_7729)">
<path d="M8 16C12.4183 16 16 12.4183 16 8C16 3.58172 12.4183 0 8 0C3.58172 0 0 3.58172 0 8C0 12.4183 3.58172 16 8 16Z" fill="#9D4BEF"/>
<path d="M5.73458 3.83044C6.23955 3.83044 6.72384 4.03104 7.08091 4.38811C7.43798 4.74518 7.63858 5.22947 7.63858 5.73444C7.63858 6.23942 7.43798 6.72371 7.08091 7.08078C6.72384 7.43785 6.23955 7.63844 5.73458 7.63844C5.22961 7.63844 4.74532 7.43785 4.38825 7.08078C4.03118 6.72371 3.83058 6.23942 3.83058 5.73444C3.83058 5.22947 4.03118 4.74518 4.38825 4.38811C4.74532 4.03104 5.22961 3.83044 5.73458 3.83044ZM7.63808 10.2654C7.63808 10.642 7.52641 11.0101 7.3172 11.3233C7.10798 11.6364 6.81062 11.8804 6.46271 12.0245C6.1148 12.1686 5.73197 12.2063 5.36263 12.1329C4.99329 12.0594 4.65403 11.8781 4.38775 11.6118C4.12147 11.3455 3.94013 11.0062 3.86666 10.6369C3.7932 10.2676 3.8309 9.88473 3.97501 9.53682C4.11912 9.18891 4.36316 8.89154 4.67627 8.68233C4.98938 8.47311 5.3575 8.36144 5.73408 8.36144C6.43067 8.36144 7.09873 8.08472 7.59129 7.59216C8.08386 7.0996 8.36058 6.43154 8.36058 5.73494C8.36058 5.35837 8.47225 4.99025 8.68146 4.67714C8.89068 4.36403 9.18804 4.11999 9.53595 3.97588C9.88386 3.83177 10.2667 3.79406 10.636 3.86753C11.0054 3.941 11.3446 4.12233 11.6109 4.38861C11.8772 4.65489 12.0585 4.99415 12.132 5.36349C12.2055 5.73283 12.1678 6.11566 12.0236 6.46357C11.8795 6.81148 11.6355 7.10885 11.3224 7.31806C11.0093 7.52728 10.6412 7.63894 10.2646 7.63894C9.56807 7.63908 8.90014 7.91586 8.40769 8.40841C7.91523 8.90096 7.63808 9.56894 7.63808 10.2654ZM10.2646 12.1694C9.75961 12.1694 9.27532 11.9688 8.91825 11.6118C8.56118 11.2547 8.36058 10.7704 8.36058 10.2654C8.36058 9.76047 8.56118 9.27618 8.91825 8.91911C9.27532 8.56204 9.75961 8.36144 10.2646 8.36144C10.7696 8.36144 11.2538 8.56204 11.6109 8.91911C11.968 9.27618 12.1686 9.76047 12.1686 10.2654C12.1686 10.7704 11.968 11.2547 11.6109 11.6118C11.2538 11.9688 10.7696 12.1694 10.2646 12.1694ZM10.2646 10.8394C10.4168 10.8394 10.5628 10.779 10.6705 10.6713C10.7781 10.5637 10.8386 10.4177 10.8386 10.2654C10.8386 10.1132 10.7781 9.96721 10.6705 9.85957C10.5628 9.75192 10.4168 9.69144 10.2646 9.69144C10.1123 9.69144 9.96635 9.75192 9.8587 9.85957C9.75105 9.96721 9.69058 10.1132 9.69058 10.2654C9.69058 10.4177 9.75105 10.5637 9.8587 10.6713C9.96635 10.779 10.1123 10.8394 10.2646 10.8394ZM5.73458 10.8394C5.88681 10.8394 6.03281 10.779 6.14046 10.6713C6.2481 10.5637 6.30858 10.4177 6.30858 10.2654C6.30858 10.1132 6.2481 9.96721 6.14046 9.85957C6.03281 9.75192 5.88681 9.69144 5.73458 9.69144C5.58234 9.69144 5.43635 9.75192 5.3287 9.85957C5.22105 9.96721 5.16058 10.1132 5.16058 10.2654C5.16058 10.4177 5.22105 10.5637 5.3287 10.6713C5.43635 10.779 5.58234 10.8394 5.73458 10.8394ZM10.2646 6.30844C10.4168 6.30844 10.5628 6.24797 10.6705 6.14032C10.7781 6.03268 10.8386 5.88668 10.8386 5.73444C10.8386 5.58221 10.7781 5.43621 10.6705 5.32857C10.5628 5.22092 10.4168 5.16044 10.2646 5.16044C10.1123 5.16044 9.96635 5.22092 9.8587 5.32857C9.75105 5.43621 9.69058 5.58221 9.69058 5.73444C9.69058 5.88668 9.75105 6.03268 9.8587 6.14032C9.96635 6.24797 10.1123 6.30844 10.2646 6.30844ZM5.73458 6.30844C5.88681 6.30844 6.03281 6.24797 6.14046 6.14032C6.2481 6.03268 6.30858 5.88668 6.30858 5.73444C6.30858 5.58221 6.2481 5.43621 6.14046 5.32857C6.03281 5.22092 5.88681 5.16044 5.73458 5.16044C5.58234 5.16044 5.43635 5.22092 5.3287 5.32857C5.22105 5.43621 5.16058 5.58221 5.16058 5.73444C5.16058 5.88668 5.22105 6.03268 5.3287 6.14032C5.43635 6.24797 5.58234 6.30844 5.73458 6.30844Z" fill="white"/>
</g>
<defs>
<clipPath id="clip0_7_7729">
<rect width="16" height="16" fill="white"/>
</clipPath>
</defs>
</svg>
