<svg width="16" height="16" viewBox="0 0 16 16" fill="none" xmlns="http://www.w3.org/2000/svg">
<g clip-path="url(#clip0_7_7726)">
<path d="M8 16C12.4183 16 16 12.4183 16 8C16 3.58172 12.4183 0 8 0C3.58172 0 0 3.58172 0 8C0 12.4183 3.58172 16 8 16Z" fill="black"/>
<path d="M6.239 3.2175V12.9565H4.5V3H6.239V3.2175ZM7.4785 3H8.4565C10.4785 3 11.8265 4.2825 11.8265 6.1085C11.8265 7.587 11.0215 8.7175 9.565 9.087L12.1085 12.9565H10.065L6.587 7.565H8.261C9.3695 7.565 10.065 7.065 10.065 6.087C10.065 5.1085 9.37 4.6085 8.261 4.6085H7.5V3H7.4785Z" fill="white"/>
</g>
<defs>
<clipPath id="clip0_7_7726">
<rect width="16" height="16" fill="white"/>
</clipPath>
</defs>
</svg>
