<svg width="16" height="16" viewBox="0 0 16 16" fill="none" xmlns="http://www.w3.org/2000/svg">
<g clip-path="url(#clip0_7_7743)">
<path d="M8 16C12.4183 16 16 12.4183 16 8C16 3.58172 12.4183 0 8 0C3.58172 0 0 3.58172 0 8C0 12.4183 3.58172 16 8 16Z" fill="#6C45DC"/>
<path d="M12.2525 6.628V10.4645L7.9985 12.928L3.7425 10.4645V5.5375L8 3.07L11.2695 4.965L11.7635 4.68L8 2.5L3.25 5.25V10.75L8 13.5L12.75 10.75V6.343L12.2525 6.628Z" fill="white"/>
<path d="M6.80866 10.468H6.09766V8.07304H8.47016C8.58157 8.07211 8.69169 8.04919 8.79423 8.0056C8.89676 7.96201 8.98968 7.89862 9.06766 7.81904C9.22616 7.65904 9.31366 7.44254 9.31566 7.21754C9.31632 7.10618 9.29452 6.99583 9.25156 6.89308C9.20861 6.79033 9.14538 6.6973 9.06566 6.61954C8.98805 6.54057 8.89562 6.4777 8.79366 6.43454C8.69144 6.39097 8.58126 6.36918 8.47016 6.37054H6.09766V5.64204H8.47166C8.88666 5.64404 9.28666 5.81204 9.57866 6.10604C9.87366 6.40104 10.0387 6.80004 10.0422 7.21754C10.0441 7.53626 9.94718 7.84775 9.76466 8.10904C9.59616 8.35804 9.35866 8.55404 9.08116 8.67104C8.80682 8.75813 8.52048 8.8015 8.23266 8.79954H6.80866V10.468ZM10.0252 10.4075H9.19516L8.55466 9.28754C8.80799 9.27194 9.05782 9.22043 9.29666 9.13454L10.0252 10.4075ZM11.7567 5.83104L12.2477 6.10404L12.7377 5.83104V5.25204L12.2477 4.96704L11.7567 5.25204V5.83104Z" fill="white"/>
</g>
<defs>
<clipPath id="clip0_7_7743">
<rect width="16" height="16" fill="white"/>
</clipPath>
</defs>
</svg>
