<svg width="16" height="16" viewBox="0 0 16 16" fill="none" xmlns="http://www.w3.org/2000/svg">
<g clip-path="url(#clip0_7_7724)">
<path d="M8 16C12.4183 16 16 12.4183 16 8C16 3.58172 12.4183 0 8 0C3.58172 0 0 3.58172 0 8C0 12.4183 3.58172 16 8 16Z" fill="#3555F9"/>
<path d="M7.18003 3.31347C7.60503 3.23447 8.04003 3.24347 8.47003 3.26497C8.96603 3.32297 9.46303 3.42697 9.91903 3.63197C10.8298 4.01254 11.6017 4.66353 12.1305 5.49697C12.327 5.78347 12.459 6.10447 12.5915 6.42297C12.7145 6.22697 12.8245 6.02297 12.9315 5.81797C12.9775 5.72147 13.074 5.64697 13.1865 5.65197C13.2614 5.64613 13.3356 5.66938 13.3937 5.71688C13.4518 5.76439 13.4894 5.83248 13.4985 5.90697C13.511 6.02697 13.4355 6.13047 13.386 6.23447C13.23 6.54947 13.0285 6.84047 12.82 7.12447C12.7815 7.16547 12.7975 7.22247 12.802 7.27247C13.034 8.64097 12.5925 10.0975 11.652 11.1285C11.1098 11.7311 10.4266 12.1898 9.66353 12.4635C8.78453 12.771 7.81653 12.8405 6.90753 12.6255C5.58953 12.34 4.42353 11.471 3.76053 10.318C3.61553 10.0845 3.52303 9.82497 3.40853 9.57697C3.28353 9.76947 3.17753 9.97197 3.07103 10.174C3.04601 10.224 3.00836 10.2667 2.96179 10.2977C2.91523 10.3288 2.86136 10.3471 2.80553 10.351C2.61503 10.351 2.44203 10.146 2.51853 9.96347C2.68253 9.58647 2.90703 9.23747 3.15853 8.91147C3.21253 8.85497 3.20503 8.77497 3.19503 8.70447C3.10165 8.10279 3.12884 7.48855 3.27503 6.89747C3.66003 5.23547 5.04003 3.84747 6.71253 3.41497C6.86753 3.37847 7.02253 3.33997 7.18003 3.31347ZM5.99903 4.31847C5.11253 4.78447 4.39903 5.56397 4.02903 6.48447C3.81503 7.04047 3.70603 7.63847 3.73903 8.23347C3.83292 8.163 3.92242 8.08686 4.00703 8.00547C4.50453 7.56147 5.08703 7.21747 5.69603 6.94347C6.82753 6.42897 8.07353 6.20747 9.31153 6.14747C8.89303 5.71347 8.43903 5.31297 8.02053 4.87897C8.15253 4.73397 8.29553 4.59997 8.43853 4.46597C8.60103 4.61297 8.75103 4.77247 8.91003 4.92297C9.42503 5.43547 9.95553 5.93297 10.462 6.45247C9.92203 6.99097 9.36803 7.51597 8.82803 8.05447C8.78252 8.09728 8.73479 8.13767 8.68503 8.17547C8.54903 8.03847 8.39103 7.91847 8.28203 7.75797C8.61403 7.40997 8.99203 7.10497 9.31053 6.74447C8.73953 6.75247 8.17153 6.83347 7.61253 6.94447C7.16103 7.02497 6.72703 7.17747 6.29353 7.32297C5.38553 7.66297 4.54803 8.20497 3.90953 8.92997C3.87153 8.96747 3.87703 9.02297 3.88703 9.06997C3.96253 9.39397 4.10503 9.69697 4.26103 9.98997C4.77603 10.9185 5.66603 11.636 6.68853 11.96C7.28653 12.144 7.92453 12.215 8.54653 12.1285C9.416 12.0192 10.2313 11.6468 10.883 11.061C11.8155 10.239 12.3385 8.98647 12.258 7.75697C12.1595 7.83347 12.0715 7.92047 11.9795 8.00347C11.3541 8.54155 10.6347 8.95955 9.85753 9.23647C8.84753 9.61147 7.77153 9.80547 6.69403 9.83597C6.78803 9.95897 6.90403 10.062 7.01353 10.1715C7.33603 10.4855 7.65403 10.8035 7.98153 11.1125C7.85553 11.261 7.70853 11.3905 7.56953 11.5265C7.43003 11.413 7.30953 11.281 7.17953 11.1565C6.69253 10.6845 6.21053 10.2065 5.72453 9.73247C5.65724 9.67124 5.59534 9.60433 5.53953 9.53247C5.75003 9.30647 5.99203 9.11147 6.20753 8.89047C6.57753 8.53297 6.93753 8.16497 7.31203 7.81197C7.45203 7.94797 7.59903 8.07797 7.72353 8.22847C7.39053 8.57347 7.03603 8.89797 6.69853 9.23847C7.06853 9.25697 7.43353 9.19347 7.80053 9.15847C8.06553 9.13047 8.32603 9.07047 8.58753 9.01597C9.93003 8.70597 11.2375 8.06847 12.1385 7.01797C11.7935 5.52597 10.525 4.29797 9.01553 3.95097C8.01003 3.69547 6.91353 3.84097 5.99903 4.31847Z" fill="white"/>
</g>
<defs>
<clipPath id="clip0_7_7724">
<rect width="16" height="16" fill="white"/>
</clipPath>
</defs>
</svg>
