<svg width="16" height="16" viewBox="0 0 16 16" fill="none" xmlns="http://www.w3.org/2000/svg">
<g clip-path="url(#clip0_7_8086)">
<path d="M8 16C12.4183 16 16 12.4183 16 8C16 3.58172 12.4183 0 8 0C3.58172 0 0 3.58172 0 8C0 12.4183 3.58172 16 8 16Z" fill="#E30613"/>
<path opacity="0.75" fill-rule="evenodd" clip-rule="evenodd" d="M7.6805 13.4999C4.82 13.4999 2.5 11.2034 2.5 8.37094C2.5 5.53844 4.8195 3.24194 7.6805 3.24194C10.542 3.24194 12.8615 5.53844 12.8615 8.37094C12.8615 11.2034 10.5415 13.4999 7.68 13.4999H7.6805ZM8.575 4.71144C9.783 5.20594 10.651 6.13644 11.267 7.39044L11.732 7.06694C11.21 5.81094 10.2455 4.82394 8.694 4.18394L8.575 4.71144Z" fill="white"/>
<path d="M13.4959 4.6605C13.4959 3.4675 12.5184 2.5 11.3134 2.5C10.1084 2.5 9.13086 3.4675 9.13086 4.6605C9.13086 4.7745 9.13986 4.888 9.15786 5.0005C9.88436 5.4235 10.4679 6.0305 10.9344 6.7885C11.0594 6.81 11.1864 6.8215 11.3134 6.8215C12.5184 6.8215 13.4959 5.854 13.4959 4.6605Z" fill="white"/>
</g>
<defs>
<clipPath id="clip0_7_8086">
<rect width="16" height="16" fill="white"/>
</clipPath>
</defs>
</svg>
