<svg width="16" height="16" viewBox="0 0 16 16" fill="none" xmlns="http://www.w3.org/2000/svg">
<g clip-path="url(#clip0_7_7721)">
<path d="M8 16C12.4183 16 16 12.4183 16 8C16 3.58172 12.4183 0 8 0C3.58172 0 0 3.58172 0 8C0 12.4183 3.58172 16 8 16Z" fill="#2A2A2A"/>
<path d="M5 3.00299H9.0555C9.1045 2.98799 9.1295 3.03299 9.1615 3.05799C9.54377 3.41906 9.88669 3.81963 10.1845 4.25299C10.6076 4.85904 10.9398 5.52375 11.1705 6.22599C11.4115 6.96799 11.5255 7.75299 11.4955 8.53299H9.428C9.43816 8.42932 9.44184 8.32512 9.439 8.22099C9.4175 7.48549 9.1905 6.76399 8.833 6.12499C8.4505 5.44049 7.9165 4.84999 7.3095 4.35949C6.6485 3.82499 5.9045 3.40299 5.1295 3.06199C5.0865 3.04199 5.0415 3.02599 5 3.00299ZM6.501 6.66649C7.19465 7.92136 7.88715 9.17686 8.5785 10.433C8.745 10.736 8.9135 11.038 9.0785 11.3415C8.218 11.8925 7.36 12.4485 6.5 13V6.66649H6.501Z" fill="white"/>
</g>
<defs>
<clipPath id="clip0_7_7721">
<rect width="16" height="16" fill="white"/>
</clipPath>
</defs>
</svg>
