<svg width="16" height="16" viewBox="0 0 16 16" fill="none" xmlns="http://www.w3.org/2000/svg">
<g clip-path="url(#clip0_7_7956)">
<path d="M8 16C12.4183 16 16 12.4183 16 8C16 3.58172 12.4183 0 8 0C3.58172 0 0 3.58172 0 8C0 12.4183 3.58172 16 8 16Z" fill="#080817"/>
<path d="M4.72 4.877L5.502 4.4265L5.613 4.608L8.513 2.933L8.2995 2.8065L8.0855 2.6885L7.983 2.625L3.25 5.3595V5.4775L4.609 4.695L4.72 4.877ZM4.72 6.599L6.995 5.2875L7.0975 5.47L10.006 3.794L9.793 3.6675L9.5795 3.5495L9.476 3.486L3.25 7.073V7.1995L4.609 6.4175L4.72 6.599ZM4.72 7.46L7.738 5.715L7.8405 5.8965L10.749 4.2215L10.536 4.1025L10.321 3.9755L10.219 3.9125L3.25 7.935V8.06L4.609 7.271L4.72 7.46ZM4.72 8.314L8.504 6.1325L8.608 6.3155L11.492 4.648L11.2775 4.5285L11.0645 4.4035L10.962 4.347L3.25 8.7965V8.9145L4.609 8.1325L4.72 8.314ZM4.72 9.175L9.247 6.56L9.3505 6.75L12.235 5.083L12.02 4.956L11.816 4.837L11.705 4.7745L3.25 9.6575V9.7755L4.609 8.9935L4.72 9.175ZM12.5575 5.2645L12.4475 5.201L3.25 10.5185V10.6365L4.609 9.8545L4.72 10.036L9.247 7.421L9.3505 7.603L12.7155 5.6675V5.3595L12.5575 5.2645ZM3.835 11.159L4.5935 10.724L4.704 10.906L9.224 8.291L9.334 8.4795L12.716 6.52V5.912L3.7325 11.096L3.835 11.159ZM9.224 9.152L9.334 9.342L12.716 7.382V6.7735L4.475 11.53L4.577 11.5935L5.352 11.143L5.4615 11.3245M5.3205 12.02L6.1025 11.57L6.2045 11.76L9.2245 10.013L9.3335 10.1945L12.716 8.2435V7.6275L5.217 11.957L5.3205 12.02ZM6.071 12.4465L6.8455 12.0045L6.9475 12.186L9.224 10.874L9.334 11.0555L12.716 9.1045V8.488L5.96 12.3915L6.071 12.4465ZM6.703 12.818L6.8135 12.8815L7.5885 12.4305L7.6905 12.6205L9.224 11.7355L9.334 11.918L12.716 9.9655V9.35L6.703 12.818ZM7.5565 13.3075L8.3315 12.8655L8.441 13.047L9.224 12.589L9.334 12.779L12.716 10.8265V10.2105L7.453 13.253L7.5565 13.3075ZM9.263 3.3595L9.05 3.2415L8.8365 3.1145L8.726 3.0515L3.25 6.22V6.338L4.609 5.556L4.72 5.7375L6.252 4.8535L6.356 5.035L9.263 3.3595Z" fill="white"/>
</g>
<defs>
<clipPath id="clip0_7_7956">
<rect width="16" height="16" fill="white"/>
</clipPath>
</defs>
</svg>
