<svg width="16" height="16" viewBox="0 0 16 16" fill="none" xmlns="http://www.w3.org/2000/svg">
<g clip-path="url(#clip0_7_7880)">
<path d="M8 16C12.4183 16 16 12.4183 16 8C16 3.58172 12.4183 0 8 0C3.58172 0 0 3.58172 0 8C0 12.4183 3.58172 16 8 16Z" fill="#602A52"/>
<path fill-rule="evenodd" clip-rule="evenodd" d="M10.2912 8.15601C10.152 7.76794 9.90376 7.42833 9.57619 7.17801L9.57269 7.17401C9.53798 7.14774 9.50246 7.12257 9.46619 7.09851L9.45919 7.09351C9.42346 7.07005 9.38712 7.04754 9.35019 7.02601L9.34019 7.02001C9.30399 6.99902 9.26678 6.97983 9.22869 6.96251L9.21769 6.95651C9.17872 6.9382 9.13938 6.9207 9.09969 6.90401L9.08669 6.89901C8.95824 6.84568 8.82496 6.80482 8.68869 6.77701C8.61017 6.91941 8.50921 7.04823 8.38969 7.15851C8.67037 7.1809 8.94153 7.2706 9.18019 7.42001L9.19369 7.42801L9.25969 7.47301L9.28969 7.49401C9.30969 7.50901 9.32819 7.52401 9.34869 7.53901L9.38219 7.56601C9.40019 7.58101 9.41669 7.59601 9.43369 7.61151L9.46769 7.64401L9.51419 7.69101L9.54819 7.72751L9.58969 7.77601L9.62219 7.81651L9.65969 7.86651C9.67219 7.88301 9.68069 7.89601 9.69069 7.91051C9.70069 7.92501 9.71369 7.94401 9.72419 7.96151L9.75319 8.00951C9.76219 8.02551 9.77319 8.04351 9.78219 8.06051C9.79219 8.07701 9.80019 8.09551 9.80919 8.11351C9.81769 8.13151 9.82619 8.14651 9.83369 8.16351C9.84304 8.1857 9.85205 8.20803 9.86069 8.23051C9.90814 8.3489 9.94169 8.47239 9.96069 8.59851L10.0152 8.80051C10.0382 8.88451 10.2507 9.62851 10.7432 9.87901C11.3077 10.1685 12.0552 10.526 12.3492 10.6675L8.46619 12.9475V11.385C8.46619 11.1385 8.96619 10.85 9.19769 10.7485L9.21119 10.741C9.25869 10.7175 9.30619 10.692 9.35119 10.665L9.37069 10.655C9.47084 10.5947 9.56613 10.5266 9.65569 10.4515L9.67969 10.43L9.70719 10.4055C9.73535 10.3802 9.76286 10.3542 9.78969 10.3275L9.80369 10.314C9.83319 10.2845 9.86269 10.2565 9.88869 10.222L9.91319 10.194C9.93519 10.168 9.95619 10.1415 9.97669 10.1145L9.99469 10.092C10.0197 10.059 10.0427 10.025 10.0657 9.99051L10.0737 9.98051C10.1047 9.93201 10.1322 9.88351 10.1612 9.83301C10.0523 9.70156 9.95901 9.55793 9.88319 9.40501C9.85219 9.49151 9.81319 9.57551 9.76819 9.65601C9.74919 9.69101 9.72919 9.72501 9.70919 9.75801L9.70019 9.77151C9.68132 9.79957 9.66165 9.82708 9.64119 9.85401L9.62319 9.87701C9.60282 9.9033 9.58148 9.92882 9.55919 9.95351L9.54719 9.96751C9.40254 10.1255 9.22977 10.2552 9.03769 10.35L9.00119 10.3685C8.90269 10.412 8.03469 10.797 8.03469 11.3825V12.9455L4.13969 10.6615C4.39019 10.5085 5.12219 10.0825 5.72419 9.89501C5.95969 9.82301 6.45969 10.1315 6.74319 10.358L6.76019 10.373C6.79769 10.408 6.83719 10.4415 6.87819 10.473L6.89219 10.4855C6.98219 10.5575 7.07819 10.622 7.17869 10.679L7.24619 10.7155L7.25969 10.7225C7.32519 10.7555 7.39219 10.7855 7.46069 10.812L7.49069 10.8235L7.51069 10.8315C7.60919 10.8675 7.71069 10.8955 7.81319 10.9165C7.89386 10.7723 7.99795 10.6425 8.12119 10.5325C7.95688 10.5203 7.79511 10.485 7.64069 10.4275L7.61419 10.4175L7.56319 10.397L7.53719 10.386L7.48769 10.363C7.37306 10.3074 7.2649 10.2393 7.16519 10.16L7.01019 10.022C6.86787 9.89945 6.71379 9.79126 6.55019 9.69901C6.16519 9.48401 5.84319 9.41401 5.59619 9.49001C5.08119 9.64901 4.50119 9.95801 4.14719 10.162L8.03619 3.30351V6.30701C8.03619 6.41351 7.87619 6.69151 7.34169 6.92751L7.30469 6.94751C7.25269 6.97251 7.20219 6.99951 7.15269 7.02851L7.14269 7.03351C6.97811 7.13046 6.82713 7.24882 6.69369 7.38551L6.68869 7.39051C6.63811 7.44253 6.59022 7.4971 6.54519 7.55401L6.53969 7.56151C6.51796 7.58925 6.49679 7.61742 6.47619 7.64601L6.46919 7.65601C6.45065 7.68298 6.43265 7.71032 6.41519 7.73801L6.40919 7.74651C6.39159 7.77488 6.37475 7.80372 6.35869 7.83301L6.34719 7.85351C6.33269 7.88151 6.31819 7.91151 6.30369 7.93751L6.29719 7.95101C6.28431 7.97734 6.27214 8.00402 6.26069 8.03101L6.24819 8.06101C6.23669 8.08901 6.22619 8.11901 6.21569 8.14601L6.20569 8.17601C6.19804 8.19746 6.19104 8.21913 6.18469 8.24101C6.18119 8.25301 6.17719 8.26451 6.17419 8.27701C6.14549 8.37741 6.1246 8.47988 6.11169 8.58351L6.10669 8.63001C6.10433 8.65112 6.10249 8.6723 6.10119 8.69351C6.10019 8.71501 6.10119 8.73601 6.09769 8.75701C6.09419 8.77851 6.09769 8.78301 6.09769 8.79701V8.84451C6.09769 8.94951 6.10569 9.05451 6.12169 9.15901C6.28919 9.19987 6.4513 9.26029 6.60469 9.33901C6.5576 9.18804 6.53235 9.03112 6.52969 8.87301V8.84451C6.52969 8.80651 6.52969 8.76901 6.53419 8.72901V8.69901C6.53419 8.66651 6.54069 8.63351 6.54519 8.60101V8.58701C6.55036 8.55084 6.55737 8.51496 6.56619 8.47951L6.57219 8.45201C6.57969 8.42201 6.58719 8.39301 6.59669 8.36351L6.60269 8.34451C6.61269 8.31001 6.62519 8.27651 6.63819 8.24301L6.64819 8.22051C6.65919 8.19301 6.67119 8.16551 6.68369 8.13801L6.69319 8.11701C6.70869 8.08451 6.72569 8.05301 6.74319 8.02151L6.75269 8.00601C6.76845 7.97888 6.78495 7.95221 6.80219 7.92601L6.81469 7.90751C6.83519 7.87751 6.85619 7.84951 6.87869 7.81851L6.88269 7.81351C6.90419 7.78601 6.92669 7.75951 6.94969 7.73351L6.96219 7.71851C7.06769 7.60251 7.18869 7.50101 7.32219 7.41701L7.50619 7.33201C7.60469 7.28851 8.46869 6.89301 8.46869 6.30701V3.30351L12.3882 10.2135C12.0382 10.045 11.4232 9.74751 10.9432 9.50351C10.6692 9.36351 10.4822 8.87001 10.4342 8.69301L10.3812 8.48551C10.3616 8.37416 10.3328 8.26462 10.2952 8.15801L10.2912 8.15601ZM12.9462 10.331L8.62619 2.71801C8.58805 2.65142 8.53291 2.59615 8.46641 2.55785C8.39991 2.51955 8.32443 2.49959 8.24769 2.50001C8.17112 2.49977 8.09586 2.51981 8.02955 2.5581C7.96324 2.5964 7.90826 2.65157 7.87019 2.71801L3.55519 10.3315C3.50088 10.4275 3.48669 10.541 3.51572 10.6474C3.54476 10.7538 3.61465 10.8444 3.71019 10.8995L8.02869 13.4395C8.09606 13.4789 8.17267 13.4996 8.25069 13.4996C8.32871 13.4996 8.40533 13.4789 8.47269 13.4395L12.7907 10.9015C12.8862 10.8465 12.9561 10.756 12.9852 10.6498C13.0143 10.5435 13.0003 10.43 12.9462 10.334L12.9472 10.331H12.9462Z" fill="white"/>
</g>
<defs>
<clipPath id="clip0_7_7880">
<rect width="16" height="16" fill="white"/>
</clipPath>
</defs>
</svg>
