<svg width="16" height="16" viewBox="0 0 16 16" fill="none" xmlns="http://www.w3.org/2000/svg">
<g clip-path="url(#clip0_7_7768)">
<path d="M8 16C12.4183 16 16 12.4183 16 8C16 3.58172 12.4183 0 8 0C3.58172 0 0 3.58172 0 8C0 12.4183 3.58172 16 8 16Z" fill="#0E0E21"/>
<path fill-rule="evenodd" clip-rule="evenodd" d="M5.77513 7.6225L5.15513 7.22C5.12808 7.20244 5.10887 7.17509 5.10151 7.14369C5.09414 7.11229 5.09921 7.07926 5.11563 7.0515L7.50763 2.996C7.52914 2.95935 7.5598 2.92893 7.59662 2.90771C7.63344 2.8865 7.67514 2.87523 7.71763 2.875H8.28213C8.32462 2.87523 8.36632 2.8865 8.40314 2.90771C8.43996 2.92893 8.47063 2.95935 8.49213 2.996L10.8841 7.0515C10.9006 7.07926 10.9056 7.11229 10.8983 7.14369C10.8909 7.17509 10.8717 7.20244 10.8446 7.22L10.2246 7.6225C10.2108 7.63127 10.1954 7.63718 10.1793 7.63986C10.1631 7.64255 10.1466 7.64196 10.1307 7.63814C10.1148 7.63431 10.0998 7.62733 10.0867 7.6176C10.0735 7.60787 10.0624 7.59559 10.0541 7.5815L8.05263 4.1885C8.04724 4.17938 8.03956 4.17182 8.03035 4.16657C8.02114 4.16132 8.01073 4.15856 8.00013 4.15856C7.98953 4.15856 7.97912 4.16132 7.96991 4.16657C7.96071 4.17182 7.95303 4.17938 7.94763 4.1885L5.94613 7.5815C5.93787 7.59571 5.92681 7.6081 5.91363 7.61792C5.90044 7.62774 5.8854 7.63477 5.86941 7.63861C5.85342 7.64244 5.83682 7.64299 5.82062 7.64022C5.80441 7.63745 5.78894 7.63142 5.77513 7.6225ZM11.5136 8.12L12.4656 9.734C12.4981 9.78946 12.5082 9.85524 12.4938 9.91789C12.4794 9.98054 12.4416 10.0353 12.3881 10.071L8.13313 12.836C8.09375 12.8618 8.0477 12.8755 8.00063 12.8755C7.95356 12.8755 7.90752 12.8618 7.86813 12.836L3.61313 10.071C3.5592 10.0357 3.52097 9.98096 3.50644 9.91817C3.49191 9.85538 3.50219 9.7894 3.53513 9.734L4.48713 8.12C4.49539 8.10579 4.50645 8.0934 4.51964 8.08358C4.53283 8.07376 4.54787 8.06673 4.56385 8.06289C4.57984 8.05906 4.59644 8.05851 4.61264 8.06128C4.62885 8.06405 4.64432 8.07008 4.65813 8.079L5.27763 8.4815C5.30468 8.49906 5.3239 8.52641 5.33126 8.55781C5.33862 8.58921 5.33356 8.62224 5.31713 8.65L4.77313 9.5725C4.76526 9.58644 4.76295 9.60285 4.76666 9.61842C4.77037 9.634 4.77982 9.6476 4.79313 9.6565L7.96713 11.719C7.98713 11.7325 8.01213 11.7325 8.03263 11.719L11.2076 9.6565C11.2211 9.64776 11.2307 9.63415 11.2345 9.61851C11.2382 9.60286 11.2357 9.58639 11.2276 9.5725L10.6836 8.65C10.6672 8.62224 10.6621 8.58921 10.6695 8.55781C10.6769 8.52641 10.6961 8.49906 10.7231 8.4815L11.3431 8.079C11.3569 8.07016 11.3724 8.0642 11.3885 8.06147C11.4047 8.05875 11.4212 8.05932 11.4371 8.06315C11.4531 8.06698 11.468 8.07399 11.4812 8.08376C11.4943 8.09353 11.5054 8.10586 11.5136 8.12Z" fill="white"/>
</g>
<defs>
<clipPath id="clip0_7_7768">
<rect width="16" height="16" fill="white"/>
</clipPath>
</defs>
</svg>
