<svg width="16" height="16" viewBox="0 0 16 16" fill="none" xmlns="http://www.w3.org/2000/svg">
<g clip-path="url(#clip0_7_7790)">
<path d="M8 16C12.4183 16 16 12.4183 16 8C16 3.58172 12.4183 0 8 0C3.58172 0 0 3.58172 0 8C0 12.4183 3.58172 16 8 16Z" fill="#00E6A0"/>
<path d="M11.5366 3.74996C11.5808 3.74898 11.6247 3.75699 11.6657 3.77349C11.7067 3.79 11.7439 3.81465 11.7751 3.84596L11.7721 3.84296C11.8215 3.89218 11.8537 3.95599 11.8641 4.02496L11.8686 4.07696L11.8651 5.78546C11.8651 6.00996 11.7761 6.22546 11.6171 6.38396L9.49707 8.49746L11.7656 10.759C11.8454 10.8369 11.9089 10.9299 11.9525 11.0326C11.9962 11.1353 12.019 11.2456 12.0198 11.3571C12.0206 11.4687 11.9992 11.5793 11.957 11.6825C11.9148 11.7858 11.8525 11.8796 11.7738 11.9587C11.6951 12.0378 11.6016 12.1004 11.4985 12.1431C11.3954 12.1858 11.2849 12.2077 11.1734 12.2074C11.0618 12.2072 10.9514 12.1848 10.8486 12.1416C10.7457 12.0985 10.6524 12.0354 10.5741 11.956L7.70657 9.09746C7.62749 9.01908 7.56472 8.92582 7.52189 8.82305C7.47905 8.72028 7.45699 8.61005 7.45699 8.49871C7.45699 8.38737 7.47905 8.27713 7.52189 8.17437C7.56472 8.0716 7.62749 7.97833 7.70657 7.89996L10.2176 5.39396H5.96857V11.3385C5.97047 11.4518 5.94954 11.5643 5.90704 11.6694C5.86455 11.7745 5.80134 11.8699 5.7212 11.9501C5.64105 12.0302 5.5456 12.0934 5.44053 12.1359C5.33545 12.1784 5.2229 12.1994 5.10957 12.1975L5.02457 12.1945C4.81125 12.1759 4.61285 12.0774 4.46919 11.9186C4.32553 11.7598 4.24725 11.5526 4.25007 11.3385V4.67346C4.25007 4.14046 4.63157 3.74996 5.14807 3.74996H11.5366Z" fill="white"/>
</g>
<defs>
<clipPath id="clip0_7_7790">
<rect width="16" height="16" fill="white"/>
</clipPath>
</defs>
</svg>
