<svg width="16" height="16" viewBox="0 0 16 16" fill="none" xmlns="http://www.w3.org/2000/svg">
<g clip-path="url(#clip0_7_8022)">
<path d="M8 16C12.4183 16 16 12.4183 16 8C16 3.58172 12.4183 0 8 0C3.58172 0 0 3.58172 0 8C0 12.4183 3.58172 16 8 16Z" fill="#CC1E46"/>
<path d="M5.90801 4.61998C6.74485 3.99107 7.74156 3.60993 8.78451 3.51998C8.89051 3.49848 9.00551 3.56548 9.00201 3.68248C9.01201 3.96248 9.00501 4.24248 9.00501 4.52248C9.01201 4.60948 8.96601 4.72248 8.86601 4.72498C7.94301 4.82698 7.06601 5.20398 6.30401 5.72498C6.23201 5.76548 6.24801 5.85898 6.25401 5.92698C6.30701 6.41798 6.27101 6.91248 6.28551 7.40498C8.77251 7.41198 11.2605 7.40398 13.7485 7.40898C13.867 7.39898 13.992 7.46648 13.9825 7.59898C13.995 8.43648 13.985 9.27398 13.9875 10.111C13.9895 10.566 13.8925 11.037 13.617 11.409C13.182 11.9935 12.417 12.344 11.69 12.215C11.175 12.138 10.73 11.8185 10.418 11.413C9.56873 12.0518 8.55532 12.4359 7.49601 12.5205C7.38851 12.522 7.30801 12.4165 7.32451 12.3135C7.32801 12.0205 7.31851 11.7265 7.32951 11.4335C7.35451 11.2785 7.54551 11.3085 7.65901 11.283C8.53101 11.147 9.36501 10.7815 10.077 10.263C10.0403 9.71897 10.0275 9.17361 10.0385 8.62848C7.54251 8.61248 5.04551 8.62748 2.54951 8.62048C2.43951 8.63298 2.33351 8.55048 2.34401 8.43398C2.34201 7.55248 2.34251 6.67048 2.34501 5.78898C2.35001 5.32798 2.49551 4.86198 2.80101 4.51048C3.20351 4.05248 3.81051 3.75998 4.42651 3.79598C5.01651 3.81948 5.55801 4.15498 5.90801 4.61998ZM3.35001 5.94098C3.34901 6.45748 3.34851 6.97448 3.35101 7.49198C3.96801 7.49148 4.58401 7.50048 5.20051 7.48698C5.20151 6.98298 5.20801 6.47948 5.19751 5.97548C5.18801 5.49248 4.75151 5.06548 4.26651 5.07548C3.79301 5.05598 3.36151 5.47048 3.35001 5.94048V5.94098ZM11.2045 8.58598C11.1995 9.07698 11.2035 9.56848 11.2015 10.0595C11.1985 10.256 11.258 10.448 11.3715 10.608C11.6085 10.9465 12.0805 11.0945 12.4665 10.945C12.823 10.813 13.0585 10.44 13.0545 10.065C13.0545 9.57198 13.057 9.07998 13.0525 8.58698C12.4365 8.58198 11.8205 8.58448 11.2045 8.58548V8.58598Z" fill="white"/>
</g>
<defs>
<clipPath id="clip0_7_8022">
<rect width="16" height="16" fill="white"/>
</clipPath>
</defs>
</svg>
