<svg width="16" height="16" viewBox="0 0 16 16" fill="none" xmlns="http://www.w3.org/2000/svg">
<g clip-path="url(#clip0_7_7719)">
<path d="M8 16C12.4183 16 16 12.4183 16 8C16 3.58172 12.4183 0 8 0C3.58172 0 0 3.58172 0 8C0 12.4183 3.58172 16 8 16Z" fill="#60E4DD"/>
<path fill-rule="evenodd" clip-rule="evenodd" d="M5.072 10.012C5.222 9.7845 5.364 9.5715 5.498 9.372H3.966C3.95367 9.372 3.94184 9.3671 3.93312 9.35838C3.9244 9.34966 3.9195 9.33783 3.9195 9.3255V9.0075C3.9195 8.982 3.9405 8.961 3.966 8.961H5.777C6.7455 7.5465 7.2295 6.964 7.2295 6.9045C7.2295 6.813 7.2095 6.7675 6.8795 6.7675C6.2275 6.7675 5.155 6.302 5.155 5.031C5.155 4.3395 6.2735 3.5 6.9265 3.5C7.2295 3.5 7.276 3.6285 7.1365 3.637C6.7635 3.66 5.9475 4.405 5.9475 5.122C5.9475 5.602 6.3735 6.4245 7.3225 6.4245C8.4435 6.4245 9.401 4.6425 11.7285 4.6425C13.127 4.6425 13.5 5.7365 13.5 6.0365C13.5 6.3365 13.0635 6.4935 12.4745 6.4935C11.8855 6.4935 11.8635 5.442 10.6795 5.442C8.8205 5.442 7.2375 7.455 6.477 8.961H7.789C7.815 8.961 7.8355 8.982 7.8355 9.0075V9.3255C7.83557 9.33165 7.83441 9.33775 7.83211 9.34345C7.8298 9.34915 7.82638 9.35433 7.82206 9.3587C7.81773 9.36308 7.81259 9.36655 7.80691 9.36891C7.80124 9.37128 7.79515 9.3725 7.789 9.3725H6.284C6.18 9.6125 6.1025 9.83 6.054 10.0125H7.369C7.395 10.0125 7.416 10.0325 7.416 10.0585V10.377C7.416 10.3893 7.4111 10.4012 7.40238 10.4099C7.39366 10.4186 7.38183 10.4235 7.3695 10.4235H5.995C6.0195 11.0065 6.5085 11.532 7.463 12H3.803C4.13103 11.4712 4.46438 10.9456 4.803 10.4235H3.547C3.54085 10.4236 3.53475 10.4224 3.52905 10.4201C3.52335 10.4178 3.51817 10.4144 3.5138 10.4101C3.50942 10.4057 3.50595 10.4006 3.50359 10.3949C3.50122 10.3892 3.5 10.3831 3.5 10.377V10.0585C3.5 10.033 3.521 10.012 3.5465 10.012H5.072Z" fill="white"/>
</g>
<defs>
<clipPath id="clip0_7_7719">
<rect width="16" height="16" fill="white"/>
</clipPath>
</defs>
</svg>
