<svg width="16" height="16" viewBox="0 0 16 16" fill="none" xmlns="http://www.w3.org/2000/svg">
<g clip-path="url(#clip0_7_7717)">
<path d="M8 16C12.4183 16 16 12.4183 16 8C16 3.58172 12.4183 0 8 0C3.58172 0 0 3.58172 0 8C0 12.4183 3.58172 16 8 16Z" fill="#F49352"/>
<path fill-rule="evenodd" clip-rule="evenodd" d="M6.30255 4.5775C5.87405 4.5775 5.52655 4.2245 5.52655 3.789C5.52655 3.3535 5.87405 3 6.30255 3C6.73155 3 7.07905 3.353 7.07905 3.789C7.07905 4.225 6.73155 4.5775 6.30255 4.5775ZM9.72355 13C9.62079 12.9992 9.51921 12.9781 9.42459 12.938C9.32998 12.8978 9.2442 12.8395 9.17214 12.7662C9.10008 12.693 9.04316 12.6062 9.00462 12.5109C8.96609 12.4157 8.9467 12.3138 8.94755 12.211C8.94755 11.776 9.29505 11.4225 9.72355 11.4225C10.1526 11.4225 10.5001 11.7755 10.5001 12.211C10.5001 12.647 10.1526 13 9.72355 13ZM6.62105 7.105C6.54856 7.16145 6.46552 7.20286 6.3768 7.22679C6.28809 7.25071 6.19549 7.25668 6.10443 7.24434C6.01338 7.232 5.92571 7.2016 5.84657 7.15491C5.76743 7.10823 5.6984 7.04622 5.64355 6.9725C5.53112 6.82284 5.48176 6.6351 5.50606 6.44949C5.53036 6.26388 5.62638 6.09517 5.77355 5.9795L9.35255 3.1985C9.42505 3.14205 9.50809 3.10064 9.59681 3.07671C9.68552 3.05279 9.77812 3.04682 9.86917 3.05916C9.96022 3.0715 10.0479 3.1019 10.127 3.14859C10.2062 3.19527 10.2752 3.25728 10.3301 3.331C10.4426 3.4807 10.4921 3.66855 10.4678 3.85428C10.4435 4.04001 10.3474 4.20881 10.2001 4.3245L6.62105 7.105ZM6.64755 9.9395C6.57506 9.99595 6.49201 10.0374 6.4033 10.0613C6.31459 10.0852 6.22199 10.0912 6.13094 10.0788C6.03988 10.0665 5.95221 10.0361 5.87307 9.98941C5.79393 9.94273 5.7249 9.88072 5.67005 9.807C5.55746 9.65731 5.50802 9.46945 5.53232 9.28372C5.55662 9.09799 5.65274 8.92919 5.80005 8.8135L9.37905 6.033C9.45155 5.97655 9.53459 5.93514 9.6233 5.91121C9.71202 5.88729 9.80462 5.88132 9.89567 5.89366C9.98672 5.906 10.0744 5.9364 10.1535 5.98309C10.2327 6.02977 10.3017 6.09178 10.3566 6.1655C10.469 6.31516 10.5183 6.5029 10.494 6.68851C10.4697 6.87412 10.3737 7.04283 10.2266 7.1585L6.64755 9.9395ZM6.64755 12.854C6.57506 12.9105 6.49201 12.9519 6.4033 12.9758C6.31459 12.9997 6.22199 13.0057 6.13094 12.9933C6.03988 12.981 5.95221 12.9506 5.87307 12.9039C5.79393 12.8572 5.7249 12.7952 5.67005 12.7215C5.55746 12.5718 5.50802 12.3839 5.53232 12.1982C5.55662 12.0125 5.65274 11.8437 5.80005 11.728L9.37905 8.9475C9.45155 8.89105 9.53459 8.84964 9.6233 8.82571C9.71202 8.80179 9.80462 8.79582 9.89567 8.80816C9.98672 8.8205 10.0744 8.8509 10.1535 8.89759C10.2327 8.94427 10.3017 9.00628 10.3566 9.08C10.469 9.22966 10.5183 9.4174 10.494 9.60301C10.4697 9.78862 10.3737 9.95733 10.2266 10.073L6.64755 12.854Z" fill="white"/>
</g>
<defs>
<clipPath id="clip0_7_7717">
<rect width="16" height="16" fill="white"/>
</clipPath>
</defs>
</svg>
