<svg width="16" height="16" viewBox="0 0 16 16" fill="none" xmlns="http://www.w3.org/2000/svg">
<g clip-path="url(#clip0_7_7715)">
<path d="M8 16C12.4183 16 16 12.4183 16 8C16 3.58172 12.4183 0 8 0C3.58172 0 0 3.58172 0 8C0 12.4183 3.58172 16 8 16Z" fill="#8D181B"/>
<path d="M12.848 7.86605C13.208 7.86605 13.5 8.15105 13.5 8.50355C13.5 8.85605 13.208 9.14105 12.848 9.14105C12.573 9.14105 12.3375 8.97405 12.242 8.73855H10.382L9.696 9.95855C9.583 10.1595 9.2735 10.1 9.2465 9.87255L9.0925 8.56905L8.5225 12.796C8.4845 13.077 8.064 13.064 8.0445 12.781L7.577 5.94755L7.082 10.4745C7.052 10.7445 6.6555 10.7585 6.607 10.491L6.083 7.61305L5.841 8.56055C5.82737 8.61184 5.7971 8.65715 5.75492 8.68937C5.71275 8.72159 5.66107 8.73889 5.608 8.73855H3.24C3.1075 8.73855 3 8.63355 3 8.50355C3 8.37355 3.1075 8.26855 3.24 8.26855H5.42L5.8895 6.43305C5.9525 6.18705 6.3135 6.19955 6.3595 6.44905L6.784 8.78355L7.3935 3.21005C7.425 2.92455 7.8525 2.93255 7.872 3.21905L8.3625 10.389L8.8695 6.62705C8.9065 6.35255 9.314 6.35555 9.3465 6.63055L9.6375 9.08805L10.0295 8.39005C10.0507 8.35296 10.0813 8.32217 10.1183 8.30082C10.1553 8.27947 10.1973 8.26833 10.24 8.26855H12.242C12.2916 8.14884 12.3757 8.04661 12.4836 7.97492C12.5916 7.90323 12.7184 7.86533 12.848 7.86605Z" fill="white"/>
</g>
<defs>
<clipPath id="clip0_7_7715">
<rect width="16" height="16" fill="white"/>
</clipPath>
</defs>
</svg>
