<svg width="16" height="16" viewBox="0 0 16 16" fill="none" xmlns="http://www.w3.org/2000/svg">
<g clip-path="url(#clip0_7_7713)">
<path d="M8 16C12.4183 16 16 12.4183 16 8C16 3.58172 12.4183 0 8 0C3.58172 0 0 3.58172 0 8C0 12.4183 3.58172 16 8 16Z" fill="#64D1FF"/>
<path fill-rule="evenodd" clip-rule="evenodd" d="M5.25 7.619H6.132V3.5H8.4055C8.8275 3.5 9.2125 3.5495 9.5605 3.6485C9.9085 3.7475 10.2065 3.8985 10.455 4.1005C10.7035 4.3025 10.898 4.559 11.039 4.8685C11.1795 5.1785 11.25 5.5485 11.25 5.979C11.25 6.4095 11.175 6.784 11.0265 7.1025C10.886 7.40972 10.6778 7.68117 10.4175 7.8965C10.1501 8.11307 9.84182 8.27344 9.511 8.368C9.14364 8.47404 8.76284 8.52625 8.3805 8.523H7.1255V9.827H9.1255V10.6795H7.1255V12.5H6.132V10.6795H5.25V9.827H6.132V8.523H5.25V7.619ZM8.405 7.619C8.9765 7.619 9.426 7.4835 9.753 7.2125C10.08 6.941 10.244 6.53 10.244 5.979C10.244 5.4285 10.08 5.028 9.753 4.7785C9.426 4.5285 8.9765 4.4035 8.4055 4.4035H7.1255V7.619H8.405Z" fill="white"/>
</g>
<defs>
<clipPath id="clip0_7_7713">
<rect width="16" height="16" fill="white"/>
</clipPath>
</defs>
</svg>
