<svg width="16" height="16" viewBox="0 0 16 16" fill="none" xmlns="http://www.w3.org/2000/svg">
<g clip-path="url(#clip0_7_7709)">
<path d="M8 16C12.4183 16 16 12.4183 16 8C16 3.58172 12.4183 0 8 0C3.58172 0 0 3.58172 0 8C0 12.4183 3.58172 16 8 16Z" fill="#384182"/>
<path fill-rule="evenodd" clip-rule="evenodd" d="M4.75 13.5L6.559 5.1055L7.574 11.4055L4.75 13.5ZM6.594 5.0575L9.3425 11.412L7.621 11.382L6.594 5.0575ZM6.635 5.0095L10.235 5.521L9.401 11.412L6.635 5.0095ZM9.465 11.3215L10.2765 5.575L10.8075 6.249L9.465 11.3215ZM10.2235 5.4665L6.7105 4.967L9.8735 3.926L10.2235 5.4665ZM6.6935 4.913L8.8465 3.4205L9.8735 3.872L6.6935 4.913ZM6.6405 4.895L7.0555 4.1005L8.8115 3.3965L6.6405 4.895ZM7.0555 4.065L7.2535 3.445L8.7005 3.3965L7.0555 4.0645V4.065ZM7.242 3.3965L7.7085 2.897L8.7125 3.3485L7.242 3.3965ZM7.738 2.867L8.438 2.524L9.343 3.583L7.738 2.867ZM8.5375 2.566L9.582 3.0235L9.395 3.589L8.5375 2.566ZM9.43 3.607L9.6225 3.0295L9.856 3.824L9.43 3.607ZM8.4615 2.5H9.226L9.6045 2.921C9.60801 2.92506 9.61005 2.93019 9.61031 2.93555C9.61056 2.94092 9.60901 2.94621 9.6059 2.95059C9.60279 2.95496 9.5983 2.95817 9.59315 2.9597C9.588 2.96122 9.58249 2.96098 9.5775 2.959L8.4615 2.5ZM9.6695 2.9815L11.2245 3.4155C11.2324 3.41739 11.2394 3.42187 11.2444 3.42822C11.2494 3.43457 11.2521 3.44242 11.2521 3.4505C11.2521 3.45858 11.2494 3.46643 11.2444 3.47278C11.2394 3.47913 11.2324 3.48361 11.2245 3.4855L9.903 3.848L9.6695 2.9815Z" fill="white"/>
</g>
<defs>
<clipPath id="clip0_7_7709">
<rect width="16" height="16" fill="white"/>
</clipPath>
</defs>
</svg>
