<svg width="16" height="16" viewBox="0 0 16 16" fill="none" xmlns="http://www.w3.org/2000/svg">
<g clip-path="url(#clip0_7_7929)">
<path d="M8 16C12.4183 16 16 12.4183 16 8C16 3.58172 12.4183 0 8 0C3.58172 0 0 3.58172 0 8C0 12.4183 3.58172 16 8 16Z" fill="#3D58B0"/>
<path d="M7.993 2C4.688 2 2 4.688 2 7.993C2 11.298 4.688 13.985 7.993 13.985C11.298 13.985 13.985 11.2975 13.985 7.993C13.9855 4.688 11.2975 2 7.993 2ZM7.993 2.816C8.67307 2.81514 9.34663 2.94847 9.97509 3.20834C10.6035 3.46821 11.1746 3.84952 11.6554 4.33043C12.1363 4.81134 12.5175 5.38239 12.7773 6.01087C13.0372 6.63936 13.1704 7.31293 13.1695 7.993C13.1704 8.67303 13.037 9.34654 12.7772 9.97497C12.5174 10.6034 12.1361 11.1744 11.6552 11.6552C11.1744 12.1361 10.6034 12.5174 9.97497 12.7772C9.34654 13.037 8.67303 13.1704 7.993 13.1695C7.31293 13.1704 6.63936 13.0372 6.01087 12.7773C5.38239 12.5175 4.81134 12.1363 4.33043 11.6554C3.84952 11.1746 3.46821 10.6035 3.20834 9.97509C2.94847 9.34663 2.81514 8.67307 2.816 7.993C2.81514 7.31291 2.94847 6.63933 3.20833 6.01084C3.4682 5.38235 3.8495 4.8113 4.3304 4.3304C4.8113 3.8495 5.38235 3.4682 6.01084 3.20833C6.63933 2.94847 7.31291 2.81514 7.993 2.816Z" fill="white"/>
<path d="M5.7666 5.78003V10.205H10.2191V5.78003H5.7666ZM6.4916 6.50503H9.4936V9.48003H6.4921V6.50503H6.4916Z" fill="white"/>
</g>
<defs>
<clipPath id="clip0_7_7929">
<rect width="16" height="16" fill="white"/>
</clipPath>
</defs>
</svg>
