<svg width="16" height="16" viewBox="0 0 16 16" fill="none" xmlns="http://www.w3.org/2000/svg">
<g clip-path="url(#clip0_7_7711)">
<path d="M8 16C12.4183 16 16 12.4183 16 8C16 3.58172 12.4183 0 8 0C3.58172 0 0 3.58172 0 8C0 12.4183 3.58172 16 8 16Z" fill="#00A79D"/>
<path d="M7.67152 9.07497L7.74902 9.45347L7.89152 9.26397L8.03152 9.97447L8.17152 9.26447L8.31402 9.45347L8.39152 9.07497H7.67152ZM8.41102 8.47297V7.40697C8.41102 7.19897 8.03452 6.67297 8.03452 6.67297C8.03452 6.67297 7.65452 7.19897 7.65452 7.40697V8.47297C7.40819 8.55259 7.19341 8.7082 7.04102 8.91747H9.02202C8.87027 8.70863 8.65643 8.55306 8.41102 8.47297ZM12.5975 9.55597C12.5974 9.48239 12.5828 9.40956 12.5545 9.34163C12.5262 9.27371 12.4848 9.21202 12.4326 9.16011C12.3805 9.10819 12.3186 9.06707 12.2505 9.03907C12.1825 9.01108 12.1096 8.99678 12.036 8.99697C11.726 8.99697 11.4745 9.24697 11.4745 9.55597C11.4747 9.62951 11.4894 9.7023 11.5177 9.77016C11.546 9.83803 11.5875 9.89965 11.6396 9.95151C11.6917 10.0034 11.7536 10.0445 11.8216 10.0724C11.8896 10.1004 11.9625 10.1147 12.036 10.1145C12.346 10.1145 12.5975 9.86447 12.5975 9.55597ZM11.7075 9.55597C11.7074 9.49115 11.7266 9.42775 11.7625 9.37381C11.7985 9.31987 11.8496 9.27782 11.9095 9.25297C11.9696 9.228 12.0358 9.22137 12.0997 9.23392C12.1636 9.24646 12.2223 9.27762 12.2685 9.32347C12.3145 9.36908 12.3458 9.42734 12.3586 9.49083C12.3713 9.55432 12.3649 9.62017 12.34 9.67997C12.311 9.75018 12.2585 9.80816 12.1916 9.84408C12.1246 9.88001 12.0473 9.89166 11.9728 9.87705C11.8982 9.86245 11.831 9.82249 11.7826 9.76396C11.7341 9.70543 11.7079 9.63195 11.7075 9.55597Z" fill="white"/>
<path d="M8.032 2C4.7025 2.004 2.004 4.6875 2 8C2 10.287 3.4125 12.127 5.2865 12.2815C6.4265 12.375 7.529 11.971 8.255 11.6145C8.68828 11.4374 9.09168 11.1945 9.451 10.8945L9.529 10.83C9.5875 10.7795 9.642 10.731 9.694 10.6815C10.3745 10.0405 11.185 8.8865 11.185 7.0315V6.8265L8.058 4.693L4.9305 6.827V7.0305C4.9305 8.8865 5.7405 10.0395 6.421 10.6805C6.5005 10.7555 6.584 10.8295 6.671 10.9C6.956 10.7975 7.241 10.692 7.5185 10.5695C6.8085 10.1105 5.779 9.1185 5.711 7.2315L8.058 5.6295L10.4045 7.2315C10.3495 8.7565 9.6595 9.693 9.056 10.222L8.981 10.2795C8.9625 10.2935 7.151 11.6605 5.351 11.5115C4.225 11.4185 3.312 10.5085 2.9485 9.2405C3.04517 9.17242 3.12099 9.07878 3.16746 8.97006C3.21394 8.86134 3.22923 8.74183 3.21164 8.6249C3.19405 8.50798 3.14426 8.39826 3.06785 8.30803C2.99144 8.2178 2.89143 8.15062 2.779 8.114V8C2.779 7.2655 2.935 6.539 3.2375 5.8695C3.57444 6.00733 3.94954 6.02025 4.29517 5.90592C4.64079 5.7916 4.9342 5.55756 5.1225 5.246C5.25781 5.02184 5.33251 4.76634 5.33926 4.50459C5.34601 4.24284 5.28458 3.98384 5.161 3.753C5.14355 3.72165 5.12521 3.6908 5.106 3.6605C5.68636 3.27294 6.33792 3.0045 7.02286 2.87077C7.7078 2.73705 8.41248 2.74069 9.096 2.8815C9.77871 3.02155 10.4267 3.29617 11.0021 3.68935C11.5775 4.08253 12.0689 4.58638 12.4475 5.1715C12.0975 5.4665 11.969 5.948 12.1275 6.3765C12.2051 6.5862 12.3452 6.76705 12.5289 6.89463C12.7125 7.02222 12.9309 7.09041 13.1545 7.09H13.205C13.26 7.39 13.2885 7.695 13.29 8C13.29 10.7105 11.1215 12.8525 8.021 13.229C5.5415 13.532 3.951 12.508 3.951 12.508C4.8795 13.526 6.1765 14 8.0335 14C11.339 13.9645 14 11.2885 14 8C14 4.711 11.3385 2.035 8.032 2ZM2.9755 8.807C2.96091 8.87464 2.92904 8.93734 2.883 8.989C2.83879 8.78746 2.80822 8.58316 2.7915 8.3775C2.86287 8.42135 2.91889 8.48624 2.95185 8.56325C2.9848 8.64026 2.99306 8.7251 2.9755 8.807ZM4.955 3.861C5.07942 4.09341 5.12905 4.35857 5.0971 4.62025C5.06515 4.88192 4.95318 5.12735 4.7765 5.323C4.59916 5.51932 4.366 5.65668 4.10833 5.71665C3.85066 5.77662 3.58081 5.75633 3.335 5.6585C3.70842 4.92214 4.24963 4.28382 4.915 3.795C4.927 3.8165 4.943 3.839 4.9555 3.8615L4.955 3.861ZM13.1545 6.858C12.7995 6.858 12.4805 6.6415 12.3515 6.313C12.2885 6.15217 12.2758 5.976 12.3151 5.8078C12.3543 5.63959 12.4438 5.48728 12.5715 5.371C12.843 5.8335 13.0415 6.335 13.159 6.8575H13.154L13.1545 6.858Z" fill="white"/>
</g>
<defs>
<clipPath id="clip0_7_7711">
<rect width="16" height="16" fill="white"/>
</clipPath>
</defs>
</svg>
