<svg width="16" height="16" viewBox="0 0 16 16" fill="none" xmlns="http://www.w3.org/2000/svg">
<g clip-path="url(#clip0_7_7712)">
<path d="M8 16C12.4183 16 16 12.4183 16 8C16 3.58172 12.4183 0 8 0C3.58172 0 0 3.58172 0 8C0 12.4183 3.58172 16 8 16Z" fill="#00688C"/>
<path d="M13.4945 11.3355V4.99896L7.99245 1.82996L7.98495 1.83396L2.50195 5.00246V11.3375L7.98945 14.4985L7.98995 14.499L13.494 11.336L13.4945 11.3355ZM11.0595 10.3225L10.121 9.78446L8.02695 11C8.02089 11.0035 8.01399 11.0054 8.00695 11.0054C7.99992 11.0054 7.99302 11.0035 7.98695 11L5.58445 9.60746L5.58345 7.18496L3.47295 5.97496L7.97195 3.33746C7.97376 3.33635 7.97584 3.33577 7.97795 3.33577C7.98007 3.33577 7.98215 3.33635 7.98395 3.33746L12.1625 5.72646L11.4235 6.15396L7.98595 4.17596L4.93745 5.96546L5.99495 6.57296L7.98795 5.41396L7.98895 5.41296L10.424 6.80546L10.423 9.11046L12.4985 10.299L12.498 10.334L7.98995 12.966L3.81095 10.58L4.54245 10.1515L7.98295 12.125L11.0595 10.322V10.3225Z" fill="white"/>
<path d="M8.65283 7.57249V7.55549L8.65233 7.54449L8.65183 7.53849L8.65083 7.52599V7.52199L8.64933 7.50849V7.50499L8.64733 7.49099V7.48849L8.64533 7.47399V7.47199L8.64283 7.45699L8.64233 7.45599L8.63933 7.44099L8.63883 7.43949L8.63533 7.42449V7.42349C8.63438 7.41844 8.63321 7.41343 8.63183 7.40849V7.40749L8.62733 7.39249L8.62283 7.37599C8.62016 7.36578 8.61682 7.35576 8.61283 7.34599V7.34549L8.60683 7.33049C8.605 7.32542 8.60299 7.32042 8.60083 7.31549L8.59433 7.30049L8.58783 7.28649L8.58083 7.27149L8.57383 7.25749L8.56583 7.24349C8.5631 7.23902 8.56043 7.23452 8.55783 7.22999V7.22949L8.54983 7.21649L8.54933 7.21599C8.54663 7.21173 8.54379 7.20756 8.54083 7.20349V7.20249L8.53233 7.19049C8.53233 7.19049 8.53233 7.18949 8.53133 7.18949L8.52283 7.17749L8.52183 7.17649C8.51883 7.17249 8.51683 7.16849 8.51333 7.16449L8.51283 7.16349L8.50333 7.15199L8.50233 7.15099L8.49333 7.13999L8.49233 7.13899L8.48233 7.12849C8.48191 7.12805 8.48157 7.12754 8.48133 7.12699L8.47183 7.11649C8.47141 7.11605 8.47107 7.11554 8.47083 7.11499L8.46133 7.10499C8.4575 7.10115 8.45366 7.09732 8.44983 7.09349L8.44833 7.09199L8.43833 7.08199C8.43449 7.07865 8.43066 7.07532 8.42683 7.07199L8.42533 7.07049C8.42191 7.06723 8.41841 7.06406 8.41483 7.06099L8.41333 7.05949C8.40992 7.05654 8.40642 7.05371 8.40283 7.05099L8.40133 7.04999L8.39033 7.04099L8.38883 7.03999L8.37733 7.03149L8.37583 7.03049L8.36433 7.02199L8.36283 7.02099L8.35133 7.01299L8.34983 7.01249L8.33783 7.00449L8.33683 7.00349L8.32433 6.99599H8.32333L8.31033 6.98799H8.30933L8.29583 6.97999C8.13624 6.91259 7.95628 6.90953 7.79448 6.97144C7.63269 7.03334 7.50111 7.15543 7.42728 7.31214C7.35345 7.46885 7.34308 7.64804 7.39835 7.81222C7.45363 7.9764 7.57025 8.11284 7.72383 8.19299L7.43383 9.51899H8.53083L8.23833 8.19399C8.48933 8.08899 8.65283 7.84399 8.65283 7.57249Z" fill="white"/>
</g>
<defs>
<clipPath id="clip0_7_7712">
<rect width="16" height="16" fill="white"/>
</clipPath>
</defs>
</svg>
