<svg width="16" height="16" viewBox="0 0 16 16" fill="none" xmlns="http://www.w3.org/2000/svg">
<g clip-path="url(#clip0_7_7710)">
<path d="M8 16C12.4183 16 16 12.4183 16 8C16 3.58172 12.4183 0 8 0C3.58172 0 0 3.58172 0 8C0 12.4183 3.58172 16 8 16Z" fill="#B68900"/>
<path d="M13.3165 7.9085L7.9085 2.5L2.5 7.9085L7.9085 9.9065L13.3165 7.9085ZM4.182 7.45L7.8485 3.701C7.8485 3.701 11.433 7.3675 11.584 7.441C11.7355 7.514 9.1185 7.441 9.1185 7.441L7.9085 6.2035L6.6845 7.45H4.182ZM7.9085 10.287L13.3165 8.275L7.9085 13.3165L2.5 8.3025L7.9085 10.2875V10.287Z" fill="white"/>
</g>
<defs>
<clipPath id="clip0_7_7710">
<rect width="16" height="16" fill="white"/>
</clipPath>
</defs>
</svg>
