<svg width="16" height="16" viewBox="0 0 16 16" fill="none" xmlns="http://www.w3.org/2000/svg">
<g clip-path="url(#clip0_7_8080)">
<path d="M8 16C12.4183 16 16 12.4183 16 8C16 3.58172 12.4183 0 8 0C3.58172 0 0 3.58172 0 8C0 12.4183 3.58172 16 8 16Z" fill="#2B77B3"/>
<path d="M13.5002 8.0195C13.4767 11.0735 11.0017 13.5225 7.96168 13.4995C4.91918 13.477 2.47568 10.991 2.50018 7.9435C2.52518 4.925 5.00718 2.48 8.02518 2.5C11.0652 2.5205 13.5222 4.998 13.5002 8.02V8.0195ZM2.89818 8.002C2.90368 10.812 5.17718 13.0805 7.99268 13.087C10.8112 13.092 13.1107 10.808 13.1012 7.995C13.0907 5.065 10.6637 2.855 7.87018 2.903C5.16918 2.949 2.89268 5.245 2.89818 8.002ZM9.34068 5.614L9.13718 6.265C8.75818 6.2025 8.40718 6.128 8.05168 6.093C7.84068 6.0725 7.62168 6.1275 7.54018 6.365C7.45618 6.6085 7.44618 6.868 7.64768 7.056C7.85468 7.2485 8.09768 7.401 8.32468 7.572C8.53318 7.729 8.76268 7.866 8.94468 8.0495C9.43818 8.5475 9.52568 9.1515 9.32318 9.8025C9.20318 10.1885 8.91718 10.4325 8.55118 10.5805C7.99118 10.8075 7.03768 10.6955 6.50218 10.3355L6.73718 9.6535C7.07818 9.7435 7.39018 9.8515 7.71118 9.9025C8.01718 9.951 8.33768 9.904 8.49468 9.5915C8.65268 9.2765 8.60268 8.945 8.35518 8.692C8.16418 8.497 7.92468 8.3485 7.70118 8.186C7.55218 8.078 7.38568 7.993 7.24068 7.88C6.95954 7.66504 6.75936 7.36131 6.67267 7.01819C6.58598 6.67506 6.61788 6.3127 6.76318 5.99C6.82723 5.8359 6.92747 5.6995 7.05541 5.59236C7.18335 5.48522 7.33523 5.41049 7.49818 5.3745C8.12568 5.2255 8.73418 5.293 9.34068 5.6145V5.614ZM5.30068 7.909C5.30069 8.07629 5.23468 8.23683 5.117 8.35573C4.99932 8.47463 4.83947 8.54229 4.67218 8.544C4.32218 8.5455 4.02318 8.2405 4.03118 7.892C4.03777 7.72482 4.10882 7.56667 4.22944 7.45072C4.35005 7.33476 4.51087 7.27 4.67818 7.27C5.02818 7.275 5.30318 7.5575 5.30118 7.909H5.30068ZM11.3472 7.2875C11.6962 7.287 11.9562 7.5445 11.9607 7.8955C11.9626 7.98031 11.9475 8.06464 11.9163 8.14351C11.885 8.22238 11.8383 8.29417 11.7788 8.35465C11.7193 8.41512 11.6483 8.46303 11.5699 8.49556C11.4916 8.52809 11.4075 8.54456 11.3227 8.544C11.1553 8.54124 10.9957 8.47262 10.8785 8.35301C10.7613 8.2334 10.696 8.07244 10.6967 7.905C10.6967 7.539 10.9617 7.2875 11.3472 7.2875Z" fill="white"/>
</g>
<defs>
<clipPath id="clip0_7_8080">
<rect width="16" height="16" fill="white"/>
</clipPath>
</defs>
</svg>
