<svg width="16" height="16" viewBox="0 0 16 16" fill="none" xmlns="http://www.w3.org/2000/svg">
<g clip-path="url(#clip0_7_7707)">
<path d="M8 16C12.4183 16 16 12.4183 16 8C16 3.58172 12.4183 0 8 0C3.58172 0 0 3.58172 0 8C0 12.4183 3.58172 16 8 16Z" fill="#04ADEF"/>
<path d="M5.375 3.5335L4.5 4.4335V8L5.375 8.9H8.8425V10.7H7.125V9.8H4.5V11.6L5.375 12.5H10.5925L11.4675 11.6V8L10.5925 7.1H7.125V5.3H8.875V6.2H11.5V4.4L10.625 3.5H5.375V3.5335Z" fill="white"/>
</g>
<defs>
<clipPath id="clip0_7_7707">
<rect width="16" height="16" fill="white"/>
</clipPath>
</defs>
</svg>
