<svg width="16" height="16" viewBox="0 0 16 16" fill="none" xmlns="http://www.w3.org/2000/svg">
<g clip-path="url(#clip0_7_7704)">
<path d="M8 16C12.4183 16 16 12.4183 16 8C16 3.58172 12.4183 0 8 0C3.58172 0 0 3.58172 0 8C0 12.4183 3.58172 16 8 16Z" fill="#48B254"/>
<path fill-rule="evenodd" clip-rule="evenodd" d="M11.3405 3.684L11.813 4.113L5.847 7.519L2.959 5.8565L3.229 5.32L5.847 6.8085L11.3405 3.684ZM10.1395 3L10.7735 3.322L5.847 6.138L3.553 4.837L3.944 4.368L5.847 5.454L10.14 3H10.1395ZM12.2315 4.5555L12.582 5.025L5.847 8.8735L2.5945 7.023L2.743 6.433L5.847 8.203L12.2315 4.5555ZM13.203 6.2855C13.401 6.84 13.5 7.4205 13.5 8.0285C13.5 8.6365 13.401 9.227 13.203 9.7985L13.068 10.161C12.7908 10.8112 12.3924 11.4027 11.894 11.904C11.3897 12.3991 10.7936 12.791 10.139 13.0575C9.4465 13.3525 8.7315 13.5 7.9935 13.5C7.2465 13.5 6.531 13.3525 5.847 13.0575C5.20026 12.7841 4.60991 12.393 4.106 11.904C3.60191 11.4075 3.20269 10.8147 2.932 10.161C2.647 9.486 2.4995 8.761 2.5 8.0285V7.6665L5.847 9.5575L12.906 5.5345L13.203 6.2855Z" fill="white"/>
</g>
<defs>
<clipPath id="clip0_7_7704">
<rect width="16" height="16" fill="white"/>
</clipPath>
</defs>
</svg>
