<svg width="16" height="16" viewBox="0 0 16 16" fill="none" xmlns="http://www.w3.org/2000/svg">
<g clip-path="url(#clip0_7_7819)">
<path d="M8 16C12.4183 16 16 12.4183 16 8C16 3.58172 12.4183 0 8 0C3.58172 0 0 3.58172 0 8C0 12.4183 3.58172 16 8 16Z" fill="#20EE82"/>
<path fill-rule="evenodd" clip-rule="evenodd" d="M8 3.75C9.12717 3.75 10.2082 4.19777 11.0052 4.9948C11.8022 5.79183 12.25 6.87283 12.25 8V12.25H8C6.87283 12.25 5.79183 11.8022 4.9948 11.0052C4.19777 10.2082 3.75 9.12717 3.75 8C3.75 6.87283 4.19777 5.79183 4.9948 4.9948C5.79183 4.19777 6.87283 3.75 8 3.75ZM10.55 10.55V8.0385C10.55 6.6285 9.4225 5.457 8.013 5.45C7.67605 5.44868 7.34217 5.51407 7.03062 5.6424C6.71907 5.77074 6.436 5.95948 6.19774 6.19774C5.95948 6.436 5.77074 6.71907 5.6424 7.03062C5.51407 7.34217 5.44868 7.67605 5.45 8.013C5.457 9.4225 6.629 10.55 8.0385 10.55H10.55Z" fill="white"/>
</g>
<defs>
<clipPath id="clip0_7_7819">
<rect width="16" height="16" fill="white"/>
</clipPath>
</defs>
</svg>
