<svg width="16" height="16" viewBox="0 0 16 16" fill="none" xmlns="http://www.w3.org/2000/svg">
<g clip-path="url(#clip0_7_8106)">
<path d="M8 16C12.4183 16 16 12.4183 16 8C16 3.58172 12.4183 0 8 0C3.58172 0 0 3.58172 0 8C0 12.4183 3.58172 16 8 16Z" fill="#6DC6C1"/>
<path d="M7.99995 11.3255C6.36845 11.3255 5.04395 10.031 5.04395 8.43698C5.04395 6.88698 7.71994 4.15048 7.83345 4.03548L7.97344 3.89148L8.11745 4.03148C8.23445 4.14648 10.9559 6.88348 10.9559 8.43348C10.9559 10.031 9.63095 11.3255 7.99995 11.3255ZM7.97745 4.44998C7.55066 4.9018 7.14521 5.37331 6.76244 5.86298C5.89544 6.97998 5.43745 7.86748 5.43745 8.43298C5.43745 9.81298 6.58795 10.9375 7.99995 10.9375C9.41195 10.9375 10.5624 9.81248 10.5624 8.43348C10.5624 7.86748 10.0969 6.97998 9.21495 5.86298C8.82404 5.37349 8.41112 4.90201 7.97745 4.44998Z" fill="white"/>
<path d="M7.99966 12.25C5.84616 12.25 4.09766 10.538 4.09766 8.437C4.09766 6.3805 7.03466 3.5105 7.15966 3.392C7.19757 3.35639 7.24764 3.33656 7.29966 3.33656C7.35168 3.33656 7.40174 3.35639 7.43966 3.392C7.51516 3.466 7.51516 3.592 7.43966 3.666C7.40966 3.6955 4.49466 6.5435 4.49466 8.437C4.49466 10.327 6.06966 11.8655 8.00366 11.8655C9.93766 11.8655 11.5122 10.327 11.5122 8.437C11.5122 7.6605 10.9972 6.5875 10.0207 5.3265C9.27116 4.3615 8.51816 3.629 8.51066 3.6215C8.49182 3.604 8.47679 3.5828 8.46651 3.55923C8.45624 3.53565 8.45094 3.51021 8.45094 3.4845C8.45094 3.45879 8.45624 3.43335 8.46651 3.40977C8.47679 3.3862 8.49182 3.365 8.51066 3.3475C8.52901 3.32906 8.55082 3.31442 8.57485 3.30443C8.59888 3.29445 8.62464 3.28931 8.65066 3.28931C8.67667 3.28931 8.70244 3.29445 8.72646 3.30443C8.75049 3.31442 8.7723 3.32906 8.79066 3.3475C8.91916 3.47 11.9097 6.377 11.9097 8.4375C11.9017 10.5375 10.1532 12.25 7.99966 12.25Z" fill="white"/>
<path d="M8 13.175C5.381 13.175 3.25 11.0925 3.25 8.53297C3.25 7.47547 3.795 6.17297 4.866 4.66797C5.35205 3.98517 5.88713 3.33863 6.467 2.73347C6.50405 2.69659 6.55402 2.6756 6.60629 2.67494C6.65857 2.67429 6.70904 2.69403 6.747 2.72997C6.76564 2.74743 6.78056 2.76845 6.79089 2.7918C6.80121 2.81515 6.80673 2.84034 6.8071 2.86587C6.80748 2.8914 6.8027 2.91674 6.79306 2.94039C6.78342 2.96403 6.76912 2.98548 6.751 3.00347C6.18614 3.59588 5.66385 4.22745 5.188 4.89347C4.1775 6.31047 3.6435 7.56797 3.6435 8.53347C3.6435 10.8785 5.5965 12.7905 8 12.7905C10.4035 12.7905 12.3565 10.882 12.3565 8.53297C12.3565 7.56797 11.819 6.31047 10.801 4.89347C10.32 4.22708 9.79253 3.5955 9.2225 3.00347C9.20438 2.98548 9.19008 2.96403 9.18044 2.94039C9.1708 2.91674 9.16602 2.8914 9.1664 2.86587C9.16677 2.84034 9.17229 2.81515 9.18261 2.7918C9.19294 2.76845 9.20786 2.74743 9.2265 2.72997C9.26446 2.69403 9.31493 2.67429 9.36721 2.67494C9.41948 2.6756 9.46945 2.69659 9.5065 2.73347C9.639 2.86697 12.75 6.02547 12.75 8.53347C12.75 11.0925 10.619 13.175 8 13.175Z" fill="white"/>
</g>
<defs>
<clipPath id="clip0_7_8106">
<rect width="16" height="16" fill="white"/>
</clipPath>
</defs>
</svg>
