<svg width="16" height="16" viewBox="0 0 16 16" fill="none" xmlns="http://www.w3.org/2000/svg">
<g clip-path="url(#clip0_7_7971)">
<path d="M8 16C12.4183 16 16 12.4183 16 8C16 3.58172 12.4183 0 8 0C3.58172 0 0 3.58172 0 8C0 12.4183 3.58172 16 8 16Z" fill="#964B9C"/>
<path opacity="0.6" d="M10.2536 8.203L8.01758 10.4385H12.4886L10.2536 8.203Z" fill="white"/>
<path opacity="0.7" d="M5.76382 8.20497L7.99982 5.96997H3.52832L5.76432 8.20547L5.76382 8.20497Z" fill="white"/>
<path opacity="0.4" d="M8.01763 10.439L10.2476 8.20902L8.00763 5.96802L3.53613 10.439L8.00713 14.9105L12.4786 10.439H12.4776H8.01763Z" fill="white"/>
<path opacity="0.8" d="M8.02807 1.5L3.55957 5.9685H8.00007L5.77707 8.1915L8.02807 10.442L12.4991 5.971L8.02807 1.5Z" fill="white"/>
</g>
<defs>
<clipPath id="clip0_7_7971">
<rect width="16" height="16" fill="white"/>
</clipPath>
</defs>
</svg>
