<svg width="16" height="16" viewBox="0 0 16 16" fill="none" xmlns="http://www.w3.org/2000/svg">
<g clip-path="url(#clip0_7_8012)">
<path d="M8 16C12.4183 16 16 12.4183 16 8C16 3.58172 12.4183 0 8 0C3.58172 0 0 3.58172 0 8C0 12.4183 3.58172 16 8 16Z" fill="#057BC1"/>
<path d="M8 2C4.6865 2 2 4.6865 2 8C2 11.3135 4.6865 14 8 14C11.3135 14 14 11.3135 14 8C14 6.4087 13.3679 4.88258 12.2426 3.75736C11.1174 2.63214 9.5913 2 8 2ZM10.088 10.2635H9.844V11.6295H9.024V10.2635H7.7755V9.756H9.044V8.839C8.38538 9.20602 7.61883 9.33024 6.878 9.19C6.468 9.0925 6.0585 8.8685 5.844 8.4975C5.6402 8.13475 5.53892 7.7234 5.551 7.3075V5.1415H6.3805V7.3855C6.4 7.873 6.712 8.361 7.1905 8.5075C7.81977 8.65199 8.48054 8.54697 9.034 8.2145C9.034 7.5315 9.024 6.5075 9.034 5.1415H9.873V9.7565H10.088V10.2635Z" fill="white"/>
</g>
<defs>
<clipPath id="clip0_7_8012">
<rect width="16" height="16" fill="white"/>
</clipPath>
</defs>
</svg>
