<svg width="16" height="16" viewBox="0 0 16 16" fill="none" xmlns="http://www.w3.org/2000/svg">
<g clip-path="url(#clip0_3787_13348)">
<path d="M8 16C12.4183 16 16 12.4183 16 8C16 3.58172 12.4183 0 8 0C3.58172 0 0 3.58172 0 8C0 12.4183 3.58172 16 8 16Z" fill="black"/>
<path d="M8.7994 7.23253V3.5H6.66667C5.95942 3.5 5.28115 3.78095 4.78105 4.28105C4.28095 4.78115 4 5.45942 4 6.16667C4 6.87391 4.28095 7.55219 4.78105 8.05229C5.28115 8.55238 5.95942 8.83333 6.66667 8.83333H7.1996V7.22751L8.7994 7.23253Z" fill="white"/>
<path d="M9.33333 7.23253H8.7994V8.83835H7.1996V12.5659H9.33333C10.0406 12.5659 10.7189 12.2849 11.219 11.7848C11.719 11.2847 12 10.6064 12 9.8992C12 9.19195 11.719 8.51368 11.219 8.01358C10.7189 7.51348 10.0406 7.23253 9.33333 7.23253Z" fill="white"/>
</g>
<defs>
<clipPath id="clip0_3787_13348">
<rect width="16" height="16" fill="white"/>
</clipPath>
</defs>
</svg>
