<svg width="16" height="16" viewBox="0 0 16 16" fill="none" xmlns="http://www.w3.org/2000/svg">
<g clip-path="url(#clip0_7_7732)">
<path d="M8 16C12.4183 16 16 12.4183 16 8C16 3.58172 12.4183 0 8 0C3.58172 0 0 3.58172 0 8C0 12.4183 3.58172 16 8 16Z" fill="#F5342E"/>
<path d="M3.00027 8.06196C2.99456 7.50494 3.0802 6.95076 3.25377 6.42146C3.44972 5.82121 3.75766 5.26354 4.16127 4.77796C4.61919 4.22083 5.19457 3.77179 5.84627 3.46296C6.27816 3.25747 6.73874 3.11873 7.21227 3.05146C7.49688 3.00933 7.78474 2.99327 8.07227 3.00346C8.64009 3.02422 9.19974 3.14543 9.72527 3.36146C9.73327 3.36496 9.74277 3.36846 9.74377 3.37846C9.74477 3.39146 9.73327 3.39546 9.72377 3.39946L9.54377 3.46946C9.15161 3.62179 8.76834 3.79606 8.39577 3.99146C7.98227 4.20996 7.58527 4.45496 7.21677 4.74746C6.89677 5.00196 6.60427 5.28496 6.36677 5.62396C6.20677 5.85196 6.08077 6.09696 6.01177 6.37046C5.92377 6.71646 5.94527 7.05896 6.04527 7.39846C6.11877 7.64946 6.22927 7.88445 6.35127 8.11345C6.50527 8.40345 6.67977 8.68095 6.84027 8.96696C6.98627 9.22696 7.12227 9.49196 7.21227 9.77946C7.27477 9.97996 7.31227 10.1855 7.30827 10.3965C7.30153 10.6701 7.23099 10.9384 7.10227 11.18C6.95077 11.472 6.74327 11.718 6.51227 11.945C6.29877 12.1545 6.06677 12.339 5.82727 12.515C5.79227 12.541 5.76477 12.54 5.72827 12.521C5.37934 12.3436 5.05286 12.1253 4.75577 11.8705C4.39549 11.5615 4.08115 11.2027 3.82227 10.805C3.39723 10.1518 3.12797 9.4097 3.03527 8.63595C3.01053 8.44564 2.99883 8.25386 3.00027 8.06196Z" fill="white"/>
<path d="M6.02344 12.6205C6.03244 12.599 6.05494 12.5985 6.07194 12.5925C6.4213 12.4648 6.76495 12.322 7.10194 12.1645C7.49694 11.9785 7.88144 11.7725 8.24544 11.532C8.52974 11.3473 8.79742 11.1382 9.04544 10.907C9.28944 10.677 9.50544 10.425 9.67344 10.135C9.80944 9.9 9.90144 9.6495 9.93144 9.379C9.95626 9.13303 9.93299 8.88458 9.86294 8.6475C9.78794 8.383 9.67044 8.1365 9.53844 7.896C9.38044 7.6075 9.20094 7.331 9.03544 7.047C8.89494 6.8055 8.76394 6.5595 8.66894 6.296C8.57317 6.04283 8.53259 5.77212 8.54994 5.502C8.56344 5.317 8.61144 5.139 8.68594 4.968C8.79794 4.711 8.95944 4.4865 9.14694 4.2795C9.42094 3.976 9.73944 3.7245 10.0714 3.4875C10.1079 3.461 10.1384 3.458 10.1789 3.4785C10.5319 3.6555 10.8619 3.8665 11.1664 4.117C11.4779 4.3735 11.7549 4.662 11.9964 4.9835C12.57 5.74245 12.9123 6.65079 12.9824 7.5995C12.9934 7.757 13.0034 7.9145 12.9989 8.0725C12.9882 8.53232 12.9155 8.98859 12.7829 9.429C12.5243 10.276 12.0459 11.0394 11.3964 11.6415C10.6801 12.3056 9.78806 12.7499 8.82644 12.9215C8.48781 12.9809 8.14414 13.0067 7.80044 12.9985C7.20868 12.9834 6.62403 12.8658 6.07244 12.651C6.05444 12.643 6.03344 12.641 6.02344 12.621V12.6205Z" fill="white"/>
</g>
<defs>
<clipPath id="clip0_7_7732">
<rect width="16" height="16" fill="white"/>
</clipPath>
</defs>
</svg>
