<svg width="16" height="16" viewBox="0 0 16 16" fill="none" xmlns="http://www.w3.org/2000/svg">
<g clip-path="url(#clip0_7_7806)">
<path d="M8 16C12.4183 16 16 12.4183 16 8C16 3.58172 12.4183 0 8 0C3.58172 0 0 3.58172 0 8C0 12.4183 3.58172 16 8 16Z" fill="black"/>
<path d="M11.257 4.246V4.7415H4.905V11.2585H11.257V12.25L7.547 12.2215L3.822 12.179L3.779 7.9575L3.75 3.75H11.257V4.246Z" fill="white"/>
<path d="M11.8488 5.44996C12.4118 5.60596 12.9028 6.04496 13.0613 6.54096C13.1478 6.83846 13.1048 6.86646 12.5993 6.86646C12.2093 6.86646 11.9933 6.78146 11.8633 6.58346C11.6468 6.22896 10.6648 6.18646 10.3763 6.52646C10.0588 6.90896 10.4053 7.19246 11.5313 7.44746C12.0943 7.57496 12.6863 7.78746 12.8448 7.92896C13.5668 8.56646 13.2778 9.96896 12.3398 10.3515C11.7048 10.6065 10.6648 10.6065 10.0298 10.3515C9.59681 10.1675 9.09131 9.52996 9.09131 9.13346C9.09131 8.87846 10.0298 8.97746 10.2753 9.27496C10.7953 9.85596 12.0073 9.77096 12.0943 9.14746C12.1663 8.66596 11.8918 8.45346 11.0693 8.35396C9.72681 8.16996 9.23581 7.75896 9.23581 6.82396C9.23581 5.71896 10.4483 5.06746 11.8488 5.44996Z" fill="white"/>
</g>
<defs>
<clipPath id="clip0_7_7806">
<rect width="16" height="16" fill="white"/>
</clipPath>
</defs>
</svg>
