<svg width="16" height="16" viewBox="0 0 16 16" fill="none" xmlns="http://www.w3.org/2000/svg">
<g clip-path="url(#clip0_7_7702)">
<path d="M8 16C12.4183 16 16 12.4183 16 8C16 3.58172 12.4183 0 8 0C3.58172 0 0 3.58172 0 8C0 12.4183 3.58172 16 8 16Z" fill="#0072FF"/>
<path d="M12.0135 6.4015L9.6075 11.75H8.646L11.1785 6.12C11.4704 6.16733 11.7525 6.26244 12.0135 6.4015ZM7.8035 3.2595L4.102 11.489C3.158 11.041 2.5 10.0595 2.5 8.9165C2.5 7.3515 3.731 6.0835 5.25 6.0835C5.25 4.586 6.377 3.3635 7.8035 3.2595ZM10.7505 6.0835L8.201 11.75H7.1595L10.3605 4.635C10.607 5.059 10.7505 5.553 10.7505 6.0835ZM11.6975 11.5745L13.3305 7.9465C13.4385 8.2505 13.5 8.5765 13.5 8.918C13.5 10.137 12.75 11.1755 11.6975 11.5745ZM12.4185 6.6675C12.6465 6.8475 12.8485 7.0615 13.0115 7.307L11.0185 11.736C10.9295 11.7454 10.84 11.7501 10.7505 11.75H10.1325L12.4185 6.6675ZM8.01 3.25C8.4 3.2515 8.7695 3.337 9.105 3.4905L5.39 11.75H5.25C4.905 11.75 4.575 11.682 4.2715 11.5615L8.01 3.25ZM10.1435 4.309L6.796 11.75H5.673L9.3365 3.6075C9.6475 3.7865 9.9215 4.0255 10.1435 4.309Z" fill="white"/>
</g>
<defs>
<clipPath id="clip0_7_7702">
<rect width="16" height="16" fill="white"/>
</clipPath>
</defs>
</svg>
