<svg width="16" height="16" viewBox="0 0 16 16" fill="none" xmlns="http://www.w3.org/2000/svg">
<g clip-path="url(#clip0_7_7801)">
<path d="M8 16C12.4183 16 16 12.4183 16 8C16 3.58172 12.4183 0 8 0C3.58172 0 0 3.58172 0 8C0 12.4183 3.58172 16 8 16Z" fill="#FDA616"/>
<path d="M5.96022 11C6.01872 11.182 6.74272 11.932 7.49622 11.932C8.61322 11.932 9.26572 11.258 9.26572 10.283C9.26572 9.38 8.81372 8.864 7.67172 8.362C6.29122 7.803 5.43772 6.9855 5.43772 5.6235C5.43772 4.1185 6.52972 3 8.17372 3C9.03972 3 9.91722 3.545 10.2082 3.909L9.50972 4.6365C9.23372 4.4645 8.90222 4.032 8.13622 4.032C6.98172 4.032 6.54222 4.8205 6.54222 5.48C6.54222 6.3835 7.05722 6.828 8.22372 7.344C9.65472 7.975 10.3827 8.7635 10.3827 10.1825C10.3827 11.674 9.41072 13 7.41522 13C6.59922 13 5.72772 12.455 5.20372 11.788L5.96022 11ZM6.89122 5.8485C6.71672 5.485 6.83322 5.1215 6.83322 5.1215C11.2552 4.394 10.4407 8.6965 10.4407 8.6965C10.0917 8.0305 9.74272 7.909 9.74272 7.909C9.80072 5.424 6.89122 5.8485 6.89122 5.8485ZM8.86972 9.788C9.04472 10.2125 8.84272 10.654 8.84272 10.654C3.80772 11.303 5.16772 6.699 5.16622 6.699C5.43322 7.406 5.76522 7.5715 5.76522 7.5715C5.67022 10.4545 8.86972 9.788 8.86972 9.788Z" fill="white"/>
</g>
<defs>
<clipPath id="clip0_7_7801">
<rect width="16" height="16" fill="white"/>
</clipPath>
</defs>
</svg>
