<svg width="16" height="16" viewBox="0 0 16 16" fill="none" xmlns="http://www.w3.org/2000/svg">
<g clip-path="url(#clip0_7_7797)">
<path d="M8 16C12.4183 16 16 12.4183 16 8C16 3.58172 12.4183 0 8 0C3.58172 0 0 3.58172 0 8C0 12.4183 3.58172 16 8 16Z" fill="#8E9495"/>
<path d="M3.8115 10.3555C3.69698 10.1086 3.61205 9.84894 3.5585 9.58204C3.52764 9.44149 3.50808 9.2987 3.5 9.15504H3.947C3.95721 9.27055 3.97391 9.3854 3.997 9.49904C4.0455 9.73354 4.1185 9.96654 4.2185 10.179C4.4865 10.747 4.8935 11.071 5.4845 11.071C5.9465 11.071 6.3045 10.886 6.5565 10.56C6.7705 10.2845 6.8915 9.91904 6.8915 9.61204C6.8915 9.21854 6.7425 8.92854 6.445 8.68304C6.203 8.48304 5.9245 8.34304 5.3495 8.10404L5.248 8.06204C4.65 7.81454 4.374 7.67854 4.1055 7.46654C3.7345 7.17354 3.5375 6.81004 3.5375 6.34454C3.5375 5.78704 3.738 5.31454 4.097 4.98054C4.43744 4.66891 4.88298 4.4973 5.3445 4.50004C5.9845 4.50004 6.473 4.76654 6.798 5.23354V4.59854H8.242V10.972H8.671V9.18354C8.67028 9.16888 8.67028 9.15419 8.671 9.13954L9.118 9.15454V9.17704C9.12681 9.28547 9.14183 9.39332 9.163 9.50004C9.2095 9.73254 9.2815 9.96604 9.3815 10.1785C9.648 10.746 10.0555 11.0705 10.646 11.0705C11.108 11.0705 11.466 10.8855 11.718 10.5595C11.932 10.284 12.053 9.91854 12.053 9.61154C12.053 9.21804 11.904 8.92804 11.6065 8.68254C11.3645 8.48254 11.086 8.34254 10.511 8.10354L10.4095 8.06154C9.8115 7.81404 9.5355 7.67804 9.267 7.46604C8.896 7.17304 8.699 6.80954 8.699 6.34404C8.699 5.78654 8.8995 5.31404 9.2585 4.98004C9.59901 4.66859 10.0445 4.49716 10.506 4.50004C11.146 4.50004 11.6345 4.76654 11.9595 5.23354V4.62554H12.407V6.83654H11.9595C11.9595 6.37454 11.8535 5.90654 11.645 5.56104C11.399 5.15254 11.029 4.92954 10.506 4.92954C10.1598 4.92702 9.82533 5.05523 9.5695 5.28854C9.2995 5.54054 9.146 5.90104 9.146 6.34404C9.146 6.67404 9.279 6.91904 9.551 7.13404C9.776 7.31154 10.028 7.43554 10.5865 7.66704L10.688 7.70904C11.3045 7.96454 11.61 8.11904 11.898 8.35654C12.2915 8.68154 12.5 9.08854 12.5 9.61154C12.5 10.0095 12.349 10.4645 12.077 10.8165C11.7425 11.248 11.254 11.5 10.646 11.5C10.2245 11.5 9.863 11.372 9.566 11.135C9.38825 10.9913 9.23668 10.8179 9.118 10.6225V11.4015H7.795V5.02804H7.245V6.83654H6.798C6.798 6.37454 6.692 5.90654 6.4835 5.56104C6.2375 5.15254 5.8675 4.92954 5.3445 4.92954C4.99827 4.92702 4.66383 5.05523 4.408 5.28854C4.138 5.54054 3.9845 5.90104 3.9845 6.34404C3.9845 6.67404 4.1175 6.91904 4.3895 7.13404C4.6145 7.31154 4.8665 7.43554 5.425 7.66704L5.5265 7.70904C6.143 7.96454 6.4485 8.11904 6.7365 8.35654C7.13 8.68154 7.3385 9.08854 7.3385 9.61154C7.3385 10.0095 7.1875 10.4645 6.9155 10.8165C6.581 11.248 6.0925 11.5 5.4845 11.5C5.063 11.5 4.7015 11.372 4.4045 11.135C4.22229 10.9877 4.06743 10.8095 3.947 10.6085V11.3745H3.5V9.15504H3.947V10.6085C3.8973 10.5267 3.85207 10.4423 3.8115 10.3555Z" fill="white"/>
</g>
<defs>
<clipPath id="clip0_7_7797">
<rect width="16" height="16" fill="white"/>
</clipPath>
</defs>
</svg>
