<svg width="16" height="16" viewBox="0 0 16 16" fill="none" xmlns="http://www.w3.org/2000/svg">
<g clip-path="url(#clip0_7_8061)">
<path d="M8 16C12.4183 16 16 12.4183 16 8C16 3.58172 12.4183 0 8 0C3.58172 0 0 3.58172 0 8C0 12.4183 3.58172 16 8 16Z" fill="#FEC60D"/>
<path d="M13.3334 5.07355L11.6144 4.08405C11.5554 4.04905 11.5009 4.01855 11.4424 3.98505C11.3854 3.95255 11.3299 3.91755 11.2719 3.88405C10.9274 3.68705 10.5819 3.49605 10.2414 3.29205L8.60843 2.34905C8.51343 2.29155 8.02243 2.00305 8.00143 2.00305C7.99293 2.00305 7.93093 2.04305 7.91743 2.05155L5.68643 3.33655C5.65393 3.35505 5.63143 3.36955 5.59843 3.38755C5.57007 3.40326 5.54206 3.4196 5.51443 3.43655L5.34343 3.53655C5.31433 3.55412 5.285 3.57129 5.25543 3.58805L5.08743 3.68505C5.02843 3.72005 4.97293 3.75005 4.91493 3.78355L4.56943 3.98105C4.53943 3.99655 4.51443 4.01305 4.48543 4.02955L4.05343 4.27955C3.99343 4.31455 3.93793 4.34355 3.87943 4.37705L3.53793 4.57855C3.36643 4.67655 3.19443 4.78105 3.02043 4.87555C2.94393 4.91655 2.54243 5.16155 2.50293 5.17205V11.5291C2.53493 11.5321 2.97393 11.7936 3.01943 11.8206L3.70743 12.2186C3.76493 12.2536 3.82243 12.2851 3.87943 12.3181L4.21943 12.5141C4.24843 12.5291 4.27443 12.5461 4.30443 12.5626C4.33743 12.5806 4.35893 12.5961 4.39243 12.6126C4.47993 12.6576 4.56393 12.7111 4.64743 12.7616L5.08043 13.0111C5.11043 13.0276 5.13443 13.0421 5.16393 13.0596C5.33293 13.1616 5.50843 13.2531 5.67693 13.3546L6.28043 13.7046C6.67893 13.9401 7.08543 14.1596 7.48193 14.3976L7.95343 14.6706C8.02843 14.7211 8.05593 14.6641 8.17393 14.5996L9.20693 14.0036C9.26393 13.9706 9.31943 13.9386 9.37943 13.9051L9.54793 13.8086C9.57643 13.7931 9.60293 13.7766 9.63143 13.7591L10.5789 13.2106C10.8619 13.0411 11.1539 12.8876 11.4369 12.7176L13.3234 11.6246C13.3509 11.6081 13.3784 11.5916 13.4074 11.5756C13.4374 11.5596 13.4659 11.5371 13.4999 11.5296V5.17205C13.4464 5.13605 13.3909 5.10855 13.3334 5.07355ZM9.93843 11.2956H8.33093V11.7166C8.33093 11.7216 8.32893 11.7231 8.32393 11.7231H7.54893V11.2956H6.06443V10.1056C6.06443 10.0931 6.07943 10.0826 6.08693 10.0756L6.23743 9.91305C6.24187 9.90899 6.24604 9.90465 6.24993 9.90005C6.2534 9.89525 6.25725 9.89074 6.26143 9.88655L6.34893 9.79355L6.34993 9.79205L6.37593 9.76555L6.38743 9.75155L6.41543 9.72205L6.41843 9.71855L6.51193 9.61755C6.53193 9.59705 6.55193 9.57755 6.57093 9.55505L6.57193 9.55405L6.57493 9.55005L6.63793 9.48305C6.64693 9.47305 6.65393 9.46755 6.66243 9.45655L6.73843 9.37555L6.75093 9.36305C6.75506 9.35863 6.7589 9.35396 6.76243 9.34905L6.88993 9.21305L6.89093 9.21205L6.89393 9.20855L6.91343 9.18855C6.93843 9.15655 6.98343 9.11655 7.00993 9.08455L7.01293 9.08055C7.02143 9.07055 7.03093 9.06355 7.03893 9.05405L7.08843 9.00055C7.12343 8.96555 7.15343 8.92755 7.18843 8.89255L7.30093 8.77155L7.31343 8.75905L7.36243 8.70505C7.37193 8.69555 7.38093 8.68855 7.38843 8.67855C7.39593 8.66855 7.40543 8.66155 7.41393 8.65155L7.46343 8.59805C7.46843 8.59305 7.47243 8.58955 7.47693 8.58405L7.51443 8.54355C7.52193 8.53355 7.53143 8.52655 7.53993 8.51655C7.56193 8.49205 7.62493 8.42755 7.63843 8.40955C7.64643 8.39955 7.65593 8.39355 7.66293 8.38355C7.64315 8.35931 7.62194 8.33627 7.59943 8.31455L7.55043 8.26055L7.53743 8.24805C7.53243 8.24205 7.53093 8.23905 7.52493 8.23305C7.48643 8.19405 7.45093 8.15255 7.41193 8.11305L7.34943 8.04555C7.3458 8.04074 7.34179 8.03622 7.33743 8.03205L6.76243 7.41505C6.75859 7.40979 6.75441 7.40478 6.74993 7.40005L6.66493 7.30855L6.66393 7.30755L6.47543 7.10455C6.47143 7.09955 6.46743 7.09655 6.46293 7.09205L6.41293 7.03705C6.37893 7.00205 6.34643 6.96405 6.31193 6.92955L6.30093 6.91755L6.29993 6.91655L6.26293 6.87605C6.24593 6.85755 6.22793 6.84055 6.21143 6.82205C6.20593 6.81605 6.20493 6.81305 6.19893 6.80705C6.16493 6.77255 6.13393 6.73505 6.09893 6.70105C6.09493 6.69605 6.09093 6.69305 6.08693 6.68855C6.08243 6.68355 6.06443 6.66605 6.06443 6.66055V5.46605H7.54843V4.97005C7.80943 4.97005 8.06743 4.97505 8.32843 4.97505V5.45005C8.32843 5.45555 8.32993 5.45755 8.33543 5.45755H9.93843V6.66305H7.72693C7.73993 6.68305 7.75993 6.69955 7.77543 6.71755L7.89843 6.85255C7.90593 6.86255 7.91393 6.86955 7.92243 6.87955C7.94343 6.90455 7.96693 6.92605 7.98743 6.95105L8.16643 7.14755C8.20143 7.18155 8.23143 7.22005 8.26493 7.25505L8.72143 7.75655L8.72443 7.76055L8.88793 7.94055L8.90043 7.95255C8.92243 7.97455 8.94043 7.99955 8.96243 8.02155L9.25643 8.34305C9.26843 8.35605 9.28143 8.36805 9.29143 8.38305C9.28693 8.39005 9.28343 8.39205 9.27793 8.39805C9.27438 8.40278 9.27054 8.40729 9.26643 8.41155L9.20493 8.47805C9.20139 8.48279 9.19755 8.4873 9.19343 8.49155L9.04593 8.65305C9.03593 8.66255 9.03093 8.67055 9.02093 8.68005C9.00093 8.70005 8.97093 8.73755 8.94743 8.76005L8.84443 8.87455C8.82393 8.89905 8.76893 8.95355 8.75243 8.97455L8.60593 9.13455C8.57443 9.17305 8.53893 9.20605 8.50693 9.24405L8.44693 9.30905C8.41693 9.33955 8.39093 9.37205 8.36193 9.40305C8.35693 9.40805 8.35293 9.41155 8.34843 9.41705C8.31443 9.45555 8.27743 9.49205 8.24393 9.53205L8.23893 9.53805L8.11043 9.67755L8.10743 9.68105L8.10293 9.68605L8.10193 9.68755L8.04293 9.75255C8.03876 9.75658 8.03492 9.76092 8.03143 9.76555C8.02756 9.77016 8.02338 9.7745 8.01893 9.77855C7.99343 9.80355 7.97143 9.83355 7.94593 9.85855C7.94181 9.8628 7.93797 9.86731 7.93443 9.87205L7.88543 9.92605C7.88143 9.93105 7.87743 9.93405 7.87293 9.93855L7.72693 10.0996H9.87693C9.89743 10.0996 9.93843 10.0946 9.93843 10.1061V11.2956Z" fill="white"/>
</g>
<defs>
<clipPath id="clip0_7_8061">
<rect width="16" height="16" fill="white"/>
</clipPath>
</defs>
</svg>
