<svg width="16" height="16" viewBox="0 0 16 16" fill="none" xmlns="http://www.w3.org/2000/svg">
<g clip-path="url(#clip0_7_7740)">
<path d="M8 16C12.4183 16 16 12.4183 16 8C16 3.58172 12.4183 0 8 0C3.58172 0 0 3.58172 0 8C0 12.4183 3.58172 16 8 16Z" fill="#B30D23"/>
<path d="M8.4565 10.617L7.9905 11.485L7.5245 10.617C4.7095 10.3985 2.5 8.2995 2.5 8.2995C2.5 8.2945 4.647 6.2605 7.4045 5.9925L7.7695 5.3675L7.9905 5L8.3655 5.625L8.5765 5.9925C11.3335 6.2555 13.481 8.2995 13.481 8.2995C13.481 8.2995 11.2715 10.3985 8.4565 10.617ZM2.966 8.2995C2.961 8.2995 5.089 9.7535 7.2265 10.061L6.1845 8.111L6.4675 7.62L6.7275 8.106L6.7225 8.111L7.736 10.106C7.8175 10.111 7.899 10.111 7.981 10.111C8.0625 10.111 8.1395 10.111 8.221 10.106L8.9655 8.622L9.5085 7.61L9.7915 8.101L8.7495 10.056C10.887 9.7535 13.0145 8.3345 13.0145 8.2945C13.0145 8.2595 10.988 6.9055 8.903 6.558L9.22 7.109L8.956 7.6395L8.269 6.4885C8.17627 6.48269 8.08341 6.47936 7.9905 6.4785C7.899 6.4785 7.803 6.4835 7.707 6.4885L7.0055 7.6395L6.7465 7.1335L7.0775 6.563C4.993 6.9155 2.966 8.2995 2.966 8.2995Z" fill="white"/>
</g>
<defs>
<clipPath id="clip0_7_7740">
<rect width="16" height="16" fill="white"/>
</clipPath>
</defs>
</svg>
