<svg width="16" height="16" viewBox="0 0 16 16" fill="none" xmlns="http://www.w3.org/2000/svg">
<g clip-path="url(#clip0_7_7902)">
<path d="M8 16C12.4183 16 16 12.4183 16 8C16 3.58172 12.4183 0 8 0C3.58172 0 0 3.58172 0 8C0 12.4183 3.58172 16 8 16Z" fill="#0B1C26"/>
<path d="M8 13.5C4.966 13.491 2.5 11.0285 2.5 8C2.5 4.9715 4.966 2.509 8 2.5C11.034 2.509 13.5 4.9715 13.5 8C13.5 11.0285 11.034 13.494 8 13.5ZM12.8775 8.875C12.8194 9.00888 12.7112 9.11465 12.576 9.16962C12.4409 9.22459 12.2895 9.22437 12.1545 9.169C12.349 9.372 12.4705 9.6445 12.4705 9.944C12.4705 10.032 12.4585 10.114 12.4405 10.196C12.6465 9.778 12.794 9.333 12.8775 8.875ZM12.3675 8.93C12.4407 8.93013 12.511 8.90118 12.5628 8.84951C12.6147 8.79785 12.6439 8.7277 12.644 8.6545C12.6441 8.5813 12.6152 8.51105 12.5635 8.45919C12.5118 8.40734 12.4417 8.37813 12.3685 8.378C12.3323 8.3779 12.2963 8.38494 12.2628 8.39872C12.2293 8.4125 12.1988 8.43275 12.1731 8.45831C12.1212 8.50993 12.0919 8.58005 12.0918 8.65325C12.0916 8.72645 12.1204 8.79673 12.1721 8.84863C12.2237 8.90053 12.2938 8.9298 12.367 8.93H12.3675ZM12.4915 5.9165C12.6277 6.29762 12.6612 6.70787 12.5887 7.10605C12.5162 7.50423 12.3403 7.87633 12.0785 8.185C12.1648 8.13261 12.2636 8.10429 12.3645 8.103C12.653 8.103 12.8895 8.324 12.914 8.609C12.9385 8.409 12.9535 8.209 12.9535 8.003C12.9569 7.28176 12.799 6.56889 12.4915 5.9165ZM12.2095 6.6885C12.2083 6.18188 12.0061 5.69643 11.6474 5.33871C11.2886 4.98099 10.8026 4.78023 10.296 4.7805C9.78938 4.78023 9.30335 4.98099 8.9446 5.33871C8.58585 5.69643 8.38369 6.18188 8.3825 6.6885C8.38369 7.19512 8.58585 7.68057 8.9446 8.03829C9.30335 8.39601 9.78938 8.59677 10.296 8.5965C10.8025 8.59624 11.2882 8.39531 11.6468 8.0377C12.0055 7.6801 12.2078 7.19496 12.2095 6.6885ZM10.22 9.945C10.22 9.53 10.45 9.1485 10.8185 8.955C10.3517 9.06344 9.86278 9.0252 9.4185 8.8455C9.79628 9.13514 10.076 9.53376 10.22 9.9875C10.223 9.969 10.22 9.957 10.22 9.945ZM10.3295 10.684C10.3289 10.8677 10.3064 11.0506 10.2625 11.229C10.3535 11.0475 10.539 10.9325 10.7425 10.9325C10.7711 10.9323 10.7996 10.9354 10.8275 10.9415C10.5935 10.8212 10.4088 10.6232 10.305 10.3815C10.321 10.4815 10.329 10.5825 10.3295 10.684ZM11.3435 10.6505C11.5312 10.6508 11.7114 10.5767 11.8446 10.4445C11.9778 10.3123 12.0533 10.1327 12.0545 9.945C12.0545 9.5545 11.7355 9.2395 11.3435 9.2395C10.9515 9.2395 10.636 9.5575 10.636 9.9445C10.636 10.3355 10.9545 10.6505 11.3435 10.6505ZM11.811 8.658C11.812 8.5645 11.836 8.473 11.881 8.391C11.6792 8.57737 11.447 8.72788 11.1945 8.836C11.2435 8.8305 11.292 8.8245 11.3435 8.8245C11.5456 8.82402 11.744 8.87846 11.9175 8.982C11.8483 8.88798 11.8112 8.77423 11.8115 8.6575L11.811 8.658ZM7.9995 8.358C8.2995 8.358 8.5965 8.4155 8.8745 8.5275C8.40767 8.16991 8.09475 7.64778 7.9995 7.0675C7.90385 7.64751 7.59122 8.16945 7.125 8.5275C7.40345 8.41654 7.70026 8.35888 8 8.3575L7.9995 8.358ZM7.9995 5.2715C7.78783 5.27193 7.58042 5.2121 7.4015 5.099C7.71674 5.43177 7.92518 5.85127 8 6.3035C8.07667 5.85172 8.28485 5.43257 8.5985 5.0985C8.41944 5.21169 8.21184 5.27152 8 5.271L7.9995 5.2715ZM9.1355 4.139C9.1355 4.3925 9.05 4.639 8.8925 4.839C9.1286 4.66034 9.39678 4.52862 9.6825 4.451C9.67 4.451 9.661 4.454 9.652 4.454C9.418 4.454 9.217 4.309 9.1355 4.1025C9.133 4.1145 9.1355 4.127 9.1355 4.139ZM9.998 3.47C10.123 3.573 10.2045 3.724 10.2045 3.897C10.2045 4.116 10.0745 4.3145 9.8735 4.4025C10.2763 4.32832 10.6915 4.36148 11.0775 4.49867C11.4634 4.63585 11.8064 4.87222 12.072 5.184C11.5497 4.43444 10.8328 3.84164 9.9985 3.4695L9.998 3.47ZM9.649 3.6245C9.61276 3.6244 9.57685 3.63144 9.54332 3.64522C9.5098 3.659 9.47932 3.67925 9.45362 3.70481C9.42792 3.73037 9.40751 3.76074 9.39355 3.79419C9.37958 3.82763 9.37235 3.86351 9.37225 3.89975C9.37215 3.93599 9.37919 3.9719 9.39297 4.00543C9.40675 4.03895 9.427 4.06943 9.45256 4.09513C9.47812 4.12083 9.50849 4.14124 9.54194 4.1552C9.57539 4.16917 9.61126 4.1764 9.6475 4.1765C9.72077 4.1767 9.79111 4.14778 9.84306 4.09612C9.89501 4.04445 9.9243 3.97427 9.9245 3.901C9.9247 3.82773 9.89578 3.75739 9.84412 3.70544C9.79245 3.65349 9.72227 3.6247 9.649 3.6245ZM8.343 3.058C8.52581 3.11602 8.69087 3.21956 8.82267 3.35889C8.95448 3.49821 9.0487 3.66876 9.0965 3.8545C9.10671 3.71553 9.16906 3.58555 9.27106 3.4906C9.37305 3.39566 9.50715 3.34276 9.6465 3.3425C9.66463 3.34304 9.68269 3.34504 9.7005 3.3485C9.26363 3.18928 8.80677 3.09151 8.343 3.058ZM7.283 4.139C7.28793 4.32582 7.36561 4.50332 7.49949 4.63371C7.63337 4.7641 7.81287 4.83707 7.99975 4.83707C8.18663 4.83707 8.36613 4.7641 8.50001 4.63371C8.63389 4.50332 8.71157 4.32582 8.7165 4.139C8.70957 3.9536 8.63105 3.77811 8.49744 3.6494C8.36383 3.52068 8.18552 3.44877 8 3.44877C7.81448 3.44877 7.63617 3.52068 7.50256 3.6494C7.36895 3.77811 7.29043 3.9536 7.2835 4.139H7.283ZM6.2965 3.3485C6.31447 3.34502 6.3327 3.34301 6.351 3.3425C6.49052 3.34217 6.62495 3.39487 6.72707 3.48993C6.82919 3.585 6.89136 3.71532 6.901 3.8545C6.94875 3.66881 7.0429 3.49831 7.17462 3.35898C7.30633 3.21966 7.47129 3.11609 7.654 3.058C7.18 3.094 6.724 3.191 6.2965 3.3485ZM6.864 4.139C6.86347 4.12676 6.86448 4.11449 6.867 4.1025C6.82606 4.20601 6.75499 4.29485 6.663 4.35752C6.571 4.42018 6.46231 4.45379 6.351 4.454C6.3385 4.454 6.3295 4.451 6.3205 4.451C6.6055 4.529 6.874 4.661 7.1105 4.8385C6.95092 4.64029 6.86394 4.39346 6.864 4.139ZM6.0745 3.8995C6.07453 3.93574 6.0817 3.97163 6.0956 4.0051C6.10951 4.03857 6.12986 4.06898 6.15552 4.09459C6.18117 4.12019 6.21161 4.1405 6.24511 4.15434C6.27861 4.16818 6.31451 4.17528 6.35075 4.17525C6.38699 4.17522 6.42288 4.16805 6.45635 4.15415C6.48983 4.14024 6.52023 4.11989 6.54584 4.09423C6.57144 4.06858 6.59175 4.03814 6.60559 4.00464C6.61943 3.97114 6.62653 3.93524 6.6265 3.899C6.62643 3.8258 6.59729 3.75562 6.54548 3.70391C6.49368 3.6522 6.42345 3.62318 6.35025 3.62325C6.27705 3.62332 6.20688 3.65246 6.15516 3.70427C6.10345 3.75607 6.07443 3.8263 6.0745 3.8995ZM3.9275 5.187C4.19249 4.87444 4.53543 4.63752 4.92154 4.50028C5.30764 4.36303 5.72318 4.33033 6.126 4.4055C6.03924 4.36766 5.96371 4.30808 5.90672 4.2325C5.84973 4.15693 5.81321 4.06792 5.80069 3.9741C5.78817 3.88028 5.80008 3.78482 5.83526 3.69694C5.87043 3.60907 5.9277 3.53176 6.0015 3.4725C5.16577 3.84259 4.44818 4.4358 3.9275 5.187ZM3.7905 6.689C3.79169 7.19562 3.99385 7.68107 4.3526 8.03879C4.71135 8.39651 5.19738 8.59727 5.704 8.597C6.21062 8.59727 6.69665 8.39651 7.0554 8.03879C7.41415 7.68107 7.61631 7.19562 7.6175 6.689C7.61631 6.18238 7.41415 5.69693 7.0554 5.33921C6.69665 4.98149 6.21062 4.78073 5.704 4.781C4.65 4.784 3.7905 5.638 3.7905 6.689ZM5.78 9.945C5.78 9.957 5.777 9.9725 5.777 9.9845C5.92177 9.53116 6.20138 9.13277 6.5785 8.8425C6.13417 9.02204 5.64526 9.0601 5.1785 8.9515C5.35968 9.04669 5.51144 9.18951 5.61744 9.36459C5.72343 9.53966 5.77964 9.74034 5.78 9.945ZM4.1885 8.6575C4.189 8.775 4.1505 8.889 4.079 8.9815C4.25262 8.87822 4.45099 8.82397 4.653 8.8245C4.703 8.824 4.753 8.828 4.802 8.8365C4.54828 8.73063 4.31573 8.57989 4.1155 8.3915C4.1635 8.4715 4.1885 8.564 4.1885 8.6575ZM3.9455 9.945C3.9455 10.1326 4.02004 10.3126 4.15272 10.4453C4.2854 10.578 4.46536 10.6525 4.653 10.6525C4.84064 10.6525 5.0206 10.578 5.15328 10.4453C5.28596 10.3126 5.3605 10.1326 5.3605 9.945C5.3605 9.554 5.042 9.239 4.653 9.239C4.56012 9.23867 4.4681 9.2567 4.38221 9.29204C4.29632 9.32739 4.21826 9.37935 4.15252 9.44496C4.08677 9.51056 4.03464 9.58851 3.99912 9.67432C3.96359 9.76014 3.94537 9.85212 3.9455 9.945ZM5.1695 10.9415C5.197 10.9385 5.2245 10.932 5.2545 10.932C5.458 10.9325 5.6435 11.047 5.7345 11.229C5.69058 11.0506 5.66809 10.8677 5.6675 10.684C5.6685 10.5815 5.6755 10.479 5.689 10.378C5.5875 10.621 5.404 10.8205 5.1695 10.9415ZM3.083 8.6065C3.09498 8.46873 3.15806 8.34042 3.25983 8.24679C3.3616 8.15316 3.49471 8.10098 3.633 8.1005C3.7335 8.101 3.8325 8.1295 3.918 8.1825C3.65622 7.87383 3.48026 7.50173 3.40776 7.10355C3.33527 6.70537 3.36881 6.29512 3.505 5.914C3.11238 6.75331 2.96604 7.68731 3.083 8.6065ZM3.633 8.382C3.59676 8.38193 3.56085 8.38901 3.52734 8.40282C3.49383 8.41663 3.46337 8.4369 3.43769 8.46249C3.41202 8.48807 3.39163 8.51846 3.3777 8.55192C3.36377 8.58538 3.35657 8.62126 3.3565 8.6575C3.35643 8.69375 3.36351 8.72965 3.37732 8.76316C3.39113 8.79667 3.4114 8.82713 3.43699 8.85281C3.46257 8.87848 3.49296 8.89887 3.52642 8.9128C3.55988 8.92673 3.59576 8.93393 3.632 8.934C3.7052 8.93413 3.77545 8.90518 3.82731 8.85351C3.87916 8.80185 3.90837 8.7317 3.9085 8.6585C3.90863 8.5853 3.87968 8.51505 3.82802 8.46319C3.77635 8.41134 3.7062 8.38213 3.633 8.382ZM3.53 9.945C3.53 9.655 3.643 9.377 3.8455 9.17C3.71047 9.22523 3.55919 9.22539 3.42405 9.17044C3.28891 9.11548 3.18066 9.00979 3.1225 8.876C3.2075 9.342 3.354 9.7845 3.56 10.196C3.54063 10.1137 3.53056 10.0295 3.53 9.945ZM4.951 11.026C4.76675 11.0764 4.57269 11.0789 4.3872 11.0333C4.20171 10.9877 4.03092 10.8955 3.891 10.7655C4.156 11.157 4.475 11.5085 4.8385 11.8105C4.75896 11.7153 4.71495 11.5955 4.714 11.4715C4.714 11.293 4.803 11.126 4.951 11.026ZM4.9935 11.471C4.9935 11.5402 5.021 11.6066 5.06995 11.6556C5.11889 11.7045 5.18528 11.732 5.2545 11.732C5.32372 11.732 5.39011 11.7045 5.43905 11.6556C5.488 11.6066 5.5155 11.5402 5.5155 11.471C5.5155 11.4018 5.488 11.3354 5.43905 11.2864C5.39011 11.2375 5.32372 11.21 5.2545 11.21C5.18528 11.21 5.11889 11.2375 5.06995 11.2864C5.021 11.3354 4.9935 11.4018 4.9935 11.471ZM7.329 12.91C6.97305 12.8023 6.64795 12.6112 6.38071 12.3525C6.11348 12.0939 5.91182 11.7752 5.7925 11.423C5.7925 11.438 5.7985 11.453 5.7985 11.4715C5.79839 11.5628 5.77511 11.6526 5.73083 11.7325C5.68655 11.8123 5.62273 11.8797 5.54533 11.9281C5.46794 11.9766 5.37951 12.0046 5.28833 12.0096C5.19715 12.0145 5.1062 11.9963 5.024 11.9565C5.69847 12.4657 6.49194 12.7939 7.329 12.91ZM9.9105 10.684C9.9105 10.1774 9.70924 9.69149 9.351 9.33325C8.99276 8.97501 8.50688 8.77375 8.00025 8.77375C7.49362 8.77375 7.00774 8.97501 6.6495 9.33325C6.29126 9.69149 6.09 10.1774 6.09 10.684C6.09106 11.19 6.29271 11.675 6.65075 12.0325C7.00878 12.3901 7.49399 12.5911 8 12.5915C8.50593 12.5906 8.99091 12.3893 9.34885 12.0318C9.70678 11.6742 9.90855 11.1894 9.91 10.6835L9.9105 10.684ZM10.9795 11.956C10.8972 11.9961 10.8061 12.0146 10.7147 12.0098C10.6233 12.0049 10.5346 11.977 10.457 11.9285C10.3796 11.8801 10.3158 11.8127 10.2717 11.7327C10.2276 11.6527 10.2046 11.5628 10.205 11.4715C10.2055 11.4552 10.2075 11.4389 10.211 11.423C10.0916 11.7753 9.8899 12.094 9.62257 12.3526C9.35524 12.6113 9.03004 12.8023 8.674 12.91C9.51078 12.7925 10.3044 12.4642 10.9795 11.956ZM11.007 11.471C11.007 11.4194 10.9917 11.369 10.963 11.326C10.9344 11.2831 10.8937 11.2497 10.846 11.2299C10.7983 11.2101 10.7459 11.2049 10.6953 11.215C10.6446 11.225 10.5981 11.2498 10.5616 11.2863C10.5251 11.3227 10.5002 11.3692 10.4901 11.4198C10.4799 11.4704 10.485 11.5228 10.5047 11.5705C10.5244 11.6182 10.5578 11.659 10.6006 11.6878C10.6435 11.7165 10.6939 11.7319 10.7455 11.732C10.8145 11.7315 10.8805 11.7039 10.9293 11.6552C10.9781 11.6064 11.0058 11.5405 11.0065 11.4715L11.007 11.471ZM12.109 10.766C11.9691 10.896 11.7983 10.9881 11.6128 11.0336C11.4273 11.0791 11.2332 11.0765 11.049 11.026C11.197 11.126 11.286 11.293 11.286 11.471C11.286 11.6015 11.2375 11.7165 11.1615 11.8105C11.5251 11.5087 11.8441 11.1573 12.109 10.766Z" fill="white"/>
</g>
<defs>
<clipPath id="clip0_7_7902">
<rect width="16" height="16" fill="white"/>
</clipPath>
</defs>
</svg>
