<svg width="16" height="16" viewBox="0 0 16 16" fill="none" xmlns="http://www.w3.org/2000/svg">
<g clip-path="url(#clip0_7_8078)">
<path d="M8 16C12.4183 16 16 12.4183 16 8C16 3.58172 12.4183 0 8 0C3.58172 0 0 3.58172 0 8C0 12.4183 3.58172 16 8 16Z" fill="#5B6DEE"/>
<path d="M6.65 7.51006C6.37105 7.50863 6.09256 7.53273 5.818 7.58206C6.044 5.49206 7.786 3.90906 9.86 3.90906C11.13 3.90906 12 4.53106 12 5.81806C12 7.10556 10.9555 7.72756 9.432 7.72756C8.307 7.72756 7.775 7.51006 6.65 7.51006ZM6.568 8.27256C5.0445 8.27256 4 8.89506 4 10.1821C4 11.4691 4.87 12.0911 6.14 12.0911C8.214 12.0911 9.956 10.5086 10.182 8.41806C9.90744 8.46739 9.62895 8.49149 9.35 8.49006C8.225 8.49006 7.6925 8.27256 6.568 8.27256Z" fill="white"/>
</g>
<defs>
<clipPath id="clip0_7_8078">
<rect width="16" height="16" fill="white"/>
</clipPath>
</defs>
</svg>
