<svg width="16" height="16" viewBox="0 0 16 16" fill="none" xmlns="http://www.w3.org/2000/svg">
<g clip-path="url(#clip0_7_7766)">
<path d="M8 16C12.4183 16 16 12.4183 16 8C16 3.58172 12.4183 0 8 0C3.58172 0 0 3.58172 0 8C0 12.4183 3.58172 16 8 16Z" fill="#5FCDF9"/>
<path d="M5.546 6.13197C5.51694 6.09432 5.47957 6.0639 5.43681 6.04309C5.39405 6.02227 5.34706 6.01162 5.2995 6.01197H3.3095C3.2935 6.01163 3.27819 6.0054 3.2665 5.99447C3.25614 5.98432 3.25021 5.97048 3.25 5.95597V4.55597C3.25021 4.54147 3.25614 4.52763 3.2665 4.51747C3.27169 4.51128 3.27833 4.50649 3.28584 4.50352C3.29335 4.50055 3.30148 4.4995 3.3095 4.50047H5.4125C5.9425 4.50047 6.4 4.72747 6.786 5.17997L7.2975 5.83147L6.3015 7.09847L5.546 6.13197ZM9.2215 5.17347C9.6055 4.72547 10.0655 4.50047 10.6015 4.50047H12.698C12.705 4.49982 12.7122 4.50063 12.7189 4.50287C12.7256 4.50511 12.7318 4.50872 12.737 4.51347C12.7422 4.51912 12.746 4.52589 12.7482 4.53326C12.7504 4.54063 12.7508 4.5484 12.7495 4.55597V5.95597C12.7495 5.97097 12.7455 5.98397 12.737 5.99447C12.7326 6.00052 12.7267 6.00529 12.7198 6.00828C12.713 6.01127 12.7054 6.01237 12.698 6.01147H10.708C10.6605 6.0112 10.6136 6.02188 10.571 6.0427C10.5283 6.06351 10.491 6.09389 10.462 6.13147L8.995 7.99497L10.4675 9.87097C10.5275 9.94147 10.6155 9.98447 10.706 9.98247H12.696C12.7033 9.98195 12.7106 9.98323 12.7174 9.9862C12.7241 9.98916 12.73 9.99372 12.7345 9.99947C12.7437 10.0126 12.7481 10.0285 12.747 10.0445V11.4445C12.7474 11.4584 12.743 11.472 12.7345 11.483C12.7301 11.489 12.7242 11.4938 12.7173 11.4968C12.7105 11.4998 12.7029 11.5009 12.6955 11.5H10.601C10.065 11.5 9.609 11.273 9.227 10.8205L8.007 9.26647L6.7875 10.8205C6.4035 11.273 5.9435 11.5005 5.4075 11.5005H3.31C3.30256 11.501 3.2951 11.4997 3.28829 11.4966C3.28148 11.4936 3.27554 11.4889 3.271 11.483C3.26604 11.4767 3.26238 11.4695 3.26023 11.4617C3.25809 11.454 3.2575 11.4459 3.2585 11.438V10.038C3.2585 10.023 3.263 10.01 3.271 9.99947C3.2754 9.99342 3.28133 9.98866 3.28819 9.98567C3.29504 9.98268 3.30257 9.98158 3.31 9.98247H5.3C5.3945 9.98247 5.485 9.93747 5.5465 9.86247L6.986 8.02747L9.222 5.17397L9.2215 5.17347Z" fill="white"/>
</g>
<defs>
<clipPath id="clip0_7_7766">
<rect width="16" height="16" fill="white"/>
</clipPath>
</defs>
</svg>
