<svg width="16" height="16" viewBox="0 0 16 16" fill="none" xmlns="http://www.w3.org/2000/svg">
<g clip-path="url(#clip0_7_7701)">
<path d="M8 16C12.4183 16 16 12.4183 16 8C16 3.58172 12.4183 0 8 0C3.58172 0 0 3.58172 0 8C0 12.4183 3.58172 16 8 16Z" fill="#199248"/>
<path d="M8 2C4.6865 2 2 4.6865 2 8C2 11.3135 4.6865 14 8 14C11.3135 14 14 11.3135 14 8C14 6.4087 13.3679 4.88258 12.2426 3.75736C11.1174 2.63214 9.5913 2 8 2ZM9.3715 13.118C8.68126 13.3019 7.96096 13.3444 7.2539 13.2428C6.54683 13.1412 5.86762 12.8977 5.25708 12.5269C4.64654 12.1561 4.11729 11.6656 3.70116 11.085C3.28503 10.5044 2.9906 9.84569 2.83558 9.14839C2.68056 8.45109 2.66815 7.72965 2.7991 7.02743C2.93005 6.32521 3.20165 5.65672 3.59757 5.06216C3.99349 4.4676 4.50556 3.95925 5.10298 3.56766C5.70041 3.17607 6.37085 2.90934 7.074 2.7835C8.4182 2.546 9.80219 2.83643 10.9375 3.59426C12.0728 4.35209 12.8719 5.51884 13.1681 6.85133C13.4644 8.18381 13.2349 9.57921 12.5276 10.7467C11.8203 11.9142 10.6897 12.7636 9.3715 13.118Z" fill="white"/>
<path d="M9.46546 3.64348C9.46546 3.90198 9.46546 4.15998 9.47546 4.41848C9.12965 4.28429 8.76965 4.19002 8.40246 4.13748C8.38746 3.90298 8.45446 3.64548 8.38596 3.42298C8.12437 3.40433 7.86192 3.40116 7.59996 3.41348C7.58696 3.65448 7.59196 3.89648 7.59996 4.13848C7.23263 4.19344 6.87268 4.28971 6.52696 4.42548C6.53446 4.16448 6.53696 3.90398 6.53346 3.64248C5.62074 3.9498 4.8275 4.53585 4.26557 5.31799C3.70364 6.10012 3.40137 7.03891 3.40137 8.00198C3.40137 8.96505 3.70364 9.90383 4.26557 10.686C4.8275 11.4681 5.62074 12.0541 6.53346 12.3615C6.53346 12.1055 6.53096 11.8505 6.52596 11.5955C6.86905 11.7298 7.22717 11.8219 7.59246 11.87C7.59246 12.1045 7.59246 12.339 7.57846 12.571C7.85846 12.611 8.14246 12.611 8.42246 12.571C8.40971 12.34 8.40304 12.1088 8.40246 11.8775C8.76798 11.8261 9.12678 11.7349 9.47246 11.6055C9.4645 11.8587 9.4645 12.1122 9.47246 12.3655C10.3848 12.0575 11.1775 11.4709 11.7388 10.6885C12.3001 9.90604 12.6017 8.96719 12.6011 8.00425C12.6004 7.04131 12.2977 6.10285 11.7354 5.32112C11.1731 4.5394 10.3797 3.95384 9.46696 3.64698L9.46546 3.64348ZM10.1505 10.611C9.54646 11.1585 8.68846 11.288 7.90046 11.2765C7.20896 11.2765 6.47696 11.089 5.97746 10.5885C5.71246 10.3325 5.56246 9.99048 5.42796 9.65098C5.91096 9.52598 6.40946 9.48398 6.89596 9.37998C6.9262 9.52707 6.99474 9.66357 7.09465 9.77569C7.19457 9.8878 7.3223 9.97155 7.46496 10.0185C7.90646 10.1565 8.45346 10.176 8.82146 9.86098C9.08246 9.64448 9.08996 9.17098 8.76646 9.00898C8.00796 8.61698 7.06296 8.74998 6.34596 8.25398C5.35846 7.63148 5.28546 5.98048 6.25196 5.30848C6.99096 4.78998 7.97896 4.72548 8.83596 4.93348C9.61096 5.12948 10.1635 5.78648 10.4295 6.51398C9.95246 6.59648 9.47596 6.68098 8.99896 6.76148C8.87346 6.00398 7.81296 5.82398 7.28596 6.26548C6.98596 6.51498 7.06296 7.04648 7.43796 7.17948C8.25796 7.51948 9.24296 7.42148 9.96946 7.99048C10.813 8.56248 10.901 9.92848 10.15 10.6105L10.1505 10.611Z" fill="white"/>
</g>
<defs>
<clipPath id="clip0_7_7701">
<rect width="16" height="16" fill="white"/>
</clipPath>
</defs>
</svg>
