<svg width="16" height="16" viewBox="0 0 16 16" fill="none" xmlns="http://www.w3.org/2000/svg">
<g clip-path="url(#clip0_7_7700)">
<path d="M8 16C12.4183 16 16 12.4183 16 8C16 3.58172 12.4183 0 8 0C3.58172 0 0 3.58172 0 8C0 12.4183 3.58172 16 8 16Z" fill="black"/>
<path d="M4.96224 9.8435C5.01752 9.78896 5.09208 9.75842 5.16974 9.7585H12.3527C12.3817 9.75811 12.4101 9.7664 12.4343 9.7823C12.4585 9.79821 12.4774 9.821 12.4886 9.84774C12.4997 9.87447 12.5026 9.90393 12.4968 9.93232C12.491 9.96071 12.4769 9.98672 12.4562 10.007L11.0372 11.4145C10.982 11.4692 10.9075 11.4999 10.8297 11.5H3.64674C3.61778 11.5002 3.58941 11.4918 3.56526 11.4759C3.5411 11.4599 3.52226 11.4371 3.51114 11.4104C3.50003 11.3836 3.49715 11.3542 3.50286 11.3258C3.50858 11.2974 3.52264 11.2714 3.54324 11.251L4.96224 9.8435ZM4.96224 4.585C5.01752 4.53046 5.09208 4.49992 5.16974 4.5H12.3527C12.4832 4.5 12.5487 4.657 12.4562 4.749L11.0372 6.1565C10.982 6.21104 10.9074 6.24158 10.8297 6.2415H3.64674C3.61789 6.24165 3.58964 6.23321 3.5656 6.21726C3.54155 6.20132 3.52279 6.17858 3.51169 6.15194C3.5006 6.12531 3.49767 6.09598 3.50329 6.06767C3.50891 6.03937 3.52281 6.01338 3.54324 5.993L4.96224 4.585ZM11.0372 7.1975C10.982 7.14296 10.9074 7.11242 10.8297 7.1125H3.64674C3.61778 7.11225 3.58941 7.12065 3.56526 7.13662C3.5411 7.15259 3.52226 7.17541 3.51114 7.20215C3.50003 7.22889 3.49715 7.25834 3.50286 7.28672C3.50858 7.31511 3.52264 7.34115 3.54324 7.3615L4.96224 8.769C5.01724 8.8235 5.09224 8.854 5.16974 8.854H12.3527C12.3817 8.85425 12.4101 8.84585 12.4342 8.82988C12.4584 8.81391 12.4772 8.79109 12.4883 8.76435C12.4995 8.73761 12.5023 8.70816 12.4966 8.67978C12.4909 8.65139 12.4768 8.62535 12.4562 8.605L11.0372 7.1975Z" fill="url(#paint0_linear_7_7700)"/>
</g>
<defs>
<linearGradient id="paint0_linear_7_7700" x1="12" y1="4.5" x2="4" y2="11" gradientUnits="userSpaceOnUse">
<stop stop-color="#02CB8B"/>
<stop offset="1" stop-color="#9C49FA"/>
</linearGradient>
<clipPath id="clip0_7_7700">
<rect width="16" height="16" fill="white"/>
</clipPath>
</defs>
</svg>
