<svg width="16" height="16" viewBox="0 0 16 16" fill="none" xmlns="http://www.w3.org/2000/svg">
<g clip-path="url(#clip0_7_7688)">
<path d="M8 16C12.4183 16 16 12.4183 16 8C16 3.58172 12.4183 0 8 0C3.58172 0 0 3.58172 0 8C0 12.4183 3.58172 16 8 16Z" fill="#0971FE"/>
<path fill-rule="evenodd" clip-rule="evenodd" d="M7.88747 2.274C7.67047 2.311 7.68097 2.3065 7.16697 2.612C6.85147 2.7995 6.66697 2.907 6.65897 2.907C6.64086 2.91498 6.62374 2.92505 6.60797 2.937C6.58397 2.9545 6.48497 3.0145 6.38797 3.072C6.16081 3.20685 5.93314 3.34086 5.70497 3.474C5.58547 3.544 5.31797 3.701 5.10997 3.824L4.57197 4.139C4.29397 4.3 3.44997 4.802 3.39697 4.8385C3.25497 4.9365 3.07097 5.217 3.04547 5.3735C3.03897 5.4135 3.02647 5.451 3.01697 5.457C2.99097 5.474 2.99647 10.491 3.02247 10.566L3.08147 10.733C3.14947 10.927 3.31147 11.125 3.48147 11.223C3.52447 11.2475 3.69347 11.3465 3.85697 11.4435C4.16454 11.6259 4.47254 11.8075 4.78097 11.9885C4.79847 11.9985 4.83847 12.0235 4.86947 12.0425C4.90047 12.0625 4.94347 12.0875 4.96597 12.0985C4.98797 12.11 5.09197 12.171 5.19597 12.234C5.38597 12.349 5.42597 12.3725 5.59247 12.4665C5.64097 12.494 5.75297 12.5595 5.84147 12.6125C6.33494 12.9015 6.82761 13.1918 7.31947 13.4835C7.88447 13.8175 8.11947 13.8315 8.58097 13.56C9.00415 13.3111 9.42716 13.062 9.84997 12.8125C10.415 12.481 10.766 12.2735 11.1035 12.0725C11.2939 11.959 11.4851 11.8467 11.677 11.7355L11.8535 11.6325C12.756 11.114 12.8415 11.0425 12.962 10.7015L13 10.5955L12.9995 8.0045L12.999 5.413L12.962 5.305C12.872 5.04 12.727 4.8825 12.405 4.696C12.2855 4.627 11.9565 4.434 11.6735 4.2675C11.0683 3.91098 10.4633 3.55415 9.85847 3.197C9.27847 2.854 9.05447 2.722 8.98247 2.681C8.83147 2.594 8.49247 2.39 8.48447 2.381C8.45447 2.347 8.06647 2.2385 8.01697 2.251L7.88747 2.274ZM8.30197 3.7155C8.39997 3.749 9.24647 4.239 11.015 5.2865C11.5225 5.587 11.589 5.6435 11.72 5.8835C11.8315 6.089 11.828 6.0195 11.8225 8.045L11.818 9.8675L11.782 9.9695C11.7298 10.1188 11.6463 10.2552 11.537 10.3695C11.4485 10.4585 11.3955 10.4925 10.811 10.8355C10.72 10.889 10.5345 10.9985 10.3995 11.0795C10.264 11.1605 10.1495 11.2225 10.1445 11.218C10.14 11.213 10.1345 10.1565 10.1325 8.87L10.129 6.531L10.0945 6.435C9.99497 6.156 9.92097 6.088 9.34397 5.7475L8.87797 5.4725L8.86997 6.4125L8.86197 7.3525H7.19097L7.18697 5.6815L7.18297 4.0105L7.38147 3.8945C7.79047 3.655 8.00547 3.613 8.30197 3.7155ZM5.92997 7.1265C5.92997 9.5125 5.92997 9.534 5.99497 9.673C6.08997 9.8785 6.19097 9.97 6.55647 10.179C6.64897 10.232 6.75747 10.2955 6.79747 10.32C6.90747 10.389 7.16247 10.533 7.17297 10.533C7.17797 10.533 7.18447 10.117 7.18697 9.6085L7.19097 8.684L8.03097 8.6795L8.86997 8.6755L8.86597 10.3305L8.86197 11.9855L8.62897 12.1225C8.11897 12.422 7.90397 12.4155 7.34297 12.085L6.76497 11.7455C6.5445 11.6168 6.32499 11.4865 6.10647 11.3545L5.79747 11.172C5.65878 11.089 5.51927 11.0073 5.37897 10.927C5.25361 10.8554 5.12926 10.7821 5.00597 10.707C4.9338 10.6634 4.86147 10.62 4.78897 10.577C4.46497 10.387 4.32397 10.2175 4.24397 9.9245C4.19897 9.7565 4.19197 6.289 4.23647 6.107C4.29647 5.8625 4.44347 5.6465 4.63647 5.519C4.83347 5.3885 5.87397 4.782 5.90147 4.7815C5.92897 4.7805 5.92997 4.8955 5.92997 7.1265Z" fill="white"/>
</g>
<defs>
<clipPath id="clip0_7_7688">
<rect width="16" height="16" fill="white"/>
</clipPath>
</defs>
</svg>
