<svg width="16" height="16" viewBox="0 0 16 16" fill="none" xmlns="http://www.w3.org/2000/svg">
<g clip-path="url(#clip0_7_8098)">
<path d="M8 16C12.4183 16 16 12.4183 16 8C16 3.58172 12.4183 0 8 0C3.58172 0 0 3.58172 0 8C0 12.4183 3.58172 16 8 16Z" fill="#FF3B81"/>
<path d="M4.2295 11.0705V11.141H3.491V9.8075L3.468 9.8815L2.7625 9.6685L3.161 8.3835L3.112 8.4555L2.5 8.049L3.265 6.932L3.192 6.99L2.727 6.425L3.8275 5.547L3.6875 5.6005L3.4225 4.9215L4.737 4.4245L4.583 4.4345L4.532 3.7095L5.908 3.6145L5.7835 3.5865L5.9495 2.878L7.2645 3.177L7.1815 3.13L7.55 2.5L8.6965 3.152L8.6515 3.105L9.1915 2.609L10.0845 3.552L10.0655 3.514L10.729 3.195L11.302 4.352L11.297 4.3195L12.0255 4.2055L12.2405 5.542L12.2555 5.447L12.985 5.5605L12.767 6.9165L12.8205 6.8075L13.484 7.1265L12.87 8.367L12.96 8.272L13.4995 8.7685L12.545 9.7765L12.6605 9.711L13.0295 10.341L11.83 11.023L11.9505 10.9955L12.117 11.704L10.791 12.0055L10.8935 12.0125L10.842 12.738L9.515 12.6465L9.5825 12.672L9.3175 13.351L8.0475 12.871L8.128 12.935L7.6635 13.5L6.615 12.6635L6.667 12.739L6.055 13.146L5.305 12.051L5.3275 12.123L4.6215 12.336L4.2295 11.0705ZM4.2295 10.2065L4.6905 10.0675L5.0485 11.2225L5.4475 10.9575L6.1285 11.9525L6.433 11.5825L7.377 12.3355L7.546 11.902L8.684 12.332L8.717 11.8625L9.935 11.9465L9.825 11.479L11.019 11.2075L10.7715 10.7855L11.837 10.1795L11.472 9.8445L12.3135 8.9555L11.8645 8.7395L12.406 7.6465L11.915 7.5695L12.108 6.3695L11.638 6.4425L11.4455 5.2425L11.0225 5.4455L10.485 4.3605L10.14 4.677L9.309 3.7985L9.071 4.2045L8.0185 3.606L7.9095 4.07L6.7255 3.8005L6.76 4.285L5.5445 4.3685L5.724 4.83L4.579 5.263L4.8875 5.6375L3.9265 6.404L4.332 6.6735L3.64 7.685L4.1065 7.826L3.745 8.9915H4.23L4.2295 10.2065ZM7.8545 8.844C7.8545 8.66 7.7895 8.5195 7.66 8.422C7.53 8.3225 7.2975 8.2185 6.9605 8.1105C6.6235 8.0005 6.357 7.892 6.1605 7.7855C5.6255 7.4955 5.3575 7.1055 5.3575 6.614C5.3575 6.3585 5.4285 6.131 5.571 5.932C5.716 5.7305 5.922 5.5735 6.1895 5.461C6.4595 5.3485 6.762 5.2925 7.0965 5.2925C7.4335 5.2925 7.7335 5.354 7.9965 5.4775C8.26 5.5985 8.464 5.7705 8.609 5.9935C8.75659 6.21918 8.83322 6.48388 8.829 6.7535H7.8575C7.8575 6.537 7.7895 6.369 7.6535 6.25C7.5175 6.129 7.3265 6.0685 7.0805 6.0685C6.843 6.0685 6.658 6.119 6.5265 6.221C6.46376 6.26587 6.41295 6.32542 6.37853 6.39445C6.3441 6.46348 6.3271 6.53989 6.329 6.617C6.329 6.7705 6.4055 6.8995 6.559 7.0035C6.714 7.107 6.942 7.2045 7.242 7.2955C7.795 7.462 8.1975 7.669 8.45 7.9155C8.703 8.1625 8.829 8.47 8.829 8.8375C8.829 9.247 8.6745 9.568 8.366 9.802C8.057 10.0335 7.6415 10.1495 7.119 10.1495C6.77841 10.154 6.44071 10.0865 6.128 9.9515C5.8305 9.817 5.6025 9.634 5.445 9.4025C5.2895 9.171 5.2115 8.9025 5.2115 8.5975H6.1865C6.1865 9.119 6.4975 9.38 7.119 9.38C7.35 9.38 7.5305 9.3335 7.66 9.24C7.72274 9.19532 7.77337 9.13573 7.80733 9.0666C7.84128 8.99746 7.85749 8.92096 7.8545 8.844ZM10.8195 5.945L9.883 9.371L9.1115 9.317L9.695 5.785L10.8195 5.945ZM10.0025 9.728L9.759 10.9385L8.733 10.639L8.9685 9.478L10.0025 9.728Z" fill="white"/>
</g>
<defs>
<clipPath id="clip0_7_8098">
<rect width="16" height="16" fill="white"/>
</clipPath>
</defs>
</svg>
