<svg width="16" height="16" viewBox="0 0 16 16" fill="none" xmlns="http://www.w3.org/2000/svg">
<g clip-path="url(#clip0_7_8102)">
<path d="M8 16C12.4183 16 16 12.4183 16 8C16 3.58172 12.4183 0 8 0C3.58172 0 0 3.58172 0 8C0 12.4183 3.58172 16 8 16Z" fill="#00B098"/>
<path d="M3 6.1955V6.0175H7.2085V6.1955H3ZM3 5.678V5.5H7.2085V5.678H3ZM4.775 10.998V6.5515H4.944V10.998H4.775ZM5.265 10.998V6.5515H5.4335V10.998H5.265ZM12.881 10.634L10.982 8.6275L11.101 8.502L13 10.508L12.881 10.634ZM8.2595 5.5L10.1585 7.5065L10.0395 7.632L8.1405 5.626L8.2595 5.5ZM12.5345 11L10.6355 8.9935L10.7545 8.8675L12.6535 10.874L12.5345 11ZM7.9135 5.866L9.8125 7.872L9.693 7.998L7.794 5.992L7.9135 5.866ZM10.624 8.25L10.7435 8.124L12.881 5.866L13 5.992L10.8625 8.25L10.7435 8.376L10.5165 8.616L10.397 8.742L8.26 11L8.141 10.874L10.2785 8.616L10.3975 8.49L10.624 8.25ZM10.397 7.758L12.535 5.5L12.654 5.626L10.5165 7.884L10.3975 8.01L10.1705 8.25L10.051 8.376L7.914 10.634L7.7945 10.508L9.932 8.25L10.051 8.124L10.2785 7.884L10.397 7.758Z" fill="white"/>
</g>
<defs>
<clipPath id="clip0_7_8102">
<rect width="16" height="16" fill="white"/>
</clipPath>
</defs>
</svg>
