<svg width="16" height="16" viewBox="0 0 16 16" fill="none" xmlns="http://www.w3.org/2000/svg">
<g clip-path="url(#clip0_7_8028)">
<path d="M8 16C12.4183 16 16 12.4183 16 8C16 3.58172 12.4183 0 8 0C3.58172 0 0 3.58172 0 8C0 12.4183 3.58172 16 8 16Z" fill="#1C1C1C"/>
<path d="M7.8574 6.7165C8.0104 6.779 8.1634 6.7475 8.2859 6.7165C8.3779 7.0285 8.5309 7.309 8.6834 7.4335C8.5919 8.2135 8.31639 8.494 8.0104 8.494C7.5824 8.494 7.3679 7.5895 7.3679 7.434C7.4599 7.3715 7.7349 7.184 7.8574 6.7165ZM7.3984 9.461C7.5824 9.305 7.7044 9.0555 7.8574 8.65C7.9799 8.7125 8.1634 8.68099 8.2859 8.65C8.3779 9.08649 8.4694 9.3675 8.6834 9.492C8.6224 9.991 8.3164 10.334 8.0409 10.334C7.6434 10.334 7.4599 9.7105 7.3984 9.461ZM4.9509 10.4275C5.0734 10.2715 5.0734 10.0225 5.0124 9.5545C5.1039 9.5855 5.1959 9.5855 5.2574 9.5545C5.4404 9.991 5.5934 10.2715 5.8384 10.4275C5.8689 10.646 5.8384 10.8955 5.7464 10.9265C5.4099 11.0825 5.1034 10.677 4.9509 10.4275ZM3.6659 9.5855C3.7274 9.5855 3.7579 9.5855 3.8189 9.617C4.0334 10.178 4.4004 10.49 4.4004 10.49C4.5229 10.7395 4.5839 10.989 4.4919 10.989C4.2169 11.02 4.0024 10.833 3.7884 10.4275C3.8189 10.334 3.7884 10.2715 3.6659 9.5855ZM2.8399 9.5855C3.1459 10.8955 3.7274 10.833 3.6969 10.7705C3.5744 10.5525 3.4519 10.459 3.3294 10.3655C3.0544 10.0845 2.8399 9.492 2.8399 9.5855ZM6.5724 10.4275C6.7869 10.2715 6.8174 9.9285 6.8479 9.4925C6.9704 9.523 7.1229 9.523 7.2149 9.4925C7.2764 9.7725 7.3679 10.178 7.64339 10.3655C7.6129 10.7085 7.5209 10.8955 7.3069 10.9265C7.1539 10.989 6.7254 10.989 6.5724 10.4275ZM3.9414 9.461C4.0639 9.305 4.0944 9.0555 4.1249 8.7125C4.2169 8.74349 4.3394 8.74349 4.3999 8.7125C4.4919 9.1175 4.6449 9.3675 4.8289 9.4925C4.8899 10.147 4.8289 10.3655 4.7064 10.3655C4.4314 10.3655 4.0639 9.7725 3.9414 9.4605V9.461ZM2.9929 9.461C2.9929 9.3985 3.0234 8.993 3.0544 8.7125H3.1764C3.3294 9.305 3.5439 9.4925 3.5439 9.4925C3.6969 10.2095 3.6969 10.3965 3.5739 10.334C3.2989 10.2405 3.0849 9.7105 2.9929 9.461ZM5.4404 9.461C5.5934 9.336 5.6854 9.118 5.7464 8.7125C5.8994 8.7745 6.0524 8.74349 6.1444 8.7125C6.2359 9.1175 6.38939 9.3675 6.60339 9.4925C6.60339 9.835 6.5724 10.3965 6.1444 10.3025C5.7769 10.2095 5.4714 9.5855 5.4404 9.461ZM5.1654 9.3675C4.7979 9.3675 4.5839 8.7745 4.5839 8.5875C4.7674 8.4005 4.8589 8.0575 4.9509 7.465C5.0124 7.496 5.1039 7.496 5.1959 7.465C5.2264 8.12 5.4099 8.4005 5.5629 8.5565C5.5019 9.0865 5.3489 9.3675 5.1654 9.3675ZM3.2684 8.5875C3.3294 8.4625 3.3294 8.4315 3.5134 7.465H3.6659C3.6659 8.12 3.8494 8.4315 3.9414 8.5565C3.9109 8.8995 3.9719 9.3675 3.6964 9.3675C3.5744 9.3675 3.4214 9.21149 3.2684 8.5875ZM2.6564 7.496C2.7484 7.5275 2.6869 8.338 2.8094 8.619C2.8094 8.619 2.8094 9.3985 2.7484 9.336C2.2894 8.7745 2.5954 7.465 2.6564 7.496ZM6.3279 8.5875C6.5419 8.4315 6.6644 8.0885 6.8479 7.465C6.9704 7.496 7.1229 7.496 7.2149 7.465C7.2764 7.9325 7.3984 8.276 7.64339 8.525C7.5824 9.02399 7.33739 9.3675 7.03139 9.3675C6.54189 9.3675 6.3584 8.68099 6.3279 8.5875ZM3.8189 7.3715C4.0639 7.278 4.2169 6.7475 4.2474 6.685C4.28106 6.71518 4.32468 6.73187 4.3699 6.73187C4.41511 6.73187 4.45873 6.71518 4.4924 6.685C4.4924 7.0905 4.6144 7.278 4.7064 7.34C4.6144 7.87 4.4919 8.494 4.2164 8.494C3.9719 8.494 3.8494 7.9325 3.8189 7.3715ZM3.0539 8.525C2.8399 8.525 2.7789 7.7145 2.8399 7.3715C2.8399 7.3715 3.0234 7.0905 3.1459 6.685C3.1764 6.685 3.2379 6.7165 3.2684 6.685C3.2379 7.0905 3.2989 7.278 3.3599 7.3715C3.3599 7.3715 3.2074 8.525 3.0544 8.525H3.0539ZM5.3794 7.3715C5.5019 7.309 5.7464 6.966 5.8689 6.654C5.9914 6.7165 6.1139 6.7165 6.2664 6.685C6.3279 7.0285 6.41939 7.2465 6.63389 7.3715C6.54189 7.9325 6.3584 8.494 5.9609 8.494C5.5934 8.494 5.4099 7.7455 5.3794 7.3715ZM5.6544 6.5295C5.4714 7.0285 5.2874 7.309 5.0429 7.309C4.7369 7.309 4.7064 6.654 4.7064 6.5915C4.9514 6.4045 5.1344 6.0305 5.2874 5.7185H5.5019C5.4404 6.186 5.5629 6.4045 5.6549 6.5295H5.6544ZM4.1554 5.7495C4.0024 6.186 4.0639 6.4045 4.1254 6.5605C3.8804 7.184 3.7579 7.3405 3.5744 7.3405C3.3909 7.309 3.3909 6.9345 3.4519 6.623C3.6354 6.498 4.0334 5.781 4.0334 5.7495H4.1554ZM3.2684 5.781C3.3599 5.7495 3.0234 6.2175 3.0544 6.436C3.0844 6.7475 2.7174 7.278 2.6869 7.2465C2.5649 7.2155 2.8094 6.0925 3.2684 5.781ZM7.6129 6.5295C7.5209 6.8725 7.3984 7.309 6.8784 7.309C6.60339 7.278 6.4504 6.904 6.3889 6.5915C6.6949 6.3735 6.8479 5.999 6.9399 5.7185C7.03139 5.7495 7.1849 5.7495 7.2764 5.7185C7.3374 6.186 7.4904 6.4045 7.6129 6.5295ZM3.4519 5.687C3.5129 5.656 3.9109 5.126 4.1249 5.126C4.2474 5.157 3.9109 5.469 3.9414 5.625C3.8494 5.781 3.4214 6.56 3.2684 6.56C3.1459 6.56 3.1459 6.155 3.4519 5.687ZM10.9784 9.5545C10.9474 10.022 10.9474 10.2715 11.0394 10.4275C10.9169 10.6775 10.5804 11.0515 10.2444 10.9265C10.1214 10.8955 10.1214 10.646 10.1519 10.4275C10.4274 10.2715 10.6109 9.96 10.7334 9.5545C10.7944 9.5855 10.8864 9.5855 10.9784 9.5545ZM12.2019 9.5545C12.2324 9.5855 12.2939 9.5855 12.3549 9.523C12.2324 10.2095 12.2019 10.2715 12.2324 10.3655C12.0184 10.7705 11.8044 10.9265 11.5289 10.9265C11.4064 10.9265 11.4679 10.7085 11.6209 10.4275C11.6209 10.4275 11.9879 10.116 12.2019 9.5545ZM12.6919 10.3655C12.5689 10.49 12.4469 10.5525 12.3549 10.7705C12.3244 10.833 12.9059 10.8955 13.2114 9.5855C13.1504 9.492 12.9664 10.0845 12.6914 10.3655H12.6919ZM9.1729 9.5545C9.1729 9.9285 9.26489 10.2715 9.44839 10.49C9.29539 11.02 8.8674 11.02 8.7144 10.989C8.4999 10.9265 8.4389 10.7395 8.3779 10.4275C8.6224 10.2095 8.74489 9.835 8.80589 9.5545C8.92839 9.5855 9.0509 9.5855 9.1729 9.5545ZM11.9264 8.681C11.9264 9.0555 11.9574 9.305 12.1104 9.4295C11.9879 9.7415 11.5904 10.3345 11.3454 10.3345C11.2229 10.3345 11.1619 10.116 11.2229 9.461C11.4064 9.336 11.5594 9.024 11.6514 8.681C11.6934 8.70456 11.7407 8.71693 11.7889 8.71693C11.8371 8.71693 11.8844 8.70456 11.9264 8.681ZM13.0279 8.7435C13.0279 8.9935 13.0279 9.3985 13.0894 9.492C12.9669 9.742 12.7529 10.272 12.5079 10.3655C12.3549 10.3965 12.3854 10.2095 12.5384 9.523C12.5384 9.523 12.7529 9.305 12.9059 8.7435H13.0279ZM10.3049 8.681C10.3664 9.118 10.4274 9.336 10.6109 9.4295C10.5809 9.5855 10.2439 10.2095 9.9074 10.2715C9.4789 10.3655 9.44839 9.7725 9.44839 9.461C9.6624 9.336 9.8154 9.0555 9.9074 8.681C9.9994 8.7125 10.1524 8.7435 10.3049 8.681ZM11.4679 8.5875C11.4369 8.7745 11.1924 9.3675 10.8864 9.3675C10.7029 9.3675 10.5499 9.0555 10.4889 8.5565C10.6419 8.4315 10.8254 8.12 10.8559 7.465C10.9346 7.49623 11.0222 7.49623 11.1009 7.465C11.2229 8.0265 11.3149 8.4005 11.4679 8.5875ZM12.5384 7.465C12.6914 8.4315 12.7219 8.463 12.7834 8.5875C12.6304 9.18 12.4774 9.3675 12.3549 9.3675C12.0799 9.3675 12.1409 8.8685 12.1099 8.5565C12.2324 8.4315 12.3854 8.12 12.3854 7.465C12.4469 7.496 12.4774 7.465 12.5384 7.465ZM13.1809 8.5875C13.3339 8.338 13.2729 7.5275 13.3339 7.465C13.4259 7.4335 13.7009 8.806 13.2424 9.305C13.1809 9.3675 13.1809 8.5875 13.1809 8.5875ZM9.2649 7.465C9.3569 8.0885 9.50989 8.4315 9.78489 8.5875C9.7544 8.68099 9.5099 9.3675 9.0814 9.3675C8.74489 9.3985 8.56139 8.993 8.46939 8.525C8.68339 8.276 8.83639 7.9325 8.89789 7.465C8.95889 7.496 9.1119 7.496 9.2649 7.465ZM11.8044 6.685C11.8044 6.7475 11.9879 7.278 12.2019 7.4335C12.2019 7.9635 12.0489 8.5565 11.8044 8.5565C11.5289 8.5565 11.4064 7.964 11.3144 7.4025C11.4064 7.309 11.5289 7.0905 11.5289 6.7165C11.5738 6.73436 11.6224 6.74083 11.6704 6.73533C11.7183 6.72984 11.7647 6.71254 11.8044 6.685ZM13.1809 7.3715C13.2114 7.7145 13.1504 8.525 12.9974 8.494C12.8444 8.494 12.6914 7.34 12.6914 7.34C12.7529 7.2465 12.8139 7.0285 12.7834 6.685C12.8002 6.70014 12.822 6.70852 12.8446 6.70852C12.8673 6.70852 12.8891 6.70014 12.9059 6.685C13.0279 7.0905 13.1809 7.3715 13.1809 7.3715ZM10.1829 6.685C10.3049 6.966 10.5194 7.309 10.7029 7.4025C10.6724 7.777 10.4579 8.525 10.1214 8.525C9.6624 8.5565 9.54039 7.995 9.44839 7.4025C9.63189 7.2775 9.7544 7.0285 9.78489 6.7165C9.90739 6.7475 10.0599 6.7475 10.1829 6.685ZM10.9479 7.278C10.7334 7.309 10.5499 7.028 10.3359 6.5295C10.4579 6.4045 10.5499 6.155 10.4889 5.7185C10.5804 5.7495 10.6419 5.7495 10.7029 5.7185C10.8864 6.0615 11.0699 6.4045 11.2839 6.5605C11.2839 6.654 11.2544 7.278 10.9479 7.278ZM11.9264 6.5295C11.9574 6.4045 12.0184 6.186 11.8349 5.7185H11.9574C11.9574 5.7495 12.3854 6.4985 12.5384 6.5915C12.5999 6.9345 12.5999 7.278 12.4159 7.309C12.2634 7.309 12.1409 7.153 11.9264 6.529V6.5295ZM12.9664 6.4355C12.9974 6.2175 12.6914 5.7495 12.7219 5.7805C13.2119 6.0925 13.3954 7.2155 13.3034 7.2465C13.2729 7.278 12.9359 6.7165 12.9664 6.4355ZM9.0814 7.278C8.6224 7.309 8.49989 6.8725 8.40839 6.5295C8.56139 6.4355 8.7144 6.155 8.74489 5.7185C8.83639 5.7495 8.9899 5.7495 9.0814 5.7185C9.17289 5.999 9.3264 6.3735 9.5709 6.5605C9.5404 6.9345 9.3879 7.2465 9.0814 7.278ZM11.9264 5.126C12.0794 5.126 12.5384 5.656 12.5689 5.687C12.9059 6.186 12.9059 6.5605 12.7834 6.5605C12.5999 6.5605 12.2019 5.7805 12.1104 5.625C12.1404 5.469 11.8044 5.126 11.9264 5.126ZM5.1344 5.2195C5.0734 5.4065 5.0429 5.5935 5.1344 5.687C4.9509 6.0615 4.6449 6.592 4.3694 6.5605C4.0639 6.498 4.3084 5.7805 4.3394 5.7185C4.5229 5.625 4.9509 5.0325 5.1044 5.0325C5.1959 5.0635 5.1344 5.2195 5.1344 5.2195ZM6.5724 5.1885C6.5724 5.3755 6.60339 5.5935 6.7559 5.687C6.63389 6.0615 6.3889 6.5605 5.9909 6.5295C5.7159 6.498 5.6549 6.0305 5.7159 5.687C5.9909 5.5935 6.2359 5.001 6.4194 5.001C6.5724 5.001 6.5724 5.157 6.5724 5.1885ZM10.9174 5.687C10.9784 5.5935 10.9784 5.407 10.9174 5.2195C10.9174 5.1885 10.8559 5.0325 10.9474 5.0325C11.1004 5.0325 11.5289 5.625 11.7124 5.7185C11.7429 5.781 11.9874 6.4985 11.6819 6.5605C11.3759 6.5915 11.1009 6.0305 10.9174 5.687ZM9.29539 5.687C9.41789 5.5935 9.4484 5.3755 9.4789 5.1885C9.4789 5.157 9.4789 5.001 9.6319 5.001C9.78489 4.97 10.0909 5.5935 10.3359 5.687C10.4274 6.0925 10.3659 6.498 10.0604 6.5295C9.6319 6.5915 9.41789 6.0305 9.29539 5.687ZM8.0104 5.001C8.31639 5.001 8.31639 5.5935 8.56139 5.7185C8.56139 5.8745 8.4694 6.5605 7.9799 6.5605C7.55139 6.5605 7.4599 5.999 7.4294 5.7185C7.7964 5.5625 7.6744 5.001 8.0104 5.001Z" fill="white"/>
</g>
<defs>
<clipPath id="clip0_7_8028">
<rect width="16" height="16" fill="white"/>
</clipPath>
</defs>
</svg>
