<svg width="16" height="16" viewBox="0 0 16 16" fill="none" xmlns="http://www.w3.org/2000/svg">
<g clip-path="url(#clip0_7_7738)">
<path d="M8 16C12.4183 16 16 12.4183 16 8C16 3.58172 12.4183 0 8 0C3.58172 0 0 3.58172 0 8C0 12.4183 3.58172 16 8 16Z" fill="#F2941B"/>
<path d="M8.283 2.5H8.2885C9.3245 3.525 10.349 4.56 11.379 5.5905H13.949L8.164 13.787C8.068 12.8245 7.994 11.862 7.909 10.9C8.747 9.6945 9.6075 8.5 10.4455 7.3L8.532 5.3925C8.53029 5.16689 8.5114 4.94174 8.4755 4.719C8.413 3.983 8.3735 3.236 8.283 2.5ZM2.0055 10.73C3.947 8.002 5.8715 5.2625 7.8075 2.5285L8.051 5.4265C7.2075 6.632 6.3585 7.821 5.515 9.021C6.1435 9.649 6.7715 10.2885 7.4115 10.917C7.4965 11.879 7.57 12.853 7.6665 13.821H7.6545L4.581 10.7415C3.721 10.753 2.8605 10.736 2 10.753V10.73H2.0055Z" fill="white"/>
</g>
<defs>
<clipPath id="clip0_7_7738">
<rect width="16" height="16" fill="white"/>
</clipPath>
</defs>
</svg>
