<svg width="16" height="16" viewBox="0 0 16 16" fill="none" xmlns="http://www.w3.org/2000/svg">
<g clip-path="url(#clip0_7_7714)">
<path d="M8 16C12.4183 16 16 12.4183 16 8C16 3.58172 12.4183 0 8 0C3.58172 0 0 3.58172 0 8C0 12.4183 3.58172 16 8 16Z" fill="#01AEF0"/>
<path fill-rule="evenodd" clip-rule="evenodd" d="M10.5346 9.44504C10.5281 10.482 9.92909 11.365 8.97359 11.7275C8.74959 11.8125 8.51659 11.875 8.28459 11.933C8.14609 11.968 8.07059 12.0365 8.05959 12.188C8.04559 12.379 8.02609 12.5695 7.99959 12.758C7.96759 12.981 7.89109 13.032 7.68609 12.983C7.33309 12.899 7.29509 12.842 7.34209 12.4715C7.34609 12.44 7.35059 12.4085 7.35409 12.3765C7.38909 12.073 7.34609 12.0295 7.05559 12.044C6.92509 12.0505 6.87059 12.115 6.85809 12.243C6.84109 12.427 6.82309 12.6115 6.79309 12.793C6.76309 12.979 6.68509 13.025 6.50609 12.986C6.12409 12.9035 6.09609 12.861 6.14609 12.457C6.20909 11.9555 6.20759 11.961 5.74459 11.8215C5.53959 11.7595 5.34059 11.6735 5.14009 11.594C5.01809 11.546 4.97809 11.455 5.01109 11.3195C5.05309 11.147 5.08209 10.9705 5.11809 10.796C5.18009 10.4985 5.32409 10.4085 5.59909 10.5165C6.08609 10.708 6.58609 10.826 7.10659 10.8385C7.57609 10.85 8.04059 10.819 8.46909 10.5885C8.75209 10.436 8.96009 10.2125 9.06459 9.89204C9.21959 9.41604 9.08059 9.03104 8.63459 8.83954C8.26709 8.68204 7.87259 8.59454 7.50209 8.44354C7.17309 8.30954 6.83109 8.17554 6.54709 7.96504C5.90859 7.49304 5.79709 6.79504 5.93709 6.04954C6.09609 5.20904 6.61059 4.66404 7.37409 4.37454C7.57759 4.29804 7.66959 4.19104 7.67309 3.96254C7.67609 3.71504 7.71559 3.46754 7.74559 3.22104C7.76859 3.03154 7.84259 2.97854 8.01959 3.00754C8.39559 3.06904 8.44059 3.12854 8.40359 3.51904C8.38909 3.67154 8.37659 3.82404 8.35859 3.97554C8.34359 4.10304 8.38409 4.16154 8.51759 4.16554C8.82209 4.17454 8.83509 4.16904 8.87109 3.85404C8.89409 3.65154 8.91109 3.44854 8.93859 3.24654C8.96859 3.02254 9.04109 2.97154 9.24759 3.01354C9.59509 3.08504 9.63359 3.13804 9.59959 3.50004C9.58459 3.65854 9.57709 3.81854 9.54959 3.97504C9.51809 4.15504 9.57309 4.23854 9.75209 4.28004C10.0926 4.35904 10.4296 4.45904 10.7641 4.56304C11.0156 4.64104 11.0256 4.66954 10.9771 4.93104C10.9486 5.08754 10.9201 5.24454 10.8831 5.39904C10.8141 5.69004 10.6691 5.77654 10.3921 5.68354C9.91809 5.52354 9.44209 5.37904 8.93959 5.35754C8.49959 5.33904 8.06559 5.34554 7.68359 5.62204C7.14559 6.01104 7.14259 6.80204 7.71459 7.13504C8.07859 7.34704 8.49909 7.45504 8.89359 7.61104C9.13409 7.70604 9.38109 7.78804 9.61209 7.90304C10.2311 8.21204 10.5416 8.72854 10.5346 9.44554" fill="white"/>
</g>
<defs>
<clipPath id="clip0_7_7714">
<rect width="16" height="16" fill="white"/>
</clipPath>
</defs>
</svg>
