<svg width="16" height="16" viewBox="0 0 16 16" fill="none" xmlns="http://www.w3.org/2000/svg">
<g clip-path="url(#clip0_7_7895)">
<path d="M8 16C12.4183 16 16 12.4183 16 8C16 3.58172 12.4183 0 8 0C3.58172 0 0 3.58172 0 8C0 12.4183 3.58172 16 8 16Z" fill="#4BA2F2"/>
<path d="M4.93476 4.11447C5.04276 4.13297 4.77376 4.84947 4.92376 5.66797C5.05376 6.36947 6.67726 9.08597 6.61026 10.018C6.55826 10.603 5.22526 11.9755 5.08476 11.884C4.93126 11.8415 5.48976 10.909 5.28276 10.132C5.04176 9.22597 3.61276 6.88397 3.61426 5.84997C3.61426 5.09347 4.83876 4.06547 4.93476 4.11447ZM7.98926 3.04447C8.12626 3.06797 7.78426 3.98247 7.97526 5.02397C8.14026 5.91997 10.2118 9.38397 10.1258 10.5715C10.0588 11.3185 8.35976 13.067 8.17976 12.9515C7.98476 12.898 8.69676 11.7085 8.43276 10.7175C8.12626 9.56347 6.30376 6.57647 6.30526 5.25797C6.30526 4.29247 7.86626 2.98247 7.98926 3.04447ZM11.1418 4.11447C11.2498 4.13297 10.9813 4.84947 11.1308 5.66797C11.2608 6.36947 12.8843 9.08597 12.8178 10.018C12.7663 10.603 11.4328 11.9755 11.2918 11.884C11.1388 11.8415 11.6968 10.909 11.4898 10.132C11.2493 9.22597 9.81976 6.88397 9.82126 5.84997C9.82126 5.09347 11.0463 4.06547 11.1418 4.11447Z" fill="white"/>
</g>
<defs>
<clipPath id="clip0_7_7895">
<rect width="16" height="16" fill="white"/>
</clipPath>
</defs>
</svg>
