<svg width="16" height="16" viewBox="0 0 16 16" fill="none" xmlns="http://www.w3.org/2000/svg">
<g clip-path="url(#clip0_7_7698)">
<path d="M8 16C12.4183 16 16 12.4183 16 8C16 3.58172 12.4183 0 8 0C3.58172 0 0 3.58172 0 8C0 12.4183 3.58172 16 8 16Z" fill="#2683FF"/>
<path d="M12.4884 9.4855C12.6982 9.61137 12.8507 9.81404 12.9135 10.0505C12.9763 10.287 12.9445 10.5386 12.8249 10.752C12.5679 11.203 11.9839 11.363 11.5244 11.111C11.4794 11.0865 11.4404 11.0575 11.4004 11.0285L8.93735 12.4205C8.94335 12.4655 8.94685 12.511 8.94735 12.5565C8.94735 12.61 8.94735 12.6585 8.93735 12.7115C8.85335 13.2215 8.36385 13.5705 7.84435 13.488C7.32535 13.4055 6.96935 12.925 7.05335 12.416L4.57485 11.014C4.53648 11.0415 4.49694 11.0674 4.45635 11.0915C4.41635 11.111 4.37685 11.135 4.33235 11.1495C4.0987 11.2431 3.83761 11.2412 3.60538 11.1441C3.37314 11.047 3.18835 10.8626 3.09085 10.6305C2.89335 10.1505 3.13085 9.607 3.62035 9.413V6.609C3.57541 6.59452 3.53229 6.57489 3.49185 6.5505C3.45477 6.52748 3.41842 6.5033 3.38285 6.478C3.24811 6.3801 3.14212 6.2478 3.07598 6.09493C3.00984 5.94207 2.98597 5.77425 3.00685 5.609C3.02899 5.44336 3.09485 5.28662 3.19767 5.15488C3.30049 5.02315 3.43655 4.92119 3.59185 4.8595C3.74824 4.79645 3.91834 4.77519 4.08544 4.79781C4.25253 4.82043 4.41086 4.88614 4.54485 4.9885L7.04785 3.567C7.04285 3.5235 7.03785 3.485 7.03785 3.441C7.03785 2.927 7.47785 2.5 8.00235 2.5C8.52635 2.5 8.95635 2.917 8.95685 3.436C8.95685 3.48 8.95185 3.5185 8.94685 3.5625L11.4694 4.9935C11.579 4.91317 11.7043 4.85682 11.8371 4.82813C11.97 4.79944 12.1074 4.79904 12.2404 4.82696C12.3734 4.85488 12.499 4.9105 12.6091 4.99019C12.7192 5.06988 12.8113 5.17187 12.8794 5.2895C13.1359 5.7405 12.9679 6.313 12.5079 6.5655C12.4634 6.5845 12.4189 6.609 12.3744 6.6235V9.4325C12.4139 9.4475 12.4524 9.465 12.4884 9.4855ZM12.6619 10.6595C12.7107 10.5789 12.743 10.4893 12.7567 10.396C12.7704 10.3027 12.7654 10.2077 12.7419 10.1164C12.7184 10.0251 12.6768 9.93938 12.6197 9.86436C12.5626 9.78934 12.4911 9.72649 12.4094 9.6795C12.2747 9.60187 12.1188 9.56899 11.9643 9.58562C11.8097 9.60224 11.6644 9.6675 11.5494 9.772L10.4164 9.127C10.5519 8.85307 10.5826 8.53898 10.5024 8.24402C10.4223 7.94906 10.2369 7.69365 9.98135 7.526C9.94953 7.41895 9.90803 7.31502 9.85735 7.2155L11.5689 6.2645C11.7469 6.4295 11.9974 6.497 12.2364 6.4445C12.3294 6.42441 12.4176 6.38602 12.4958 6.33156C12.5739 6.27711 12.6404 6.20767 12.6915 6.12729C12.7426 6.04691 12.7772 5.95718 12.7933 5.86331C12.8094 5.76945 12.8067 5.67331 12.7854 5.5805C12.6964 5.1925 12.3004 4.955 11.9054 5.042C11.8123 5.06204 11.7241 5.10037 11.6459 5.15477C11.5678 5.20917 11.5012 5.27855 11.4501 5.35888C11.399 5.43921 11.3643 5.5289 11.3481 5.62274C11.332 5.71657 11.3346 5.81269 11.3559 5.9055L9.62485 6.871C9.28885 6.478 8.22035 6.216 8.22035 6.216V4.0765C8.32726 4.04577 8.42483 3.98891 8.50426 3.91105C8.5837 3.83318 8.6425 3.73677 8.67535 3.6305C8.70112 3.54581 8.70976 3.45683 8.70077 3.36877C8.69177 3.2807 8.66533 3.19531 8.62297 3.11758C8.58061 3.03985 8.52319 2.97133 8.45407 2.91603C8.38494 2.86073 8.30549 2.81976 8.22035 2.7955C7.85935 2.689 7.47835 2.883 7.36935 3.2375C7.34366 3.32216 7.33508 3.41108 7.34411 3.49909C7.35315 3.5871 7.37961 3.67243 7.42196 3.75011C7.46431 3.82778 7.5217 3.89625 7.59079 3.95152C7.65988 4.00678 7.73927 4.04774 7.82435 4.072V6.255C7.82435 6.255 7.24135 6.444 7.01385 6.628C6.7722 6.63356 6.53513 6.69518 6.32135 6.808L4.69385 5.891C4.72128 5.77643 4.71934 5.65679 4.68823 5.54317C4.65711 5.42955 4.59782 5.32561 4.51585 5.241C4.38332 5.10126 4.20107 5.01934 4.00858 5.01297C3.81609 5.00661 3.62883 5.07632 3.48735 5.207C3.41729 5.27056 3.36069 5.34752 3.32089 5.43333C3.28109 5.51914 3.2589 5.61207 3.25564 5.70661C3.25237 5.80114 3.2681 5.89538 3.30189 5.98373C3.33568 6.07208 3.38684 6.15276 3.45235 6.221C3.58498 6.36077 3.7673 6.44271 3.95988 6.44907C4.15246 6.45543 4.33979 6.38572 4.48135 6.255L5.95035 7.0795C5.6927 7.3301 5.53391 7.6651 5.50306 8.0232C5.47221 8.3813 5.57135 8.73853 5.78235 9.0295L4.49135 9.762C4.40187 9.68046 4.29387 9.62196 4.17669 9.59156C4.05951 9.56115 3.93669 9.55976 3.81885 9.5875C3.7258 9.60824 3.6378 9.64726 3.55994 9.70229C3.48209 9.75731 3.41594 9.82726 3.36533 9.90805C3.31472 9.98885 3.28067 10.0789 3.26513 10.173C3.2496 10.267 3.25291 10.3632 3.27485 10.456C3.36935 10.843 3.76535 11.0815 4.15985 10.989C4.25285 10.9683 4.34081 10.9293 4.41862 10.8743C4.49644 10.8193 4.56256 10.7494 4.61316 10.6686C4.66377 10.5879 4.69784 10.4979 4.71341 10.4039C4.72897 10.3099 4.72573 10.2137 4.70385 10.121L6.08385 9.34C6.43885 9.6215 6.90235 9.7335 7.34985 9.6455C7.48785 9.7085 7.62985 9.762 7.77485 9.8055V11.8435C7.67679 11.8739 7.58571 11.9234 7.50685 11.9891C7.42799 12.0548 7.36291 12.1355 7.31535 12.2265C7.2704 12.315 7.24357 12.4115 7.23645 12.5105C7.22932 12.6095 7.24203 12.7088 7.27384 12.8028C7.30566 12.8968 7.35592 12.9835 7.42169 13.0578C7.48746 13.1321 7.56742 13.1925 7.65685 13.2355C7.68685 13.2505 7.71635 13.2645 7.75085 13.2745C7.75585 13.2745 7.76085 13.2795 7.76585 13.2795C8.17085 13.4005 8.60185 13.182 8.72535 12.7845C8.75491 12.6895 8.76526 12.5896 8.75579 12.4906C8.74633 12.3916 8.71725 12.2955 8.67024 12.2079C8.62323 12.1202 8.55924 12.0428 8.482 11.9802C8.40476 11.9175 8.31581 11.8709 8.22035 11.843V9.845C8.22035 9.845 8.59135 9.811 8.76435 9.7575C9.24685 9.9475 9.79885 9.835 10.1644 9.4715L11.3214 10.1365C11.2858 10.2861 11.2999 10.4432 11.3615 10.5841C11.4231 10.725 11.5289 10.842 11.6629 10.9175C11.8302 11.0128 12.0281 11.0392 12.2145 10.9912C12.401 10.9431 12.5614 10.8238 12.6619 10.6595ZM3.99185 9.9805C4.10185 9.981 4.20285 10.038 4.25885 10.1305C4.28409 10.1769 4.29765 10.2287 4.29835 10.2815C4.29743 10.362 4.26465 10.4388 4.2072 10.4951C4.14975 10.5514 4.07231 10.5827 3.99185 10.582C3.91131 10.5828 3.83375 10.5516 3.77619 10.4953C3.71863 10.4389 3.68578 10.362 3.68485 10.2815C3.68485 10.115 3.82235 9.9805 3.99185 9.9805ZM8.32435 3.4365C8.32304 3.51691 8.29007 3.59357 8.23259 3.64982C8.17512 3.70608 8.09778 3.73741 8.01735 3.737C7.9369 3.73767 7.85946 3.70641 7.80201 3.65009C7.74456 3.59376 7.71178 3.51695 7.71085 3.4365C7.71085 3.27 7.84835 3.1355 8.01735 3.1355C8.18735 3.1355 8.32435 3.2705 8.32435 3.4365ZM12.0634 6.0465C11.983 6.04638 11.906 6.01481 11.8487 5.95854C11.7914 5.90227 11.7584 5.82579 11.7569 5.7455C11.7569 5.5795 11.8944 5.4445 12.0634 5.4445C12.2334 5.4445 12.3704 5.5795 12.3704 5.7455C12.3694 5.82604 12.3366 5.90292 12.279 5.95926C12.2215 6.0156 12.1439 6.0468 12.0634 6.046V6.0465ZM4.13485 5.4685C4.16961 5.48725 4.20024 5.51281 4.2249 5.54366C4.24956 5.57451 4.26775 5.61001 4.27839 5.64804C4.28903 5.68607 4.2919 5.72586 4.28683 5.76503C4.28175 5.80419 4.26884 5.84193 4.24885 5.876C4.20839 5.94572 4.14197 5.99659 4.06411 6.01748C3.98625 6.03838 3.90329 6.0276 3.83335 5.9875C3.79849 5.96885 3.76777 5.94334 3.74303 5.91251C3.71829 5.88167 3.70004 5.84615 3.68939 5.80808C3.67874 5.77001 3.6759 5.73017 3.68105 5.69098C3.6862 5.65178 3.69923 5.61403 3.71935 5.58C3.75982 5.51028 3.82624 5.45941 3.9041 5.43852C3.98196 5.41762 4.06492 5.4284 4.13485 5.4685ZM12.1869 10.0385C12.2215 10.0573 12.2521 10.0828 12.2767 10.1136C12.3013 10.1444 12.3195 10.1799 12.3301 10.2178C12.3408 10.2558 12.3437 10.2955 12.3386 10.3346C12.3336 10.3738 12.3208 10.4115 12.3009 10.4455C12.2725 10.491 12.2331 10.5287 12.1864 10.555C12.1396 10.5813 12.087 10.5954 12.0334 10.596C11.9794 10.5969 11.9261 10.5836 11.8789 10.5575C11.8317 10.5313 11.7922 10.4932 11.7644 10.447C11.737 10.4011 11.7225 10.3487 11.7225 10.2952C11.7225 10.2418 11.737 10.1894 11.7644 10.1435C11.7922 10.0973 11.8317 10.0592 11.8789 10.033C11.9261 10.0069 11.9794 9.99359 12.0334 9.9945C12.0873 9.99623 12.14 10.0117 12.1869 10.0385ZM7.71085 12.546C7.71135 12.5422 7.71311 12.5387 7.71585 12.536C7.72935 12.4574 7.77318 12.3873 7.8379 12.3407C7.90262 12.2941 7.98305 12.2748 8.06185 12.287C8.14068 12.2976 8.21208 12.339 8.26036 12.4022C8.30865 12.4654 8.32987 12.5452 8.31935 12.624C8.30453 12.6969 8.26487 12.7623 8.20714 12.8092C8.14942 12.8561 8.07721 12.8814 8.00285 12.881C7.96132 12.8792 7.92059 12.869 7.88313 12.851C7.84567 12.833 7.81226 12.8075 7.78495 12.7762C7.75764 12.7448 7.73698 12.7083 7.72424 12.6687C7.71151 12.6291 7.70695 12.5874 7.71085 12.546ZM9.47185 7.9035C9.61892 7.94872 9.74746 8.0402 9.83836 8.16434C9.92926 8.28848 9.97766 8.43864 9.97635 8.5925C9.97635 8.617 9.97135 8.6415 9.97135 8.6655C9.96635 8.685 9.96635 8.7045 9.96135 8.7235V8.7385C9.95135 8.782 9.94135 8.8255 9.92135 8.869C9.8665 9.00272 9.77167 9.11622 9.64985 9.194C9.61985 9.209 9.59485 9.2235 9.56585 9.238L9.55085 9.243C9.49288 9.26991 9.43119 9.28795 9.36785 9.2965L9.34285 9.301C9.30835 9.301 9.27885 9.306 9.24435 9.306C9.08285 9.306 8.92635 9.253 8.79935 9.1555L8.66535 9.2135C8.62435 9.2335 8.58135 9.248 8.53685 9.2575H8.53185C8.22579 9.33942 7.90033 9.30652 7.61685 9.165H7.61185C7.58235 9.1505 7.55285 9.136 7.52785 9.1215L7.51785 9.1165C7.48835 9.0975 7.46385 9.078 7.43385 9.0585C7.31396 9.11105 7.18425 9.13747 7.05335 9.136C7.01335 9.136 6.97885 9.136 6.94435 9.131L6.92435 9.126L6.83535 9.112L6.82535 9.107C6.79364 9.1011 6.76239 9.09291 6.73185 9.0825C6.6521 9.05605 6.57574 9.0203 6.50435 8.976C6.35539 8.88384 6.23802 8.7485 6.16785 8.588C6.16785 8.578 6.16285 8.573 6.15785 8.5635C6.15204 8.54699 6.14537 8.5308 6.13785 8.515C6.13196 8.50408 6.12694 8.49271 6.12285 8.481C6.11785 8.4665 6.10835 8.452 6.10835 8.4375C6.10738 8.42256 6.104 8.40787 6.09835 8.394C6.09335 8.379 6.09335 8.374 6.08835 8.355C6.08335 8.3355 6.08335 8.3165 6.07885 8.297C6.07885 8.282 6.07385 8.2725 6.07385 8.263C6.06971 8.23235 6.06803 8.20142 6.06885 8.1705C6.06827 8.13327 6.06994 8.09603 6.07385 8.059C6.07385 8.0445 6.07885 8.035 6.07885 8.025C6.08385 7.996 6.08885 7.972 6.09385 7.9475C6.09885 7.9375 6.09885 7.9235 6.10385 7.9135C6.10977 7.88701 6.11796 7.86108 6.12835 7.836C6.13335 7.826 6.13335 7.8215 6.13835 7.812C6.14926 7.78186 6.16246 7.75261 6.17785 7.7245L6.18285 7.7145C6.26405 7.56565 6.38217 7.44018 6.52587 7.35017C6.66956 7.26015 6.83399 7.20861 7.00335 7.2005C7.01835 7.1955 7.03335 7.1955 7.05335 7.1955C7.11285 7.1955 7.17235 7.2005 7.23135 7.2105C7.25635 7.1805 7.28085 7.1565 7.31035 7.1275L7.33535 7.1035C7.36485 7.079 7.38935 7.055 7.41935 7.0355L7.43435 7.0255C7.45385 7.011 7.48835 6.987 7.50335 6.977C7.51835 6.9675 7.54285 6.948 7.55785 6.943C7.57524 6.93698 7.59186 6.92893 7.60735 6.919C7.63685 6.904 7.68635 6.88 7.71585 6.8705L7.74085 6.851C7.93893 6.77404 8.1534 6.74908 8.36385 6.7785H8.36885C8.40885 6.7825 8.44835 6.7885 8.48735 6.7975H8.49235C8.53235 6.8025 8.56685 6.8175 8.60635 6.827L8.61135 6.832C8.65085 6.846 8.68535 6.8605 8.71985 6.8755L8.72985 6.8805C8.76385 6.8945 8.79685 6.9105 8.82885 6.9285L8.83385 6.9335C8.86335 6.9485 8.89785 6.9725 8.92785 6.9915L8.93285 6.9965C8.96735 7.016 8.99685 7.04 9.02635 7.0645L9.03135 7.0695C9.19675 7.2085 9.32436 7.38702 9.40235 7.5885V7.5935C9.41235 7.6225 9.42235 7.6565 9.43235 7.6855C9.43235 7.6955 9.43735 7.705 9.43735 7.7145C9.44535 7.7395 9.45235 7.766 9.45685 7.792L9.47185 7.9035Z" fill="white"/>
</g>
<defs>
<clipPath id="clip0_7_7698">
<rect width="16" height="16" fill="white"/>
</clipPath>
</defs>
</svg>
