<svg width="16" height="16" viewBox="0 0 16 16" fill="none" xmlns="http://www.w3.org/2000/svg">
<g clip-path="url(#clip0_7_7735)">
<path d="M8 16C12.4183 16 16 12.4183 16 8C16 3.58172 12.4183 0 8 0C3.58172 0 0 3.58172 0 8C0 12.4183 3.58172 16 8 16Z" fill="#7324F0"/>
<path d="M13.8375 6.731V6.5C13.4587 6.50075 13.0942 6.6446 12.8169 6.90273C12.5397 7.16086 12.3702 7.51422 12.3425 7.892C12.3157 7.51473 12.1473 7.16156 11.8709 6.90336C11.5945 6.64517 11.2307 6.50107 10.8525 6.5V6.731C11.1891 6.731 11.5118 6.8647 11.7498 7.10268C11.9878 7.34067 12.1215 7.66344 12.1215 8C12.122 8.16678 12.0895 8.332 12.0258 8.48617C11.9622 8.64034 11.8688 8.78042 11.7508 8.89835C11.6329 9.01628 11.4928 9.10973 11.3387 9.17334C11.1845 9.23695 11.0193 9.26946 10.8525 9.269V9.5C11.2313 9.49925 11.5958 9.3554 11.8731 9.09727C12.1503 8.83914 12.3198 8.48578 12.3475 8.108C12.3744 8.48608 12.5437 8.83991 12.8211 9.09821C13.0985 9.3565 13.4635 9.50007 13.8425 9.5V9.269C13.506 9.26887 13.1834 9.13511 12.9455 8.89714C12.7076 8.65917 12.574 8.33647 12.574 8C12.5735 7.83367 12.6058 7.66886 12.669 7.51502C12.7322 7.36118 12.8252 7.22132 12.9426 7.10345C13.0599 6.98558 13.1994 6.89201 13.3529 6.8281C13.5065 6.76419 13.6712 6.7312 13.8375 6.731ZM5.8215 9.5V9.328L5.8165 8H5.595V9.5M8.8215 6.5C7.995 6.5 7.3215 7.174 7.3215 8C7.3215 8.826 7.995 9.5 8.8215 9.5C9.21932 9.5 9.60086 9.34196 9.88216 9.06066C10.1635 8.77936 10.3215 8.39782 10.3215 8C10.3215 7.60218 10.1635 7.22064 9.88216 6.93934C9.60086 6.65804 9.21932 6.5 8.8215 6.5ZM8.8215 9.269C8.65277 9.27235 8.48506 9.24201 8.32819 9.17975C8.17133 9.1175 8.02846 9.02458 7.90794 8.90643C7.78743 8.78828 7.69169 8.64729 7.62633 8.49169C7.56098 8.33609 7.52731 8.16902 7.52731 8.00025C7.52731 7.83148 7.56098 7.66441 7.62633 7.50881C7.69169 7.35321 7.78743 7.21222 7.90794 7.09407C8.02846 6.97592 8.17133 6.883 8.32819 6.82075C8.48506 6.75849 8.65277 6.72815 8.8215 6.7315C9.15789 6.73163 9.48046 6.86532 9.71832 7.10318C9.95618 7.34104 10.0899 7.66361 10.09 8C10.0905 8.16673 10.058 8.33192 9.99439 8.48606C9.93081 8.64019 9.8374 8.78025 9.71952 8.89817C9.60165 9.01609 9.46163 9.10956 9.30752 9.1732C9.15341 9.23684 8.98823 9.2694 8.8215 9.269ZM4.769 6.5C3.9425 6.5 3.269 7.174 3.269 8C3.26821 8.33632 3.13426 8.65863 2.89644 8.89644C2.65863 9.13426 2.33632 9.26821 2 9.269V9.5C2.826 9.5 3.5 8.826 3.5 8C3.50079 7.66368 3.63474 7.34137 3.87256 7.10356C4.11037 6.86574 4.43268 6.73179 4.769 6.731H6.6965V6.5H4.769Z" fill="white"/>
</g>
<defs>
<clipPath id="clip0_7_7735">
<rect width="16" height="16" fill="white"/>
</clipPath>
</defs>
</svg>
