<svg width="16" height="16" viewBox="0 0 16 16" fill="none" xmlns="http://www.w3.org/2000/svg">
<g clip-path="url(#clip0_7_7695)">
<path d="M8 16C12.4183 16 16 12.4183 16 8C16 3.58172 12.4183 0 8 0C3.58172 0 0 3.58172 0 8C0 12.4183 3.58172 16 8 16Z" fill="#2DC4E7"/>
<path d="M2.57782 4.51796C3.11332 4.51796 3.66682 4.48196 4.20282 4.52996C4.44082 4.79746 4.49432 5.17246 4.67882 5.48196C7.08382 5.49396 9.50032 5.48196 11.9053 5.48196C12.0838 5.49396 12.3038 5.49996 12.3933 5.67846C12.5003 5.87496 12.4233 6.10696 12.3218 6.28546C11.8338 7.11296 11.3693 7.95246 10.8933 8.78546C10.7148 9.08346 10.5953 9.41646 10.3278 9.64896C10.1078 9.83347 9.80382 9.84496 9.52432 9.84496H6.19032C6.01182 9.84496 5.82132 9.82746 5.71432 9.68446C5.36932 9.29746 5.18432 8.80346 4.95832 8.35096C4.56694 7.5674 4.18392 6.77969 3.80932 5.98796C3.73182 5.80946 3.63682 5.64896 3.54732 5.48196C3.23232 5.48196 2.91632 5.48196 2.60732 5.46996C2.54732 5.15496 2.54732 4.83346 2.57732 4.51796H2.57782ZM6.33382 10.488C6.57603 10.4304 6.82787 10.4263 7.07182 10.476C7.34532 10.536 7.58382 10.744 7.64932 11.018C7.72032 11.333 7.72032 11.673 7.59532 11.976C7.47632 12.25 7.17882 12.381 6.89932 12.405C6.57782 12.4285 6.20882 12.405 5.97032 12.1665C5.71482 11.881 5.71482 11.4645 5.76832 11.107C5.80382 10.8095 6.04232 10.5535 6.33382 10.488ZM9.30982 10.488C9.60732 10.423 9.92882 10.4285 10.2148 10.5355C10.4883 10.649 10.6313 10.9465 10.6548 11.226C10.6908 11.5535 10.6548 11.9285 10.4168 12.1785C10.1968 12.387 9.87532 12.4165 9.58382 12.4105C9.29782 12.399 8.98882 12.2915 8.83982 12.024C8.69784 11.7338 8.65989 11.4037 8.73232 11.089C8.79232 10.7975 9.01832 10.554 9.30982 10.488Z" fill="white"/>
</g>
<defs>
<clipPath id="clip0_7_7695">
<rect width="16" height="16" fill="white"/>
</clipPath>
</defs>
</svg>
