<svg width="16" height="16" viewBox="0 0 16 16" fill="none" xmlns="http://www.w3.org/2000/svg">
<g clip-path="url(#clip0_7_8083)">
<path d="M8 16C12.4183 16 16 12.4183 16 8C16 3.58172 12.4183 0 8 0C3.58172 0 0 3.58172 0 8C0 12.4183 3.58172 16 8 16Z" fill="#1387C9"/>
<path d="M8.02669 9.18655L12.8237 6.39455L8.02669 3.55256L3.27769 6.39455L8.02669 9.18655ZM3.02369 7.72656C3.02359 7.79296 3.0409 7.85824 3.07388 7.91588C3.10687 7.97352 3.15438 8.0215 3.21169 8.05506L8.02519 10.8591L12.9177 7.96506C12.9739 7.93256 13.0376 7.91544 13.1025 7.91541C13.1674 7.91538 13.2312 7.93244 13.2874 7.96488C13.3436 7.99731 13.3903 8.04398 13.4227 8.10019C13.4551 8.1564 13.4722 8.22016 13.4722 8.28506V9.59805C13.4722 9.66221 13.4555 9.72527 13.4239 9.78108C13.3923 9.8369 13.3467 9.88357 13.2917 9.91656L8.21319 12.9481C8.15686 12.9817 8.09252 12.9996 8.0269 12.9999C7.96127 13.0002 7.89679 12.9828 7.84019 12.9496L2.63019 9.88656C2.57015 9.85101 2.52656 9.79322 2.50886 9.72572C2.49117 9.65823 2.50081 9.58648 2.53569 9.52606C2.55282 9.49617 2.57571 9.46998 2.60304 9.44901C2.63036 9.42803 2.66157 9.41268 2.69486 9.40384C2.72816 9.39501 2.76287 9.39286 2.797 9.39754C2.83113 9.40221 2.86399 9.4136 2.89369 9.43106L8.02519 12.4476L12.9487 9.50856V8.55856L8.21219 11.3601C8.15609 11.3933 8.09212 11.411 8.02689 11.4113C7.96167 11.4116 7.89755 11.3944 7.84119 11.3616L2.94969 8.51156C2.81266 8.43145 2.69903 8.3168 2.62016 8.17905C2.54129 8.04131 2.49992 7.88528 2.50019 7.72656V6.49005C2.50003 6.43457 2.5145 6.38003 2.54215 6.33192C2.5698 6.28382 2.60965 6.24386 2.65767 6.21607C2.70569 6.18828 2.76019 6.17364 2.81568 6.17364C2.87116 6.17364 2.92567 6.18827 2.97369 6.21606L3.27769 6.39455L2.89569 6.62306C2.85916 6.64513 2.81776 6.6579 2.77513 6.66022C2.73251 6.66254 2.68997 6.65436 2.65125 6.63638C2.61254 6.61841 2.57883 6.59119 2.5531 6.55713C2.52737 6.52307 2.5104 6.48321 2.50369 6.44106C2.49483 6.38855 2.50202 6.33459 2.52432 6.28624C2.54662 6.23789 2.583 6.1974 2.62869 6.17006L7.83819 3.05206C7.8948 3.01808 7.95954 3.00006 8.02555 2.99988C8.09157 2.9997 8.1564 3.01739 8.21319 3.05106L13.3187 6.07606C13.3742 6.10917 13.4202 6.15619 13.452 6.21247C13.4838 6.26875 13.5004 6.33236 13.5002 6.39702C13.4999 6.46168 13.4828 6.52515 13.4506 6.58118C13.4183 6.63722 13.372 6.68388 13.3162 6.71655L8.21019 9.68856C8.15403 9.72135 8.09015 9.73859 8.02512 9.7385C7.96009 9.73842 7.89626 9.721 7.84019 9.68806L2.71019 6.67156C2.73732 6.68751 2.76772 6.69708 2.79909 6.69955C2.83047 6.70201 2.86199 6.69731 2.89128 6.6858C2.92057 6.67429 2.94685 6.65626 2.96815 6.63309C2.98944 6.60992 3.00519 6.58221 3.01419 6.55206C3.02059 6.532 3.02396 6.5111 3.02419 6.49005V7.72706L3.02369 7.72656Z" fill="white"/>
</g>
<defs>
<clipPath id="clip0_7_8083">
<rect width="16" height="16" fill="white"/>
</clipPath>
</defs>
</svg>
