<svg width="16" height="16" viewBox="0 0 16 16" fill="none" xmlns="http://www.w3.org/2000/svg">
<g clip-path="url(#clip0_7_7692)">
<path d="M8 16C12.4183 16 16 12.4183 16 8C16 3.58172 12.4183 0 8 0C3.58172 0 0 3.58172 0 8C0 12.4183 3.58172 16 8 16Z" fill="#5546FF"/>
<path d="M9.6595 9.5165L11.4645 12.25H10.116L7.996 9.0385L5.877 12.25H4.535L6.3405 9.5235H3.75V8.4885H12.25V9.5165H9.6595ZM12.25 6.4475V7.49H3.75V6.448H6.2905L4.5065 3.75H5.8555L7.9965 7.0045L10.1445 3.75H11.4935L9.7095 6.4475H12.25Z" fill="white"/>
</g>
<defs>
<clipPath id="clip0_7_7692">
<rect width="16" height="16" fill="white"/>
</clipPath>
</defs>
</svg>
