<svg width="16" height="16" viewBox="0 0 16 16" fill="none" xmlns="http://www.w3.org/2000/svg">
<g clip-path="url(#clip0_7_7690)">
<path d="M8 16C12.4183 16 16 12.4183 16 8C16 3.58172 12.4183 0 8 0C3.58172 0 0 3.58172 0 8C0 12.4183 3.58172 16 8 16Z" fill="#E53431"/>
<path d="M6.05876 2.65699C6.08022 2.64042 6.10666 2.63161 6.13376 2.63199C6.16081 2.63199 6.18712 2.64076 6.20876 2.65699L6.83726 3.12799C6.85039 3.13787 6.86145 3.15024 6.8698 3.1644C6.87815 3.17855 6.88363 3.19421 6.88593 3.21049C6.88823 3.22676 6.8873 3.24333 6.8832 3.25924C6.87909 3.27516 6.87189 3.29011 6.86201 3.30324C6.85213 3.31637 6.83976 3.32743 6.8256 3.33578C6.81145 3.34413 6.79579 3.34961 6.77951 3.35191C6.76324 3.35421 6.74667 3.35328 6.73076 3.34917C6.71484 3.34507 6.69989 3.33787 6.68676 3.32799L6.13376 2.91449L4.33526 4.26299L12.2353 10.19C12.2509 10.2017 12.2636 10.2169 12.2723 10.2344C12.281 10.2519 12.2856 10.2712 12.2856 10.2907C12.2856 10.3103 12.281 10.3296 12.2723 10.3471C12.2636 10.3645 12.2509 10.3798 12.2353 10.3915L11.6548 10.8265C11.6281 10.8464 11.5946 10.8549 11.5617 10.8501C11.5288 10.8453 11.4992 10.8276 11.4793 10.801C11.4594 10.7743 11.4509 10.7409 11.4557 10.708C11.4604 10.675 11.4781 10.6454 11.5048 10.6255L11.9513 10.2905L4.05076 4.36449C4.03505 4.35297 4.02228 4.33792 4.01348 4.32054C4.00467 4.30317 4.00008 4.28397 4.00008 4.26449C4.00008 4.24501 4.00467 4.22581 4.01348 4.20843C4.02228 4.19106 4.03505 4.17601 4.05076 4.16449L6.05876 2.65699ZM8.06726 2.65699C8.08869 2.64038 8.11498 2.63129 8.14209 2.63111C8.1692 2.63093 8.19562 2.63967 8.21726 2.65599L12.2348 5.66949C12.2559 5.6851 12.2715 5.70707 12.2792 5.73217C12.2869 5.75727 12.2864 5.78419 12.2778 5.80899C12.2696 5.834 12.2538 5.8558 12.2325 5.87125C12.2112 5.8867 12.1856 5.89501 12.1593 5.89499H10.1508C10.1237 5.89481 10.0975 5.88606 10.0758 5.86999L7.43926 3.89299C7.42606 3.88311 7.41494 3.87072 7.40653 3.85654C7.39812 3.84236 7.39258 3.82666 7.39024 3.81034C7.38789 3.79402 7.38879 3.7774 7.39287 3.76143C7.39694 3.74545 7.40413 3.73044 7.41401 3.71724C7.42389 3.70404 7.43628 3.69292 7.45046 3.68451C7.46464 3.6761 7.48034 3.67056 7.49666 3.66821C7.51298 3.66587 7.5296 3.66676 7.54557 3.67084C7.56155 3.67492 7.57656 3.68211 7.58976 3.69199L10.1933 5.64399H11.7828L8.14276 2.91399L5.62276 4.80399C5.60956 4.81387 5.59455 4.82106 5.57857 4.82514C5.5626 4.82921 5.54598 4.83011 5.52966 4.82776C5.4967 4.82303 5.46697 4.80539 5.44701 4.77874C5.42705 4.75208 5.4185 4.71859 5.42324 4.68563C5.42797 4.65267 5.44561 4.62295 5.47226 4.60299L8.06726 2.65699ZM4.60526 5.25449C4.63204 5.23831 4.66389 5.23267 4.6946 5.23867C4.72531 5.24468 4.75269 5.26189 4.7714 5.28697C4.79012 5.31205 4.79883 5.3432 4.79585 5.37435C4.79286 5.40549 4.7784 5.43442 4.75526 5.45549L4.33476 5.77049L12.2353 11.6975C12.251 11.7091 12.2637 11.7243 12.2725 11.7417C12.2814 11.7592 12.2859 11.7784 12.2859 11.798C12.2859 11.8175 12.2814 11.8368 12.2725 11.8543C12.2637 11.8717 12.251 11.8869 12.2353 11.8985L10.2268 13.405C10.205 13.421 10.1787 13.4296 10.1518 13.4296C10.1248 13.4296 10.0985 13.421 10.0768 13.405L9.49526 12.969C9.46861 12.9489 9.45103 12.919 9.44638 12.886C9.44174 12.8529 9.45042 12.8194 9.47051 12.7927C9.4906 12.7661 9.52046 12.7485 9.55351 12.7439C9.58657 12.7392 9.62011 12.7479 9.64676 12.768L10.1518 13.1465L11.9518 11.7965L4.04926 5.87099C4.03382 5.85918 4.0213 5.84397 4.01268 5.82654C4.00407 5.80911 3.99959 5.78993 3.99959 5.77049C3.99959 5.75105 4.00407 5.73186 4.01268 5.71444C4.0213 5.69701 4.03382 5.6818 4.04926 5.66999L4.60426 5.25499L4.60526 5.25449ZM4.12576 10.164V10.165H6.13326C6.16037 10.1646 6.1868 10.1734 6.20826 10.19L8.81626 12.1455C8.82946 12.1553 8.84059 12.1677 8.84901 12.1818C8.85744 12.196 8.86299 12.2117 8.86536 12.228C8.86773 12.2443 8.86686 12.2609 8.86281 12.2768C8.85876 12.2928 8.85161 12.3078 8.84176 12.321C8.83191 12.3342 8.81956 12.3453 8.80541 12.3537C8.79126 12.3622 8.77559 12.3677 8.75929 12.3701C8.743 12.3725 8.72639 12.3716 8.71043 12.3675C8.69447 12.3635 8.67946 12.3563 8.66626 12.3465L6.09326 10.416H4.50276L8.14326 13.146L10.6583 11.26C10.6715 11.2501 10.6865 11.2429 10.7025 11.2387C10.7185 11.2346 10.7351 11.2337 10.7514 11.236C10.7678 11.2384 10.7835 11.2439 10.7977 11.2523C10.8119 11.2607 10.8243 11.2718 10.8343 11.285C10.8442 11.2982 10.8514 11.3132 10.8555 11.3292C10.8596 11.3452 10.8605 11.3618 10.8582 11.3782C10.8559 11.3945 10.8504 11.4102 10.842 11.4244C10.8336 11.4387 10.8225 11.4511 10.8093 11.461L8.21876 13.403C8.19713 13.4192 8.17081 13.428 8.14376 13.428C8.11652 13.4282 8.08997 13.4195 8.06826 13.403L4.04976 10.3905C4.02999 10.3902 4.01054 10.3853 3.99303 10.3762C3.97551 10.367 3.96041 10.3538 3.94896 10.3377C3.9375 10.3215 3.93003 10.3029 3.92713 10.2834C3.92424 10.2638 3.92601 10.2438 3.9323 10.2251C3.93859 10.2063 3.94923 10.1893 3.96334 10.1755C3.97745 10.1616 3.99463 10.1513 4.01349 10.1453C4.03235 10.1394 4.05235 10.138 4.07187 10.1412C4.09138 10.1444 4.10984 10.1523 4.12576 10.164Z" fill="white"/>
</g>
<defs>
<clipPath id="clip0_7_7690">
<rect width="16" height="16" fill="white"/>
</clipPath>
</defs>
</svg>
