<svg width="16" height="16" viewBox="0 0 16 16" fill="none" xmlns="http://www.w3.org/2000/svg">
<g clip-path="url(#clip0_7_7691)">
<path d="M8 16C12.4183 16 16 12.4183 16 8C16 3.58172 12.4183 0 8 0C3.58172 0 0 3.58172 0 8C0 12.4183 3.58172 16 8 16Z" fill="#2D9CDB"/>
<path d="M9.0305 4.542C10.7325 6.325 11.1645 6.64 11.578 6.7535C10.1405 6.5735 9.3295 6.4715 7.975 5.7605L7.12 6.7555L12.5 7.95C10.817 9.381 10.088 10.1435 9.0305 11.457H6.995C6.1005 10.148 5.504 9.723 4.355 9.1935C5.884 9.3345 6.734 9.4285 7.975 10.1635L8.9055 9.1185L3.5 7.95C4.757 6.914 5.4885 6.223 6.9945 4.542H9.0305ZM7.12 4.2935C7.585 3.721 7.775 3.4425 8.025 3C8.27 3.456 8.4595 3.7375 8.905 4.2935H7.12ZM8.905 11.7065C8.4395 12.279 8.249 12.5575 8 13C7.755 12.544 7.565 12.2625 7.12 11.7065H8.905Z" fill="white"/>
</g>
<defs>
<clipPath id="clip0_7_7691">
<rect width="16" height="16" fill="white"/>
</clipPath>
</defs>
</svg>
