<svg width="16" height="16" viewBox="0 0 16 16" fill="none" xmlns="http://www.w3.org/2000/svg">
<g clip-path="url(#clip0_7_7689)">
<path d="M8 16C12.4183 16 16 12.4183 16 8C16 3.58172 12.4183 0 8 0C3.58172 0 0 3.58172 0 8C0 12.4183 3.58172 16 8 16Z" fill="#D65892"/>
<path fill-rule="evenodd" clip-rule="evenodd" d="M6.89712 3.50996C7.82812 3.58846 9.06062 4.09996 10.2481 4.96596C11.4311 5.83696 12.2991 6.87346 12.6681 7.74896C12.9381 8.38446 12.9471 8.94695 12.6771 9.33395L10.8241 11.9875C10.5541 12.3745 10.0276 12.545 9.35762 12.49C8.42662 12.407 7.18962 11.9 6.00662 11.0295C4.81912 10.163 3.95562 9.12646 3.58162 8.25096C3.31212 7.61546 3.30312 7.05296 3.57312 6.66596L5.43062 4.01246C5.70062 3.62546 6.22262 3.45496 6.89712 3.50996ZM10.7911 9.73396C10.7737 9.73116 10.7559 9.73532 10.7416 9.74555C10.7272 9.75578 10.7175 9.77125 10.7145 9.7886C10.7114 9.80596 10.7154 9.82381 10.7254 9.83829C10.7355 9.85277 10.7508 9.86271 10.7681 9.86596C11.1341 9.93096 11.4616 9.94245 11.7351 9.89795C11.7517 9.89417 11.7663 9.88419 11.7758 9.87006C11.7853 9.85592 11.7891 9.83868 11.7864 9.82186C11.7836 9.80503 11.7746 9.78988 11.7611 9.7795C11.7475 9.76911 11.7306 9.76427 11.7136 9.76595C11.4566 9.80795 11.1436 9.79646 10.7911 9.73396ZM10.1956 9.66045C10.1932 9.66892 10.1924 9.67779 10.1934 9.68655C10.1944 9.69531 10.1971 9.70379 10.2014 9.7115C10.2057 9.71921 10.2114 9.726 10.2183 9.73149C10.2252 9.73697 10.2331 9.74104 10.2416 9.74345C10.3296 9.76846 10.4166 9.79096 10.5021 9.81096C10.5187 9.81318 10.5354 9.80914 10.5492 9.79965C10.5629 9.79015 10.5726 9.77588 10.5763 9.75962C10.5801 9.74336 10.5776 9.72628 10.5694 9.71173C10.5613 9.69718 10.548 9.68621 10.5321 9.68095C10.4491 9.66095 10.3641 9.63896 10.2776 9.61446C10.2606 9.60969 10.2425 9.61185 10.2271 9.62048C10.2117 9.6291 10.2004 9.64348 10.1956 9.66045ZM5.68712 4.20146L5.67812 4.21946C5.47562 4.52846 5.52062 4.96596 5.73212 5.46346C6.08712 6.30196 6.91962 7.28346 8.04862 8.11296C9.17762 8.94196 10.3516 9.43496 11.2376 9.50896C11.7686 9.55046 12.1866 9.45396 12.4076 9.16346L12.4206 9.14046C12.6366 8.83596 12.5916 8.38445 12.3806 7.87795C12.0251 7.04395 11.1926 6.06296 10.0591 5.23296C8.93012 4.40396 7.75612 3.91096 6.87012 3.83746C6.33012 3.79096 5.90312 3.89246 5.68712 4.20146ZM5.31512 5.42546C5.29818 5.43055 5.28394 5.44213 5.27551 5.45768C5.26708 5.47323 5.26514 5.49148 5.27012 5.50846C5.49812 6.29046 6.07712 7.03496 6.98762 7.87346L7.09012 7.96746C7.1606 8.03137 7.2316 8.0947 7.30312 8.15746C7.33112 8.18146 7.37312 8.17846 7.39712 8.15046C7.40878 8.13706 7.41465 8.11958 7.41343 8.10186C7.41221 8.08414 7.404 8.06763 7.39062 8.05595C7.33562 8.00845 7.28262 7.96096 7.22962 7.91346L7.12612 7.81946C6.20462 6.97796 5.62112 6.23646 5.39762 5.47096C5.3952 5.46254 5.39115 5.45469 5.38569 5.44784C5.38023 5.441 5.37348 5.4353 5.36581 5.43108C5.35815 5.42685 5.34972 5.42418 5.34102 5.42321C5.33232 5.42225 5.32352 5.42301 5.31512 5.42546ZM7.94062 5.28396C8.38162 5.32546 8.97062 5.56946 9.53312 5.98396C10.0996 6.39896 10.5181 6.89196 10.6931 7.31096C10.7971 7.54596 10.8241 7.75346 10.7206 7.89596C10.6216 8.03896 10.4191 8.08096 10.1716 8.05746C9.72662 8.02045 9.14162 7.77196 8.57512 7.35746C8.00812 6.94246 7.59012 6.45396 7.41462 6.03496C7.31562 5.79996 7.28862 5.59246 7.38762 5.44996C7.48662 5.30696 7.68862 5.26546 7.94062 5.28396ZM5.24212 4.89496C5.22443 4.89573 5.20777 4.90348 5.19578 4.9165C5.18379 4.92953 5.17744 4.94677 5.17812 4.96446C5.18212 5.05546 5.19162 5.14696 5.20762 5.23946C5.20913 5.24806 5.21232 5.25628 5.217 5.26365C5.22169 5.27101 5.22778 5.27739 5.23493 5.2824C5.24208 5.28742 5.25015 5.29097 5.25867 5.29287C5.2672 5.29477 5.27601 5.29497 5.28462 5.29346C5.29322 5.29195 5.30144 5.28876 5.30881 5.28407C5.31618 5.27938 5.32255 5.27329 5.32756 5.26614C5.33258 5.25899 5.33613 5.25092 5.33803 5.2424C5.33993 5.23387 5.34013 5.22506 5.33862 5.21646C5.32392 5.1313 5.31473 5.04529 5.31112 4.95896C5.31079 4.95022 5.30875 4.94163 5.30511 4.93369C5.30147 4.92574 5.29629 4.91859 5.28988 4.91265C5.28348 4.90671 5.27596 4.90208 5.26776 4.89905C5.25956 4.89601 5.25085 4.89462 5.24212 4.89496Z" fill="white"/>
</g>
<defs>
<clipPath id="clip0_7_7689">
<rect width="16" height="16" fill="white"/>
</clipPath>
</defs>
</svg>
