<svg width="16" height="16" viewBox="0 0 16 16" fill="none" xmlns="http://www.w3.org/2000/svg">
<g clip-path="url(#clip0_7_7786)">
<path d="M8 16C12.4183 16 16 12.4183 16 8C16 3.58172 12.4183 0 8 0C3.58172 0 0 3.58172 0 8C0 12.4183 3.58172 16 8 16Z" fill="#0082C6"/>
<path d="M9.023 7.55149C9.01253 7.54938 9.00169 7.55018 8.99164 7.55379C8.98159 7.5574 8.97272 7.5637 8.966 7.57199C8.9614 7.57778 8.95803 7.58444 8.95611 7.59158C8.95419 7.59872 8.95376 7.60617 8.95484 7.61349C8.95591 7.6208 8.95848 7.62781 8.96238 7.63409C8.96628 7.64037 8.97143 7.64578 8.9775 7.64999C11.167 9.23899 8.0505 12.877 2 9.00549C7.13 13.833 14.2735 8.50049 9.023 7.55149ZM6.101 5.42749C1.558 6.88099 6.7625 10.309 7.214 8.57749C7.21601 8.57026 7.21651 8.5627 7.21549 8.55527C7.21447 8.54784 7.21193 8.5407 7.20805 8.53428C7.20416 8.52786 7.199 8.52231 7.19289 8.51796C7.18677 8.51361 7.17984 8.51056 7.1725 8.50899C7.16198 8.50626 7.15092 8.50643 7.1405 8.50949C6.472 8.72699 2.7905 7.69749 6.101 5.42749ZM14 6.30099C10.0665 3.49599 2.686 5.80899 6.4935 7.78949C6.5071 7.79638 6.52283 7.79778 6.53744 7.79341C6.55205 7.78904 6.56442 7.77922 6.572 7.76599C6.57602 7.7585 6.57825 7.75017 6.57851 7.74167C6.57877 7.73317 6.57706 7.72472 6.5735 7.71699C5.025 4.44499 12.8905 5.43999 14 6.30099ZM10.736 10.3765C12.8155 9.43149 11.1245 6.19599 8.374 6.82049C8.35923 6.82382 8.34374 6.82123 8.33085 6.81329C8.31795 6.80535 8.30868 6.79268 8.305 6.77799C8.30263 6.76787 8.30326 6.75728 8.30681 6.74752C8.31037 6.73775 8.31668 6.72923 8.325 6.72299C10.465 5.11499 14.482 8.86899 10.736 10.3765Z" fill="white"/>
</g>
<defs>
<clipPath id="clip0_7_7786">
<rect width="16" height="16" fill="white"/>
</clipPath>
</defs>
</svg>
