<svg width="16" height="16" viewBox="0 0 16 16" fill="none" xmlns="http://www.w3.org/2000/svg">
<g clip-path="url(#clip0_7_7687)">
<path d="M8 16C12.4183 16 16 12.4183 16 8C16 3.58172 12.4183 0 8 0C3.58172 0 0 3.58172 0 8C0 12.4183 3.58172 16 8 16Z" fill="#002342"/>
<path d="M2 6.5H2.649V7.1105H2V6.5ZM2.649 8.887H4.5375V9.5H2V7.721H3.905V8.331H2.6495L2.649 8.887ZM11.4625 7.721H14V9.5H12.095V8.887H13.351V8.3315H11.4625V7.721ZM13.3615 7.14H11.4615V6.5295H13.3615V7.14ZM5.156 7.721H7.6935V8.913H7.0615V9.5H5.156V7.721ZM7.0445 8.887V8.3315H5.805V8.8865H7.045L7.0445 8.887ZM5.156 6.5H7.6935V7.1105H5.156V6.5ZM8.323 7.721H10.8605V8.913H10.2285V9.5H8.3235L8.323 7.721ZM10.209 8.887V8.3315H8.969V8.8865L10.209 8.887ZM8.323 6.5H10.8605V7.1105H8.323V6.5Z" fill="white"/>
</g>
<defs>
<clipPath id="clip0_7_7687">
<rect width="16" height="16" fill="white"/>
</clipPath>
</defs>
</svg>
