<svg width="16" height="16" viewBox="0 0 16 16" fill="none" xmlns="http://www.w3.org/2000/svg">
<g clip-path="url(#clip0_7_7898)">
<path d="M8 16C12.4183 16 16 12.4183 16 8C16 3.58172 12.4183 0 8 0C3.58172 0 0 3.58172 0 8C0 12.4183 3.58172 16 8 16Z" fill="#7B346E"/>
<path d="M4.047 6.839L5.102 7.894H3L4.047 6.839ZM5.102 8.114L4.047 9.161L3 8.114H5.102ZM6.528 6.6875L5.473 7.7345V5.633L6.528 6.6875ZM5.253 7.7345L4.2065 6.6875L5.2535 5.6325L5.253 7.7345ZM6.68 6.528L5.633 5.481H7.7345L6.68 6.528ZM6.68 4.2065L7.7345 5.261H5.633L6.68 4.2065ZM9.161 4.0545L8.106 5.1015V3L9.161 4.0545ZM7.886 5.1015L6.839 4.055L7.886 3V5.1015ZM6.528 9.32L5.473 10.367V8.2655L6.528 9.32ZM4.2065 9.32L5.2535 8.2655V10.367L4.2065 9.32ZM9.3125 6.528L8.2655 5.481H10.367L9.3125 6.528ZM8.2655 5.261L9.3125 4.206L10.3675 5.261H8.2655ZM7.735 10.7465L6.68 11.7935L5.6335 10.7465H7.735ZM6.68 9.4715L7.735 10.5265H5.6335L6.68 9.4715ZM11.794 6.6875L10.7395 7.7345V5.633L11.794 6.6875ZM9.4725 6.6875L10.5195 5.6325V7.7345L9.4725 6.6875ZM6.8395 11.9525L7.8865 10.8985V13L6.8395 11.9525ZM8.1065 10.8985L9.1615 11.953L8.106 13L8.1065 10.8985ZM9.313 11.7935L8.266 10.7465H10.3675L9.313 11.7935ZM9.313 9.472L10.368 10.527H8.265L9.313 9.472ZM10.7395 8.2655L11.7945 9.3205L10.7395 10.367V8.2655ZM9.4725 9.3205L10.5195 8.2655V10.367L9.4725 9.3205ZM11.946 9.1605L10.899 8.114H13L11.946 9.1605ZM11.946 6.839L13 7.894H10.8985L11.946 6.839Z" fill="white"/>
</g>
<defs>
<clipPath id="clip0_7_7898">
<rect width="16" height="16" fill="white"/>
</clipPath>
</defs>
</svg>
