<svg width="16" height="16" viewBox="0 0 16 16" fill="none" xmlns="http://www.w3.org/2000/svg">
<g clip-path="url(#clip0_7_7759)">
<path d="M8 16C12.4183 16 16 12.4183 16 8C16 3.58172 12.4183 0 8 0C3.58172 0 0 3.58172 0 8C0 12.4183 3.58172 16 8 16Z" fill="#5244D4"/>
<path d="M7.85 13.7C4.619 13.7 2 11.081 2 7.85C2 4.619 4.619 2 7.85 2C11.081 2 13.7 4.619 13.7 7.85C13.7 11.081 11.081 13.7 7.85 13.7ZM9.295 9.85L7.85 7.85L6.405 9.85L5.23 7.85L6.54 5.61H9.16L10.47 7.85L9.295 9.85ZM9.725 4.65H5.975L4.105 7.85L5.98 11.05H9.725L11.595 7.85L9.725 4.65Z" fill="white"/>
</g>
<defs>
<clipPath id="clip0_7_7759">
<rect width="16" height="16" fill="white"/>
</clipPath>
</defs>
</svg>
