<svg width="16" height="16" viewBox="0 0 16 16" fill="none" xmlns="http://www.w3.org/2000/svg">
<g clip-path="url(#clip0_7_7686)">
<path d="M8 16C12.4183 16 16 12.4183 16 8C16 3.58172 12.4183 0 8 0C3.58172 0 0 3.58172 0 8C0 12.4183 3.58172 16 8 16Z" fill="#14C8FF"/>
<path d="M12.54 5.73895C12.8565 5.99545 13.056 6.52595 12.986 6.91545L12.306 10.6774C12.235 11.0694 11.86 11.5009 11.474 11.6364L7.7645 12.9389C7.3785 13.0744 6.8045 12.9764 6.4885 12.7199L3.4595 10.2614C3.143 10.0049 2.943 9.47695 3.0145 9.08495L3.6945 5.32295C3.765 4.93095 4.14 4.49995 4.5265 4.36395L8.2365 3.06095C8.623 2.92495 9.1965 3.02395 9.513 3.27995L12.54 5.73895ZM9.3845 7.42795L9.5355 6.66295L8.1195 6.66545L8.3195 5.65745H7.862C7.53198 6.16318 7.05132 6.55237 6.488 6.76995L6.3595 7.42945H6.9785C6.9785 7.42945 6.769 8.37645 6.6985 8.72595C6.5235 9.61595 6.9635 10.2469 7.6395 10.2469H8.7835L8.9835 9.40195H8.0265C7.6015 9.40195 7.624 9.16945 7.7065 8.75695L7.97 7.42595L9.3845 7.42795Z" fill="white"/>
</g>
<defs>
<clipPath id="clip0_7_7686">
<rect width="16" height="16" fill="white"/>
</clipPath>
</defs>
</svg>
