<svg width="16" height="16" viewBox="0 0 16 16" fill="none" xmlns="http://www.w3.org/2000/svg">
<g clip-path="url(#clip0_7_7685)">
<path d="M8 16C12.4183 16 16 12.4183 16 8C16 3.58172 12.4183 0 8 0C3.58172 0 0 3.58172 0 8C0 12.4183 3.58172 16 8 16Z" fill="#0899CD"/>
<path d="M13.485 8.4335C13.3915 9.768 12.859 10.919 11.8875 11.8875C11.6425 12.133 11.386 12.3505 11.1175 12.54C11.1058 12.5222 11.0929 12.5052 11.079 12.489L13.424 8.4265C13.444 8.43 13.464 8.4325 13.485 8.4335ZM10.8665 12.7075C10.0215 13.236 9.0655 13.5 8 13.5C6.9815 13.5 6.063 13.2585 5.2445 12.776C5.3675 12.8485 5.4925 12.915 5.62 12.976C5.63262 12.9554 5.64333 12.9336 5.652 12.911H10.348C10.3565 12.9336 10.367 12.9554 10.3795 12.976C10.546 12.896 10.708 12.806 10.8665 12.7075ZM4.8825 12.5425C4.60582 12.3468 4.34653 12.1277 4.1075 11.8875C3.139 10.919 2.6085 9.7675 2.515 8.4335C2.53532 8.43271 2.55554 8.43037 2.5755 8.4265L4.921 12.489C4.90667 12.5057 4.89379 12.5236 4.8825 12.5425ZM2.5 7.915C2.52 6.4315 3.055 5.162 4.107 4.107C5.1825 3.036 6.48 2.5 8 2.5C9.52 2.5 10.816 3.036 11.8875 4.1075C12.9575 5.1775 13.495 6.4685 13.5 7.9795C13.4998 7.84486 13.4948 7.71028 13.485 7.576C13.4647 7.57695 13.4444 7.57946 13.4245 7.5835L11.0815 3.5135C11.0959 3.49659 11.109 3.47853 11.1205 3.4595C10.8868 3.294 10.6398 3.14817 10.382 3.0235C10.3685 3.04606 10.3571 3.06983 10.348 3.0945H5.652C5.64292 3.06982 5.63153 3.04605 5.618 3.0235C5.3625 3.1465 5.1165 3.291 4.88 3.4575C4.8915 3.4775 4.905 3.4975 4.921 3.5155L2.5755 7.5835C2.55539 7.57941 2.535 7.57691 2.5145 7.576C2.507 7.688 2.502 7.801 2.5005 7.9155L2.5 7.915ZM13.173 7.729C13.1394 7.76692 13.113 7.81063 13.095 7.858H11.1565C11.134 7.79936 11.099 7.7463 11.054 7.7025C11.01 7.65742 10.9568 7.62245 10.898 7.6V3.786L13.173 7.729ZM13.095 8.1505C13.113 8.19786 13.1394 8.24156 13.173 8.2795L10.898 12.2185V8.4085C10.9568 8.38621 11.01 8.35141 11.054 8.3065C11.0991 8.26253 11.134 8.2093 11.1565 8.1505H13.095ZM2.905 7.8585C2.88701 7.81114 2.86058 7.76743 2.827 7.7295L5.102 3.786V7.6005C5.04318 7.62295 4.98995 7.65792 4.946 7.703C4.901 7.74682 4.86603 7.79987 4.8435 7.8585H2.905ZM5.6475 3.3965C5.64951 3.39335 5.65118 3.39 5.6525 3.3865H10.3485C10.3667 3.43376 10.3931 3.47743 10.4265 3.5155L8.9915 5.9955C8.89296 5.97608 8.79072 5.99333 8.704 6.044L5.6475 3.3965ZM5.6525 7.8585C5.62999 7.79986 5.59502 7.74681 5.55 7.703C5.50604 7.65794 5.45281 7.62296 5.394 7.6005V3.786L7.6715 7.7245C7.63857 7.76424 7.61316 7.80965 7.5965 7.8585H5.6525ZM9.3185 6.57C9.33648 6.52084 9.34545 6.46884 9.345 6.4165C9.34616 6.31573 9.31062 6.21798 9.245 6.1415L10.607 3.7865V7.6C10.585 7.60801 10.5638 7.61788 10.5435 7.6295L9.3185 6.5695V6.57ZM8.517 6.2635C8.49718 6.31206 8.48716 6.36405 8.4875 6.4165C8.4875 6.5215 8.5215 6.6135 8.59 6.692L8.076 7.5785C8.02616 7.56857 7.97484 7.56857 7.925 7.5785L5.808 3.92L8.517 6.2635ZM8.407 7.8585C8.38931 7.80974 8.36307 7.76454 8.3295 7.725L8.841 6.838C8.93954 6.85742 9.04178 6.84017 9.1285 6.7895L10.3535 7.849C10.3521 7.85247 10.3504 7.85581 10.3485 7.859H8.407V7.8585ZM10.451 8.307C10.495 8.35206 10.5482 8.38704 10.607 8.4095V12.2185L8.3295 8.273C8.36068 8.23684 8.38537 8.19557 8.4025 8.151H10.3485C10.371 8.2098 10.4059 8.26303 10.451 8.307ZM7.93 8.424C7.97852 8.43049 8.02773 8.42965 8.076 8.4215L10.1925 12.087L7.4865 9.7465C7.50469 9.69738 7.51384 9.64538 7.5135 9.593C7.51471 9.49222 7.47916 9.39446 7.4135 9.318L7.93 8.424ZM10.3535 12.6085C10.3521 12.612 10.3504 12.6153 10.3485 12.6185H5.6525C5.63525 12.5712 5.60968 12.5273 5.577 12.489L7.009 10.014C7.10754 10.0335 7.2098 10.0162 7.2965 9.9655L10.3535 12.6085ZM7.16 9.1715C7.06146 9.15199 6.95919 9.16924 6.8725 9.22L5.6475 8.161C5.64947 8.15783 5.65114 8.15448 5.6525 8.151H7.5985C7.6155 8.196 7.6405 8.2385 7.674 8.2775L7.16 9.1715ZM6.685 9.4395C6.66528 9.48824 6.65542 9.54042 6.656 9.593C6.656 9.698 6.69 9.7895 6.7585 9.868L5.394 12.221V8.409C5.41596 8.40118 5.43721 8.39148 5.4575 8.38L6.685 9.4395ZM4.946 8.307C4.98997 8.35205 5.0432 8.38702 5.102 8.4095V12.2185L2.827 8.28C2.86058 8.24206 2.887 8.19836 2.905 8.151H4.8435C4.86598 8.2098 4.90095 8.26303 4.946 8.307Z" fill="white"/>
</g>
<defs>
<clipPath id="clip0_7_7685">
<rect width="16" height="16" fill="white"/>
</clipPath>
</defs>
</svg>
