<svg width="16" height="16" viewBox="0 0 16 16" fill="none" xmlns="http://www.w3.org/2000/svg">
<g clip-path="url(#clip0_7_7684)">
<path d="M8 16C12.4183 16 16 12.4183 16 8C16 3.58172 12.4183 0 8 0C3.58172 0 0 3.58172 0 8C0 12.4183 3.58172 16 8 16Z" fill="#F4C257"/>
<path d="M4.1975 10.7695L3.6165 10.432V5.3425L4.5525 4.7985L5.1335 5.1355L4.1975 5.68V7.449L6.5645 8.825V9.4795L4.1975 8.104V10.7695ZM12.375 9.757V10.432L7.996 12.977L7.06 12.4325V11.7575L7.996 12.3015L9.5185 11.417V8.666L10.0815 8.3385V11.09L12.375 9.757ZM13.4915 7.887V7.772L11.2315 9.086V8.431L13.4915 7.1175V4.6935L7.995 1.5L5.2475 3.097L5.1485 3.1545L7.4085 4.468L6.8455 4.795L4.5855 3.4815L2.5 4.6935V11.0805L5.2475 12.6775L5.347 12.735V10.108L5.91 10.435V13.0625L7.996 14.274L13.4915 11.0805V7.887ZM10.644 6.675L8.369 7.998V10.749L7.996 10.9655L7.7145 10.802V8.157L5.347 6.781V6.348L5.6285 6.184L7.9045 7.5065L10.272 6.1315L10.6445 6.348V6.6755L10.644 6.675ZM7.415 3.135L7.9955 2.798L12.3745 5.343V6.4305L11.7945 6.7675V5.6795L10.271 4.795L7.904 6.1705L7.3405 5.8435L9.708 4.4675L7.415 3.135Z" fill="white"/>
</g>
<defs>
<clipPath id="clip0_7_7684">
<rect width="16" height="16" fill="white"/>
</clipPath>
</defs>
</svg>
