<svg width="16" height="16" viewBox="0 0 16 16" fill="none" xmlns="http://www.w3.org/2000/svg">
<g clip-path="url(#clip0_7_7881)">
<path d="M8 16C12.4183 16 16 12.4183 16 8C16 3.58172 12.4183 0 8 0C3.58172 0 0 3.58172 0 8C0 12.4183 3.58172 16 8 16Z" fill="#434247"/>
<path d="M8.00018 2C6.42062 2 4.90575 2.62748 3.78883 3.7444C2.67191 4.86132 2.04443 6.37619 2.04443 7.95575C2.04443 9.53531 2.67191 11.0502 3.78883 12.1671C4.90575 13.284 6.42062 13.9115 8.00018 13.9115C11.2897 13.9115 13.9557 11.245 13.9557 7.9555C13.9557 4.6665 11.2902 2 8.00018 2ZM8.00018 13.6705C4.84118 13.6705 2.28018 11.1095 2.28018 7.9505C2.28018 4.7925 4.84168 2.2315 8.00018 2.2315C11.1587 2.2315 13.7202 4.7925 13.7202 7.9515C13.7202 11.11 11.1592 13.6705 8.00018 13.6705Z" fill="white"/>
<path d="M8.65432 8.54106H10.1643V10.7691C10.1643 10.9901 9.93782 11.1081 9.72182 11.2216C9.51032 11.3346 9.16582 11.3101 8.58532 11.3101H7.87732C6.79032 11.3346 6.48532 11.2511 6.22482 11.1376C5.96432 11.0196 5.83132 10.8526 5.83132 10.6361V8.54106H5.04932V10.9016C5.04932 11.0296 5.11332 11.1771 5.21182 11.3101C5.32482 11.4626 5.31032 11.5066 5.55582 11.6296C5.77732 11.7426 5.99882 11.8311 6.39682 11.8806C6.70682 11.9196 6.65282 11.9101 7.20382 11.9196H8.51182C9.49532 11.9001 9.69682 11.9691 10.2818 11.6741C10.7593 11.4376 10.9218 11.1626 10.9558 10.9851V7.77406H8.65932V8.54106M6.61832 3.99656C6.21982 4.02156 5.89032 4.14456 5.63482 4.24256C5.37432 4.34106 5.31982 4.45906 5.21182 4.58706C5.11182 4.70306 5.05582 4.85156 5.05432 5.00506V7.62156H5.84132V5.25506C5.84132 5.05356 5.96432 4.89156 6.20532 4.77356C6.45132 4.65056 6.81032 4.59156 7.14482 4.59156H8.67882C9.26382 4.59156 9.57882 4.58156 9.76082 4.68956C9.94782 4.80756 10.1693 4.91106 10.1693 5.13256V5.75706H10.9558V4.91656C10.9413 4.80806 10.8233 4.49856 10.2673 4.23756C9.76582 4.00156 9.60382 3.98706 8.81682 3.98706" fill="white"/>
</g>
<defs>
<clipPath id="clip0_7_7881">
<rect width="16" height="16" fill="white"/>
</clipPath>
</defs>
</svg>
