<svg width="16" height="16" viewBox="0 0 16 16" fill="none" xmlns="http://www.w3.org/2000/svg">
<g clip-path="url(#clip0_7_7769)">
<path d="M8 16C12.4183 16 16 12.4183 16 8C16 3.58172 12.4183 0 8 0C3.58172 0 0 3.58172 0 8C0 12.4183 3.58172 16 8 16Z" fill="#2AB8E6"/>
<path d="M5.48 3H10.52L11 3.4965V12.5035L10.52 13H5.48L5 12.5035V3.4965L5.48 3ZM5.96 12.0065H10.04V3.9935H5.96V12.0065ZM9.527 9.4215H8.4835V10.553H7.5415V9.422H6.498V8.4475H9.527V9.4215ZM9.527 6.6305V7.6045H6.498V6.6305H7.5415V5.499H8.4835V6.6305H9.527Z" fill="white"/>
</g>
<defs>
<clipPath id="clip0_7_7769">
<rect width="16" height="16" fill="white"/>
</clipPath>
</defs>
</svg>
