<svg width="16" height="16" viewBox="0 0 16 16" fill="none" xmlns="http://www.w3.org/2000/svg">
<g clip-path="url(#clip0_7_7683)">
<path d="M8 16C12.4183 16 16 12.4183 16 8C16 3.58172 12.4183 0 8 0C3.58172 0 0 3.58172 0 8C0 12.4183 3.58172 16 8 16Z" fill="#EF494D"/>
<path fill-rule="evenodd" clip-rule="evenodd" d="M3 5.693C3 5.5865 3.0865 5.5 3.1935 5.5H5.7055C6.8645 5.5 7.5895 6.098 7.5895 6.9425C7.5895 7.295 7.4285 7.6155 7.1065 7.904C7.557 8.1605 7.7825 8.545 7.7825 9.0575C7.7825 10.26 6.623 10.5 5.85 10.5H3.193C3.14181 10.5 3.09272 10.4797 3.05653 10.4435C3.02033 10.4073 3 10.3582 3 10.307V9.732C3 9.625 3.0865 9.5385 3.193 9.5385H5.85C6.3975 9.5385 6.6715 9.362 6.6715 9.0095C6.6715 8.657 6.3975 8.4645 5.85 8.4325H3.193C3.1419 8.4325 3.09289 8.41223 3.05671 8.37615C3.02053 8.34006 3.00013 8.2911 3 8.24V7.665C3 7.558 3.0865 7.4715 3.193 7.4715H5.85C6.2365 7.4075 6.43 7.2475 6.43 6.991C6.43 6.6385 6.2365 6.462 5.85 6.462H3.193C3.16761 6.462 3.14248 6.45699 3.11903 6.44726C3.09558 6.43753 3.07428 6.42327 3.05635 6.40529C3.03842 6.38732 3.02422 6.36599 3.01455 6.34251C3.00488 6.31904 2.99993 6.29389 3 6.2685V5.6935V5.693ZM8.2175 5.693C8.2175 5.5865 8.304 5.5 8.4105 5.5H10.971C11.0775 5.5 11.1645 5.5865 11.1645 5.693V10.307C11.1645 10.3324 11.1595 10.3575 11.1498 10.381C11.14 10.4044 11.1258 10.4257 11.1078 10.4436C11.0898 10.4616 11.0685 10.4758 11.045 10.4855C11.0215 10.4951 10.9964 10.5001 10.971 10.5H10.246C10.1948 10.5 10.1457 10.4797 10.1095 10.4435C10.0733 10.4073 10.053 10.3582 10.053 10.307V6.655C10.0531 6.62961 10.0481 6.60446 10.0385 6.58099C10.0288 6.55751 10.0146 6.53618 9.99665 6.51821C9.97872 6.50023 9.95742 6.48597 9.93397 6.47624C9.91053 6.46651 9.88539 6.4615 9.86 6.4615H8.41C8.35881 6.4615 8.30972 6.44117 8.27353 6.40497C8.23733 6.36878 8.217 6.31969 8.217 6.2685L8.2175 5.693ZM11.84 5.5H12.8065C12.913 5.5 12.9995 5.5865 12.9995 5.693V6.268C12.9996 6.29339 12.9946 6.31854 12.985 6.34201C12.9753 6.36549 12.9611 6.38682 12.9431 6.4048C12.9252 6.42277 12.9039 6.43703 12.8805 6.44676C12.857 6.45649 12.8319 6.4615 12.8065 6.4615H11.84C11.7888 6.4615 11.7397 6.44117 11.7035 6.40497C11.6673 6.36878 11.647 6.31969 11.647 6.2685V5.6935C11.647 5.5865 11.7335 5.5 11.84 5.5Z" fill="white"/>
</g>
<defs>
<clipPath id="clip0_7_7683">
<rect width="16" height="16" fill="white"/>
</clipPath>
</defs>
</svg>
