<svg width="16" height="16" viewBox="0 0 16 16" fill="none" xmlns="http://www.w3.org/2000/svg">
<g clip-path="url(#clip0_7_7682)">
<path d="M8 16C12.4183 16 16 12.4183 16 8C16 3.58172 12.4183 0 8 0C3.58172 0 0 3.58172 0 8C0 12.4183 3.58172 16 8 16Z" fill="#24DD7B"/>
<path d="M6.546 3.9565L8.7475 3L8.7295 5.5265H11.5V7.2765H8.711V10.308C8.711 11.228 10.271 11.3365 10.858 11.03L11.39 12.618C10.087 13.3755 6.5275 13.195 6.5275 10.326V3.956L6.546 3.9565ZM4.491 7.7455C3.9435 7.7455 3.5 7.2125 3.5 6.555C3.5 5.897 3.9435 5.364 4.491 5.364C5.038 5.364 5.4815 5.897 5.4815 6.555C5.4815 7.2125 5.038 7.7455 4.491 7.7455Z" fill="white"/>
</g>
<defs>
<clipPath id="clip0_7_7682">
<rect width="16" height="16" fill="white"/>
</clipPath>
</defs>
</svg>
