<svg width="16" height="16" viewBox="0 0 16 16" fill="none" xmlns="http://www.w3.org/2000/svg">
<g clip-path="url(#clip0_7_7681)">
<path d="M8 16C12.4183 16 16 12.4183 16 8C16 3.58172 12.4183 0 8 0C3.58172 0 0 3.58172 0 8C0 12.4183 3.58172 16 8 16Z" fill="#895AF8"/>
<path fill-rule="evenodd" clip-rule="evenodd" d="M8.885 7.12498C8.96493 7.12018 9.04507 7.12018 9.125 7.12498C9.865 7.17498 10.205 8.17998 10.675 8.12498C10.2345 8.48507 9.72357 8.74906 9.175 8.89998C8.94694 8.93326 8.71439 8.88674 8.51668 8.7683C8.31898 8.64986 8.16825 8.46676 8.09 8.24998V10.25L11 8.58998V5.99998L8.885 7.12498ZM7.44 7.11998C7.32968 7.02856 7.23976 6.91502 7.17603 6.7867C7.1123 6.65838 7.07618 6.51812 7.07 6.37498V6.33498C7.07 5.75498 8.005 4.83498 8.035 4.83498C8.065 4.86498 9 5.75998 9 6.33498V6.37998C8.99108 6.63677 8.88365 6.88027 8.7 7.05998L11 5.82498L8 4.35498L5 5.80998L7.44 7.11998ZM7.93 8.26998C7.85265 8.48769 7.70231 8.67191 7.50451 8.79131C7.30672 8.91072 7.07368 8.95795 6.845 8.92498C6.29643 8.77406 5.78549 8.51007 5.345 8.14998C5.815 8.18498 6.15 7.17498 6.895 7.14998C6.97493 7.14518 7.05507 7.14518 7.135 7.14998L5 5.99998V8.59498L7.935 10.29L7.93 8.26998Z" fill="white"/>
<path d="M8 2C4.6865 2 2 4.6865 2 8C2 11.3135 4.6865 14 8 14C11.3135 14 14 11.3135 14 8C14 6.4087 13.3679 4.88258 12.2426 3.75736C11.1174 2.63214 9.5913 2 8 2ZM4.65 5.595L8 3.97L11.355 5.595V8.79L8 10.725L4.65 8.79V5.595ZM11.365 10.095L8.025 12.025L4.645 10.075V9.89L8.025 11.84L11.365 9.91V10.095ZM11.365 9.72L8.025 11.65L4.645 9.7V9.5L8.025 11.455L11.365 9.525V9.72ZM11.365 9.345L8.025 11.275L4.645 9.325V9.14L8.025 11.095L11.365 9.165V9.345Z" fill="white"/>
</g>
<defs>
<clipPath id="clip0_7_7681">
<rect width="16" height="16" fill="white"/>
</clipPath>
</defs>
</svg>
