<svg width="16" height="16" viewBox="0 0 16 16" fill="none" xmlns="http://www.w3.org/2000/svg">
<g clip-path="url(#clip0_7_7791)">
<path d="M8 16C12.4183 16 16 12.4183 16 8C16 3.58172 12.4183 0 8 0C3.58172 0 0 3.58172 0 8C0 12.4183 3.58172 16 8 16Z" fill="#FFC04E"/>
<path d="M7.799 5.9285H7.8005L7.7855 5.9935L7.6555 6.607H7.6405L6.784 10.25H5.6945L6.568 6.607H5.102L4.279 10.25H3.081L4.17 5.75H7.8365L7.799 5.9285ZM9.8695 5.75H11.6845C13.246 5.8215 13.1005 6.857 13.1005 6.857H13.5L13.355 7.2855H12.9915C12.883 7.6785 12.1565 7.893 12.1565 7.893C12.9915 8 12.9555 8.643 12.9555 8.643H13.355L13.246 9.0715H12.919C12.8355 9.6665 12.308 9.9555 11.8745 10.093C11.6123 10.1748 11.3391 10.2158 11.0645 10.2145H8.78L9.8695 5.75ZM3.6615 6.607H2.5L2.718 5.75H3.8795L3.6615 6.607ZM8.6355 9.75L7.6915 7.5355L8.091 5.8215L9.0345 7.9285L8.6355 9.75ZM11.4125 7.5355C11.5425 7.5355 11.6675 7.4855 11.759 7.3945C11.8505 7.3035 11.9025 7.1815 11.9025 7.0535C11.9025 6.9255 11.851 6.803 11.759 6.7125C11.667 6.622 11.5425 6.5715 11.4125 6.5715H10.705L10.4875 7.5355H11.4125ZM11.168 9.393C11.4935 9.393 11.7575 9.145 11.7575 8.8395C11.7575 8.5335 11.495 8.2855 11.168 8.2855H10.317L10.055 9.393H11.168Z" fill="white"/>
</g>
<defs>
<clipPath id="clip0_7_7791">
<rect width="16" height="16" fill="white"/>
</clipPath>
</defs>
</svg>
