<svg width="16" height="16" viewBox="0 0 16 16" fill="none" xmlns="http://www.w3.org/2000/svg">
<g clip-path="url(#clip0_7_8079)">
<path d="M8 16C12.4183 16 16 12.4183 16 8C16 3.58172 12.4183 0 8 0C3.58172 0 0 3.58172 0 8C0 12.4183 3.58172 16 8 16Z" fill="#FF4081"/>
<path d="M6.945 10.7515L7.024 12.5C7.024 12.5 7.9615 12.341 8.938 12.5L9.016 10.7515H6.945ZM5.813 9.40005C5.813 9.40005 8.5475 9.16155 10.149 9.40005L10.305 7.49255C8.78395 7.3746 7.25605 7.3746 5.735 7.49255L5.813 9.40005ZM13 4.47205C13 4.47205 7.7655 3.35905 3 4.55155L3.3515 6.73705L3.7815 5.90255C3.7815 5.90255 8.2735 5.22705 12.2965 5.90255L12.6875 6.73755L13 4.47205Z" fill="white"/>
</g>
<defs>
<clipPath id="clip0_7_8079">
<rect width="16" height="16" fill="white"/>
</clipPath>
</defs>
</svg>
