<svg width="16" height="16" viewBox="0 0 16 16" fill="none" xmlns="http://www.w3.org/2000/svg">
<g clip-path="url(#clip0_7_7680)">
<path d="M8 16C12.4183 16 16 12.4183 16 8C16 3.58172 12.4183 0 8 0C3.58172 0 0 3.58172 0 8C0 12.4183 3.58172 16 8 16Z" fill="#1A1F36"/>
<path d="M9.26239 7.23198C9.33309 7.23214 9.40111 7.20496 9.45224 7.15614C9.50337 7.10731 9.53365 7.04062 9.53675 6.96999C9.53985 6.89936 9.51553 6.83026 9.46887 6.77715C9.42221 6.72403 9.35683 6.69101 9.28639 6.68498H7.36639V6.20498C7.34758 6.13858 7.30762 6.08013 7.25257 6.03851C7.19753 5.99689 7.1304 5.97437 7.06139 5.97437C6.99238 5.97437 6.92525 5.99689 6.87021 6.03851C6.81516 6.08013 6.7752 6.13858 6.75639 6.20498V6.68498H6.24289C6.17035 6.68498 6.10079 6.71379 6.0495 6.76508C5.99821 6.81637 5.96939 6.88594 5.96939 6.95848C5.96939 7.03101 5.99821 7.10058 6.0495 7.15187C6.10079 7.20316 6.17035 7.23198 6.24289 7.23198H6.75689V8.90198C6.75926 9.32217 6.92751 9.72442 7.22501 10.0212C7.52252 10.3179 7.92519 10.4852 8.34539 10.4865C8.69574 10.4811 9.03402 10.3576 9.30539 10.136L9.42039 10.04C9.4574 10.014 9.48852 9.98058 9.51172 9.94181C9.53493 9.90303 9.5497 9.85979 9.55507 9.81492C9.56044 9.77005 9.55629 9.72455 9.54289 9.68139C9.52949 9.63823 9.50714 9.59838 9.4773 9.56443C9.44747 9.53049 9.41081 9.50323 9.36972 9.48441C9.32863 9.46559 9.28403 9.45565 9.23884 9.45523C9.19365 9.45481 9.14888 9.46392 9.10745 9.48197C9.06602 9.50002 9.02886 9.5266 8.99839 9.55998L8.91189 9.63198C8.77446 9.74575 8.60695 9.81718 8.4297 9.83759C8.25245 9.85801 8.07309 9.82653 7.91339 9.74698C7.75006 9.66914 7.61206 9.54674 7.51528 9.39387C7.4185 9.241 7.36688 9.0639 7.36639 8.88298V7.23198H9.26239ZM12.3824 9.09448C12.3887 9.06355 12.3889 9.03167 12.3829 9.00067C12.3769 8.96967 12.3649 8.94015 12.3475 8.91382C12.3301 8.88748 12.3076 8.86484 12.2814 8.84719C12.2552 8.82954 12.2258 8.81724 12.1949 8.81098H12.0749C12.0215 8.81076 11.9697 8.82872 11.9279 8.86189C11.8861 8.89505 11.8568 8.94146 11.8449 8.99348C11.7284 9.50303 11.5065 9.98254 11.1935 10.4012C10.8805 10.8198 10.4833 11.1682 10.0275 11.424C9.57168 11.6798 9.06735 11.8374 8.54697 11.8865C8.02658 11.9357 7.50168 11.8753 7.00604 11.7093C6.51041 11.5433 6.05502 11.2754 5.66919 10.9227C5.28337 10.5701 4.97565 10.1406 4.76586 9.66183C4.55606 9.18308 4.44884 8.66571 4.45108 8.14302C4.45333 7.62033 4.56499 7.1039 4.77889 6.62698C4.95095 6.21162 5.20315 5.83424 5.52109 5.51638C5.83904 5.19852 6.21649 4.94642 6.63189 4.77448C7.44231 4.41266 8.35434 4.34811 9.20764 4.59219C10.0609 4.83626 10.8009 5.37333 11.2974 6.10898C11.3325 6.16026 11.3862 6.1959 11.4471 6.2084C11.508 6.22089 11.5714 6.20927 11.6239 6.17598L11.6669 6.14698C11.7246 6.11053 11.7655 6.0528 11.7809 5.98633C11.7962 5.91986 11.7847 5.85002 11.7489 5.79198C11.2073 4.99474 10.4146 4.40153 9.49698 4.10671C8.57936 3.8119 7.58951 3.8324 6.68489 4.16498C6.11101 4.3622 5.58878 4.68584 5.15676 5.11197C4.72474 5.53811 4.39397 6.05586 4.18889 6.62698C3.97576 7.1783 3.87883 7.76772 3.90418 8.35826C3.92954 8.94881 4.07663 9.52775 4.33623 10.0588C4.59583 10.5898 4.96234 11.0615 5.41279 11.4442C5.86324 11.8269 6.3879 12.1125 6.95388 12.2829C7.51986 12.4534 8.11495 12.5051 8.70184 12.4347C9.28873 12.3644 9.85476 12.1735 10.3644 11.8742C10.8741 11.5748 11.3164 11.1734 11.6637 10.6951C12.0109 10.2167 12.2556 9.67181 12.3824 9.09448ZM8.43689 2.47498H7.95689C7.08957 2.51142 6.24192 2.74474 5.47812 3.15727C4.71433 3.5698 4.05441 4.15071 3.54836 4.85603C3.0423 5.56135 2.70337 6.37257 2.55724 7.22827C2.41111 8.08396 2.4616 8.96169 2.70489 9.79498C2.72591 9.86439 2.77365 9.92262 2.8376 9.95684C2.90155 9.99107 2.97647 9.99849 3.04589 9.97748H3.08439C3.14243 9.94944 3.1887 9.90182 3.21505 9.843C3.24139 9.78418 3.24612 9.71794 3.22839 9.65598C2.91038 8.56678 2.95919 7.40326 3.36731 6.34453C3.77544 5.2858 4.52025 4.39057 5.48707 3.79666C6.45389 3.20275 7.58912 2.9431 8.71799 3.05767C9.84686 3.17224 10.9068 3.65469 11.7346 4.43073C12.5623 5.20678 13.1121 6.2334 13.2992 7.35253C13.4863 8.47167 13.3003 9.62128 12.77 10.6244C12.2396 11.6275 11.3942 12.4284 10.364 12.9039C9.33378 13.3794 8.17581 13.5031 7.06839 13.256C7.02049 13.2458 6.97068 13.2494 6.92475 13.2664C6.87882 13.2834 6.83864 13.3131 6.80889 13.352C6.77919 13.389 6.75944 13.433 6.75153 13.4798C6.74362 13.5266 6.7478 13.5747 6.76368 13.6194C6.77956 13.6641 6.80661 13.7041 6.84226 13.7354C6.87792 13.7668 6.92099 13.7885 6.96739 13.7985C7.73055 13.9383 8.51419 13.9213 9.27057 13.7486C10.027 13.5758 10.7403 13.2509 11.3671 12.7937C11.9939 12.3364 12.521 11.7563 12.9165 11.0888C13.3119 10.4213 13.5673 9.68024 13.6671 8.91083C13.767 8.14142 13.7092 7.35974 13.4972 6.61338C13.2853 5.86703 12.9237 5.17162 12.4344 4.56952C11.945 3.96741 11.3383 3.4712 10.651 3.11111C9.9638 2.75102 9.21046 2.53458 8.43689 2.47498Z" fill="white"/>
</g>
<defs>
<clipPath id="clip0_7_7680">
<rect width="16" height="16" fill="white"/>
</clipPath>
</defs>
</svg>
