<svg width="16" height="16" viewBox="0 0 16 16" fill="none" xmlns="http://www.w3.org/2000/svg">
<g clip-path="url(#clip0_7_7679)">
<path d="M8 16C12.4183 16 16 12.4183 16 8C16 3.58172 12.4183 0 8 0C3.58172 0 0 3.58172 0 8C0 12.4183 3.58172 16 8 16Z" fill="#3058A6"/>
<path d="M7.99732 13.6139C4.89832 13.6139 2.38582 11.1014 2.38582 8.00245C2.38582 4.90345 4.89832 2.39095 7.99732 2.39095C11.0963 2.39095 13.6088 4.90345 13.6088 8.00245C13.6088 11.1014 11.0963 13.6139 7.99732 13.6139ZM7.99732 2.03345C4.70582 2.03345 2.02832 4.71095 2.02832 8.00245C2.02832 11.2939 4.70582 13.9714 7.99732 13.9714C11.2888 13.9714 13.9663 11.2939 13.9663 8.00245C13.9663 4.71095 11.2888 2.03345 7.99732 2.03345Z" fill="white"/>
<path fill-rule="evenodd" clip-rule="evenodd" d="M10.0996 10.1375L9.78812 11.487L9.71312 11.8135H9.37812L7.65562 11.8125H7.64862C6.95812 11.801 6.41612 11.6175 6.06062 11.2935C6.36762 11.835 7.01962 12.1485 7.92962 12.1635H7.93662L9.65862 12.1645H9.99362L10.0691 11.838L10.3806 10.4885L10.1376 9.97295L10.0996 10.1375ZM9.55812 4.35195L9.31212 3.84045L9.27712 4.00045L9.04362 5.06395H9.40162L9.55812 4.35195ZM10.8016 5.58245L10.4916 6.89495L10.4146 7.21895H8.54812L8.07412 9.38295C8.06412 9.44495 8.05812 9.50795 8.05812 9.54295C8.05812 9.57345 8.06162 9.59295 8.06462 9.60245C8.10024 9.6158 8.13808 9.62225 8.17612 9.62145H8.38012L8.82912 7.57045H10.6956L10.7721 7.24595L11.0821 5.93345L10.8411 5.41545L10.8011 5.58245H10.8016ZM6.17062 7.21895H4.87012L5.31812 7.57045H6.09412L6.17062 7.21895Z" fill="white"/>
<path fill-rule="evenodd" clip-rule="evenodd" d="M8.21711 10.0429H8.16961C7.80761 10.0334 7.63661 9.8449 7.63661 9.5429C7.63661 9.4709 7.64861 9.3754 7.66061 9.3039L8.20961 6.7979H10.0816L10.3916 5.4854H8.51961L8.86561 3.9104H7.33861L6.99211 5.4854H5.33511L5.03711 6.7979H6.69411L6.04911 9.7454C6.01411 9.8884 6.00161 10.0554 6.00161 10.1389C6.00161 10.9799 6.66511 11.3749 7.65561 11.3914L9.37761 11.3919L9.68911 10.0429H8.21711Z" fill="white"/>
</g>
<defs>
<clipPath id="clip0_7_7679">
<rect width="16" height="16" fill="white"/>
</clipPath>
</defs>
</svg>
