<svg width="16" height="16" viewBox="0 0 16 16" fill="none" xmlns="http://www.w3.org/2000/svg">
<g clip-path="url(#clip0_7_7845)">
<path d="M8 16C12.4183 16 16 12.4183 16 8C16 3.58172 12.4183 0 8 0C3.58172 0 0 3.58172 0 8C0 12.4183 3.58172 16 8 16Z" fill="#30C0F2"/>
<path d="M5.06167 3.5H10.9487C10.9487 3.5 11.1047 4.277 11.9387 4.329C11.9387 4.329 14.6997 10.754 7.97918 13.5C7.97918 13.5 1.77967 11.531 3.96767 4.381C3.96767 4.381 4.90567 4.329 5.06167 3.5ZM10.6367 4.0115H5.37668L5.36968 4.1235C5.32568 4.368 5.20317 4.5385 5.02367 4.6535C4.91243 4.72364 4.78777 4.76979 4.65767 4.789L4.56567 4.798L4.53968 4.887C4.05518 6.542 4.03867 7.972 4.42017 9.192C4.73317 10.192 5.29967 11.012 6.04618 11.667C6.44016 12.0125 6.87609 12.307 7.34368 12.5435C7.49868 12.622 7.64367 12.6865 7.77317 12.7385C7.85167 12.77 7.90917 12.7905 7.94067 12.801L7.98968 12.816L8.03717 12.796C9.89017 12.004 11.0112 10.807 11.5132 9.316C11.9282 8.086 11.8912 6.7765 11.5817 5.5365C11.5222 5.29862 11.4504 5.06397 11.3667 4.8335C11.3599 4.81524 11.3529 4.79707 11.3457 4.779L11.3137 4.7L11.2282 4.6945C10.9852 4.6785 10.8307 4.5795 10.7352 4.4205C10.6843 4.33501 10.6528 4.23945 10.6427 4.1405L10.6367 4.0115ZM5.61417 4.284C8.79768 4.2845 10.3892 4.285 10.3892 4.2855C10.4112 4.379 10.4467 4.472 10.4992 4.5605C10.6272 4.773 10.8327 4.9165 11.1207 4.9575C11.1962 5.16917 11.2613 5.38443 11.3157 5.6025C11.6137 6.7965 11.6487 8.0555 11.2532 9.2295C10.7807 10.633 9.73018 11.763 7.97767 12.5245C7.80389 12.459 7.6338 12.384 7.46817 12.3C7.02119 12.0742 6.60442 11.7929 6.22767 11.463C5.51717 10.839 4.97918 10.061 4.68218 9.1115C4.32318 7.964 4.33267 6.615 4.77917 5.0445C4.91813 5.01276 5.05079 4.95801 5.17168 4.8825C5.38964 4.74623 5.54778 4.53234 5.61417 4.284ZM9.29417 7.075H9.14267C9.15767 6.771 9.09017 6.109 8.26767 5.925C8.0287 5.86786 7.77845 5.8793 7.54567 5.958C7.22467 6.072 6.84168 6.3585 6.82718 7.075H6.71567C6.60206 7.075 6.49307 7.11996 6.4125 7.20006C6.33193 7.28016 6.28634 7.38889 6.28568 7.5025V9.29C6.28634 9.40361 6.33193 9.51234 6.4125 9.59244C6.49307 9.67254 6.60206 9.7175 6.71567 9.7175H9.29468C9.40829 9.7175 9.51728 9.67254 9.59785 9.59244C9.67842 9.51234 9.72401 9.40361 9.72467 9.29V7.5025C9.72401 7.38889 9.67842 7.28016 9.59785 7.20006C9.51728 7.11996 9.40829 7.075 9.29468 7.075H9.29417ZM8.29168 9.096H7.71868L7.87017 8.3425C7.79893 8.31178 7.74048 8.25739 7.70474 8.18852C7.66899 8.11966 7.65814 8.04056 7.67402 7.96461C7.68991 7.88866 7.73155 7.82054 7.79189 7.77177C7.85224 7.72301 7.92759 7.69659 8.00518 7.697C8.05098 7.67725 8.10061 7.66793 8.15046 7.66972C8.20032 7.67151 8.24915 7.68436 8.29342 7.70734C8.3377 7.73032 8.37631 7.76286 8.40647 7.8026C8.43662 7.84234 8.45756 7.88829 8.46777 7.93712C8.47798 7.98595 8.47721 8.03644 8.46551 8.08493C8.45381 8.13342 8.43148 8.17871 8.40012 8.21751C8.36877 8.25631 8.32918 8.28765 8.28422 8.30927C8.23926 8.33089 8.19006 8.34224 8.14018 8.3425L8.29168 9.096ZM7.19768 7.075C7.21168 6.841 7.31068 6.287 7.92718 6.246C7.92718 6.246 8.74018 6.2015 8.72568 7.075H7.19768Z" fill="white"/>
</g>
<defs>
<clipPath id="clip0_7_7845">
<rect width="16" height="16" fill="white"/>
</clipPath>
</defs>
</svg>
