<svg width="16" height="16" viewBox="0 0 16 16" fill="none" xmlns="http://www.w3.org/2000/svg">
<g clip-path="url(#clip0_7_7677)">
<path d="M8 16C12.4183 16 16 12.4183 16 8C16 3.58172 12.4183 0 8 0C3.58172 0 0 3.58172 0 8C0 12.4183 3.58172 16 8 16Z" fill="#00843D"/>
<path d="M8.00305 2.80005C8.20005 2.80005 8.39355 2.85155 8.56405 2.95005L12.1441 5.01705C12.3147 5.11564 12.4564 5.25742 12.5549 5.42813C12.6534 5.59884 12.7051 5.79247 12.7051 5.98955V10.2066C12.7051 10.6076 12.4916 10.9781 12.1441 11.1786L8.56355 13.2461C8.39291 13.3446 8.19934 13.3964 8.0023 13.3964C7.80526 13.3964 7.6117 13.3446 7.44105 13.2461L3.86005 11.1786C3.68942 11.08 3.5477 10.9384 3.44914 10.7677C3.35059 10.5971 3.29865 10.4036 3.29855 10.2066V5.98955C3.29855 5.58855 3.51255 5.21805 3.86005 5.01705L7.44005 2.95005C7.61105 2.85155 7.80505 2.79955 8.00155 2.79955H8.00255L8.00305 2.80005ZM8.00205 2.01955C7.66819 2.01975 7.34023 2.10769 7.05105 2.27455L3.47005 4.34105C3.18111 4.50846 2.94116 4.74877 2.77419 5.03797C2.60722 5.32716 2.51907 5.65512 2.51855 5.98905V10.2061C2.51907 10.54 2.60722 10.8679 2.77419 11.1571C2.94116 11.4463 3.18111 11.6866 3.47005 11.8541L7.05005 13.9211C7.63905 14.2611 8.36455 14.2611 8.95305 13.9211L12.5336 11.8541C12.8225 11.6866 13.0624 11.4463 13.2294 11.1571C13.3964 10.8679 13.4845 10.54 13.4851 10.2061V5.98905C13.4845 5.65512 13.3964 5.32716 13.2294 5.03797C13.0624 4.74877 12.8225 4.50846 12.5336 4.34105L8.95355 2.27355C8.66408 2.10652 8.33576 2.01858 8.00155 2.01855L8.00205 2.01955Z" fill="white"/>
<path d="M7.56349 8.76004C7.52235 8.7601 7.48193 8.74932 7.44629 8.72878C7.41065 8.70824 7.38106 8.67867 7.36049 8.64304L6.92999 7.89654C6.90945 7.86097 6.89864 7.82062 6.89864 7.77954C6.89864 7.73847 6.90945 7.69811 6.92999 7.66254L7.36049 6.91604C7.38106 6.88042 7.41065 6.85085 7.44629 6.83031C7.48193 6.80976 7.52235 6.79898 7.56349 6.79904H8.44249C8.48352 6.79917 8.5238 6.81004 8.55933 6.83056C8.59485 6.85109 8.62439 6.88056 8.64499 6.91604L9.07599 7.66254C9.09653 7.69811 9.10734 7.73847 9.10734 7.77954C9.10734 7.82062 9.09653 7.86097 9.07599 7.89654L8.64499 8.64304C8.62446 8.67859 8.59495 8.70812 8.5594 8.72866C8.52386 8.74919 8.48354 8.76002 8.44249 8.76004H7.56349ZM6.38899 7.58454C6.4301 7.5845 6.47049 7.57368 6.50611 7.55315C6.54173 7.53262 6.57134 7.5031 6.59199 7.46754L7.02249 6.72104C7.04303 6.68547 7.05384 6.64512 7.05384 6.60404C7.05384 6.56297 7.04303 6.52261 7.02249 6.48704L6.48549 5.55654L5.43699 6.12854C5.3994 6.14914 5.36819 6.17966 5.34677 6.21678C5.32534 6.2539 5.31452 6.29619 5.31549 6.33904C5.32399 6.75804 5.37299 7.17504 5.46099 7.58454H6.38899ZM9.61649 7.58454C9.57544 7.58452 9.53512 7.57369 9.49957 7.55315C9.46403 7.53262 9.43451 7.50309 9.41399 7.46754L8.98299 6.72104C8.96245 6.68547 8.95164 6.64512 8.95164 6.60404C8.95164 6.56297 8.96245 6.52261 8.98299 6.48704L9.51999 5.55654L10.568 6.12854C10.6056 6.14903 10.6369 6.17945 10.6584 6.21648C10.6799 6.2535 10.6908 6.29573 10.69 6.33854C10.6815 6.75755 10.6329 7.17478 10.545 7.58454H9.61649ZM8.11499 4.78904C8.08063 4.77031 8.04212 4.7605 8.00299 4.7605C7.96386 4.7605 7.92535 4.77031 7.89099 4.78904L6.82799 5.36904L7.36099 6.29204C7.38151 6.32759 7.41103 6.35712 7.44657 6.37766C7.48212 6.39819 7.52244 6.40902 7.56349 6.40904H8.44249C8.48355 6.40907 8.52389 6.39826 8.55944 6.37772C8.595 6.35718 8.6245 6.32763 8.64499 6.29204L9.17799 5.36954L8.11499 4.78954V4.78904ZM5.55799 7.97454C5.75853 8.68795 6.07893 9.36206 6.50549 9.96804L7.02299 9.07204C7.04353 9.03647 7.05434 8.99612 7.05434 8.95504C7.05434 8.91397 7.04353 8.87362 7.02299 8.83804L6.59199 8.09154C6.57146 8.05599 6.54195 8.02647 6.5064 8.00593C6.47086 7.98539 6.43054 7.97457 6.38949 7.97454H5.55799ZM10.447 7.97454C10.2466 8.68792 9.92638 9.36203 9.49999 9.96804L8.98249 9.07204C8.96195 9.03647 8.95114 8.99612 8.95114 8.95504C8.95114 8.91397 8.96195 8.87362 8.98249 8.83804L9.41399 8.09154C9.43451 8.05599 9.46403 8.02647 9.49957 8.00593C9.53512 7.98539 9.57544 7.97457 9.61649 7.97454H10.4475H10.447ZM7.56349 9.15004C7.52235 9.14998 7.48193 9.16076 7.44629 9.1813C7.41065 9.20185 7.38106 9.23142 7.36049 9.26704L6.76049 10.307C7.08362 10.7085 7.45263 11.0708 7.85999 11.3865C7.90106 11.4181 7.95143 11.4353 8.00324 11.4353C8.05505 11.4353 8.10541 11.4181 8.14649 11.3865C8.5537 11.0707 8.92255 10.7082 9.24549 10.3065L8.64549 9.26704C8.62496 9.23149 8.59545 9.20197 8.5599 9.18143C8.52436 9.16089 8.48404 9.15007 8.44299 9.15004H7.56349Z" fill="white"/>
</g>
<defs>
<clipPath id="clip0_7_7677">
<rect width="16" height="16" fill="white"/>
</clipPath>
</defs>
</svg>
