<svg width="16" height="16" viewBox="0 0 16 16" fill="none" xmlns="http://www.w3.org/2000/svg">
<g clip-path="url(#clip0_7_7676)">
<path d="M8 16C12.4183 16 16 12.4183 16 8C16 3.58172 12.4183 0 8 0C3.58172 0 0 3.58172 0 8C0 12.4183 3.58172 16 8 16Z" fill="#EF0027"/>
<path d="M10.966 4.95654L3.75 3.62854L7.5475 13.1845L12.839 6.73754L10.966 4.95654ZM10.85 5.54154L11.954 6.59104L8.935 7.13754L10.85 5.54154ZM8.279 7.02804L5.097 4.38904L10.298 5.34604L8.279 7.02804ZM8.0525 7.49504L7.5335 11.785L4.736 4.74354L8.0525 7.49504ZM8.5325 7.72254L11.876 7.11754L8.041 11.789L8.5325 7.72254Z" fill="white"/>
</g>
<defs>
<clipPath id="clip0_7_7676">
<rect width="16" height="16" fill="white"/>
</clipPath>
</defs>
</svg>
