<?xml version="1.0" standalone="no"?>
<!DOCTYPE svg PUBLIC "-//W3C//DTD SVG 20010904//EN"
 "http://www.w3.org/TR/2001/REC-SVG-20010904/DTD/svg10.dtd">
<svg version="1.0" xmlns="http://www.w3.org/2000/svg"
 width="200.000000pt" height="200.000000pt" viewBox="0 0 200.000000 200.000000"
 preserveAspectRatio="xMidYMid meet">

<g transform="translate(0.000000,200.000000) scale(0.100000,-0.100000)"
fill="#000000" stroke="none">
<path d="M895 1964 c-92 -21 -221 -50 -310 -69 -83 -18 -191 -44 -310 -75 -38
-10 -106 -26 -150 -35 -44 -10 -86 -19 -92 -21 -19 -5 -17 -291 2 -434 27
-197 76 -419 120 -540 36 -99 155 -310 176 -310 5 0 9 -5 9 -11 0 -15 184
-199 199 -199 6 0 11 -4 11 -9 0 -5 24 -24 53 -42 28 -18 54 -36 57 -40 4 -5
79 -47 135 -76 11 -6 34 -17 50 -26 17 -8 59 -25 94 -37 60 -21 64 -22 109 -5
48 17 121 48 157 68 75 39 131 71 135 77 3 3 29 21 58 40 28 18 52 37 52 42 0
4 5 8 11 8 13 0 199 186 199 199 0 5 3 11 8 13 10 4 62 75 62 84 0 4 6 15 14
23 33 37 109 207 126 281 4 19 14 62 23 95 55 210 87 446 87 636 0 148 -5 164
-55 172 -40 6 -116 24 -196 48 -36 10 -74 19 -84 19 -10 0 -48 9 -84 19 -36
11 -104 27 -151 36 -47 9 -117 25 -157 36 -39 10 -82 19 -95 19 -12 0 -45 7
-72 15 -59 18 -111 18 -191 -1z m195 -113 c36 -7 99 -21 140 -31 41 -10 109
-26 150 -35 387 -86 460 -105 473 -127 8 -11 7 -68 -2 -185 -22 -297 -103
-652 -173 -755 -10 -14 -18 -33 -18 -42 0 -9 -4 -16 -8 -16 -5 0 -15 -12 -23
-27 -35 -71 -150 -198 -264 -291 -65 -53 -207 -142 -227 -142 -5 0 -22 -8 -36
-18 -50 -33 -100 -45 -135 -32 -50 19 -190 91 -208 106 -8 8 -19 14 -23 14
-10 0 -70 43 -79 57 -4 7 -13 13 -19 13 -31 0 -298 302 -298 336 0 3 -8 18
-18 32 -11 15 -22 36 -25 47 -3 11 -19 58 -35 105 -65 192 -123 545 -122 752
l0 57 52 15 c79 22 231 58 428 102 41 9 107 25 147 35 39 10 82 19 95 19 12 0
43 7 68 15 48 15 58 15 160 -4z"/>
<path d="M950 1416 c0 -43 -1 -44 -48 -61 -91 -33 -132 -84 -132 -166 0 -51 3
-59 37 -93 36 -35 110 -76 140 -76 23 0 104 -47 120 -70 13 -18 13 -24 -1 -45
-10 -14 -30 -27 -51 -31 -47 -8 -159 4 -193 22 -26 13 -28 13 -39 -14 -16 -36
-16 -89 0 -99 6 -4 46 -12 87 -18 l75 -10 3 -48 3 -47 50 0 49 0 0 55 c0 52 1
55 25 55 39 0 101 36 131 76 24 30 28 45 28 100 0 59 -3 67 -34 99 -32 33
-127 85 -154 85 -28 0 -98 43 -109 67 -10 23 -8 28 16 49 42 36 109 32 208
-10 13 -5 19 1 28 25 6 18 11 44 11 59 0 28 -22 39 -112 55 -36 7 -38 9 -38
46 l0 39 -50 0 -50 0 0 -44z"/>
</g>
</svg>
