<svg width="16" height="16" viewBox="0 0 16 16" fill="none" xmlns="http://www.w3.org/2000/svg">
<g clip-path="url(#clip0_7_7675)">
<path d="M8 16C12.4183 16 16 12.4183 16 8C16 3.58172 12.4183 0 8 0C3.58172 0 0 3.58172 0 8C0 12.4183 3.58172 16 8 16Z" fill="#2B2E7F"/>
<path d="M8.52823 9.51396V6.58396H8.91323C10.1857 6.58396 10.4992 5.39746 10.4992 5.39746H7.15773C5.57173 5.39746 5.30273 6.58446 5.30273 6.58446H7.27423V10.993C7.27423 10.993 8.52823 10.6165 8.52823 9.51396Z" fill="white"/>
<path d="M12.1981 11.7969C13.3221 10.6289 13.7531 9.00695 13.3486 7.45545C13.1351 6.64363 12.7068 5.90436 12.1086 5.31545C12.0546 5.26245 12.0006 5.20845 11.9376 5.15545L11.8836 5.10195C11.8469 5.0666 11.8078 5.03385 11.7666 5.00395L11.6946 4.95045L11.5871 4.87045L11.5236 4.82545C11.4807 4.79734 11.4388 4.76766 11.3981 4.73645L11.3166 4.68345C11.283 4.65901 11.247 4.63807 11.2091 4.62095L11.1281 4.56745C11.0921 4.54945 11.0561 4.52245 11.0201 4.50495L10.9391 4.45995C10.9031 4.44245 10.8671 4.42445 10.8221 4.40695L10.7946 4.39795C10.8936 4.47795 10.9921 4.56745 11.0821 4.65645C11.4923 5.06318 11.8179 5.54712 12.0401 6.08035C12.2623 6.61358 12.3767 7.18553 12.3767 7.7632C12.3767 8.34087 12.2623 8.91282 12.0401 9.44605C11.8179 9.97928 11.4923 10.4632 11.0821 10.8699C8.8891 13.0449 5.3296 13.0449 3.1356 10.8699C3.0546 10.7899 2.9826 10.7099 2.9021 10.6299L2.8391 10.5584C2.79199 10.5037 2.74696 10.4471 2.7041 10.3889C2.98612 10.942 3.35326 11.4473 3.7921 11.8864C6.0841 14.1594 9.8051 14.1594 12.0971 11.8864C12.137 11.8643 12.1715 11.8341 12.1981 11.7969Z" fill="white"/>
<path d="M5.20013 11.193C5.1001 11.1114 5.00399 11.0252 4.91213 10.9345C4.5015 10.5274 4.17556 10.043 3.95312 9.50924C3.73069 8.97549 3.61617 8.40298 3.61617 7.82474C3.61617 7.2465 3.73069 6.67399 3.95312 6.14025C4.17556 5.6065 4.5015 5.1221 4.91213 4.71499C7.10763 2.53799 10.6701 2.53799 12.8656 4.71499C13.0186 4.86699 13.1621 5.02749 13.2971 5.19699C13.0148 4.64624 12.6475 4.14341 12.2086 3.70699C9.91463 1.43149 6.18963 1.43149 3.89563 3.70699C3.86863 3.73349 3.84163 3.76949 3.80563 3.79599C2.28513 5.38449 2.07813 7.75799 3.29313 9.56049C3.77013 10.2555 4.43513 10.8355 5.20013 11.193Z" fill="white"/>
</g>
<defs>
<clipPath id="clip0_7_7675">
<rect width="16" height="16" fill="white"/>
</clipPath>
</defs>
</svg>
