<svg width="16" height="16" viewBox="0 0 16 16" fill="none" xmlns="http://www.w3.org/2000/svg">
<g clip-path="url(#clip0_7_7674)">
<path d="M8 16C12.4183 16 16 12.4183 16 8C16 3.58172 12.4183 0 8 0C3.58172 0 0 3.58172 0 8C0 12.4183 3.58172 16 8 16Z" fill="#374851"/>
<path fill-rule="evenodd" clip-rule="evenodd" d="M8.85 7.7V11.499C8.952 11.474 9.052 11.4455 9.15 11.4125V12.8675C8.49417 13.0218 7.81396 13.0424 7.15 12.928V7.7H5.4V6.3H10.6V7.7H8.85ZM9.55 12.755V11.25C10.2871 10.8984 10.8828 10.3066 11.2392 9.57172C11.5955 8.83689 11.6915 8.00272 11.5112 7.20617C11.331 6.40962 10.8852 5.69804 10.2472 5.18825C9.60911 4.67846 8.81669 4.40077 8 4.40077C7.18331 4.40077 6.39089 4.67846 5.75284 5.18825C5.1148 5.69804 4.66905 6.40962 4.48879 7.20617C4.30853 8.00272 4.40446 8.83689 4.76085 9.57172C5.11723 10.3066 5.71288 10.8984 6.45 11.25V12.755C4.4475 12.1025 3 10.22 3 8C3 5.2385 5.2385 3 8 3C10.7615 3 13 5.2385 13 8C13 10.22 11.5525 12.1025 9.55 12.755Z" fill="white"/>
</g>
<defs>
<clipPath id="clip0_7_7674">
<rect width="16" height="16" fill="white"/>
</clipPath>
</defs>
</svg>
