<svg width="16" height="16" viewBox="0 0 16 16" fill="none" xmlns="http://www.w3.org/2000/svg">
<g clip-path="url(#clip0_7_7673)">
<path d="M8 16C12.4183 16 16 12.4183 16 8C16 3.58172 12.4183 0 8 0C3.58172 0 0 3.58172 0 8C0 12.4183 3.58172 16 8 16Z" fill="#00EA90"/>
<path d="M9.10741 3.75403L12.9959 5.78803L9.24941 8.08453L9.10741 3.75403ZM6.89241 12.2245L3.00391 10.1905L6.75041 7.89353L6.89241 12.2245Z" fill="white" fill-opacity="0.698"/>
<path d="M12.9959 10.3395L7.58941 13.5V9.0655L12.9959 5.788V10.3395ZM3.00391 5.6395L8.41041 2.5V6.917L3.00391 10.1905V5.639V5.6395Z" fill="white"/>
</g>
<defs>
<clipPath id="clip0_7_7673">
<rect width="16" height="16" fill="white"/>
</clipPath>
</defs>
</svg>
