<svg width="16" height="16" viewBox="0 0 16 16" fill="none" xmlns="http://www.w3.org/2000/svg">
<g clip-path="url(#clip0_7_7944)">
<path d="M8 16C12.4183 16 16 12.4183 16 8C16 3.58172 12.4183 0 8 0C3.58172 0 0 3.58172 0 8C0 12.4183 3.58172 16 8 16Z" fill="#FF4A4A"/>
<path d="M9.664 9.4905H9.158C9.1352 9.49057 9.11261 9.48613 9.09153 9.47743C9.07045 9.46873 9.05129 9.45596 9.03517 9.43983C9.01905 9.42371 9.00627 9.40456 8.99757 9.38348C8.98888 9.3624 8.98443 9.33981 8.9845 9.317V7.986L8.0985 8.539C8.06196 8.562 8.01967 8.57421 7.9765 8.57421C7.93333 8.57421 7.89104 8.562 7.8545 8.539L6.9735 7.986V9.317C6.9735 9.411 6.8985 9.4905 6.8 9.4905H6.2985C6.2757 9.49057 6.25311 9.48613 6.23203 9.47743C6.21095 9.46873 6.19179 9.45596 6.17567 9.43983C6.15955 9.42371 6.14677 9.40456 6.13807 9.38348C6.12938 9.3624 6.12493 9.33981 6.125 9.317V6.7485C6.125 6.6875 6.14923 6.629 6.19237 6.58587C6.2355 6.54274 6.294 6.5185 6.355 6.5185C6.4015 6.5185 6.4435 6.533 6.481 6.561L7.878 7.522C7.90584 7.54266 7.93958 7.55382 7.97425 7.55382C8.00892 7.55382 8.04266 7.54266 8.0705 7.522L9.467 6.561C9.50155 6.53787 9.54169 6.52445 9.58321 6.52215C9.62472 6.51984 9.66609 6.52874 9.703 6.54791C9.7399 6.56707 9.77097 6.5958 9.79296 6.63109C9.81495 6.66638 9.82705 6.70693 9.828 6.7485V9.317C9.82915 9.33929 9.82577 9.36158 9.81805 9.38253C9.81034 9.40347 9.79846 9.42263 9.78313 9.43885C9.7678 9.45507 9.74934 9.46801 9.72886 9.47689C9.70838 9.48577 9.68632 9.4904 9.664 9.4905ZM5.37 9.486H2.23C2.169 9.486 2.1105 9.46177 2.06737 9.41864C2.02423 9.3755 2 9.317 2 9.256V6.6735C2.00092 6.627 2.02011 6.58272 2.05342 6.55025C2.08673 6.51778 2.13148 6.49973 2.178 6.5H2.685C2.7785 6.5 2.8585 6.575 2.8585 6.6735V8.6375H4.7615V6.6735C4.7615 6.5795 4.8365 6.5 4.935 6.5H5.427C5.521 6.5 5.6005 6.575 5.6005 6.6735V9.2565C5.60037 9.31742 5.57608 9.37579 5.53296 9.41881C5.48984 9.46184 5.43141 9.486 5.3705 9.486H5.37ZM10.592 6.5H13.733C13.7939 6.50014 13.8523 6.52443 13.8953 6.56755C13.9383 6.61066 13.9625 6.66909 13.9625 6.73V9.3125C13.9625 9.4065 13.8875 9.486 13.7935 9.486H13.2875C13.2647 9.48607 13.2421 9.48163 13.221 9.47293C13.1999 9.46423 13.1808 9.45146 13.1647 9.43533C13.1485 9.41921 13.1358 9.40006 13.1271 9.37898C13.1184 9.3579 13.1139 9.33531 13.114 9.3125V7.461C13.1136 7.43129 13.1016 7.4029 13.0806 7.38188C13.0596 7.36087 13.0312 7.34889 13.0015 7.3485H11.328C11.2983 7.34889 11.2699 7.36087 11.2489 7.38188C11.2279 7.4029 11.2159 7.43129 11.2155 7.461V9.3125C11.2155 9.4065 11.1405 9.486 11.042 9.486H10.536C10.5132 9.48607 10.4906 9.48163 10.4695 9.47293C10.4484 9.46423 10.4293 9.45146 10.4132 9.43533C10.397 9.41921 10.3843 9.40006 10.3756 9.37898C10.3669 9.3579 10.3624 9.33531 10.3625 9.3125V6.7295C10.3626 6.66859 10.3869 6.61022 10.43 6.56719C10.4732 6.52417 10.5311 6.5 10.592 6.5Z" fill="white"/>
<path d="M11.9093 7.89197H12.4108C12.5043 7.89197 12.5843 7.96697 12.5843 8.06547V8.57647C12.5843 8.67047 12.5093 8.74997 12.4108 8.74997H11.9093C11.8865 8.75003 11.8639 8.74559 11.8429 8.7369C11.8218 8.7282 11.8026 8.71542 11.7865 8.6993C11.7704 8.68317 11.7576 8.66402 11.7489 8.64294C11.7402 8.62186 11.7358 8.59927 11.7358 8.57647V8.06097C11.7358 7.96697 11.8158 7.89197 11.9093 7.89197Z" fill="white"/>
</g>
<defs>
<clipPath id="clip0_7_7944">
<rect width="16" height="16" fill="white"/>
</clipPath>
</defs>
</svg>
