<svg width="16" height="16" viewBox="0 0 16 16" fill="none" xmlns="http://www.w3.org/2000/svg">
<g clip-path="url(#clip0_7_7672)">
<path d="M8 16C12.4183 16 16 12.4183 16 8C16 3.58172 12.4183 0 8 0C3.58172 0 0 3.58172 0 8C0 12.4183 3.58172 16 8 16Z" fill="#FF007A"/>
<path d="M6.13063 2.8835C5.98813 2.8615 5.98213 2.8585 6.04913 2.8485C6.17763 2.8285 6.48163 2.856 6.69113 2.9055C7.17963 3.022 7.62413 3.3195 8.09913 3.848L8.22513 3.988L8.40513 3.9595C9.16513 3.837 9.93863 3.9345 10.5851 4.233C10.7631 4.315 11.0436 4.4785 11.0786 4.521C11.0901 4.534 11.1106 4.6205 11.1241 4.7125C11.1721 5.031 11.1481 5.275 11.0511 5.4575C10.9981 5.5565 10.9951 5.5875 11.0306 5.6725C11.0475 5.7076 11.0738 5.73728 11.1067 5.75814C11.1396 5.779 11.1777 5.79021 11.2166 5.7905C11.3776 5.7905 11.5506 5.5305 11.6306 5.169L11.6626 5.0255L11.7256 5.097C12.0716 5.489 12.3431 6.0235 12.3896 6.4035L12.4021 6.503L12.3436 6.413C12.2436 6.258 12.1436 6.152 12.0146 6.0665C11.7826 5.913 11.5371 5.861 10.8871 5.8265C10.3001 5.7955 9.96763 5.7455 9.63863 5.638C9.07813 5.4555 8.79563 5.212 8.12963 4.3385C7.83413 3.9505 7.65113 3.736 7.46963 3.5635C7.05613 3.1705 6.65013 2.9645 6.13063 2.8835Z" fill="white"/>
<path d="M11.2113 3.75007C11.2263 3.49007 11.2613 3.31857 11.3323 3.16207C11.3603 3.10007 11.3868 3.04907 11.3908 3.04907C11.3864 3.08417 11.3771 3.11849 11.3633 3.15107C11.3118 3.30307 11.3033 3.51107 11.3388 3.75257C11.3838 4.05957 11.4098 4.10357 11.7338 4.43507C11.8863 4.59057 12.0633 4.78657 12.1273 4.87107L12.2438 5.02407L12.1273 4.91457C11.9848 4.78107 11.6568 4.51957 11.5843 4.48257C11.5358 4.45757 11.5283 4.45807 11.4983 4.48757C11.4708 4.51557 11.4648 4.55657 11.4613 4.75207C11.4553 5.05607 11.4138 5.25207 11.3133 5.44707C11.2593 5.55207 11.2508 5.53007 11.2998 5.41057C11.3363 5.32157 11.3398 5.28257 11.3398 4.98807C11.3398 4.39607 11.2693 4.25407 10.8568 4.01007C10.7327 3.93805 10.6052 3.87198 10.4748 3.81207C10.4104 3.78623 10.3479 3.75582 10.2878 3.72107C10.2993 3.70957 10.7013 3.82657 10.8628 3.88907C11.1038 3.98157 11.1433 3.99357 11.1728 3.98207C11.1923 3.97457 11.2018 3.91757 11.2113 3.75007ZM6.40784 4.76257C6.11834 4.36407 5.93934 3.75257 5.97784 3.29557L5.98984 3.15407L6.05584 3.16607C6.17984 3.18857 6.39334 3.26807 6.49334 3.32907C6.76734 3.49557 6.88634 3.71507 7.00684 4.27807C7.04234 4.44307 7.08884 4.62957 7.11034 4.69307C7.14434 4.79457 7.27434 5.03207 7.38034 5.18657C7.45634 5.29757 7.40534 5.35007 7.23734 5.33507C6.98034 5.31157 6.63234 5.07157 6.40784 4.76257ZM10.8603 7.73007C9.50684 7.18507 9.03034 6.71207 9.03034 5.91407C9.03034 5.79657 9.03434 5.70057 9.03884 5.70057C9.04384 5.70057 9.09634 5.73907 9.15534 5.78657C9.42984 6.00657 9.73734 6.10057 10.5878 6.22457C11.0883 6.29807 11.3703 6.35707 11.6303 6.44307C12.4563 6.71707 12.9673 7.27307 13.0893 8.03007C13.1243 8.25007 13.1038 8.66257 13.0463 8.88007C13.0013 9.05207 12.8628 9.36157 12.8263 9.37357C12.8163 9.37657 12.8063 9.33807 12.8033 9.28457C12.7893 9.00057 12.6458 8.72357 12.4043 8.51607C12.1298 8.28057 11.7618 8.09257 10.8603 7.73007ZM9.91034 7.95607C9.89435 7.85949 9.87248 7.76398 9.84484 7.67007L9.80984 7.56707L9.87434 7.63907C9.96284 7.73907 10.0333 7.86607 10.0923 8.03607C10.1378 8.16557 10.1428 8.20407 10.1423 8.41457C10.1423 8.62157 10.1368 8.66457 10.0948 8.78157C10.0364 8.95313 9.93867 9.10862 9.80934 9.23557C9.56184 9.48757 9.24434 9.62657 8.78534 9.68457C8.70534 9.69457 8.47334 9.71157 8.26884 9.72207C7.75384 9.74907 7.41534 9.80407 7.11084 9.91107C7.08339 9.92338 7.05389 9.9305 7.02384 9.93207C7.01184 9.91957 7.21884 9.79607 7.39034 9.71357C7.63184 9.59707 7.87184 9.53357 8.41034 9.44407C8.67634 9.39957 8.95134 9.34607 9.02084 9.32457C9.67984 9.12257 10.0188 8.60157 9.91034 7.95607Z" fill="white"/>
<path d="M10.5304 9.05807C10.3504 8.67157 10.3094 8.29807 10.4079 7.95007C10.4184 7.91307 10.4354 7.88257 10.4454 7.88257C10.4792 7.89482 10.5111 7.912 10.5399 7.93357C10.6229 7.98957 10.7889 8.08357 11.2314 8.32457C11.7839 8.62607 12.0989 8.85957 12.3134 9.12557C12.5009 9.35907 12.6169 9.62507 12.6729 9.94907C12.7044 10.1326 12.6859 10.5741 12.6389 10.7591C12.4904 11.3421 12.1449 11.8001 11.6529 12.0671C11.6064 12.0939 11.5583 12.1178 11.5089 12.1386C11.5019 12.1386 11.5279 12.0721 11.5674 11.9901C11.7324 11.6441 11.7519 11.3071 11.6264 10.9321C11.5499 10.7026 11.3934 10.4221 11.0779 9.94907C10.7109 9.39907 10.6209 9.25207 10.5304 9.05807ZM5.44686 11.1436C5.94936 10.7196 6.57386 10.4186 7.14336 10.3261C7.38836 10.2861 7.79736 10.3021 8.02436 10.3601C8.38836 10.4531 8.71436 10.6621 8.88386 10.9106C9.04886 11.1536 9.12036 11.3656 9.19386 11.8366C9.22386 12.0226 9.25536 12.2091 9.26486 12.2516C9.31986 12.4956 9.42836 12.6911 9.56236 12.7891C9.77486 12.9446 10.1414 12.9541 10.5014 12.8141C10.539 12.7968 10.5786 12.7844 10.6194 12.7771C10.6324 12.7901 10.4514 12.9116 10.3234 12.9756C10.1723 13.0564 10.0032 13.0974 9.83186 13.0946C9.50186 13.0946 9.22786 12.9271 8.99936 12.5846C8.95436 12.5171 8.85336 12.3156 8.77436 12.1361C8.53336 11.5861 8.41436 11.4181 8.13436 11.2346C7.88986 11.0746 7.57536 11.0461 7.33886 11.1621C7.02786 11.3146 6.94136 11.7121 7.16386 11.9636C7.25236 12.0636 7.41736 12.1501 7.55236 12.1666C7.61125 12.1744 7.67113 12.1694 7.72796 12.1521C7.78478 12.1348 7.83722 12.1054 7.88173 12.0661C7.92624 12.0268 7.96178 11.9783 7.98596 11.9241C8.01013 11.8698 8.02238 11.811 8.02186 11.7516C8.02186 11.5856 7.95786 11.4916 7.79786 11.4191C7.57936 11.3206 7.34436 11.4356 7.34536 11.6411C7.34586 11.7286 7.38386 11.7836 7.47186 11.8236C7.52836 11.8486 7.52936 11.8511 7.48336 11.8416C7.28286 11.7996 7.23586 11.5581 7.39736 11.3976C7.59086 11.2046 7.99136 11.2896 8.12886 11.5526C8.18686 11.6631 8.19336 11.8836 8.14286 12.0166C8.03036 12.3141 7.70136 12.4701 7.36786 12.3851C7.14086 12.3271 7.04836 12.2646 6.77486 11.9826C6.29936 11.4926 6.11486 11.3976 5.42886 11.2906L5.29736 11.2701L5.44736 11.1436H5.44686Z" fill="white"/>
<path fill-rule="evenodd" clip-rule="evenodd" d="M3.09814 1.67502L3.14614 1.73352C5.00014 4.00352 5.95814 5.18152 6.01914 5.26552C6.11914 5.40452 6.08164 5.52902 5.90964 5.62702C5.81414 5.68152 5.61714 5.73652 5.51914 5.73652C5.40764 5.73652 5.28214 5.68302 5.19064 5.59652C5.12614 5.53502 4.86564 5.14602 4.26414 4.21252C3.98247 3.77132 3.69713 3.33247 3.40814 2.89602C3.38364 2.87302 3.38414 2.87352 4.21714 4.36402C4.74014 5.30002 4.91714 5.63052 4.91714 5.67502C4.91714 5.76502 4.89214 5.81202 4.78114 5.93602C4.59614 6.14252 4.51364 6.37452 4.45364 6.85452C4.38664 7.39302 4.19864 7.77302 3.67664 8.42352C3.37164 8.80452 3.32164 8.87452 3.24414 9.02802C3.14714 9.22102 3.12064 9.32952 3.10964 9.57352C3.09814 9.83152 3.12064 9.99852 3.19964 10.245C3.26864 10.461 3.34064 10.604 3.52464 10.889C3.68364 11.1355 3.77514 11.3185 3.77514 11.39C3.77514 11.447 3.78614 11.447 4.03264 11.3915C4.62214 11.2585 5.10064 11.024 5.37014 10.737C5.53664 10.5595 5.57564 10.4615 5.57714 10.218C5.57764 10.059 5.57214 10.0255 5.52914 9.93402C5.45914 9.78502 5.33164 9.66102 5.05064 9.46902C4.68214 9.21702 4.52514 9.01402 4.48164 8.73552C4.44564 8.50702 4.48714 8.34552 4.69114 7.91852C4.90164 7.47652 4.95414 7.28852 4.98964 6.84302C5.01214 6.55502 5.04364 6.44152 5.12664 6.35052C5.21264 6.25552 5.29064 6.22302 5.50414 6.19402C5.85214 6.14652 6.07364 6.05652 6.25564 5.88902C6.41364 5.74302 6.47964 5.60252 6.48964 5.39152L6.49764 5.23152L6.40914 5.12852C6.28214 4.98052 5.23164 3.82152 3.25714 1.65052L3.20414 1.59302L3.09814 1.67552V1.67502ZM3.95514 9.86602C3.99003 9.80425 4.00044 9.73164 3.98433 9.66256C3.96822 9.59348 3.92675 9.53297 3.86814 9.49302C3.75414 9.41702 3.57664 9.45302 3.57664 9.55202C3.57664 9.58202 3.59314 9.60402 3.63064 9.62352C3.69414 9.65602 3.69864 9.69302 3.64914 9.76752C3.59864 9.84352 3.60264 9.91052 3.66064 9.95602C3.75364 10.029 3.88514 9.98852 3.95514 9.86602ZM6.71714 6.27802C6.55364 6.32802 6.39514 6.50152 6.34564 6.68302C6.31564 6.79352 6.33264 6.98802 6.37764 7.04802C6.45014 7.14502 6.52064 7.17052 6.71064 7.16902C7.08264 7.16652 7.40564 7.00702 7.44364 6.80752C7.47464 6.64402 7.33214 6.41752 7.13664 6.31752C7.03564 6.26652 6.82114 6.24602 6.71714 6.27802ZM7.15214 6.61802C7.20964 6.53652 7.18414 6.44802 7.08714 6.38902C6.90114 6.27552 6.62014 6.36902 6.62014 6.54502C6.62014 6.63202 6.76664 6.72752 6.90064 6.72752C6.99064 6.72752 7.11264 6.67402 7.15214 6.61802Z" fill="white"/>
</g>
<defs>
<clipPath id="clip0_7_7672">
<rect width="16" height="16" fill="white"/>
</clipPath>
</defs>
</svg>
