<svg width="16" height="16" viewBox="0 0 16 16" fill="none" xmlns="http://www.w3.org/2000/svg">
<g clip-path="url(#clip0_7_7671)">
<path d="M8 16C12.4183 16 16 12.4183 16 8C16 3.58172 12.4183 0 8 0C3.58172 0 0 3.58172 0 8C0 12.4183 3.58172 16 8 16Z" fill="#F58634"/>
<path d="M6.64399 11.366H6.64599C7.24049 11.294 7.74049 11.114 8.14599 10.826C8.68299 10.441 8.95149 9.95204 8.95149 9.35904C8.95149 8.85904 8.75499 8.44054 8.36249 8.09804C7.96899 7.75654 7.43599 7.54904 6.76349 7.47704C6.53499 7.44754 6.21099 7.42604 5.79499 7.40204C4.88799 7.34704 4.29949 7.22304 4.02649 7.02854C3.92944 6.95892 3.84775 6.87007 3.78649 6.76754C3.7346 6.67431 3.70773 6.56923 3.70849 6.46254C3.70849 6.18204 3.87049 5.94504 4.19699 5.75854C4.52299 5.57254 4.93499 5.47754 5.43599 5.47754C5.91049 5.47754 6.38099 5.55854 6.82599 5.71754C8.73899 6.39954 10.566 8.78354 11.7825 10.4905C10.791 11.093 9.44049 11.4645 7.95249 11.4645C7.51449 11.4645 7.07699 11.432 6.64399 11.366ZM4.50449 10.395C2.75799 9.75754 1.99349 8.18204 2.85599 6.65204C2.87999 6.86704 2.95949 7.07354 3.08749 7.25204C3.24749 7.47654 3.48249 7.65904 3.79099 7.80254C4.86849 8.27054 6.84999 7.97154 7.66599 8.56604C7.94049 8.76604 8.07799 9.02154 8.07799 9.33304C8.07799 9.72454 7.88649 10.045 7.50349 10.294C7.12099 10.543 6.62299 10.6675 6.00999 10.6675C5.49632 10.6646 4.98706 10.5724 4.50499 10.395H4.50449Z" fill="white"/>
<path opacity="0.5" d="M12.9561 9.43752V6.51052C13.2846 6.95502 13.4681 7.45152 13.4681 7.97402C13.4681 8.49702 13.2846 8.99252 12.9561 9.43752ZM12.1316 5.70752L12.1341 9.43802C10.9626 7.77502 9.21206 5.68252 7.06056 4.98352C6.68836 4.86198 6.30386 4.782 5.91406 4.74502C6.58105 4.58065 7.26562 4.49838 7.95256 4.50002C9.62256 4.50002 11.1201 4.96802 12.1316 5.70752Z" fill="white"/>
</g>
<defs>
<clipPath id="clip0_7_7671">
<rect width="16" height="16" fill="white"/>
</clipPath>
</defs>
</svg>
