<svg width="16" height="16" viewBox="0 0 16 16" fill="none" xmlns="http://www.w3.org/2000/svg">
<g clip-path="url(#clip0_1227_6967)">
<path d="M8 16C12.4183 16 16 12.4183 16 8C16 3.58172 12.4183 0 8 0C3.58172 0 0 3.58172 0 8C0 12.4183 3.58172 16 8 16Z" fill="#EDECF9"/>
<path d="M7.19111 13V11.3043H8.94473V13H7.19111ZM4.7998 6.31884C4.90125 4.26087 6.23459 3 8.16212 3C10.0027 3 11.3215 4.15942 11.3215 5.89855C11.3215 7.21739 10.5824 8.08696 9.08966 9.17391L7.19111 10.5507V8.88406L8.32154 8.02899C9.42299 7.21739 9.82879 6.69565 9.82879 5.92754C9.82879 4.89855 9.07517 4.34783 8.10415 4.34783C7.08966 4.34783 6.36502 4.91304 6.29256 6.31884H4.7998Z" fill="#9FA7B2"/>
</g>
<defs>
<clipPath id="clip0_1227_6967">
<rect width="16" height="16" fill="white"/>
</clipPath>
</defs>
</svg>
