<svg width="16" height="16" viewBox="0 0 16 16" fill="none" xmlns="http://www.w3.org/2000/svg">
<g clip-path="url(#clip0_7_8053)">
<path d="M8 16C12.4183 16 16 12.4183 16 8C16 3.58172 12.4183 0 8 0C3.58172 0 0 3.58172 0 8C0 12.4183 3.58172 16 8 16Z" fill="#3E73C4"/>
<path d="M10.0108 9.062C10.0108 8 9.37078 7.636 8.09078 7.484C7.17678 7.3625 6.99428 7.12 6.99428 6.695C6.99428 6.27 7.29928 5.997 7.90828 5.997C8.45678 5.997 8.76178 6.179 8.91378 6.6345C8.92962 6.67855 8.95858 6.71668 8.99675 6.74377C9.03492 6.77086 9.08048 6.7856 9.12728 6.786H9.61478C9.64294 6.78675 9.67096 6.78178 9.69713 6.77138C9.72331 6.76098 9.7471 6.74537 9.76707 6.7255C9.78703 6.70563 9.80275 6.68191 9.81327 6.65578C9.8238 6.62966 9.8289 6.60166 9.82828 6.5735V6.5435C9.76871 6.21395 9.60196 5.9133 9.35395 5.68826C9.10594 5.46322 8.79056 5.32638 8.45678 5.299V4.571C8.45678 4.4495 8.36528 4.3585 8.21328 4.328H7.75578C7.63428 4.328 7.54278 4.419 7.51228 4.571V5.269C6.59778 5.39 6.01928 5.997 6.01928 6.756C6.01928 7.757 6.62828 8.1515 7.90828 8.3035C8.76178 8.455 9.03578 8.6375 9.03578 9.123C9.03578 9.608 8.60928 9.942 8.03028 9.942C7.23778 9.942 6.96378 9.6085 6.87228 9.153C6.84228 9.032 6.75028 8.971 6.65878 8.971H6.14078C6.11267 8.97032 6.08471 8.97535 6.05859 8.98578C6.03247 8.99621 6.00874 9.01183 5.98883 9.03169C5.96892 9.05155 5.95324 9.07525 5.94275 9.10134C5.93226 9.12744 5.92717 9.15539 5.92778 9.1835V9.2135C6.04928 9.9725 6.53728 10.5185 7.54278 10.6705V11.399C7.54278 11.52 7.63428 11.6115 7.78628 11.6415H8.24378C8.36528 11.6415 8.45678 11.5505 8.48728 11.399V10.67C9.40178 10.5185 10.0108 9.881 10.0108 9.0615V9.062Z" fill="white"/>
<path d="M6.44566 12.2485C4.06866 11.3985 2.84965 8.7585 3.73365 6.422C4.19065 5.147 5.19616 4.1765 6.44566 3.721C6.56766 3.6605 6.62815 3.5695 6.62815 3.4175V2.9925C6.62815 2.8715 6.56766 2.7805 6.44566 2.75C6.41516 2.75 6.35415 2.75 6.32365 2.78C5.63787 2.99416 5.00122 3.34186 4.45037 3.80309C3.89951 4.26431 3.44533 4.82994 3.11398 5.46741C2.78262 6.10489 2.58064 6.80161 2.51966 7.51746C2.45868 8.23332 2.5399 8.95417 2.75865 9.6385C3.30665 11.3385 4.61715 12.6435 6.32365 13.1895C6.44565 13.25 6.56765 13.1895 6.59765 13.068C6.62815 13.038 6.62815 13.007 6.62815 12.9465V12.5215C6.62815 12.4305 6.53716 12.3095 6.44566 12.2485ZM9.67565 2.7805C9.55365 2.7195 9.43166 2.7805 9.40166 2.9015C9.37116 2.932 9.37115 2.9625 9.37115 3.023V3.448C9.37115 3.5695 9.46215 3.6905 9.55365 3.7515C11.9307 4.6015 13.1497 7.2415 12.2657 9.578C11.8087 10.853 10.8032 11.8235 9.55365 12.279C9.43165 12.3395 9.37115 12.4305 9.37115 12.5825V13.0075C9.37115 13.1285 9.43165 13.2195 9.55365 13.25C9.58415 13.25 9.64515 13.25 9.67565 13.22C10.3614 13.0058 10.9981 12.6581 11.5489 12.1969C12.0998 11.7357 12.554 11.1701 12.8853 10.5326C13.2167 9.89511 13.4187 9.19839 13.4797 8.48254C13.5406 7.76668 13.4594 7.04583 13.2407 6.3615C12.6927 4.6315 11.3517 3.3265 9.67565 2.7805Z" fill="white"/>
</g>
<defs>
<clipPath id="clip0_7_8053">
<rect width="16" height="16" fill="white"/>
</clipPath>
</defs>
</svg>
