<svg width="16" height="16" viewBox="0 0 16 16" fill="none" xmlns="http://www.w3.org/2000/svg">
<circle cx="8" cy="8" r="8" fill="#009393"/>
<path d="M8.00856 8.47217C9.23834 8.47217 10.2662 8.24242 10.5178 7.93561C10.3045 7.67543 9.53287 7.47067 8.55331 7.41443V8.06257C8.37774 8.07265 8.19548 8.07796 8.00856 8.07796C7.82165 8.07796 7.63939 8.07265 7.46382 8.06257V7.41443C6.48425 7.47067 5.71267 7.67543 5.49935 7.93561C5.7509 8.24242 6.77879 8.47217 8.00856 8.47217Z" fill="white"/>
<path fill-rule="evenodd" clip-rule="evenodd" d="M5.17787 4H10.9378C11.0752 4 11.2022 4.08011 11.2707 4.21009L12.9488 7.39223C13.0358 7.55725 13.01 7.76554 12.8859 7.89936L8.26686 12.879C8.11723 13.0403 7.87653 13.0403 7.7269 12.879L3.11415 7.90609C2.98713 7.76916 2.96335 7.55479 3.05675 7.38875L4.8505 4.19988C4.92036 4.07569 5.04432 4 5.17787 4ZM10.1941 5.42071V6.31358H8.55331V6.93263C9.70567 6.99878 10.5702 7.27048 10.5767 7.59615L10.5766 8.27506C10.5702 8.60073 9.70567 8.87243 8.55331 8.93859V10.4578H7.46382V8.93859C6.31146 8.87243 5.44688 8.60073 5.44047 8.27506L5.4405 7.59615C5.44692 7.27048 6.31146 6.99878 7.46382 6.93263V6.31358H5.82305V5.42071H10.1941Z" fill="white"/>
</svg>
