<svg width="16" height="16" viewBox="0 0 16 16" fill="none" xmlns="http://www.w3.org/2000/svg">
<g clip-path="url(#clip0_7_7668)">
<path d="M8 16C12.4183 16 16 12.4183 16 8C16 3.58172 12.4183 0 8 0C3.58172 0 0 3.58172 0 8C0 12.4183 3.58172 16 8 16Z" fill="#30367A"/>
<path d="M7.1765 11.149V4.514H5.25V3H10.75V4.514H8.8235V11.149H7.1765ZM6.733 13C5.7385 13 5.268 12.522 5.268 11.511V4.948H6.715V11.444C6.715 11.604 6.7675 11.657 6.9245 11.657H9.094C9.251 11.657 9.304 11.6035 9.304 11.444V4.948H10.75V11.511C10.75 12.522 10.279 13 9.285 13H6.733Z" fill="white"/>
</g>
<defs>
<clipPath id="clip0_7_7668">
<rect width="16" height="16" fill="white"/>
</clipPath>
</defs>
</svg>
