<svg width="16" height="16" viewBox="0 0 16 16" fill="none" xmlns="http://www.w3.org/2000/svg">
<g clip-path="url(#clip0_7_8013)">
<path d="M8 16C12.4183 16 16 12.4183 16 8C16 3.58172 12.4183 0 8 0C3.58172 0 0 3.58172 0 8C0 12.4183 3.58172 16 8 16Z" fill="#FF9933"/>
<path d="M3 4C3.552 4.001 4.1045 4.001 4.656 4L5.7015 9.59C5.718 9.6725 5.738 9.754 5.7595 9.835C5.8415 9.51 5.893 9.178 5.9615 8.85L6.9135 4L8.5155 4.0005C7.928 6.6165 7.3405 9.233 6.752 11.849H4.7635C4.175 9.2345 3.5875 6.62 3 4.005V4ZM9.157 6.466C9.5055 6.028 10.0625 5.8295 10.5995 5.7945C11.1295 5.7575 11.7005 5.8055 12.1495 6.1215C12.547 6.3995 12.765 6.8695 12.8685 7.337C12.994 7.923 13.0005 8.525 13 9.122H10.065C10.0675 9.5635 10.04 10.019 10.1875 10.442C10.259 10.65 10.3925 10.857 10.6045 10.9325C10.8305 11.006 11.1025 10.958 11.2675 10.776C11.4875 10.527 11.5335 10.178 11.5815 9.8585H12.9135C12.8835 10.3885 12.7855 10.9485 12.4385 11.365C12.0905 11.798 11.5295 11.975 10.9985 11.9965C10.4215 12.0185 9.795 11.94 9.335 11.5515C8.9075 11.195 8.721 10.63 8.647 10.0885C8.573 9.465 8.569 8.834 8.6035 8.2075C8.65 7.5965 8.7605 6.9495 9.1565 6.4655L9.157 6.466ZM10.294 7.0885C10.067 7.4155 10.061 7.8365 10.065 8.222H11.581C11.5575 7.8555 11.56 7.4685 11.395 7.133C11.19 6.719 10.542 6.7175 10.295 7.089H10.294V7.0885Z" fill="white"/>
</g>
<defs>
<clipPath id="clip0_7_8013">
<rect width="16" height="16" fill="white"/>
</clipPath>
</defs>
</svg>
