<svg width="16" height="16" viewBox="0 0 16 16" fill="none" xmlns="http://www.w3.org/2000/svg">
<g clip-path="url(#clip0_7_7974)">
<path d="M8 16C12.4183 16 16 12.4183 16 8C16 3.58172 12.4183 0 8 0C3.58172 0 0 3.58172 0 8C0 12.4183 3.58172 16 8 16Z" fill="#15BDFF"/>
<path d="M7.36907 12.367L3.52007 4.523C3.50603 4.4941 3.49955 4.46212 3.50124 4.43004C3.50292 4.39796 3.51271 4.36683 3.52969 4.33956C3.54667 4.31229 3.57029 4.28978 3.59834 4.27411C3.62638 4.25845 3.65794 4.25015 3.69007 4.25H5.02407C5.09557 4.25 5.16257 4.29 5.19407 4.353L8.00507 10.0435C8.25507 10.5535 8.98057 10.5535 9.23107 10.0435L12.0331 4.3575C12.0492 4.32638 12.0736 4.30031 12.1036 4.28214C12.1336 4.26398 12.168 4.25441 12.2031 4.2545H12.3691C12.4676 4.2545 12.5301 4.3575 12.4856 4.4425L8.59557 12.3675C8.34507 12.8775 7.62007 12.8775 7.36907 12.3675V12.367Z" fill="white"/>
</g>
<defs>
<clipPath id="clip0_7_7974">
<rect width="16" height="16" fill="white"/>
</clipPath>
</defs>
</svg>
