<svg width="16" height="16" viewBox="0 0 16 16" fill="none" xmlns="http://www.w3.org/2000/svg">
<g clip-path="url(#clip0_7_7667)">
<path d="M8 16C12.4183 16 16 12.4183 16 8C16 3.58172 12.4183 0 8 0C3.58172 0 0 3.58172 0 8C0 12.4183 3.58172 16 8 16Z" fill="#565656"/>
<path d="M5.5665 7.148H4.0025V6.2885H5.2375L4.29 3.8135L5.072 3.5L6.847 8.1335L9.1475 8.1485L10.928 3.5L11.7105 3.8135L10.7625 6.2885H11.9975V7.1485H10.4335L10.048 8.1535L12 8.166L11.995 9.0255L9.72 9.011L8 13.5L6.272 8.9895L4 8.9745L4.005 8.1155L5.942 8.128L5.5665 7.148ZM7.1765 8.995L8 11.144L8.819 9.0055L7.1765 8.995Z" fill="white"/>
</g>
<defs>
<clipPath id="clip0_7_7667">
<rect width="16" height="16" fill="white"/>
</clipPath>
</defs>
</svg>
