<svg width="16" height="16" viewBox="0 0 16 16" fill="none" xmlns="http://www.w3.org/2000/svg">
<g clip-path="url(#clip0_7_8062)">
<path d="M8 16C12.4183 16 16 12.4183 16 8C16 3.58172 12.4183 0 8 0C3.58172 0 0 3.58172 0 8C0 12.4183 3.58172 16 8 16Z" fill="#338BE5"/>
<path d="M11.3148 8.459C11.6798 8.557 12.0398 8.6705 12.3638 8.87C12.5078 8.9585 12.6423 9.0625 12.7638 9.1795C12.9438 9.3795 12.9318 9.5905 12.7678 9.802C12.6238 9.986 12.4278 10.1035 12.2193 10.2015C11.6913 10.456 11.1313 10.601 10.5593 10.687C10.0948 10.757 9.6228 10.797 9.1543 10.8555C9.13228 10.8602 9.11141 10.8692 9.09287 10.882C9.07434 10.8948 9.05851 10.9111 9.0463 10.93C8.7183 11.419 8.3943 11.9085 8.0663 12.398C8.03996 12.4303 8.0159 12.4644 7.9943 12.5C7.64788 11.9802 7.30504 11.458 6.9658 10.9335C6.95151 10.9089 6.9311 10.8885 6.90658 10.8741C6.88205 10.8597 6.85422 10.852 6.8258 10.8515C5.8893 10.785 4.9653 10.6635 4.0808 10.3465C3.8008 10.2485 3.5328 10.127 3.3008 9.943C3.2883 9.931 3.2723 9.923 3.2608 9.9115C2.9208 9.626 2.9123 9.3205 3.2408 9.0265C3.5008 8.7915 3.8208 8.6585 4.1528 8.5565C4.4848 8.4545 4.8208 8.3805 5.1573 8.2945C5.1733 8.2905 5.1893 8.2905 5.2173 8.2825C4.4928 7.1745 3.7768 6.078 3.0443 4.966C3.0883 4.962 3.1203 4.958 3.1483 4.958C3.6008 4.954 4.0528 4.958 4.5048 4.954C4.53676 4.95208 4.56858 4.95959 4.59631 4.97558C4.62404 4.99158 4.64647 5.01537 4.6608 5.044C5.7558 6.714 6.8498 8.3845 7.9423 10.0565C7.95834 10.0844 7.9771 10.1107 7.9983 10.135C8.2503 9.755 8.4943 9.391 8.7343 9.0265C9.6143 7.6965 10.4948 6.368 11.3753 5.0405C11.4073 4.9935 11.4313 4.958 11.5033 4.958C11.9793 4.962 12.4558 4.962 12.9318 4.962C12.9543 4.962 12.9768 4.963 12.9998 4.966C12.2569 6.08692 11.5125 7.20692 10.7668 8.326C10.9553 8.3725 11.1353 8.412 11.3153 8.459H11.3148ZM4.4488 9.399C4.5418 9.5025 4.6513 9.5915 4.7728 9.661C5.2728 9.9275 5.8253 10.025 6.3978 10.111C6.3898 10.084 6.3898 10.072 6.3858 10.0645C6.0613 9.5745 5.7413 9.0815 5.4173 8.592C5.4043 8.57923 5.38846 8.56972 5.37108 8.56425C5.3537 8.55878 5.33527 8.55749 5.3173 8.5605C5.1273 8.623 4.9413 8.6975 4.7608 8.784C4.64396 8.84838 4.53963 8.93322 4.4528 9.0345C4.40427 9.08238 4.37662 9.1475 4.37587 9.21568C4.37512 9.28385 4.40133 9.35006 4.4488 9.399ZM10.7508 9.8215C10.9688 9.76262 11.1684 9.64943 11.3308 9.4925C11.4913 9.3325 11.4913 9.152 11.3308 8.9875C11.2911 8.94456 11.2455 8.90752 11.1953 8.8775C11.0233 8.7915 10.8433 8.7095 10.6668 8.6235C10.6068 8.592 10.5708 8.6155 10.5348 8.6705C10.3468 8.9605 10.1548 9.2455 9.9628 9.532C9.8428 9.712 9.7228 9.896 9.5988 10.084C9.63068 10.088 9.66293 10.088 9.6948 10.084C10.0468 9.998 10.4028 9.9195 10.7508 9.8215ZM10.7548 4.5L8.0143 8.866L5.2373 4.5H10.7548Z" fill="white"/>
</g>
<defs>
<clipPath id="clip0_7_8062">
<rect width="16" height="16" fill="white"/>
</clipPath>
</defs>
</svg>
