<svg width="16" height="16" viewBox="0 0 16 16" fill="none" xmlns="http://www.w3.org/2000/svg">
<g clip-path="url(#clip0_7_8020)">
<path d="M8 16C12.4183 16 16 12.4183 16 8C16 3.58172 12.4183 0 8 0C3.58172 0 0 3.58172 0 8C0 12.4183 3.58172 16 8 16Z" fill="#408AF1"/>
<path d="M11.5244 5.13848C11.5777 5.04791 11.6486 4.96893 11.7329 4.9062C11.8172 4.84348 11.9132 4.79826 12.0153 4.77324C12.1173 4.74821 12.2234 4.74388 12.3271 4.76049C12.4309 4.77711 12.5303 4.81433 12.6194 4.86997C12.9944 5.10497 13.1124 5.60497 12.8824 5.98847C12.0304 7.40747 11.0689 8.89247 10.2674 10.0265C9.09741 11.6815 8.84391 12.25 7.99991 12.25C7.15591 12.25 6.96591 11.7485 5.76241 10.022C5.04741 8.99697 4.15091 7.62448 3.12741 6.00398C3.01276 5.82261 2.97343 5.60365 3.01779 5.39372C3.06215 5.18379 3.18669 4.99946 3.36491 4.87997C3.45269 4.82218 3.55116 4.78256 3.6545 4.76346C3.75785 4.74436 3.86397 4.74617 3.96661 4.76878C4.06924 4.79138 4.16631 4.83433 4.25207 4.89508C4.33782 4.95583 4.41054 5.03315 4.46591 5.12247C5.47741 6.72347 7.76241 10.0605 8.00641 10.358C8.26141 10.056 10.6924 6.52447 11.5244 5.13797V5.13848Z" fill="white"/>
</g>
<defs>
<clipPath id="clip0_7_8020">
<rect width="16" height="16" fill="white"/>
</clipPath>
</defs>
</svg>
