<svg width="16" height="16" viewBox="0 0 16 16" fill="none" xmlns="http://www.w3.org/2000/svg">
<g clip-path="url(#clip0_7_8108)">
<path d="M8 16C12.4183 16 16 12.4183 16 8C16 3.58172 12.4183 0 8 0C3.58172 0 0 3.58172 0 8C0 12.4183 3.58172 16 8 16Z" fill="#418BCA"/>
<path d="M10.1325 4H12.5L8 13L3.5 4H5.852L8.0155 8.5565L10.1325 4ZM8 6.4795C7.606 6.4795 7.2865 6.1515 7.2865 5.747C7.2865 5.3425 7.606 5.014 8 5.014C8.394 5.014 8.7135 5.3425 8.7135 5.747C8.7135 6.1515 8.3935 6.4795 8 6.4795ZM11.2325 8.4995C11.6265 8.4995 11.946 8.828 11.9455 9.2325C11.9455 9.6375 11.6265 9.965 11.2325 9.965C10.8385 9.965 10.519 9.637 10.519 9.2325C10.519 8.828 10.8385 8.4995 11.2325 8.4995Z" fill="white"/>
</g>
<defs>
<clipPath id="clip0_7_8108">
<rect width="16" height="16" fill="white"/>
</clipPath>
</defs>
</svg>
