<svg width="16" height="16" viewBox="0 0 16 16" fill="none" xmlns="http://www.w3.org/2000/svg">
<g clip-path="url(#clip0_7_7836)">
<path d="M8 16C12.4183 16 16 12.4183 16 8C16 3.58172 12.4183 0 8 0C3.58172 0 0 3.58172 0 8C0 12.4183 3.58172 16 8 16Z" fill="#3165D4"/>
<path fill-rule="evenodd" clip-rule="evenodd" d="M4.42294 3.71405C4.69844 3.47755 5.08494 3.28405 5.42094 3.42055C6.02594 3.66555 7.64894 6.94255 7.64894 6.94255C7.64894 6.94255 9.92044 3.71255 10.7359 3.41855C11.0144 3.31805 11.3959 3.49455 11.6869 3.71255C12.7079 4.47655 12.8134 5.54255 12.7254 5.83855C12.6144 6.21055 6.97294 13.3751 6.97294 13.3751C6.80394 13.3061 3.46144 7.09655 3.28044 6.03405C3.10744 5.01855 3.69644 4.32855 4.42294 3.71405Z" fill="white"/>
</g>
<defs>
<clipPath id="clip0_7_7836">
<rect width="16" height="16" fill="white"/>
</clipPath>
</defs>
</svg>
