<svg width="16" height="16" viewBox="0 0 16 16" fill="none" xmlns="http://www.w3.org/2000/svg">
<g clip-path="url(#clip0_7_7884)">
<path d="M8 16C12.4183 16 16 12.4183 16 8C16 3.58172 12.4183 0 8 0C3.58172 0 0 3.58172 0 8C0 12.4183 3.58172 16 8 16Z" fill="#048657"/>
<path d="M1.31641 8.28499L2.29141 7.17449H5.76041L7.89191 9.89349L13.4694 2.16699C13.8118 2.47599 14.1233 2.8176 14.3994 3.18699C14.6872 3.56984 14.9377 3.97938 15.1474 4.40999L8.29991 13.8815C8.17041 14.0175 8.03441 14.0855 7.89191 14.0855C7.74891 14.0855 7.60541 14.0175 7.46091 13.8815L3.13041 8.28449L1.31641 8.28499Z" fill="white"/>
</g>
<defs>
<clipPath id="clip0_7_7884">
<rect width="16" height="16" fill="white"/>
</clipPath>
</defs>
</svg>
