<svg width="16" height="16" viewBox="0 0 16 16" fill="none" xmlns="http://www.w3.org/2000/svg">
<g clip-path="url(#clip0_7_7718)">
<path d="M8 16C12.4183 16 16 12.4183 16 8C16 3.58172 12.4183 0 8 0C3.58172 0 0 3.58172 0 8C0 12.4183 3.58172 16 8 16Z" fill="#399B32"/>
<path d="M10.945 3.73404C10.891 3.95104 10.9005 4.22904 10.9605 4.25404C11.0205 4.27954 11.1715 4.13604 11.26 3.97304C11.345 3.82304 11.4205 3.77854 11.525 3.81704C11.6635 3.87104 11.6415 3.91904 11.3575 4.16454C11.1215 4.36904 11.074 4.44254 11.1375 4.50604C11.175 4.54454 11.203 4.53804 11.3385 4.46454C11.5085 4.37554 11.6035 4.38154 11.6035 4.48404C11.6035 4.53154 11.5405 4.57004 11.3105 4.65904C11.1465 4.72304 10.9855 4.80604 10.948 4.84754C10.8725 4.93054 10.74 5.19254 10.5825 5.57854C10.447 5.91354 10.3175 6.15954 10.2325 6.25504C10.163 6.33154 9.93 6.38004 9.4385 6.41804C9.2085 6.43704 9.18 6.43404 9.1675 6.37954C9.13208 6.23097 9.10372 6.0808 9.0825 5.92954C9.0825 5.92004 9.199 5.92304 9.344 5.93304C9.6025 5.95204 9.8605 6.02204 9.9805 6.10504C10.072 6.16904 10.0815 6.15954 10.1225 5.98054C10.1725 5.77654 10.28 5.50854 10.4435 5.17654C10.5665 4.93054 10.57 4.91154 10.557 4.67854C10.5415 4.42004 10.497 4.30854 10.343 4.13904C10.286 4.07904 10.2515 4.01154 10.261 3.98604C10.269 3.96644 10.2754 3.9462 10.28 3.92554C10.28 3.91904 10.308 3.91254 10.34 3.91254C10.3775 3.91254 10.4435 3.97004 10.5035 4.05604C10.6705 4.29254 10.721 4.24754 10.721 3.85504C10.721 3.67654 10.7335 3.60004 10.7745 3.55504C10.8375 3.48504 10.888 3.48204 10.9415 3.54554C10.973 3.58404 10.973 3.62554 10.945 3.73404ZM8.4395 5.07104C8.4615 5.30754 8.5055 5.39004 8.6475 5.44104C8.704 5.46354 8.7825 5.49604 8.8205 5.50854C8.912 5.54654 8.9375 5.68354 9.035 6.57754C9.139 7.54754 9.161 7.68504 9.259 7.98504C9.407 8.44104 9.394 8.97104 9.221 9.50404C9.1325 9.77854 9.035 9.90304 8.8335 10.0115C8.43 10.225 8.0135 10.069 7.6895 9.58354C7.4485 9.23354 7.3595 8.79854 7.4435 8.38054C7.491 8.15704 7.516 7.81904 7.4935 7.73554C7.4845 7.69454 7.3835 7.56704 7.27 7.44554C6.917 7.07854 6.545 6.42104 6.618 6.30304C6.64 6.27104 6.6555 6.17204 6.6555 6.08604C6.6555 5.91054 6.6055 5.84004 6.3845 5.71604C6.2395 5.63304 6.23 5.55004 6.35 5.32004C6.416 5.18604 6.454 5.15754 6.785 4.98804C7.122 4.81604 7.2735 4.76804 7.7745 4.67854C7.9825 4.64004 8.1335 4.64354 8.247 4.69154C8.3795 4.74904 8.417 4.82154 8.4395 5.07104ZM5.458 6.26154C5.458 6.42404 5.5115 6.58404 5.5495 6.54254C5.5655 6.52654 5.5995 6.43704 5.6315 6.34454C5.6815 6.18454 5.7735 6.08954 5.8365 6.13054C5.89 6.16554 5.871 6.35054 5.8015 6.46554C5.707 6.62204 5.707 6.91904 5.805 7.11704C5.9025 7.30854 6.104 7.51904 6.1925 7.51904C6.246 7.51554 6.309 7.43904 6.4825 7.14254L6.7025 6.76904L6.7375 6.99254C6.7725 7.24454 6.7565 7.32104 6.6145 7.56704C6.457 7.84454 6.2805 8.06154 6.2145 8.06154C6.139 8.06154 5.9685 7.89254 5.8235 7.67554C5.767 7.58554 5.6095 7.41354 5.477 7.28904L5.2345 7.06254L5.0865 7.08804C4.99591 7.10496 4.90412 7.11466 4.812 7.11704C4.6985 7.12004 4.686 7.11354 4.677 7.03404C4.667 6.96404 4.683 6.94154 4.749 6.92554C4.82086 6.91288 4.89427 6.9117 4.9665 6.92204C5.0545 6.93504 5.121 6.92854 5.1555 6.90304C5.209 6.86454 5.206 6.85804 5.1525 6.79454C5.121 6.75604 5.0265 6.70504 4.938 6.67654C4.718 6.60654 4.5755 6.51054 4.5755 6.43704C4.5755 6.34154 4.6955 6.31904 4.793 6.39854C5.118 6.66704 5.209 6.70504 5.2945 6.61854C5.3545 6.55854 5.3385 6.44354 5.2375 6.24254C5.1495 6.06354 5.1175 5.89754 5.165 5.85004C5.1965 5.81504 5.2785 5.82454 5.335 5.86904C5.4015 5.92304 5.458 6.09904 5.458 6.26154ZM11.222 9.13654C11.1435 9.22004 10.9165 9.48504 10.718 9.72404C10.1315 10.4325 10.072 10.509 10.097 10.535C10.122 10.56 10.62 10.34 10.7335 10.254C10.8755 10.142 11.1335 9.86804 11.181 9.77504C11.203 9.73704 11.2345 9.61904 11.257 9.51654C11.2945 9.32504 11.3985 9.17854 11.493 9.17854C11.556 9.17854 11.5845 9.25204 11.5595 9.34754C11.5165 9.45545 11.4638 9.55921 11.402 9.65754C11.323 9.78804 11.2695 9.90604 11.2755 9.91904C11.307 9.96654 11.424 9.94404 11.5595 9.86454C11.638 9.81954 11.7515 9.70204 11.8365 9.58054C12.0035 9.34454 12.117 9.24254 12.218 9.24254C12.303 9.24254 12.404 9.35104 12.382 9.41454C12.372 9.44004 12.227 9.56454 12.0635 9.68954C11.78 9.90304 11.6915 10.0145 11.742 10.0975C11.7705 10.1455 12.032 10.0815 12.3095 9.95754C12.782 9.74354 12.9115 9.73054 12.987 9.87404C13.05 9.99254 12.8955 10.0655 12.2905 10.1995C12.1235 10.238 11.9405 10.2985 11.884 10.3335L11.78 10.3975L11.8525 10.458C11.9155 10.5095 11.9815 10.519 12.2935 10.519C12.574 10.519 12.6785 10.5315 12.7255 10.5665C12.7855 10.6145 12.782 10.618 12.694 10.6975C12.637 10.7455 12.584 10.771 12.552 10.758C12.4135 10.7005 11.944 10.6145 11.7735 10.6145C11.468 10.6145 11.4425 10.7265 11.72 10.8345C11.846 10.886 11.8935 10.9435 11.868 11.0105C11.84 11.087 11.764 11.074 11.49 10.9465C10.935 10.688 10.8345 10.675 10.17 10.7615C9.8545 10.803 9.763 10.8065 9.7285 10.774C9.659 10.7165 9.6715 10.6625 9.7695 10.5765C9.848 10.5095 10.4565 9.37654 10.428 9.35104C10.412 9.33504 9.798 9.55504 9.353 9.74004C9.2965 9.76254 9.2965 9.75954 9.353 9.67004C9.5615 9.32854 10.163 8.94504 10.863 8.70604C11.2255 8.58154 11.2475 8.57854 11.3985 8.58154C11.4995 8.58804 11.528 8.60104 11.534 8.65154C11.544 8.73154 11.4175 8.92954 11.222 9.13654ZM3.996 10.264C4.1125 10.43 4.3805 10.711 4.421 10.711C4.4625 10.711 4.4275 10.433 4.352 10.1425C4.2825 9.87754 4.2765 9.75004 4.33 9.69604C4.371 9.65454 4.51 9.64504 4.5665 9.68304C4.5885 9.69604 4.6135 9.87804 4.6325 10.1525C4.6675 10.6535 4.6925 10.746 4.815 10.8255C4.894 10.88 4.9 10.88 4.938 10.829C4.957 10.8 4.979 10.682 4.9825 10.564C4.9915 10.248 5.0675 10.1075 5.2025 10.1525C5.307 10.184 5.3165 10.315 5.2375 10.564C5.146 10.854 5.1305 11.065 5.1715 11.349C5.2315 11.7355 5.3765 12.08 5.4485 12.0065C5.4645 11.994 5.4735 11.563 5.477 11.0525C5.48 10.2545 5.4865 10.095 5.534 9.94504C5.622 9.67004 5.641 9.65754 5.9875 9.65754C6.558 9.65754 7.617 9.81104 7.7585 9.91254C7.91 10.0215 7.8785 10.06 7.579 10.1555C6.9265 10.3565 6.6085 10.395 6.2145 10.3185C6.0855 10.2925 5.9685 10.277 5.956 10.2835C5.9435 10.2895 5.956 10.363 5.981 10.446C6.06 10.7045 6.038 10.864 5.852 11.432C5.7545 11.7225 5.663 12.061 5.6505 12.182C5.638 12.3035 5.603 12.4245 5.584 12.45C5.502 12.549 5.411 12.5045 5.2625 12.297C5.077 12.042 4.7835 11.761 4.6135 11.6715C4.541 11.633 4.3015 11.563 4.084 11.5115C3.6935 11.4225 3.5675 11.3615 3.6145 11.2855C3.6305 11.2565 3.6995 11.2535 3.851 11.266C4.128 11.295 4.1505 11.2565 3.9645 11.081C3.76168 10.901 3.52926 10.7574 3.2775 10.6565C3.041 10.561 3 10.529 3 10.4525C3 10.3915 3.088 10.3275 3.1735 10.3275C3.2015 10.3275 3.328 10.414 3.4505 10.5225C3.709 10.7425 3.8885 10.848 3.9865 10.8325C4.1665 10.8065 3.9515 10.3885 3.6145 10.1075C3.4915 10.0055 3.372 9.88104 3.3465 9.83304C3.3055 9.75304 3.3055 9.74404 3.3625 9.70254C3.4148 9.67213 3.47524 9.65868 3.5355 9.66404C3.6335 9.67404 3.6555 9.69304 3.772 9.89704C3.8415 10.0215 3.942 10.187 3.996 10.264ZM8.515 4.78404C8.676 4.75904 8.71 4.88954 8.71 4.88654C8.7955 5.10654 8.745 5.38154 8.745 5.38154C8.6315 5.35904 8.5465 5.21854 8.5465 5.21854C8.4805 5.06204 8.515 4.78454 8.515 4.78454V4.78404ZM6.243 5.69404C6.243 5.69404 6.4855 5.82804 6.577 5.97154C6.577 5.97154 6.64 6.12154 6.5925 6.23004C6.5925 6.23004 6.3405 6.11204 6.2145 5.91404C6.2145 5.91754 6.1325 5.81204 6.243 5.69404Z" fill="white"/>
</g>
<defs>
<clipPath id="clip0_7_7718">
<rect width="16" height="16" fill="white"/>
</clipPath>
</defs>
</svg>
