<svg width="16" height="16" viewBox="0 0 16 16" fill="none" xmlns="http://www.w3.org/2000/svg">
<g clip-path="url(#clip0_7_8032)">
<path d="M8 16C12.4183 16 16 12.4183 16 8C16 3.58172 12.4183 0 8 0C3.58172 0 0 3.58172 0 8C0 12.4183 3.58172 16 8 16Z" fill="#136AAD"/>
<path fill-rule="evenodd" clip-rule="evenodd" d="M3.5 5.545L4.8335 6.11V9.2865L8 7.393L11.197 9.2865V6.11L12.5 5.545V11.532L8 8.8745L3.5 11.532V5.545ZM3.6515 5.3005L8 2.75L12.379 5.3005L11.197 5.7895L8 3.9415L4.8335 5.7895L3.6515 5.3005ZM4.591 11.211L5.576 10.646L8.015 12.0585L10.424 10.646L11.439 11.211L8.015 13.25L4.591 11.211Z" fill="white"/>
</g>
<defs>
<clipPath id="clip0_7_8032">
<rect width="16" height="16" fill="white"/>
</clipPath>
</defs>
</svg>
