<svg width="16" height="16" viewBox="0 0 16 16" fill="none" xmlns="http://www.w3.org/2000/svg">
<g clip-path="url(#clip0_7_7663)">
<path d="M8 16C12.4183 16 16 12.4183 16 8C16 3.58172 12.4183 0 8 0C3.58172 0 0 3.58172 0 8C0 12.4183 3.58172 16 8 16Z" fill="#F89022"/>
<path fill-rule="evenodd" clip-rule="evenodd" d="M14 9.481H12.818L11.9795 8.763L11.144 9.478H10.145L9.6675 8.898H8.0215L8.438 8.3835H9.2475L8.631 7.6295L6.4785 10.25H5.48L6.103 9.489H5.0625L4.5 7.912L3.942 9.477H2.8865L2 7.0205H2.81L3.406 8.6935L4 7.028H5L5.5925 8.69L6.1845 7.0275H6.997L6.103 9.489L6.302 9.246L8.128 7.0235H9.133L10.6525 8.8775L11.3835 8.249L9.07 6.25H10.2575L14 9.481ZM12.8275 7.995L12.27 7.517L12.8265 7.043L13.9515 7.044L12.8275 7.995Z" fill="white"/>
</g>
<defs>
<clipPath id="clip0_7_7663">
<rect width="16" height="16" fill="white"/>
</clipPath>
</defs>
</svg>
