<?xml version="1.0" standalone="no"?>
<!DOCTYPE svg PUBLIC "-//W3C//DTD SVG 20010904//EN"
 "http://www.w3.org/TR/2001/REC-SVG-20010904/DTD/svg10.dtd">
<svg version="1.0" xmlns="http://www.w3.org/2000/svg"
 width="250.000000pt" height="250.000000pt" viewBox="0 0 250.000000 250.000000"
 preserveAspectRatio="xMidYMid meet">

<g transform="translate(0.000000,250.000000) scale(0.100000,-0.100000)"
fill="#000000" stroke="none">
<path d="M1120 2493 c-282 -29 -578 -175 -773 -382 -369 -391 -450 -955 -206
-1431 314 -613 1064 -854 1679 -539 683 350 891 1238 433 1851 -32 42 -59 75
-60 74 -2 -2 -104 -252 -228 -556 -124 -305 -232 -564 -241 -577 -37 -58 -131
-81 -194 -48 -15 8 -74 76 -131 150 -56 75 -106 132 -110 128 -5 -5 -65 -147
-134 -317 -69 -170 -133 -318 -142 -329 -29 -32 -69 -47 -124 -47 -46 0 -55 4
-88 38 -24 24 -102 160 -220 385 -177 336 -183 350 -179 396 6 63 37 105 93
126 58 23 106 13 151 -28 21 -20 72 -105 133 -222 l100 -189 21 49 c12 28 64
156 116 285 53 129 102 245 110 258 38 59 138 81 199 44 17 -10 75 -78 129
-150 55 -73 102 -132 105 -132 3 0 93 214 199 476 182 449 192 477 175 490
-10 8 -72 41 -138 74 -206 103 -447 147 -675 123z"/>
</g>
</svg>
