<svg width="16" height="16" viewBox="0 0 16 16" fill="none" xmlns="http://www.w3.org/2000/svg">
<g clip-path="url(#clip0_7_7662)">
<path d="M8 16C12.4183 16 16 12.4183 16 8C16 3.58172 12.4183 0 8 0C3.58172 0 0 3.58172 0 8C0 12.4183 3.58172 16 8 16Z" fill="#201A2D"/>
<path d="M11.4093 4.79297L11.1093 5.09297C11.8252 5.8758 12.2222 6.89819 12.2222 7.95897C12.2222 9.01976 11.8252 10.0421 11.1093 10.825L11.4093 11.125C12.2054 10.2615 12.6474 9.12997 12.6474 7.95547C12.6474 6.78098 12.2054 5.64949 11.4093 4.78597V4.79297ZM5.10034 4.81897C5.88317 4.10312 6.90555 3.70615 7.96634 3.70615C9.02712 3.70615 10.0495 4.10312 10.8323 4.81897L11.1323 4.51897C10.2688 3.72287 9.13733 3.28088 7.96284 3.28088C6.78834 3.28088 5.65686 3.72287 4.79334 4.51897L5.10034 4.81897ZM4.81934 10.828C4.10434 10.0453 3.70788 9.02355 3.70788 7.96347C3.70788 6.90339 4.10434 5.88163 4.81934 5.09897L4.51934 4.79897C3.72324 5.66249 3.28125 6.79398 3.28125 7.96847C3.28125 9.14297 3.72324 10.2745 4.51934 11.138L4.81934 10.828ZM10.8283 11.105C10.0455 11.8208 9.02312 12.2178 7.96234 12.2178C6.90155 12.2178 5.87917 11.8208 5.09634 11.105L4.79634 11.405C5.65986 12.2011 6.79134 12.6431 7.96584 12.6431C9.14033 12.6431 10.2718 12.2011 11.1353 11.405L10.8283 11.105ZM9.85734 6.96197C9.79734 6.33597 9.25734 6.12597 8.57434 6.06197V5.19997H8.04634V6.04597H7.62434V5.19997H7.10034V6.06797H6.02934V6.63297C6.02934 6.63297 6.41934 6.62597 6.41334 6.63297C6.48366 6.62523 6.55423 6.6451 6.6102 6.68838C6.66616 6.73165 6.70314 6.79497 6.71334 6.86497V9.24097C6.71183 9.26566 6.7054 9.2898 6.6944 9.31195C6.68341 9.33411 6.66809 9.35384 6.64934 9.36997C6.63094 9.38641 6.60941 9.39896 6.58604 9.40686C6.56267 9.41477 6.53794 9.41787 6.51334 9.41597C6.52034 9.42197 6.12934 9.41597 6.12934 9.41597L6.02934 10.047H7.09034V10.929H7.61834V10.06H8.04034V10.925H8.56934V10.053C9.46134 9.99897 10.0833 9.77897 10.1613 8.94397C10.2243 8.27197 9.90834 7.97197 9.40334 7.85097C9.71034 7.69997 9.90034 7.41997 9.85734 6.96197ZM9.11734 8.83997C9.11734 9.49597 7.99334 9.42097 7.63534 9.42097V8.25697C7.99334 8.25797 9.11734 8.15497 9.11734 8.83997ZM8.87234 7.19997C8.87234 7.79997 7.93434 7.72697 7.63634 7.72697V6.66897C7.93434 6.66897 8.87234 6.57497 8.87234 7.19997Z" fill="white"/>
<path d="M7.962 13.426C4.945 13.4255 2.5 10.9795 2.5 7.9625C2.5 4.946 4.946 2.5 7.9625 2.5C10.9795 2.5 13.4255 4.945 13.426 7.962C13.4261 8.67958 13.2849 9.39016 13.0103 10.0531C12.7358 10.7161 12.3333 11.3185 11.8259 11.8259C11.3185 12.3333 10.7161 12.7358 10.0531 13.0103C9.39016 13.2849 8.67958 13.4261 7.962 13.426ZM7.962 2.926C5.1825 2.928 2.931 5.1825 2.932 7.962C2.933 10.7415 5.187 12.994 7.966 12.994C10.7455 12.994 12.999 10.7415 13 7.962C13.0003 7.30042 12.8701 6.64528 12.617 6.03403C12.3639 5.42279 11.9928 4.86743 11.5249 4.39972C11.057 3.932 10.5015 3.5611 9.89012 3.30823C9.27877 3.05536 8.62358 2.92547 7.962 2.926Z" fill="white"/>
</g>
<defs>
<clipPath id="clip0_7_7662">
<rect width="16" height="16" fill="white"/>
</clipPath>
</defs>
</svg>
