<svg width="16" height="16" viewBox="0 0 16 16" fill="none" xmlns="http://www.w3.org/2000/svg">
<g clip-path="url(#clip0_7_8096)">
<path d="M8 16C12.4183 16 16 12.4183 16 8C16 3.58172 12.4183 0 8 0C3.58172 0 0 3.58172 0 8C0 12.4183 3.58172 16 8 16Z" fill="#B80000"/>
<path d="M12.9464 5.6935C13.0244 5.826 13.0139 5.965 12.9364 6.101C12.8204 6.286 12.7134 6.4745 12.6029 6.661C12.2999 7.179 11.9969 7.697 11.6929 8.215C11.0862 9.24568 10.4789 10.276 9.87094 11.306C9.83689 11.3693 9.78513 11.4213 9.722 11.4557C9.65887 11.49 9.58709 11.5053 9.51544 11.4995C9.36194 11.4925 9.25294 11.4165 9.18044 11.284C9.10594 11.1515 9.02844 11.0205 8.95044 10.8885C8.69544 10.4525 8.43944 10.0175 8.18394 9.583C8.12694 9.4845 8.06844 9.388 8.00294 9.279C7.93894 9.3875 7.87844 9.484 7.82144 9.583L7.05494 10.888C6.97665 11.019 6.89997 11.1511 6.82494 11.284C6.75244 11.4165 6.64394 11.4925 6.48994 11.4995C6.41835 11.5049 6.34672 11.4895 6.28367 11.4552C6.22061 11.4208 6.16879 11.369 6.13444 11.306C5.84594 10.8205 5.56094 10.335 5.27444 9.8475C4.95268 9.30398 4.63201 8.75981 4.31244 8.215C4.00994 7.697 3.70644 7.179 3.40244 6.661C3.29244 6.4745 3.18344 6.286 3.06944 6.101C2.98644 5.965 2.97444 5.826 3.05194 5.6935C3.12794 5.563 3.25044 5.5 3.40794 5.5C4.39194 5.5035 5.37644 5.51 6.36044 5.5015C6.60894 5.5 6.75744 5.595 6.87344 5.802C7.12194 6.2455 7.38644 6.678 7.64194 7.1165C7.74894 7.3015 7.85444 7.488 7.96294 7.673C7.97144 7.6865 7.98544 7.697 7.99794 7.7085C8.01129 7.69898 8.02281 7.68712 8.03194 7.6735C8.13944 7.4885 8.24444 7.3015 8.35344 7.1165C8.61044 6.678 8.87344 6.2435 9.12194 5.802C9.23744 5.595 9.38594 5.5 9.63444 5.502C10.6189 5.51 11.6029 5.5035 12.5874 5.5C12.7479 5.5 12.8704 5.563 12.9464 5.6935ZM7.52494 8.571C7.53457 8.55064 7.53969 8.52844 7.53995 8.50591C7.54021 8.48339 7.5356 8.46108 7.52644 8.4405C7.47644 8.3385 7.41044 8.242 7.35194 8.1415C6.99994 7.5405 6.64744 6.9415 6.29694 6.339C6.26094 6.2775 6.21944 6.2555 6.14694 6.2555C5.49094 6.259 4.83444 6.259 4.17844 6.2605C4.14744 6.2605 4.11644 6.2655 4.07144 6.269C4.87244 7.6355 5.66644 8.992 6.46994 10.362C6.53894 10.247 6.59744 10.155 6.65294 10.06C6.94594 9.565 7.23644 9.0685 7.52494 8.571ZM9.52994 10.362C10.3324 8.992 11.1269 7.6355 11.9299 6.269C11.8834 6.2655 11.8539 6.2605 11.8229 6.2605C11.1664 6.259 10.5104 6.259 9.85444 6.2555C9.78194 6.2555 9.74044 6.2775 9.70444 6.3385C9.35322 6.93976 9.00155 7.54076 8.64944 8.1415C8.59044 8.24 8.52644 8.3365 8.47444 8.4405C8.46509 8.46098 8.46024 8.48323 8.46024 8.50575C8.46024 8.52827 8.46509 8.55052 8.47444 8.571C8.76444 9.068 9.05494 9.5645 9.34694 10.06C9.40194 10.155 9.46094 10.2485 9.52994 10.362Z" fill="white"/>
</g>
<defs>
<clipPath id="clip0_7_8096">
<rect width="16" height="16" fill="white"/>
</clipPath>
</defs>
</svg>
