<svg width="16" height="16" viewBox="0 0 16 16" fill="none" xmlns="http://www.w3.org/2000/svg">
<g clip-path="url(#clip0_7_7660)">
<path d="M8 16C12.4183 16 16 12.4183 16 8C16 3.58172 12.4183 0 8 0C3.58172 0 0 3.58172 0 8C0 12.4183 3.58172 16 8 16Z" fill="#FFE600"/>
<path fill-rule="evenodd" clip-rule="evenodd" d="M1.99609 2.71251C2.39169 2.26367 2.8361 1.86035 3.32109 1.51001L5.54709 9.46901L6.53359 5.25001H8.40359L9.38959 9.46901L10.5581 5.25001H12.4326L12.4501 5.32501L14.4871 12.682C14.1179 13.1929 13.69 13.6585 13.2121 14.0695L11.4936 7.86451L10.5136 11.4035L10.4961 11.4785H8.40309L7.46859 8.01251L6.53359 11.4785H4.44059L4.42309 11.4035L1.99609 2.71251Z" fill="white"/>
</g>
<defs>
<clipPath id="clip0_7_7660">
<rect width="16" height="16" fill="white"/>
</clipPath>
</defs>
</svg>
