<svg width="16" height="16" viewBox="0 0 16 16" fill="none" xmlns="http://www.w3.org/2000/svg">
<g clip-path="url(#clip0_7_8104)">
<path d="M8 16C12.4183 16 16 12.4183 16 8C16 3.58172 12.4183 0 8 0C3.58172 0 0 3.58172 0 8C0 12.4183 3.58172 16 8 16Z" fill="#8200FF"/>
<path fill-rule="evenodd" clip-rule="evenodd" d="M9.207 6.58303L8.867 6.66653C8.56 6.74153 8.345 7.01153 8.345 7.32153V9.59053L7.2215 9.86553C7.13347 9.88778 7.04023 9.87443 6.96198 9.82838C6.88373 9.78233 6.82679 9.70729 6.8035 9.61953C6.79676 9.59272 6.7934 9.56517 6.7935 9.53753V5.76003C6.7935 5.60503 6.901 5.47003 7.0545 5.43203L8.7785 5.01003C8.86653 4.98778 8.95977 5.00113 9.03802 5.04718C9.11627 5.09323 9.17321 5.16827 9.1965 5.25603C9.2035 5.28253 9.2065 5.31003 9.2065 5.33753L9.207 6.58303ZM5.414 6.56203L4.988 6.66653C4.681 6.74153 4.4655 7.01153 4.4655 7.32153V9.61153L3.4285 9.86553C3.34047 9.88778 3.24723 9.87443 3.16898 9.82838C3.09073 9.78233 3.03379 9.70729 3.0105 9.61953C3.00359 9.59274 3.00006 9.5652 3 9.53753V5.76003C3 5.60503 3.1075 5.47003 3.261 5.43203L4.9855 5.01003C5.07353 4.98778 5.16677 5.00113 5.24502 5.04718C5.32327 5.09323 5.38021 5.16827 5.4035 5.25603C5.4105 5.28253 5.4135 5.31003 5.4135 5.33753V6.56253L5.414 6.56203ZM10.8475 5.44253L12.5715 5.02053C12.6595 4.99826 12.7526 5.01154 12.8309 5.05749C12.9091 5.10344 12.9661 5.17837 12.9895 5.26603C12.9965 5.29281 13 5.32036 13 5.34803V9.12603C13 9.28103 12.8925 9.41603 12.739 9.45353L11.0145 9.87553C10.9265 9.8978 10.8334 9.88452 10.7551 9.83857C10.6769 9.79262 10.6199 9.7177 10.5965 9.63003C10.5898 9.60322 10.5864 9.57567 10.5865 9.54803V5.77003C10.5865 5.61503 10.694 5.48003 10.8475 5.44253Z" fill="white"/>
<path opacity="0.504" fill-rule="evenodd" clip-rule="evenodd" d="M6.44855 6.65698V9.53748C6.44855 9.59248 6.45505 9.64748 6.46855 9.70148C6.51166 9.86316 6.61205 10.0037 6.75103 10.0968C6.89001 10.19 7.05812 10.2295 7.22405 10.208V10.6775C7.22405 10.8325 7.11655 10.9675 6.96305 11.005L5.23905 11.427C5.15102 11.4494 5.0577 11.4362 4.97935 11.3902C4.901 11.3443 4.84394 11.2693 4.82055 11.1815C4.8138 11.1547 4.81045 11.1271 4.81055 11.0995V7.32148C4.81055 7.16648 4.91805 7.03148 5.07155 6.99398L6.44855 6.65698ZM10.2415 6.67798V9.54798C10.2415 9.60298 10.2485 9.65798 10.2615 9.71198C10.3545 10.0735 10.729 10.2935 11.0985 10.203L11.1035 10.202V10.677C11.1029 10.753 11.0769 10.8265 11.0296 10.886C10.9823 10.9454 10.9164 10.9873 10.8425 11.005L9.11805 11.427C9.03009 11.4492 8.9369 11.436 8.85866 11.39C8.78043 11.3441 8.72344 11.2691 8.70005 11.1815C8.6933 11.1547 8.68994 11.1271 8.69005 11.0995V7.32148C8.69005 7.16648 8.79755 7.03148 8.95105 6.99398L10.2415 6.67798Z" fill="white"/>
</g>
<defs>
<clipPath id="clip0_7_8104">
<rect width="16" height="16" fill="white"/>
</clipPath>
</defs>
</svg>
