<svg width="16" height="16" viewBox="0 0 16 16" fill="none" xmlns="http://www.w3.org/2000/svg">
<g clip-path="url(#clip0_7_7659)">
<path d="M8 16C12.4183 16 16 12.4183 16 8C16 3.58172 12.4183 0 8 0C3.58172 0 0 3.58172 0 8C0 12.4183 3.58172 16 8 16Z" fill="#3B5998"/>
<path fill-rule="evenodd" clip-rule="evenodd" d="M7.05762 3.005H7.99762V5.946L7.05762 4.9645V3.005Z" fill="white"/>
<path fill-rule="evenodd" clip-rule="evenodd" d="M3.00538 3.99647H5.47988C6.31838 4.87397 7.16038 5.74997 7.99888 6.62947C8.48438 6.12497 8.96838 5.61697 9.45188 5.11097C9.80938 4.74047 10.1654 4.36797 10.5219 3.99597H12.9904C11.8384 5.16097 10.6879 6.32697 9.53538 7.49097C9.41438 7.61247 9.29288 7.73497 9.17438 7.85797C9.20338 7.88897 9.23438 7.91947 9.26038 7.95247L12.6459 11.3755L12.9914 11.7235H11.0764C11.0269 11.7235 10.9774 11.7265 10.9289 11.72C10.7924 11.716 10.6554 11.722 10.5189 11.717C10.2714 11.4615 10.0269 11.2025 9.77938 10.946C9.29288 10.44 8.80838 9.93097 8.32188 9.42397C8.21388 9.31197 8.10838 9.19697 7.99788 9.08797C7.76288 9.33797 7.52188 9.58447 7.28538 9.83447L5.94688 11.2315C5.79088 11.394 5.63688 11.5575 5.47988 11.717C5.34488 11.721 5.20888 11.717 5.07288 11.719C4.99538 11.7285 4.91688 11.722 4.83938 11.724H3.00488L6.63888 8.04897C6.70138 7.98597 6.76338 7.92247 6.82388 7.85797L3.00538 3.99647Z" fill="white"/>
<path fill-rule="evenodd" clip-rule="evenodd" d="M8.00002 9.7655C8.31302 10.097 8.63002 10.425 8.94402 10.7555C8.94602 11.409 8.94402 12.0615 8.94402 12.7155H7.99902C7.99902 11.732 7.99902 10.749 8.00102 9.7655H8.00002Z" fill="white"/>
</g>
<defs>
<clipPath id="clip0_7_7659">
<rect width="16" height="16" fill="white"/>
</clipPath>
</defs>
</svg>
