<svg width="16" height="16" viewBox="0 0 16 16" fill="none" xmlns="http://www.w3.org/2000/svg">
<g clip-path="url(#clip0_7_7658)">
<path d="M8 16C12.4183 16 16 12.4183 16 8C16 3.58172 12.4183 0 8 0C3.58172 0 0 3.58172 0 8C0 12.4183 3.58172 16 8 16Z" fill="#FAA00D"/>
<path d="M12.996 7.2355L8.2615 12.7405L8.049 13L3.0035 7.291L3.0195 7.2845L3 7.2815L4.961 4.003L4.962 4.004L4.961 4H11.088L11.087 4.0035L13 7.235L12.996 7.2355ZM6.428 7.465L5.343 9.302L8.019 12.358L10.7005 9.277L9.6395 7.4595L6.428 7.465ZM5.039 8.955L5.919 7.4655L3.738 7.469L5.039 8.955ZM9.9005 7.032L12.3775 7.028L10.8225 4.424L8.3815 4.429L9.9005 7.032ZM12.286 7.455L10.1495 7.4585L11.006 8.926L12.286 7.455ZM9.3905 7.033L8.045 4.727L6.68 7.037L9.3905 7.033ZM5.191 4.436L3.641 7.0425L6.171 7.038L7.711 4.431L5.191 4.436Z" fill="white"/>
</g>
<defs>
<clipPath id="clip0_7_7658">
<rect width="16" height="16" fill="white"/>
</clipPath>
</defs>
</svg>
