<svg width="16" height="16" viewBox="0 0 16 16" fill="none" xmlns="http://www.w3.org/2000/svg">
<g clip-path="url(#clip0_7_7803)">
<path d="M8 16C12.4183 16 16 12.4183 16 8C16 3.58172 12.4183 0 8 0C3.58172 0 0 3.58172 0 8C0 12.4183 3.58172 16 8 16Z" fill="#F7931A"/>
<path d="M12.9889 9.87704L12.7164 10.9685L11.9889 10.7875L12.2609 9.69554L11.1694 9.42354L11.3509 8.69604L12.4424 8.96804L12.7149 7.87654L13.4424 8.05803L13.1704 9.14954L14.2619 9.42154L14.0804 10.1495L12.9889 9.87704ZM10.3054 6.88004C10.2039 7.55504 9.83591 7.88304 9.34941 8.00004C10.0149 8.35154 10.3519 8.89354 10.0234 9.83854C9.61541 11.012 8.66041 11.116 7.39241 10.8785L7.07741 12.1395L6.33441 11.9545L6.64491 10.7095C6.44701 10.6606 6.24967 10.6094 6.05291 10.556L5.74091 11.806L4.99891 11.621L5.31391 10.357C5.13991 10.3125 4.96391 10.2655 4.78391 10.2205L3.81641 9.97904L4.19041 9.10804C4.19041 9.10804 4.73791 9.25354 4.73041 9.24304C4.94141 9.29454 5.03541 9.15404 5.07291 9.06054L5.56991 7.06654L5.64891 7.08604C5.62367 7.07596 5.59777 7.06761 5.57141 7.06103L5.92641 5.63753C5.93641 5.47603 5.88291 5.27304 5.58141 5.19754C5.59341 5.19004 5.04191 5.06353 5.04191 5.06353L5.24441 4.25154L6.26941 4.50754L6.26841 4.51104C6.42241 4.54954 6.58141 4.58604 6.74341 4.62253L7.05491 3.37354L7.79791 3.55854L7.49241 4.78354C7.69191 4.82854 7.89241 4.87454 8.08741 4.92354L8.39091 3.70704L9.13441 3.89204L8.82291 5.14154C9.76091 5.46654 10.4454 5.95804 10.3054 6.88004ZM8.59191 9.32254C8.83741 8.33754 7.22091 8.09253 6.71691 7.96653L6.30041 9.64004C6.80441 9.76504 8.35791 10.2665 8.59291 9.32203L8.59191 9.32254ZM8.83541 6.87453C9.05841 5.97803 7.70641 5.78604 7.28691 5.68154L6.90841 7.20003C7.32791 7.30503 8.62091 7.73353 8.83541 6.87453Z" fill="white"/>
</g>
<defs>
<clipPath id="clip0_7_7803">
<rect width="16" height="16" fill="white"/>
</clipPath>
</defs>
</svg>
