<svg width="16" height="16" viewBox="0 0 16 16" fill="none" xmlns="http://www.w3.org/2000/svg">
<g clip-path="url(#clip0_7_7657)">
<path d="M8 16C12.4183 16 16 12.4183 16 8C16 3.58172 12.4183 0 8 0C3.58172 0 0 3.58172 0 8C0 12.4183 3.58172 16 8 16Z" fill="#21AF67"/>
<path d="M8 14C4.6865 14 2 11.3135 2 8C2 4.6865 4.6865 2 8 2C11.3135 2 14 4.6865 14 8C14 11.3135 11.3135 14 8 14ZM10.3065 5.8255C10.2185 5.7055 10.075 5.608 9.878 5.532C9.6815 5.4565 9.411 5.4185 9.068 5.4185H8.343L8.9315 3.801L9.324 2.7225C8.9296 2.62409 8.52541 2.57026 8.119 2.562C8.079 2.562 8.039 2.559 7.999 2.559C7.93764 2.55941 7.87629 2.56108 7.815 2.564C4.9005 2.661 2.559 5.061 2.559 8C2.559 9.5665 3.235 11.0565 4.414 12.087L4.8405 10.9145C4.10577 10.1218 3.69769 9.08081 3.698 8C3.698 5.836 5.304 4.0415 7.3865 3.7425C7.4895 3.7275 7.596 3.7175 7.7015 3.7085L6.1305 8.0255L9.265 7.717C9.26339 7.71619 9.26172 7.71553 9.26 7.715C9.3575 7.6835 9.451 7.642 9.54 7.59C9.76882 7.45871 9.97002 7.28433 10.1325 7.0765C10.2215 6.9615 10.2925 6.8325 10.3415 6.695C10.3965 6.548 10.428 6.393 10.4345 6.2365C10.4407 6.08881 10.3955 5.94355 10.3065 5.8255ZM8.9695 6.878C8.901 7.064 8.7945 7.195 8.647 7.2705C8.50887 7.34407 8.355 7.38318 8.1985 7.3845H7.6335L8.0125 6.3425H8.5775C8.645 6.3425 8.7125 6.351 8.7775 6.3685C8.83705 6.38259 8.89209 6.41148 8.9375 6.4525C8.98178 6.49657 9.0086 6.55518 9.013 6.6175C9.01873 6.70652 9.00384 6.79567 8.9695 6.878ZM9.6 2.799L9.2095 3.8725C9.77169 4.03684 10.2944 4.31426 10.7456 4.68777C11.1967 5.06127 11.5669 5.52298 11.8333 6.04459C12.0997 6.56621 12.2568 7.13674 12.295 7.72121C12.3331 8.30569 12.2514 8.89179 12.055 9.4436C11.8586 9.9954 11.5516 10.5013 11.1528 10.9302C10.7539 11.3592 10.2717 11.7022 9.73563 11.9381C9.19956 12.1741 8.62093 12.2981 8.03523 12.3026C7.44953 12.307 6.8691 12.1918 6.3295 11.964C6.24169 11.9264 6.15514 11.8858 6.07 11.8425L6.516 10.62H7.24C7.896 10.62 8.434 10.509 8.855 10.286C9.2755 10.0635 9.575 9.708 9.7535 9.219C9.819 9.038 9.8435 8.879 9.824 8.742C9.80966 8.61728 9.76837 8.49718 9.703 8.39C9.64426 8.29593 9.56578 8.21575 9.473 8.155C9.4004 8.10792 9.32337 8.06807 9.243 8.036L6.08 8.348L5.0625 11.1385L4.6475 12.2805C5.04159 12.5898 5.47633 12.8435 5.9395 13.0345C6.593 13.3035 7.293 13.4415 8 13.441C11 13.441 13.441 11.0005 13.441 8C13.441 5.5565 11.822 3.484 9.6 2.799ZM7.28 8.5365H7.94C8.019 8.537 8.0975 8.5445 8.175 8.559C8.25 8.571 8.3225 8.5985 8.387 8.639C8.447 8.68 8.49 8.741 8.508 8.811C8.529 8.8865 8.518 8.9855 8.4735 9.108C8.43414 9.22541 8.37003 9.333 8.2855 9.4235C8.2145 9.497 8.1305 9.5565 8.0375 9.5995C7.95179 9.63833 7.8608 9.66428 7.7675 9.6765C7.68515 9.68792 7.60214 9.69394 7.519 9.6945H6.8575L7.28 8.5365Z" fill="white"/>
</g>
<defs>
<clipPath id="clip0_7_7657">
<rect width="16" height="16" fill="white"/>
</clipPath>
</defs>
</svg>
