<svg width="16" height="16" viewBox="0 0 16 16" fill="none" xmlns="http://www.w3.org/2000/svg">
<g clip-path="url(#clip0_7_7968)">
<path d="M8 16C12.4183 16 16 12.4183 16 8C16 3.58172 12.4183 0 8 0C3.58172 0 0 3.58172 0 8C0 12.4183 3.58172 16 8 16Z" fill="#56F4F1"/>
<path d="M3 4.508C3 4.5005 3.105 4.5 4.459 4.501L5.9185 4.5025L6.7485 5.899L7.5925 7.3195L7.6065 7.343L7.7385 7.118C7.8105 6.994 7.8695 6.8905 7.8685 6.8875C7.8675 6.8845 7.55 6.3485 7.1635 5.6975C6.777 5.0465 6.4605 4.511 6.4605 4.5075C6.4605 4.501 6.68 4.5 7.997 4.5C8.85 4.5 9.533 4.502 9.533 4.505C9.533 4.515 6.2755 10.0535 6.268 10.055C6.2625 10.056 5.786 9.251 4.63 7.2865C3.7335 5.763 3 4.513 3 4.508ZM10.07 4.5035C10.07 4.5015 10.73 4.5 11.5355 4.5H13L12.998 4.511C12.9965 4.5175 12.2665 5.7615 11.376 7.2755C10.2965 9.109 9.753 10.0285 9.746 10.0295C9.7395 10.0305 9.5865 9.776 9.0735 8.9125C8.7075 8.2975 8.407 7.7925 8.405 7.7915C8.401 7.789 8.1385 8.2345 8.1405 8.2405C8.141 8.243 8.4425 8.7505 8.8095 9.3685C9.03505 9.74371 9.25673 10.1212 9.4745 10.501C9.47 10.5185 8.0065 12.9985 8.0005 13C7.991 13.002 6.536 10.53 6.539 10.5175C6.5415 10.512 10.0165 4.5925 10.07 4.5035Z" fill="white"/>
</g>
<defs>
<clipPath id="clip0_7_7968">
<rect width="16" height="16" fill="white"/>
</clipPath>
</defs>
</svg>
