<svg width="16" height="16" viewBox="0 0 16 16" fill="none" xmlns="http://www.w3.org/2000/svg">
<g clip-path="url(#clip0_7_7656)">
<path d="M8 16C12.4183 16 16 12.4183 16 8C16 3.58172 12.4183 0 8 0C3.58172 0 0 3.58172 0 8C0 12.4183 3.58172 16 8 16Z" fill="#ED1650"/>
<path fill-rule="evenodd" clip-rule="evenodd" d="M11.7405 5H9.71848C9.67746 5.00007 9.63687 5.00834 9.59909 5.02431C9.56132 5.04028 9.52711 5.06363 9.49848 5.093L5.81098 8.8575C5.78235 8.88687 5.74814 8.91022 5.71036 8.92619C5.67258 8.94216 5.63199 8.95043 5.59098 8.9505H4.91498C4.87396 8.95043 4.83337 8.94216 4.79559 8.92619C4.75782 8.91022 4.72361 8.88687 4.69498 8.8575L4.21698 8.3705C4.15841 8.31084 4.12556 8.2306 4.12548 8.147V7.4585C4.12548 7.37474 4.15833 7.29431 4.21698 7.2345L4.69498 6.7475C4.72362 6.71815 4.75784 6.69481 4.79561 6.67884C4.83339 6.66288 4.87397 6.6546 4.91498 6.6545H5.59098C5.67348 6.6545 5.75248 6.688 5.81098 6.7475L6.10448 7.0465C6.13308 7.07589 6.16729 7.09925 6.20508 7.11521C6.24286 7.13116 6.28346 7.13938 6.32448 7.13938C6.36549 7.13938 6.40609 7.13116 6.44388 7.11521C6.48166 7.09925 6.51587 7.07589 6.54448 7.0465L7.25398 6.3245C7.31237 6.26456 7.34505 6.18418 7.34505 6.1005C7.34505 6.01682 7.31237 5.93644 7.25398 5.8765L6.48398 5.093C6.45533 5.06365 6.42112 5.04031 6.38334 5.02434C6.34557 5.00838 6.30499 5.0001 6.26398 5H4.24198C4.20097 5.0001 4.16039 5.00838 4.12261 5.02434C4.08484 5.04031 4.05062 5.06365 4.02198 5.093L2.59198 6.549C2.53352 6.60889 2.50085 6.68931 2.50098 6.773V8.832C2.50098 8.916 2.53398 8.997 2.59198 9.056L4.02198 10.5125C4.05067 10.5418 4.0849 10.565 4.12267 10.5809C4.16044 10.5968 4.201 10.605 4.24198 10.605H6.26448C6.30549 10.6049 6.34607 10.5966 6.38384 10.5807C6.42162 10.5647 6.45583 10.5413 6.48448 10.512L10.172 6.748C10.2006 6.71856 10.2348 6.69513 10.2726 6.67908C10.3103 6.66302 10.3509 6.65467 10.392 6.6545H11.068C11.1505 6.6545 11.2295 6.688 11.288 6.7475L11.766 7.2345C11.8246 7.29431 11.8575 7.37474 11.8575 7.4585V8.147C11.8573 8.23059 11.8245 8.31081 11.766 8.3705L11.288 8.8575C11.2593 8.88687 11.2251 8.91022 11.1874 8.92619C11.1496 8.94216 11.109 8.95043 11.068 8.9505H10.392C10.351 8.95043 10.3104 8.94216 10.2726 8.92619C10.2348 8.91022 10.2006 8.88687 10.172 8.8575L9.87598 8.556C9.84758 8.52683 9.81366 8.50359 9.77619 8.48765C9.73873 8.47171 9.69846 8.46338 9.65775 8.46315C9.61704 8.46292 9.57668 8.47078 9.53904 8.4863C9.50139 8.50181 9.46721 8.52465 9.43848 8.5535L8.56348 9.4245C8.53378 9.45426 8.51023 9.48958 8.49419 9.52845C8.47814 9.56731 8.46992 9.60895 8.46998 9.651V11.671C8.46998 11.846 8.60948 11.988 8.78098 11.988H9.80098C9.84221 11.9877 9.88298 11.9792 9.92095 11.9631C9.95892 11.9471 9.99335 11.9237 10.0223 11.8943C10.0512 11.8649 10.0741 11.8301 10.0895 11.7919C10.105 11.7536 10.1128 11.7127 10.1125 11.6715V10.9215C10.1125 10.7465 10.252 10.605 10.4235 10.605H11.741C11.782 10.605 11.8225 10.5968 11.8603 10.5809C11.8981 10.565 11.9323 10.5418 11.961 10.5125L13.391 9.056C13.4496 8.99619 13.4825 8.91576 13.4825 8.832V6.773C13.4826 6.68931 13.4499 6.60889 13.3915 6.549L11.9615 5.093C11.9328 5.06365 11.8986 5.04031 11.8608 5.02434C11.8231 5.00838 11.7825 5.0001 11.7415 5" fill="white"/>
</g>
<defs>
<clipPath id="clip0_7_7656">
<rect width="16" height="16" fill="white"/>
</clipPath>
</defs>
</svg>
