<svg width="16" height="16" viewBox="0 0 16 16" fill="none" xmlns="http://www.w3.org/2000/svg">
<g clip-path="url(#clip0_7_7655)">
<path d="M8 16C12.4183 16 16 12.4183 16 8C16 3.58172 12.4183 0 8 0C3.58172 0 0 3.58172 0 8C0 12.4183 3.58172 16 8 16Z" fill="#4F7AA2"/>
<path d="M6.6545 6H8.0235C8.6845 6 9.865 6.4015 9.865 8C9.865 9.5985 8.685 10 8.0235 10H6.655L6.6545 6ZM7.4095 9.19H7.9765C8.4485 9.19 9.015 8.901 9.015 8C9.015 7.099 8.4485 6.81 7.9765 6.81H7.41L7.4095 9.19ZM10.385 6H10.668L13.217 9.513V6H13.5V10H13.2165L10.6675 6.564V10H10.384L10.385 6ZM2.5 6H3.444V7H2.5V6ZM3.9165 6H4.86V7H3.9165V6ZM5.3325 6H6.277V7H5.3325V6ZM5.3325 7.5H6.277V8.5H5.3325V7.5ZM5.3325 9H6.277V10H5.3325V9ZM3.9165 7.5H4.86V8.5H3.9165V7.5Z" fill="white"/>
</g>
<defs>
<clipPath id="clip0_7_7655">
<rect width="16" height="16" fill="white"/>
</clipPath>
</defs>
</svg>
