<svg width="16" height="16" viewBox="0 0 16 16" fill="none" xmlns="http://www.w3.org/2000/svg">
<g clip-path="url(#clip0_7_7720)">
<path d="M8 16C12.4183 16 16 12.4183 16 8C16 3.58172 12.4183 0 8 0C3.58172 0 0 3.58172 0 8C0 12.4183 3.58172 16 8 16Z" fill="#67B2E8"/>
<path fill-rule="evenodd" clip-rule="evenodd" d="M3.0725 5.97698C3.02571 5.59239 3.0015 5.20539 3 4.81798C3.65626 4.44417 4.35268 4.14577 5.076 3.92848C6.09086 3.62309 7.14743 3.47916 8.207 3.50198C8.491 3.50748 8.902 3.53898 9.214 3.57248C8.8181 3.78479 8.47489 4.08323 8.20966 4.44581C7.94443 4.80839 7.76394 5.22587 7.6815 5.66748C7.6515 5.82448 7.635 5.98748 7.6295 6.16148C7.6215 6.42948 7.5955 6.64048 7.5395 6.83798C7.4136 7.28311 7.15441 7.67902 6.79681 7.97247C6.4392 8.26591 6.00031 8.44283 5.53917 8.47942C5.07802 8.51601 4.61672 8.41052 4.21731 8.17714C3.8179 7.94376 3.49953 7.59368 3.305 7.17398C3.28301 7.12591 3.26624 7.07562 3.255 7.02398C3.17581 6.67843 3.11489 6.32894 3.0725 5.97698ZM11.379 10.257C11.26 10.442 11.134 10.622 11.003 10.7995C11.0071 10.2945 10.8814 9.79695 10.638 9.35448C10.3876 8.88837 10.0172 8.49771 9.565 8.22298L9.52 8.19548C9.49498 8.18078 9.47015 8.16578 9.4455 8.15048C8.877 7.78898 8.5305 7.28298 8.4085 6.62998C8.30261 6.06114 8.41904 5.47336 8.73376 4.98784C9.04848 4.50231 9.53751 4.15606 10.1 4.02048C10.51 3.92148 10.915 3.93548 11.3185 4.06198C11.628 4.15948 11.941 4.28698 12.3225 4.46548C12.5425 4.56898 12.7645 4.68398 13.0005 4.81748C12.9973 5.51478 12.9215 6.20985 12.7745 6.89148C12.5179 8.08877 12.0452 9.22925 11.3795 10.257H11.379ZM9.8605 12.0935C9.29596 12.6315 8.67193 13.1033 8.0005 13.5C7.827 13.4 7.65737 13.2934 7.492 13.1805C5.88826 12.1019 4.62441 10.5894 3.848 8.81948C4.21787 9.03701 4.63086 9.17098 5.058 9.21198C5.68595 9.27555 6.318 9.14036 6.865 8.82548C7.12794 8.67566 7.41777 8.57899 7.718 8.54098C8.25033 8.47372 8.78923 8.59806 9.23828 8.89175C9.68734 9.18544 10.0172 9.62932 10.169 10.144C10.3365 10.7045 10.2875 11.255 10.0275 11.7975C10.0055 11.8435 9.9865 11.8805 9.9415 11.969L9.9195 12.0125C9.90467 12.0427 9.88471 12.0701 9.8605 12.0935Z" fill="white"/>
</g>
<defs>
<clipPath id="clip0_7_7720">
<rect width="16" height="16" fill="white"/>
</clipPath>
</defs>
</svg>
