<svg width="16" height="16" viewBox="0 0 16 16" fill="none" xmlns="http://www.w3.org/2000/svg">
<g clip-path="url(#clip0_7_8015)">
<path d="M8 16C12.4183 16 16 12.4183 16 8C16 3.58172 12.4183 0 8 0C3.58172 0 0 3.58172 0 8C0 12.4183 3.58172 16 8 16Z" fill="#1EB5FA"/>
<path d="M13.2025 3.57549L11.3875 4.38049C11.3346 4.40945 11.2904 4.45211 11.2596 4.50401C11.2288 4.55591 11.2125 4.61514 11.2125 4.67549V11.1655C11.2123 11.2265 11.229 11.2864 11.2608 11.3384C11.2926 11.3905 11.3382 11.4328 11.3925 11.4605L13.2075 12.2455C13.2334 12.2596 13.2625 12.2667 13.2919 12.2661C13.3214 12.2655 13.3502 12.2572 13.3755 12.2421C13.4007 12.2269 13.4216 12.2054 13.436 12.1797C13.4504 12.154 13.4578 12.125 13.4575 12.0955V3.72549C13.4566 3.69597 13.4482 3.66718 13.4331 3.64178C13.418 3.61639 13.3968 3.59522 13.3713 3.58024C13.3459 3.56527 13.317 3.55698 13.2875 3.55615C13.258 3.55532 13.2288 3.56197 13.2025 3.57549ZM4.51001 4.37049L2.75001 3.57049C2.72415 3.55636 2.69504 3.54924 2.66558 3.54984C2.63611 3.55044 2.60732 3.55873 2.58205 3.57389C2.55678 3.58905 2.53592 3.61056 2.52152 3.63627C2.50713 3.66199 2.49972 3.69102 2.50001 3.72049V12.0905C2.50003 12.1208 2.50815 12.1506 2.52352 12.1768C2.53889 12.2029 2.56097 12.2245 2.58746 12.2393C2.61396 12.2541 2.64392 12.2615 2.67425 12.2608C2.70458 12.2602 2.73419 12.2514 2.76001 12.2355L4.53001 11.3005C4.57889 11.2707 4.61929 11.2288 4.64731 11.1789C4.67534 11.129 4.69004 11.0727 4.69001 11.0155V4.66549C4.6881 4.60494 4.67051 4.54593 4.63896 4.49422C4.60741 4.44251 4.56297 4.39988 4.51001 4.37049ZM10.03 6.58548L8.13501 5.50049C8.08412 5.47098 8.02633 5.45545 7.96751 5.45545C7.90868 5.45545 7.8509 5.47098 7.80001 5.50049L5.87001 6.57549C5.81838 6.60553 5.77551 6.64857 5.74569 6.70033C5.71586 6.75208 5.70011 6.81075 5.70001 6.87049V9.07049C5.70001 9.19199 5.76501 9.30449 5.87001 9.36549L7.80001 10.4755C7.90351 10.5355 8.03151 10.5355 8.13501 10.4755L10.03 9.37548C10.0816 9.34544 10.1245 9.3024 10.1543 9.25064C10.1842 9.19889 10.1999 9.14022 10.2 9.08048V6.88049C10.2005 6.82063 10.185 6.76172 10.1551 6.70986C10.1253 6.65799 10.0821 6.61506 10.03 6.58548Z" fill="white"/>
</g>
<defs>
<clipPath id="clip0_7_8015">
<rect width="16" height="16" fill="white"/>
</clipPath>
</defs>
</svg>
