<svg width="16" height="16" viewBox="0 0 16 16" fill="none" xmlns="http://www.w3.org/2000/svg">
<g clip-path="url(#clip0_7_7654)">
<path d="M8 16C12.4183 16 16 12.4183 16 8C16 3.58172 12.4183 0 8 0C3.58172 0 0 3.58172 0 8C0 12.4183 3.58172 16 8 16Z" fill="black"/>
<path d="M11.565 4.64594L10.365 5.25794L4.56601 8.21144C4.48339 7.57674 4.57873 6.93156 4.84139 6.34788C5.10406 5.76419 5.52372 5.26497 6.05356 4.90588C6.5834 4.54679 7.20259 4.34197 7.84205 4.31426C8.48151 4.28654 9.11609 4.43704 9.67501 4.74894L10.362 4.39894L10.4645 4.34644C9.81277 3.87349 9.0393 3.5969 8.23543 3.54936C7.43157 3.50181 6.63089 3.68528 5.92793 4.07811C5.22498 4.47093 4.64911 5.05671 4.26833 5.76626C3.88755 6.47581 3.71776 7.27951 3.77901 8.08244C3.79047 8.23347 3.75699 8.38451 3.68279 8.51654C3.60859 8.64858 3.49698 8.75571 3.36201 8.82444L2.99951 9.00944V9.87144L4.06651 9.32744L4.41201 9.15094L4.75251 8.97744L10.8655 5.86244L11.5525 5.51294L12.9725 4.78944V3.92794L11.565 4.64594ZM12.973 5.65194L5.10051 9.65994L4.41351 10.0099L3.00001 10.7314V11.5929L4.40401 10.8779L5.60451 10.2659L11.4095 7.30794C11.4934 7.94362 11.3987 8.5901 11.136 9.17501C10.8734 9.75993 10.4531 10.2602 9.92228 10.6198C9.39145 10.9795 8.771 11.1843 8.13038 11.2113C7.48976 11.2383 6.85426 11.0866 6.29501 10.7729L6.25251 10.7954L5.50751 11.1754C6.15936 11.6487 6.93303 11.9254 7.73713 11.973C8.54123 12.0206 9.34215 11.837 10.0453 11.444C10.7484 11.0509 11.3243 10.4648 11.705 9.75497C12.0856 9.04509 12.2552 8.24108 12.1935 7.43794C12.1822 7.28706 12.2157 7.13619 12.2898 7.00428C12.3639 6.87236 12.4753 6.76526 12.61 6.69644L12.973 6.51144V5.65244V5.65194Z" fill="white"/>
</g>
<defs>
<clipPath id="clip0_7_7654">
<rect width="16" height="16" fill="white"/>
</clipPath>
</defs>
</svg>
