<svg width="16" height="16" viewBox="0 0 16 16" fill="none" xmlns="http://www.w3.org/2000/svg">
<g clip-path="url(#clip0_7_7653)">
<path d="M8 16C12.4183 16 16 12.4183 16 8C16 3.58172 12.4183 0 8 0C3.58172 0 0 3.58172 0 8C0 12.4183 3.58172 16 8 16Z" fill="#DD0632"/>
<path d="M11.341 3.5H8.761L7.994 4.826L7.2295 3.5H4.6485L2 8.0875L4.5645 12.5275L6.303 9.518L8 12.448L9.692 9.518L11.4345 12.548L14 8.108L11.341 3.5ZM4.561 10.772L3.01 8.089L4.2435 5.953L5.7935 8.638L4.5605 10.7745L4.561 10.772ZM4.753 5.071L5.162 4.3605H6.7075L7.485 5.707L6.303 7.7565L4.753 5.071ZM7.993 10.687L6.812 8.636L7.994 6.5875L8.522 7.5L9.177 8.6365L7.994 10.685L7.993 10.687ZM8.5015 5.707L9.2805 4.3605H10.826L11.24 5.0705L9.68 7.7565L8.5015 5.707ZM12.4855 8.9755L11.439 10.791L10.195 8.631L11.745 5.9515L12.163 6.6715L12.9895 8.103L12.4855 8.9755Z" fill="white"/>
</g>
<defs>
<clipPath id="clip0_7_7653">
<rect width="16" height="16" fill="white"/>
</clipPath>
</defs>
</svg>
