<svg width="16" height="16" viewBox="0 0 16 16" fill="none" xmlns="http://www.w3.org/2000/svg">
<g clip-path="url(#clip0_7_7678)">
<path d="M8 16C12.4183 16 16 12.4183 16 8C16 3.58172 12.4183 0 8 0C3.58172 0 0 3.58172 0 8C0 12.4183 3.58172 16 8 16Z" fill="#004A80"/>
<path fill-rule="evenodd" clip-rule="evenodd" d="M11.5 9.77L10.7585 12.5H4.5V12.0435L7.895 8.184L4.5685 3.996V3.5H10.734L10.949 5.626H10.554C10.2935 5.1415 10.0725 4.779 9.89 4.5385C9.708 4.298 9.5455 4.1485 9.4025 4.089C9.3015 4.04 9.1625 4.005 8.9855 3.984C8.77415 3.96074 8.56162 3.94988 8.349 3.9515H6.5975L9.222 7.2215V7.379L5.978 11.0615H9.6805C9.8625 11.0615 10.0295 11.018 10.1805 10.9315C10.3315 10.8445 10.4625 10.7355 10.573 10.6045C10.6891 10.4691 10.7921 10.3229 10.8805 10.168C10.9752 10.0036 11.0584 9.83288 11.1295 9.657L11.5 9.77Z" fill="white"/>
</g>
<defs>
<clipPath id="clip0_7_7678">
<rect width="16" height="16" fill="white"/>
</clipPath>
</defs>
</svg>
