<svg width="16" height="16" viewBox="0 0 16 16" fill="none" xmlns="http://www.w3.org/2000/svg">
<g clip-path="url(#clip0_7_7988)">
<path d="M8 16C12.4183 16 16 12.4183 16 8C16 3.58172 12.4183 0 8 0C3.58172 0 0 3.58172 0 8C0 12.4183 3.58172 16 8 16Z" fill="#FF6600"/>
<path d="M14 7.99997C14 11.314 11.314 14 8 14C4.686 14 2 11.314 2 7.99997C2 6.65947 2.4405 5.42197 3.181 4.42347L4.161 5.40347C3.64067 6.16933 3.36295 7.07408 3.364 7.99997C3.364 10.555 5.4405 12.631 7.9955 12.631C10.55 12.631 12.6265 10.5545 12.6265 7.99997C12.6261 7.07414 12.3485 6.16964 11.8295 5.40297L12.8095 4.42297C13.5849 5.45406 14.0028 6.70989 14 7.99997Z" fill="white"/>
<path d="M11.3182 8C11.3172 8.87984 10.9673 9.72338 10.3452 10.3455C9.72304 10.9677 8.8795 11.3176 7.99966 11.3185C7.11974 11.3177 6.27608 10.9678 5.65383 10.3457C5.03158 9.72354 4.68159 8.87993 4.68066 8C4.68066 7.4235 4.83066 6.8565 5.11666 6.355L7.99966 9.237L10.8827 6.354C11.1685 6.85547 11.3188 7.42278 11.3187 8" fill="white"/>
<path d="M11.9232 3.46252L7.99967 7.38102L5.00917 4.39552L4.07617 3.46252C5.16377 2.51602 6.55789 1.99635 7.99967 2.00002C9.49967 2.00002 10.8687 2.54852 11.9232 3.46252Z" fill="white"/>
</g>
<defs>
<clipPath id="clip0_7_7988">
<rect width="16" height="16" fill="white"/>
</clipPath>
</defs>
</svg>
