<svg width="16" height="16" viewBox="0 0 16 16" fill="none" xmlns="http://www.w3.org/2000/svg">
<g clip-path="url(#clip0_7_7652)">
<path d="M8 16C12.4183 16 16 12.4183 16 8C16 3.58172 12.4183 0 8 0C3.58172 0 0 3.58172 0 8C0 12.4183 3.58172 16 8 16Z" fill="#FF6600"/>
<path d="M7.98474 2.61755C10.9772 2.61755 13.3972 5.03755 13.3972 8.02955C13.3952 8.61268 13.3011 9.19182 13.1182 9.74555H11.5052V5.19855L7.98524 8.71855L4.46524 5.19855V9.74555H2.85174C2.6691 9.19179 2.57511 8.61265 2.57324 8.02955C2.57324 5.03755 4.99274 2.61755 7.98474 2.61755ZM7.17874 9.51005L7.99974 10.3176L8.80624 9.51055L10.3317 7.97055V10.8306H12.6052C12.123 11.6237 11.4446 12.2792 10.6354 12.7339C9.82616 13.1886 8.91345 13.4271 7.98524 13.4266C6.03424 13.4266 4.31824 12.3856 3.36524 10.8306H5.63824V7.97055L7.17824 9.51055L7.17874 9.51005Z" fill="white"/>
</g>
<defs>
<clipPath id="clip0_7_7652">
<rect width="16" height="16" fill="white"/>
</clipPath>
</defs>
</svg>
