<svg width="16" height="16" viewBox="0 0 16 16" fill="none" xmlns="http://www.w3.org/2000/svg">
<g clip-path="url(#clip0_7_7651)">
<path d="M8 16C12.4183 16 16 12.4183 16 8C16 3.58172 12.4183 0 8 0C3.58172 0 0 3.58172 0 8C0 12.4183 3.58172 16 8 16Z" fill="#EC1076"/>
<path fill-rule="evenodd" clip-rule="evenodd" d="M10.5252 10.5C10.2242 10.5 9.89369 10.3485 9.89369 9.894C9.89369 9.67 10.0687 8.9815 10.4177 7.828C10.4892 7.65 10.5247 7.49 10.5247 7.3485C10.5247 7.076 10.3147 6.8035 9.92369 6.8035C9.69669 6.8035 9.20219 6.8935 9.05219 7.3785C8.95219 7.702 8.72169 8.5605 8.36069 9.9545C8.22069 10.318 7.97019 10.5 7.60969 10.5C7.06869 10.5 6.97819 10.106 6.97819 9.8635C6.97819 9.7675 7.12219 9.187 7.41069 8.1235C7.52319 7.7685 7.57919 7.51 7.57919 7.3485C7.57919 7.106 7.39919 6.8035 6.97819 6.8035C6.55769 6.8035 6.16669 7.106 5.98669 7.7725C5.86669 8.2175 5.69619 8.884 5.47569 9.7725C5.35569 10.2575 5.08469 10.5 4.66419 10.5C4.28319 10.5 4.08319 10.288 4.06319 9.8635L4.75419 6.985H3.22169C3.12673 6.98831 3.03206 6.97259 2.94326 6.93877C2.85446 6.90494 2.77332 6.8537 2.70462 6.78804C2.63592 6.72239 2.58105 6.64366 2.54323 6.55649C2.50541 6.46931 2.48542 6.37545 2.48441 6.28043C2.48341 6.18542 2.50143 6.09116 2.5374 6.0032C2.57338 5.91525 2.62658 5.83538 2.69388 5.7683C2.76118 5.70122 2.84122 5.64827 2.92929 5.61259C3.01736 5.5769 3.11168 5.55919 3.20669 5.5605H5.77619C6.13669 5.5605 6.35719 5.7325 6.43719 6.0755C6.79819 5.6215 7.27869 5.5 7.70019 5.5C8.12169 5.5 8.66169 5.7425 8.90219 6.288C9.23219 5.924 9.80369 5.5 10.6152 5.5C11.3662 5.5 11.9977 6.015 11.9977 6.924C11.9977 7.2675 11.8272 7.985 11.4867 9.076L12.8052 9.067C13.1907 9.067 13.5002 9.388 13.5002 9.7835C13.5002 10.179 13.1907 10.5 12.8087 10.5H10.5252Z" fill="white"/>
</g>
<defs>
<clipPath id="clip0_7_7651">
<rect width="16" height="16" fill="white"/>
</clipPath>
</defs>
</svg>
