<svg width="16" height="16" viewBox="0 0 16 16" fill="none" xmlns="http://www.w3.org/2000/svg">
<g clip-path="url(#clip0_7_7650)">
<path d="M8 16C12.4183 16 16 12.4183 16 8C16 3.58172 12.4183 0 8 0C3.58172 0 0 3.58172 0 8C0 12.4183 3.58172 16 8 16Z" fill="#008200"/>
<path d="M7.395 11.5H6.496L5.955 9.375L7.2775 8.684L7.708 9.914L8.0285 8.2915L9.786 7.373L9.689 7.861L10.704 7.8705C11.096 7.8645 11.3995 7.732 11.6155 7.474C11.8315 7.2155 11.934 6.869 11.923 6.4325C11.9213 6.37632 11.9154 6.32033 11.9055 6.265L13.2705 5.5515C13.4595 5.899 13.5315 6.3085 13.4875 6.779C13.4145 7.465 13.1175 8.014 12.598 8.4255C12.0785 8.8375 11.416 9.0435 10.6115 9.0435L9.4585 9.0385L8.97 11.5H7.395ZM7.6055 6.005H8.4805L7.132 7.9175L3.802 9.658L5.036 7.913L3.85 4.5H5.59L6.205 6.8945L6.731 6.0045L7.67 4.5H8.7775L11.3405 4.505C11.923 4.521 12.4005 4.6755 12.7735 4.9685L11.3735 5.7005C11.3391 5.69412 11.3044 5.68978 11.2695 5.6875L10.1225 5.6775L9.9725 6.4325L8.214 7.3515L8.48 6.0045L7.6055 6.005ZM2.893 10.976L5.5565 9.5835L4.3825 11.5H2.5L2.8835 10.9575L2.893 10.976Z" fill="white"/>
</g>
<defs>
<clipPath id="clip0_7_7650">
<rect width="16" height="16" fill="white"/>
</clipPath>
</defs>
</svg>
