<svg width="16" height="16" viewBox="0 0 16 16" fill="none" xmlns="http://www.w3.org/2000/svg">
<g clip-path="url(#clip0_7_7649)">
<path d="M8 16C12.4183 16 16 12.4183 16 8C16 3.58172 12.4183 0 8 0C3.58172 0 0 3.58172 0 8C0 12.4183 3.58172 16 8 16Z" fill="#4FA784"/>
<path fill-rule="evenodd" clip-rule="evenodd" d="M12.7877 6.42296L8.73274 5.26096L7.34574 7.62346L5.73474 5.75496L6.46474 5.66096L7.21724 6.54496L8.05224 5.06546L4.37724 4.01196C4.32786 3.99732 4.27551 3.99596 4.22544 4.00801C4.17537 4.02005 4.12937 4.04508 4.09205 4.08057C4.05474 4.11606 4.02744 4.16075 4.0129 4.21015C3.99836 4.25955 3.9971 4.31191 4.00924 4.36196L5.63724 10.9L7.38574 7.95596L8.99674 9.82446L8.26674 9.91846L7.51474 9.03446L5.85974 11.793L6.10474 12.778C6.11748 12.8279 6.1431 12.8737 6.17903 12.9106C6.21497 12.9476 6.25996 12.9745 6.30953 12.9887C6.35911 13.0028 6.41152 13.0038 6.46157 12.9913C6.51161 12.9789 6.55752 12.9536 6.59474 12.918L12.9097 6.91296C12.947 6.87763 12.9743 6.83304 12.9887 6.78374C13.0031 6.73444 13.0041 6.6822 12.9917 6.63236C12.9793 6.58252 12.9539 6.53687 12.918 6.50008C12.8822 6.46329 12.8372 6.43667 12.7877 6.42296Z" fill="white"/>
</g>
<defs>
<clipPath id="clip0_7_7649">
<rect width="16" height="16" fill="white"/>
</clipPath>
</defs>
</svg>
