<svg width="16" height="16" viewBox="0 0 16 16" fill="none" xmlns="http://www.w3.org/2000/svg">
<g clip-path="url(#clip0_7_7648)">
<path d="M8 16C12.4183 16 16 12.4183 16 8C16 3.58172 12.4183 0 8 0C3.58172 0 0 3.58172 0 8C0 12.4183 3.58172 16 8 16Z" fill="#FFD81B"/>
<path d="M12 7.781C12 9.9925 10.287 10.7445 8.845 10.7445V11.321H9.9575V12.102H8.8455V13H7.1055V12.102H6.042V11.321H7.1035V10.737C6.642 10.737 4 10.6275 4 7.6205V4H5.7275V7.759C5.7275 9.3285 7.1105 9.314 7.1105 9.314V4H8.8455V9.314C8.8455 9.314 10.2725 9.394 10.2725 7.7375V4H12V7.781Z" fill="white"/>
</g>
<defs>
<clipPath id="clip0_7_7648">
<rect width="16" height="16" fill="white"/>
</clipPath>
</defs>
</svg>
