<svg width="16" height="16" viewBox="0 0 16 16" fill="none" xmlns="http://www.w3.org/2000/svg">
<g clip-path="url(#clip0_7_7647)">
<path d="M8 16C12.4183 16 16 12.4183 16 8C16 3.58172 12.4183 0 8 0C3.58172 0 0 3.58172 0 8C0 12.4183 3.58172 16 8 16Z" fill="#7543E3"/>
<path fill-rule="evenodd" clip-rule="evenodd" d="M5.94791 6.28C5.92991 6.4325 5.91291 6.593 5.90191 6.7535C5.63391 6.9465 5.38341 7.1435 5.15091 7.3405C5.03091 7.4425 4.91491 7.5445 4.80591 7.6505C3.94541 6.7425 3.57841 5.926 3.81491 5.507C4.02291 5.135 4.72091 5.0295 5.70091 5.23C5.73991 5.055 5.77841 4.8875 5.82441 4.727C4.63641 4.479 3.73041 4.643 3.38841 5.252C3.29646 5.41537 3.24904 5.60004 3.25091 5.7875V5.806C3.25791 6.6695 4.07941 7.825 5.45091 8.915C5.59141 9.028 5.74341 9.141 5.89841 9.254C5.93585 9.73254 6.00298 10.2083 6.09941 10.6785C4.91141 10.996 4.04741 10.916 3.81141 10.4965C3.60341 10.125 3.86441 9.4435 4.51991 8.667L4.17791 8.295C3.36691 9.243 3.04291 10.143 3.38491 10.755C3.62491 11.1855 4.14291 11.39 4.84091 11.39C5.54241 11.39 6.42341 11.182 7.38941 10.7775C7.58786 10.694 7.78409 10.6053 7.97791 10.5115L7.99991 10.5C8.30691 10.6455 8.60991 10.777 8.90991 10.89C9.03991 10.941 9.17041 10.985 9.29741 11.0285C8.96941 12.253 8.46891 12.989 7.99991 12.989C7.58391 12.989 7.14341 12.4135 6.82241 11.429C6.6646 11.4863 6.50464 11.5375 6.34291 11.5825C6.73041 12.771 7.31891 13.5 7.99991 13.5C8.99041 13.5 9.77991 11.962 10.0519 9.72C10.0694 9.5675 10.0834 9.407 10.0974 9.25C10.3759 9.05 10.6374 8.842 10.8804 8.6305C10.986 8.53951 11.0894 8.44599 11.1904 8.35C12.0544 9.254 12.4204 10.074 12.1844 10.493C11.9909 10.8395 11.3524 10.956 10.4784 10.8065L10.3019 10.7735C10.2655 10.9399 10.2245 11.1053 10.1789 11.2695C10.2529 11.284 10.3269 11.2985 10.3974 11.3095C10.6523 11.3553 10.9105 11.3797 11.1694 11.3825C11.8779 11.3825 12.3819 11.1675 12.6144 10.752C12.9249 10.198 12.6994 9.392 11.9764 8.4885C11.6029 8.0185 11.1164 7.5445 10.5524 7.0925C10.4074 6.976 10.2564 6.8625 10.1049 6.75C10.0785 6.41036 10.0361 6.07215 9.97791 5.7365C9.95291 5.5945 9.92841 5.456 9.90041 5.3215C10.1009 5.2665 10.2954 5.2225 10.4819 5.19C11.3564 5.04 11.9944 5.157 12.1884 5.5035C12.3924 5.868 12.1424 6.535 11.5079 7.2965C11.6309 7.4205 11.7439 7.5445 11.8499 7.6645C11.8942 7.61407 11.9364 7.56186 11.9764 7.508C12.6959 6.604 12.9249 5.7985 12.6149 5.2445C12.3049 4.6905 11.5184 4.49 10.4009 4.683C9.88241 4.7705 9.31491 4.942 8.72591 5.1755C8.70141 5.186 8.68041 5.1935 8.65591 5.2045C8.45841 5.2845 8.26092 5.372 8.06342 5.467C8.04592 5.474 8.02841 5.485 8.01041 5.492C7.71176 5.34698 7.40716 5.21453 7.09741 5.095C6.96741 5.044 6.83641 5 6.70991 4.9565C7.03691 3.7355 7.53791 3 8.00641 3C8.42241 3 8.86641 3.5795 9.18741 4.5635C9.34991 4.5085 9.50841 4.458 9.66741 4.4105C9.26791 3.2325 8.67991 2.5 7.99541 2.5C7.00841 2.5 6.21591 4.038 5.94791 6.28ZM9.09941 6.094C9.09241 6.0865 9.08191 6.083 9.07441 6.079C8.90941 5.981 8.73941 5.886 8.57791 5.795C8.5912 5.78733 8.60529 5.78113 8.61991 5.7765C8.82091 5.689 9.02191 5.609 9.21591 5.54C9.28291 5.514 9.34991 5.4925 9.41341 5.4705C9.44141 5.6055 9.46591 5.7405 9.49091 5.8825C9.51891 6.0465 9.53991 6.214 9.56091 6.3855C9.40841 6.28624 9.25456 6.18907 9.09941 6.094ZM6.50141 5.9005C6.52591 5.751 6.55041 5.609 6.58241 5.4705C6.86666 5.56643 7.14659 5.6747 7.42141 5.795C7.25541 5.886 7.08641 5.981 6.92091 6.079C6.91291 6.08267 6.90562 6.08775 6.89941 6.094C6.74091 6.189 6.58591 6.287 6.43441 6.3855C6.45541 6.2175 6.47641 6.0575 6.50141 5.9005ZM7.16741 9.487C7.04924 9.41836 6.93287 9.34667 6.81841 9.272C6.6668 9.17605 6.51759 9.07635 6.37091 8.973C6.34927 8.65029 6.33859 8.32694 6.33891 8.0035C6.33891 7.8285 6.34241 7.6575 6.34941 7.4895C6.35641 7.333 6.36391 7.1835 6.37441 7.0345C6.62441 6.8595 6.88941 6.688 7.16741 6.52C7.27341 6.455 7.38241 6.3925 7.48841 6.3345C7.65741 6.2395 7.82691 6.152 7.99591 6.0645C8.27768 6.20591 8.55404 6.35786 8.82441 6.52C8.94441 6.593 9.06041 6.6625 9.17341 6.735C9.32841 6.8335 9.47641 6.932 9.62141 7.034C9.65392 7.52781 9.66093 8.02297 9.64241 8.5175C9.63541 8.6705 9.62842 8.8235 9.61741 8.973C9.36741 9.148 9.10291 9.3195 8.82441 9.487C8.75041 9.531 8.67991 9.5745 8.60591 9.6145C8.41891 9.724 8.23241 9.8225 8.04891 9.917C8.03141 9.9245 8.01391 9.9355 7.99591 9.9425C7.71446 9.80067 7.43812 9.64841 7.16741 9.487ZM5.42591 8.237C5.33441 8.1605 5.24991 8.08 5.16491 8.0035C5.28141 7.898 5.40141 7.7885 5.52841 7.683C5.63391 7.5955 5.74341 7.5045 5.85941 7.417C5.85241 7.5625 5.84941 7.712 5.84941 7.8615V8.0035C5.84941 8.204 5.85241 8.3975 5.85941 8.5905C5.71061 8.47804 5.56601 8.36013 5.42591 8.237ZM10.1464 8.1495V8.0035C10.1464 7.8035 10.1429 7.61 10.1359 7.417C10.3765 7.60022 10.6072 7.79617 10.8269 8.004C10.7354 8.0875 10.6399 8.175 10.5414 8.259C10.5274 8.2695 10.5129 8.284 10.4989 8.295C10.3829 8.3935 10.2589 8.4955 10.1324 8.594C10.1394 8.4485 10.1464 8.2995 10.1464 8.1495ZM6.50491 10.1245C6.47747 9.95758 6.45396 9.79003 6.43441 9.622C6.58591 9.7205 6.73741 9.815 6.89591 9.91C6.90291 9.917 6.91391 9.921 6.92091 9.9245C7.08641 10.023 7.25191 10.1175 7.42091 10.2085C7.42091 10.2085 7.41791 10.2085 7.41791 10.2125C7.24643 10.2863 7.07357 10.3568 6.89941 10.424C6.87491 10.4345 6.85041 10.442 6.82541 10.453C6.74441 10.482 6.66341 10.5115 6.58241 10.537C6.5537 10.4002 6.52786 10.2624 6.50491 10.1245ZM9.01841 10.3945C8.86807 10.3364 8.71872 10.2757 8.57042 10.2125L8.63391 10.1795C8.77891 10.0995 8.92291 10.0155 9.07141 9.9315C9.23447 9.83092 9.39664 9.72891 9.55791 9.6255C9.53641 9.7895 9.51541 9.9535 9.49091 10.1065C9.46591 10.2565 9.43791 10.3985 9.40941 10.5405C9.28291 10.493 9.15241 10.4455 9.01841 10.3945ZM7.36141 8.0035C7.36141 7.643 7.64691 7.3475 7.99641 7.3475C8.34491 7.3475 8.63041 7.6425 8.63041 8.0035C8.63041 8.3645 8.34541 8.6595 7.99591 8.6595C7.64691 8.6595 7.36141 8.3645 7.36141 8.0035Z" fill="white"/>
</g>
<defs>
<clipPath id="clip0_7_7647">
<rect width="16" height="16" fill="white"/>
</clipPath>
</defs>
</svg>
