<svg width="16" height="16" viewBox="0 0 16 16" fill="none" xmlns="http://www.w3.org/2000/svg">
<g clip-path="url(#clip0_7_7645)">
<path d="M8 16C12.4183 16 16 12.4183 16 8C16 3.58172 12.4183 0 8 0C3.58172 0 0 3.58172 0 8C0 12.4183 3.58172 16 8 16Z" fill="#D21E2B"/>
<path d="M8.07 2.9275V1.5L13.383 4.566L12.1545 5.28L8.07 2.9275ZM12.236 10.136V5.432L13.4765 4.718V10.85L12.236 10.136ZM8.07 12.6405L12.1545 10.2885L13.383 11.002L8.07 14.068V12.6405ZM2.582 11.002L3.822 10.2885L7.8945 12.6405V14.068L2.582 11.002ZM2.5 4.718L3.7285 5.432V10.136L2.5 10.85V4.718ZM2.582 4.566L7.8945 1.5V2.9275L3.8225 5.28L2.582 4.566ZM7.994 3.062L3.8985 5.415V10.1425L7.994 12.5065L12.078 10.1425V5.415L7.994 3.062ZM11.2825 7.287L11.107 7.591L9.937 6.936L8.439 7.778L9.9365 8.6205L11.1065 7.9655L11.2825 8.2695L10.2995 8.8195L11.2825 9.3695L11.107 9.674L10.124 9.124V10.224H9.761V8.925L8.2635 8.0825V9.7675L9.422 10.411L9.2465 10.7095L8.2635 10.1595V11.2595H7.9V10.1595L6.917 10.7095L6.73 10.4055L7.9 9.7615V8.0825L6.402 8.925V10.224H6.0275V9.124L5.0565 9.674L4.869 9.3695L5.852 8.8195L4.869 8.2695L5.0565 7.9655L6.215 8.6205L7.7245 7.778L6.2145 6.9355L5.0565 7.5905L4.869 7.2865L5.852 6.7365L4.869 6.1865L5.0565 5.8825L6.0275 6.4325V5.3265H6.4025V6.6255L7.9 7.468V5.789L6.7415 5.145L6.917 4.841L7.9 5.391V4.291H8.263V5.391L9.246 4.841L9.421 5.145L8.263 5.789V7.474L9.7605 6.6315V5.3265H10.1235V6.4265L11.1065 5.8765L11.2815 6.181L10.299 6.731L11.282 7.2865L11.2825 7.287Z" fill="white"/>
</g>
<defs>
<clipPath id="clip0_7_7645">
<rect width="16" height="16" fill="white"/>
</clipPath>
</defs>
</svg>
