<svg width="16" height="16" viewBox="0 0 16 16" fill="none" xmlns="http://www.w3.org/2000/svg">
<g clip-path="url(#clip0_7_7666)">
<path d="M8 16C12.4183 16 16 12.4183 16 8C16 3.58172 12.4183 0 8 0C3.58172 0 0 3.58172 0 8C0 12.4183 3.58172 16 8 16Z" fill="#A6E000"/>
<path fill-rule="evenodd" clip-rule="evenodd" d="M9.095 13C8.365 13 7.833 12.828 7.499 12.485C7.1655 12.141 6.9985 11.7705 6.9985 11.3735C6.9985 11.2285 7.0275 11.106 7.086 11.007C7.14304 10.9087 7.22541 10.8276 7.3245 10.772C7.4255 10.715 7.5495 10.686 7.697 10.686C7.8445 10.686 7.969 10.715 8.07 10.772C8.171 10.8295 8.25 10.9075 8.3085 11.007C8.367 11.106 8.396 11.2285 8.396 11.3735C8.396 11.549 8.3535 11.692 8.268 11.803C8.19307 11.9063 8.0868 11.9825 7.965 12.0205C8.066 12.158 8.225 12.2555 8.4425 12.3125C8.66 12.374 8.8775 12.4045 9.0945 12.4045C9.38617 12.4079 9.67222 12.3242 9.916 12.164C10.1605 12.0035 10.341 11.7665 10.457 11.454C10.5735 11.1405 10.632 10.7855 10.632 10.3885C10.632 9.957 10.568 9.5885 10.44 9.283C10.3155 8.9735 10.131 8.7445 9.8865 8.5955C9.64855 8.44855 9.37416 8.37129 9.0945 8.3725C8.9085 8.3725 8.6755 8.4485 8.396 8.6015L7.8835 8.8535V8.6015L10.1895 5.5775H6.9985V8.716C6.9985 8.976 7.0565 9.1895 7.1735 9.3575C7.2895 9.5255 7.4685 9.6095 7.7085 9.6095C7.895 9.6095 8.0735 9.5485 8.2445 9.426C8.41601 9.30306 8.56561 9.15211 8.687 8.9795C8.69902 8.94947 8.7193 8.92346 8.7455 8.9045C8.7666 8.8866 8.79333 8.87669 8.821 8.8765C8.864 8.8765 8.914 8.8975 8.9725 8.939C9.02555 8.99679 9.05468 9.07256 9.054 9.151C9.04733 9.205 9.03765 9.25858 9.025 9.3115C8.893 9.6015 8.71 9.823 8.4775 9.976C8.2498 10.127 7.98224 10.2068 7.709 10.205C7.018 10.205 6.5405 10.0715 6.2765 9.804C6.0125 9.537 5.8805 9.174 5.8805 8.716V5.5775H4.25V4.993H5.88V3.665L5.508 3.298V3H6.591L6.9985 3.206V4.993L11.214 4.9815L11.634 5.394L9.048 7.937C9.20464 7.87542 9.36933 7.83669 9.537 7.822C9.817 7.822 10.131 7.91 10.4805 8.086C10.834 8.2575 11.1055 8.4945 11.2955 8.796C11.486 9.094 11.6085 9.3805 11.6625 9.6555C11.7168 9.89617 11.7462 10.1418 11.75 10.3885C11.7537 10.8612 11.6459 11.3282 11.4355 11.7515C11.2333 12.1641 10.8964 12.4953 10.4805 12.6905C10.0483 12.8979 9.57438 13.0038 9.095 13Z" fill="white"/>
</g>
<defs>
<clipPath id="clip0_7_7666">
<rect width="16" height="16" fill="white"/>
</clipPath>
</defs>
</svg>
