<svg width="16" height="16" viewBox="0 0 16 16" fill="none" xmlns="http://www.w3.org/2000/svg">
<g clip-path="url(#clip0_7_7780)">
<path d="M8 16C12.4183 16 16 12.4183 16 8C16 3.58172 12.4183 0 8 0C3.58172 0 0 3.58172 0 8C0 12.4183 3.58172 16 8 16Z" fill="#25AAE3"/>
<path d="M13.5 8C13.5 11.0375 11.0375 13.5 8 13.5C4.9625 13.5 2.5 11.0375 2.5 8C2.5 4.962 4.9625 2.5 8 2.5C11.0375 2.5 13.5 4.9625 13.5 8ZM11.615 8.173C11.6185 8.1105 11.615 8.173 11.615 8.1095C11.615 6.306 10.2825 4.704 8.554 4.4345V3.3845L7.434 3.7335V4.435C5.7065 4.704 4.383 6.195 4.383 7.9975C4.383 9.8425 5.768 11.3625 7.555 11.58V12.614L8.675 12.265V11.542C9.29292 11.4225 9.86895 11.1438 10.3461 10.7334C10.8232 10.323 11.185 9.79511 11.3955 9.202H10.235C10.0182 9.60761 9.69526 9.94673 9.30075 10.1832C8.90624 10.4196 8.45494 10.5445 7.995 10.5445C7.35166 10.544 6.73234 10.3001 6.26144 9.86179C5.79055 9.42345 5.50298 8.82316 5.4565 8.1815L11.6155 8.173H11.615ZM5.625 7.065C5.8122 6.589 6.13841 6.1804 6.56114 5.89243C6.98386 5.60446 7.48351 5.45046 7.995 5.4505C8.50626 5.45094 9.00556 5.60521 9.42797 5.89323C9.85038 6.18126 10.1764 6.58972 10.3635 7.0655H5.6255L5.625 7.065Z" fill="white"/>
</g>
<defs>
<clipPath id="clip0_7_7780">
<rect width="16" height="16" fill="white"/>
</clipPath>
</defs>
</svg>
