<svg width="16" height="16" viewBox="0 0 16 16" fill="none" xmlns="http://www.w3.org/2000/svg">
<g clip-path="url(#clip0_7_7642)">
<path d="M8 16C12.4183 16 16 12.4183 16 8C16 3.58172 12.4183 0 8 0C3.58172 0 0 3.58172 0 8C0 12.4183 3.58172 16 8 16Z" fill="#23B852"/>
<path d="M9.36253 9.57402H11.0575V11.056H5.96503L12.2865 4.73002C12.3868 4.62857 12.4553 4.50011 12.4837 4.36034C12.5121 4.22058 12.4992 4.07556 12.4465 3.94302C12.3906 3.81128 12.2971 3.69898 12.1776 3.62017C12.0582 3.54137 11.9181 3.49957 11.775 3.50002H4.22503C4.12955 3.49935 4.03489 3.51768 3.94656 3.55394C3.85823 3.5902 3.778 3.64367 3.71053 3.71123C3.64306 3.7788 3.58971 3.8591 3.55357 3.94748C3.51743 4.03586 3.49923 4.13054 3.50003 4.22602V9.57402L6.63752 6.43402H4.94253V4.94402H10.0265L3.71353 11.27C3.61328 11.3715 3.54476 11.4999 3.51634 11.6397C3.48793 11.7795 3.50085 11.9245 3.55353 12.057C3.66803 12.3245 3.92753 12.5 4.22503 12.5H11.775C11.8703 12.5 11.9647 12.4812 12.0527 12.4447C12.1407 12.4082 12.2207 12.3547 12.288 12.2873C12.3554 12.2199 12.4087 12.1398 12.4451 12.0518C12.4815 11.9637 12.5002 11.8693 12.5 11.774V6.43402L9.36253 9.57402Z" fill="white"/>
</g>
<defs>
<clipPath id="clip0_7_7642">
<rect width="16" height="16" fill="white"/>
</clipPath>
</defs>
</svg>
