<svg width="16" height="16" viewBox="0 0 16 16" fill="none" xmlns="http://www.w3.org/2000/svg">
<g clip-path="url(#clip0_7_7641)">
<path d="M8 16C12.4183 16 16 12.4183 16 8C16 3.58172 12.4183 0 8 0C3.58172 0 0 3.58172 0 8C0 12.4183 3.58172 16 8 16Z" fill="#006AE3"/>
<path d="M7.60547 11.18V4.87695H8.29147V11.18H7.60547Z" fill="white"/>
<path d="M11.0985 6.97701L8.9785 7.53901L8.506 5.33901L9.136 5.19701L9.385 6.23901C9.385 6.23901 9.9575 5.30001 9.194 4.32701C8.744 3.82701 8.5305 3.80601 8.026 3.72701C7.582 3.66351 6.55 3.81351 6.2425 5.01801C6.1125 5.79401 6.259 6.36801 7.259 7.11951L7.203 7.95601C7.203 7.95601 6.0865 7.16951 5.7985 6.61801C5.576 6.18151 5.1935 5.31951 5.8835 4.11951C6.2545 3.51951 6.9865 2.94401 8.276 3.00451C8.924 3.03151 10.5075 3.82451 10.262 5.67551C10.2195 6.02251 10.0395 6.48451 10.0395 6.48451L10.9095 6.29101L11.0985 6.97701ZM9.888 11.909C9.5 12.4985 8.753 13.054 7.4665 12.9605C6.818 12.9165 5.2575 12.0815 5.5515 10.2375C5.603 9.89251 5.7955 9.43601 5.7955 9.43601L4.921 9.60601L4.75 8.91651L6.885 8.41051L7.3 10.6225L6.665 10.7485L6.444 9.69851C6.444 9.69851 5.847 10.621 6.5835 11.615C7.0195 12.127 7.232 12.153 7.7365 12.245C8.1775 12.321 9.2135 12.197 9.553 11.0015C9.703 10.23 9.571 9.65151 8.5925 8.87251L8.671 8.03751C8.671 8.03751 9.7665 8.85251 10.0395 9.41201C10.2485 9.85601 10.6075 10.7285 9.888 11.909Z" fill="white"/>
</g>
<defs>
<clipPath id="clip0_7_7641">
<rect width="16" height="16" fill="white"/>
</clipPath>
</defs>
</svg>
