<svg width="16" height="16" viewBox="0 0 16 16" fill="none" xmlns="http://www.w3.org/2000/svg">
<g clip-path="url(#clip0_7_7844)">
<path d="M8 16C12.4183 16 16 12.4183 16 8C16 3.58172 12.4183 0 8 0C3.58172 0 0 3.58172 0 8C0 12.4183 3.58172 16 8 16Z" fill="#21A5DE"/>
<path d="M10.745 8.2875C10.915 8.4695 11.018 8.712 11.018 8.978C11.018 9.5425 10.554 10 9.982 10C9.4105 10 8.947 9.5425 8.947 8.978C8.947 8.712 9.05 8.4695 9.219 8.2875C9.16448 8.32931 9.09943 8.35519 9.03108 8.36224C8.96273 8.3693 8.89377 8.35726 8.83185 8.32747C8.76993 8.29768 8.71749 8.2513 8.68036 8.19349C8.64322 8.13567 8.62285 8.0687 8.6215 8C8.62137 7.91826 8.64905 7.83891 8.7 7.775C8.5155 7.942 8.27 8.044 8 8.044C7.73 8.044 7.4845 7.942 7.3 7.775C7.35095 7.83891 7.37863 7.91826 7.3785 8C7.3785 8.2015 7.2135 8.365 7.0085 8.365C6.92617 8.36509 6.84615 8.33783 6.781 8.2875C6.95 8.4695 7.0535 8.712 7.0535 8.978C7.0535 9.5425 6.5895 10 6.018 10C5.446 10 4.982 9.5425 4.982 8.978C4.982 8.712 5.0855 8.4695 5.2545 8.2875C5.19998 8.32931 5.13493 8.35519 5.06658 8.36224C4.99823 8.3693 4.92927 8.35726 4.86735 8.32747C4.80543 8.29768 4.75299 8.2513 4.71586 8.19349C4.67872 8.13567 4.65835 8.0687 4.657 8C4.65687 7.91826 4.68455 7.83891 4.7355 7.775C4.551 7.942 4.3055 8.044 4.0355 8.044C3.4635 8.044 3 7.5865 3 7.022C3 6.4575 3.4635 6 4.0355 6C4.6075 6 5.071 6.4575 5.071 7.022C5.07111 7.27841 4.97369 7.52527 4.7985 7.7125C4.85302 7.67054 4.91812 7.64455 4.98655 7.63742C5.05497 7.63029 5.12403 7.64229 5.18603 7.6721C5.24804 7.70191 5.30054 7.74835 5.3377 7.80624C5.37486 7.86414 5.39522 7.93122 5.3965 8C5.39664 8.08174 5.36895 8.16109 5.318 8.225C5.502 8.058 5.748 7.956 6.018 7.956C6.288 7.956 6.533 8.058 6.718 8.225C6.66687 8.16115 6.63901 8.0818 6.639 8C6.58874 7.96132 6.54921 7.91042 6.52419 7.85214C6.49917 7.79386 6.48949 7.73015 6.49607 7.66706C6.50264 7.60398 6.52526 7.54364 6.56176 7.49177C6.59826 7.43991 6.64744 7.39825 6.7046 7.37077C6.76176 7.34329 6.825 7.3309 6.8883 7.33478C6.95161 7.33866 7.01286 7.35869 7.06624 7.39294C7.11961 7.4272 7.16332 7.47456 7.19322 7.53049C7.22311 7.58643 7.23818 7.64909 7.237 7.7125C7.0619 7.52521 6.96449 7.27839 6.9645 7.022C6.9645 6.4575 7.428 6 8 6C8.572 6 9.0355 6.4575 9.0355 7.022C9.03561 7.27841 8.93819 7.52527 8.763 7.7125C8.81752 7.67054 8.88262 7.64455 8.95105 7.63742C9.01947 7.63029 9.08853 7.64229 9.15053 7.6721C9.21254 7.70191 9.26504 7.74835 9.3022 7.80624C9.33936 7.86414 9.35972 7.93122 9.361 8C9.36114 8.08174 9.33345 8.16109 9.2825 8.225C9.4665 8.058 9.7125 7.956 9.9825 7.956C10.2525 7.956 10.4975 8.058 10.6825 8.225C10.6314 8.16115 10.6035 8.0818 10.6035 8C10.5532 7.96132 10.5137 7.91042 10.4887 7.85214C10.4637 7.79386 10.454 7.73015 10.4606 7.66706C10.4671 7.60398 10.4898 7.54364 10.5263 7.49177C10.5628 7.43991 10.6119 7.39825 10.6691 7.37077C10.7263 7.34329 10.7895 7.3309 10.8528 7.33478C10.9161 7.33866 10.9774 7.35869 11.0307 7.39294C11.0841 7.4272 11.1278 7.47456 11.1577 7.53049C11.1876 7.58643 11.2027 7.64909 11.2015 7.7125C11.0264 7.52521 10.929 7.27839 10.929 7.022C10.929 6.4575 11.3925 6 11.9645 6C12.5365 6 13 6.4575 13 7.022C13 7.5865 12.5365 8.044 11.9645 8.044C11.6945 8.044 11.449 7.942 11.2645 7.775C11.3155 7.83891 11.3431 7.91826 11.343 8C11.343 8.2015 11.178 8.365 10.973 8.365C10.8907 8.36509 10.8102 8.33783 10.745 8.2875Z" fill="white"/>
</g>
<defs>
<clipPath id="clip0_7_7844">
<rect width="16" height="16" fill="white"/>
</clipPath>
</defs>
</svg>
