<svg width="16" height="16" viewBox="0 0 16 16" fill="none" xmlns="http://www.w3.org/2000/svg">
<g clip-path="url(#clip0_7_7640)">
<path d="M8 16C12.4183 16 16 12.4183 16 8C16 3.58172 12.4183 0 8 0C3.58172 0 0 3.58172 0 8C0 12.4183 3.58172 16 8 16Z" fill="#C87035"/>
<path d="M7.996 13.5C4.9585 13.498 2.5 11.035 2.5 7.993C2.5 4.9575 4.966 2.498 8.0075 2.5C11.04 2.502 13.504 4.967 13.5 8.001C13.494 11.002 11.082 13.496 7.996 13.5ZM5.7545 10.515C5.77 10.4855 5.782 10.462 5.7935 10.443C6.2855 9.575 6.7785 8.708 7.2715 7.842C7.7035 7.083 8.1345 6.323 8.564 5.563C8.56997 5.54841 8.58049 5.53614 8.59401 5.52803C8.60753 5.51991 8.62332 5.5164 8.639 5.518C9.141 5.5205 9.645 5.5205 10.1465 5.5205H10.218C9.521 6.7505 8.829 7.972 8.1315 9.2005C8.1565 9.2025 8.1705 9.2025 8.184 9.2025C9.4435 9.2025 10.702 9.203 11.96 9.2045C12.0025 9.2045 12.016 9.189 12.0255 9.152C12.2161 8.47951 12.2342 7.76982 12.078 7.0885C11.89 6.2635 11.4775 5.567 10.869 4.9845C10.596 4.72419 10.2859 4.50566 9.949 4.336C9.112 3.909 8.2305 3.7735 7.3065 3.936C6.3865 4.0995 5.6115 4.534 4.976 5.221C4.8925 5.311 4.817 5.4075 4.7375 5.501C4.7395 5.5065 4.7435 5.511 4.7455 5.516H8.3355C8.3155 5.5535 8.302 5.5805 8.2865 5.606C8.068 5.994 7.8465 6.38 7.63 6.7685C7.62146 6.7876 7.60708 6.8035 7.58893 6.81393C7.57079 6.82435 7.5498 6.82875 7.529 6.8265C6.398 6.8245 5.267 6.824 4.137 6.8245H4.069C3.496 8.626 4.3055 10.8855 6.336 11.7895C8.302 12.6675 10.3635 11.8595 11.33 10.511C9.4725 10.5145 7.614 10.516 5.755 10.5145L5.7545 10.515ZM12.076 11.464C12.7735 10.689 13.3935 9.414 13.3545 7.8825C13.3235 6.621 12.8915 5.5125 12.084 4.5325C11.832 4.7865 11.586 5.033 11.342 5.2795C12.622 6.819 12.677 9.0955 11.3555 10.73L12.076 11.464Z" fill="white"/>
</g>
<defs>
<clipPath id="clip0_7_7640">
<rect width="16" height="16" fill="white"/>
</clipPath>
</defs>
</svg>
