<svg width="16" height="16" viewBox="0 0 16 16" fill="none" xmlns="http://www.w3.org/2000/svg">
<g clip-path="url(#clip0_7_7960)">
<path d="M8 16C12.4183 16 16 12.4183 16 8C16 3.58172 12.4183 0 8 0C3.58172 0 0 3.58172 0 8C0 12.4183 3.58172 16 8 16Z" fill="#ECB244"/>
<path d="M7.54801 9.923H10.6965V11.598H8.75901C8.79101 12.077 8.80751 12.5215 8.83951 13H7.20901V11.615H5.27101C5.27101 11.0685 5.20651 10.5215 5.30351 10.0085C5.35201 9.735 5.64251 9.4955 5.82001 9.2565C6.43414 8.48906 7.05315 7.72554 7.67701 6.966C7.91951 6.675 8.16151 6.4015 8.43601 6.077H5.41601V4.402H7.20901V3H8.77501V4.3675H10.729C10.729 4.9315 10.7935 5.4785 10.6965 5.9915C10.648 6.265 10.3575 6.5045 10.164 6.7435C9.54989 7.51094 8.93088 8.27446 8.30701 9.034C8.06342 9.33824 7.81029 9.63472 7.54801 9.923Z" fill="white"/>
</g>
<defs>
<clipPath id="clip0_7_7960">
<rect width="16" height="16" fill="white"/>
</clipPath>
</defs>
</svg>
