<svg width="16" height="16" viewBox="0 0 16 16" fill="none" xmlns="http://www.w3.org/2000/svg">
<g clip-path="url(#clip0_7_7878)">
<path d="M8 16C12.4183 16 16 12.4183 16 8C16 3.58172 12.4183 0 8 0C3.58172 0 0 3.58172 0 8C0 12.4183 3.58172 16 8 16Z" fill="#183C87"/>
<path fill-rule="evenodd" clip-rule="evenodd" d="M2.5 7.8075L4.7475 6.5385L6.9945 7.8075V10.231L4.7475 11.5L2.5 10.231V7.8075ZM9.005 7.8075L11.2525 6.5385L13.5 7.8075V10.231L11.2525 11.5L9.0055 10.231L9.005 7.8075ZM8.769 9.9125L7.9805 10.346L7.231 9.9345V7.615L5.181 6.457V5.615L7.9805 4L10.7795 5.615V6.48L8.769 7.615V9.9125Z" fill="white"/>
</g>
<defs>
<clipPath id="clip0_7_7878">
<rect width="16" height="16" fill="white"/>
</clipPath>
</defs>
</svg>
