<svg width="16" height="16" viewBox="0 0 16 16" fill="none" xmlns="http://www.w3.org/2000/svg">
<g clip-path="url(#clip0_7_7834)">
<path d="M8 16C12.4183 16 16 12.4183 16 8C16 3.58172 12.4183 0 8 0C3.58172 0 0 3.58172 0 8C0 12.4183 3.58172 16 8 16Z" fill="#00EAAB"/>
<path d="M12.4002 4.78406L11.5102 6.16906C11.7941 6.72553 11.9409 7.34184 11.9382 7.96656C11.9382 10.1666 10.1582 11.9381 7.96668 11.9381C7.34482 11.9409 6.7314 11.7941 6.17818 11.5101L4.78418 12.4086C5.68268 13.0466 6.77418 13.4331 7.95818 13.4331C10.9727 13.4331 13.4247 10.9896 13.4247 7.96656C13.4247 6.77406 13.0467 5.68256 12.4002 4.78406Z" fill="white"/>
<path d="M7.96643 10.695C8.60672 10.695 9.2268 10.4708 9.71907 10.0614C10.2113 9.65192 10.5447 9.08307 10.6614 8.4535C9.80674 8.26745 8.92246 8.26327 8.06605 8.44124C7.20964 8.6192 6.40024 8.97534 5.69043 9.4865C5.94085 9.85991 6.27966 10.1657 6.67672 10.3766C7.07379 10.5875 7.51682 10.6971 7.96643 10.6955V10.695Z" fill="white"/>
<path d="M9.31 7.81501C9.7885 7.81501 10.25 7.86551 10.704 7.96651C10.7037 7.23831 10.4143 6.54001 9.89943 6.02509C9.38451 5.51017 8.68621 5.22078 7.958 5.22051C7.56669 5.22083 7.17998 5.30496 6.8239 5.46725C6.46782 5.62953 6.15064 5.8662 5.89369 6.16134C5.63674 6.45647 5.44598 6.80322 5.33426 7.17825C5.22254 7.55327 5.19245 7.94788 5.246 8.33551C4.5575 8.86501 4.23 9.27651 4.213 9.29301C4.06453 8.86939 3.98797 8.4239 3.9865 7.97501C3.9865 5.77501 5.7665 4.00301 7.958 4.00301C8.6045 4.00301 9.209 4.15401 9.7465 4.43151L11.132 3.53301C10.2143 2.8594 9.10492 2.49739 7.9665 2.50001C7.24845 2.49936 6.53731 2.6403 5.87379 2.91479C5.21026 3.18927 4.60738 3.59191 4.09964 4.09965C3.59189 4.60739 3.18926 5.21027 2.91478 5.8738C2.64029 6.53732 2.49934 7.24846 2.5 7.96651C2.5 9.18401 2.895 10.301 3.5665 11.2075C3.8265 10.7375 4.1375 10.309 4.4985 9.92251C4.4985 9.92251 5.036 9.36051 5.4475 9.07501C6.56796 8.25439 7.92117 7.81295 9.31 7.81501Z" fill="white"/>
</g>
<defs>
<clipPath id="clip0_7_7834">
<rect width="16" height="16" fill="white"/>
</clipPath>
</defs>
</svg>
