<svg width="16" height="16" viewBox="0 0 16 16" fill="none" xmlns="http://www.w3.org/2000/svg">
<g clip-path="url(#clip0_7_7639)">
<path d="M8 16C12.4183 16 16 12.4183 16 8C16 3.58172 12.4183 0 8 0C3.58172 0 0 3.58172 0 8C0 12.4183 3.58172 16 8 16Z" fill="#07BC9C"/>
<path fill-rule="evenodd" clip-rule="evenodd" d="M11.9489 3.3475C11.6644 3.2765 11.0014 3.286 10.7979 3.5655C11.0014 3.679 11.1434 3.854 11.3519 3.859C11.5604 3.864 11.8019 3.6645 12.0669 3.7785C11.9534 3.7785 11.4419 3.8735 11.4089 4.0295C11.4804 4.147 11.5664 4.255 11.6644 4.3515C11.7974 4.4605 11.8114 4.4985 12.0104 4.3895C12.254 4.23572 12.4378 4.00342 12.5314 3.731C12.5314 3.589 12.5739 3.6835 12.4699 3.5655C12.3171 3.45069 12.138 3.37577 11.9489 3.3475ZM9.27745 3.5985C9.66214 3.39328 10.1091 3.33754 10.5324 3.442C10.4915 2.98582 10.2782 2.5624 9.93595 2.258C10.3459 2.513 10.6344 2.923 10.7359 3.3945C10.9684 3.357 11.2099 3.267 11.4324 3.2335C11.3923 2.78006 11.1927 2.35555 10.8689 2.0355C10.7124 1.8885 10.2719 1.5 10.0204 1.5C9.76895 1.5 9.44245 2.0685 9.34795 2.3005C9.18586 2.71439 9.16098 3.1694 9.27695 3.5985H9.27745Z" fill="white"/>
<path fill-rule="evenodd" clip-rule="evenodd" d="M9.21514 4.34199C9.13014 4.13849 9.50414 4.05799 9.61814 4.07199C9.82164 4.13199 10.0081 4.23899 10.1631 4.38449C10.4611 4.60749 11.0481 5.26599 11.4796 5.10949C11.9106 4.95299 11.3991 4.19049 11.1621 3.99149C10.9685 3.80893 10.7349 3.67409 10.48 3.59771C10.225 3.52132 9.95577 3.50549 9.69364 3.55149C9.45464 3.62299 9.25864 3.79649 9.15864 4.02449C9.13014 4.12899 9.02564 4.34199 9.21514 4.34199Z" fill="white"/>
<path d="M11.195 7.18395C10.93 7.02295 10.835 6.54895 10.6695 6.28895C10.442 5.92395 10.1105 5.62595 9.91146 5.24695C9.71246 4.86795 9.68896 4.57895 9.34796 4.39895C9.21724 4.33007 9.07171 4.29407 8.92396 4.29407C8.77621 4.29407 8.63068 4.33007 8.49996 4.39895C8.07646 4.59095 7.63096 4.73095 7.17346 4.81595C6.97065 4.86398 6.77136 4.92579 6.57696 5.00095C6.41471 5.09211 6.24512 5.16954 6.06996 5.23245C5.63396 5.29395 4.82896 4.75895 4.90496 5.58745C4.90496 5.73945 5.06096 5.81995 5.01346 6.01395C4.96646 6.20845 4.75796 6.37895 4.65846 6.53045C4.45414 6.87325 4.29483 7.24094 4.18446 7.62445C3.91528 8.49309 3.96746 9.42958 4.33146 10.2629C4.50646 10.6729 4.73996 11.0559 5.02296 11.3999C5.16146 11.5614 5.28296 11.7359 5.38796 11.9209C5.46796 12.1399 5.56796 12.3509 5.68646 12.5509C5.78888 12.6796 5.92496 12.7774 6.07959 12.8335C6.23423 12.8895 6.40137 12.9016 6.56246 12.8684C6.72801 12.8116 6.88694 12.737 7.03646 12.6459C7.29187 12.5444 7.5592 12.4758 7.83196 12.4419C8.8272 12.2859 9.73502 11.7825 10.3945 11.0209C10.7069 10.6439 10.9492 10.214 11.11 9.75145C11.2034 9.49349 11.2715 9.22707 11.3135 8.95595C11.3375 8.78545 11.2855 8.35395 11.4085 8.24095C11.4885 8.16445 11.6785 8.14595 11.7355 8.07445C11.7786 7.98035 11.8118 7.88197 11.8345 7.78095C11.9245 7.50145 11.399 7.27895 11.1955 7.18395H11.195ZM11.555 7.86145C11.484 8.02245 11.205 8.11745 11.0815 8.28795C10.9044 8.6074 10.6682 8.89026 10.3855 9.12145C10.1006 9.26989 9.77289 9.3142 9.45886 9.24674C9.14482 9.17928 8.8642 9.00427 8.66546 8.75195C8.45576 8.48995 8.34212 8.16403 8.34346 7.82845C8.34346 7.56795 8.62796 6.91395 8.34346 6.77195C8.05946 6.62995 7.92696 7.08945 7.81796 7.24595C7.6273 7.56244 7.33746 7.80711 6.99346 7.94195C6.72582 8.03254 6.43857 8.04867 6.16247 7.98861C5.88636 7.92854 5.63178 7.79454 5.42596 7.60095C5.28834 7.40512 5.19679 7.18071 5.15818 6.9445C5.11956 6.70829 5.13487 6.4664 5.20296 6.23695C5.20931 6.00319 5.18867 5.76948 5.14146 5.54045C5.14146 5.19945 5.43996 5.32245 5.68146 5.36995C6.28017 5.47657 6.8489 5.71088 7.34896 6.05695C7.8186 6.44707 8.38175 6.70814 8.98296 6.81445C9.38546 6.85245 9.78446 6.92045 10.177 7.01845C10.371 7.07545 10.551 7.16995 10.7405 7.23645C10.9405 7.30145 11.1345 7.38495 11.3185 7.48745C11.4465 7.54395 11.631 7.65745 11.56 7.84245L11.555 7.86145Z" fill="white"/>
</g>
<defs>
<clipPath id="clip0_7_7639">
<rect width="16" height="16" fill="white"/>
</clipPath>
</defs>
</svg>
