<svg width="16" height="16" viewBox="0 0 16 16" fill="none" xmlns="http://www.w3.org/2000/svg">
<g clip-path="url(#clip0_7_7637)">
<path d="M8 16C12.4183 16 16 12.4183 16 8C16 3.58172 12.4183 0 8 0C3.58172 0 0 3.58172 0 8C0 12.4183 3.58172 16 8 16Z" fill="#00004D"/>
<path d="M7.75261 3.13702C7.70661 3.33202 7.56861 3.94702 7.50561 4.35902C7.48061 4.52802 7.37561 4.75352 7.66861 4.87502C7.60161 4.88802 7.58111 4.89652 7.56011 4.89202C7.35111 4.86602 7.13762 4.83602 6.92862 4.81002C6.88262 4.80552 6.82412 4.79702 6.78212 4.81852C6.50212 4.96602 6.37712 5.31702 6.51862 5.61602C6.59861 5.78502 6.62362 5.94102 6.59012 6.11902C6.58585 6.16515 6.59451 6.21154 6.61511 6.25302C6.77812 6.65202 6.80761 7.05052 6.67761 7.46652C6.65662 7.53152 6.66962 7.61002 6.67362 7.67902C6.68212 7.81352 6.69011 7.94802 6.70262 8.08202C6.49762 7.91752 6.27262 7.77002 6.10062 7.57052C6.0151 7.47007 5.95038 7.35364 5.91021 7.22799C5.87004 7.10233 5.85523 6.96995 5.86662 6.83852C5.87062 6.78652 5.82911 6.72552 5.79561 6.67802C5.69912 6.53502 5.58662 6.40502 5.50712 6.25302C5.39412 6.03652 5.25612 5.94552 5.03012 6.01502C4.91762 6.04952 4.81261 6.12302 4.71661 6.19702C4.63311 6.25702 4.56161 6.33552 4.48661 6.40502C4.47811 6.39602 4.46562 6.38752 4.45762 6.37902C4.47012 6.34852 4.47412 6.31402 4.49112 6.28352C4.60812 6.06702 4.60362 6.07102 4.44112 5.88902C4.12712 5.53802 3.85511 5.16102 3.73811 4.68402C3.67961 4.44602 3.60812 4.21152 3.54612 3.97752C3.23212 4.36752 3.19062 5.77252 3.50012 6.32702C3.40362 5.83702 3.30761 5.37352 3.41611 4.89652C3.43711 5.00502 3.44962 5.10902 3.45412 5.21752C3.47062 5.60302 3.56262 5.96752 3.72562 6.30952C3.75912 6.38302 3.85562 6.42652 3.92662 6.47852C3.95162 6.49602 3.98511 6.50452 4.01411 6.51752C4.01012 6.53502 4.01011 6.55252 4.00561 6.56502C3.85111 6.55652 3.70062 6.53902 3.54562 6.53502C3.44562 6.53052 3.32862 6.50452 3.24912 6.54802C3.14412 6.60402 3.06062 6.71302 3.00212 6.82102C2.98562 6.85102 3.06912 6.97252 3.13212 7.02052C3.29912 7.14602 3.41212 7.28452 3.38712 7.51852C3.38262 7.57502 3.44562 7.67502 3.50012 7.69652C3.65012 7.75302 3.69212 7.86552 3.71712 8.00852C3.73412 8.09952 3.74662 8.21652 3.80512 8.26852C3.99312 8.44202 4.05162 8.65002 4.05612 8.90152C4.06012 9.06152 4.14362 9.22652 4.12312 9.38252C4.10612 9.51702 4.13112 9.61652 4.18562 9.69452H4.18161L4.19411 9.70752C4.22761 9.75952 4.27361 9.80252 4.32761 9.84202L4.43662 9.94602C4.43662 9.94602 4.62462 10.1495 4.62862 10.349C4.63312 10.5485 4.61611 10.574 4.67462 10.752C4.73362 10.9255 4.81261 11.064 4.83811 11.2115C4.86311 11.359 4.80862 11.402 4.89662 11.4975C4.98412 11.5925 5.08062 11.6575 5.18062 11.7665C5.27712 11.879 5.41512 11.918 5.50712 12.0135C5.59912 12.1085 5.74512 12.2865 5.85811 12.399C5.91662 12.46 5.99612 12.5075 6.05462 12.542C6.07162 12.5595 6.07962 12.568 6.07562 12.577C5.99612 12.75 6.15912 12.746 6.22212 12.802C6.33062 12.8975 6.48562 12.958 6.56462 13.075C6.70711 13.2875 6.89111 13.396 7.12111 13.461C7.14211 13.4655 7.16712 13.4695 7.17512 13.4825C7.20462 13.5175 7.22512 13.5605 7.25062 13.5995C7.24212 13.6125 7.22962 13.6255 7.22112 13.6385C7.45112 13.721 7.68111 13.8075 7.91111 13.8855C7.95711 13.903 8.01611 13.903 8.05761 13.8905C8.25011 13.8255 8.44261 13.7555 8.63461 13.6865C8.67211 13.6735 8.73061 13.6345 8.72661 13.617C8.69761 13.4785 8.81011 13.5 8.87312 13.4655C9.02312 13.383 9.19912 13.3225 9.31212 13.2055C9.45012 13.058 9.57561 12.906 9.75961 12.8065C9.83461 12.763 9.98512 12.746 9.90962 12.5815C9.90561 12.5725 9.94762 12.538 9.96862 12.5165C9.99761 12.49 10.0311 12.4685 10.0731 12.434C10.1021 12.421 10.1356 12.399 10.1901 12.36C10.3602 12.2203 10.5182 12.0666 10.6626 11.9005C10.7626 11.775 10.9261 11.619 10.9261 11.619C10.9261 11.619 10.8211 11.372 10.8886 11.155L11.2436 10.891C11.3191 10.7305 11.3401 10.6695 11.4236 10.505C11.5031 10.34 11.5236 10.024 11.6371 9.89802C11.7371 9.79002 11.8586 9.70302 11.8541 9.63402C11.8804 9.56039 11.889 9.48159 11.8791 9.40402C11.8671 9.29152 11.9041 9.17402 11.9171 9.06152C11.9256 8.96652 11.9171 8.87102 11.9421 8.78002C11.9841 8.63252 12.0131 8.45952 12.1051 8.35502C12.2051 8.24252 12.2726 8.14302 12.2851 7.99102C12.2976 7.86102 12.3476 7.75702 12.4776 7.69602C12.5401 7.66602 12.6026 7.56202 12.6026 7.49252C12.5986 7.29752 12.6611 7.15902 12.8201 7.05502C12.8661 7.02502 12.9001 6.97252 12.9456 6.93802C13.0206 6.88152 13.0086 6.81652 12.9666 6.74302C12.8581 6.54802 12.6946 6.47852 12.4776 6.51802C12.3141 6.54802 12.0676 6.56502 11.9796 6.56502C11.8921 6.56502 11.9546 6.50002 11.9546 6.50002C12.2641 6.49152 12.3016 6.23602 12.3726 6.02802C12.4316 5.85452 12.4646 5.67252 12.4941 5.49052C12.5236 5.31702 12.5236 5.23452 12.5566 4.96552C12.5901 4.69702 12.6696 5.48602 12.5441 6.13202C12.7951 5.75052 12.7156 4.36752 12.4356 3.96052C12.4271 3.96902 12.4186 3.97352 12.4186 3.98202C12.4061 4.03402 12.3981 4.08602 12.3856 4.13802C12.2641 4.80102 12.0131 5.39502 11.5491 5.88052C11.3776 6.05802 11.3861 6.06252 11.5031 6.29202C11.5156 6.31402 11.5156 6.34402 11.5196 6.37452C11.4196 6.32702 11.3446 6.25752 11.2691 6.19252C11.2032 6.12886 11.1251 6.07916 11.0396 6.04643C10.954 6.01369 10.8627 5.99859 10.7711 6.00202C10.5711 6.00202 10.5161 6.14902 10.4576 6.29202C10.3491 6.55202 10.0941 6.71252 10.0856 7.05952C10.0731 7.56652 9.62161 7.82202 9.32861 8.16002C9.32461 8.16502 9.31212 8.15602 9.29511 8.15602C9.29111 8.13852 9.27861 8.11702 9.28262 8.09952C9.28262 7.78752 9.36662 7.47102 9.22862 7.17202C9.22012 7.15452 9.22412 7.12852 9.22862 7.11152C9.28262 6.67352 9.33312 6.24002 9.39162 5.80652C9.39962 5.75052 9.42912 5.69852 9.45412 5.64652C9.60062 5.33452 9.49161 4.97902 9.19511 4.82302C9.1585 4.80642 9.11798 4.80036 9.07811 4.80552C8.91462 4.82702 8.75611 4.85752 8.59712 4.87902C8.51712 4.89202 8.43411 4.89202 8.35461 4.89652C8.35011 4.88352 8.34612 4.87052 8.34211 4.86152C8.47562 4.81852 8.54261 4.73652 8.51362 4.58902L8.21211 3.08902C8.20411 3.05002 8.19561 2.85502 8.24161 2.95502C8.28761 3.05902 8.43411 3.50502 8.51761 3.78702C8.59712 4.06002 8.65962 4.34202 8.73062 4.61902C8.61362 3.84352 8.43411 3.08902 7.99061 2.40002C7.87257 2.54794 7.77812 2.71323 7.71061 2.89002C7.60302 3.20552 7.50266 3.52344 7.40962 3.84352C7.33861 4.09052 7.15461 4.57602 7.23412 4.58852C7.31312 4.60202 7.70212 3.14552 7.72712 3.04152C7.75212 2.93752 7.79861 2.94152 7.75211 3.13652L7.75261 3.13702Z" fill="white"/>
</g>
<defs>
<clipPath id="clip0_7_7637">
<rect width="16" height="16" fill="white"/>
</clipPath>
</defs>
</svg>
