<svg width="16" height="16" viewBox="0 0 16 16" fill="none" xmlns="http://www.w3.org/2000/svg">
<g clip-path="url(#clip0_7_7636)">
<path d="M8 16C12.4183 16 16 12.4183 16 8C16 3.58172 12.4183 0 8 0C3.58172 0 0 3.58172 0 8C0 12.4183 3.58172 16 8 16Z" fill="#302C2C"/>
<path fill-rule="evenodd" clip-rule="evenodd" d="M7.74814 13.5C7.61314 13.486 7.47814 13.4735 7.34314 13.4575C6.6173 13.3709 5.91634 13.139 5.28214 12.7755C5.27264 12.7705 5.26414 12.763 5.24564 12.7505C6.34864 11.9255 7.44664 11.1055 8.55064 10.2805L8.88314 10.604C9.06814 10.785 9.25414 10.964 9.43564 11.1475C9.48064 11.1925 9.51314 11.192 9.56564 11.165C10.1155 10.8905 10.5853 10.479 10.9296 9.97L10.9831 9.891C10.9986 9.909 11.0131 9.9235 11.0251 9.9395C11.4086 10.4505 11.7916 10.9615 12.1766 11.471C12.2101 11.515 12.2061 11.541 12.1706 11.581C11.2791 12.594 10.1711 13.218 8.83564 13.4315C8.66764 13.4585 8.49714 13.4685 8.32764 13.487C8.30514 13.4895 8.28264 13.4955 8.26064 13.5H7.74814ZM8.23314 2.5C8.32614 2.5095 8.41964 2.5195 8.51314 2.528C9.30114 2.603 10.0381 2.8365 10.7246 3.228C10.7346 3.234 10.7431 3.241 10.7596 3.253L7.40064 5.6625C7.35614 5.6205 7.31314 5.5805 7.27064 5.539C7.03464 5.309 6.79764 5.0795 6.56314 4.8475C6.52564 4.8105 6.49714 4.8065 6.45014 4.83C5.89058 5.10615 5.41307 5.52401 5.06514 6.042L5.01514 6.117L3.78114 4.473C3.90564 4.341 4.02064 4.2095 4.14514 4.088C4.95664 3.2965 5.92014 2.793 7.03664 2.5905C7.25164 2.5515 7.47114 2.5385 7.68864 2.513C7.71314 2.5105 7.73764 2.5045 7.76164 2.5H8.23314ZM3.22914 5.267L5.72664 8.541L5.22264 9.058C5.09714 9.1865 4.97264 9.3165 4.84464 9.443C4.80864 9.479 4.80714 9.5065 4.82914 9.5505C5.1049 10.1102 5.52263 10.5877 6.04064 10.9355C6.05814 10.9465 6.07564 10.958 6.09214 10.9705C6.09514 10.9725 6.09664 10.9775 6.10564 10.9945L4.47514 12.2175C3.50014 11.378 2.86764 10.3435 2.61364 9.089C2.34164 7.746 2.56164 6.477 3.22914 5.267ZM10.3166 7.452L10.7756 6.9755C10.9036 6.8425 11.0296 6.708 11.1606 6.5785C11.2016 6.538 11.2011 6.5075 11.1771 6.4595C10.8996 5.8931 10.4769 5.41038 9.95214 5.0605C9.93364 5.048 9.91564 5.0345 9.88414 5.012L11.5236 3.782C12.4521 4.577 13.0686 5.557 13.3516 6.7395C13.7051 8.2155 13.3901 9.6755 12.7781 10.7035L10.3166 7.452Z" fill="white"/>
</g>
<defs>
<clipPath id="clip0_7_7636">
<rect width="16" height="16" fill="white"/>
</clipPath>
</defs>
</svg>
