<svg width="16" height="16" viewBox="0 0 16 16" fill="none" xmlns="http://www.w3.org/2000/svg">
<g clip-path="url(#clip0_1227_6904)">
<path d="M8 16C12.4183 16 16 12.4183 16 8C16 3.58172 12.4183 0 8 0C3.58172 0 0 3.58172 0 8C0 12.4183 3.58172 16 8 16Z" fill="black"/>
<g clip-path="url(#clip1_1227_6904)">
<path d="M8.08737 11.5C6.81546 11.5 5.68535 11.0711 4.80642 10.2519C4.21771 9.70319 3.76369 8.99835 3.45698 8.15692C3.15375 7.3251 3 6.37047 3 5.31957H4.98011C4.98011 6.15005 5.09547 6.88761 5.32298 7.51172C5.52532 8.06682 5.81215 8.51998 6.17548 8.85864C6.7187 9.36497 7.41572 9.60367 8.24705 9.56806C9.01321 9.53527 9.60434 9.3027 10.004 8.87678C10.3367 8.52229 10.5199 8.04299 10.5199 7.52721C10.5244 7.23391 10.412 6.95031 10.2064 6.73602C10.11 6.63708 9.99358 6.55868 9.86456 6.50576C9.73547 6.45283 9.59657 6.42654 9.45652 6.42854C9.26318 6.42996 9.07709 6.50042 8.93356 6.62658C8.79549 6.75259 8.63094 7.01235 8.63094 7.53433H6.65082C6.65082 6.32166 7.15585 5.60615 7.57949 5.21946C8.09016 4.75851 8.76028 4.50168 9.45652 4.50004C9.86381 4.49789 10.2672 4.57678 10.6421 4.73189C11.0169 4.887 11.3553 5.11505 11.6364 5.40206C12.1933 5.96836 12.5 6.72309 12.5 7.52721C12.5 8.52573 12.1326 9.46705 11.4656 10.1778C10.9381 10.74 9.96652 11.4248 8.33396 11.4947C8.25123 11.4983 8.16904 11.5 8.08737 11.5Z" fill="white"/>
</g>
</g>
<defs>
<clipPath id="clip0_1227_6904">
<rect width="16" height="16" fill="white"/>
</clipPath>
<clipPath id="clip1_1227_6904">
<rect width="9.5" height="7" fill="white" transform="translate(3 4.5)"/>
</clipPath>
</defs>
</svg>
