<svg width="16" height="16" viewBox="0 0 16 16" fill="none" xmlns="http://www.w3.org/2000/svg">
<g clip-path="url(#clip0_1227_6945)">
<g clip-path="url(#clip1_1227_6945)">
<path d="M8 16C12.4183 16 16 12.4183 16 8C16 3.58172 12.4183 0 8 0C3.58172 0 0 3.58172 0 8C0 12.4183 3.58172 16 8 16Z" fill="url(#paint0_linear_1227_6945)"/>
<path d="M9.5632 0.136848C13.2334 0.866711 15.9999 4.10595 15.9999 7.99149C15.9999 12.4144 12.4151 16 7.99317 16C5.49342 16 3.26127 14.8542 1.79297 13.059L9.5632 0.136848Z" fill="url(#paint1_linear_1227_6945)"/>
<path d="M1.79324 13.0599C0.672098 11.6818 0 9.92366 0 8.0085C0 3.58554 3.58471 0 8.00669 0C8.53736 0 9.06312 0.0409296 9.56494 0.139457L1.79324 13.0599Z" fill="url(#paint2_linear_1227_6945)"/>
<path d="M7.94547 13.1998C7.77657 13.1998 7.60772 13.1554 7.45723 13.0663L3.42093 10.68C3.19892 10.5487 3.04189 10.3386 2.97881 10.0885C2.91573 9.83849 2.95423 9.57905 3.08732 9.35815L7.12349 2.65947C7.29879 2.36866 7.60601 2.19506 7.94547 2.19506H7.94574C8.28519 2.19513 8.59236 2.36878 8.76745 2.65962L9.44558 3.78479C9.6163 4.06826 9.52501 4.43655 9.24161 4.6074C8.95841 4.77815 8.59012 4.687 8.41919 4.40349L7.94547 3.61726L4.23781 9.77069L7.94547 11.9627L12.1733 9.4631C12.4581 9.29468 12.8256 9.38916 12.9939 9.67401C13.1623 9.95897 13.068 10.3265 12.783 10.4949L8.43387 13.0663C8.28322 13.1553 8.11432 13.1998 7.94547 13.1998Z" fill="white"/>
<path d="M8.44944 10.2583C8.30686 10.2583 8.16539 10.2076 8.05329 10.1087C7.85871 9.93729 7.79647 9.66012 7.89912 9.42198L8.79846 7.3337L7.6621 7.99741C7.37656 8.16429 7.00955 8.06793 6.84257 7.78207C6.67575 7.49625 6.77211 7.12925 7.05787 6.96238L9.76731 5.38001C9.99066 5.24945 10.2727 5.27718 10.4665 5.44876C10.6602 5.62028 10.722 5.89686 10.6196 6.13457L9.72587 8.20982L11.1516 7.36835C11.4363 7.20014 11.8038 7.29479 11.9721 7.5799C12.1402 7.86497 12.0455 8.2324 11.7605 8.40055L8.75378 10.1752C8.65934 10.2309 8.55413 10.2583 8.44944 10.2583Z" fill="white"/>
</g>
</g>
<defs>
<linearGradient id="paint0_linear_1227_6945" x1="11.8387" y1="1.56483" x2="6.07411" y2="11.2284" gradientUnits="userSpaceOnUse">
<stop stop-color="#FAC20D"/>
<stop offset="1" stop-color="#FDA803"/>
</linearGradient>
<linearGradient id="paint1_linear_1227_6945" x1="14.103" y1="2.90224" x2="8.33249" y2="12.5756" gradientUnits="userSpaceOnUse">
<stop stop-color="#FAC20D"/>
<stop offset="1" stop-color="#FDA803"/>
</linearGradient>
<linearGradient id="paint2_linear_1227_6945" x1="6.62365" y1="-0.111061" x2="1.3038" y2="8.77997" gradientUnits="userSpaceOnUse">
<stop stop-color="#FD7B03"/>
<stop offset="1" stop-color="#FDA803"/>
</linearGradient>
<clipPath id="clip0_1227_6945">
<rect width="16" height="16" fill="white"/>
</clipPath>
<clipPath id="clip1_1227_6945">
<rect width="16" height="16" fill="white"/>
</clipPath>
</defs>
</svg>
