<svg width="16" height="16" viewBox="0 0 16 16" fill="none" xmlns="http://www.w3.org/2000/svg">
<g clip-path="url(#clip0_1227_6953)">
<g clip-path="url(#clip1_1227_6953)">
<path d="M8 16C12.4183 16 16 12.4183 16 8C16 3.58172 12.4183 0 8 0C3.58172 0 0 3.58172 0 8C0 12.4183 3.58172 16 8 16Z" fill="url(#paint0_linear_1227_6953)"/>
<path d="M12.1945 1.18158C13.0915 1.73461 13.867 2.45626 14.4808 3.30603C15.0946 4.15581 15.5396 5.12025 15.7824 6.14539C16.0253 7.17052 16.0657 8.22937 15.8972 9.26799C15.7285 10.3066 15.3644 11.2981 14.8113 12.195C14.2583 13.092 13.5366 13.8676 12.6868 14.4813C11.837 15.0951 10.8726 15.5401 9.84748 15.783C8.82235 16.0258 7.7635 16.0663 6.72488 15.8977C5.68626 15.729 4.69485 15.3581 3.79785 14.8118L7.9928 7.99332L12.1945 1.18158Z" fill="url(#paint1_linear_1227_6953)"/>
<path d="M3.80505 14.8185C2.90806 14.2654 2.13247 13.5438 1.51873 12.6941C0.904999 11.8443 0.459876 10.8798 0.21708 9.85468C-0.0257149 8.82955 -0.0661805 7.7707 0.102427 6.73208C0.271034 5.69345 0.64197 4.70204 1.18826 3.80505C1.74129 2.90806 2.46293 2.13247 3.31271 1.51873C4.16249 0.905 5.12692 0.459876 6.15206 0.21708C7.17719 -0.0257149 8.23605 -0.0661805 9.27467 0.102427C10.3133 0.271034 11.3047 0.64197 12.2017 1.18826L8.00675 8.00675L3.80505 14.8185Z" fill="url(#paint2_linear_1227_6953)"/>
<path d="M12.7788 9.58031C12.6708 9.27008 12.3404 9.10147 12.0301 9.21613L9.52801 10.1064L8.80638 7.79308L11.2141 3.97581C11.349 3.75998 11.3355 3.48348 11.1871 3.28789C11.032 3.08556 10.7757 3.01137 10.5397 3.0923L7.64636 4.07023L7.20797 2.66067C7.10681 2.34369 6.77633 2.17507 6.4661 2.27624C6.15586 2.37741 5.98725 2.71462 6.08167 3.03161L6.5268 4.45466L4.63165 5.09536C4.32141 5.20327 4.1528 5.54048 4.25397 5.85072C4.35514 6.16096 4.6856 6.33631 4.99585 6.22841L6.8775 5.5877L7.51146 7.62448L4.807 11.9071C4.67211 12.123 4.6856 12.3995 4.84073 12.6018C4.93514 12.7231 5.06329 12.7974 5.19817 12.8175C5.29259 12.831 5.39375 12.8243 5.49492 12.7906L8.75916 11.6306L9.04242 12.5344C9.10986 12.7569 9.29196 12.9053 9.50104 12.939C9.58871 12.9524 9.68988 12.9524 9.7843 12.9188C10.0945 12.8175 10.2631 12.4804 10.1687 12.1634L9.87871 11.2327L12.4078 10.3357C12.7248 10.2345 12.8867 9.89056 12.7788 9.58031ZM7.99706 5.21001L9.32569 4.75814L8.34776 6.31607L7.99706 5.21001ZM6.72238 11.0978L7.97682 9.10822L8.40846 10.4975L6.72238 11.0978Z" fill="white"/>
</g>
</g>
<defs>
<linearGradient id="paint0_linear_1227_6953" x1="11.8387" y1="1.56483" x2="6.07411" y2="11.2284" gradientUnits="userSpaceOnUse">
<stop stop-color="#FAC20D"/>
<stop offset="1" stop-color="#FDA803"/>
</linearGradient>
<linearGradient id="paint1_linear_1227_6953" x1="15.2987" y1="3.82748" x2="9.32996" y2="13.337" gradientUnits="userSpaceOnUse">
<stop stop-color="#FAC207"/>
<stop offset="1" stop-color="#FC9408"/>
</linearGradient>
<linearGradient id="paint2_linear_1227_6953" x1="8.71365" y1="-0.648249" x2="2.10425" y2="9.9403" gradientUnits="userSpaceOnUse">
<stop stop-color="#FD7103"/>
<stop offset="1" stop-color="#FC9404"/>
</linearGradient>
<clipPath id="clip0_1227_6953">
<rect width="16" height="16" fill="white"/>
</clipPath>
<clipPath id="clip1_1227_6953">
<rect width="16" height="16" fill="white"/>
</clipPath>
</defs>
</svg>
