<svg width="99" height="26" viewBox="0 0 99 26" fill="none" xmlns="http://www.w3.org/2000/svg">
<path fill-rule="evenodd" clip-rule="evenodd" d="M40.2823 22.8678C40.4184 23.009 40.4211 23.2352 40.2822 23.3735C38.7383 24.9115 36.6331 25.8583 34.3127 25.8583C29.5761 25.8583 25.7364 21.9134 25.7364 17.0471C25.7364 12.1809 29.5761 8.236 34.3127 8.236C39.0493 8.236 42.889 12.1809 42.889 17.0471C42.889 17.6959 42.885 17.9842 42.7983 18.3632C42.7087 18.7552 42.2931 18.9618 41.9164 18.8408L40.4066 18.3557C39.0999 17.9219 37.6918 17.9218 36.3851 18.3555L34.2657 19.059C34.0396 19.1341 34.0183 19.4517 34.2324 19.5574C34.7216 19.7988 35.2833 19.8388 35.8007 19.6691L36.8443 19.3267C36.8443 19.3267 36.5784 19.5318 36.225 19.7873C35.594 20.2435 34.8127 20.4414 34.0563 20.2767C32.934 20.0323 32.0874 19.6286 31.4547 19.1916C30.9336 18.8318 30.1203 19.1943 30.5076 19.7C31.4878 20.9794 33.2548 21.8553 35.1537 21.8553C36.2634 21.8553 37.2954 21.5676 38.1553 21.0737C38.3037 20.9885 38.4911 21.0093 38.6105 21.1332L40.2823 22.8678ZM30.5804 14.3905C30.452 14.6611 30.3475 14.9514 30.2672 15.2613L38.2875 15.2297C38.1971 14.8309 38.0752 14.4696 37.9218 14.1457C37.6245 13.4696 37.1785 12.9567 36.5839 12.6071C36.0121 12.2341 35.3031 12.0476 34.4569 12.0476C33.565 12.0476 32.7874 12.2574 32.1242 12.677C31.4609 13.0733 30.9464 13.6445 30.5804 14.3905Z" fill="#3E63DD"/>
<path fill-rule="evenodd" clip-rule="evenodd" d="M46.8499 22.8678C46.7139 23.009 46.7111 23.2352 46.85 23.3735C48.3939 24.9115 50.4991 25.8583 52.8195 25.8583C57.5561 25.8583 61.3958 21.9134 61.3958 17.0471C61.3958 12.1809 57.5561 8.236 52.8195 8.236C48.0829 8.236 44.2432 12.1809 44.2432 17.0471C44.2432 17.6959 44.2473 17.9842 44.3339 18.3632C44.4235 18.7552 44.8392 18.9618 45.2158 18.8408L46.7257 18.3557C48.0324 17.9219 49.4404 17.9218 50.7472 18.3555L52.8665 19.059C53.0927 19.1341 53.1139 19.4517 52.8999 19.5574C52.4106 19.7988 51.8489 19.8388 51.3315 19.6691L50.2879 19.3267C50.2879 19.3267 50.5538 19.5318 50.9073 19.7873C51.5382 20.2435 52.3195 20.4414 53.076 20.2767C54.1983 20.0323 55.0448 19.6286 55.6776 19.1916C56.1986 18.8318 57.0119 19.1943 56.6246 19.7C55.6444 20.9794 53.8775 21.8553 51.9786 21.8553C50.8688 21.8553 49.8368 21.5676 48.977 21.0737C48.8286 20.9885 48.6411 21.0093 48.5218 21.1332L46.8499 22.8678ZM56.5518 14.3905C56.6803 14.6611 56.7847 14.9514 56.8651 15.2613L48.8448 15.2297C48.9352 14.8309 49.0571 14.4696 49.2104 14.1457C49.5078 13.4696 49.9537 12.9567 50.5484 12.6071C51.1201 12.2341 51.8291 12.0476 52.6753 12.0476C53.5672 12.0476 54.3448 12.2574 55.008 12.677C55.6713 13.0733 56.1859 13.6445 56.5518 14.3905Z" fill="#3E63DD"/>
<path d="M87.3865 16.9749L81.732 25.05C81.5614 25.2936 81.7323 25.6319 82.0259 25.6319H86.2079C86.3289 25.6319 86.4419 25.5701 86.5088 25.4673L89.7861 20.4293L93.2921 25.4765C93.3598 25.574 93.4697 25.6319 93.5868 25.6319H97.9861C98.2789 25.6319 98.45 25.2954 98.2811 25.0515L92.7223 17.0258L97.9797 9.32039C98.1462 9.07633 97.9749 8.74213 97.6833 8.74213H93.528C93.4054 8.74213 93.2912 8.80552 93.2247 8.91047L90.2988 13.5267L87.0929 8.89792C87.0252 8.80023 86.9152 8.74213 86.7979 8.74213H82.3658C82.0728 8.74213 81.9017 9.07915 82.0711 9.32293L87.3865 16.9749Z" fill="#3E63DD"/>
<path fill-rule="evenodd" clip-rule="evenodd" d="M79.9702 25.2822C79.9702 25.4855 79.8086 25.6503 79.6091 25.6503H75.8712C75.6719 25.6503 75.5103 25.4858 75.5101 25.2827L75.5085 24.1189C75.075 24.5554 74.5729 24.9259 74.0021 25.2307C73.0416 25.7436 71.9667 26 70.7774 26C69.2451 26 67.8729 25.6153 66.6608 24.846C65.4487 24.0767 64.4881 23.0277 63.7792 21.6989C63.093 20.3701 62.75 18.8781 62.75 17.2229C62.75 15.5444 63.093 14.0408 63.7792 12.712C64.4881 11.3832 65.4372 10.3341 66.6265 9.5648C67.8386 8.79549 69.2223 8.41084 70.7774 8.41084C71.9667 8.41084 73.0302 8.65562 73.9678 9.14518C74.5454 9.43954 75.0527 9.80554 75.4897 10.2432L75.4768 0.736688C75.4765 0.533199 75.6382 0.36809 75.8379 0.36809H79.6091C79.8086 0.36809 79.9702 0.532889 79.9702 0.736179V25.2822ZM73.7277 21.2093C73.1102 21.5823 72.3783 21.7688 71.5322 21.7688C70.7317 21.7688 70.0113 21.5823 69.3709 21.2093C68.7306 20.813 68.2274 20.2768 67.8615 19.6008C67.5184 18.9014 67.3469 18.0971 67.3469 17.1879C67.3469 16.3021 67.5184 15.5211 67.8615 14.845C68.2274 14.169 68.7191 13.6328 69.3366 13.2365C69.977 12.8402 70.7203 12.642 71.5665 12.642C72.3898 12.642 73.1102 12.8402 73.7277 13.2365C74.3681 13.6095 74.8598 14.1457 75.2028 14.845C75.5687 15.5211 75.7517 16.3021 75.7517 17.1879C75.7517 18.0971 75.5687 18.9014 75.2028 19.6008C74.8598 20.2768 74.3681 20.813 73.7277 21.2093Z" fill="#3E63DD"/>
<path d="M18.3498 16.3229C18.3498 15.0641 18.6471 14.1316 19.2417 13.5255C19.8592 12.896 20.6483 12.5813 21.6088 12.5813C22.0662 12.5813 22.4664 12.6512 22.8095 12.7911C23.0422 12.8801 23.2519 12.9973 23.4383 13.1429C23.6093 13.2763 23.8596 13.2758 24.0012 13.1104L26.3402 10.3772C26.4595 10.2378 26.4597 10.0288 26.3322 9.89719C25.864 9.41393 25.353 9.06143 24.7992 8.83967C24.1588 8.55992 23.4384 8.42005 22.638 8.42005C20.7855 8.42005 19.3675 9.02617 18.3841 10.2384C18.3726 10.2523 18.3612 10.2663 18.3498 10.2803V9.13781C18.3498 8.93452 18.1881 8.76972 17.9887 8.76972H14.2169C14.0174 8.76972 13.8558 8.93452 13.8558 9.13781V25.2914C13.8558 25.4947 14.0174 25.6595 14.2169 25.6595H17.9887C18.1881 25.6595 18.3498 25.4947 18.3498 25.2914L18.3498 16.3229Z" fill="#3E63DD"/>
<path d="M2.03652 8.77709C2.23596 8.77709 2.39763 8.61229 2.39763 8.409V6.95873C2.39763 5.60662 2.68351 4.41769 3.25527 3.39195C3.82702 2.34289 4.63891 1.5153 5.69094 0.909182C6.74297 0.303061 7.97796 0 9.39592 0H13.2887C13.4882 0 13.6498 0.1648 13.6498 0.36809V3.8631C13.6498 4.06639 13.4882 4.23119 13.2887 4.23119H9.46453C8.6412 4.23119 8.00083 4.46431 7.54343 4.93056C7.10889 5.37349 6.89163 6.01458 6.89163 6.85383V8.409C6.89163 8.61229 7.0533 8.77709 7.25274 8.77709H11.4363C11.6357 8.77709 11.7974 8.94188 11.7974 9.14518V12.4304C11.7974 12.6337 11.6357 12.7985 11.4363 12.7985H7.25274C7.0533 12.7985 6.89163 12.9633 6.89163 13.1666V25.2988C6.89163 25.5021 6.72995 25.6669 6.53052 25.6669H2.75874C2.55931 25.6669 2.39763 25.5021 2.39763 25.2988V13.1666C2.39763 12.9633 2.23596 12.7985 2.03652 12.7985H0.361108C0.161674 12.7985 0 12.6337 0 12.4304V9.14517C0 8.94188 0.161674 8.77709 0.361108 8.77709H2.03652Z" fill="#3E63DD"/>
</svg>
