<svg xmlns="http://www.w3.org/2000/svg" width="89" height="90" viewBox="0 0 89 90" fill="none">
    <path d="M45.8211 89.5695C45.2445 89.5695 44.7774 89.0963 44.7774 88.5123V76.0267C44.7774 74.9695 43.9357 74.1127 42.8963 74.1127C42.7405 74.1127 42.5848 74.134 42.4291 74.1724C41.8862 74.313 41.3265 74.3812 40.7584 74.3812H40.6658C36.9877 74.3386 33.9787 71.2779 33.9534 67.5523C33.9408 65.698 34.6436 63.9587 35.9314 62.6458C37.2149 61.3371 38.9235 60.6167 40.7458 60.6167C41.2929 60.6167 41.8442 60.6892 42.4207 60.8341C42.5722 60.8725 42.7279 60.8895 42.8794 60.8895C43.9231 60.8895 44.7732 60.0327 44.7732 58.9756V46.4814C44.7732 45.8974 45.2403 45.4242 45.8169 45.4242H58.6315C58.985 45.4242 59.2964 45.5947 59.49 45.8888C59.6878 46.1915 59.7214 46.5581 59.5826 46.8991C59.1996 47.8369 59.0018 48.8344 59.0018 49.8703C59.0018 54.133 62.4232 57.6029 66.6316 57.6029H66.6989C70.819 57.5774 74.2151 54.1544 74.2699 49.9811C74.2867 48.9111 74.0931 47.871 73.6891 46.8991C73.5502 46.5624 73.5839 46.2 73.7859 45.8974C73.9837 45.599 74.2993 45.4285 74.6486 45.4285H87.3201C87.8924 45.4285 88.3554 45.9016 88.3554 46.4856V80.7498C88.3554 85.4559 84.7277 89.3308 80.0943 89.5653C79.947 89.5738 79.8081 89.5738 79.665 89.5738H45.8169L45.8211 89.5695Z"
          fill="#3E63DD"/>
    <path d="M87.3202 45.8504C87.6611 45.8504 87.9346 46.136 87.9346 46.4812V80.7455C87.9346 85.2256 84.4795 88.9087 80.0691 89.1346C79.9387 89.1431 79.8124 89.1431 79.682 89.1431H45.817C45.4719 89.1431 45.1942 88.8575 45.1942 88.5122V76.0266C45.1942 74.7349 44.1631 73.6863 42.8964 73.6863C42.707 73.6863 42.5134 73.7119 42.3282 73.7588C41.819 73.8909 41.293 73.9548 40.7627 73.9548H40.6743C37.2234 73.9165 34.3996 71.0434 34.3786 67.5479C34.3659 65.8087 35.0267 64.176 36.2345 62.9441C37.4381 61.7164 39.0415 61.0429 40.7501 61.0429C41.2635 61.0429 41.7769 61.1111 42.3282 61.2475C42.5134 61.2944 42.6986 61.3157 42.8879 61.3157C44.1631 61.3157 45.1984 60.2671 45.1984 58.9754V46.4812C45.1984 46.1317 45.4803 45.8504 45.8212 45.8504H58.6358C58.9219 45.8504 59.0777 46.0209 59.145 46.1232C59.2628 46.3065 59.2839 46.5281 59.1997 46.737C58.7915 47.726 58.5895 48.7831 58.5895 49.8702C58.5895 54.3674 62.2003 58.0291 66.6401 58.0291H66.7075C71.0547 57.9993 74.6403 54.393 74.695 49.9895C74.7118 48.8599 74.5056 47.7643 74.0806 46.737C73.9628 46.4514 74.0806 46.217 74.1395 46.1317C74.1942 46.0464 74.3541 45.8504 74.6529 45.8504H87.3244M87.3202 44.9978H74.6487C73.605 44.9978 72.898 46.0805 73.302 47.061C73.6724 47.9562 73.866 48.9366 73.8491 49.9725C73.7986 53.9326 70.6045 57.151 66.6949 57.1766C66.6738 57.1766 66.6528 57.1766 66.6317 57.1766C62.6506 57.1766 59.4227 53.9027 59.4227 49.8702C59.4227 48.8727 59.6163 47.9263 59.9698 47.061C60.3738 46.0805 59.6837 44.9978 58.6316 44.9978H45.817C45.009 44.9978 44.3525 45.6628 44.3525 46.4812V58.9754C44.3525 59.8237 43.6707 60.4632 42.8837 60.4632C42.7659 60.4632 42.6481 60.4504 42.526 60.4205C41.9537 60.2756 41.3645 60.1903 40.7501 60.1903C36.7479 60.1903 33.5116 63.494 33.5369 67.5564C33.5621 71.5251 36.7563 74.769 40.6659 74.8117C40.6996 74.8117 40.729 74.8117 40.7627 74.8117C41.3771 74.8117 41.9663 74.7349 42.5344 74.59C42.6565 74.5602 42.7785 74.5431 42.8964 74.5431C43.6791 74.5431 44.3567 75.1953 44.3567 76.0308V88.5165C44.3567 89.3349 45.0132 89.9999 45.8212 89.9999H79.6483C79.8082 89.9999 79.9597 89.9999 80.1196 89.9914C84.9467 89.7442 88.7805 85.6988 88.7805 80.7497V46.4855C88.7805 45.6671 88.1324 45.0021 87.3244 45.0021L87.3202 44.9978Z"
          fill="white"/>
    <path d="M9.13649 89.5738C4.3305 89.5738 0.420898 85.6137 0.420898 80.7456V46.4856C0.420898 45.9016 0.89224 45.4242 1.46879 45.4242H14.1992C14.5527 45.4242 14.8725 45.5947 15.0661 45.8931C15.2639 46.1958 15.2976 46.5581 15.1629 46.8949C14.7631 47.871 14.5653 48.9069 14.5779 49.9726C14.6327 54.1501 18.033 57.5688 22.1531 57.6029H22.2078C26.4162 57.6029 29.8418 54.133 29.8418 49.8703C29.8418 48.8429 29.644 47.8412 29.2568 46.8991C29.118 46.5581 29.1516 46.1915 29.3494 45.8888C29.543 45.5947 29.8586 45.4242 30.2079 45.4242H42.9468C43.5233 45.4242 43.9946 45.9016 43.9946 46.4856V58.9713C43.9946 59.5596 43.5275 60.0413 42.9552 60.0413C42.871 60.0413 42.7826 60.0285 42.6985 60.0071C42.084 59.8494 41.4486 59.7684 40.8047 59.7684H40.7163C36.5837 59.8153 33.2001 63.2597 33.1706 67.4457C33.1538 69.5217 33.9408 71.4783 35.3885 72.9532C36.8319 74.4281 38.7552 75.2381 40.8089 75.2381C41.4444 75.2381 42.0714 75.1571 42.6816 75.0036C42.77 74.9823 42.8584 74.9695 42.9468 74.9695C43.5233 74.9695 43.9946 75.4427 43.9946 76.0267V88.5166C43.9946 89.1006 43.5233 89.578 42.9468 89.578H9.13649V89.5738Z"
          fill="#B2C1F1"/>
    <path d="M42.9593 45.8505C43.3044 45.8505 43.5864 46.1361 43.5864 46.4856V58.9713C43.5864 59.3549 43.2665 59.615 42.9677 59.615C42.9172 59.615 42.8667 59.6065 42.8162 59.5937C42.1681 59.4274 41.4948 59.3422 40.8215 59.3422H40.7289C36.369 59.3933 32.8003 63.0252 32.7666 67.4414C32.7498 69.6325 33.583 71.6957 35.1065 73.2516C36.6299 74.8075 38.6625 75.6643 40.8215 75.6643C41.4906 75.6643 42.1555 75.5791 42.7952 75.4171C42.8499 75.4043 42.9046 75.3958 42.9551 75.3958C43.2581 75.3958 43.5822 75.6388 43.5822 76.0267V88.5166C43.5822 88.8662 43.3002 89.1518 42.9551 89.1518H9.13643C4.5619 89.1518 0.841682 85.3835 0.841682 80.7498V46.4899C0.841682 46.1403 1.12365 45.8547 1.46873 45.8547H14.1991C14.5021 45.8547 14.6621 46.0508 14.7168 46.1361C14.7715 46.2213 14.8893 46.4515 14.7715 46.7371C14.3464 47.7645 14.1402 48.86 14.157 49.9854C14.216 54.3931 17.8015 58.0037 22.153 58.0335H22.2119C26.6518 58.0335 30.2668 54.3718 30.2668 49.8745C30.2668 48.7875 30.0606 47.7346 29.6524 46.7414C29.5345 46.4515 29.6524 46.2171 29.7071 46.1318C29.7744 46.0295 29.9301 45.8547 30.2163 45.8547H42.9551M42.9593 44.9979H30.2205C29.1684 44.9979 28.474 46.0807 28.878 47.0611C29.2315 47.9264 29.4293 48.8728 29.4293 49.866C29.4293 53.9029 26.2015 57.1724 22.2161 57.1724C22.1993 57.1724 22.1783 57.1724 22.1614 57.1724C18.2518 57.1426 15.0534 53.9242 15.0029 49.964C14.9903 48.9325 15.1881 47.9478 15.5542 47.0568C15.9582 46.0764 15.2512 44.9937 14.2033 44.9937H1.47294C0.660721 44.9937 0.00421143 45.6586 0.00421143 46.4814V80.7413C0.00421143 85.8524 4.09477 89.9958 9.14064 89.9958H42.9635C43.7757 89.9958 44.4323 89.3308 44.4323 88.5081V76.0181C44.4323 75.1741 43.7505 74.5347 42.9635 74.5347C42.8415 74.5347 42.7194 74.5517 42.5974 74.5816C42.0293 74.7265 41.4401 74.8033 40.8257 74.8033C36.8235 74.8033 33.583 71.5039 33.6125 67.4414C33.6419 63.4771 36.8277 60.2331 40.7415 60.1905C40.771 60.1905 40.7962 60.1905 40.8257 60.1905C41.4443 60.1905 42.0419 60.2672 42.6142 60.4164C42.7363 60.4462 42.8541 60.4633 42.9719 60.4633C43.7547 60.4633 44.4323 59.8068 44.4323 58.967V46.4814C44.4323 45.6586 43.7757 44.9937 42.9635 44.9937L42.9593 44.9979Z"
          fill="white"/>
    <path d="M22.2121 56.7503C20.3983 56.7503 18.6897 56.0342 17.4103 54.734C16.131 53.4339 15.4197 51.7075 15.4197 49.8702C15.4197 48.9537 15.5965 48.0671 15.9374 47.2273C16.1815 46.6305 16.1183 45.9527 15.7648 45.4156C15.4155 44.887 14.8348 44.5716 14.2035 44.5716H1.46049C0.883941 44.5716 0.416809 44.0984 0.416809 43.5144V9.25021C0.416809 4.38212 4.32641 0.421997 9.1324 0.421997H42.9595C43.536 0.421997 44.0032 0.895165 44.0032 1.47917V13.9648C44.0032 15.022 44.8491 15.8874 45.8843 15.8874C46.04 15.8874 46.1957 15.866 46.3473 15.8277C46.8943 15.687 47.4583 15.6145 48.0306 15.6145H48.1106C51.7845 15.6572 54.7977 18.7221 54.823 22.4435C54.8356 24.2935 54.137 26.0328 52.8492 27.3414C51.5657 28.6544 49.8528 29.3748 48.0264 29.3748C47.4625 29.3748 46.8986 29.3023 46.3557 29.1659C46.2 29.1275 46.0443 29.1062 45.8843 29.1062C44.8449 29.1062 43.9948 29.963 43.9948 31.0159V43.5102C43.9948 44.0942 43.5276 44.5673 42.9511 44.5673H30.2123C29.581 44.5673 28.996 44.887 28.6467 45.4156C28.2974 45.9485 28.2301 46.622 28.4742 47.2145C28.8319 48.0841 29.0087 49.0049 28.996 49.9555C28.9455 53.6726 25.9239 56.7162 22.2542 56.7418H22.2037L22.2121 56.7503Z"
          fill="#3E63DD"/>
    <path d="M42.9593 0.852555C43.3044 0.852555 43.5822 1.1339 43.5822 1.48345V13.9691C43.5822 15.265 44.6132 16.3179 45.8842 16.3179C46.0735 16.3179 46.2629 16.2923 46.4523 16.2454C46.9657 16.1133 47.496 16.0451 48.0304 16.0451H48.1062C51.5529 16.0835 54.3767 18.9608 54.402 22.452C54.4146 24.187 53.7581 25.8196 52.5503 27.0473C51.3467 28.2793 49.739 28.9528 48.0262 28.9528C47.496 28.9528 46.9699 28.8888 46.4607 28.7567C46.2713 28.7098 46.0777 28.6842 45.8884 28.6842C45.2824 28.6842 44.7058 28.9229 44.2723 29.3535C43.8263 29.7968 43.5822 30.3851 43.5822 31.0202V43.5144C43.5822 43.864 43.3044 44.1453 42.9593 44.1453H30.2205C29.4462 44.1453 28.7307 44.5332 28.3015 45.1854C27.8722 45.8376 27.7923 46.6604 28.0911 47.385C28.4277 48.1992 28.5919 49.0646 28.5792 49.9555C28.5329 53.4424 25.6965 56.2985 22.254 56.3198H22.2077C18.6937 56.3198 15.8362 53.4254 15.8362 49.866C15.8362 49.0049 16.0003 48.1736 16.3244 47.3893C16.6232 46.6604 16.5474 45.8334 16.114 45.1769C15.6889 44.529 14.9735 44.1411 14.2033 44.1411H1.46031C1.11523 44.1411 0.837472 43.8597 0.837472 43.5102V9.25023C0.837472 4.61659 4.55769 0.848293 9.13222 0.848293H42.9593M42.9593 0H9.13643C4.09056 0 0 4.14342 0 9.25449V43.5187C0 44.3371 0.656511 45.0021 1.46452 45.0021H14.2076C15.2597 45.0021 15.954 46.0849 15.55 47.0653C15.1965 47.9307 14.9987 48.877 14.9987 49.8702C14.9987 53.9071 18.2266 57.1766 22.2119 57.1766C22.2288 57.1766 22.2498 57.1766 22.2666 57.1766C26.1762 57.1468 29.3746 53.9284 29.4251 49.9683C29.4377 48.9367 29.2399 47.952 28.8738 47.0568C28.4698 46.0764 29.1768 44.9979 30.2247 44.9979H42.9635C43.7715 44.9979 44.4281 44.3329 44.4281 43.5144V31.0202C44.4281 30.1762 45.1098 29.5368 45.8968 29.5368C46.0188 29.5368 46.1409 29.5538 46.2629 29.5837C46.831 29.7286 47.4244 29.8053 48.0346 29.8053C52.0368 29.8053 55.2773 26.5059 55.2478 22.4435C55.2184 18.4791 52.0326 15.2352 48.1188 15.1925C48.0894 15.1925 48.0641 15.1925 48.0346 15.1925C47.416 15.1925 46.8184 15.2693 46.2461 15.4185C46.124 15.4483 46.0062 15.4654 45.8884 15.4654C45.1056 15.4654 44.4281 14.8089 44.4281 13.9691V1.48345C44.4281 0.664993 43.7715 0 42.9635 0H42.9593Z"
          fill="white"/>
</svg>
